<?xml version="1.0" standalone="no"?>
<!DOCTYPE svg PUBLIC "-//W3C//DTD SVG 20010904//EN"
 "http://www.w3.org/TR/2001/REC-SVG-20010904/DTD/svg10.dtd">
<svg version="1.0" xmlns="http://www.w3.org/2000/svg"
 width="318.000000pt" height="450.000000pt" viewBox="0 0 318.000000 450.000000"
 preserveAspectRatio="xMidYMid meet">
<metadata>
Created by potrace 1.16, written by Peter Selinger 2001-2019
</metadata>
<g transform="translate(0.000000,450.000000) scale(0.100000,-0.100000)"
fill="#000000" stroke="none">
<path fill="#000000" stroke="none" d="M320 4278 c0 -5 6 -8 14 -8 8 0 18 -9
21 -21 12 -36 8 -378 -4 -392 -6 -8 -7 -18 -3 -23 4 -4 -1 -2 -10 5 -15 11
-21 11 -35 0 -17 -13 -17 -13 -1 7 17 19 17 21 -2 42 -35 37 -74 0 -46 -43 11
-17 23 -22 53 -21 45 2 66 13 56 29 -4 7 2 5 13 -3 10 -8 16 -11 12 -6 -4 5 2
20 12 34 21 26 27 47 11 37 -5 -3 -13 0 -17 6 -4 7 -3 9 4 5 6 -3 14 -1 19 6
12 19 10 327 -2 321 -6 -4 -6 -2 -2 3 9 9 13 10 42 13 8 0 15 4 15 9 0 4 -34
7 -75 7 -41 0 -75 -3 -75 -7z"/>
<path fill="#ffffff" stroke="none" d="M393 4247 c-4 -7 -8 -15 -8 -19 0 -3
-3 -9 -7 -13 -5 -6 -4 19 2 35 1 3 2 9 1 13 -1 5 3 6 9 2 6 -3 7 -12 3 -18z"/>
<path fill="#ffffff" stroke="none" d="M407 4213 c-4 -3 -1 -13 6 -22 11 -14
10 -14 -5 -2 -16 12 -16 31 -1 31 4 0 3 -3 0 -7z"/>
<path fill="#ffffff" stroke="none" d="M389 4186 c9 -10 7 -17 -6 -27 -16 -12
-17 -12 -6 2 10 12 10 18 1 27 -7 7 -9 12 -6 12 3 0 11 -6 17 -14z"/>
<path fill="#ffffff" stroke="none" d="M407 4145 c0 -8 -4 -12 -9 -9 -5 3 -6
10 -3 15 9 13 12 11 12 -6z"/>
<path fill="#ffffff" stroke="none" d="M389 4126 c9 -10 7 -17 -6 -27 -16 -12
-17 -12 -6 2 10 12 10 18 1 27 -7 7 -9 12 -6 12 3 0 11 -6 17 -14z"/>
<path fill="#ffffff" stroke="none" d="M386 4025 c-1 -13 -4 -27 -7 -30 -5 -4
-4 41 0 53 4 10 8 -2 7 -23z"/>
<path fill="#ffffff" stroke="none" d="M415 4041 c3 -5 2 -12 -3 -15 -5 -3 -9
1 -9 9 0 17 3 19 12 6z"/>
<path fill="#ffffff" stroke="none" d="M411 3973 c13 -16 12 -17 -3 -4 -10 7
-18 15 -18 17 0 8 8 3 21 -13z"/>
<path fill="#ffffff" stroke="none" d="M389 3966 c9 -10 7 -17 -6 -27 -16 -12
-17 -12 -6 2 10 12 10 18 1 27 -7 7 -9 12 -6 12 3 0 11 -6 17 -14z"/>
<path fill="#ffffff" stroke="none" d="M389 3906 c9 -10 7 -17 -6 -27 -16 -12
-17 -12 -6 2 10 12 10 18 1 27 -7 7 -9 12 -6 12 3 0 11 -6 17 -14z"/>
<path fill="#ffffff" stroke="none" d="M284 3891 c3 -5 -1 -14 -8 -20 -10 -9
-16 -9 -21 -1 -4 6 -1 9 7 8 7 -2 12 3 11 10 -3 14 3 16 11 3z"/>
<path fill="#000000" stroke="none" d="M343 3657 c-6 -13 -33 -50 -59 -82 -32
-39 -44 -62 -38 -71 5 -6 32 -44 60 -83 28 -39 54 -68 58 -64 3 3 -2 16 -11
27 -17 20 -17 20 0 6 17 -13 21 -11 38 10 10 14 19 31 19 38 0 8 5 10 13 6 7
-5 6 0 -3 11 -8 10 -10 16 -4 12 6 -3 21 5 34 18 21 22 22 26 8 47 -9 13 -27
35 -41 51 -14 15 -23 27 -20 27 4 0 -2 7 -13 16 -10 8 -12 12 -4 8 10 -5 8 1
-5 17 -11 13 -20 25 -21 27 0 1 -6 -9 -11 -21z"/>
<path fill="#ffffff" stroke="none" d="M376 3595 c1 -8 -1 -17 -5 -19 -4 -3
-7 6 -7 19 0 25 8 25 12 0z"/>
<path fill="#ffffff" stroke="none" d="M347 3583 c0 -9 -4 -10 -14 -2 -7 6
-13 12 -13 14 0 1 6 2 13 2 8 0 14 -6 14 -14z"/>
<path fill="#ffffff" stroke="none" d="M314 3581 c3 -5 -2 -15 -12 -22 -15
-12 -16 -12 -5 2 7 9 10 19 6 22 -3 4 -4 7 0 7 3 0 8 -4 11 -9z"/>
<path fill="#ffffff" stroke="none" d="M330 3556 c0 -2 -8 -10 -17 -17 -16
-13 -17 -12 -4 4 13 16 21 21 21 13z"/>
<path fill="#ffffff" stroke="none" d="M331 3527 l-24 -22 19 27 c10 14 21 24
23 22 3 -3 -6 -15 -18 -27z"/>
<path fill="#ffffff" stroke="none" d="M376 3535 c1 -8 -1 -17 -5 -19 -4 -3
-7 6 -7 19 0 25 8 25 12 0z"/>
<path fill="#ffffff" stroke="none" d="M425 3532 c-1 -9 2 -22 7 -29 6 -7 5
-14 -2 -18 -6 -4 -10 -3 -9 2 1 4 0 10 -1 13 -6 15 -6 59 1 55 4 -3 6 -13 4
-23z"/>
<path fill="#ffffff" stroke="none" d="M284 3541 c3 -4 -3 -16 -13 -25 -14
-13 -18 -14 -18 -2 0 8 5 14 11 13 6 -1 10 4 9 11 -3 14 3 16 11 3z"/>
<path fill="#ffffff" stroke="none" d="M347 3505 c0 -8 -4 -12 -9 -9 -5 3 -6
10 -3 15 9 13 12 11 12 -6z"/>
<path fill="#ffffff" stroke="none" d="M397 3513 c-4 -3 -2 -12 4 -19 7 -8 6
-14 -2 -20 -7 -4 -9 -3 -5 4 3 6 2 13 -4 17 -10 6 -5 25 7 25 4 0 3 -3 0 -7z"/>
<path fill="#ffffff" stroke="none" d="M297 3483 c0 -9 -4 -10 -14 -2 -7 6
-13 12 -13 14 0 1 6 2 13 2 8 0 14 -6 14 -14z"/>
<path fill="#ffffff" stroke="none" d="M326 3475 c1 -8 -1 -17 -5 -19 -4 -3
-7 6 -7 19 0 25 8 25 12 0z"/>
<path fill="#ffffff" stroke="none" d="M376 3475 c1 -8 -1 -17 -5 -19 -4 -3
-7 6 -7 19 0 25 8 25 12 0z"/>
<path fill="#ffffff" stroke="none" d="M347 3445 c0 -8 -4 -12 -9 -9 -5 3 -6
10 -3 15 9 13 12 11 12 -6z"/>
<path fill="#ffffff" stroke="none" d="M397 3445 c0 -8 -4 -12 -9 -9 -5 3 -6
10 -3 15 9 13 12 11 12 -6z"/>
<path fill="#ffffff" stroke="none" d="M331 3423 c13 -16 12 -17 -3 -4 -10 7
-18 15 -18 17 0 8 8 3 21 -13z"/>
<path fill="#ffffff" stroke="none" d="M381 3423 c13 -16 12 -17 -3 -4 -17 13
-22 21 -14 21 2 0 10 -8 17 -17z"/>
<path fill="#ffffff" stroke="none" d="M371 3403 c13 -16 12 -17 -3 -4 -10 7
-18 15 -18 17 0 8 8 3 21 -13z"/>
<path fill="#000000" stroke="none" d="M916 2624 c-19 -18 -18 -26 14 -159 12
-49 23 -97 25 -105 2 -8 8 -33 14 -55 5 -22 13 -54 16 -72 3 -18 10 -45 16
-60 6 -15 10 -30 10 -33 -1 -3 9 -49 20 -102 14 -63 26 -95 33 -91 7 4 7 1 -1
-7 -7 -8 -8 -22 -2 -42 9 -33 50 -98 61 -98 8 0 5 21 -5 37 -4 6 -2 15 4 19 7
4 9 3 5 -4 -3 -6 -2 -13 3 -17 5 -3 8 -14 6 -25 -2 -10 3 -24 11 -31 8 -6 14
-8 14 -4 0 4 7 2 15 -5 9 -7 18 -10 22 -7 3 4 15 1 26 -5 17 -9 19 -8 14 6 -3
8 -2 18 4 21 5 4 9 3 8 -2 -4 -21 3 -29 26 -29 23 0 30 7 26 28 0 5 5 7 12 5
6 -1 11 4 10 10 -2 7 3 12 10 10 6 -1 11 4 9 11 -1 8 2 11 9 7 7 -5 2 -17 -15
-34 -30 -31 -32 -38 -11 -38 8 0 15 7 16 16 0 12 3 10 8 -4 5 -11 12 -18 17
-16 16 7 32 35 27 45 -4 5 -1 6 6 1 9 -5 10 -10 2 -18 -17 -17 -13 -23 14 -23
26 0 30 5 18 22 -5 5 -1 2 7 -6 20 -21 62 -21 55 0 -4 13 -4 13 7 0 18 -21 51
-23 43 -2 -3 9 -3 13 1 9 4 -4 17 1 28 10 21 18 21 18 4 -3 -23 -27 -23 -30 7
-30 14 0 25 5 25 11 0 7 3 7 8 0 9 -14 122 -14 122 0 0 7 3 7 8 0 9 -14 55
-13 64 0 5 6 8 6 8 -1 0 -6 14 -11 30 -10 20 1 29 5 25 13 -2 7 1 12 7 10 15
-3 17 24 4 43 -9 13 -9 13 6 2 16 -13 18 -35 5 -48 -14 -14 -6 -21 26 -20 17
1 38 8 45 16 8 9 11 9 7 2 -10 -18 26 -12 43 8 12 13 13 13 6 0 -12 -22 46 16
73 49 17 20 19 29 10 40 -9 12 -9 13 0 8 13 -8 21 13 27 63 1 14 5 30 8 35 3
6 9 28 13 50 5 22 10 47 12 55 2 8 4 29 5 47 1 17 6 30 10 27 4 -3 9 0 9 5 1
6 2 17 3 24 1 6 -3 18 -8 26 -8 11 -8 13 0 8 17 -10 35 67 20 84 -8 9 -8 10 1
5 14 -8 27 29 16 46 -11 19 -13 39 -2 32 5 -3 7 -10 4 -15 -4 -5 -1 -9 4 -9
12 0 15 23 4 34 -11 10 -12 37 -2 30 5 -3 7 -10 4 -15 -4 -5 -1 -9 5 -9 7 0
10 6 7 13 -2 6 2 25 10 41 13 26 13 28 0 23 -16 -6 -18 16 -2 30 4 4 5 2 1 -4
-4 -7 -3 -13 2 -13 14 0 32 112 21 132 -5 10 -19 15 -34 14 -30 -4 -57 -25
-48 -39 3 -6 1 -7 -5 -3 -15 9 -144 -93 -135 -107 3 -6 1 -7 -5 -3 -15 9 -94
-53 -85 -67 3 -6 1 -7 -6 -3 -6 4 -30 -8 -54 -27 -50 -41 -68 -51 -66 -40 3
19 -2 33 -12 33 -5 0 -7 -5 -3 -12 4 -7 3 -8 -5 -4 -6 4 -9 12 -5 17 7 13 -15
41 -27 33 -5 -3 -8 -2 -7 3 4 15 -23 54 -34 47 -6 -4 -8 -3 -5 3 4 6 -5 23
-19 39 -14 16 -37 44 -51 62 -14 18 -31 31 -38 28 -6 -2 -12 2 -12 10 0 7 5
10 11 7 8 -4 8 -3 0 6 -13 14 -47 22 -60 13 -25 -17 -214 -253 -210 -261 3 -4
-4 -17 -17 -27 -12 -10 -19 -15 -15 -10 4 4 -23 31 -60 59 -37 28 -80 61 -95
74 -16 13 -34 20 -39 17 -6 -4 -8 -2 -4 4 12 20 -15 24 -37 5 -22 -18 -22 -18
-4 3 18 21 17 22 -35 63 -29 23 -60 48 -69 55 -29 24 -56 28 -73 10z"/>
<path fill="#ffffff" stroke="none" d="M1610 2626 c0 -2 -6 -9 -14 -15 -11 -9
-16 -9 -22 0 -4 7 -3 9 4 5 6 -3 13 -2 17 4 6 10 15 14 15 6z"/>
<path fill="#ffffff" stroke="none" d="M2251 2613 c13 -16 12 -17 -3 -4 -17
13 -22 21 -14 21 2 0 10 -8 17 -17z"/>
<path fill="#ffffff" stroke="none" d="M2226 2595 c3 -19 -22 -40 -31 -25 -4
6 -1 9 7 8 8 -2 13 6 12 20 -2 24 8 22 12 -3z"/>
<path fill="#ffffff" stroke="none" d="M927 2603 c-4 -3 -1 -13 6 -22 11 -14
10 -14 -5 -2 -16 12 -16 31 -1 31 4 0 3 -3 0 -7z"/>
<path fill="#ffffff" stroke="none" d="M970 2594 c0 -8 -19 -13 -24 -6 -3 5 1
9 9 9 8 0 15 -2 15 -3z"/>
<path fill="#ffffff" stroke="none" d="M1001 2583 c13 -16 12 -17 -3 -4 -10 7
-18 15 -18 17 0 8 8 3 21 -13z"/>
<path fill="#ffffff" stroke="none" d="M1574 2591 c3 -5 -1 -14 -8 -20 -10 -9
-16 -9 -21 -1 -4 6 -1 9 7 8 7 -2 12 3 11 10 -3 14 3 16 11 3z"/>
<path fill="#ffffff" stroke="none" d="M1607 2585 c0 -8 -4 -12 -9 -9 -5 3 -6
10 -3 15 9 13 12 11 12 -6z"/>
<path fill="#ffffff" stroke="none" d="M2177 2583 c-4 -3 -2 -12 4 -20 6 -7 8
-13 4 -13 -4 0 -1 -8 6 -17 13 -16 12 -17 -3 -4 -10 7 -16 17 -13 21 3 5 1 11
-5 15 -10 6 -5 25 7 25 4 0 3 -3 0 -7z"/>
<path fill="#ffffff" stroke="none" d="M2267 2573 c0 -7 -10 -21 -21 -30 -21
-18 -21 -18 -4 3 12 14 14 24 8 30 -7 7 -6 11 3 11 8 0 14 -6 14 -14z"/>
<path fill="#ffffff" stroke="none" d="M989 2567 c8 -11 6 -18 -12 -33 -22
-19 -22 -19 -5 2 14 16 15 23 6 32 -7 7 -9 12 -6 12 3 0 11 -6 17 -13z"/>
<path fill="#ffffff" stroke="none" d="M1657 2564 c4 -5 4 -6 -1 -2 -5 4 -14
3 -21 -2 -8 -7 -12 -5 -12 4 0 15 22 15 34 0z"/>
<path fill="#ffffff" stroke="none" d="M965 2561 c3 -5 2 -12 -3 -15 -5 -3 -9
1 -9 9 0 17 3 19 12 6z"/>
<path fill="#ffffff" stroke="none" d="M1536 2545 c1 -8 -1 -17 -5 -19 -4 -3
-7 6 -7 19 0 25 8 25 12 0z"/>
<path fill="#ffffff" stroke="none" d="M937 2553 c-4 -3 -1 -13 6 -22 11 -14
10 -14 -5 -2 -16 12 -16 31 -1 31 4 0 3 -3 0 -7z"/>
<path fill="#ffffff" stroke="none" d="M1053 2540 c10 -12 9 -12 -4 -2 -9 6
-18 9 -21 6 -3 -3 -9 -1 -12 4 -9 15 22 8 37 -8z"/>
<path fill="#ffffff" stroke="none" d="M1603 2548 c-8 -12 -10 -30 -3 -43 1
-3 3 -17 4 -32 1 -16 5 -35 11 -43 7 -12 6 -13 -7 -3 -8 7 -14 25 -13 40 1 16
-1 33 -4 38 -11 19 -1 55 16 55 3 0 1 -6 -4 -12z"/>
<path fill="#ffffff" stroke="none" d="M1645 2533 c-1 -10 5 -27 14 -38 16
-20 16 -20 -6 -2 -17 15 -21 30 -14 55 4 11 9 -2 6 -15z"/>
<path fill="#ffffff" stroke="none" d="M1681 2533 c13 -16 12 -17 -3 -4 -10 7
-18 15 -18 17 0 8 8 3 21 -13z"/>
<path fill="#ffffff" stroke="none" d="M2141 2533 c13 -16 12 -17 -3 -4 -10 7
-18 15 -18 17 0 8 8 3 21 -13z"/>
<path fill="#ffffff" stroke="none" d="M1016 2519 c1 -5 2 -10 4 -11 5 -8 7
-39 2 -33 -4 4 -8 11 -8 16 -1 5 -2 10 -4 12 -5 7 -7 38 -2 32 4 -4 8 -11 8
-16z"/>
<path fill="#ffffff" stroke="none" d="M1507 2515 c0 -8 -4 -12 -9 -9 -5 3 -6
10 -3 15 9 13 12 11 12 -6z"/>
<path fill="#ffffff" stroke="none" d="M2126 2518 c4 -7 4 -10 -1 -6 -4 4 -15
2 -24 -5 -14 -11 -14 -10 -2 6 16 20 18 21 27 5z"/>
<path fill="#ffffff" stroke="none" d="M2170 2515 c1 -5 8 -17 16 -27 12 -13
13 -17 2 -24 -7 -4 -10 -4 -6 1 4 4 2 15 -4 23 -10 12 -22 50 -13 40 2 -1 4
-7 5 -13z"/>
<path fill="#ffffff" stroke="none" d="M987 2513 c-4 -3 -2 -12 4 -20 6 -7 8
-13 4 -13 -4 0 -2 -7 5 -15 7 -8 16 -12 21 -9 16 9 10 -3 -8 -17 -9 -8 -14 -9
-10 -3 4 7 0 17 -8 24 -8 7 -13 16 -10 20 3 5 1 11 -5 15 -10 6 -5 25 7 25 4
0 3 -3 0 -7z"/>
<path fill="#ffffff" stroke="none" d="M1071 2496 c-11 -12 -20 -25 -21 -31
-3 -19 -6 -14 -6 10 0 13 5 23 11 22 5 -1 9 3 8 9 -1 6 5 11 13 11 11 0 10 -5
-5 -21z"/>
<path fill="#ffffff" stroke="none" d="M1565 2512 c-3 -3 0 -11 6 -19 17 -20
5 -16 -14 5 -15 16 -15 19 -2 19 8 0 13 -3 10 -5z"/>
<path fill="#ffffff" stroke="none" d="M1707 2505 c0 -8 -4 -12 -9 -9 -5 3 -6
10 -3 15 9 13 12 11 12 -6z"/>
<path fill="#ffffff" stroke="none" d="M2240 2514 c0 -8 -19 -13 -24 -6 -3 5
1 9 9 9 8 0 15 -2 15 -3z"/>
<path fill="#ffffff" stroke="none" d="M955 2502 c-3 -3 0 -11 6 -19 17 -20 5
-16 -14 5 -15 16 -15 19 -2 19 8 0 13 -3 10 -5z"/>
<path fill="#ffffff" stroke="none" d="M1495 2482 c-3 -3 0 -11 5 -17 7 -8 3
-18 -13 -31 -22 -19 -22 -19 -5 2 14 16 15 23 6 32 -7 7 -8 12 -4 12 5 0 2 8
-5 18 -13 15 -12 16 4 3 9 -8 15 -16 12 -19z"/>
<path fill="#ffffff" stroke="none" d="M1545 2490 c10 -11 16 -20 13 -20 -3 0
-13 9 -23 20 -10 11 -16 20 -13 20 3 0 13 -9 23 -20z"/>
<path fill="#ffffff" stroke="none" d="M2147 2495 c0 -8 -12 -25 -26 -37 -14
-13 -20 -16 -13 -7 6 9 8 19 4 23 -4 4 0 6 8 4 8 -1 15 3 16 10 4 27 11 32 11
7z"/>
<path fill="#ffffff" stroke="none" d="M1645 2480 c10 -11 16 -20 13 -20 -3 0
-13 9 -23 20 -10 11 -16 20 -13 20 3 0 13 -9 23 -20z"/>
<path fill="#ffffff" stroke="none" d="M1120 2487 c0 -2 -9 -12 -19 -21 -14
-13 -21 -14 -27 -5 -4 7 -3 10 3 6 6 -4 16 0 23 8 12 14 20 19 20 12z"/>
<path fill="#ffffff" stroke="none" d="M1529 2476 c9 -11 9 -16 -1 -22 -7 -4
-10 -4 -6 1 4 4 3 14 -3 22 -6 7 -9 13 -6 13 2 0 10 -6 16 -14z"/>
<path fill="#ffffff" stroke="none" d="M1727 2475 c0 -8 -4 -12 -9 -9 -5 3 -6
10 -3 15 9 13 12 11 12 -6z"/>
<path fill="#ffffff" stroke="none" d="M2096 2474 c-1 -8 -4 -15 -7 -16 -2 -2
-3 -1 -2 1 2 2 -2 9 -7 16 -7 8 -5 12 4 12 8 0 13 -6 12 -13z"/>
<path fill="#ffffff" stroke="none" d="M2227 2475 c0 -8 -4 -12 -9 -9 -5 3 -6
10 -3 15 9 13 12 11 12 -6z"/>
<path fill="#ffffff" stroke="none" d="M1470 2476 c0 -2 -8 -10 -17 -17 -16
-13 -17 -12 -4 4 13 16 21 21 21 13z"/>
<path fill="#ffffff" stroke="none" d="M2062 2465 c2 3 5 -2 5 -10 0 -19 0
-19 -23 7 -12 14 -13 18 -3 10 9 -6 18 -10 21 -7z"/>
<path fill="#ffffff" stroke="none" d="M2165 2463 c-1 -10 4 -26 13 -35 8 -10
12 -18 7 -18 -4 0 -1 -8 6 -17 13 -16 12 -17 -3 -4 -10 7 -16 17 -13 21 3 4
-1 13 -9 19 -11 10 -14 26 -7 49 4 11 9 -2 6 -15z"/>
<path fill="#ffffff" stroke="none" d="M1130 2466 c0 -2 -8 -10 -17 -17 -16
-13 -17 -12 -4 4 13 16 21 21 21 13z"/>
<path fill="#ffffff" stroke="none" d="M1170 2464 c0 -8 -19 -13 -24 -6 -3 5
1 9 9 9 8 0 15 -2 15 -3z"/>
<path fill="#ffffff" stroke="none" d="M1635 2461 c3 -5 2 -12 -3 -15 -5 -3
-9 1 -9 9 0 17 3 19 12 6z"/>
<path fill="#ffffff" stroke="none" d="M1686 2444 c1 -9 0 -13 -4 -10 -3 4 -7
14 -8 22 -1 9 0 13 4 10 3 -4 7 -14 8 -22z"/>
<path fill="#ffffff" stroke="none" d="M986 2435 c3 -19 -22 -40 -31 -25 -4 6
-1 9 7 8 8 -2 13 6 12 20 -2 24 8 22 12 -3z"/>
<path fill="#ffffff" stroke="none" d="M1480 2456 c0 -2 -8 -10 -17 -17 -16
-13 -17 -12 -4 4 13 16 21 21 21 13z"/>
<path fill="#ffffff" stroke="none" d="M1560 2457 c0 -2 -10 -13 -23 -25 -18
-17 -24 -19 -24 -8 0 8 4 13 8 11 3 -3 12 2 19 10 12 14 20 19 20 12z"/>
<path fill="#ffffff" stroke="none" d="M1715 2451 c3 -5 2 -12 -3 -15 -5 -3
-9 1 -9 9 0 17 3 19 12 6z"/>
<path fill="#ffffff" stroke="none" d="M2039 2446 c9 -11 9 -16 -1 -22 -7 -4
-10 -4 -6 1 4 4 3 14 -3 22 -6 7 -9 13 -6 13 2 0 10 -6 16 -14z"/>
<path fill="#ffffff" stroke="none" d="M1067 2443 c-4 -3 1 -16 10 -27 18 -21
18 -21 -4 -2 -20 16 -23 36 -6 36 4 0 3 -3 0 -7z"/>
<path fill="#ffffff" stroke="none" d="M1140 2446 c0 -2 -8 -10 -17 -17 -16
-13 -17 -12 -4 4 13 16 21 21 21 13z"/>
<path fill="#ffffff" stroke="none" d="M1179 2424 c-6 -8 -8 -14 -4 -14 5 0 1
-8 -8 -18 -12 -13 -14 -21 -6 -29 8 -8 8 -13 0 -18 -6 -3 -11 -3 -10 2 1 4 0
10 -1 13 -8 20 -6 39 3 37 6 -1 12 4 13 11 1 6 3 15 4 20 1 4 2 11 1 15 -1 5
3 6 9 2 8 -5 7 -11 -1 -21z"/>
<path fill="#ffffff" stroke="none" d="M1575 2433 c-1 -10 0 -22 3 -28 9 -15
10 -55 1 -49 -4 2 -6 13 -4 24 2 11 0 22 -5 25 -7 4 -7 22 -1 43 4 10 9 -2 6
-15z"/>
<path fill="#ffffff" stroke="none" d="M1660 2446 c0 -2 -8 -10 -17 -17 -16
-13 -17 -12 -4 4 13 16 21 21 21 13z"/>
<path fill="#ffffff" stroke="none" d="M1755 2442 c-3 -3 0 -11 6 -19 17 -20
5 -16 -14 5 -15 16 -15 19 -2 19 8 0 13 -3 10 -5z"/>
<path fill="#ffffff" stroke="none" d="M2140 2446 c0 -2 -8 -10 -17 -17 -16
-13 -17 -12 -4 4 13 16 21 21 21 13z"/>
<path fill="#ffffff" stroke="none" d="M2201 2433 c13 -16 12 -17 -3 -4 -10 7
-18 15 -18 17 0 8 8 3 21 -13z"/>
<path fill="#ffffff" stroke="none" d="M1035 2413 c-1 -16 2 -33 7 -40 6 -7 4
-14 -3 -19 -7 -4 -9 -3 -5 4 3 6 2 13 -2 16 -10 6 -8 66 1 66 2 0 3 -12 2 -27z"/>
<path fill="#ffffff" stroke="none" d="M1160 2437 c0 -2 -13 -15 -28 -30 -20
-19 -29 -23 -29 -13 0 8 3 13 7 11 4 -3 15 4 25 15 17 19 25 24 25 17z"/>
<path fill="#ffffff" stroke="none" d="M1995 2431 c3 -5 2 -12 -3 -15 -5 -3
-9 1 -9 9 0 17 3 19 12 6z"/>
<path fill="#ffffff" stroke="none" d="M2095 2431 c3 -5 2 -12 -3 -15 -5 -3
-9 1 -9 9 0 17 3 19 12 6z"/>
<path fill="#ffffff" stroke="none" d="M1670 2427 c0 -2 -15 -18 -33 -35 -22
-21 -34 -27 -34 -18 0 8 5 14 11 13 6 -1 10 4 8 11 -1 8 2 11 7 8 5 -3 14 1
21 9 12 14 20 19 20 12z"/>
<path fill="#ffffff" stroke="none" d="M1739 2416 c9 -11 9 -16 -1 -22 -7 -4
-10 -4 -6 1 4 4 3 14 -3 22 -6 7 -9 13 -6 13 2 0 10 -6 16 -14z"/>
<path fill="#ffffff" stroke="none" d="M2067 2415 c0 -8 -4 -12 -9 -9 -5 3 -6
10 -3 15 9 13 12 11 12 -6z"/>
<path fill="#ffffff" stroke="none" d="M2142 2418 c-9 -9 -9 -15 1 -27 11 -14
10 -14 -6 -2 -13 10 -15 17 -6 27 6 8 14 14 17 14 3 0 1 -5 -6 -12z"/>
<path fill="#ffffff" stroke="none" d="M1010 2416 c0 -2 -8 -10 -17 -17 -16
-13 -17 -12 -4 4 13 16 21 21 21 13z"/>
<path fill="#ffffff" stroke="none" d="M1420 2416 c0 -2 -8 -10 -17 -17 -16
-13 -17 -12 -4 4 13 16 21 21 21 13z"/>
<path fill="#ffffff" stroke="none" d="M1444 2398 c1 -7 5 -20 10 -28 7 -12 6
-13 -4 -3 -8 7 -15 23 -17 35 -2 12 -1 19 3 16 3 -3 6 -12 8 -20z"/>
<path fill="#ffffff" stroke="none" d="M1495 2403 c-1 -10 3 -25 9 -33 9 -13
9 -13 -6 -2 -13 10 -16 26 -9 50 4 11 9 -2 6 -15z"/>
<path fill="#ffffff" stroke="none" d="M1547 2413 c-4 -3 -1 -13 6 -22 11 -14
10 -14 -5 -2 -16 12 -16 31 -1 31 4 0 3 -3 0 -7z"/>
<path fill="#ffffff" stroke="none" d="M1687 2405 c0 -8 -8 -22 -17 -30 -14
-13 -17 -13 -17 -1 0 8 5 14 11 13 5 -1 11 4 12 11 4 27 11 32 11 7z"/>
<path fill="#ffffff" stroke="none" d="M1716 2394 c1 -9 0 -13 -4 -10 -3 4 -7
14 -8 22 -1 9 0 13 4 10 3 -4 7 -14 8 -22z"/>
<path fill="#ffffff" stroke="none" d="M2016 2405 c-1 -8 -5 -17 -8 -21 -5 -4
-4 16 1 34 3 9 9 -1 7 -13z"/>
<path fill="#ffffff" stroke="none" d="M1065 2401 c3 -5 2 -12 -3 -15 -5 -3
-9 1 -9 9 0 17 3 19 12 6z"/>
<path fill="#ffffff" stroke="none" d="M2044 2401 c3 -5 -2 -15 -12 -22 -15
-12 -16 -12 -5 2 7 9 10 19 6 22 -3 4 -4 7 0 7 3 0 8 -4 11 -9z"/>
<path fill="#ffffff" stroke="none" d="M1206 2382 c-3 -3 0 -12 6 -21 10 -13
10 -14 -2 -4 -16 15 -23 46 -8 37 5 -3 7 -9 4 -12z"/>
<path fill="#ffffff" stroke="none" d="M1237 2385 c0 -8 -4 -12 -9 -9 -5 3 -6
10 -3 15 9 13 12 11 12 -6z"/>
<path fill="#ffffff" stroke="none" d="M1535 2372 c-3 -3 1 -12 8 -21 11 -14
10 -14 -6 -2 -9 8 -15 16 -12 19 3 3 -1 12 -8 21 -11 14 -10 14 6 2 9 -8 15
-16 12 -19z"/>
<path fill="#ffffff" stroke="none" d="M1987 2383 c0 -9 -4 -10 -14 -2 -7 6
-13 12 -13 14 0 1 6 2 13 2 8 0 14 -6 14 -14z"/>
<path fill="#ffffff" stroke="none" d="M1007 2383 c-4 -3 -1 -13 6 -22 11 -14
10 -14 -5 -2 -16 12 -16 31 -1 31 4 0 3 -3 0 -7z"/>
<path fill="#ffffff" stroke="none" d="M1090 2386 c0 -2 -8 -10 -17 -17 -16
-13 -17 -12 -4 4 13 16 21 21 21 13z"/>
<path fill="#ffffff" stroke="none" d="M1415 2373 c-1 -10 5 -27 14 -38 16
-20 16 -20 -6 -2 -17 15 -21 30 -14 55 4 11 9 -2 6 -15z"/>
<path fill="#ffffff" stroke="none" d="M2076 2369 c1 -5 2 -10 4 -11 7 -9 7
-39 0 -43 -5 -3 -7 3 -5 12 1 10 0 23 -4 28 -8 15 -11 38 -3 30 4 -4 8 -11 8
-16z"/>
<path fill="#ffffff" stroke="none" d="M2124 2381 c3 -5 -1 -14 -8 -20 -10 -9
-16 -9 -21 -1 -4 6 -1 9 7 8 7 -2 12 3 11 10 -3 14 3 16 11 3z"/>
<path fill="#ffffff" stroke="none" d="M2176 2372 c-3 -3 0 -12 6 -21 10 -13
10 -14 -2 -4 -16 15 -23 46 -8 37 5 -3 7 -9 4 -12z"/>
<path fill="#ffffff" stroke="none" d="M1127 2373 c-4 -3 -2 -11 3 -18 7 -8 1
-19 -18 -36 l-27 -24 23 26 c15 18 20 29 13 34 -11 6 -6 25 6 25 4 0 3 -3 0
-7z"/>
<path fill="#ffffff" stroke="none" d="M1280 2375 c0 -2 -6 -8 -13 -14 -10 -8
-14 -7 -14 2 0 8 6 14 14 14 7 0 13 -1 13 -2z"/>
<path fill="#ffffff" stroke="none" d="M1697 2369 c-1 -3 4 -13 10 -21 11 -12
8 -19 -15 -39 l-27 -24 23 26 c12 14 19 29 15 33 -4 3 -8 14 -9 22 -1 9 -1 14
1 12 2 -1 3 -6 2 -9z"/>
<path fill="#ffffff" stroke="none" d="M1737 2373 c-4 -3 -2 -12 4 -19 7 -8 6
-14 -2 -20 -7 -4 -9 -3 -5 4 3 6 2 13 -4 17 -10 6 -5 25 7 25 4 0 3 -3 0 -7z"/>
<path fill="#ffffff" stroke="none" d="M1795 2372 c-3 -3 0 -11 6 -19 17 -20
5 -16 -14 5 -15 16 -15 19 -2 19 8 0 13 -3 10 -5z"/>
<path fill="#ffffff" stroke="none" d="M1960 2365 c1 -5 8 -17 16 -26 12 -14
12 -18 -4 -32 -15 -14 -19 -14 -19 -3 0 8 3 15 6 14 19 -2 22 4 10 18 -11 14
-24 52 -14 42 2 -1 4 -7 5 -13z"/>
<path fill="#ffffff" stroke="none" d="M1100 2366 c0 -2 -8 -10 -17 -17 -16
-13 -17 -12 -4 4 13 16 21 21 21 13z"/>
<path fill="#ffffff" stroke="none" d="M1491 2353 c13 -16 12 -17 -3 -4 -10 7
-18 15 -18 17 0 8 8 3 21 -13z"/>
<path fill="#ffffff" stroke="none" d="M1785 2332 c-3 -3 2 -13 11 -23 12 -14
13 -18 2 -25 -7 -4 -10 -3 -5 1 4 5 0 17 -10 27 -9 10 -12 18 -8 18 4 0 0 10
-11 23 l-19 22 23 -19 c12 -11 20 -21 17 -24z"/>
<path fill="#ffffff" stroke="none" d="M1920 2364 c0 -8 -19 -13 -24 -6 -3 5
1 9 9 9 8 0 15 -2 15 -3z"/>
<path fill="#ffffff" stroke="none" d="M2047 2363 c-4 -3 -1 -13 6 -22 11 -14
10 -14 -5 -2 -16 12 -16 31 -1 31 4 0 3 -3 0 -7z"/>
<path fill="#ffffff" stroke="none" d="M2150 2366 c0 -2 -8 -10 -17 -17 -16
-13 -17 -12 -4 4 13 16 21 21 21 13z"/>
<path fill="#ffffff" stroke="none" d="M1001 2343 c13 -16 12 -17 -3 -4 -10 7
-18 15 -18 17 0 8 8 3 21 -13z"/>
<path fill="#ffffff" stroke="none" d="M1200 2325 c-5 -6 -8 -14 -5 -17 3 -3
-1 -11 -9 -17 -10 -8 -16 -9 -21 -1 -4 6 -1 9 6 8 7 -2 13 2 14 9 0 6 3 15 7
19 4 4 2 14 -5 23 -11 14 -10 14 6 2 12 -9 14 -17 7 -26z"/>
<path fill="#ffffff" stroke="none" d="M1231 2337 c-10 -9 -11 -8 -5 6 3 10 9
15 12 12 3 -3 0 -11 -7 -18z"/>
<path fill="#ffffff" stroke="none" d="M1385 2343 c-1 -10 5 -27 14 -38 16
-20 16 -20 -6 -2 -17 15 -21 30 -14 55 4 11 9 -2 6 -15z"/>
<path fill="#ffffff" stroke="none" d="M1680 2356 c0 -2 -6 -9 -14 -15 -11 -9
-16 -9 -22 0 -4 7 -3 9 4 5 6 -3 13 -2 17 4 6 10 15 14 15 6z"/>
<path fill="#ffffff" stroke="none" d="M1940 2356 c0 -2 -8 -10 -17 -17 -16
-13 -17 -12 -4 4 13 16 21 21 21 13z"/>
<path fill="#ffffff" stroke="none" d="M2001 2343 c13 -16 12 -17 -3 -4 -10 7
-18 15 -18 17 0 8 8 3 21 -13z"/>
<path fill="#ffffff" stroke="none" d="M1060 2346 c0 -2 -6 -9 -14 -15 -11 -9
-16 -9 -22 0 -4 7 -3 9 4 5 6 -3 13 -2 17 4 6 10 15 14 15 6z"/>
<path fill="#ffffff" stroke="none" d="M1110 2346 c0 -2 -8 -10 -17 -17 -16
-13 -17 -12 -4 4 13 16 21 21 21 13z"/>
<path fill="#ffffff" stroke="none" d="M1467 2336 c-3 -7 0 -20 6 -27 10 -11
9 -11 -5 0 -15 11 -15 41 -1 41 3 0 3 -6 0 -14z"/>
<path fill="#ffffff" stroke="none" d="M1529 2336 c9 -11 9 -16 -1 -22 -7 -4
-10 -4 -6 1 4 4 3 14 -3 22 -6 7 -9 13 -6 13 2 0 10 -6 16 -14z"/>
<path fill="#ffffff" stroke="none" d="M1607 2343 c-4 -3 -1 -13 6 -22 11 -14
10 -14 -5 -2 -16 12 -16 31 -1 31 4 0 3 -3 0 -7z"/>
<path fill="#ffffff" stroke="none" d="M1834 2334 c3 -8 2 -12 -4 -9 -6 3 -10
10 -10 16 0 14 7 11 14 -7z"/>
<path fill="#ffffff" stroke="none" d="M1895 2341 c3 -5 2 -12 -3 -15 -5 -3
-9 1 -9 9 0 17 3 19 12 6z"/>
<path fill="#ffffff" stroke="none" d="M2160 2346 c0 -2 -8 -10 -17 -17 -16
-13 -17 -12 -4 4 13 16 21 21 21 13z"/>
<path fill="#ffffff" stroke="none" d="M2215 2341 c3 -5 2 -12 -3 -15 -5 -3
-9 1 -9 9 0 17 3 19 12 6z"/>
<path fill="#ffffff" stroke="none" d="M991 2323 c13 -16 12 -17 -3 -4 -10 7
-18 15 -18 17 0 8 8 3 21 -13z"/>
<path fill="#ffffff" stroke="none" d="M1180 2337 c0 -2 -8 -11 -18 -20 -15
-14 -19 -15 -19 -2 0 8 4 12 8 9 4 -2 10 0 14 6 6 10 15 14 15 7z"/>
<path fill="#ffffff" stroke="none" d="M1260 2336 c0 -2 -8 -10 -17 -17 -16
-13 -17 -12 -4 4 13 16 21 21 21 13z"/>
<path fill="#ffffff" stroke="none" d="M1639 2326 c9 -10 7 -17 -6 -27 -16
-12 -17 -12 -6 2 10 12 10 18 1 27 -7 7 -9 12 -6 12 3 0 11 -6 17 -14z"/>
<path fill="#ffffff" stroke="none" d="M1690 2336 c0 -2 -8 -10 -17 -17 -16
-13 -17 -12 -4 4 13 16 21 21 21 13z"/>
<path fill="#ffffff" stroke="none" d="M1866 2325 c-1 -8 -5 -17 -8 -21 -5 -4
-4 16 1 34 3 9 9 -1 7 -13z"/>
<path fill="#ffffff" stroke="none" d="M1943 2328 c-8 -12 -10 -30 -3 -43 1
-3 3 -8 4 -12 1 -5 5 -15 11 -23 8 -13 7 -13 -8 -1 -9 7 -15 17 -12 21 3 5 1
11 -4 14 -14 9 -1 56 16 56 3 0 1 -6 -4 -12z"/>
<path fill="#ffffff" stroke="none" d="M2034 2331 c3 -4 -3 -16 -13 -25 -14
-13 -18 -14 -18 -2 0 8 5 14 11 13 6 -1 10 4 9 11 -3 14 3 16 11 3z"/>
<path fill="#ffffff" stroke="none" d="M2114 2331 c3 -5 -2 -15 -12 -22 -15
-12 -16 -12 -5 2 7 9 10 19 6 22 -3 4 -4 7 0 7 3 0 8 -4 11 -9z"/>
<path fill="#ffffff" stroke="none" d="M1061 2317 c-6 -8 -9 -16 -6 -19 3 -3
-1 -11 -9 -17 -10 -8 -16 -9 -21 -1 -4 6 -1 9 6 8 7 -2 13 2 14 7 0 13 14 35
22 35 3 0 0 -6 -6 -13z"/>
<path fill="#ffffff" stroke="none" d="M1280 2326 c0 -2 -8 -10 -17 -17 -16
-13 -17 -12 -4 4 13 16 21 21 21 13z"/>
<path fill="#ffffff" stroke="none" d="M1421 2313 c13 -16 12 -17 -3 -4 -10 7
-18 15 -18 17 0 8 8 3 21 -13z"/>
<path fill="#ffffff" stroke="none" d="M1506 2314 c-1 -8 -4 -15 -7 -16 -2 -2
-3 -1 -2 1 2 2 -2 9 -7 16 -7 8 -5 12 4 12 8 0 13 -6 12 -13z"/>
<path fill="#ffffff" stroke="none" d="M1760 2327 c0 -2 -8 -11 -18 -20 -15
-14 -19 -15 -19 -2 0 8 4 12 8 9 4 -2 10 0 14 6 6 10 15 14 15 7z"/>
<path fill="#ffffff" stroke="none" d="M2170 2326 c0 -2 -8 -10 -17 -17 -16
-13 -17 -12 -4 4 13 16 21 21 21 13z"/>
<path fill="#ffffff" stroke="none" d="M2171 2297 l-24 -22 19 27 c10 14 21
24 23 22 3 -3 -6 -15 -18 -27z"/>
<path fill="#ffffff" stroke="none" d="M1300 2316 c0 -2 -8 -10 -17 -17 -16
-13 -17 -12 -4 4 13 16 21 21 21 13z"/>
<path fill="#ffffff" stroke="none" d="M1344 2311 c3 -4 -7 -19 -22 -32 l-27
-24 23 26 c12 14 19 29 15 32 -3 4 -4 7 0 7 3 0 8 -4 11 -9z"/>
<path fill="#ffffff" stroke="none" d="M1601 2303 c13 -16 12 -17 -3 -4 -10 7
-18 15 -18 17 0 8 8 3 21 -13z"/>
<path fill="#ffffff" stroke="none" d="M2056 2305 c-3 -23 -22 -39 -31 -26 -3
7 -1 10 6 9 7 -2 14 3 15 10 2 19 4 22 8 22 2 0 3 -7 2 -15z"/>
<path fill="#ffffff" stroke="none" d="M1127 2295 c0 -8 -4 -12 -9 -9 -5 3 -6
10 -3 15 9 13 12 11 12 -6z"/>
<path fill="#ffffff" stroke="none" d="M1320 2306 c0 -2 -8 -10 -17 -17 -16
-13 -17 -12 -4 4 13 16 21 21 21 13z"/>
<path fill="#ffffff" stroke="none" d="M1379 2296 c9 -11 9 -16 -1 -22 -7 -4
-10 -4 -6 1 4 4 3 14 -3 22 -6 7 -9 13 -6 13 2 0 10 -6 16 -14z"/>
<path fill="#ffffff" stroke="none" d="M1456 2274 c0 -13 -2 -22 -5 -19 -3 3
-6 17 -7 31 0 13 2 22 5 19 3 -3 6 -17 7 -31z"/>
<path fill="#ffffff" stroke="none" d="M1541 2276 c-15 -16 -18 -25 -10 -33 8
-8 7 -13 -2 -18 -7 -5 -10 -4 -5 3 3 6 1 14 -5 17 -7 5 -3 15 10 29 12 12 18
26 14 31 -5 4 -2 5 5 1 11 -6 9 -13 -7 -30z"/>
<path fill="#ffffff" stroke="none" d="M1770 2307 c0 -2 -10 -12 -22 -23 l-23
-19 19 23 c18 21 26 27 26 19z"/>
<path fill="#ffffff" stroke="none" d="M1882 2298 c-9 -9 -9 -15 1 -27 11 -14
10 -14 -6 -2 -13 10 -15 17 -6 27 6 8 14 14 17 14 3 0 1 -5 -6 -12z"/>
<path fill="#ffffff" stroke="none" d="M2130 2306 c0 -2 -8 -10 -17 -17 -16
-13 -17 -12 -4 4 13 16 21 21 21 13z"/>
<path fill="#ffffff" stroke="none" d="M1005 2292 c-3 -3 4 -15 15 -27 20 -21
20 -23 3 -36 -15 -11 -16 -11 -6 1 11 11 8 19 -12 40 -19 20 -21 27 -10 27 8
0 13 -3 10 -5z"/>
<path fill="#ffffff" stroke="none" d="M1230 2285 c-5 -7 -7 -15 -3 -19 4 -3
8 -14 9 -22 1 -9 -1 -13 -4 -9 -4 4 -8 11 -8 16 -1 5 -2 10 -4 12 -9 11 -5 34
6 34 9 0 11 -4 4 -12z"/>
<path fill="#ffffff" stroke="none" d="M1530 2296 c0 -2 -8 -10 -17 -17 -16
-13 -17 -12 -4 4 13 16 21 21 21 13z"/>
<path fill="#ffffff" stroke="none" d="M1591 2283 c13 -16 12 -17 -3 -4 -10 7
-18 15 -18 17 0 8 8 3 21 -13z"/>
<path fill="#ffffff" stroke="none" d="M1660 2297 c0 -2 -9 -12 -19 -21 -14
-13 -21 -14 -27 -5 -4 7 -3 10 3 6 6 -4 16 0 23 8 12 14 20 19 20 12z"/>
<path fill="#ffffff" stroke="none" d="M1703 2288 c-11 -15 -11 -28 0 -45 4
-6 2 -15 -4 -19 -7 -4 -9 -3 -5 4 3 6 2 13 -3 16 -14 9 -1 56 16 56 3 0 1 -6
-4 -12z"/>
<path fill="#ffffff" stroke="none" d="M1907 2293 c-4 -3 -2 -12 4 -19 7 -8 6
-14 -2 -20 -7 -4 -9 -3 -5 4 3 6 2 13 -4 17 -10 6 -5 25 7 25 4 0 3 -3 0 -7z"/>
<path fill="#ffffff" stroke="none" d="M1987 2285 c0 -8 -4 -12 -9 -9 -5 3 -6
10 -3 15 9 13 12 11 12 -6z"/>
<path fill="#ffffff" stroke="none" d="M1071 2277 c-6 -8 -8 -16 -5 -19 3 -3
1 -9 -4 -12 -6 -3 -9 0 -8 6 2 16 15 38 23 38 3 0 0 -6 -6 -13z"/>
<path fill="#ffffff" stroke="none" d="M1111 2273 c13 -16 12 -17 -3 -4 -10 7
-18 15 -18 17 0 8 8 3 21 -13z"/>
<path fill="#ffffff" stroke="none" d="M1161 2273 c13 -16 12 -17 -3 -4 -10 7
-18 15 -18 17 0 8 8 3 21 -13z"/>
<path fill="#ffffff" stroke="none" d="M1257 2275 c0 -8 -4 -12 -9 -9 -5 3 -6
10 -3 15 9 13 12 11 12 -6z"/>
<path fill="#ffffff" stroke="none" d="M1355 2273 c-1 -10 2 -23 7 -30 6 -7 5
-14 -3 -19 -7 -4 -9 -3 -5 4 3 6 2 13 -3 16 -7 5 -8 23 -2 44 4 11 9 -2 6 -15z"/>
<path fill="#ffffff" stroke="none" d="M1846 2275 c-3 -23 -22 -39 -31 -26 -3
7 -1 10 6 9 7 -2 14 3 15 10 2 19 4 22 8 22 2 0 3 -7 2 -15z"/>
<path fill="#ffffff" stroke="none" d="M2181 2277 c-6 -8 -9 -16 -6 -19 3 -3
-3 -12 -13 -21 -15 -14 -19 -14 -19 -3 0 8 5 14 11 13 5 -1 10 3 11 8 0 13 14
35 22 35 3 0 0 -6 -6 -13z"/>
<path fill="#ffffff" stroke="none" d="M1197 2273 c-4 -3 -1 -13 6 -22 11 -14
10 -14 -5 -2 -16 12 -16 31 -1 31 4 0 3 -3 0 -7z"/>
<path fill="#ffffff" stroke="none" d="M1285 2271 c3 -5 2 -12 -3 -15 -5 -3
-9 1 -9 9 0 17 3 19 12 6z"/>
<path fill="#ffffff" stroke="none" d="M1608 2253 c10 -1 24 -11 33 -22 9 -11
19 -17 23 -14 3 4 -1 14 -9 23 -13 14 -13 17 0 17 8 0 12 -4 9 -8 -2 -4 1 -11
6 -14 8 -5 6 -13 -6 -26 -9 -10 -14 -19 -9 -19 4 0 2 -7 -5 -15 -10 -12 -10
-18 1 -32 12 -16 12 -17 -2 -5 -21 16 -54 5 -39 -13 8 -10 8 -15 -1 -21 -7 -4
-9 -3 -6 3 4 6 0 17 -9 24 -13 10 -19 10 -37 0 -14 -9 -18 -9 -11 -1 9 9 8 19
-3 40 -11 22 -11 34 -3 50 6 11 8 25 5 30 -4 6 -1 9 7 8 7 -2 12 3 10 11 -3
12 -1 12 13 1 10 -8 24 -15 33 -17z"/>
<path fill="#ffffff" stroke="none" d="M2029 2233 c-6 -7 -8 -13 -3 -13 4 0
-2 -10 -14 -23 -12 -13 -20 -26 -16 -29 3 -3 1 -9 -4 -12 -9 -5 -9 14 -2 34 1
3 2 8 1 13 0 4 4 6 11 5 7 -2 12 2 13 9 0 6 3 15 8 19 4 4 -1 17 -10 28 -18
21 -18 21 4 2 18 -15 20 -22 12 -33z"/>
<path fill="#ffffff" stroke="none" d="M2066 2265 c-1 -8 -5 -17 -8 -21 -5 -4
-4 16 1 34 3 9 9 -1 7 -13z"/>
<path fill="#ffffff" stroke="none" d="M1105 2240 c-3 -5 -1 -11 4 -14 5 -4 8
-14 6 -24 -1 -9 3 -24 9 -32 9 -13 9 -13 -6 -2 -9 7 -15 21 -13 30 1 9 -2 23
-8 30 -5 6 -6 12 -2 12 4 0 1 8 -6 18 -13 15 -12 16 3 3 10 -7 16 -17 13 -21z"/>
<path fill="#ffffff" stroke="none" d="M1151 2253 c13 -16 12 -17 -3 -4 -10 7
-18 15 -18 17 0 8 8 3 21 -13z"/>
<path fill="#ffffff" stroke="none" d="M1422 2258 c-8 -8 -9 -15 -1 -25 7 -7
8 -13 4 -13 -4 0 -1 -8 6 -17 13 -16 12 -17 -3 -4 -10 7 -16 17 -13 21 3 5 1
12 -5 15 -11 7 4 35 18 35 3 0 1 -5 -6 -12z"/>
<path fill="#ffffff" stroke="none" d="M1761 2246 c-6 -7 -9 -15 -6 -18 3 -2
-8 -17 -24 -32 -21 -20 -31 -24 -36 -15 -5 7 -4 10 2 6 6 -4 21 5 33 18 13 14
20 25 16 25 -5 0 -3 6 3 13 6 8 7 18 3 22 -4 5 -1 5 6 1 9 -6 10 -11 3 -20z"/>
<path fill="#ffffff" stroke="none" d="M1797 2263 c-4 -3 -1 -13 6 -22 11 -14
10 -14 -5 -2 -16 12 -16 31 -1 31 4 0 3 -3 0 -7z"/>
<path fill="#ffffff" stroke="none" d="M2110 2265 c0 -1 -12 -12 -27 -26 -20
-17 -23 -18 -10 -3 9 11 15 23 12 26 -3 2 2 5 10 5 8 0 15 -1 15 -2z"/>
<path fill="#ffffff" stroke="none" d="M1327 2253 c-4 -3 -2 -12 3 -18 7 -8 3
-18 -13 -31 -12 -10 -19 -15 -14 -10 4 5 0 17 -9 27 -12 13 -12 19 -3 25 7 4
10 3 6 -3 -4 -6 0 -16 7 -22 9 -8 16 -8 20 -2 4 5 2 12 -4 16 -10 6 -5 25 7
25 4 0 3 -3 0 -7z"/>
<path fill="#ffffff" stroke="none" d="M1495 2252 c-3 -3 0 -11 6 -18 7 -9 6
-14 -3 -20 -7 -4 -10 -3 -5 1 4 5 0 16 -8 25 -13 15 -13 17 0 17 8 0 13 -3 10
-5z"/>
<path fill="#ffffff" stroke="none" d="M1740 2254 c0 -8 -19 -13 -24 -6 -3 5
1 9 9 9 8 0 15 -2 15 -3z"/>
<path fill="#ffffff" stroke="none" d="M1870 2256 c0 -2 -8 -10 -17 -17 -16
-13 -17 -12 -4 4 13 16 21 21 21 13z"/>
<path fill="#ffffff" stroke="none" d="M2004 2251 c3 -4 -3 -16 -13 -25 -14
-13 -18 -14 -18 -2 0 8 5 14 11 13 6 -1 10 4 9 11 -3 14 3 16 11 3z"/>
<path fill="#ffffff" stroke="none" d="M2125 2243 c-1 -10 2 -23 7 -30 6 -7 5
-14 -3 -19 -7 -4 -9 -3 -5 4 3 6 2 13 -3 16 -7 5 -8 23 -2 44 4 11 9 -2 6 -15z"/>
<path fill="#ffffff" stroke="none" d="M1145 2220 c-6 -10 20 -32 28 -23 4 3
1 13 -6 22 -11 14 -10 14 6 2 13 -11 15 -17 6 -28 -10 -11 -15 -11 -30 3 -11
10 -17 19 -14 22 3 3 -1 12 -8 21 -11 14 -10 14 5 2 10 -7 16 -17 13 -21z"/>
<path fill="#ffffff" stroke="none" d="M1191 2233 c13 -16 12 -17 -3 -4 -10 7
-18 15 -18 17 0 8 8 3 21 -13z"/>
<path fill="#ffffff" stroke="none" d="M1264 2241 c3 -5 -2 -15 -12 -22 -15
-12 -16 -12 -5 2 7 9 10 19 6 22 -3 4 -4 7 0 7 3 0 8 -4 11 -9z"/>
<path fill="#ffffff" stroke="none" d="M1890 2246 c0 -2 -8 -10 -17 -17 -16
-13 -17 -12 -4 4 13 16 21 21 21 13z"/>
<path fill="#ffffff" stroke="none" d="M1934 2241 c3 -4 -7 -19 -22 -32 l-27
-24 23 26 c12 14 19 29 15 32 -3 4 -4 7 0 7 3 0 8 -4 11 -9z"/>
<path fill="#ffffff" stroke="none" d="M1077 2233 c-4 -3 -1 -13 6 -22 11 -14
10 -14 -5 -2 -16 12 -16 31 -1 31 4 0 3 -3 0 -7z"/>
<path fill="#ffffff" stroke="none" d="M1476 2222 c-3 -3 0 -12 6 -21 10 -13
10 -14 -2 -4 -16 15 -23 46 -8 37 5 -3 7 -9 4 -12z"/>
<path fill="#ffffff" stroke="none" d="M1789 2226 c9 -11 9 -16 -1 -22 -7 -4
-10 -4 -6 1 4 4 3 14 -3 22 -6 7 -9 13 -6 13 2 0 10 -6 16 -14z"/>
<path fill="#ffffff" stroke="none" d="M1910 2237 c0 -2 -10 -12 -22 -23 l-23
-19 19 23 c18 21 26 27 26 19z"/>
<path fill="#ffffff" stroke="none" d="M1050 2227 c0 -2 -9 -12 -19 -21 -14
-13 -21 -14 -27 -5 -4 7 -3 10 3 6 6 -4 16 0 23 8 12 14 20 19 20 12z"/>
<path fill="#ffffff" stroke="none" d="M1396 2218 c4 -7 3 -10 -1 -5 -5 4 -21
-4 -36 -19 -17 -17 -29 -22 -34 -15 -4 7 -1 10 7 9 7 -2 12 3 10 10 -1 8 2 11
7 8 5 -3 14 1 21 9 15 18 17 18 26 3z"/>
<path fill="#ffffff" stroke="none" d="M1730 2226 c0 -2 -8 -10 -17 -17 -16
-13 -17 -12 -4 4 13 16 21 21 21 13z"/>
<path fill="#ffffff" stroke="none" d="M1827 2223 c-4 -3 -1 -13 6 -22 11 -14
10 -14 -5 -2 -16 12 -16 31 -1 31 4 0 3 -3 0 -7z"/>
<path fill="#ffffff" stroke="none" d="M1956 2215 c-1 -8 -5 -17 -8 -21 -5 -4
-4 16 1 34 3 9 9 -1 7 -13z"/>
<path fill="#ffffff" stroke="none" d="M2097 2223 c-4 -3 -2 -12 4 -19 7 -8 6
-14 -2 -20 -7 -4 -9 -3 -5 4 3 6 2 13 -4 17 -10 6 -5 25 7 25 4 0 3 -3 0 -7z"/>
<path fill="#ffffff" stroke="none" d="M1280 2216 c0 -2 -8 -10 -17 -17 -16
-13 -17 -12 -4 4 13 16 21 21 21 13z"/>
<path fill="#ffffff" stroke="none" d="M2167 2205 c0 -8 -4 -12 -9 -9 -5 3 -6
10 -3 15 9 13 12 11 12 -6z"/>
<path fill="#ffffff" stroke="none" d="M1064 2201 c3 -5 -1 -14 -8 -20 -10 -9
-16 -9 -21 -1 -4 6 -1 9 7 8 7 -2 12 3 11 10 -3 14 3 16 11 3z"/>
<path fill="#ffffff" stroke="none" d="M1517 2203 c-4 -3 -2 -12 4 -20 6 -7 8
-13 4 -13 -4 0 -1 -8 6 -17 13 -16 12 -17 -3 -4 -10 7 -16 17 -13 21 3 5 1 11
-5 15 -10 6 -5 25 7 25 4 0 3 -3 0 -7z"/>
<path fill="#ffffff" stroke="none" d="M2054 2194 c3 -8 2 -12 -4 -9 -6 3 -10
10 -10 16 0 14 7 11 14 -7z"/>
<path fill="#ffffff" stroke="none" d="M1286 2185 c-1 -8 -5 -17 -8 -21 -5 -4
-4 16 1 34 3 9 9 -1 7 -13z"/>
<path fill="#ffffff" stroke="none" d="M1414 2191 c3 -5 -1 -14 -8 -20 -10 -9
-16 -9 -21 -1 -4 6 -1 9 7 8 7 -2 12 3 11 10 -3 14 3 16 11 3z"/>
<path fill="#ffffff" stroke="none" d="M1460 2185 c1 -5 9 -18 17 -27 9 -10
13 -18 8 -18 -4 0 -1 -8 6 -17 13 -16 12 -17 -4 -4 -9 8 -15 16 -12 19 3 3 -1
12 -7 20 -10 12 -22 50 -13 40 2 -1 4 -7 5 -13z"/>
<path fill="#ffffff" stroke="none" d="M1815 2191 c3 -5 2 -12 -3 -15 -5 -3
-9 1 -9 9 0 17 3 19 12 6z"/>
<path fill="#ffffff" stroke="none" d="M1980 2197 c0 -2 -10 -13 -23 -25 -18
-17 -24 -19 -24 -8 0 8 4 13 8 11 3 -3 12 2 19 10 12 14 20 19 20 12z"/>
<path fill="#ffffff" stroke="none" d="M1083 2178 c-8 -11 -10 -52 -3 -60 7
-10 6 -37 -1 -32 -5 3 -7 9 -4 14 3 5 1 11 -3 14 -16 10 -3 76 15 76 3 0 1 -6
-4 -12z"/>
<path fill="#ffffff" stroke="none" d="M1149 2176 c9 -10 7 -17 -6 -27 -16
-12 -17 -12 -6 2 10 12 10 18 1 27 -7 7 -9 12 -6 12 3 0 11 -6 17 -14z"/>
<path fill="#ffffff" stroke="none" d="M1195 2181 c-3 -5 -1 -12 5 -16 6 -4 7
-12 3 -18 -4 -7 -8 -15 -8 -19 0 -3 -3 -9 -7 -13 -8 -9 -5 16 5 32 4 6 3 14
-3 18 -10 6 -5 25 6 25 3 0 3 -4 -1 -9z"/>
<path fill="#ffffff" stroke="none" d="M1756 2172 c-3 -3 0 -12 6 -21 10 -13
10 -14 -2 -4 -16 15 -23 46 -8 37 5 -3 7 -9 4 -12z"/>
<path fill="#ffffff" stroke="none" d="M1787 2183 c-4 -3 -2 -12 4 -20 6 -7 8
-13 4 -13 -5 0 0 -10 11 -22 l19 -23 -22 19 c-13 10 -20 22 -18 27 3 4 1 10
-5 14 -10 6 -5 25 7 25 4 0 3 -3 0 -7z"/>
<path fill="#ffffff" stroke="none" d="M1880 2185 c0 -2 -6 -8 -13 -14 -10 -8
-14 -7 -14 2 0 8 6 14 14 14 7 0 13 -1 13 -2z"/>
<path fill="#ffffff" stroke="none" d="M2041 2173 c13 -16 12 -17 -3 -4 -10 7
-18 15 -18 17 0 8 8 3 21 -13z"/>
<path fill="#ffffff" stroke="none" d="M2147 2183 c-4 -3 -1 -13 6 -22 11 -14
10 -14 -5 -2 -16 12 -16 31 -1 31 4 0 3 -3 0 -7z"/>
<path fill="#ffffff" stroke="none" d="M1035 2160 c10 -11 16 -20 13 -20 -3 0
-13 9 -23 20 -10 11 -16 20 -13 20 3 0 13 -9 23 -20z"/>
<path fill="#ffffff" stroke="none" d="M1256 2165 c-1 -8 -5 -17 -8 -21 -5 -4
-4 16 1 34 3 9 9 -1 7 -13z"/>
<path fill="#ffffff" stroke="none" d="M1321 2163 c13 -16 12 -17 -3 -4 -10 7
-18 15 -18 17 0 8 8 3 21 -13z"/>
<path fill="#ffffff" stroke="none" d="M1370 2176 c0 -2 -8 -10 -17 -17 -16
-13 -17 -12 -4 4 13 16 21 21 21 13z"/>
<path fill="#ffffff" stroke="none" d="M1440 2176 c0 -2 -8 -10 -17 -17 -16
-13 -17 -12 -4 4 13 16 21 21 21 13z"/>
<path fill="#ffffff" stroke="none" d="M1691 2163 c13 -16 12 -17 -3 -4 -10 7
-18 15 -18 17 0 8 8 3 21 -13z"/>
<path fill="#ffffff" stroke="none" d="M1837 2173 c-4 -3 1 -16 10 -27 18 -21
18 -21 -4 -2 -20 16 -23 36 -6 36 4 0 3 -3 0 -7z"/>
<path fill="#ffffff" stroke="none" d="M1891 2167 c-6 -8 -8 -16 -5 -19 3 -3
1 -9 -4 -12 -6 -3 -9 0 -8 6 2 16 15 38 23 38 3 0 0 -6 -6 -13z"/>
<path fill="#ffffff" stroke="none" d="M2077 2173 c-4 -3 -1 -13 6 -22 11 -14
10 -14 -5 -2 -16 12 -16 31 -1 31 4 0 3 -3 0 -7z"/>
<path fill="#ffffff" stroke="none" d="M1111 2153 c13 -16 12 -17 -3 -4 -10 7
-18 15 -18 17 0 8 8 3 21 -13z"/>
<path fill="#ffffff" stroke="none" d="M1671 2153 c13 -16 12 -17 -3 -4 -10 7
-18 15 -18 17 0 8 8 3 21 -13z"/>
<path fill="#ffffff" stroke="none" d="M1725 2153 c-1 -10 5 -27 14 -38 16
-20 16 -20 -6 -2 -17 15 -21 30 -14 55 4 11 9 -2 6 -15z"/>
<path fill="#ffffff" stroke="none" d="M1917 2163 c-4 -3 -2 -12 3 -18 7 -8 4
-17 -8 -29 -16 -13 -19 -14 -19 -1 0 8 4 12 8 9 4 -2 10 0 13 5 4 5 2 12 -4
16 -10 6 -5 25 7 25 4 0 3 -3 0 -7z"/>
<path fill="#ffffff" stroke="none" d="M2029 2156 c9 -11 9 -16 -1 -22 -7 -4
-10 -4 -6 1 4 4 3 14 -3 22 -6 7 -9 13 -6 13 2 0 10 -6 16 -14z"/>
<path fill="#ffffff" stroke="none" d="M1180 2157 c0 -2 -10 -12 -22 -23 l-23
-19 19 23 c18 21 26 27 26 19z"/>
<path fill="#ffffff" stroke="none" d="M1304 2151 c3 -5 -2 -15 -12 -22 -15
-12 -16 -12 -5 2 7 9 10 19 6 22 -3 4 -4 7 0 7 3 0 8 -4 11 -9z"/>
<path fill="#ffffff" stroke="none" d="M1377 2153 c-4 -3 -1 -13 6 -22 11 -14
10 -14 -5 -2 -16 12 -16 31 -1 31 4 0 3 -3 0 -7z"/>
<path fill="#ffffff" stroke="none" d="M1450 2156 c0 -2 -8 -10 -17 -17 -16
-13 -17 -12 -4 4 13 16 21 21 21 13z"/>
<path fill="#ffffff" stroke="none" d="M1970 2156 c0 -2 -8 -10 -17 -17 -16
-13 -17 -12 -4 4 13 16 21 21 21 13z"/>
<path fill="#ffffff" stroke="none" d="M2134 2151 c3 -4 -3 -16 -13 -25 -14
-13 -18 -14 -18 -2 0 8 5 14 11 13 6 -1 10 4 9 11 -3 14 3 16 11 3z"/>
<path fill="#ffffff" stroke="none" d="M1271 2137 c-6 -8 -9 -16 -6 -19 3 -3
-1 -11 -9 -17 -10 -8 -16 -9 -21 -1 -4 6 -1 9 6 8 7 -2 13 2 14 7 0 13 14 35
22 35 3 0 0 -6 -6 -13z"/>
<path fill="#ffffff" stroke="none" d="M1526 2114 c1 -9 -1 -13 -4 -9 -4 4 -7
10 -7 13 0 4 -4 14 -9 22 -7 12 -6 13 4 3 8 -7 15 -20 16 -29z"/>
<path fill="#ffffff" stroke="none" d="M1831 2133 c13 -16 12 -17 -3 -4 -10 7
-18 15 -18 17 0 8 8 3 21 -13z"/>
<path fill="#ffffff" stroke="none" d="M2007 2135 c0 -8 -4 -12 -9 -9 -5 3 -6
10 -3 15 9 13 12 11 12 -6z"/>
<path fill="#ffffff" stroke="none" d="M1123 2127 c4 3 7 4 7 1 0 -3 -8 -12
-17 -19 -10 -7 -15 -9 -11 -5 4 5 2 16 -5 25 -10 14 -10 14 4 4 9 -7 19 -10
22 -6z"/>
<path fill="#ffffff" stroke="none" d="M1330 2136 c0 -2 -8 -10 -17 -17 -16
-13 -17 -12 -4 4 13 16 21 21 21 13z"/>
<path fill="#ffffff" stroke="none" d="M1359 2127 c8 -11 6 -18 -12 -33 -22
-19 -22 -19 -5 2 14 16 15 23 6 32 -7 7 -9 12 -6 12 3 0 11 -6 17 -13z"/>
<path fill="#ffffff" stroke="none" d="M1456 2125 c-1 -8 -5 -17 -8 -21 -5 -4
-4 16 1 34 3 9 9 -1 7 -13z"/>
<path fill="#ffffff" stroke="none" d="M1971 2127 c-6 -8 -8 -16 -5 -19 3 -3
1 -9 -4 -12 -6 -3 -9 0 -8 6 2 16 15 38 23 38 3 0 0 -6 -6 -13z"/>
<path fill="#ffffff" stroke="none" d="M2156 2116 c0 -14 -3 -23 -7 -20 -6 3
-6 22 0 42 3 10 7 -2 7 -22z"/>
<path fill="#ffffff" stroke="none" d="M1045 2122 c-3 -3 0 -11 6 -19 17 -20
5 -16 -14 5 -15 16 -15 19 -2 19 8 0 13 -3 10 -5z"/>
<path fill="#ffffff" stroke="none" d="M1791 2113 c13 -16 12 -17 -3 -4 -10 7
-18 15 -18 17 0 8 8 3 21 -13z"/>
<path fill="#ffffff" stroke="none" d="M2055 2121 c3 -5 2 -12 -3 -15 -5 -3
-9 1 -9 9 0 17 3 19 12 6z"/>
<path fill="#ffffff" stroke="none" d="M2087 2123 c-4 -3 -1 -13 6 -22 11 -14
10 -14 -5 -2 -16 12 -16 31 -1 31 4 0 3 -3 0 -7z"/>
<path fill="#ffffff" stroke="none" d="M1167 2105 c0 -8 -4 -12 -9 -9 -5 3 -6
10 -3 15 9 13 12 11 12 -6z"/>
<path fill="#ffffff" stroke="none" d="M1217 2113 c-4 -3 1 -16 10 -27 18 -21
18 -21 -4 -2 -20 16 -23 36 -6 36 4 0 3 -3 0 -7z"/>
<path fill="#ffffff" stroke="none" d="M1340 2116 c0 -2 -8 -10 -17 -17 -16
-13 -17 -12 -4 4 13 16 21 21 21 13z"/>
<path fill="#ffffff" stroke="none" d="M1425 2112 c-3 -3 0 -11 6 -19 17 -20
5 -16 -14 5 -15 16 -15 19 -2 19 8 0 13 -3 10 -5z"/>
<path fill="#ffffff" stroke="none" d="M1665 2111 c3 -5 2 -12 -3 -15 -5 -3
-9 1 -9 9 0 17 3 19 12 6z"/>
<path fill="#ffffff" stroke="none" d="M1716 2095 c1 -8 -1 -17 -5 -19 -4 -3
-7 6 -7 19 0 25 8 25 12 0z"/>
<path fill="#ffffff" stroke="none" d="M1878 2111 c0 -3 1 -9 2 -13 1 -5 4
-12 5 -18 1 -5 3 -11 5 -12 5 -8 7 -39 2 -33 -4 4 -8 11 -8 16 -1 5 -2 11 -3
14 0 3 0 7 2 9 1 2 -6 13 -16 23 -14 16 -14 20 -3 20 8 0 15 -3 14 -6z"/>
<path fill="#ffffff" stroke="none" d="M2025 2103 c-1 -10 2 -23 7 -30 6 -7 5
-14 -3 -19 -7 -4 -9 -3 -5 4 3 6 2 13 -3 16 -7 5 -8 23 -2 44 4 11 9 -2 6 -15z"/>
<path fill="#ffffff" stroke="none" d="M1137 2103 c-4 -3 -1 -13 6 -22 11 -14
10 -14 -5 -2 -16 12 -16 31 -1 31 4 0 3 -3 0 -7z"/>
<path fill="#ffffff" stroke="none" d="M1296 2084 c1 -9 0 -13 -4 -10 -3 4 -7
14 -8 22 -1 9 0 13 4 10 3 -4 7 -14 8 -22z"/>
<path fill="#ffffff" stroke="none" d="M1396 2084 c1 -9 0 -13 -4 -10 -3 4 -7
14 -8 22 -1 9 0 13 4 10 3 -4 7 -14 8 -22z"/>
<path fill="#ffffff" stroke="none" d="M1486 2098 c4 -7 4 -10 -1 -6 -4 4 -15
2 -24 -5 -14 -11 -14 -10 -2 6 16 20 18 21 27 5z"/>
<path fill="#ffffff" stroke="none" d="M1587 2095 c0 -8 -4 -12 -9 -9 -5 3 -6
10 -3 15 9 13 12 11 12 -6z"/>
<path fill="#ffffff" stroke="none" d="M1637 2095 c0 -8 -4 -12 -9 -9 -5 3 -6
10 -3 15 9 13 12 11 12 -6z"/>
<path fill="#ffffff" stroke="none" d="M1781 2093 c13 -16 12 -17 -3 -4 -10 7
-18 15 -18 17 0 8 8 3 21 -13z"/>
<path fill="#ffffff" stroke="none" d="M1845 2101 c3 -5 2 -12 -3 -15 -5 -3
-9 1 -9 9 0 17 3 19 12 6z"/>
<path fill="#ffffff" stroke="none" d="M2125 2093 c-1 -10 5 -27 14 -38 16
-20 16 -20 -6 -2 -17 15 -21 30 -14 55 4 11 9 -2 6 -15z"/>
<path fill="#ffffff" stroke="none" d="M1196 2074 c1 -9 0 -13 -4 -10 -3 4 -7
14 -8 22 -1 9 0 13 4 10 3 -4 7 -14 8 -22z"/>
<path fill="#ffffff" stroke="none" d="M1687 2085 c0 -8 -4 -12 -9 -9 -5 3 -6
10 -3 15 9 13 12 11 12 -6z"/>
<path fill="#ffffff" stroke="none" d="M1817 2093 c-4 -3 -1 -13 6 -22 11 -14
10 -14 -5 -2 -16 12 -16 31 -1 31 4 0 3 -3 0 -7z"/>
<path fill="#ffffff" stroke="none" d="M1917 2093 c-4 -3 -2 -12 4 -19 7 -8 6
-14 -2 -20 -7 -4 -9 -3 -5 4 3 6 2 13 -4 17 -10 6 -5 25 7 25 4 0 3 -3 0 -7z"/>
<path fill="#ffffff" stroke="none" d="M1121 2073 c13 -16 12 -17 -3 -4 -10 7
-18 15 -18 17 0 8 8 3 21 -13z"/>
<path fill="#ffffff" stroke="none" d="M1267 2083 c-4 -3 -1 -13 6 -22 11 -14
10 -14 -5 -2 -16 12 -16 31 -1 31 4 0 3 -3 0 -7z"/>
<path fill="#ffffff" stroke="none" d="M1370 2086 c0 -2 -8 -10 -17 -17 -16
-13 -17 -12 -4 4 13 16 21 21 21 13z"/>
<path fill="#ffffff" stroke="none" d="M1566 2078 c5 4 1 -2 -9 -14 -9 -11
-15 -23 -12 -26 3 -3 -1 -11 -9 -17 -10 -8 -16 -9 -21 -1 -4 6 -1 9 6 8 7 -2
13 2 14 9 0 6 3 15 7 19 4 4 2 14 -5 23 -10 14 -10 14 4 4 9 -7 20 -9 25 -5z"/>
<path fill="#ffffff" stroke="none" d="M1616 2069 c1 -5 2 -10 4 -11 5 -8 7
-39 2 -33 -4 4 -8 11 -8 16 -1 5 -2 10 -4 12 -5 7 -7 38 -2 32 4 -4 8 -11 8
-16z"/>
<path fill="#ffffff" stroke="none" d="M1771 2073 c8 -8 8 -13 0 -18 -7 -3
-10 -1 -9 6 2 7 -2 13 -9 14 -6 0 -14 3 -18 7 -4 3 0 5 9 4 9 -1 21 -7 27 -13z"/>
<path fill="#ffffff" stroke="none" d="M2000 2085 c0 -2 -6 -8 -13 -14 -10 -8
-14 -7 -14 2 0 8 6 14 14 14 7 0 13 -1 13 -2z"/>
<path fill="#ffffff" stroke="none" d="M2061 2073 c13 -16 12 -17 -3 -4 -10 7
-18 15 -18 17 0 8 8 3 21 -13z"/>
<path fill="#ffffff" stroke="none" d="M1076 2044 c0 -13 -2 -22 -5 -19 -3 3
-6 17 -7 31 0 13 2 22 5 19 3 -3 6 -17 7 -31z"/>
<path fill="#ffffff" stroke="none" d="M1174 2064 c3 -8 2 -12 -4 -9 -6 3 -10
10 -10 16 0 14 7 11 14 -7z"/>
<path fill="#ffffff" stroke="none" d="M1325 2071 c3 -5 2 -12 -3 -15 -5 -3
-9 1 -9 9 0 17 3 19 12 6z"/>
<path fill="#ffffff" stroke="none" d="M1426 2054 c1 -9 0 -13 -4 -10 -3 4 -7
14 -8 22 -1 9 0 13 4 10 3 -4 7 -14 8 -22z"/>
<path fill="#ffffff" stroke="none" d="M1480 2077 c0 -2 -8 -11 -18 -20 -15
-14 -19 -15 -19 -2 0 8 4 12 8 9 4 -2 10 0 14 6 6 10 15 14 15 7z"/>
<path fill="#ffffff" stroke="none" d="M1523 2067 c4 3 7 4 7 1 0 -3 -10 -13
-22 -24 -13 -11 -18 -13 -11 -3 10 12 10 18 0 29 -10 12 -9 12 4 2 9 -6 19 -9
22 -5z"/>
<path fill="#ffffff" stroke="none" d="M1671 2063 c13 -16 12 -17 -3 -4 -10 7
-18 15 -18 17 0 8 8 3 21 -13z"/>
<path fill="#ffffff" stroke="none" d="M1857 2073 c-4 -3 -1 -13 6 -22 11 -14
10 -14 -5 -2 -16 12 -16 31 -1 31 4 0 3 -3 0 -7z"/>
<path fill="#ffffff" stroke="none" d="M1957 2065 c0 -8 -4 -12 -9 -9 -5 3 -6
10 -3 15 9 13 12 11 12 -6z"/>
<path fill="#ffffff" stroke="none" d="M2095 2063 c-1 -10 2 -23 7 -30 6 -7 5
-14 -3 -19 -7 -4 -9 -3 -5 4 3 6 2 13 -3 16 -7 5 -8 23 -2 44 4 11 9 -2 6 -15z"/>
<path fill="#ffffff" stroke="none" d="M1105 2061 c3 -5 2 -12 -3 -15 -5 -3
-9 1 -9 9 0 17 3 19 12 6z"/>
<path fill="#ffffff" stroke="none" d="M1226 2046 c1 -8 -10 -25 -24 -38 -15
-13 -21 -16 -14 -7 6 9 8 19 4 23 -4 4 0 6 8 4 10 -2 15 4 14 20 -2 24 8 22
12 -2z"/>
<path fill="#ffffff" stroke="none" d="M1371 2057 c-6 -8 -7 -18 -3 -22 4 -5
1 -5 -6 -1 -10 6 -10 11 -1 22 6 8 14 14 16 14 3 0 0 -6 -6 -13z"/>
<path fill="#ffffff" stroke="none" d="M1587 2063 c-4 -3 -1 -13 6 -22 11 -14
10 -14 -5 -2 -16 12 -16 31 -1 31 4 0 3 -3 0 -7z"/>
<path fill="#ffffff" stroke="none" d="M1655 2050 c10 -11 16 -20 13 -20 -3 0
-13 9 -23 20 -10 11 -16 20 -13 20 3 0 13 -9 23 -20z"/>
<path fill="#ffffff" stroke="none" d="M1730 2066 c0 -2 -6 -9 -14 -15 -11 -9
-16 -9 -22 0 -4 7 -3 9 4 5 6 -3 13 -2 17 4 6 10 15 14 15 6z"/>
<path fill="#ffffff" stroke="none" d="M1809 2056 c9 -11 9 -16 -1 -22 -7 -4
-10 -4 -6 1 4 4 3 14 -3 22 -6 7 -9 13 -6 13 2 0 10 -6 16 -14z"/>
<path fill="#ffffff" stroke="none" d="M2006 2055 c-1 -8 -5 -17 -8 -21 -5 -4
-4 16 1 34 3 9 9 -1 7 -13z"/>
<path fill="#ffffff" stroke="none" d="M1155 2051 c3 -5 2 -12 -3 -15 -5 -3
-9 1 -9 9 0 17 3 19 12 6z"/>
<path fill="#ffffff" stroke="none" d="M1255 2051 c3 -5 2 -12 -3 -15 -5 -3
-9 1 -9 9 0 17 3 19 12 6z"/>
<path fill="#ffffff" stroke="none" d="M1490 2057 c0 -2 -11 -14 -24 -26 -18
-17 -26 -19 -31 -10 -5 7 -4 10 2 6 6 -4 18 2 28 13 17 19 25 24 25 17z"/>
<path fill="#ffffff" stroke="none" d="M1750 2057 c0 -2 -10 -12 -22 -23 l-23
-19 19 23 c18 21 26 27 26 19z"/>
<path fill="#ffffff" stroke="none" d="M1127 2035 c0 -8 -4 -12 -9 -9 -5 3 -6
10 -3 15 9 13 12 11 12 -6z"/>
<path fill="#ffffff" stroke="none" d="M1787 2035 c0 -8 -4 -12 -9 -9 -5 3 -6
10 -3 15 9 13 12 11 12 -6z"/>
<path fill="#ffffff" stroke="none" d="M1851 2033 c13 -16 12 -17 -3 -4 -10 7
-18 15 -18 17 0 8 8 3 21 -13z"/>
<path fill="#ffffff" stroke="none" d="M1977 2043 c-4 -3 1 -16 10 -27 18 -21
18 -21 -4 -2 -20 16 -23 36 -6 36 4 0 3 -3 0 -7z"/>
<path fill="#ffffff" stroke="none" d="M2070 2045 c0 -2 -6 -8 -13 -14 -10 -8
-14 -7 -14 2 0 8 6 14 14 14 7 0 13 -1 13 -2z"/>
<path fill="#ffffff" stroke="none" d="M2131 2033 c13 -16 12 -17 -3 -4 -10 7
-18 15 -18 17 0 8 8 3 21 -13z"/>
<path fill="#ffffff" stroke="none" d="M1176 2025 c-1 -8 -5 -17 -8 -21 -5 -4
-4 16 1 34 3 9 9 -1 7 -13z"/>
<path fill="#ffffff" stroke="none" d="M1271 2027 c-6 -8 -8 -16 -5 -19 3 -3
1 -9 -4 -12 -6 -3 -9 0 -8 6 2 16 15 38 23 38 3 0 0 -6 -6 -13z"/>
<path fill="#ffffff" stroke="none" d="M1326 2014 c1 -9 0 -13 -4 -10 -3 4 -7
14 -8 22 -1 9 0 13 4 10 3 -4 7 -14 8 -22z"/>
<path fill="#ffffff" stroke="none" d="M1415 2031 c3 -5 2 -12 -3 -15 -5 -3
-9 1 -9 9 0 17 3 19 12 6z"/>
<path fill="#ffffff" stroke="none" d="M1579 2027 c8 -11 6 -18 -12 -33 -22
-19 -22 -19 -5 2 14 16 15 23 6 32 -7 7 -9 12 -6 12 3 0 11 -6 17 -13z"/>
<path fill="#ffffff" stroke="none" d="M1760 2037 c0 -2 -10 -12 -22 -23 l-23
-19 19 23 c18 21 26 27 26 19z"/>
<path fill="#ffffff" stroke="none" d="M1931 2023 c13 -16 12 -17 -3 -4 -10 7
-18 15 -18 17 0 8 8 3 21 -13z"/>
<path fill="#ffffff" stroke="none" d="M2025 2023 c-1 -10 3 -25 9 -33 9 -13
9 -13 -6 -2 -13 10 -16 26 -9 50 4 11 9 -2 6 -15z"/>
<path fill="#ffffff" stroke="none" d="M1111 2013 c13 -16 12 -17 -3 -4 -10 7
-18 15 -18 17 0 8 8 3 21 -13z"/>
<path fill="#ffffff" stroke="none" d="M1297 2023 c-4 -3 -2 -12 4 -20 6 -7 8
-13 4 -13 -4 0 -2 -6 4 -14 9 -11 9 -16 0 -22 -7 -4 -9 -3 -5 4 3 6 2 13 -4
17 -6 4 -8 10 -5 15 3 5 1 11 -5 15 -10 6 -5 25 7 25 4 0 3 -3 0 -7z"/>
<path fill="#ffffff" stroke="none" d="M1356 2009 c1 -5 2 -10 4 -11 7 -9 7
-39 0 -43 -5 -3 -7 3 -5 12 1 10 0 23 -4 28 -8 15 -11 38 -3 30 4 -4 8 -11 8
-16z"/>
<path fill="#ffffff" stroke="none" d="M1387 2023 c-4 -3 -2 -12 4 -19 7 -8 6
-14 -2 -20 -7 -4 -9 -3 -5 4 3 6 2 13 -4 17 -10 6 -5 25 7 25 4 0 3 -3 0 -7z"/>
<path fill="#ffffff" stroke="none" d="M1835 2021 c3 -5 2 -12 -3 -15 -5 -3
-9 1 -9 9 0 17 3 19 12 6z"/>
<path fill="#ffffff" stroke="none" d="M1886 2004 c1 -9 0 -13 -4 -10 -3 4 -7
14 -8 22 -1 9 0 13 4 10 3 -4 7 -14 8 -22z"/>
<path fill="#ffffff" stroke="none" d="M2077 2015 c0 -8 -4 -12 -9 -9 -5 3 -6
10 -3 15 9 13 12 11 12 -6z"/>
<path fill="#ffffff" stroke="none" d="M1066 1994 c1 -9 0 -13 -4 -10 -3 4 -7
14 -8 22 -1 9 0 13 4 10 3 -4 7 -14 8 -22z"/>
<path fill="#ffffff" stroke="none" d="M1145 1986 c0 -19 -3 -37 -6 -40 -4 -5
-4 62 0 72 4 10 7 -4 6 -32z"/>
<path fill="#ffffff" stroke="none" d="M1477 2005 c0 -8 -4 -12 -9 -9 -5 3 -6
10 -3 15 9 13 12 11 12 -6z"/>
<path fill="#ffffff" stroke="none" d="M1506 1984 c0 -13 -2 -22 -5 -19 -3 3
-6 17 -7 31 0 13 2 22 5 19 3 -3 6 -17 7 -31z"/>
<path fill="#ffffff" stroke="none" d="M1703 2007 c4 3 7 4 7 1 0 -3 -8 -12
-17 -19 -10 -7 -15 -9 -11 -5 4 5 2 16 -5 25 -10 14 -10 14 4 4 9 -7 19 -10
22 -6z"/>
<path fill="#ffffff" stroke="none" d="M1776 1999 c1 -5 2 -10 4 -11 5 -8 7
-39 2 -33 -4 4 -8 11 -8 16 -1 5 -2 10 -4 12 -5 7 -7 38 -2 32 4 -4 8 -11 8
-16z"/>
<path fill="#ffffff" stroke="none" d="M1807 2013 c-4 -3 -2 -12 4 -19 7 -8 6
-14 -2 -20 -7 -4 -9 -3 -5 4 3 6 2 13 -4 17 -10 6 -5 25 7 25 4 0 3 -3 0 -7z"/>
<path fill="#ffffff" stroke="none" d="M1916 1999 c1 -5 2 -10 4 -11 9 -13 5
-40 -9 -52 -15 -14 -18 -14 -18 -2 0 8 5 14 11 13 11 -2 16 22 7 38 -8 15 -10
38 -3 30 4 -4 8 -11 8 -16z"/>
<path fill="#ffffff" stroke="none" d="M1966 1994 c1 -9 0 -13 -4 -10 -3 4 -7
14 -8 22 -1 9 0 13 4 10 3 -4 7 -14 8 -22z"/>
<path fill="#ffffff" stroke="none" d="M1096 1976 c-2 -38 -12 -39 -12 -1 0
18 3 32 7 30 3 -3 5 -15 5 -29z"/>
<path fill="#ffffff" stroke="none" d="M1427 2003 c-4 -3 -1 -13 6 -22 11 -14
10 -14 -5 -2 -16 12 -16 31 -1 31 4 0 3 -3 0 -7z"/>
<path fill="#ffffff" stroke="none" d="M1661 1993 c2 1 3 0 2 -2 -2 -2 2 -10
8 -18 21 -25 3 -13 -22 14 -13 15 -17 22 -8 15 9 -6 18 -11 20 -9z"/>
<path fill="#ffffff" stroke="none" d="M1860 2006 c0 -2 -8 -10 -17 -17 -16
-13 -17 -12 -4 4 13 16 21 21 21 13z"/>
<path fill="#ffffff" stroke="none" d="M2137 1993 c0 -9 -4 -10 -14 -2 -7 6
-13 12 -13 14 0 1 6 2 13 2 8 0 14 -6 14 -14z"/>
<path fill="#ffffff" stroke="none" d="M1220 1996 c0 -2 -8 -10 -17 -17 -16
-13 -17 -12 -4 4 13 16 21 21 21 13z"/>
<path fill="#ffffff" stroke="none" d="M1244 1978 c1 -7 5 -20 10 -28 7 -12 6
-13 -4 -3 -8 7 -15 23 -17 35 -2 12 -1 19 3 16 3 -3 6 -12 8 -20z"/>
<path fill="#ffffff" stroke="none" d="M1535 1991 c3 -5 2 -12 -3 -15 -5 -3
-9 1 -9 9 0 17 3 19 12 6z"/>
<path fill="#ffffff" stroke="none" d="M1606 1974 c1 -9 0 -13 -4 -10 -3 4 -7
14 -8 22 -1 9 0 13 4 10 3 -4 7 -14 8 -22z"/>
<path fill="#ffffff" stroke="none" d="M1747 1993 c-4 -3 -2 -12 3 -18 7 -9 5
-17 -7 -26 -16 -13 -17 -12 -5 3 9 11 10 18 2 23 -10 6 -5 25 7 25 4 0 3 -3 0
-7z"/>
<path fill="#ffffff" stroke="none" d="M2111 1983 c13 -16 12 -17 -3 -4 -10 7
-18 15 -18 17 0 8 8 3 21 -13z"/>
<path fill="#ffffff" stroke="none" d="M1279 1983 c-1 -5 0 -10 1 -13 7 -19 7
-39 -1 -34 -5 3 -7 9 -4 14 3 5 1 11 -5 15 -6 4 -8 11 -5 16 7 11 15 12 14 2z"/>
<path fill="#ffffff" stroke="none" d="M1636 1964 c1 -9 0 -13 -4 -10 -3 4 -7
14 -8 22 -1 9 0 13 4 10 3 -4 7 -14 8 -22z"/>
<path fill="#ffffff" stroke="none" d="M1720 1986 c0 -2 -8 -10 -17 -17 -16
-13 -17 -12 -4 4 13 16 21 21 21 13z"/>
<path fill="#ffffff" stroke="none" d="M1861 1977 c-6 -8 -7 -18 -3 -22 4 -5
1 -5 -6 -1 -10 6 -10 11 -1 22 6 8 14 14 16 14 3 0 0 -6 -6 -13z"/>
<path fill="#ffffff" stroke="none" d="M1979 1964 c-14 -13 -17 -13 -30 3 -13
16 -12 17 3 4 15 -11 19 -11 24 3 4 9 9 14 12 11 3 -3 -1 -12 -9 -21z"/>
<path fill="#ffffff" stroke="none" d="M2016 1965 c3 -19 -22 -40 -31 -25 -4
6 -1 9 7 8 8 -2 13 6 12 20 -2 24 8 22 12 -3z"/>
<path fill="#ffffff" stroke="none" d="M2091 1973 c13 -16 12 -17 -3 -4 -10 7
-18 15 -18 17 0 8 8 3 21 -13z"/>
<path fill="#ffffff" stroke="none" d="M1576 1965 c-3 -23 -22 -39 -31 -26 -3
7 -1 10 6 9 7 -2 14 3 15 10 2 19 4 22 8 22 2 0 3 -7 2 -15z"/>
<path fill="#ffffff" stroke="none" d="M1894 1972 c3 -5 -1 -9 -9 -9 -8 0 -12
4 -9 9 3 4 7 8 9 8 2 0 6 -4 9 -8z"/>
<path fill="#ffffff" stroke="none" d="M2071 1963 c13 -16 12 -17 -3 -4 -10 7
-18 15 -18 17 0 8 8 3 21 -13z"/>
<path fill="#ffffff" stroke="none" d="M1215 1953 c-1 -10 5 -27 14 -38 16
-20 16 -20 -6 -2 -17 15 -21 30 -14 55 4 11 9 -2 6 -15z"/>
<path fill="#ffffff" stroke="none" d="M1401 1953 c13 -16 12 -17 -3 -4 -10 7
-18 15 -18 17 0 8 8 3 21 -13z"/>
<path fill="#ffffff" stroke="none" d="M1466 1944 c1 -9 0 -13 -4 -10 -3 4 -7
14 -8 22 -1 9 0 13 4 10 3 -4 7 -14 8 -22z"/>
<path fill="#ffffff" stroke="none" d="M1721 1957 c-6 -8 -7 -18 -3 -22 4 -5
1 -5 -6 -1 -10 6 -10 11 -1 22 6 8 14 14 16 14 3 0 0 -6 -6 -13z"/>
<path fill="#ffffff" stroke="none" d="M2055 1942 c-3 -3 1 -12 8 -21 11 -14
10 -14 -6 -2 -9 8 -15 16 -12 19 3 3 -1 12 -8 21 -11 14 -10 14 6 2 9 -8 15
-16 12 -19z"/>
<path fill="#ffffff" stroke="none" d="M1187 1943 c0 -9 -4 -10 -14 -2 -7 6
-13 12 -13 14 0 1 6 2 13 2 8 0 14 -6 14 -14z"/>
<path fill="#ffffff" stroke="none" d="M1337 1945 c0 -8 -4 -12 -9 -9 -5 3 -6
10 -3 15 9 13 12 11 12 -6z"/>
<path fill="#ffffff" stroke="none" d="M1437 1953 c-4 -3 -1 -13 6 -22 11 -14
10 -14 -5 -2 -16 12 -16 31 -1 31 4 0 3 -3 0 -7z"/>
<path fill="#ffffff" stroke="none" d="M1495 1932 c-1 -9 2 -24 8 -32 9 -12 9
-13 -3 -2 -15 13 -23 65 -9 57 4 -3 6 -13 4 -23z"/>
<path fill="#ffffff" stroke="none" d="M1527 1953 c-4 -3 3 -18 15 -32 l23
-26 -27 24 c-24 21 -29 41 -11 41 4 0 3 -3 0 -7z"/>
<path fill="#ffffff" stroke="none" d="M1683 1947 c4 3 7 4 7 1 0 -3 -8 -12
-17 -19 -10 -7 -15 -9 -11 -5 4 5 2 16 -5 25 -10 14 -10 14 4 4 9 -7 19 -10
22 -6z"/>
<path fill="#ffffff" stroke="none" d="M1816 1934 c1 -9 0 -13 -4 -10 -3 4 -7
14 -8 22 -1 9 0 13 4 10 3 -4 7 -14 8 -22z"/>
<path fill="#ffffff" stroke="none" d="M1117 1935 c0 -8 -4 -12 -9 -9 -5 3 -6
10 -3 15 9 13 12 11 12 -6z"/>
<path fill="#ffffff" stroke="none" d="M1391 1933 c13 -16 12 -17 -3 -4 -10 7
-18 15 -18 17 0 8 8 3 21 -13z"/>
<path fill="#ffffff" stroke="none" d="M1593 1938 c-6 -7 -9 -21 -8 -30 2 -9
-3 -22 -11 -29 -8 -6 -11 -16 -7 -23 3 -6 2 -7 -2 -3 -13 12 -15 37 -2 34 6
-1 11 7 12 18 0 21 12 45 22 45 3 0 1 -6 -4 -12z"/>
<path fill="#ffffff" stroke="none" d="M1641 1933 c2 1 3 0 2 -2 -2 -2 2 -10
7 -16 7 -9 6 -16 -4 -24 -10 -8 -16 -9 -21 -1 -4 6 -3 10 2 9 23 -4 24 4 2 28
-13 15 -17 22 -8 15 9 -6 18 -11 20 -9z"/>
<path fill="#ffffff" stroke="none" d="M1846 1925 c1 -8 -1 -17 -5 -19 -4 -3
-7 6 -7 19 0 25 8 25 12 0z"/>
<path fill="#ffffff" stroke="none" d="M1877 1935 c0 -8 -4 -12 -9 -9 -5 3 -6
10 -3 15 9 13 12 11 12 -6z"/>
<path fill="#ffffff" stroke="none" d="M1945 1933 c-1 -10 2 -23 7 -30 6 -7 5
-14 -3 -19 -7 -4 -9 -3 -5 4 3 6 2 13 -3 16 -7 5 -8 23 -2 44 4 11 9 -2 6 -15z"/>
<path fill="#ffffff" stroke="none" d="M2111 1933 c13 -16 12 -17 -3 -4 -10 7
-18 15 -18 17 0 8 8 3 21 -13z"/>
<path fill="#ffffff" stroke="none" d="M1171 1923 c13 -16 12 -17 -3 -4 -10 7
-18 15 -18 17 0 8 8 3 21 -13z"/>
<path fill="#ffffff" stroke="none" d="M1319 1927 c8 -11 6 -18 -12 -33 -22
-19 -22 -19 -5 2 14 16 15 23 6 32 -7 7 -9 12 -6 12 3 0 11 -6 17 -13z"/>
<path fill="#ffffff" stroke="none" d="M1371 1923 c13 -16 12 -17 -3 -4 -10 7
-18 15 -18 17 0 8 8 3 21 -13z"/>
<path fill="#ffffff" stroke="none" d="M1790 1936 c0 -2 -8 -10 -17 -17 -16
-13 -17 -12 -4 4 13 16 21 21 21 13z"/>
<path fill="#ffffff" stroke="none" d="M1975 1931 c3 -5 2 -12 -3 -15 -5 -3
-9 1 -9 9 0 17 3 19 12 6z"/>
<path fill="#ffffff" stroke="none" d="M2089 1926 c9 -11 9 -16 -1 -22 -7 -4
-10 -4 -6 1 4 4 3 14 -3 22 -6 7 -9 13 -6 13 2 0 10 -6 16 -14z"/>
<path fill="#ffffff" stroke="none" d="M1101 1913 c13 -16 12 -17 -3 -4 -17
13 -22 21 -14 21 2 0 10 -8 17 -17z"/>
<path fill="#ffffff" stroke="none" d="M1151 1913 c13 -16 12 -17 -3 -4 -17
13 -22 21 -14 21 2 0 10 -8 17 -17z"/>
<path fill="#ffffff" stroke="none" d="M1295 1918 c5 4 5 1 1 -6 -6 -10 -11
-10 -22 -1 -8 6 -14 14 -14 16 0 3 6 0 13 -6 8 -6 18 -7 22 -3z"/>
<path fill="#ffffff" stroke="none" d="M1420 1915 c1 -5 9 -19 18 -30 17 -20
17 -20 -4 -2 -11 9 -21 24 -21 32 0 16 4 16 7 0z"/>
<path fill="#ffffff" stroke="none" d="M1615 1921 c3 -5 2 -12 -3 -15 -5 -3
-9 1 -9 9 0 17 3 19 12 6z"/>
<path fill="#ffffff" stroke="none" d="M1700 1926 c0 -2 -8 -10 -17 -17 -16
-13 -17 -12 -4 4 13 16 21 21 21 13z"/>
<path fill="#ffffff" stroke="none" d="M1743 1907 c-4 -7 -8 -15 -8 -19 0 -3
-3 -9 -7 -13 -5 -6 -4 19 2 35 1 3 2 9 1 13 -1 5 3 6 9 2 6 -3 7 -12 3 -18z"/>
<path fill="#ffffff" stroke="none" d="M1206 1895 c1 -7 -6 -21 -15 -29 -15
-14 -18 -14 -18 -2 0 8 5 14 11 13 6 -1 10 8 10 21 -2 24 8 22 12 -3z"/>
<path fill="#ffffff" stroke="none" d="M1361 1903 c13 -16 12 -17 -3 -4 -10 7
-18 15 -18 17 0 8 8 3 21 -13z"/>
<path fill="#ffffff" stroke="none" d="M1529 1906 c9 -10 7 -17 -6 -27 -16
-12 -17 -12 -6 2 10 12 10 18 1 27 -7 7 -9 12 -6 12 3 0 11 -6 17 -14z"/>
<path fill="#ffffff" stroke="none" d="M1720 1917 c0 -2 -10 -12 -22 -23 l-23
-19 19 23 c18 21 26 27 26 19z"/>
<path fill="#ffffff" stroke="none" d="M1791 1907 c-6 -8 -8 -16 -5 -19 3 -3
1 -9 -4 -12 -6 -3 -9 0 -8 6 2 16 15 38 23 38 3 0 0 -6 -6 -13z"/>
<path fill="#ffffff" stroke="none" d="M1919 1913 c-1 -5 0 -10 1 -13 7 -19 7
-39 -1 -34 -5 3 -7 9 -4 14 3 5 1 11 -5 15 -6 4 -8 11 -5 16 7 11 15 12 14 2z"/>
<path fill="#ffffff" stroke="none" d="M2000 1916 c0 -2 -8 -10 -17 -17 -16
-13 -17 -12 -4 4 13 16 21 21 21 13z"/>
<path fill="#ffffff" stroke="none" d="M2041 1896 c-6 -7 -7 -17 -3 -21 4 -5
1 -5 -6 -1 -9 6 -10 11 -3 20 6 7 7 17 3 21 -4 5 -1 5 6 1 9 -6 10 -11 3 -20z"/>
<path fill="#ffffff" stroke="none" d="M1085 1901 c3 -5 2 -12 -3 -15 -5 -3
-9 1 -9 9 0 17 3 19 12 6z"/>
<path fill="#ffffff" stroke="none" d="M1134 1901 c3 -4 -3 -16 -13 -25 -14
-13 -18 -14 -18 -2 0 8 5 14 11 13 6 -1 10 4 9 11 -3 14 3 16 11 3z"/>
<path fill="#ffffff" stroke="none" d="M1271 1893 c13 -16 12 -17 -3 -4 -17
13 -22 21 -14 21 2 0 10 -8 17 -17z"/>
<path fill="#ffffff" stroke="none" d="M1395 1893 c-1 -10 3 -25 9 -33 9 -13
9 -13 -6 -2 -13 10 -16 26 -9 50 4 11 9 -2 6 -15z"/>
<path fill="#ffffff" stroke="none" d="M1870 1907 c0 -2 -10 -13 -23 -25 -18
-17 -24 -19 -24 -8 0 8 4 13 8 11 3 -3 12 2 19 10 12 14 20 19 20 12z"/>
<path fill="#ffffff" stroke="none" d="M1876 1882 c-17 -16 -18 -16 -5 5 7 12
15 20 18 17 3 -2 -3 -12 -13 -22z"/>
<path fill="#ffffff" stroke="none" d="M2007 1892 c-10 -10 -14 -22 -10 -27 5
-4 2 -5 -5 -1 -11 6 -10 12 4 27 9 10 19 19 22 19 3 0 -2 -8 -11 -18z"/>
<path fill="#ffffff" stroke="none" d="M1337 1889 c-1 -3 4 -13 11 -22 9 -10
10 -17 2 -22 -6 -4 -10 -3 -9 2 1 4 0 10 -1 13 -4 11 -8 42 -5 38 2 -1 3 -6 2
-9z"/>
<path fill="#ffffff" stroke="none" d="M1491 1883 c13 -16 12 -17 -3 -4 -10 7
-18 15 -18 17 0 8 8 3 21 -13z"/>
<path fill="#ffffff" stroke="none" d="M1155 1873 c-1 -10 2 -23 7 -30 6 -7 5
-14 -3 -19 -7 -4 -9 -3 -5 4 3 6 2 13 -3 16 -7 5 -8 23 -2 44 4 11 9 -2 6 -15z"/>
<path fill="#ffffff" stroke="none" d="M1263 1870 c10 -12 9 -12 -4 -2 -9 6
-18 9 -21 6 -3 -3 -9 -1 -12 4 -9 15 22 8 37 -8z"/>
<path fill="#ffffff" stroke="none" d="M1616 1866 c1 -8 -14 -29 -34 -48 -20
-18 -27 -21 -14 -7 12 14 19 29 15 33 -5 4 -1 6 7 4 10 -2 15 4 14 20 -2 24 8
22 12 -2z"/>
<path fill="#ffffff" stroke="none" d="M2086 1875 c-1 -8 -5 -17 -8 -21 -5 -4
-4 16 1 34 3 9 9 -1 7 -13z"/>
<path fill="#ffffff" stroke="none" d="M1320 1876 c0 -2 -6 -9 -14 -15 -11 -9
-16 -9 -22 0 -4 7 -3 9 4 5 6 -3 13 -2 17 4 6 10 15 14 15 6z"/>
<path fill="#ffffff" stroke="none" d="M1436 1845 c-1 -8 -5 -17 -8 -21 -4 -3
-5 2 -4 13 2 10 -2 25 -8 33 -9 13 -9 13 6 2 9 -7 15 -19 14 -27z"/>
<path fill="#ffffff" stroke="none" d="M1481 1863 c13 -16 12 -17 -3 -4 -17
13 -22 21 -14 21 2 0 10 -8 17 -17z"/>
<path fill="#ffffff" stroke="none" d="M1707 1865 c0 -8 -4 -12 -9 -9 -5 3 -6
10 -3 15 9 13 12 11 12 -6z"/>
<path fill="#ffffff" stroke="none" d="M1757 1865 c0 -8 -4 -12 -9 -9 -5 3 -6
10 -3 15 9 13 12 11 12 -6z"/>
<path fill="#ffffff" stroke="none" d="M1807 1865 c0 -8 -4 -12 -9 -9 -5 3 -6
10 -3 15 9 13 12 11 12 -6z"/>
<path fill="#ffffff" stroke="none" d="M1896 1865 c-1 -8 -5 -17 -8 -21 -5 -4
-4 16 1 34 3 9 9 -1 7 -13z"/>
<path fill="#ffffff" stroke="none" d="M1226 1849 c1 -5 2 -10 4 -11 1 -2 3
-11 5 -20 4 -21 -20 -44 -30 -28 -4 6 -1 9 6 8 14 -3 19 19 10 37 -8 15 -10
38 -3 30 4 -4 8 -11 8 -16z"/>
<path fill="#ffffff" stroke="none" d="M1540 1866 c0 -2 -6 -9 -14 -15 -11 -9
-16 -9 -22 0 -4 7 -3 9 4 5 6 -3 13 -2 17 4 6 10 15 14 15 6z"/>
<path fill="#ffffff" stroke="none" d="M1644 1861 c3 -5 -2 -15 -12 -22 -15
-12 -16 -12 -5 2 7 9 10 19 6 22 -3 4 -4 7 0 7 3 0 8 -4 11 -9z"/>
<path fill="#ffffff" stroke="none" d="M1676 1861 c-7 -11 18 -33 27 -24 4 3
7 4 7 1 0 -3 -9 -13 -19 -22 -14 -13 -21 -14 -27 -5 -4 7 -3 10 4 5 17 -10 23
10 7 24 -13 11 -12 30 1 30 3 0 3 -4 0 -9z"/>
<path fill="#ffffff" stroke="none" d="M1971 1855 c3 2 5 -11 5 -30 0 -18 -3
-32 -7 -29 -4 2 -6 12 -4 22 1 9 -5 26 -14 37 -14 17 -14 18 0 7 9 -6 18 -10
20 -7z"/>
<path fill="#ffffff" stroke="none" d="M2024 1861 c3 -4 -3 -16 -13 -25 -14
-13 -18 -14 -18 -2 0 8 5 14 11 13 6 -1 10 4 9 11 -3 14 3 16 11 3z"/>
<path fill="#ffffff" stroke="none" d="M2057 1855 c0 -8 -4 -12 -9 -9 -5 3 -6
10 -3 15 9 13 12 11 12 -6z"/>
<path fill="#ffffff" stroke="none" d="M1273 1847 c4 3 7 4 7 1 0 -3 -8 -12
-17 -19 -10 -7 -15 -9 -11 -5 4 5 2 16 -5 25 -10 14 -10 14 4 4 9 -7 19 -10
22 -6z"/>
<path fill="#ffffff" stroke="none" d="M1327 1845 c0 -8 -12 -25 -26 -37 l-26
-23 24 28 c14 15 21 27 17 27 -4 0 -4 5 -1 10 9 14 12 13 12 -5z"/>
<path fill="#ffffff" stroke="none" d="M1394 1841 c14 -15 15 -21 4 -27 -7 -4
-10 -3 -5 1 4 5 0 17 -10 27 -9 10 -14 18 -11 18 3 0 13 -9 22 -19z"/>
<path fill="#ffffff" stroke="none" d="M1471 1843 c13 -16 12 -17 -3 -4 -10 7
-18 15 -18 17 0 8 8 3 21 -13z"/>
<path fill="#ffffff" stroke="none" d="M1727 1849 c-1 -3 4 -13 11 -21 10 -13
9 -18 -5 -29 -16 -12 -17 -12 -6 2 7 9 10 19 6 23 -4 3 -8 14 -9 22 -1 9 -1
14 1 12 2 -1 3 -6 2 -9z"/>
<path fill="#ffffff" stroke="none" d="M1786 1842 c-3 -3 0 -12 6 -21 10 -13
10 -14 -2 -4 -16 15 -23 46 -8 37 5 -3 7 -9 4 -12z"/>
<path fill="#ffffff" stroke="none" d="M1867 1843 c0 -9 -4 -10 -14 -2 -7 6
-13 12 -13 14 0 1 6 2 13 2 8 0 14 -6 14 -14z"/>
<path fill="#ffffff" stroke="none" d="M1197 1843 c-4 -3 -1 -13 6 -22 11 -14
10 -14 -5 -2 -16 12 -16 31 -1 31 4 0 3 -3 0 -7z"/>
<path fill="#ffffff" stroke="none" d="M1550 1846 c0 -2 -8 -10 -17 -17 -16
-13 -17 -12 -4 4 13 16 21 21 21 13z"/>
<path fill="#ffffff" stroke="none" d="M1841 1833 c13 -16 12 -17 -3 -4 -10 7
-18 15 -18 17 0 8 8 3 21 -13z"/>
<path fill="#ffffff" stroke="none" d="M1917 1843 c-4 -3 -1 -13 6 -22 11 -14
10 -14 -5 -2 -16 12 -16 31 -1 31 4 0 3 -3 0 -7z"/>
<path fill="#ffffff" stroke="none" d="M1944 1834 c3 -8 2 -12 -4 -9 -6 3 -10
10 -10 16 0 14 7 11 14 -7z"/>
<path fill="#ffffff" stroke="none" d="M1300 1836 c0 -2 -8 -10 -17 -17 -16
-13 -17 -12 -4 4 13 16 21 21 21 13z"/>
<path fill="#ffffff" stroke="none" d="M1506 1815 c1 -8 -1 -17 -5 -19 -4 -3
-7 6 -7 19 0 25 8 25 12 0z"/>
<path fill="#ffffff" stroke="none" d="M1570 1836 c0 -2 -8 -10 -17 -17 -16
-13 -17 -12 -4 4 13 16 21 21 21 13z"/>
<path fill="#ffffff" stroke="none" d="M1819 1826 c9 -11 9 -16 -1 -22 -7 -4
-10 -4 -6 1 4 4 3 14 -3 22 -6 7 -9 13 -6 13 2 0 10 -6 16 -14z"/>
<path fill="#ffffff" stroke="none" d="M2044 1831 c3 -5 -1 -14 -8 -20 -10 -9
-16 -9 -21 -1 -4 6 -1 9 7 8 7 -2 12 3 11 10 -3 14 3 16 11 3z"/>
<path fill="#ffffff" stroke="none" d="M2077 1825 c0 -8 -4 -12 -9 -9 -5 3 -6
10 -3 15 9 13 12 11 12 -6z"/>
<path fill="#ffffff" stroke="none" d="M1452 1818 c-9 -9 -9 -15 1 -27 11 -14
10 -14 -6 -2 -13 10 -15 17 -6 27 6 8 14 14 17 14 3 0 1 -5 -6 -12z"/>
<path fill="#ffffff" stroke="none" d="M1477 1805 c0 -8 -4 -12 -9 -9 -5 3 -6
10 -3 15 9 13 12 11 12 -6z"/>
<path fill="#ffffff" stroke="none" d="M1620 1805 c-5 -7 -9 -14 -7 -16 1 -2
0 -3 -2 -1 -11 7 -7 29 5 29 9 0 11 -4 4 -12z"/>
<path fill="#ffffff" stroke="none" d="M1711 1807 c-6 -8 -8 -16 -5 -19 3 -3
1 -9 -4 -12 -6 -3 -9 0 -8 6 2 16 15 38 23 38 3 0 0 -6 -6 -13z"/>
<path fill="#ffffff" stroke="none" d="M1874 1811 c3 -4 -7 -19 -22 -32 l-27
-24 23 26 c12 14 19 29 15 32 -3 4 -4 7 0 7 3 0 8 -4 11 -9z"/>
<path fill="#ffffff" stroke="none" d="M1165 1801 c3 -5 2 -12 -3 -15 -5 -3
-9 1 -9 9 0 17 3 19 12 6z"/>
<path fill="#ffffff" stroke="none" d="M1376 1795 c-1 -8 -5 -17 -8 -21 -5 -4
-4 16 1 34 3 9 9 -1 7 -13z"/>
<path fill="#ffffff" stroke="none" d="M1664 1791 c14 -15 15 -21 4 -27 -7 -4
-10 -4 -6 1 11 11 -12 36 -25 28 -6 -3 -7 -1 -3 5 9 15 10 15 30 -7z"/>
<path fill="#ffffff" stroke="none" d="M1850 1806 c0 -2 -8 -10 -17 -17 -16
-13 -17 -12 -4 4 13 16 21 21 21 13z"/>
<path fill="#ffffff" stroke="none" d="M2005 1801 c3 -5 2 -12 -3 -15 -5 -3
-9 1 -9 9 0 17 3 19 12 6z"/>
<path fill="#ffffff" stroke="none" d="M1805 1791 c3 -5 2 -12 -3 -15 -5 -3
-9 1 -9 9 0 17 3 19 12 6z"/>
<path fill="#ffffff" stroke="none" d="M1953 1787 c4 3 7 4 7 1 0 -3 -8 -12
-17 -19 -10 -7 -15 -9 -11 -5 4 5 2 16 -5 25 -10 14 -10 14 4 4 9 -7 19 -10
22 -6z"/>
<path fill="#ffffff" stroke="none" d="M1777 1775 c0 -8 -4 -12 -9 -9 -5 3 -6
10 -3 15 9 13 12 11 12 -6z"/>
<path fill="#ffffff" stroke="none" d="M1290 1774 c0 -8 -19 -13 -24 -6 -3 5
1 9 9 9 8 0 15 -2 15 -3z"/>
<path fill="#000000" stroke="none" d="M1340 2359 c0 -5 5 -7 10 -4 6 3 10 8
10 11 0 2 -4 4 -10 4 -5 0 -10 -5 -10 -11z"/>
<path fill="#000000" stroke="none" d="M2768 1040 l-57 -80 32 -38 c18 -21 43
-55 57 -75 14 -20 28 -37 32 -37 3 0 12 13 19 29 7 16 18 27 24 23 5 -3 4 2
-4 11 -12 15 -12 17 4 11 14 -6 16 -4 9 7 -12 20 -14 40 -3 33 5 -3 7 -10 4
-15 -11 -16 5 -9 28 12 12 12 15 19 7 15 -8 -4 -4 2 10 14 19 17 21 20 6 16
-15 -5 -17 -4 -8 7 9 11 5 20 -19 43 -17 16 -33 28 -37 27 -4 -1 -9 1 -12 4
-3 4 1 3 9 -2 9 -5 12 -3 9 6 -3 8 -11 13 -17 11 -7 -1 -10 2 -6 8 6 10 -11
50 -23 50 -4 0 -33 -36 -64 -80z"/>
<path fill="#ffffff" stroke="none" d="M2834 1071 c3 -5 -1 -14 -8 -20 -10 -9
-16 -9 -21 -1 -4 6 -1 9 7 8 7 -2 12 3 11 10 -3 14 3 16 11 3z"/>
<path fill="#ffffff" stroke="none" d="M2799 1036 c8 -10 8 -16 -3 -25 -10 -8
-16 -9 -21 -1 -4 6 -3 10 2 9 20 -3 25 2 13 16 -7 8 -10 15 -7 15 2 0 10 -6
16 -14z"/>
<path fill="#ffffff" stroke="none" d="M2850 1046 c0 -2 -8 -10 -17 -17 -16
-13 -17 -12 -4 4 13 16 21 21 21 13z"/>
<path fill="#ffffff" stroke="none" d="M2860 1026 c0 -2 -8 -10 -17 -17 -16
-13 -17 -12 -4 4 13 16 21 21 21 13z"/>
<path fill="#ffffff" stroke="none" d="M2886 1008 c4 -7 4 -10 -1 -6 -4 4 -15
2 -24 -5 -14 -11 -14 -10 -2 6 16 20 18 21 27 5z"/>
<path fill="#ffffff" stroke="none" d="M2775 982 c-3 -3 3 -15 12 -26 18 -21
18 -21 -5 -2 -12 11 -20 21 -17 24 3 3 -1 12 -8 21 -11 14 -10 14 6 2 9 -8 15
-16 12 -19z"/>
<path fill="#ffffff" stroke="none" d="M2817 995 c0 -8 -4 -12 -9 -9 -5 3 -6
10 -3 15 9 13 12 11 12 -6z"/>
<path fill="#ffffff" stroke="none" d="M2921 993 c13 -16 12 -17 -3 -4 -10 7
-18 15 -18 17 0 8 8 3 21 -13z"/>
<path fill="#ffffff" stroke="none" d="M2877 975 c0 -8 -4 -12 -9 -9 -5 3 -6
10 -3 15 9 13 12 11 12 -6z"/>
<path fill="#ffffff" stroke="none" d="M2906 964 c1 -9 0 -13 -4 -10 -3 4 -7
14 -8 22 -1 9 0 13 4 10 3 -4 7 -14 8 -22z"/>
<path fill="#ffffff" stroke="none" d="M2771 943 c13 -16 12 -17 -3 -4 -17 13
-22 21 -14 21 2 0 10 -8 17 -17z"/>
<path fill="#ffffff" stroke="none" d="M2751 933 c13 -16 12 -17 -3 -4 -17 13
-22 21 -14 21 2 0 10 -8 17 -17z"/>
<path fill="#ffffff" stroke="none" d="M2826 924 c1 -9 0 -13 -4 -10 -3 4 -7
14 -8 22 -1 9 0 13 4 10 3 -4 7 -14 8 -22z"/>
<path fill="#ffffff" stroke="none" d="M2856 914 c1 -9 0 -13 -4 -10 -3 4 -7
14 -8 22 -1 9 0 13 4 10 3 -4 7 -14 8 -22z"/>
<path fill="#ffffff" stroke="none" d="M2815 882 c-3 -22 14 -44 28 -35 6 4 7
1 2 -6 -6 -10 -11 -9 -23 3 -16 16 -26 70 -11 61 4 -3 6 -13 4 -23z"/>
<path fill="#ffffff" stroke="none" d="M2846 874 c1 -9 0 -13 -4 -10 -3 4 -7
14 -8 22 -1 9 0 13 4 10 3 -4 7 -14 8 -22z"/>
<path fill="#000000" stroke="none" d="M2784 634 c-19 -19 -35 -46 -35 -60 -1
-13 -3 -87 -4 -164 -1 -77 -3 -149 -4 -160 -1 -15 -10 -22 -33 -27 -32 -7 -32
-7 -8 -13 14 -4 29 -4 34 1 4 4 20 4 35 0 14 -4 44 -4 66 0 29 4 33 7 15 9
-14 1 -29 2 -33 1 -5 -1 -6 3 -3 8 4 5 2 12 -3 16 -6 3 -7 13 -4 22 4 10 2 14
-4 10 -5 -3 -10 0 -10 8 0 8 4 12 9 9 4 -3 8 2 8 11 0 9 -4 14 -8 11 -5 -3 -9
1 -9 9 0 8 3 12 7 10 4 -2 7 11 7 30 0 19 -3 32 -7 30 -4 -2 -7 2 -7 10 0 8 4
12 9 9 4 -3 8 2 8 11 0 9 -4 14 -8 11 -5 -3 -9 1 -9 9 0 8 3 12 7 10 4 -2 7
11 7 30 0 19 -3 32 -7 30 -4 -2 -7 2 -7 10 0 8 4 12 9 9 4 -3 8 2 8 11 0 10
-5 13 -12 9 -10 -6 -10 -4 0 8 7 9 12 22 11 30 -4 29 2 44 22 56 12 8 18 9 14
3 -3 -6 -1 -11 6 -11 7 0 9 -3 6 -7 -4 -3 1 -12 11 -20 9 -8 11 -11 3 -7 -9 5
-12 3 -7 -4 8 -14 42 -10 58 6 8 8 7 17 -6 36 -13 21 -25 26 -58 26 -34 0 -46
-6 -74 -36z"/>
<path fill="#ffffff" stroke="none" d="M2901 643 c13 -16 12 -17 -3 -4 -17 13
-22 21 -14 21 2 0 10 -8 17 -17z"/>
<path fill="#ffffff" stroke="none" d="M2891 623 c13 -16 12 -17 -3 -4 -10 7
-18 15 -18 17 0 8 8 3 21 -13z"/>
<path fill="#ffffff" stroke="none" d="M2786 571 c-9 -10 -14 -20 -11 -23 3
-3 -3 -11 -12 -19 -16 -12 -17 -12 -7 1 6 8 10 23 9 32 -2 10 2 16 8 15 7 -1
11 4 9 11 -1 8 2 11 8 7 8 -5 6 -13 -4 -24z"/>
<path fill="#ffffff" stroke="none" d="M2787 485 c0 -8 -4 -12 -9 -9 -5 3 -6
10 -3 15 9 13 12 11 12 -6z"/>
<path fill="#ffffff" stroke="none" d="M2777 425 c0 -8 -4 -12 -9 -9 -5 3 -6
10 -3 15 9 13 12 11 12 -6z"/>
<path fill="#ffffff" stroke="none" d="M2787 365 c0 -8 -4 -12 -9 -9 -5 3 -6
10 -3 15 9 13 12 11 12 -6z"/>
<path fill="#ffffff" stroke="none" d="M2777 305 c0 -8 -4 -12 -9 -9 -5 3 -6
10 -3 15 9 13 12 11 12 -6z"/>
<path fill="#ffffff" stroke="none" d="M2780 276 c0 -2 -8 -10 -17 -17 -16
-13 -17 -12 -4 4 13 16 21 21 21 13z"/>
<path fill="#ffffff" stroke="none" d="M2797 225 c0 -8 -4 -12 -9 -9 -5 3 -6
10 -3 15 9 13 12 11 12 -6z"/>
</g>
</svg>
