<?xml version="1.0" standalone="no"?>
<!DOCTYPE svg PUBLIC "-//W3C//DTD SVG 20010904//EN"
 "http://www.w3.org/TR/2001/REC-SVG-20010904/DTD/svg10.dtd">
<svg version="1.0" xmlns="http://www.w3.org/2000/svg"
 width="318.000000pt" height="450.000000pt" viewBox="0 0 318.000000 450.000000"
 preserveAspectRatio="xMidYMid meet">
<metadata>
Created by potrace 1.16, written by Peter Selinger 2001-2019
</metadata>
<g transform="translate(0.000000,450.000000) scale(0.100000,-0.100000)"
fill="#000000" stroke="none">
<path fill="#000000" stroke="none" d="M291 4292 c-18 -8 -41 -32 -52 -53 -21
-42 -25 -64 -9 -54 6 4 9 9 6 13 -5 11 41 52 50 44 4 -4 5 0 2 9 -4 9 -1 16 8
16 7 0 11 -3 9 -6 -2 -4 10 -7 26 -7 16 -1 26 2 24 6 -3 5 0 12 6 16 8 4 9 3
5 -5 -5 -7 7 -26 31 -48 21 -20 34 -34 28 -31 -12 7 -13 -71 -2 -89 6 -9 3
-11 -10 -6 -10 3 -15 3 -11 -2 9 -9 -37 -75 -91 -132 -39 -41 -44 -55 -26 -83
8 -13 7 -13 -8 -1 -9 7 -14 17 -11 22 10 17 -7 9 -33 -16 -15 -13 -24 -27 -21
-30 11 -11 42 -13 61 -3 12 6 17 5 17 -4 0 -9 3 -9 9 2 6 8 7 18 4 24 -3 5 -1
6 6 2 6 -4 9 -12 6 -17 -7 -10 -2 -10 96 -13 45 -1 66 3 66 11 0 7 -4 10 -8 8
-10 -7 -5 22 6 32 4 4 5 2 1 -4 -4 -7 -3 -13 2 -13 5 0 12 11 14 25 6 29 2 31
-18 10 -9 -8 -24 -15 -35 -15 -14 0 -18 -4 -13 -12 6 -10 4 -10 -7 -2 -8 6
-40 10 -71 9 -40 -1 -59 3 -63 13 -2 7 -1 11 4 8 9 -6 71 61 71 76 0 5 5 6 12
2 7 -4 8 -3 4 4 -4 7 -2 12 4 12 7 0 10 7 7 14 -4 11 -1 13 11 9 9 -3 14 -3
10 2 -4 4 1 15 11 24 24 21 61 113 57 137 -10 46 -27 74 -56 89 -44 23 -92 25
-129 7z"/>
<path fill="#ffffff" stroke="none" d="M350 4286 c0 -2 -8 -10 -17 -17 -16
-13 -17 -12 -4 4 13 16 21 21 21 13z"/>
<path fill="#ffffff" stroke="none" d="M396 4252 c-3 -3 0 -12 6 -21 10 -13
10 -14 -2 -4 -16 15 -23 46 -8 37 5 -3 7 -9 4 -12z"/>
<path fill="#ffffff" stroke="none" d="M446 4244 c1 -9 0 -13 -4 -10 -3 4 -7
14 -8 22 -1 9 0 13 4 10 3 -4 7 -14 8 -22z"/>
<path fill="#ffffff" stroke="none" d="M461 4183 c13 -16 12 -17 -3 -4 -10 7
-18 15 -18 17 0 8 8 3 21 -13z"/>
<path fill="#ffffff" stroke="none" d="M451 4163 c13 -16 12 -17 -3 -4 -10 7
-18 15 -18 17 0 8 8 3 21 -13z"/>
<path fill="#ffffff" stroke="none" d="M350 3986 c0 -2 -8 -10 -17 -17 -16
-13 -17 -12 -4 4 13 16 21 21 21 13z"/>
<path fill="#ffffff" stroke="none" d="M320 3946 c0 -2 -8 -10 -17 -17 -16
-13 -17 -12 -4 4 13 16 21 21 21 13z"/>
<path fill="#ffffff" stroke="none" d="M237 3865 c0 -8 -4 -12 -9 -9 -5 3 -6
10 -3 15 9 13 12 11 12 -6z"/>
<path fill="#ffffff" stroke="none" d="M265 3871 c3 -5 2 -12 -3 -15 -5 -3 -9
1 -9 9 0 17 3 19 12 6z"/>
<path fill="#ffffff" stroke="none" d="M347 3865 c0 -8 -4 -12 -9 -9 -5 3 -6
10 -3 15 9 13 12 11 12 -6z"/>
<path fill="#ffffff" stroke="none" d="M390 3875 c0 -2 -6 -8 -13 -14 -10 -8
-14 -7 -14 2 0 8 6 14 14 14 7 0 13 -1 13 -2z"/>
<path fill="#ffffff" stroke="none" d="M401 3857 c-10 -9 -11 -8 -5 6 3 10 9
15 12 12 3 -3 0 -11 -7 -18z"/>
<path fill="#ffffff" stroke="none" d="M450 3864 c0 -8 -19 -13 -24 -6 -3 5 1
9 9 9 8 0 15 -2 15 -3z"/>
<path fill="#000000" stroke="none" d="M343 3667 c-6 -13 -32 -49 -57 -80 -25
-31 -46 -60 -46 -63 0 -16 63 -83 72 -78 7 4 8 2 4 -5 -4 -6 2 -27 14 -47 21
-32 23 -34 35 -17 7 10 14 23 15 28 2 6 10 16 19 23 9 8 10 10 2 6 -8 -4 3 12
25 34 45 49 48 59 18 88 -13 12 -20 25 -17 28 15 14 -12 4 -31 -11 l-21 -18
19 23 c19 22 19 23 0 38 -10 8 -12 12 -4 8 13 -7 13 -5 1 9 -7 9 -17 15 -21
12 -5 -3 -12 0 -16 6 -4 8 -3 9 4 5 14 -8 15 3 4 22 -6 9 -11 6 -19 -11z"/>
<path fill="#ffffff" stroke="none" d="M363 3627 c4 3 7 4 7 1 0 -3 -9 -13
-19 -22 -13 -12 -21 -14 -26 -6 -3 6 -3 10 2 9 21 -4 24 2 12 19 -12 15 -12
16 2 5 9 -7 19 -10 22 -6z"/>
<path fill="#ffffff" stroke="none" d="M384 3601 c3 -5 -1 -14 -8 -20 -10 -9
-16 -9 -21 -1 -4 6 -1 9 7 8 7 -2 12 3 11 10 -3 14 3 16 11 3z"/>
<path fill="#ffffff" stroke="none" d="M314 3591 c3 -5 -2 -15 -12 -22 -15
-12 -16 -12 -5 2 7 9 10 19 6 22 -3 4 -4 7 0 7 3 0 8 -4 11 -9z"/>
<path fill="#ffffff" stroke="none" d="M346 3559 c1 -5 3 -11 4 -14 1 -3 3
-13 4 -22 1 -10 5 -25 11 -33 7 -13 6 -13 -7 -2 -9 7 -15 21 -13 30 1 9 0 22
-4 27 -8 15 -11 38 -3 30 4 -4 8 -11 8 -16z"/>
<path fill="#ffffff" stroke="none" d="M284 3551 c3 -4 -3 -16 -13 -25 -14
-13 -18 -14 -18 -2 0 8 5 14 11 13 6 -1 10 4 9 11 -3 14 3 16 11 3z"/>
<path fill="#ffffff" stroke="none" d="M317 3553 c-4 -3 -1 -13 6 -22 11 -14
10 -14 -5 -2 -16 12 -16 31 -1 31 4 0 3 -3 0 -7z"/>
<path fill="#ffffff" stroke="none" d="M406 3545 c-1 -8 -5 -17 -8 -21 -5 -4
-4 16 1 34 3 9 9 -1 7 -13z"/>
<path fill="#ffffff" stroke="none" d="M435 3551 c3 -5 2 -12 -3 -15 -5 -3 -9
1 -9 9 0 17 3 19 12 6z"/>
<path fill="#ffffff" stroke="none" d="M306 3512 c-3 -3 0 -12 6 -21 10 -13
10 -14 -2 -4 -16 15 -23 46 -8 37 5 -3 7 -9 4 -12z"/>
<path fill="#ffffff" stroke="none" d="M446 3515 c-1 -8 -5 -17 -8 -21 -5 -4
-4 16 1 34 3 9 9 -1 7 -13z"/>
<path fill="#ffffff" stroke="none" d="M400 3504 c0 -8 -19 -13 -24 -6 -3 5 1
9 9 9 8 0 15 -2 15 -3z"/>
<path fill="#ffffff" stroke="none" d="M416 3485 c-1 -8 -5 -17 -8 -21 -5 -4
-4 16 1 34 3 9 9 -1 7 -13z"/>
<path fill="#ffffff" stroke="none" d="M301 3473 c13 -16 12 -17 -3 -4 -10 7
-18 15 -18 17 0 8 8 3 21 -13z"/>
<path fill="#ffffff" stroke="none" d="M351 3473 c13 -16 12 -17 -3 -4 -10 7
-18 15 -18 17 0 8 8 3 21 -13z"/>
<path fill="#ffffff" stroke="none" d="M387 3465 c0 -8 -4 -12 -9 -9 -5 3 -6
10 -3 15 9 13 12 11 12 -6z"/>
<path fill="#ffffff" stroke="none" d="M339 3456 c9 -10 7 -17 -6 -27 -16 -12
-17 -12 -6 2 10 12 10 18 1 27 -7 7 -9 12 -6 12 3 0 11 -6 17 -14z"/>
<path fill="#ffffff" stroke="none" d="M366 3405 c1 -8 -1 -17 -5 -19 -4 -3
-7 6 -7 19 0 25 8 25 12 0z"/>
<path fill="#000000" stroke="none" d="M1575 3628 c-9 -13 -45 -66 -81 -118
-37 -52 -93 -125 -125 -162 -32 -36 -59 -69 -59 -73 0 -4 33 -48 74 -99 40
-50 102 -134 136 -186 35 -52 68 -99 74 -105 6 -5 7 -6 3 -1 -4 5 2 16 13 23
11 8 18 18 15 23 -3 4 2 13 10 20 11 9 12 16 5 25 -8 10 -8 15 1 21 8 4 9 3 5
-4 -4 -7 -3 -12 2 -12 16 0 22 13 12 26 -8 9 -6 12 6 10 9 0 24 13 34 31 9 18
21 29 26 25 4 -4 3 0 -4 10 -9 11 -10 18 -2 23 6 3 7 11 4 17 -4 7 -2 8 5 4 9
-6 9 -11 0 -22 -7 -8 -7 -14 -1 -14 12 0 24 28 17 40 -3 5 0 12 6 16 8 4 9 3
5 -4 -4 -7 -2 -12 3 -12 6 0 11 5 11 12 0 7 12 24 26 39 28 29 36 58 22 76 -6
7 -5 14 3 19 7 4 9 3 5 -4 -3 -6 -2 -13 4 -17 6 -4 8 -11 5 -16 -4 -5 -1 -9 6
-9 6 0 9 8 6 19 -2 10 1 18 7 17 6 0 11 4 11 9 0 6 -5 10 -12 10 -6 0 -15 4
-20 9 -5 5 -2 6 6 1 9 -5 12 -3 9 6 -3 8 -13 13 -22 13 -13 -2 -14 1 -6 11 8
10 6 17 -8 27 -10 7 -36 37 -56 66 -21 28 -41 50 -45 47 -4 -2 -8 1 -8 8 0 19
-54 97 -64 92 -4 -3 -11 0 -15 6 -4 8 -3 9 4 5 7 -4 12 -4 12 0 0 8 -40 74
-45 74 -2 0 -11 -10 -20 -22z"/>
<path fill="#ffffff" stroke="none" d="M1575 3591 c3 -5 2 -12 -3 -15 -5 -3
-9 1 -9 9 0 17 3 19 12 6z"/>
<path fill="#ffffff" stroke="none" d="M1581 3543 c13 -16 12 -17 -3 -4 -10 7
-18 15 -18 17 0 8 8 3 21 -13z"/>
<path fill="#ffffff" stroke="none" d="M1564 3531 c14 -15 15 -21 4 -27 -7 -4
-10 -3 -5 1 4 5 0 17 -10 27 -9 10 -14 18 -11 18 3 0 13 -9 22 -19z"/>
<path fill="#ffffff" stroke="none" d="M1535 3531 c3 -5 2 -12 -3 -15 -5 -3
-9 1 -9 9 0 17 3 19 12 6z"/>
<path fill="#ffffff" stroke="none" d="M1632 3525 c2 3 5 -2 5 -10 0 -19 0
-19 -23 7 -12 14 -13 18 -3 10 9 -6 18 -10 21 -7z"/>
<path fill="#ffffff" stroke="none" d="M1666 3505 c1 -8 -1 -17 -5 -19 -4 -3
-7 6 -7 19 0 25 8 25 12 0z"/>
<path fill="#ffffff" stroke="none" d="M1611 3503 c13 -16 12 -17 -3 -4 -17
13 -22 21 -14 21 2 0 10 -8 17 -17z"/>
<path fill="#ffffff" stroke="none" d="M1545 3493 c-1 -10 2 -23 6 -29 6 -7 3
-16 -8 -25 -16 -13 -17 -12 -5 3 8 10 9 19 3 22 -7 5 -8 23 -2 44 4 11 9 -2 6
-15z"/>
<path fill="#ffffff" stroke="none" d="M1601 3483 c13 -16 12 -17 -3 -4 -17
13 -22 21 -14 21 2 0 10 -8 17 -17z"/>
<path fill="#ffffff" stroke="none" d="M1586 3454 c1 -9 -1 -13 -4 -9 -4 4 -7
10 -7 13 0 4 -4 14 -9 22 -7 12 -6 13 4 3 8 -7 15 -20 16 -29z"/>
<path fill="#ffffff" stroke="none" d="M1637 3475 c0 -8 -4 -12 -9 -9 -5 3 -6
10 -3 15 9 13 12 11 12 -6z"/>
<path fill="#ffffff" stroke="none" d="M1687 3475 c0 -8 -4 -12 -9 -9 -5 3 -6
10 -3 15 9 13 12 11 12 -6z"/>
<path fill="#ffffff" stroke="none" d="M1664 3461 c3 -4 -3 -16 -13 -25 -14
-13 -18 -14 -18 -2 0 8 5 14 11 13 6 -1 10 4 9 11 -3 14 3 16 11 3z"/>
<path fill="#ffffff" stroke="none" d="M1520 3445 c-5 -7 -9 -14 -7 -16 1 -2
0 -3 -2 -1 -11 7 -7 29 5 29 9 0 11 -4 4 -12z"/>
<path fill="#ffffff" stroke="none" d="M1616 3435 c1 -8 -5 -20 -14 -27 -15
-11 -15 -11 -6 2 6 8 10 23 8 33 -1 11 0 16 4 13 3 -4 7 -13 8 -21z"/>
<path fill="#ffffff" stroke="none" d="M1686 3426 c0 -14 -3 -23 -7 -20 -6 3
-6 22 0 42 3 10 7 -2 7 -22z"/>
<path fill="#ffffff" stroke="none" d="M1730 3445 c0 -2 -6 -8 -13 -14 -10 -8
-14 -7 -14 2 0 8 6 14 14 14 7 0 13 -1 13 -2z"/>
<path fill="#ffffff" stroke="none" d="M1490 3434 c0 -8 -19 -13 -24 -6 -3 5
1 9 9 9 8 0 15 -2 15 -3z"/>
<path fill="#ffffff" stroke="none" d="M1459 3416 c9 -11 9 -16 -1 -22 -7 -4
-10 -4 -6 1 4 4 3 14 -3 22 -6 7 -9 13 -6 13 2 0 10 -6 16 -14z"/>
<path fill="#ffffff" stroke="none" d="M1581 3417 c-6 -8 -7 -18 -3 -22 4 -5
1 -5 -6 -1 -10 6 -10 11 -1 22 6 8 14 14 16 14 3 0 0 -6 -6 -13z"/>
<path fill="#ffffff" stroke="none" d="M1497 3413 c-4 -3 -2 -12 3 -18 7 -9 5
-17 -7 -26 -16 -13 -17 -12 -5 3 9 11 10 18 2 23 -10 6 -5 25 7 25 4 0 3 -3 0
-7z"/>
<path fill="#ffffff" stroke="none" d="M1657 3413 c-4 -3 -1 -13 6 -22 11 -14
10 -14 -5 -2 -16 12 -16 31 -1 31 4 0 3 -3 0 -7z"/>
<path fill="#ffffff" stroke="none" d="M1531 3393 c13 -16 12 -17 -3 -4 -17
13 -22 21 -14 21 2 0 10 -8 17 -17z"/>
<path fill="#ffffff" stroke="none" d="M1715 3401 c3 -5 2 -12 -3 -15 -5 -3
-9 1 -9 9 0 17 3 19 12 6z"/>
<path fill="#ffffff" stroke="none" d="M1747 3403 c-4 -3 -1 -13 6 -22 11 -14
10 -14 -5 -2 -16 12 -16 31 -1 31 4 0 3 -3 0 -7z"/>
<path fill="#ffffff" stroke="none" d="M1480 3387 c0 -2 -8 -11 -18 -20 -15
-14 -19 -15 -19 -2 0 8 4 12 8 9 4 -2 10 0 14 6 6 10 15 14 15 7z"/>
<path fill="#ffffff" stroke="none" d="M1565 3381 c3 -5 2 -12 -3 -15 -5 -3
-9 1 -9 9 0 17 3 19 12 6z"/>
<path fill="#ffffff" stroke="none" d="M1597 3383 c-4 -3 -1 -13 6 -22 11 -14
10 -14 -5 -2 -16 12 -16 31 -1 31 4 0 3 -3 0 -7z"/>
<path fill="#ffffff" stroke="none" d="M1651 3373 c13 -16 12 -17 -3 -4 -10 7
-18 15 -18 17 0 8 8 3 21 -13z"/>
<path fill="#ffffff" stroke="none" d="M1681 3367 c-10 -9 -11 -8 -5 6 3 10 9
15 12 12 3 -3 0 -11 -7 -18z"/>
<path fill="#ffffff" stroke="none" d="M1629 3366 c9 -11 9 -16 -1 -22 -7 -4
-10 -4 -6 1 4 4 3 14 -3 22 -6 7 -9 13 -6 13 2 0 10 -6 16 -14z"/>
<path fill="#ffffff" stroke="none" d="M1735 3371 c3 -5 2 -12 -3 -15 -5 -3
-9 1 -9 9 0 17 3 19 12 6z"/>
<path fill="#ffffff" stroke="none" d="M1426 3355 c-1 -8 -7 -20 -14 -27 -9
-9 -9 -15 1 -27 11 -14 10 -14 -6 -2 -16 13 -16 15 -1 32 10 11 14 19 10 19
-4 0 -4 5 -1 10 9 14 14 12 11 -5z"/>
<path fill="#ffffff" stroke="none" d="M1516 3355 c-1 -8 -5 -17 -8 -21 -5 -4
-4 16 1 34 3 9 9 -1 7 -13z"/>
<path fill="#ffffff" stroke="none" d="M1707 3355 c0 -8 -4 -12 -9 -9 -5 3 -6
10 -3 15 9 13 12 11 12 -6z"/>
<path fill="#ffffff" stroke="none" d="M1756 3345 c-1 -8 -5 -17 -8 -21 -5 -4
-4 16 1 34 3 9 9 -1 7 -13z"/>
<path fill="#ffffff" stroke="none" d="M1785 3351 c3 -5 2 -12 -3 -15 -5 -3
-9 1 -9 9 0 17 3 19 12 6z"/>
<path fill="#ffffff" stroke="none" d="M1400 3346 c0 -2 -8 -10 -17 -17 -16
-13 -17 -12 -4 4 13 16 21 21 21 13z"/>
<path fill="#ffffff" stroke="none" d="M1486 3334 c-1 -8 -4 -15 -7 -16 -2 -2
-3 -1 -2 1 2 2 -2 9 -7 16 -7 8 -5 12 4 12 8 0 13 -6 12 -13z"/>
<path fill="#ffffff" stroke="none" d="M1565 3341 c3 -5 2 -12 -3 -15 -5 -3
-9 1 -9 9 0 17 3 19 12 6z"/>
<path fill="#ffffff" stroke="none" d="M1660 3346 c0 -2 -8 -10 -17 -17 -16
-13 -17 -12 -4 4 13 16 21 21 21 13z"/>
<path fill="#ffffff" stroke="none" d="M1689 3337 c8 -11 4 -19 -17 -38 l-27
-24 22 26 c18 19 20 28 11 37 -7 7 -9 12 -6 12 3 0 11 -6 17 -13z"/>
<path fill="#ffffff" stroke="none" d="M1450 3325 c1 -5 9 -19 18 -30 17 -20
17 -20 -4 -2 -11 9 -21 24 -21 32 0 16 4 16 7 0z"/>
<path fill="#ffffff" stroke="none" d="M1537 3333 c-4 -3 -1 -13 6 -22 11 -14
10 -14 -5 -2 -16 12 -16 31 -1 31 4 0 3 -3 0 -7z"/>
<path fill="#ffffff" stroke="none" d="M1614 3331 c3 -5 -2 -15 -12 -22 -15
-12 -16 -12 -5 2 7 9 10 19 6 22 -3 4 -4 7 0 7 3 0 8 -4 11 -9z"/>
<path fill="#ffffff" stroke="none" d="M1727 3325 c0 -8 -4 -12 -9 -9 -5 3 -6
10 -3 15 9 13 12 11 12 -6z"/>
<path fill="#ffffff" stroke="none" d="M1581 3317 c-6 -8 -7 -18 -3 -22 4 -5
1 -5 -6 -1 -10 6 -10 11 -1 22 6 8 14 14 16 14 3 0 0 -6 -6 -13z"/>
<path fill="#ffffff" stroke="none" d="M1670 3326 c0 -2 -8 -10 -17 -17 -16
-13 -17 -12 -4 4 13 16 21 21 21 13z"/>
<path fill="#ffffff" stroke="none" d="M1796 3315 c-3 -23 -22 -39 -31 -26 -3
7 -1 10 6 9 7 -2 14 3 15 10 2 19 4 22 8 22 2 0 3 -7 2 -15z"/>
<path fill="#ffffff" stroke="none" d="M1360 3305 c1 -5 8 -17 16 -27 12 -13
13 -17 2 -24 -7 -4 -10 -4 -6 1 4 4 2 15 -4 23 -10 12 -22 50 -13 40 2 -1 4
-7 5 -13z"/>
<path fill="#ffffff" stroke="none" d="M1505 3293 c-1 -16 5 -37 14 -48 16
-20 16 -20 -5 -2 -17 14 -24 51 -15 75 4 10 8 -3 6 -25z"/>
<path fill="#ffffff" stroke="none" d="M1715 3301 c3 -5 2 -12 -3 -15 -5 -3
-9 1 -9 9 0 17 3 19 12 6z"/>
<path fill="#ffffff" stroke="none" d="M1747 3303 c-4 -3 -2 -12 4 -19 7 -8 6
-14 -2 -20 -7 -4 -9 -3 -5 4 3 6 2 13 -4 17 -10 6 -5 25 7 25 4 0 3 -3 0 -7z"/>
<path fill="#ffffff" stroke="none" d="M1336 3285 c-1 -8 -5 -17 -8 -21 -5 -4
-4 16 1 34 3 9 9 -1 7 -13z"/>
<path fill="#ffffff" stroke="none" d="M1401 3283 c13 -16 12 -17 -3 -4 -17
13 -22 21 -14 21 2 0 10 -8 17 -17z"/>
<path fill="#ffffff" stroke="none" d="M1451 3283 c13 -16 12 -17 -3 -4 -17
13 -22 21 -14 21 2 0 10 -8 17 -17z"/>
<path fill="#ffffff" stroke="none" d="M1551 3283 c2 1 3 0 2 -2 -2 -2 2 -10
8 -18 21 -25 3 -13 -22 14 -13 15 -17 22 -8 15 9 -6 18 -11 20 -9z"/>
<path fill="#ffffff" stroke="none" d="M1820 3296 c0 -2 -8 -10 -17 -17 -16
-13 -17 -12 -4 4 13 16 21 21 21 13z"/>
<path fill="#ffffff" stroke="none" d="M1637 3275 c0 -8 -4 -12 -9 -9 -5 3 -6
10 -3 15 9 13 12 11 12 -6z"/>
<path fill="#ffffff" stroke="none" d="M1430 3265 c1 -5 9 -19 18 -30 17 -20
17 -20 -4 -2 -11 9 -21 24 -21 32 0 16 4 16 7 0z"/>
<path fill="#ffffff" stroke="none" d="M1589 3266 c9 -11 9 -16 -1 -22 -7 -4
-10 -4 -6 1 4 4 3 14 -3 22 -6 7 -9 13 -6 13 2 0 10 -6 16 -14z"/>
<path fill="#ffffff" stroke="none" d="M1727 3273 c-4 -3 -2 -12 4 -20 6 -7 8
-13 4 -13 -5 0 0 -10 11 -22 l19 -23 -22 19 c-13 10 -20 22 -18 27 3 4 1 10
-5 14 -10 6 -5 25 7 25 4 0 3 -3 0 -7z"/>
<path fill="#ffffff" stroke="none" d="M1357 3255 c0 -8 -4 -12 -9 -9 -5 3 -6
10 -3 15 9 13 12 11 12 -6z"/>
<path fill="#ffffff" stroke="none" d="M1541 3253 c13 -16 12 -17 -3 -4 -17
13 -22 21 -14 21 2 0 10 -8 17 -17z"/>
<path fill="#ffffff" stroke="none" d="M1697 3263 c-4 -3 -1 -13 6 -22 11 -14
10 -14 -5 -2 -16 12 -16 31 -1 31 4 0 3 -3 0 -7z"/>
<path fill="#ffffff" stroke="none" d="M1777 3263 c-4 -3 -1 -13 6 -22 11 -14
10 -14 -5 -2 -16 12 -16 31 -1 31 4 0 3 -3 0 -7z"/>
<path fill="#ffffff" stroke="none" d="M1501 3233 c13 -16 12 -17 -3 -4 -17
13 -22 21 -14 21 2 0 10 -8 17 -17z"/>
<path fill="#ffffff" stroke="none" d="M1654 3241 c3 -4 -7 -19 -22 -32 -14
-13 -21 -17 -14 -8 6 9 8 19 4 23 -4 4 0 6 8 4 8 -1 14 3 13 10 -3 14 3 16 11
3z"/>
<path fill="#ffffff" stroke="none" d="M1416 3225 c-3 -23 -22 -39 -31 -26 -3
7 -1 10 6 9 7 -2 14 3 15 10 2 19 4 22 8 22 2 0 3 -7 2 -15z"/>
<path fill="#ffffff" stroke="none" d="M1606 3225 c-1 -8 -5 -17 -8 -21 -5 -4
-4 16 1 34 3 9 9 -1 7 -13z"/>
<path fill="#ffffff" stroke="none" d="M1689 3226 c9 -11 9 -16 -1 -22 -7 -4
-10 -4 -6 1 4 4 3 14 -3 22 -6 7 -9 13 -6 13 2 0 10 -6 16 -14z"/>
<path fill="#ffffff" stroke="none" d="M1771 3223 c13 -16 12 -17 -3 -4 -17
13 -22 21 -14 21 2 0 10 -8 17 -17z"/>
<path fill="#ffffff" stroke="none" d="M1491 3213 c13 -16 12 -17 -3 -4 -17
13 -22 21 -14 21 2 0 10 -8 17 -17z"/>
<path fill="#ffffff" stroke="none" d="M1555 3221 c3 -5 2 -12 -3 -15 -5 -3
-9 1 -9 9 0 17 3 19 12 6z"/>
<path fill="#ffffff" stroke="none" d="M1807 3215 c0 -8 -4 -12 -9 -9 -5 3 -6
10 -3 15 9 13 12 11 12 -6z"/>
<path fill="#ffffff" stroke="none" d="M1526 3186 c0 -19 -3 -33 -7 -31 -7 5
-4 65 4 65 1 0 3 -15 3 -34z"/>
<path fill="#ffffff" stroke="none" d="M1666 3205 c-1 -8 -5 -17 -8 -21 -5 -4
-4 16 1 34 3 9 9 -1 7 -13z"/>
<path fill="#ffffff" stroke="none" d="M1731 3203 c13 -16 12 -17 -3 -4 -17
13 -22 21 -14 21 2 0 10 -8 17 -17z"/>
<path fill="#ffffff" stroke="none" d="M1476 3185 c1 -8 -1 -17 -5 -19 -4 -3
-7 6 -7 19 0 25 8 25 12 0z"/>
<path fill="#ffffff" stroke="none" d="M1577 3195 c0 -8 -4 -12 -9 -9 -5 3 -6
10 -3 15 9 13 12 11 12 -6z"/>
<path fill="#ffffff" stroke="none" d="M1422 3188 c-9 -9 -9 -15 1 -27 11 -14
10 -14 -6 -2 -13 10 -15 17 -6 27 6 8 14 14 17 14 3 0 1 -5 -6 -12z"/>
<path fill="#ffffff" stroke="none" d="M1715 3191 c3 -5 2 -12 -3 -15 -5 -3
-9 1 -9 9 0 17 3 19 12 6z"/>
<path fill="#ffffff" stroke="none" d="M1447 3175 c0 -8 -4 -12 -9 -9 -5 3 -6
10 -3 15 9 13 12 11 12 -6z"/>
<path fill="#ffffff" stroke="none" d="M1561 3173 c13 -16 12 -17 -3 -4 -10 7
-18 15 -18 17 0 8 8 3 21 -13z"/>
<path fill="#ffffff" stroke="none" d="M1637 3175 c0 -8 -4 -12 -9 -9 -5 3 -6
10 -3 15 9 13 12 11 12 -6z"/>
<path fill="#ffffff" stroke="none" d="M1687 3175 c0 -8 -4 -12 -9 -9 -5 3 -6
10 -3 15 9 13 12 11 12 -6z"/>
<path fill="#ffffff" stroke="none" d="M1765 3181 c3 -5 2 -12 -3 -15 -5 -3
-9 1 -9 9 0 17 3 19 12 6z"/>
<path fill="#ffffff" stroke="none" d="M1736 3165 c-1 -8 -5 -17 -8 -21 -5 -4
-4 16 1 34 3 9 9 -1 7 -13z"/>
<path fill="#ffffff" stroke="none" d="M1497 3163 c-4 -3 -1 -13 6 -22 11 -14
10 -14 -5 -2 -16 12 -16 31 -1 31 4 0 3 -3 0 -7z"/>
<path fill="#ffffff" stroke="none" d="M1669 3156 c9 -10 7 -17 -6 -27 -16
-12 -17 -12 -6 2 10 12 10 18 1 27 -7 7 -9 12 -6 12 3 0 11 -6 17 -14z"/>
<path fill="#ffffff" stroke="none" d="M1556 3134 c1 -9 0 -13 -4 -10 -3 4 -7
14 -8 22 -1 9 0 13 4 10 3 -4 7 -14 8 -22z"/>
<path fill="#ffffff" stroke="none" d="M1645 3148 c5 4 5 1 1 -6 -6 -10 -11
-10 -22 -1 -8 6 -14 14 -14 16 0 3 6 0 13 -6 8 -6 18 -7 22 -3z"/>
<path fill="#ffffff" stroke="none" d="M1707 3145 c0 -8 -4 -12 -9 -9 -5 3 -6
10 -3 15 9 13 12 11 12 -6z"/>
<path fill="#ffffff" stroke="none" d="M1479 3136 c9 -10 7 -17 -6 -27 -16
-12 -17 -12 -6 2 10 12 10 18 1 27 -7 7 -9 12 -6 12 3 0 11 -6 17 -14z"/>
<path fill="#ffffff" stroke="none" d="M1586 3124 c1 -9 0 -13 -4 -10 -3 4 -7
14 -8 22 -1 9 0 13 4 10 3 -4 7 -14 8 -22z"/>
<path fill="#ffffff" stroke="none" d="M1533 3126 c3 -8 -2 -20 -11 -27 -14
-11 -15 -11 -5 0 6 7 9 20 6 27 -3 8 -3 14 0 14 3 0 7 -6 10 -14z"/>
<path fill="#ffffff" stroke="none" d="M1616 3115 c1 -8 -1 -17 -5 -19 -4 -3
-7 6 -7 19 0 25 8 25 12 0z"/>
<path fill="#ffffff" stroke="none" d="M1690 3126 c0 -2 -8 -10 -17 -17 -16
-13 -17 -12 -4 4 13 16 21 21 21 13z"/>
<path fill="#ffffff" stroke="none" d="M1510 3117 c0 -2 -10 -12 -22 -23 l-23
-19 19 23 c18 21 26 27 26 19z"/>
<path fill="#ffffff" stroke="none" d="M1644 3111 c3 -5 -2 -15 -12 -22 -15
-12 -16 -12 -5 2 7 9 10 19 6 22 -3 4 -4 7 0 7 3 0 8 -4 11 -9z"/>
<path fill="#ffffff" stroke="none" d="M1710 3117 c0 -2 -10 -12 -22 -23 l-23
-19 19 23 c18 21 26 27 26 19z"/>
<path fill="#ffffff" stroke="none" d="M1564 3101 c3 -5 -1 -14 -8 -20 -10 -9
-16 -9 -21 -1 -4 6 -1 9 7 8 7 -2 12 3 11 10 -3 14 3 16 11 3z"/>
<path fill="#ffffff" stroke="none" d="M1571 3067 l-24 -22 19 27 c10 14 21
24 23 22 3 -3 -6 -15 -18 -27z"/>
<path fill="#ffffff" stroke="none" d="M1660 3086 c0 -2 -8 -10 -17 -17 -16
-13 -17 -12 -4 4 13 16 21 21 21 13z"/>
<path fill="#ffffff" stroke="none" d="M1529 3066 c9 -11 9 -16 -1 -22 -7 -4
-10 -4 -6 1 4 4 3 14 -3 22 -6 7 -9 13 -6 13 2 0 10 -6 16 -14z"/>
<path fill="#ffffff" stroke="none" d="M1616 3054 c1 -9 0 -13 -4 -10 -3 4 -7
14 -8 22 -1 9 0 13 4 10 3 -4 7 -14 8 -22z"/>
<path fill="#ffffff" stroke="none" d="M1697 3065 c0 -8 -4 -12 -9 -9 -5 3 -6
10 -3 15 9 13 12 11 12 -6z"/>
<path fill="#ffffff" stroke="none" d="M1507 3045 c0 -8 -4 -12 -9 -9 -5 3 -6
10 -3 15 9 13 12 11 12 -6z"/>
<path fill="#ffffff" stroke="none" d="M1581 3047 c-6 -8 -9 -16 -6 -19 3 -3
-3 -12 -13 -21 -15 -14 -19 -14 -19 -3 0 8 5 14 11 13 5 -1 10 3 11 8 0 13 14
35 22 35 3 0 0 -6 -6 -13z"/>
<path fill="#ffffff" stroke="none" d="M1677 3035 c0 -8 -4 -12 -9 -9 -5 3 -6
10 -3 15 9 13 12 11 12 -6z"/>
<path fill="#ffffff" stroke="none" d="M1527 3015 c0 -8 -4 -12 -9 -9 -5 3 -6
10 -3 15 9 13 12 11 12 -6z"/>
<path fill="#ffffff" stroke="none" d="M1634 3021 c3 -5 -1 -14 -8 -20 -10 -9
-16 -9 -21 -1 -4 6 -1 9 7 8 7 -2 12 3 11 10 -3 14 3 16 11 3z"/>
<path fill="#ffffff" stroke="none" d="M1594 2994 c3 -8 2 -12 -4 -9 -6 3 -10
10 -10 16 0 14 7 11 14 -7z"/>
<path fill="#ffffff" stroke="none" d="M1574 2981 c3 -5 -2 -15 -12 -22 -15
-12 -16 -12 -5 2 7 9 10 19 6 22 -3 4 -4 7 0 7 3 0 8 -4 11 -9z"/>
<path fill="#ffffff" stroke="none" d="M1624 2971 c3 -4 -4 -17 -17 -27 -22
-19 -22 -19 -4 2 9 11 14 24 10 27 -3 4 -4 7 0 7 3 0 8 -4 11 -9z"/>
<path fill="#ffffff" stroke="none" d="M1600 2966 c0 -2 -8 -10 -17 -17 -16
-13 -17 -12 -4 4 13 16 21 21 21 13z"/>
<path fill="#000000" stroke="none" d="M1572 1583 c-6 -16 -39 -65 -72 -111
-33 -46 -57 -88 -54 -94 4 -6 3 -8 -3 -5 -5 3 -26 -14 -46 -38 -38 -45 -46
-62 -24 -49 9 6 9 5 0 -7 -10 -12 -10 -18 0 -29 10 -12 9 -12 -5 -1 -10 7 -15
17 -12 22 11 18 -8 8 -27 -13 -22 -27 -23 -35 -6 -52 6 -7 27 -32 46 -54 19
-23 39 -39 44 -35 6 3 7 1 3 -5 -8 -13 42 -85 53 -77 10 6 7 67 -4 85 -7 12
-6 13 6 3 17 -13 19 -69 4 -92 -5 -10 -4 -16 3 -19 7 -2 12 -7 12 -12 0 -4 16
-32 36 -61 35 -52 56 -79 39 -50 -5 10 -4 12 4 7 6 -4 9 -12 5 -17 -3 -5 0
-16 6 -25 10 -11 16 -11 26 -3 8 6 12 15 9 19 -2 4 7 18 20 30 24 23 24 24 7
44 -14 17 -14 19 0 8 14 -11 19 -9 32 10 9 12 16 28 16 36 0 8 5 10 13 6 9 -6
9 -4 -1 8 -10 13 -10 18 -1 24 8 4 9 3 5 -4 -4 -7 -4 -12 1 -12 4 0 37 41 73
90 35 48 69 86 75 83 5 -4 7 -3 3 2 -4 4 -3 14 3 22 9 10 3 23 -26 58 -20 25
-41 42 -47 39 -6 -4 -8 -2 -5 3 9 14 -32 65 -45 57 -6 -4 -8 -2 -4 4 8 13 -71
128 -86 124 -5 -1 -7 2 -3 8 7 12 -18 56 -44 78 -10 8 -11 11 -2 6 9 -5 12 -3
7 4 -11 18 -20 14 -34 -15z"/>
<path fill="#ffffff" stroke="none" d="M1587 1555 c0 -8 -4 -12 -9 -9 -5 3 -6
10 -3 15 9 13 12 11 12 -6z"/>
<path fill="#ffffff" stroke="none" d="M1614 1534 c3 -8 2 -12 -4 -9 -6 3 -10
10 -10 16 0 14 7 11 14 -7z"/>
<path fill="#ffffff" stroke="none" d="M1565 1531 c3 -5 2 -12 -3 -15 -5 -3
-9 1 -9 9 0 17 3 19 12 6z"/>
<path fill="#ffffff" stroke="none" d="M1599 1516 c9 -11 9 -16 -1 -22 -7 -4
-10 -4 -6 1 4 4 3 14 -3 22 -6 7 -9 13 -6 13 2 0 10 -6 16 -14z"/>
<path fill="#ffffff" stroke="none" d="M1545 1501 c3 -5 2 -12 -3 -15 -5 -3
-9 1 -9 9 0 17 3 19 12 6z"/>
<path fill="#ffffff" stroke="none" d="M1577 1495 c0 -8 -4 -12 -9 -9 -5 3 -6
10 -3 15 9 13 12 11 12 -6z"/>
<path fill="#ffffff" stroke="none" d="M1637 1473 c0 -9 -4 -10 -14 -2 -7 6
-13 12 -13 14 0 1 6 2 13 2 8 0 14 -6 14 -14z"/>
<path fill="#ffffff" stroke="none" d="M1665 1481 c3 -5 2 -12 -3 -15 -5 -3
-9 1 -9 9 0 17 3 19 12 6z"/>
<path fill="#ffffff" stroke="none" d="M1524 1471 c3 -5 -2 -15 -12 -22 -15
-12 -16 -12 -5 2 7 9 10 19 6 22 -3 4 -4 7 0 7 3 0 8 -4 11 -9z"/>
<path fill="#ffffff" stroke="none" d="M1604 1471 c3 -4 -7 -19 -22 -32 l-27
-24 23 26 c12 14 19 29 15 32 -3 4 -4 7 0 7 3 0 8 -4 11 -9z"/>
<path fill="#ffffff" stroke="none" d="M1580 1466 c0 -2 -8 -10 -17 -17 -16
-13 -17 -12 -4 4 13 16 21 21 21 13z"/>
<path fill="#ffffff" stroke="none" d="M1540 1446 c0 -2 -8 -10 -17 -17 -16
-13 -17 -12 -4 4 13 16 21 21 21 13z"/>
<path fill="#ffffff" stroke="none" d="M1616 1426 c0 -14 -3 -23 -7 -20 -6 3
-6 22 0 42 3 10 7 -2 7 -22z"/>
<path fill="#ffffff" stroke="none" d="M1650 1425 c14 -19 14 -19 -2 -6 -10 7
-18 18 -18 24 0 6 1 8 3 6 1 -2 9 -13 17 -24z"/>
<path fill="#ffffff" stroke="none" d="M1495 1431 c3 -5 2 -12 -3 -15 -5 -3
-9 1 -9 9 0 17 3 19 12 6z"/>
<path fill="#ffffff" stroke="none" d="M1541 1417 c-6 -8 -8 -16 -5 -19 3 -3
1 -9 -4 -12 -6 -3 -9 0 -8 6 2 16 15 38 23 38 3 0 0 -6 -6 -13z"/>
<path fill="#ffffff" stroke="none" d="M1585 1403 c-1 -10 3 -25 9 -33 9 -13
9 -13 -6 -2 -13 10 -16 26 -9 50 4 11 9 -2 6 -15z"/>
<path fill="#ffffff" stroke="none" d="M1703 1407 c4 3 7 4 7 1 0 -2 -12 -15
-27 -29 -20 -17 -23 -18 -11 -3 14 16 15 23 5 34 -10 12 -9 12 4 2 9 -6 19 -9
22 -5z"/>
<path fill="#ffffff" stroke="none" d="M1665 1398 c5 4 5 1 1 -6 -6 -10 -11
-10 -22 -1 -8 6 -14 14 -14 16 0 3 6 0 13 -6 8 -6 18 -7 22 -3z"/>
<path fill="#ffffff" stroke="none" d="M1490 1396 c0 -2 -8 -10 -17 -17 -16
-13 -17 -12 -4 4 13 16 21 21 21 13z"/>
<path fill="#ffffff" stroke="none" d="M1510 1386 c0 -2 -8 -10 -17 -17 -16
-13 -17 -12 -4 4 13 16 21 21 21 13z"/>
<path fill="#ffffff" stroke="none" d="M1551 1377 c-6 -8 -7 -18 -3 -22 4 -5
1 -5 -6 -1 -10 6 -10 11 -1 22 6 8 14 14 16 14 3 0 0 -6 -6 -13z"/>
<path fill="#ffffff" stroke="none" d="M1643 1370 c10 -12 9 -12 -4 -2 -9 6
-18 9 -21 6 -3 -3 -9 -1 -12 4 -9 15 22 8 37 -8z"/>
<path fill="#ffffff" stroke="none" d="M1511 1357 c-6 -8 -9 -16 -6 -19 3 -2
-10 -19 -29 -37 -22 -21 -36 -29 -41 -22 -4 7 -1 10 7 9 7 -2 12 3 11 10 -2 6
3 11 10 10 6 -2 11 3 10 10 -2 6 2 11 9 10 7 -2 12 2 13 7 0 13 14 35 22 35 3
0 0 -6 -6 -13z"/>
<path fill="#ffffff" stroke="none" d="M1574 1361 c3 -5 -2 -15 -12 -22 -15
-12 -16 -12 -5 2 7 9 10 19 6 22 -3 4 -4 7 0 7 3 0 8 -4 11 -9z"/>
<path fill="#ffffff" stroke="none" d="M1697 1355 c0 -8 -4 -12 -9 -9 -5 3 -6
10 -3 15 9 13 12 11 12 -6z"/>
<path fill="#ffffff" stroke="none" d="M1726 1352 c-3 -3 0 -12 6 -21 10 -13
10 -14 -2 -4 -16 15 -23 46 -8 37 5 -3 7 -9 4 -12z"/>
<path fill="#ffffff" stroke="none" d="M1453 1346 c3 -8 -6 -24 -21 -37 l-27
-24 21 25 c12 14 19 31 17 38 -3 6 -3 12 0 12 3 0 7 -6 10 -14z"/>
<path fill="#ffffff" stroke="none" d="M1646 1348 c5 4 -1 -5 -14 -19 -12 -14
-20 -28 -16 -31 3 -3 1 -9 -4 -12 -14 -8 -9 18 6 36 9 11 9 18 -1 28 -10 12
-9 12 4 2 9 -6 20 -8 25 -4z"/>
<path fill="#ffffff" stroke="none" d="M1766 1324 c1 -9 -1 -13 -4 -9 -4 4 -7
10 -7 13 0 4 -4 14 -9 22 -7 12 -6 13 4 3 8 -7 15 -20 16 -29z"/>
<path fill="#ffffff" stroke="none" d="M1604 1341 c3 -5 -1 -14 -8 -20 -10 -9
-16 -9 -21 -1 -4 6 -1 9 7 8 7 -2 12 3 11 10 -3 14 3 16 11 3z"/>
<path fill="#ffffff" stroke="none" d="M1679 1336 c9 -11 9 -16 -1 -22 -7 -4
-10 -4 -6 1 4 4 3 14 -3 22 -6 7 -9 13 -6 13 2 0 10 -6 16 -14z"/>
<path fill="#ffffff" stroke="none" d="M1430 1336 c0 -2 -8 -10 -17 -17 -16
-13 -17 -12 -4 4 13 16 21 21 21 13z"/>
<path fill="#ffffff" stroke="none" d="M1657 1323 c-4 -3 -1 -13 6 -22 11 -14
10 -14 -5 -2 -16 12 -16 31 -1 31 4 0 3 -3 0 -7z"/>
<path fill="#ffffff" stroke="none" d="M1719 1316 c9 -11 9 -16 -1 -22 -7 -4
-10 -4 -6 1 4 4 3 14 -3 22 -6 7 -9 13 -6 13 2 0 10 -6 16 -14z"/>
<path fill="#ffffff" stroke="none" d="M1524 1304 c3 -8 2 -12 -4 -9 -6 3 -10
10 -10 16 0 14 7 11 14 -7z"/>
<path fill="#ffffff" stroke="none" d="M1572 1302 c14 -14 20 -44 7 -36 -5 3
-7 9 -4 14 6 9 -19 32 -27 24 -3 -3 -9 -1 -12 4 -8 14 21 9 36 -6z"/>
<path fill="#ffffff" stroke="none" d="M1697 1295 c0 -8 -4 -12 -9 -9 -5 3 -6
10 -3 15 9 13 12 11 12 -6z"/>
<path fill="#ffffff" stroke="none" d="M1506 1279 c1 -5 3 -11 4 -14 1 -3 3
-13 4 -22 2 -26 16 -44 28 -37 7 5 8 2 4 -5 -11 -17 -45 14 -41 37 1 9 0 22
-4 27 -8 15 -11 38 -3 30 4 -4 8 -11 8 -16z"/>
<path fill="#ffffff" stroke="none" d="M1651 1283 c13 -16 12 -17 -3 -4 -10 7
-18 15 -18 17 0 8 8 3 21 -13z"/>
<path fill="#ffffff" stroke="none" d="M1795 1292 c-3 -3 0 -11 6 -19 17 -20
5 -16 -14 5 -15 16 -15 19 -2 19 8 0 13 -3 10 -5z"/>
<path fill="#ffffff" stroke="none" d="M1745 1281 c3 -5 2 -12 -3 -15 -5 -3
-9 1 -9 9 0 17 3 19 12 6z"/>
<path fill="#ffffff" stroke="none" d="M1397 1265 c0 -8 -4 -12 -9 -9 -5 3 -6
10 -3 15 9 13 12 11 12 -6z"/>
<path fill="#ffffff" stroke="none" d="M1426 1245 c0 -14 -7 -32 -16 -40 -14
-13 -17 -13 -17 -1 0 8 5 14 11 13 6 -1 11 12 10 30 -1 37 10 35 12 -2z"/>
<path fill="#ffffff" stroke="none" d="M1477 1273 c-4 -3 -1 -13 6 -22 11 -14
10 -14 -5 -2 -16 12 -16 31 -1 31 4 0 3 -3 0 -7z"/>
<path fill="#ffffff" stroke="none" d="M1541 1263 c13 -16 12 -17 -3 -4 -17
13 -22 21 -14 21 2 0 10 -8 17 -17z"/>
<path fill="#ffffff" stroke="none" d="M1641 1263 c13 -16 12 -17 -3 -4 -17
13 -22 21 -14 21 2 0 10 -8 17 -17z"/>
<path fill="#ffffff" stroke="none" d="M1717 1273 c-4 -3 -1 -13 6 -22 11 -14
10 -14 -5 -2 -16 12 -16 31 -1 31 4 0 3 -3 0 -7z"/>
<path fill="#ffffff" stroke="none" d="M1779 1266 c9 -11 9 -16 -1 -22 -7 -4
-10 -4 -6 1 4 4 3 14 -3 22 -6 7 -9 13 -6 13 2 0 10 -6 16 -14z"/>
<path fill="#ffffff" stroke="none" d="M1619 1257 c8 -11 6 -18 -12 -33 -22
-19 -22 -19 -5 2 14 16 15 23 6 32 -7 7 -9 12 -6 12 3 0 11 -6 17 -13z"/>
<path fill="#ffffff" stroke="none" d="M1455 1251 c3 -5 2 -12 -3 -15 -5 -3
-9 1 -9 9 0 17 3 19 12 6z"/>
<path fill="#ffffff" stroke="none" d="M1595 1248 c5 4 5 1 1 -6 -6 -10 -11
-10 -22 -1 -8 6 -14 14 -14 16 0 3 6 0 13 -6 8 -6 18 -7 22 -3z"/>
<path fill="#ffffff" stroke="none" d="M1675 1251 c3 -5 2 -12 -3 -15 -5 -3
-9 1 -9 9 0 17 3 19 12 6z"/>
<path fill="#ffffff" stroke="none" d="M1757 1245 c0 -8 -4 -12 -9 -9 -5 3 -6
10 -3 15 9 13 12 11 12 -6z"/>
<path fill="#ffffff" stroke="none" d="M1834 1251 c3 -5 -2 -15 -12 -22 -15
-12 -16 -12 -5 2 7 9 10 19 6 22 -3 4 -4 7 0 7 3 0 8 -4 11 -9z"/>
<path fill="#ffffff" stroke="none" d="M1711 1233 c13 -16 12 -17 -3 -4 -17
13 -22 21 -14 21 2 0 10 -8 17 -17z"/>
<path fill="#ffffff" stroke="none" d="M1341 1223 c13 -16 12 -17 -3 -4 -17
13 -22 21 -14 21 2 0 10 -8 17 -17z"/>
<path fill="#ffffff" stroke="none" d="M1571 1223 c8 -8 8 -13 0 -18 -7 -3
-10 -1 -9 6 2 7 -2 13 -9 14 -6 0 -14 3 -18 7 -4 3 0 5 9 4 9 -1 21 -7 27 -13z"/>
<path fill="#ffffff" stroke="none" d="M1646 1225 c-1 -8 -5 -17 -8 -21 -5 -4
-4 16 1 34 3 9 9 -1 7 -13z"/>
<path fill="#ffffff" stroke="none" d="M1860 1237 c0 -2 -10 -12 -22 -23 l-23
-19 19 23 c18 21 26 27 26 19z"/>
<path fill="#ffffff" stroke="none" d="M1376 1205 c-1 -13 -4 -27 -7 -30 -5
-4 -4 41 0 53 4 10 8 -2 7 -23z"/>
<path fill="#ffffff" stroke="none" d="M1486 1214 c-1 -8 -4 -15 -7 -16 -2 -2
-3 -1 -2 1 2 2 -2 9 -7 16 -7 8 -5 12 4 12 8 0 13 -6 12 -13z"/>
<path fill="#ffffff" stroke="none" d="M1701 1213 c13 -16 12 -17 -3 -4 -17
13 -22 21 -14 21 2 0 10 -8 17 -17z"/>
<path fill="#ffffff" stroke="none" d="M1777 1223 c-4 -3 -1 -13 6 -22 11 -14
10 -14 -5 -2 -16 12 -16 31 -1 31 4 0 3 -3 0 -7z"/>
<path fill="#ffffff" stroke="none" d="M1456 1194 c1 -9 0 -13 -4 -10 -3 4 -7
14 -8 22 -1 9 0 13 4 10 3 -4 7 -14 8 -22z"/>
<path fill="#ffffff" stroke="none" d="M1681 1203 c13 -16 12 -17 -3 -4 -17
13 -22 21 -14 21 2 0 10 -8 17 -17z"/>
<path fill="#ffffff" stroke="none" d="M1617 1195 c0 -8 -4 -12 -9 -9 -5 3 -6
10 -3 15 9 13 12 11 12 -6z"/>
<path fill="#ffffff" stroke="none" d="M1727 1199 c-1 -3 4 -13 11 -22 9 -10
10 -17 2 -22 -6 -4 -10 -3 -9 2 1 4 0 10 -1 13 -4 11 -8 42 -5 38 2 -1 3 -6 2
-9z"/>
<path fill="#ffffff" stroke="none" d="M1521 1183 c12 -16 12 -17 -2 -6 -9 7
-20 9 -24 5 -5 -4 -5 -1 -1 6 9 16 11 15 27 -5z"/>
<path fill="#ffffff" stroke="none" d="M1589 1193 c-1 -5 0 -10 1 -13 7 -19 7
-41 0 -45 -5 -3 -7 3 -5 15 2 11 -1 22 -6 25 -5 4 -7 11 -4 16 7 11 15 12 14
2z"/>
<path fill="#ffffff" stroke="none" d="M1670 1165 c-5 -6 -7 -14 -4 -17 3 -3
1 -9 -4 -12 -11 -7 -10 19 1 30 4 4 1 14 -6 23 -11 14 -10 14 6 2 12 -9 14
-17 7 -26z"/>
<path fill="#ffffff" stroke="none" d="M1769 1186 c9 -11 9 -16 -1 -22 -7 -4
-10 -4 -6 1 4 4 3 14 -3 22 -6 7 -9 13 -6 13 2 0 10 -6 16 -14z"/>
<path fill="#ffffff" stroke="none" d="M1557 1183 c-4 -3 -1 -13 6 -22 11 -14
10 -14 -5 -2 -16 12 -16 31 -1 31 4 0 3 -3 0 -7z"/>
<path fill="#ffffff" stroke="none" d="M1644 1181 c3 -4 -3 -16 -13 -25 -14
-13 -18 -14 -18 -2 0 8 5 14 11 13 6 -1 10 4 9 11 -3 14 3 16 11 3z"/>
<path fill="#ffffff" stroke="none" d="M1807 1175 c0 -8 -4 -12 -9 -9 -5 3 -6
10 -3 15 9 13 12 11 12 -6z"/>
<path fill="#ffffff" stroke="none" d="M1406 1162 c-3 -3 0 -12 6 -21 10 -13
10 -14 -2 -4 -16 15 -23 46 -8 37 5 -3 7 -9 4 -12z"/>
<path fill="#ffffff" stroke="none" d="M1435 1171 c-3 -5 -1 -12 4 -15 5 -4 8
-14 6 -24 -1 -9 3 -24 9 -32 9 -13 9 -13 -6 -2 -9 7 -15 22 -13 32 2 11 -1 22
-6 25 -9 6 -3 25 7 25 3 0 3 -4 -1 -9z"/>
<path fill="#ffffff" stroke="none" d="M1493 1145 c4 3 5 2 2 -2 -3 -3 1 -13
7 -22 7 -9 -2 -3 -20 13 -18 17 -32 32 -32 34 0 3 8 -2 18 -11 10 -10 22 -15
25 -12z"/>
<path fill="#ffffff" stroke="none" d="M1716 1155 c-1 -8 -5 -17 -8 -21 -5 -4
-4 16 1 34 3 9 9 -1 7 -13z"/>
<path fill="#ffffff" stroke="none" d="M1544 1151 c3 -5 -1 -14 -8 -20 -10 -9
-16 -9 -21 -1 -4 6 -1 9 7 8 7 -2 12 3 11 10 -3 14 3 16 11 3z"/>
<path fill="#ffffff" stroke="none" d="M1786 1145 c-3 -23 -22 -39 -31 -26 -3
7 -1 10 6 9 7 -2 14 3 15 10 2 19 4 22 8 22 2 0 3 -7 2 -15z"/>
<path fill="#ffffff" stroke="none" d="M1570 1136 c0 -2 -8 -10 -17 -17 -16
-13 -17 -12 -4 4 13 16 21 21 21 13z"/>
<path fill="#ffffff" stroke="none" d="M1637 1125 c0 -8 -4 -12 -9 -9 -5 3 -6
10 -3 15 9 13 12 11 12 -6z"/>
<path fill="#ffffff" stroke="none" d="M1687 1125 c0 -8 -4 -12 -9 -9 -5 3 -6
10 -3 15 9 13 12 11 12 -6z"/>
<path fill="#ffffff" stroke="none" d="M1737 1133 c-4 -3 0 -14 9 -24 12 -13
12 -19 3 -25 -7 -4 -10 -3 -6 3 4 6 0 16 -8 23 -14 11 -12 30 2 30 4 0 3 -3 0
-7z"/>
<path fill="#ffffff" stroke="none" d="M1605 1121 c-3 -5 -1 -13 5 -16 8 -5 8
-11 1 -19 -6 -7 -9 -15 -6 -18 3 -3 -1 -11 -9 -17 -10 -8 -16 -9 -21 -1 -4 6
-1 9 6 8 7 -2 13 2 14 7 0 6 4 15 8 22 4 6 3 14 -3 18 -10 6 -5 25 6 25 3 0 3
-4 -1 -9z"/>
<path fill="#ffffff" stroke="none" d="M1580 1116 c0 -2 -8 -10 -17 -17 -16
-13 -17 -12 -4 4 13 16 21 21 21 13z"/>
<path fill="#ffffff" stroke="none" d="M1664 1111 c3 -5 -1 -14 -8 -20 -10 -9
-16 -9 -21 -1 -4 6 -1 9 7 8 7 -2 12 3 11 10 -3 14 3 16 11 3z"/>
<path fill="#ffffff" stroke="none" d="M1715 1111 c3 -5 2 -12 -3 -15 -5 -3
-9 1 -9 9 0 17 3 19 12 6z"/>
<path fill="#ffffff" stroke="none" d="M1521 1083 c13 -16 12 -17 -3 -4 -17
13 -22 21 -14 21 2 0 10 -8 17 -17z"/>
<path fill="#ffffff" stroke="none" d="M1590 1097 c0 -2 -9 -12 -19 -21 -14
-13 -21 -14 -27 -5 -4 7 -3 10 3 6 6 -4 16 0 23 8 12 14 20 19 20 12z"/>
<path fill="#ffffff" stroke="none" d="M1690 1097 c0 -2 -10 -12 -22 -23 l-23
-19 19 23 c18 21 26 27 26 19z"/>
<path fill="#ffffff" stroke="none" d="M1730 1087 c0 -2 -11 -14 -24 -26 -16
-15 -26 -19 -31 -12 -4 7 -1 10 7 9 7 -2 12 3 10 10 -1 8 2 11 7 8 5 -4 12 -2
16 4 6 10 15 14 15 7z"/>
<path fill="#ffffff" stroke="none" d="M1533 1056 c3 3 4 -1 3 -10 -1 -8 -6
-19 -12 -23 -5 -4 -6 -4 -1 1 4 5 -1 19 -10 30 -14 15 -14 18 -2 8 9 -6 18 -9
22 -6z"/>
<path fill="#ffffff" stroke="none" d="M1564 1041 c3 -4 -4 -17 -17 -27 -22
-19 -22 -19 -4 2 9 11 14 24 10 27 -3 4 -4 7 0 7 3 0 8 -4 11 -9z"/>
<path fill="#ffffff" stroke="none" d="M1616 1035 c-1 -8 -5 -17 -8 -21 -5 -4
-4 16 1 34 3 9 9 -1 7 -13z"/>
<path fill="#ffffff" stroke="none" d="M1656 1003 c3 -18 -22 -37 -31 -23 -4
6 -1 9 5 8 15 -4 22 29 9 38 -5 3 -9 11 -9 17 1 14 23 -21 26 -40z"/>
<path fill="#ffffff" stroke="none" d="M1671 1033 c13 -16 12 -17 -3 -4 -17
13 -22 21 -14 21 2 0 10 -8 17 -17z"/>
<path fill="#ffffff" stroke="none" d="M1507 1033 c-4 -3 -1 -13 6 -22 11 -14
10 -14 -5 -2 -16 12 -16 31 -1 31 4 0 3 -3 0 -7z"/>
<path fill="#ffffff" stroke="none" d="M1586 1015 c-1 -8 -5 -17 -8 -21 -5 -4
-4 16 1 34 3 9 9 -1 7 -13z"/>
<path fill="#ffffff" stroke="none" d="M1557 985 c0 -8 -4 -12 -9 -9 -5 3 -6
10 -3 15 9 13 12 11 12 -6z"/>
<path fill="#ffffff" stroke="none" d="M1607 993 c-4 -3 -1 -13 6 -22 11 -14
10 -14 -5 -2 -16 12 -16 31 -1 31 4 0 3 -3 0 -7z"/>
<path fill="#ffffff" stroke="none" d="M1530 984 c0 -8 -19 -13 -24 -6 -3 5 1
9 9 9 8 0 15 -2 15 -3z"/>
<path fill="#ffffff" stroke="none" d="M1680 986 c0 -2 -8 -10 -17 -17 -16
-13 -17 -12 -4 4 13 16 21 21 21 13z"/>
<path fill="#ffffff" stroke="none" d="M1589 966 c9 -10 7 -17 -6 -27 -16 -12
-17 -12 -6 2 10 12 10 18 1 27 -7 7 -9 12 -6 12 3 0 11 -6 17 -14z"/>
<path fill="#ffffff" stroke="none" d="M1563 957 c4 3 7 4 7 1 0 -3 -8 -12
-17 -19 -10 -7 -15 -9 -11 -5 4 5 2 16 -5 25 -10 14 -10 14 4 4 9 -7 19 -10
22 -6z"/>
<path fill="#ffffff" stroke="none" d="M1624 941 c3 -5 -1 -14 -8 -20 -10 -9
-16 -9 -21 -1 -4 6 -1 9 7 8 7 -2 12 3 11 10 -3 14 3 16 11 3z"/>
<path fill="#ffffff" stroke="none" d="M1650 927 c0 -2 -10 -12 -22 -23 l-23
-19 19 23 c18 21 26 27 26 19z"/>
<path fill="#ffffff" stroke="none" d="M1591 903 c13 -16 12 -17 -3 -4 -17 13
-22 21 -14 21 2 0 10 -8 17 -17z"/>
<path fill="#ffffff" stroke="none" d="M1605 871 c3 -5 2 -12 -3 -15 -5 -3 -9
1 -9 9 0 17 3 19 12 6z"/>
<path fill="#000000" stroke="none" d="M2815 1120 c-3 -5 -3 -15 0 -20 4 -6 2
-9 -3 -8 -5 2 -30 -25 -55 -59 l-46 -62 26 -31 c25 -30 26 -30 47 -13 21 18
21 18 3 -4 -18 -21 -18 -22 9 -62 28 -43 44 -52 44 -25 0 8 5 12 10 9 6 -4 9
-3 8 2 -3 11 29 69 36 66 15 -7 17 -2 7 11 -9 11 -9 16 0 22 8 4 9 3 5 -4 -4
-7 -2 -12 3 -12 6 0 11 10 11 23 0 16 3 18 9 9 7 -11 9 -11 14 2 7 18 -8 30
-25 20 -8 -5 -7 0 2 11 14 17 13 18 -3 12 -12 -4 -16 -3 -11 4 3 6 -3 20 -13
32 -11 12 -23 30 -27 41 -3 10 -12 16 -19 13 -8 -3 -14 1 -14 9 0 7 5 10 10 7
6 -3 7 -1 3 5 -9 15 -23 15 -31 2z"/>
<path fill="#ffffff" stroke="none" d="M2857 1075 c0 -8 -4 -12 -9 -9 -5 3 -6
10 -3 15 9 13 12 11 12 -6z"/>
<path fill="#ffffff" stroke="none" d="M2822 1066 c-4 -6 -7 -14 -7 -18 0 -19
-11 -14 -11 6 0 12 6 23 13 23 6 0 9 -5 5 -11z"/>
<path fill="#ffffff" stroke="none" d="M2875 1041 c3 -5 2 -12 -3 -15 -5 -3
-9 1 -9 9 0 17 3 19 12 6z"/>
<path fill="#ffffff" stroke="none" d="M2827 1023 c-4 -3 -1 -13 6 -22 11 -14
10 -14 -5 -2 -16 12 -16 31 -1 31 4 0 3 -3 0 -7z"/>
<path fill="#ffffff" stroke="none" d="M2866 985 c-1 -13 -4 -27 -7 -30 -5 -4
-4 41 0 53 4 10 8 -2 7 -23z"/>
<path fill="#ffffff" stroke="none" d="M2764 991 c3 -4 -3 -16 -13 -25 -14
-13 -18 -14 -18 -2 0 8 5 14 11 13 6 -1 10 4 9 11 -3 14 3 16 11 3z"/>
<path fill="#ffffff" stroke="none" d="M2816 975 c1 -8 -1 -17 -5 -19 -4 -3
-7 6 -7 19 0 25 8 25 12 0z"/>
<path fill="#ffffff" stroke="none" d="M2895 991 c3 -5 2 -12 -3 -15 -5 -3 -9
1 -9 9 0 17 3 19 12 6z"/>
<path fill="#ffffff" stroke="none" d="M2786 965 c-3 -23 -22 -39 -31 -26 -3
7 -1 10 6 9 7 -2 14 3 15 10 2 19 4 22 8 22 2 0 3 -7 2 -15z"/>
<path fill="#ffffff" stroke="none" d="M2840 956 c0 -2 -8 -10 -17 -17 -16
-13 -17 -12 -4 4 13 16 21 21 21 13z"/>
<path fill="#ffffff" stroke="none" d="M2881 947 c-6 -8 -7 -18 -3 -22 4 -5 1
-5 -6 -1 -10 6 -10 11 -1 22 6 8 14 14 16 14 3 0 0 -6 -6 -13z"/>
<path fill="#ffffff" stroke="none" d="M2842 928 c-9 -9 -8 -16 3 -28 14 -15
13 -19 -7 -36 l-23 -19 18 21 c16 19 16 22 2 34 -12 10 -13 16 -4 26 6 8 14
14 17 14 3 0 1 -5 -6 -12z"/>
<path fill="#ffffff" stroke="none" d="M2806 905 c-1 -8 -5 -17 -8 -21 -5 -4
-4 16 1 34 3 9 9 -1 7 -13z"/>
<path fill="#ffffff" stroke="none" d="M2830 886 c0 -2 -8 -10 -17 -17 -16
-13 -17 -12 -4 4 13 16 21 21 21 13z"/>
<path fill="#000000" stroke="none" d="M2702 621 c-24 -64 -24 -67 -13 -51 6
8 11 11 11 6 0 -5 9 -1 21 10 12 10 23 18 25 17 2 -2 9 -3 15 -3 8 0 8 4 0 14
-9 11 -9 16 0 22 7 4 9 3 6 -3 -4 -6 0 -16 7 -22 9 -8 16 -8 20 -2 4 5 2 12
-4 16 -6 4 -8 10 -5 15 3 5 -12 9 -34 8 -34 0 -41 -4 -49 -27z"/>
<path fill="#ffffff" stroke="none" d="M2724 611 c3 -5 -2 -15 -12 -22 -15
-12 -16 -12 -5 2 7 9 10 19 6 22 -3 4 -4 7 0 7 3 0 8 -4 11 -9z"/>
<path fill="#000000" stroke="none" d="M2795 641 c-3 -5 -1 -12 5 -16 6 -4 8
-11 5 -16 -4 -5 1 -9 10 -9 10 0 14 5 9 13 -6 10 -4 10 7 0 17 -17 54 -16 68
0 6 8 9 16 6 19 -3 2 1 5 9 5 17 0 0 -24 -65 -95 -23 -24 -37 -47 -33 -54 4
-6 3 -8 -4 -4 -20 12 -98 -104 -88 -130 3 -9 1 -12 -4 -9 -14 9 -13 -58 2 -90
13 -30 28 -33 23 -5 -2 11 0 18 5 15 5 -3 7 -17 4 -31 -3 -15 -1 -23 5 -20 5
3 11 1 13 -4 5 -16 41 -19 57 -6 11 8 13 8 7 -2 -4 -7 -1 -12 9 -12 10 0 13 5
9 13 -6 9 -3 8 8 -1 14 -11 20 -10 36 6 11 11 24 17 28 14 5 -4 2 1 -5 11 -12
15 -12 17 2 12 18 -8 23 -1 31 45 l7 35 -16 -27 c-8 -15 -24 -32 -35 -38 -12
-6 -17 -18 -15 -31 3 -12 1 -18 -3 -15 -4 4 -7 13 -7 19 0 7 -9 11 -19 9 -27
-5 -75 18 -88 42 -19 34 -20 67 -3 113 9 23 14 47 10 53 -4 6 1 7 11 3 11 -4
15 -2 11 4 -4 6 0 13 8 17 8 3 15 13 15 21 0 9 5 13 10 10 6 -3 10 -3 10 2 0
14 119 131 126 124 4 -3 4 0 0 7 -8 13 -117 18 -129 5 -4 -3 -1 -13 6 -22 11
-14 10 -14 -5 -2 -10 7 -15 17 -12 22 3 5 -4 9 -15 9 -11 0 -22 -4 -26 -9z"/>
<path fill="#ffffff" stroke="none" d="M2881 617 c-10 -9 -11 -8 -5 6 3 10 9
15 12 12 3 -3 0 -11 -7 -18z"/>
<path fill="#ffffff" stroke="none" d="M2941 617 c-10 -9 -11 -8 -5 6 3 10 9
15 12 12 3 -3 0 -11 -7 -18z"/>
<path fill="#ffffff" stroke="none" d="M2747 313 c0 -9 -4 -10 -14 -2 -7 6
-13 12 -13 14 0 1 6 2 13 2 8 0 14 -6 14 -14z"/>
<path fill="#ffffff" stroke="none" d="M2735 291 c3 -5 2 -12 -3 -15 -5 -3 -9
1 -9 9 0 17 3 19 12 6z"/>
<path fill="#ffffff" stroke="none" d="M2785 251 c3 -5 2 -12 -3 -15 -5 -3 -9
1 -9 9 0 17 3 19 12 6z"/>
<path fill="#ffffff" stroke="none" d="M2819 236 c9 -11 9 -16 -1 -22 -7 -4
-10 -4 -6 1 4 4 3 14 -3 22 -6 7 -9 13 -6 13 2 0 10 -6 16 -14z"/>
<path fill="#ffffff" stroke="none" d="M2797 215 c0 -8 -4 -12 -9 -9 -5 3 -6
10 -3 15 9 13 12 11 12 -6z"/>
</g>
</svg>
