<?xml version="1.0" standalone="no"?>
<!DOCTYPE svg PUBLIC "-//W3C//DTD SVG 20010904//EN"
 "http://www.w3.org/TR/2001/REC-SVG-20010904/DTD/svg10.dtd">
<svg version="1.0" xmlns="http://www.w3.org/2000/svg"
 width="318.000000pt" height="451.000000pt" viewBox="0 0 318.000000 451.000000"
 preserveAspectRatio="xMidYMid meet">
<metadata>
Created by potrace 1.16, written by Peter Selinger 2001-2019
</metadata>
<g transform="translate(0.000000,451.000000) scale(0.100000,-0.100000)"
fill="#000000" stroke="none">
<path fill="#000000" stroke="none" d="M91 4492 c-19 -9 -44 -30 -55 -45 l-21
-28 -3 -2150 c-2 -2139 -2 -2150 18 -2189 42 -81 -58 -75 1150 -76 778 -1
1079 2 1089 10 11 8 13 8 8 -1 -5 -8 91 -10 386 -8 215 1 402 5 414 8 53 14
92 54 77 79 -5 7 -3 8 6 3 10 -6 12 -3 8 13 -4 12 -3 20 2 17 4 -2 7 958 7
2135 0 1301 -3 2140 -9 2140 -5 0 -7 4 -4 8 10 16 -35 73 -69 88 -29 12 -247
14 -1502 14 -1378 0 -1470 -1 -1502 -18z"/>
<path fill="#ffffff" stroke="none" d="M769 2635 c7 -8 -21 -25 -31 -19 -4 3
-8 -1 -8 -8 1 -17 69 -127 70 -110 0 6 -1 13 -2 15 -2 2 5 11 15 21 9 10 14
22 11 28 -5 7 -2 8 6 3 10 -6 12 -3 8 13 -4 12 -2 20 2 17 5 -3 11 -1 14 3 3
5 -6 14 -21 21 -14 6 -24 13 -22 15 2 2 30 6 62 8 42 3 57 1 57 -9 0 -7 -6
-13 -14 -13 -20 0 -59 -57 -50 -72 4 -7 4 -10 -1 -6 -11 11 -38 -29 -29 -44 4
-6 3 -8 -4 -4 -13 8 -24 -25 -26 -77 -2 -32 2 -39 21 -43 13 -4 23 -10 23 -15
0 -12 -137 -11 -145 1 -3 6 1 10 10 10 9 0 13 4 10 10 -3 6 1 7 9 4 12 -5 16
1 17 27 1 19 1 40 0 47 -3 22 -78 132 -85 124 -4 -3 -4 1 -1 10 4 11 0 18 -13
22 -11 4 -22 12 -25 19 -3 9 14 11 66 10 38 -1 72 -5 76 -8z"/>
<path fill="#ffffff" stroke="none" d="M1753 2633 c-2 -6 -13 -13 -24 -16 -17
-5 -19 -15 -19 -120 l0 -115 35 -4 c19 -2 35 -1 35 4 0 4 6 5 14 2 16 -6 51
40 42 55 -3 5 2 8 11 7 14 -2 18 -12 17 -47 l-1 -44 -119 0 c-65 0 -120 3
-121 8 -2 4 -1 6 0 5 2 -2 11 3 20 10 13 11 16 34 15 123 -1 101 -3 109 -22
116 -12 4 -25 6 -30 4 -5 -1 -5 4 1 11 15 17 153 19 146 1z"/>
<path fill="#ffffff" stroke="none" d="M1067 2549 c4 3 5 2 1 -3 -9 -11 11
-38 22 -31 5 3 6 -5 2 -17 -4 -16 -2 -19 8 -13 9 6 11 4 5 -6 -5 -7 -9 -25
-10 -40 -2 -38 -29 -75 -64 -87 -17 -6 -31 -8 -31 -5 0 3 -8 -1 -17 -8 -11
-10 -14 -10 -9 -1 4 7 1 12 -9 12 -10 0 -29 13 -44 29 -47 50 -26 152 34 167
14 3 22 10 20 15 -3 4 14 2 39 -5 25 -8 49 -11 53 -7z"/>
<path fill="#ffffff" stroke="none" d="M1432 2542 c-3 -17 -1 -23 7 -18 6 4 8
13 5 19 -4 7 -3 9 1 4 5 -4 19 0 33 9 13 9 21 11 18 5 -4 -6 -1 -11 7 -11 22
0 28 -27 11 -44 -12 -12 -19 -13 -34 -4 -30 19 -45 -3 -44 -64 3 -70 2 -68 15
-65 6 1 14 -4 16 -10 3 -10 -11 -13 -51 -13 -53 0 -73 11 -41 23 19 8 18 136
-1 144 -7 2 -15 11 -18 18 -3 8 0 12 7 9 7 -2 21 2 31 9 29 21 43 17 38 -11z"/>
<path fill="#ffffff" stroke="none" d="M2035 2554 c8 3 14 0 12 -7 -1 -7 4
-11 11 -9 6 1 11 -4 10 -10 -2 -7 2 -12 8 -11 8 1 10 -6 6 -19 -3 -14 -1 -19
6 -14 7 4 8 -2 3 -21 -4 -16 -7 -38 -6 -50 1 -12 -2 -20 -7 -17 -4 3 -8 1 -8
-5 0 -14 -39 -39 -70 -44 -34 -6 -86 16 -100 43 -17 32 -19 86 -5 114 7 13 11
27 9 30 -2 3 -1 4 3 1 3 -3 15 3 26 12 11 10 17 13 13 6 -4 -8 2 -8 21 2 19
10 31 11 40 3 7 -5 19 -8 28 -4z"/>
<path fill="#ffffff" stroke="none" d="M2497 2537 c7 -5 16 -6 20 -4 5 3 10
-2 11 -11 1 -9 4 -33 8 -52 3 -19 1 -47 -5 -62 -26 -70 -138 -85 -171 -23 -7
13 -16 23 -19 21 -8 -5 -5 52 4 86 7 27 48 61 72 61 7 0 13 4 13 8 0 9 45 -8
67 -24z"/>
<path fill="#ffffff" stroke="none" d="M1320 2545 c-4 -5 -7 -42 -6 -82 1 -59
5 -75 21 -87 11 -9 18 -16 15 -16 -3 0 -22 -3 -42 -6 -26 -4 -38 -2 -38 6 0 9
-7 8 -22 -2 -28 -18 -77 -13 -94 10 -6 9 -11 33 -10 54 0 21 -3 38 -9 39 -5 0
-5 3 1 5 15 6 5 54 -12 61 -28 10 -13 23 26 23 l40 0 0 -76 c0 -54 3 -73 12
-68 7 5 8 3 3 -6 -10 -15 11 -29 35 -23 21 6 32 47 16 64 -8 9 -8 10 2 5 6 -4
12 -3 12 1 0 5 -6 15 -12 22 -8 8 -8 11 -2 8 8 -5 11 3 10 22 0 16 -4 27 -8
25 -4 -3 -11 4 -17 14 -8 16 -5 18 39 17 31 0 45 -4 40 -10z"/>
<path fill="#ffffff" stroke="none" d="M2250 2547 c0 -6 5 -6 13 0 6 5 23 7
37 4 31 -7 33 -36 3 -35 -19 0 -21 -4 -16 -27 7 -38 -34 -77 -80 -76 -17 1
-32 -3 -32 -9 0 -5 3 -8 8 -6 4 1 7 -2 7 -6 0 -5 7 -9 15 -9 8 0 15 5 15 11 0
6 4 5 9 -3 6 -8 19 -12 35 -9 15 3 25 3 22 0 -3 -2 1 -11 9 -19 21 -20 19 -59
-4 -82 -11 -11 -16 -22 -13 -26 4 -3 -2 -3 -12 1 -12 4 -17 4 -13 -2 10 -18
-104 -6 -124 12 -18 16 -25 79 -8 68 17 -10 18 18 2 43 -12 19 -14 25 -4 18
11 -6 13 -4 8 9 -4 9 -3 14 2 11 5 -3 12 -1 16 5 3 5 2 10 -3 10 -5 0 -13 10
-19 23 -13 29 2 87 23 87 8 0 13 4 10 8 -2 4 18 8 45 9 27 0 49 -4 49 -10z"/>
<path fill="#ffffff" stroke="none" d="M1429 2108 c19 -27 38 -45 45 -41 6 3
8 3 4 -2 -11 -11 11 -47 24 -39 7 4 8 3 4 -5 -4 -6 4 -25 18 -42 23 -27 31
-29 27 -7 0 4 -1 39 -2 78 -1 56 -5 73 -19 80 -10 5 -20 6 -24 2 -4 -3 -4 0
-1 9 4 11 21 15 64 15 43 0 57 -4 54 -13 -3 -7 -14 -13 -24 -13 -20 0 -19 13
-22 -212 -1 -46 -4 -58 -17 -58 -8 0 -21 9 -28 20 -7 12 -18 18 -24 14 -7 -4
-8 -3 -4 4 8 14 -72 124 -85 116 -5 -3 -6 1 -4 8 3 8 -3 23 -13 33 -10 11 -24
29 -30 40 -9 16 -11 -3 -12 -92 0 -117 1 -120 42 -114 4 0 5 -6 2 -14 -4 -10
-17 -13 -42 -11 -21 2 -47 -1 -60 -5 -20 -8 -21 -7 -13 10 6 10 8 21 5 24 -3
3 3 3 15 0 16 -4 21 -1 22 16 3 82 1 129 -6 141 -5 8 -4 11 3 6 9 -5 10 13 3
65 -1 4 -10 9 -22 12 -35 9 -14 22 38 23 47 1 50 -1 82 -48z"/>
<path fill="#ffffff" stroke="none" d="M1173 2075 c9 2 15 -1 11 -6 -3 -5 0
-9 5 -9 17 0 13 -40 -5 -47 -8 -3 -20 -1 -26 5 -7 7 -17 8 -29 2 -14 -8 -16
-21 -14 -67 4 -76 3 -73 16 -70 6 1 13 -3 16 -10 3 -8 -13 -11 -51 -10 -59 2
-66 6 -41 27 15 13 16 35 1 59 -6 10 -5 12 2 7 16 -10 15 7 0 23 -9 10 -9 12
-1 7 8 -4 11 1 10 14 -1 11 -5 20 -9 20 -4 0 -12 9 -18 20 -8 16 -8 18 4 14 8
-3 17 -1 21 5 3 6 15 11 27 11 14 0 18 -5 14 -16 -4 -10 -2 -14 6 -11 7 2 12
9 11 15 -2 7 4 9 15 5 15 -6 16 -5 2 13 -13 17 -13 18 0 8 8 -6 23 -10 33 -9z"/>
<path fill="#ffffff" stroke="none" d="M864 2069 c-4 -7 0 -9 12 -5 40 12 74
14 69 5 -4 -5 0 -9 8 -9 8 0 20 -7 27 -15 7 -8 17 -12 23 -8 5 3 7 2 4 -4 -4
-6 -3 -23 2 -39 18 -67 -30 -134 -96 -134 -44 0 -66 12 -94 52 -13 17 -18 29
-13 25 7 -4 9 5 6 22 -4 30 22 91 38 91 6 0 9 3 9 8 -2 12 1 22 7 22 3 0 2 -5
-2 -11z"/>
<path fill="#ffffff" stroke="none" d="M1898 2056 c-11 -20 -10 -20 8 -6 10 8
22 20 26 25 5 6 8 6 8 -2 0 -8 9 -9 30 -3 22 6 28 5 24 -2 -5 -7 -1 -9 9 -5 9
3 16 3 14 -1 -1 -4 3 -7 8 -7 6 0 9 3 8 7 -2 4 5 4 14 1 10 -4 14 -2 10 4 -4
7 5 9 26 6 17 -3 37 -5 44 -6 7 0 11 -5 10 -11 -1 -6 3 -10 8 -9 6 1 10 -28 9
-70 0 -83 3 -97 23 -97 8 0 12 -4 9 -9 -5 -7 -99 -9 -113 -2 -2 1 6 10 18 22
17 17 18 23 7 37 -7 9 -8 13 -2 9 8 -5 11 6 11 33 0 22 -5 40 -9 40 -5 0 -7 4
-3 9 8 15 -13 24 -41 17 -23 -6 -24 -10 -24 -77 0 -53 4 -71 15 -75 30 -12 14
-21 -38 -21 -37 0 -54 4 -54 13 0 7 4 11 8 8 11 -6 17 24 17 81 0 55 -11 75
-39 75 -25 0 -36 -26 -34 -85 3 -73 3 -75 23 -75 15 -1 15 -2 -2 -15 -11 -9
-24 -11 -30 -6 -6 4 -23 6 -38 4 -29 -4 -39 13 -14 23 15 6 16 21 2 43 -6 10
-5 12 2 7 14 -8 12 20 -2 43 -6 10 -5 12 2 7 16 -10 15 7 0 23 -11 11 -10 13
2 7 8 -4 6 0 -4 8 -21 17 -19 23 16 41 37 18 49 15 36 -9z"/>
<path fill="#ffffff" stroke="none" d="M2320 2066 c0 -5 7 -3 15 4 13 11 14
10 8 -5 -5 -14 -3 -17 10 -12 12 4 14 2 10 -10 -4 -11 -2 -14 5 -9 8 5 10 1 5
-10 -4 -11 -3 -15 4 -11 7 5 9 0 6 -13 -6 -22 -7 -22 -80 -22 -57 0 -62 -6
-42 -52 14 -31 46 -39 81 -21 37 18 45 2 12 -24 -31 -24 -90 -27 -117 -6 -42
31 -50 110 -16 152 6 7 8 17 4 23 -4 6 -3 10 2 9 20 -3 44 2 40 9 -3 4 8 7 24
7 16 0 29 -4 29 -9z"/>
<path fill="#ffffff" stroke="none" d="M1747 2065 c28 -6 37 -35 38 -110 0
-56 2 -60 22 -59 16 0 20 -3 13 -11 -5 -7 -8 -14 -5 -16 2 -3 -11 -6 -30 -7
-18 -1 -36 2 -40 7 -3 6 -12 8 -20 5 -8 -4 -13 -9 -11 -13 2 -3 -11 -6 -29 -6
-18 0 -31 3 -29 6 2 4 -2 9 -10 12 -22 9 -25 63 -5 78 10 7 16 16 14 19 -3 4
7 5 22 2 16 -3 24 -1 20 5 -4 6 4 9 18 7 21 -2 24 1 21 22 -7 34 -15 44 -37
44 -13 0 -19 -7 -19 -24 0 -37 -27 -40 -46 -5 -10 21 -11 29 -3 23 8 -5 11 -3
7 7 -4 11 6 15 41 17 25 1 56 0 68 -3z"/>
<path fill="#000000" stroke="none" d="M970 2522 c-18 -14 -23 -29 -23 -63 0
-48 18 -93 34 -84 5 4 9 2 9 -3 0 -6 9 -8 20 -5 11 3 17 9 14 14 -3 5 0 9 6 9
6 0 8 5 5 10 -3 6 -2 10 2 10 13 0 15 54 4 84 -15 38 -44 50 -71 28z"/>
<path fill="#000000" stroke="none" d="M1956 2521 c-20 -22 -26 -62 -12 -80 8
-11 8 -13 -1 -8 -18 11 -4 -28 19 -53 14 -15 23 -18 32 -11 7 6 15 8 18 5 12
-11 30 68 24 101 -10 53 -52 77 -80 46z"/>
<path fill="#000000" stroke="none" d="M2409 2519 c-39 -39 -20 -149 27 -149
13 0 24 5 24 11 0 5 4 8 9 4 6 -3 13 9 16 27 17 88 -30 153 -76 107z"/>
<path fill="#000000" stroke="none" d="M2182 2528 c-16 -16 -15 -75 1 -85 22
-14 37 -12 47 8 14 25 8 68 -11 80 -19 12 -23 11 -37 -3z"/>
<path fill="#000000" stroke="none" d="M2161 2326 c-11 -27 -5 -41 22 -53 31
-13 68 -2 78 24 10 26 1 34 -53 43 -35 7 -41 5 -47 -14z"/>
<path fill="#000000" stroke="none" d="M879 2034 c-21 -25 -20 -106 1 -133 13
-18 23 -22 43 -17 24 6 45 44 41 74 -1 6 -2 21 -3 32 -1 23 -35 60 -55 60 -7
0 -20 -7 -27 -16z"/>
<path fill="#000000" stroke="none" d="M2271 2041 c-8 -5 -10 -14 -6 -21 5 -9
4 -11 -3 -6 -7 4 -12 3 -12 -2 0 -5 9 -12 20 -15 11 -3 20 0 20 5 0 7 5 6 14
-1 18 -15 27 6 14 32 -10 19 -25 21 -47 8z"/>
<path fill="#000000" stroke="none" d="M1686 1944 c-12 -12 -13 -20 -6 -35 20
-36 53 -19 56 29 1 26 -26 30 -50 6z"/>
</g>
</svg>
