<?xml version="1.0" standalone="no"?>
<!DOCTYPE svg PUBLIC "-//W3C//DTD SVG 20010904//EN"
 "http://www.w3.org/TR/2001/REC-SVG-20010904/DTD/svg10.dtd">
<svg version="1.0" xmlns="http://www.w3.org/2000/svg"
 width="318.000000pt" height="451.000000pt" viewBox="0 0 318.000000 451.000000"
 preserveAspectRatio="xMidYMid meet">
<metadata>
Created by potrace 1.16, written by Peter Selinger 2001-2019
</metadata>
<g transform="translate(0.000000,451.000000) scale(0.100000,-0.100000)"
fill="#000000" stroke="none">
<path fill="#000000" stroke="none" d="M335 4256 c17 -7 32 -12 35 -11 3 2 5
-88 5 -200 0 -130 -4 -203 -10 -202 -5 1 -9 -4 -7 -12 2 -11 0 -12 -11 -3 -8
7 -18 8 -22 4 -5 -4 -5 -1 -1 5 4 7 2 22 -4 33 -15 28 -64 24 -68 -5 -3 -30
11 -46 50 -54 28 -7 43 -4 68 12 38 24 76 97 57 109 -9 6 -8 8 2 8 11 0 11 3
0 17 -10 11 -10 14 -1 9 6 -4 12 -3 12 1 0 5 -6 15 -12 22 -11 11 -10 13 0 7
14 -8 12 19 -2 43 -6 9 -5 12 2 7 12 -7 11 42 -2 63 -6 10 -5 12 2 7 14 -8 12
20 -2 43 -6 9 -5 12 0 8 6 -3 10 11 10 33 0 25 -4 37 -10 33 -6 -4 -7 -2 -3 3
5 5 12 9 15 10 4 0 14 3 22 7 8 3 22 8 30 10 8 3 -30 6 -85 6 -91 0 -97 -1
-70 -13z"/>
<path fill="#000000" stroke="none" d="M325 3757 c-96 -68 -129 -165 -68 -198
20 -11 28 -11 45 0 11 7 17 8 13 2 -3 -6 -4 -11 0 -11 3 0 10 12 16 28 7 15
13 22 16 15 3 -7 9 -13 14 -13 6 0 8 4 4 9 -3 5 -1 12 5 16 5 3 10 -3 10 -14
0 -23 11 -31 51 -38 17 -2 29 0 29 7 0 6 4 9 9 6 17 -11 28 53 15 88 -3 9 -11
13 -17 9 -6 -4 -7 -1 -2 6 8 14 -45 75 -85 96 -22 12 -29 11 -55 -8z"/>
<path fill="#000000" stroke="none" d="M347 3543 c-6 -32 -3 -38 16 -30 10 3
13 15 10 31 -7 34 -19 33 -26 -1z"/>
<path fill="#000000" stroke="none" d="M912 2628 c-7 -7 -12 -19 -12 -27 0
-38 67 -291 75 -284 4 4 5 2 1 -4 -8 -15 3 -85 13 -79 3 2 6 -10 7 -27 0 -18
3 -41 6 -52 2 -11 10 -46 18 -77 7 -32 16 -55 21 -53 4 3 5 -4 2 -15 -3 -11 1
-28 8 -37 12 -14 12 -15 1 -9 -11 7 -12 4 -4 -10 11 -21 12 -25 12 -52 0 -23
51 -102 62 -96 4 3 8 1 8 -5 0 -14 67 -44 84 -38 8 3 16 3 19 0 10 -10 477 -8
481 2 3 7 5 7 5 0 1 -8 116 -11 254 -6 12 1 16 6 11 14 -5 9 -4 9 6 0 10 -10
19 -8 40 7 15 11 31 16 35 12 5 -4 5 -2 2 4 -4 7 0 14 8 17 7 3 22 21 31 39
17 33 20 44 44 163 18 87 18 90 20 90 2 0 9 30 14 60 2 11 7 28 11 38 4 9 4
24 1 33 -3 8 -2 13 3 10 8 -5 25 64 26 104 0 8 4 18 8 21 4 3 9 26 10 51 1 25
5 44 8 42 3 -2 11 22 18 54 7 31 15 65 18 76 3 11 1 16 -5 12 -5 -3 -9 2 -8
12 1 11 -7 18 -24 20 -19 2 -63 -27 -180 -119 -85 -66 -167 -131 -181 -142
-23 -20 -64 -38 -47 -22 9 10 -33 55 -45 48 -6 -3 -7 -1 -3 5 9 15 -124 173
-137 165 -6 -3 -7 -1 -3 6 10 16 -34 61 -61 61 -15 0 -55 -40 -142 -145 l-121
-145 -186 145 c-101 80 -193 145 -202 145 -10 0 -23 -5 -30 -12z"/>
<path fill="#ffffff" stroke="none" d="M1602 2255 c5 -6 8 -4 8 5 0 10 5 7 16
-8 8 -12 19 -20 23 -18 4 3 5 -11 2 -32 -8 -47 -47 -73 -83 -54 -24 13 -53 62
-37 62 5 0 9 7 9 15 0 9 7 18 15 21 8 4 13 10 10 14 -7 11 29 7 37 -5z"/>
<path fill="#000000" stroke="none" d="M2819 993 c0 -4 0 -28 1 -53 1 -25 -2
-41 -7 -37 -4 5 -8 14 -8 20 0 6 -12 18 -27 27 -32 17 -55 8 -75 -30 -13 -27
7 -97 27 -92 6 1 9 -2 5 -8 -7 -11 16 -37 64 -70 24 -16 36 -20 39 -12 2 7 8
10 13 6 5 -3 12 2 15 10 3 9 10 13 15 10 5 -3 9 2 9 11 0 9 4 14 9 10 15 -8
61 77 61 113 0 21 -7 36 -22 46 -25 18 -63 22 -53 6 3 -5 0 -7 -9 -4 -10 4
-17 -2 -22 -20 -3 -14 -10 -24 -14 -21 -8 5 -7 39 2 74 2 7 -3 16 -9 18 -7 3
-13 1 -14 -4z"/>
<path fill="#000000" stroke="none" d="M2800 674 c-18 -16 -29 -33 -26 -41 3
-8 2 -12 -3 -9 -14 9 -17 -27 -16 -201 0 -88 -3 -159 -7 -157 -4 2 -9 0 -13
-6 -3 -5 -15 -10 -26 -10 -10 0 -19 -3 -19 -7 0 -5 43 -8 95 -8 52 0 95 3 95
8 0 6 -32 11 -53 8 -4 0 -6 2 -6 6 5 29 -2 53 -13 47 -10 -6 -10 -5 -1 7 10
12 10 18 0 29 -6 7 -7 10 -1 7 13 -8 13 80 0 102 -6 9 -5 12 1 8 12 -8 11 72
-2 93 -5 9 -4 11 3 6 7 -4 12 -3 12 3 0 5 -5 13 -10 16 -7 4 -7 11 -2 18 5 7
8 26 7 44 0 18 1 30 4 28 2 -3 10 3 18 13 8 9 11 11 7 3 -5 -11 -3 -13 10 -8
10 4 15 3 11 -3 -9 -15 14 -50 33 -50 25 0 42 19 35 39 -17 48 -85 55 -133 15z"/>
</g>
</svg>
