<?xml version="1.0" standalone="no"?>
<!DOCTYPE svg PUBLIC "-//W3C//DTD SVG 20010904//EN"
 "http://www.w3.org/TR/2001/REC-SVG-20010904/DTD/svg10.dtd">
<svg version="1.0" xmlns="http://www.w3.org/2000/svg"
 width="318.000000pt" height="451.000000pt" viewBox="0 0 318.000000 451.000000"
 preserveAspectRatio="xMidYMid meet">
<metadata>
Created by potrace 1.16, written by Peter Selinger 2001-2019
</metadata>
<g transform="translate(0.000000,451.000000) scale(0.100000,-0.100000)"
fill="#000000" stroke="none">
<path fill="#000000" stroke="none" d="M299 4283 c-25 -15 -59 -61 -59 -80 0
-4 10 3 23 17 12 14 29 26 37 28 8 2 18 9 22 15 5 7 8 8 8 2 0 -6 9 -12 20
-13 41 -3 47 -6 48 -16 1 -6 5 -27 8 -47 8 -47 -15 -84 -62 -101 -19 -6 -34
-15 -34 -19 0 -9 21 -6 39 5 9 6 12 5 7 -2 -3 -6 7 -16 23 -23 38 -17 62 -59
59 -104 -3 -49 -35 -77 -92 -80 -25 -1 -43 2 -41 6 6 8 -19 19 -45 19 -25 0
-32 -13 -17 -34 14 -19 61 -32 51 -13 -5 8 -3 8 7 0 7 -7 17 -13 22 -13 4 0 5
6 1 13 -5 8 -2 8 9 -2 9 -7 17 -9 17 -3 0 5 10 8 22 4 14 -3 19 -1 14 6 -5 8
-2 10 8 6 10 -4 16 -1 16 7 0 7 3 9 6 6 10 -10 45 34 37 46 -3 5 -1 7 5 3 14
-9 20 3 27 53 6 53 -15 107 -49 123 -15 6 -26 18 -26 25 0 8 4 12 8 9 5 -3 18
12 30 33 17 30 19 40 9 51 -9 10 -9 11 1 6 16 -10 15 0 -5 34 -29 50 -102 66
-154 33z"/>
<path fill="#000000" stroke="none" d="M1510 3881 c-159 -118 -247 -251 -255
-387 -4 -71 19 -132 64 -163 33 -23 74 -34 65 -18 -5 9 -4 9 5 1 33 -31 150
46 152 98 0 13 2 33 5 46 2 13 1 21 -3 19 -5 -3 -9 6 -9 19 -2 23 -1 24 12 7
7 -10 17 -35 20 -55 4 -22 11 -35 17 -31 6 4 7 1 2 -7 -5 -8 -10 -34 -12 -58
-3 -44 -5 -55 -18 -118 -7 -31 -7 -31 35 -31 42 0 42 0 35 31 -3 17 -8 49 -12
71 -3 22 -10 46 -17 54 -8 11 -8 13 1 8 8 -5 11 1 9 19 -4 35 14 104 26 104 6
0 8 -6 5 -14 -3 -8 -3 -17 0 -20 3 -3 7 -21 8 -40 2 -38 21 -69 36 -60 5 3 8
0 7 -8 -2 -7 5 -12 14 -12 10 1 16 -1 15 -5 -1 -3 0 -6 3 -7 3 0 16 -6 29 -13
19 -11 22 -11 16 1 -6 10 -5 11 6 1 15 -15 33 -17 25 -4 -4 5 4 7 16 3 13 -3
19 -1 15 5 -4 6 1 10 11 9 9 0 16 5 14 12 -1 8 2 11 8 7 16 -10 47 27 59 70
12 47 7 128 -10 171 -7 16 -13 34 -15 41 -5 24 -74 120 -121 167 -56 56 -164
136 -184 136 -8 0 -43 -22 -79 -49z"/>
<path fill="#000000" stroke="none" d="M312 3751 c-21 -16 -49 -43 -61 -60
-25 -34 -42 -109 -23 -97 8 4 10 2 6 -7 -6 -18 7 -27 46 -33 21 -4 32 1 44 17
8 12 13 26 10 31 -3 4 0 8 6 8 8 0 10 -15 6 -48 -4 -36 -2 -49 7 -49 10 0 13
16 11 59 -2 32 1 56 6 53 4 -3 6 -13 3 -24 -3 -12 3 -24 18 -35 27 -19 64 -22
53 -4 -4 7 -3 8 5 4 6 -4 18 -3 25 4 17 14 13 90 -6 101 -7 5 -9 9 -3 9 11 0
-69 76 -95 90 -13 7 -27 3 -58 -19z"/>
<path fill="#000000" stroke="none" d="M1530 2583 c-112 -74 -266 -260 -244
-295 5 -7 3 -8 -6 -3 -10 6 -12 3 -8 -13 4 -12 2 -20 -3 -16 -9 5 -10 -2 -14
-91 -3 -53 27 -131 46 -120 5 4 8 1 7 -6 -2 -8 13 -21 32 -31 42 -22 105 -17
127 9 8 10 11 12 8 5 -6 -11 -3 -11 13 -1 45 28 67 106 49 169 -4 14 2 8 14
-14 29 -53 30 -128 4 -258 -4 -23 -2 -28 15 -28 13 0 18 4 15 11 -4 6 2 5 13
-2 31 -19 35 -7 21 58 -7 32 -12 62 -10 67 1 4 -4 15 -11 24 -10 12 -10 14 0
8 6 -4 12 -3 12 1 0 5 -6 15 -12 22 -10 10 -10 12 -1 7 9 -5 11 3 9 28 -1 19
1 33 6 30 7 -5 13 18 9 39 -1 5 3 6 8 3 5 -4 11 -1 14 6 2 7 2 2 -1 -12 -13
-69 0 -111 45 -150 19 -17 38 -28 44 -25 5 4 9 1 9 -4 0 -6 16 -11 36 -11 25
0 33 4 28 13 -5 9 -4 9 6 0 10 -10 21 -6 52 18 21 17 38 37 38 45 0 9 4 13 9
9 6 -3 8 4 6 15 -2 11 0 20 5 20 17 0 3 136 -19 186 -37 84 -124 199 -143 188
-5 -3 -7 -1 -6 4 4 13 -46 58 -109 98 -28 19 -53 34 -55 34 -2 0 -28 -16 -58
-37z"/>
<path fill="#000000" stroke="none" d="M1534 1271 c-105 -68 -246 -224 -228
-253 4 -6 3 -8 -4 -4 -26 16 -64 -172 -41 -201 8 -9 9 -14 2 -10 -7 5 -9 0 -6
-13 3 -11 9 -17 14 -14 5 3 6 -1 4 -8 -13 -33 123 -116 141 -87 3 5 9 7 13 4
9 -5 101 51 102 62 0 5 3 17 6 28 10 42 5 87 -13 108 -19 22 -19 22 2 4 11 -9
23 -15 26 -12 2 3 5 -1 6 -7 0 -7 4 -26 8 -43 9 -39 9 -109 0 -160 -18 -96
-19 -90 13 -90 18 -1 27 3 23 10 -3 5 2 3 12 -5 19 -15 19 -19 -1 95 -3 17 -6
35 -7 40 -1 6 -6 16 -10 24 -6 10 -5 12 2 7 16 -10 15 7 0 23 -9 10 -9 12 -1
7 7 -4 12 0 11 11 0 29 10 61 26 85 17 24 22 13 7 -11 -6 -9 -6 -22 1 -34 6
-11 6 -17 0 -14 -5 4 -7 -4 -4 -18 2 -14 9 -22 15 -18 5 3 7 1 4 -5 -27 -42
103 -112 161 -86 9 4 19 8 22 8 25 7 51 30 46 42 -3 8 -2 12 3 9 33 -20 48
145 21 215 -1 3 -2 8 -1 13 0 4 -3 7 -9 7 -6 0 -9 3 -8 8 4 13 -13 52 -23 52
-5 0 -8 4 -6 9 4 16 -84 122 -95 115 -6 -4 -8 -2 -4 4 8 13 -43 54 -57 45 -6
-3 -7 -1 -3 5 4 6 -18 28 -53 51 l-59 40 -58 -38z"/>
<path fill="#000000" stroke="none" d="M2816 946 c5 -50 5 -51 -11 -24 -8 15
-26 30 -39 34 -23 5 -65 -9 -67 -24 -6 -44 -3 -67 16 -99 12 -21 27 -37 34
-35 7 1 10 -2 6 -7 -3 -6 11 -21 31 -35 l37 -25 31 21 c42 29 92 78 80 78 -5
0 -3 4 3 8 7 4 15 24 18 44 10 64 -51 102 -95 58 -11 -11 -17 -27 -14 -37 5
-15 4 -16 -5 -3 -6 8 -9 33 -6 56 3 30 1 41 -9 41 -11 0 -13 -12 -10 -51z"/>
<path fill="#000000" stroke="none" d="M2810 667 c-81 -21 -127 -86 -116 -165
6 -48 22 -76 37 -66 5 3 8 2 7 -3 -2 -4 1 -8 5 -8 20 0 25 -31 8 -50 -43 -47
-48 -102 -12 -138 27 -27 103 -34 137 -13 13 10 22 22 18 28 -4 6 -3 8 3 5 6
-4 18 4 27 18 24 37 20 39 -19 8 -24 -20 -47 -28 -74 -29 -23 0 -39 4 -38 10
1 6 -3 10 -10 9 -7 -2 -10 4 -7 12 4 8 2 15 -2 15 -5 0 -9 14 -8 31 1 36 55
99 85 99 10 0 19 4 19 9 0 5 -8 8 -17 7 -24 -4 -62 14 -93 43 -14 13 -20 21
-13 17 8 -5 8 2 -2 20 -12 23 -12 32 0 60 7 18 10 36 7 40 -4 4 -1 4 6 0 7 -4
15 -1 18 8 4 9 14 13 31 10 14 -3 22 -1 19 5 -4 5 15 -1 41 -14 35 -18 51 -21
65 -14 14 8 16 14 8 29 -6 11 -14 20 -18 21 -35 5 -83 4 -112 -4z"/>
</g>
</svg>
