<?xml version="1.0" standalone="no"?>
<!DOCTYPE svg PUBLIC "-//W3C//DTD SVG 20010904//EN"
 "http://www.w3.org/TR/2001/REC-SVG-20010904/DTD/svg10.dtd">
<svg version="1.0" xmlns="http://www.w3.org/2000/svg"
 width="318.000000pt" height="451.000000pt" viewBox="0 0 318.000000 451.000000"
 preserveAspectRatio="xMidYMid meet">
<metadata>
Created by potrace 1.16, written by Peter Selinger 2001-2019
</metadata>
<g transform="translate(0.000000,451.000000) scale(0.100000,-0.100000)"
fill="#000000" stroke="none">
<path fill="#000000" stroke="none" d="M354 4226 c-165 -236 -165 -236 -152
-259 7 -14 13 -17 16 -9 2 6 9 9 15 5 18 -11 136 -9 129 2 -3 5 1 4 10 -3 12
-9 16 -27 14 -59 -3 -49 14 -76 40 -66 12 4 15 19 12 68 -2 51 0 62 12 60 8
-2 15 -4 15 -5 0 -1 7 -3 16 -5 11 -2 16 5 17 25 1 24 -3 27 -29 25 -21 -2
-29 2 -29 14 -1 9 -1 75 -2 148 -1 119 -2 131 -18 130 -10 0 -39 -33 -66 -71z"/>
<path fill="#ffffff" stroke="none" d="M385 4116 c-1 -56 -3 -104 -4 -107 -2
-9 -135 -5 -142 5 -6 8 1 17 47 68 9 9 13 22 9 28 -3 6 -3 9 2 8 4 -2 9 2 11
7 2 6 10 14 18 18 8 4 14 14 14 21 0 8 7 17 16 20 9 3 14 12 11 19 -3 8 0 14
7 14 9 0 12 -27 11 -101z"/>
<path fill="#000000" stroke="none" d="M973 3879 c-162 -122 -253 -268 -255
-409 -1 -32 4 -50 11 -46 5 4 7 -4 3 -16 -4 -16 -2 -19 8 -13 9 5 11 4 6 -4
-10 -15 13 -43 27 -34 5 3 7 1 4 -4 -9 -14 31 -40 69 -46 32 -5 77 9 112 34
45 33 66 112 41 162 -9 20 -9 20 4 5 8 -10 16 -16 19 -13 5 6 6 5 16 -102 4
-44 4 -79 0 -77 -5 3 -8 -7 -9 -23 0 -27 -3 -42 -10 -72 -3 -10 9 -15 39 -17
40 -4 43 -3 37 17 -11 35 -32 199 -25 199 4 0 7 6 8 13 3 42 7 57 15 57 4 0 5
6 1 13 -4 6 -4 9 1 5 4 -4 15 -2 24 4 14 11 14 10 -1 -7 -23 -28 -17 -95 12
-138 14 -20 27 -34 31 -31 4 2 9 -1 11 -6 2 -6 10 -12 18 -13 8 -2 21 -6 29
-11 8 -5 16 -4 21 4 5 8 9 9 11 1 3 -7 13 -6 32 4 19 10 26 10 22 2 -4 -7 -1
-5 7 4 7 9 17 16 22 15 6 -1 23 23 38 53 23 44 26 56 16 69 -10 13 -10 14 0 8
14 -8 12 19 -2 43 -6 10 -5 12 2 7 9 -5 9 0 3 17 -6 14 -7 28 -4 31 4 3 1 6
-5 6 -6 0 -9 7 -5 17 4 11 3 14 -5 9 -7 -4 -10 -2 -7 6 6 15 -61 126 -103 170
-14 15 -30 25 -35 21 -6 -3 -7 -2 -4 4 4 6 -4 19 -16 30 -37 34 -139 103 -153
103 -7 0 -44 -23 -81 -51z"/>
<path fill="#000000" stroke="none" d="M2056 3895 c-165 -114 -282 -294 -275
-424 3 -57 8 -73 22 -64 6 3 7 1 3 -5 -10 -16 12 -54 26 -46 7 4 8 3 4 -4 -8
-14 50 -46 70 -38 9 3 12 1 9 -4 -3 -6 1 -10 10 -10 10 0 13 5 9 13 -6 9 -4 9
8 -1 11 -9 18 -10 23 -2 3 6 10 8 14 5 14 -8 83 64 77 81 -3 8 -2 12 4 9 12
-7 14 86 3 101 -5 5 0 1 10 -9 9 -11 17 -26 17 -34 0 -8 3 -12 8 -10 6 4 6
-57 -1 -180 -1 -17 -5 -29 -9 -26 -5 2 -8 -7 -8 -21 0 -23 4 -26 34 -26 19 0
37 3 39 8 6 9 -19 168 -29 184 -4 7 -3 8 4 4 16 -10 15 7 0 23 -8 8 -8 11 -2
8 13 -8 28 49 17 67 -3 6 -2 8 2 3 5 -4 17 1 28 10 20 18 20 18 5 -7 -24 -38
-4 -151 24 -134 6 4 8 3 5 -3 -8 -13 20 -37 58 -50 81 -27 176 30 179 106 1
16 5 27 10 24 11 -7 -3 120 -14 135 -2 1 -3 5 -4 10 -5 28 -30 71 -39 65 -6
-3 -7 -1 -3 5 10 17 -34 79 -101 143 -61 60 -157 129 -177 128 -6 0 -33 -15
-60 -34z"/>
<path fill="#000000" stroke="none" d="M335 3768 c-31 -17 -85 -70 -101 -100
-31 -60 -5 -122 48 -114 34 5 48 20 48 50 0 31 11 11 14 -26 2 -18 -1 -41 -5
-50 -7 -13 -5 -16 10 -15 19 1 20 19 6 90 -5 28 5 20 16 -13 6 -16 15 -27 20
-24 5 3 9 0 9 -5 0 -15 42 -13 63 3 10 8 20 27 21 43 4 34 -13 75 -27 66 -6
-3 -7 -1 -3 5 8 13 -20 44 -69 79 -24 17 -35 19 -50 11z"/>
<path fill="#000000" stroke="none" d="M999 1273 c-119 -79 -277 -276 -253
-315 4 -7 3 -8 -4 -4 -7 4 -12 0 -13 -11 0 -10 -3 -27 -5 -38 -2 -11 -5 -39
-5 -61 -1 -48 36 -128 53 -118 7 4 8 3 4 -4 -7 -12 27 -35 38 -25 3 3 6 2 6
-4 0 -5 20 -11 45 -11 29 -2 45 2 45 10 0 6 3 9 6 5 12 -11 66 24 60 39 -3 7
0 13 6 11 7 -1 12 3 13 10 0 6 3 15 8 19 11 11 9 72 -4 96 -8 16 -8 19 1 13
39 -24 51 -154 24 -257 -7 -27 -9 -48 -6 -49 65 -9 98 2 75 24 -7 7 -13 46
-13 85 0 15 -4 21 -13 16 -9 -5 -9 -4 0 6 7 8 8 22 3 41 -6 20 -5 29 3 29 7 0
6 4 -3 10 -8 5 -10 10 -4 10 10 0 12 6 16 49 1 11 6 17 10 15 7 -5 12 9 10 27
-1 3 5 6 13 6 11 0 11 -4 0 -21 -26 -42 5 -169 37 -150 7 4 8 3 4 -4 -8 -14
30 -36 46 -26 7 4 8 3 4 -5 -6 -9 5 -11 39 -10 50 3 132 50 120 69 -3 6 -1 10
5 10 7 0 9 7 6 16 -3 8 -2 12 4 9 6 -3 11 -1 11 4 5 42 4 58 -5 70 -9 12 -8
13 3 7 10 -7 12 -4 6 13 -3 11 -8 32 -11 46 -8 47 -36 105 -47 98 -6 -3 -7 -1
-3 6 10 15 -66 117 -127 169 -41 36 -107 84 -143 105 -6 3 -35 -10 -65 -30z"/>
<path fill="#000000" stroke="none" d="M2085 1287 c-85 -59 -134 -100 -129
-108 3 -5 0 -8 -8 -7 -7 2 -12 -3 -10 -9 1 -7 -2 -12 -7 -10 -16 4 -71 -67
-108 -141 -30 -59 -37 -85 -39 -144 -3 -72 16 -135 36 -123 6 3 7 0 4 -8 -7
-20 59 -57 101 -57 46 0 88 17 79 32 -4 6 -3 8 2 5 19 -11 50 25 64 72 5 17 5
29 1 26 -5 -2 -6 7 -3 20 2 14 -1 31 -7 39 -8 10 -9 16 -1 21 6 4 9 1 8 -7 -2
-7 3 -12 10 -10 8 1 11 -2 7 -8 -3 -5 -1 -19 6 -31 12 -23 19 -170 7 -163 -4
3 -7 -4 -7 -13 1 -10 -3 -36 -7 -58 -7 -38 -6 -39 11 -25 11 9 16 10 11 3 -4
-8 -1 -13 9 -13 10 0 13 5 9 13 -5 8 -3 8 9 -2 14 -11 18 -11 23 2 3 9 3 20 0
26 -7 11 -18 80 -20 121 -1 14 -5 28 -11 32 -6 5 -5 8 4 8 11 0 11 3 0 17 -10
11 -10 14 -1 9 8 -5 12 1 13 21 1 15 1 32 0 36 -1 5 3 6 8 3 5 -4 13 3 16 15
4 11 9 19 11 16 3 -2 0 -17 -6 -32 -8 -20 -7 -31 2 -43 11 -13 11 -14 0 -8
-10 6 -9 -2 2 -29 9 -21 16 -39 16 -41 0 -1 15 -13 32 -26 43 -30 127 -35 156
-8 11 10 23 16 26 13 3 -4 6 1 6 11 0 9 4 15 8 12 12 -7 35 61 26 75 -4 8 -3
9 4 5 17 -10 16 46 0 63 -11 11 -10 12 1 6 10 -6 11 -2 5 16 -4 13 -7 30 -7
37 0 6 -4 12 -8 12 -5 0 -5 7 -2 17 5 12 3 14 -7 8 -8 -5 -11 -4 -7 2 10 15
-47 112 -95 163 -51 54 -147 134 -186 154 -25 13 -30 12 -57 -7z"/>
<path fill="#000000" stroke="none" d="M2814 948 c2 -26 1 -50 -3 -52 -4 -3
-8 4 -8 15 -4 42 -50 60 -90 34 -22 -15 -25 -22 -20 -58 6 -43 38 -94 57 -89
6 1 9 -2 6 -7 -8 -12 34 -42 46 -35 5 3 7 0 6 -7 -5 -20 17 -20 40 1 12 12 22
17 22 13 0 -4 16 10 35 32 19 22 33 46 30 53 -3 7 -1 11 4 8 14 -9 20 31 7 45
-8 9 -8 10 3 4 9 -5 12 -3 9 6 -3 8 -10 13 -16 12 -7 -2 -9 4 -5 14 5 13 2 15
-11 10 -10 -4 -15 -3 -11 4 9 14 -39 6 -59 -10 -18 -15 -22 -46 -4 -35 7 4 8
3 4 -5 -15 -24 -28 3 -24 49 4 34 1 47 -9 47 -9 0 -12 -13 -9 -49z"/>
<path fill="#000000" stroke="none" d="M2739 663 c-5 -34 -3 -71 4 -87 6 -13
6 -16 -2 -12 -6 4 -11 2 -11 -3 0 -6 -13 -11 -29 -11 -22 0 -28 -4 -26 -17 2
-10 4 -20 4 -23 1 -3 10 -6 20 -6 11 0 17 4 14 9 -3 5 4 4 16 -3 14 -7 19 -16
14 -23 -7 -9 -10 -202 -4 -264 2 -25 61 10 61 36 0 6 5 11 10 11 6 0 18 16 27
35 9 19 21 35 25 35 5 0 7 4 4 9 -3 5 1 12 10 15 9 4 14 13 10 22 -3 8 -2 12
3 9 6 -3 24 15 41 40 17 25 27 45 23 45 -4 0 0 5 10 11 9 5 17 21 17 35 l0 25
-94 -3 c-52 -2 -92 0 -89 5 2 4 1 7 -4 7 -4 0 -6 25 -5 55 4 53 3 55 -22 55
-14 0 -27 -3 -27 -7z"/>
<path fill="#ffffff" stroke="none" d="M2936 500 c0 -16 -2 -28 -4 -25 -8 8
-101 -129 -94 -139 3 -5 0 -6 -6 -2 -11 7 -17 -6 -13 -27 1 -5 -3 -6 -8 -3 -5
4 -12 0 -14 -6 -6 -14 -7 2 -10 133 -1 54 2 85 8 83 16 -6 133 -9 133 -4 -1
10 2 20 5 20 2 0 3 -13 3 -30z"/>
</g>
</svg>
