<?xml version="1.0" standalone="no"?>
<!DOCTYPE svg PUBLIC "-//W3C//DTD SVG 20010904//EN"
 "http://www.w3.org/TR/2001/REC-SVG-20010904/DTD/svg10.dtd">
<svg version="1.0" xmlns="http://www.w3.org/2000/svg"
 width="318.000000pt" height="450.000000pt" viewBox="0 0 318.000000 450.000000"
 preserveAspectRatio="xMidYMid meet">
<metadata>
Created by potrace 1.16, written by Peter Selinger 2001-2019
</metadata>
<g transform="translate(0.000000,450.000000) scale(0.100000,-0.100000)"
fill="#000000" stroke="none">
<path fill="#000000" stroke="none" d="M272 4255 c-56 -26 -116 -97 -109 -127
3 -10 1 -16 -4 -12 -5 3 -9 -2 -9 -10 0 -9 0 -18 0 -21 0 -3 3 -4 7 -2 5 1 7
5 6 10 -2 4 3 6 10 5 6 -2 11 3 10 10 -2 6 2 11 9 10 7 -2 12 2 13 9 0 6 3 14
7 18 3 4 5 0 4 -9 -3 -22 -57 -77 -68 -70 -16 10 1 -97 22 -141 11 -23 32 -53
47 -66 14 -13 23 -17 19 -9 -6 12 -5 12 6 -1 18 -22 57 -41 68 -34 6 4 9 3 8
-2 -2 -5 8 -20 21 -33 13 -14 21 -18 17 -10 -5 11 -4 10 6 -1 8 -10 30 -26 50
-37 31 -18 38 -19 48 -6 10 11 10 17 0 29 -7 8 -15 13 -19 11 -4 -3 -8 9 -9
25 -1 16 2 29 6 29 5 0 9 7 9 15 0 8 -4 15 -9 15 -4 0 -8 -5 -8 -10 0 -6 -3
-9 -7 -9 -25 4 -43 -2 -37 -13 5 -7 3 -8 -7 -2 -8 5 -25 10 -39 12 -14 2 -36
11 -50 20 -14 9 -29 15 -33 14 -5 -1 -6 2 -2 8 3 5 0 20 -7 32 -7 13 -13 26
-14 31 -1 4 -2 8 -4 10 -4 5 -11 44 -11 62 0 10 -5 26 -12 34 -9 12 -9 13 1 7
7 -4 12 -1 12 9 0 9 -4 14 -8 11 -5 -3 -9 1 -9 9 0 8 4 12 9 9 4 -3 8 1 8 8 0
31 23 90 45 116 13 16 21 33 17 37 -4 5 -1 5 6 1 6 -4 18 -4 25 1 38 23 121
-3 167 -53 14 -15 20 -25 13 -21 -8 5 -9 0 0 -22 6 -17 16 -27 21 -23 6 3 5
-1 -1 -10 -7 -8 -10 -17 -7 -21 9 -9 5 -119 -5 -156 -6 -18 -18 -45 -28 -60
-21 -31 -24 -49 -12 -57 5 -3 10 0 10 5 3 26 4 30 11 37 4 3 5 -3 3 -16 -4
-18 3 -15 35 20 22 24 37 47 34 51 -3 5 0 9 7 9 7 0 9 3 6 7 -4 3 -2 12 3 19
17 20 20 56 7 73 -8 10 -9 13 0 8 8 -5 10 6 7 40 -2 25 -8 49 -13 52 -9 6 -11
11 -11 31 0 15 -82 91 -110 102 -52 20 -125 17 -178 -7z"/>
<path fill="#ffffff" stroke="none" d="M490 4215 c19 -19 32 -35 29 -35 -3 0
-20 16 -39 35 -19 19 -32 35 -29 35 3 0 20 -16 39 -35z"/>
<path fill="#ffffff" stroke="none" d="M265 4231 c3 -5 2 -12 -3 -15 -5 -3 -9
1 -9 9 0 17 3 19 12 6z"/>
<path fill="#ffffff" stroke="none" d="M236 4205 c-2 -30 -20 -52 -31 -36 -3
7 -1 10 6 9 7 -2 14 7 15 20 2 27 3 32 7 32 2 0 3 -11 3 -25z"/>
<path fill="#ffffff" stroke="none" d="M544 4171 c3 -5 -2 -15 -12 -22 -15
-12 -16 -12 -5 2 7 9 10 19 6 22 -3 4 -4 7 0 7 3 0 8 -4 11 -9z"/>
<path fill="#ffffff" stroke="none" d="M548 4128 c-2 -7 3 -12 10 -10 17 3 15
-3 -5 -19 -10 -8 -14 -9 -10 -2 4 6 3 14 -3 18 -6 4 -8 11 -5 16 9 13 15 11
13 -3z"/>
<path fill="#ffffff" stroke="none" d="M561 4063 c7 -10 9 -15 5 -11 -5 4 -15
3 -22 -3 -8 -7 -14 -7 -19 1 -4 6 -1 9 7 8 7 -2 12 3 11 10 -4 17 2 15 18 -5z"/>
<path fill="#ffffff" stroke="none" d="M187 4055 c0 -8 -4 -12 -9 -9 -5 3 -6
10 -3 15 9 13 12 11 12 -6z"/>
<path fill="#ffffff" stroke="none" d="M171 4033 c13 -16 12 -17 -3 -4 -10 7
-18 15 -18 17 0 8 8 3 21 -13z"/>
<path fill="#ffffff" stroke="none" d="M536 4015 c-1 -8 -5 -17 -8 -21 -5 -4
-4 16 1 34 3 9 9 -1 7 -13z"/>
<path fill="#ffffff" stroke="none" d="M580 4015 c0 -1 -10 -10 -22 -21 -14
-12 -18 -13 -10 -3 6 9 10 18 7 21 -3 2 2 5 10 5 8 0 15 -1 15 -2z"/>
<path fill="#ffffff" stroke="none" d="M195 3982 c-1 -9 2 -24 8 -32 9 -12 9
-13 -3 -2 -15 13 -23 65 -9 57 4 -3 6 -13 4 -23z"/>
<path fill="#ffffff" stroke="none" d="M580 3986 c0 -2 -8 -10 -17 -17 -16
-13 -17 -12 -4 4 13 16 21 21 21 13z"/>
<path fill="#ffffff" stroke="none" d="M525 3951 c3 -5 2 -12 -3 -15 -5 -3 -9
1 -9 9 0 17 3 19 12 6z"/>
<path fill="#ffffff" stroke="none" d="M215 3921 c3 -5 2 -12 -3 -15 -5 -3 -9
1 -9 9 0 17 3 19 12 6z"/>
<path fill="#ffffff" stroke="none" d="M545 3921 c3 -5 2 -12 -3 -15 -5 -3 -9
1 -9 9 0 17 3 19 12 6z"/>
<path fill="#ffffff" stroke="none" d="M517 3913 c-4 -3 -1 -13 6 -22 11 -14
10 -14 -5 -2 -16 12 -16 31 -1 31 4 0 3 -3 0 -7z"/>
<path fill="#ffffff" stroke="none" d="M416 3806 c0 -14 -3 -23 -7 -20 -6 3
-6 22 0 42 3 10 7 -2 7 -22z"/>
<path fill="#ffffff" stroke="none" d="M365 3808 c5 4 5 1 1 -6 -6 -10 -11
-10 -22 -1 -8 6 -14 14 -14 16 0 3 6 0 13 -6 8 -6 18 -7 22 -3z"/>
<path fill="#ffffff" stroke="none" d="M386 3791 c-6 -10 18 -34 26 -26 2 3 5
-2 5 -10 0 -12 -6 -10 -23 6 -20 19 -24 39 -8 39 3 0 3 -4 0 -9z"/>
<path fill="#ffffff" stroke="none" d="M460 3744 c0 -8 -19 -13 -24 -6 -3 5 1
9 9 9 8 0 15 -2 15 -3z"/>
<path fill="#000000" stroke="none" d="M467 3724 c-4 -4 -7 -12 -7 -17 0 -6 3
-7 7 -4 3 4 11 3 17 -2 6 -5 31 -11 56 -15 l45 -6 -39 15 c-21 8 -42 12 -47 9
-5 -3 -8 0 -7 7 3 13 -15 23 -25 13z"/>
<path fill="#000000" stroke="none" d="M344 3634 c-10 -16 -33 -48 -52 -71
-18 -24 -31 -47 -27 -52 3 -5 0 -13 -6 -17 -8 -4 -9 -3 -5 4 4 7 2 12 -3 12
-18 0 -13 -15 19 -51 35 -40 41 -49 57 -75 6 -10 16 -18 22 -17 6 2 8 -3 5
-11 -3 -8 1 -17 8 -22 7 -4 10 -3 5 1 -4 5 3 19 15 32 12 13 18 23 15 23 -7 0
13 27 41 56 7 8 10 14 5 14 -4 0 3 7 15 16 l22 15 -26 35 c-14 18 -31 31 -37
27 -6 -4 -7 -1 -3 6 5 7 1 20 -7 29 -9 9 -22 30 -30 46 l-15 28 -18 -28z"/>
<path fill="#ffffff" stroke="none" d="M405 3578 c5 4 5 1 1 -6 -6 -10 -11
-10 -22 -1 -8 6 -14 14 -14 16 0 3 6 0 13 -6 8 -6 18 -7 22 -3z"/>
<path fill="#ffffff" stroke="none" d="M345 3571 c3 -5 2 -12 -3 -15 -5 -3 -9
1 -9 9 0 17 3 19 12 6z"/>
<path fill="#ffffff" stroke="none" d="M379 3557 c8 -11 6 -18 -12 -33 -22
-19 -22 -19 -5 2 14 16 15 23 6 32 -7 7 -9 12 -6 12 3 0 11 -6 17 -13z"/>
<path fill="#ffffff" stroke="none" d="M320 3556 c0 -2 -8 -10 -17 -17 -16
-13 -17 -12 -4 4 13 16 21 21 21 13z"/>
<path fill="#ffffff" stroke="none" d="M406 3525 c-1 -8 -5 -17 -8 -21 -5 -4
-4 16 1 34 3 9 9 -1 7 -13z"/>
<path fill="#ffffff" stroke="none" d="M291 3513 c13 -16 12 -17 -3 -4 -10 7
-18 15 -18 17 0 8 8 3 21 -13z"/>
<path fill="#ffffff" stroke="none" d="M324 3501 c3 -4 -3 -16 -13 -25 -14
-13 -18 -14 -18 -2 0 8 5 14 11 13 6 -1 10 4 9 11 -3 14 3 16 11 3z"/>
<path fill="#ffffff" stroke="none" d="M377 3495 c0 -8 -4 -12 -9 -9 -5 3 -6
10 -3 15 9 13 12 11 12 -6z"/>
<path fill="#ffffff" stroke="none" d="M427 3495 c0 -8 -4 -12 -9 -9 -5 3 -6
10 -3 15 9 13 12 11 12 -6z"/>
<path fill="#ffffff" stroke="none" d="M455 3501 c3 -5 2 -12 -3 -15 -5 -3 -9
1 -9 9 0 17 3 19 12 6z"/>
<path fill="#ffffff" stroke="none" d="M405 3481 c3 -5 2 -12 -3 -15 -5 -3 -9
1 -9 9 0 17 3 19 12 6z"/>
<path fill="#ffffff" stroke="none" d="M360 3475 c0 -2 -6 -8 -13 -14 -10 -8
-14 -7 -14 2 0 8 6 14 14 14 7 0 13 -1 13 -2z"/>
<path fill="#ffffff" stroke="none" d="M380 3467 c0 -2 -10 -12 -22 -23 l-23
-19 19 23 c18 21 26 27 26 19z"/>
<path fill="#ffffff" stroke="none" d="M396 3424 c1 -9 0 -13 -4 -10 -3 4 -7
14 -8 22 -1 9 0 13 4 10 3 -4 7 -14 8 -22z"/>
<path fill="#ffffff" stroke="none" d="M369 3423 c-1 -5 0 -10 1 -13 7 -19 7
-39 -1 -34 -5 3 -7 9 -4 14 3 5 1 11 -5 15 -6 4 -8 11 -5 16 7 11 15 12 14 2z"/>
<path fill="#000000" stroke="none" d="M1554 2821 c4 -7 1 -9 -8 -5 -36 14
-105 -73 -102 -128 1 -16 -2 -28 -6 -28 -16 0 -24 -2 -50 -16 -51 -26 -69 -97
-40 -151 12 -21 70 -60 73 -48 4 14 7 26 9 33 1 4 2 11 1 15 -1 5 3 6 9 2 6
-3 7 -12 3 -18 -4 -7 -9 -33 -11 -60 -3 -41 1 -50 24 -72 15 -14 24 -28 21
-31 -3 -3 -2 -17 4 -31 6 -17 6 -22 -2 -18 -6 4 -9 1 -8 -6 5 -25 -33 -90 -68
-116 -19 -14 -32 -32 -29 -39 3 -7 1 -16 -5 -19 -5 -4 -8 -3 -7 2 2 4 -1 9 -7
11 -5 1 -10 -2 -10 -7 0 -5 -4 -13 -9 -18 -6 -5 -6 -2 -1 6 6 11 4 13 -11 7
-10 -5 -62 -24 -114 -44 -52 -20 -101 -44 -108 -52 -8 -8 -11 -9 -7 -2 3 6 1
12 -4 12 -6 0 -12 -4 -12 -10 -1 -5 -2 -14 -3 -19 0 -5 -4 -13 -8 -17 -4 -3
-6 3 -3 15 2 11 0 21 -6 21 -5 0 -9 -5 -9 -11 0 -5 -4 -8 -8 -5 -14 8 -82 -16
-75 -27 3 -6 1 -7 -5 -3 -15 9 -103 -14 -96 -25 3 -5 -2 -6 -10 -3 -9 3 -16 2
-16 -2 0 -23 54 -163 61 -158 5 3 6 -2 3 -10 -3 -9 -2 -16 4 -16 6 0 13 6 15
13 4 10 6 10 6 0 1 -7 5 -13 10 -13 6 0 8 10 6 21 -3 12 -1 18 3 15 4 -4 7
-13 7 -19 0 -12 63 -18 70 -6 3 3 17 4 31 1 18 -3 25 -1 20 6 -3 6 -1 14 5 18
7 4 9 3 5 -4 -3 -6 -2 -13 4 -17 5 -3 10 0 10 7 0 9 3 9 10 -2 10 -16 13 -10
13 32 0 10 3 15 8 13 4 -3 6 -14 4 -25 -2 -13 2 -20 11 -20 10 0 12 5 8 13 -6
9 -5 9 7 0 12 -10 18 -10 29 0 10 9 11 9 6 0 -4 -8 -1 -13 8 -13 17 0 16 21
-2 43 -11 12 -10 17 0 23 7 4 10 3 5 -1 -4 -5 -1 -15 7 -24 8 -9 14 -20 13
-26 -2 -12 34 -13 51 -1 8 5 12 4 12 -5 0 -12 2 -12 9 0 5 8 8 23 6 33 -2 10
0 16 5 13 5 -3 7 -14 5 -25 -3 -16 1 -19 18 -16 12 2 21 9 19 16 -1 6 2 9 8 5
6 -3 8 -11 5 -16 -4 -5 1 -9 10 -9 9 0 14 4 10 9 -3 5 -1 13 5 16 6 4 9 1 8
-5 -2 -7 7 -14 20 -16 13 -2 21 0 17 5 -3 5 -1 13 5 16 6 4 9 1 8 -6 -2 -10
17 -13 75 -14 44 0 81 3 84 8 2 4 13 2 24 -3 14 -8 19 -7 19 2 0 8 3 9 8 3 4
-5 48 -10 97 -10 50 0 97 -3 106 -7 9 -4 21 -2 27 4 7 7 12 8 12 2 0 -5 9 -10
20 -10 14 0 19 5 15 16 -4 13 -4 13 7 0 7 -8 29 -15 48 -15 19 0 39 -2 44 -4
14 -7 100 -10 109 -4 4 3 3 11 -3 18 -8 10 -8 15 1 21 7 4 9 3 5 -4 -3 -6 -2
-13 4 -17 6 -4 8 -11 5 -16 -7 -10 -9 -10 67 -14 53 -3 57 -1 67 24 6 14 11
28 11 31 0 3 9 30 20 60 24 66 25 74 4 66 -8 -3 -13 -2 -10 3 3 5 -9 11 -27
15 -17 4 -32 6 -32 5 0 -1 -15 5 -32 15 -18 9 -33 14 -33 12 0 -5 -164 50
-225 75 -16 7 -32 13 -35 13 -19 4 -127 62 -136 74 -7 9 -16 12 -25 7 -8 -5
-11 -5 -7 0 11 12 -12 47 -27 42 -9 -4 -11 1 -8 14 3 11 0 19 -6 19 -7 0 -9
-5 -5 -12 4 -7 3 -8 -5 -4 -9 6 -9 11 1 24 11 14 10 15 -6 9 -14 -6 -16 -4 -9
5 11 13 14 48 5 48 -3 0 -13 -7 -22 -15 -14 -13 -17 -13 -17 -1 0 8 5 14 11
13 6 -1 10 4 8 11 -1 7 5 15 13 18 12 5 11 9 -7 23 -17 14 -18 18 -5 18 9 0
14 -4 11 -9 -3 -4 0 -8 5 -8 6 0 12 5 12 10 1 6 2 14 3 19 0 5 4 13 8 17 4 3
5 -4 3 -16 -3 -15 -1 -20 5 -14 13 13 26 79 14 71 -6 -3 -10 5 -10 18 0 13 5
23 11 22 5 -1 9 4 7 11 -1 8 2 11 8 7 8 -5 5 -14 -7 -28 l-18 -21 28 17 c15
10 27 15 27 12 0 -9 22 15 43 44 13 20 14 28 4 40 -10 12 -9 13 1 7 9 -6 11
-1 8 17 -7 40 -35 75 -68 86 -27 10 -35 8 -54 -10 -16 -15 -24 -17 -29 -8 -5
7 -4 10 2 6 6 -4 17 1 26 11 16 18 20 69 6 78 -5 3 -6 10 -3 16 5 7 2 9 -8 6
-8 -4 -15 0 -15 8 0 7 5 10 10 7 6 -4 7 -1 3 6 -5 7 -14 10 -22 7 -7 -3 -16 0
-20 6 -4 7 -3 8 4 4 7 -4 12 -4 12 1 0 4 -12 15 -28 23 -32 19 -118 27 -108
11z"/>
<path fill="#ffffff" stroke="none" d="M1590 2805 c-5 -7 -9 -14 -7 -16 1 -2
0 -3 -2 -1 -11 7 -7 29 5 29 9 0 11 -4 4 -12z"/>
<path fill="#ffffff" stroke="none" d="M1555 2798 c5 4 5 1 1 -6 -6 -10 -11
-10 -22 -1 -8 6 -14 14 -14 16 0 3 6 0 13 -6 8 -6 18 -7 22 -3z"/>
<path fill="#ffffff" stroke="none" d="M1624 2802 c3 -5 -1 -9 -9 -9 -8 0 -12
4 -9 9 3 4 7 8 9 8 2 0 6 -4 9 -8z"/>
<path fill="#ffffff" stroke="none" d="M1654 2791 c3 -4 -3 -16 -13 -25 -14
-13 -18 -14 -18 -2 0 8 5 14 11 13 6 -1 10 4 9 11 -3 14 3 16 11 3z"/>
<path fill="#ffffff" stroke="none" d="M1526 2769 c1 -5 2 -10 4 -11 5 -8 7
-39 2 -33 -4 4 -8 11 -8 16 -1 5 -2 10 -4 12 -5 7 -7 38 -2 32 4 -4 8 -11 8
-16z"/>
<path fill="#ffffff" stroke="none" d="M1607 2765 c0 -8 -4 -12 -9 -9 -5 3 -6
10 -3 15 9 13 12 11 12 -6z"/>
<path fill="#ffffff" stroke="none" d="M1495 2761 c-3 -5 -1 -12 5 -16 6 -4 7
-12 3 -18 -4 -7 -8 -15 -8 -19 0 -3 -3 -9 -7 -13 -8 -9 -5 16 5 32 4 6 3 14
-3 18 -10 6 -5 25 6 25 3 0 3 -4 -1 -9z"/>
<path fill="#ffffff" stroke="none" d="M1561 2753 c13 -16 12 -17 -3 -4 -17
13 -22 21 -14 21 2 0 10 -8 17 -17z"/>
<path fill="#ffffff" stroke="none" d="M1670 2767 c0 -2 -11 -14 -24 -26 -18
-17 -26 -19 -31 -10 -5 7 -4 10 2 6 6 -4 18 2 28 13 17 19 25 24 25 17z"/>
<path fill="#ffffff" stroke="none" d="M1686 2745 c-1 -8 -5 -17 -8 -21 -5 -4
-4 16 1 34 3 9 9 -1 7 -13z"/>
<path fill="#ffffff" stroke="none" d="M1480 2736 c0 -2 -8 -10 -17 -17 -16
-13 -17 -12 -4 4 13 16 21 21 21 13z"/>
<path fill="#ffffff" stroke="none" d="M1586 2718 c3 -4 -1 -5 -10 -4 -8 1
-18 5 -22 8 -3 4 1 5 10 4 8 -1 18 -5 22 -8z"/>
<path fill="#ffffff" stroke="none" d="M1653 2718 c-11 -16 -11 -28 2 -48 7
-13 6 -13 -7 -2 -9 7 -15 18 -14 25 2 15 16 37 23 37 3 0 1 -6 -4 -12z"/>
<path fill="#ffffff" stroke="none" d="M1703 2718 c-6 -7 -9 -21 -8 -31 2 -9
0 -15 -5 -12 -13 8 1 55 17 55 3 0 1 -6 -4 -12z"/>
<path fill="#ffffff" stroke="none" d="M1556 2685 c1 -8 -1 -17 -5 -19 -4 -3
-7 6 -7 19 0 25 8 25 12 0z"/>
<path fill="#ffffff" stroke="none" d="M1467 2685 c0 -8 -4 -12 -9 -9 -5 3 -6
10 -3 15 9 13 12 11 12 -6z"/>
<path fill="#ffffff" stroke="none" d="M1590 2685 c-5 -7 -7 -15 -3 -18 3 -4
12 1 20 11 12 16 13 15 6 -3 -3 -11 -2 -17 2 -12 5 4 20 -3 33 -15 14 -13 22
-17 17 -9 -5 9 -4 12 3 7 6 -4 8 -14 5 -23 -4 -10 -2 -14 4 -10 11 7 2 -60
-11 -82 -4 -6 -2 -20 6 -29 12 -15 11 -16 -5 -3 -14 11 -21 11 -29 3 -7 -7
-20 -12 -31 -12 -10 0 -15 -5 -12 -10 4 -6 -10 -1 -30 10 -31 17 -40 19 -54 8
-14 -12 -15 -11 -2 5 11 14 11 20 1 32 -7 8 -9 15 -6 15 4 0 3 8 -3 17 -6 12
-6 24 1 38 10 17 9 18 -4 8 -12 -10 -15 -10 -15 2 0 8 3 13 5 10 6 -6 74 34
84 49 4 6 5 13 3 16 -2 4 2 7 10 7 10 0 12 -4 5 -12z"/>
<path fill="#ffffff" stroke="none" d="M1526 2673 c-1 -7 -8 -19 -16 -26 -12
-10 -12 -9 -2 4 8 10 8 19 1 26 -6 6 -5 10 5 10 7 0 13 -6 12 -14z"/>
<path fill="#ffffff" stroke="none" d="M1724 2681 c3 -5 -2 -15 -12 -22 -15
-12 -16 -12 -5 2 7 9 10 19 6 22 -3 4 -4 7 0 7 3 0 8 -4 11 -9z"/>
<path fill="#ffffff" stroke="none" d="M1494 2672 c3 -5 -11 -24 -32 -43 -20
-19 -27 -22 -14 -8 12 14 19 29 15 33 -5 4 -1 6 7 4 8 -1 14 3 13 10 -3 14 3
16 11 4z"/>
<path fill="#ffffff" stroke="none" d="M1450 2647 c0 -2 -8 -11 -18 -20 -15
-14 -19 -15 -19 -2 0 8 4 12 8 9 4 -2 10 0 14 6 6 10 15 14 15 7z"/>
<path fill="#ffffff" stroke="none" d="M1737 2615 c0 -8 -4 -12 -9 -9 -5 3 -6
10 -3 15 9 13 12 11 12 -6z"/>
<path fill="#ffffff" stroke="none" d="M1766 2612 c-3 -3 0 -12 6 -21 10 -13
10 -14 -2 -4 -16 15 -23 46 -8 37 5 -3 7 -9 4 -12z"/>
<path fill="#ffffff" stroke="none" d="M1396 2605 c-1 -8 -5 -17 -8 -21 -5 -4
-4 16 1 34 3 9 9 -1 7 -13z"/>
<path fill="#ffffff" stroke="none" d="M1470 2606 c0 -2 -8 -10 -17 -17 -16
-13 -17 -12 -4 4 13 16 21 21 21 13z"/>
<path fill="#ffffff" stroke="none" d="M1721 2593 c13 -16 12 -17 -3 -4 -10 7
-18 15 -18 17 0 8 8 3 21 -13z"/>
<path fill="#ffffff" stroke="none" d="M1821 2593 c13 -16 12 -17 -3 -4 -17
13 -22 21 -14 21 2 0 10 -8 17 -17z"/>
<path fill="#ffffff" stroke="none" d="M1367 2585 c0 -8 -4 -12 -9 -9 -5 3 -6
10 -3 15 9 13 12 11 12 -6z"/>
<path fill="#ffffff" stroke="none" d="M1480 2587 c0 -2 -9 -12 -19 -21 -14
-13 -21 -14 -27 -5 -4 7 -3 10 3 6 6 -4 16 0 23 8 12 14 20 19 20 12z"/>
<path fill="#ffffff" stroke="none" d="M1705 2581 c3 -5 2 -12 -3 -15 -5 -3
-9 1 -9 9 0 17 3 19 12 6z"/>
<path fill="#ffffff" stroke="none" d="M1755 2581 c3 -5 2 -12 -3 -15 -5 -3
-9 1 -9 9 0 17 3 19 12 6z"/>
<path fill="#ffffff" stroke="none" d="M1806 2572 c-3 -3 0 -12 6 -21 10 -13
10 -14 -2 -4 -16 15 -23 46 -8 37 5 -3 7 -9 4 -12z"/>
<path fill="#ffffff" stroke="none" d="M1415 2571 c3 -5 2 -12 -3 -15 -5 -3
-9 1 -9 9 0 17 3 19 12 6z"/>
<path fill="#ffffff" stroke="none" d="M1385 2553 c-1 -10 3 -25 9 -33 9 -13
9 -13 -6 -2 -13 10 -16 26 -9 50 4 11 9 -2 6 -15z"/>
<path fill="#ffffff" stroke="none" d="M1495 2561 c3 -5 2 -12 -3 -15 -5 -3
-9 1 -9 9 0 17 3 19 12 6z"/>
<path fill="#ffffff" stroke="none" d="M1722 2558 c-8 -8 -8 -15 -1 -24 7 -8
6 -14 -2 -20 -7 -4 -9 -3 -5 4 3 6 2 14 -4 17 -11 7 4 35 18 35 3 0 1 -5 -6
-12z"/>
<path fill="#ffffff" stroke="none" d="M1772 2558 c-9 -9 -9 -15 1 -27 11 -14
10 -14 -6 -2 -13 10 -15 17 -6 27 6 8 14 14 17 14 3 0 1 -5 -6 -12z"/>
<path fill="#ffffff" stroke="none" d="M1467 2535 c0 -8 -4 -12 -9 -9 -5 3 -6
10 -3 15 9 13 12 11 12 -6z"/>
<path fill="#ffffff" stroke="none" d="M1419 2526 c9 -11 9 -16 -1 -22 -7 -4
-10 -4 -6 1 4 4 3 14 -3 22 -6 7 -9 13 -6 13 2 0 10 -6 16 -14z"/>
<path fill="#ffffff" stroke="none" d="M1510 2524 c0 -8 -19 -13 -24 -6 -3 5
1 9 9 9 8 0 15 -2 15 -3z"/>
<path fill="#ffffff" stroke="none" d="M1697 2513 c0 -9 -4 -10 -14 -2 -7 6
-13 12 -13 14 0 1 6 2 13 2 8 0 14 -6 14 -14z"/>
<path fill="#ffffff" stroke="none" d="M1375 2511 c3 -5 2 -12 -3 -15 -5 -3
-9 1 -9 9 0 17 3 19 12 6z"/>
<path fill="#ffffff" stroke="none" d="M1806 2494 c1 -9 0 -13 -4 -10 -3 4 -7
14 -8 22 -1 9 0 13 4 10 3 -4 7 -14 8 -22z"/>
<path fill="#ffffff" stroke="none" d="M1777 2503 c-4 -3 -1 -13 6 -22 11 -14
10 -14 -5 -2 -16 12 -16 31 -1 31 4 0 3 -3 0 -7z"/>
<path fill="#ffffff" stroke="none" d="M1400 2496 c0 -2 -8 -10 -17 -17 -16
-13 -17 -12 -4 4 13 16 21 21 21 13z"/>
<path fill="#ffffff" stroke="none" d="M1540 2496 c0 -2 -8 -10 -17 -17 -16
-13 -17 -12 -4 4 13 16 21 21 21 13z"/>
<path fill="#ffffff" stroke="none" d="M1731 2483 c13 -16 12 -17 -3 -4 -10 7
-18 15 -18 17 0 8 8 3 21 -13z"/>
<path fill="#ffffff" stroke="none" d="M1420 2486 c0 -2 -8 -10 -17 -17 -16
-13 -17 -12 -4 4 13 16 21 21 21 13z"/>
<path fill="#ffffff" stroke="none" d="M1495 2478 c5 4 5 1 1 -6 -6 -10 -11
-10 -22 -1 -8 6 -14 14 -14 16 0 3 6 0 13 -6 8 -6 18 -7 22 -3z"/>
<path fill="#ffffff" stroke="none" d="M1709 2477 c8 -11 6 -18 -12 -33 -22
-19 -22 -19 -5 2 14 16 15 23 6 32 -7 7 -9 12 -6 12 3 0 11 -6 17 -13z"/>
<path fill="#ffffff" stroke="none" d="M1550 2476 c0 -2 -8 -10 -17 -17 -16
-13 -17 -12 -4 4 13 16 21 21 21 13z"/>
<path fill="#ffffff" stroke="none" d="M1581 2463 c13 -16 12 -17 -3 -4 -10 7
-18 15 -18 17 0 8 8 3 21 -13z"/>
<path fill="#ffffff" stroke="none" d="M1640 2474 c0 -8 -19 -13 -24 -6 -3 5
1 9 9 9 8 0 15 -2 15 -3z"/>
<path fill="#ffffff" stroke="none" d="M1684 2471 c3 -5 -2 -15 -12 -22 -15
-12 -16 -12 -5 2 7 9 10 19 6 22 -3 4 -4 7 0 7 3 0 8 -4 11 -9z"/>
<path fill="#ffffff" stroke="none" d="M1471 2453 c13 -16 12 -17 -3 -4 -10 7
-18 15 -18 17 0 8 8 3 21 -13z"/>
<path fill="#ffffff" stroke="none" d="M1651 2457 c-6 -8 -7 -18 -3 -22 4 -5
1 -5 -6 -1 -10 6 -10 11 -1 22 6 8 14 14 16 14 3 0 0 -6 -6 -13z"/>
<path fill="#ffffff" stroke="none" d="M1507 2445 c0 -8 -4 -12 -9 -9 -5 3 -6
10 -3 15 9 13 12 11 12 -6z"/>
<path fill="#ffffff" stroke="none" d="M1615 2451 c3 -5 2 -12 -3 -15 -5 -3
-9 1 -9 9 0 17 3 19 12 6z"/>
<path fill="#ffffff" stroke="none" d="M1485 2428 c5 4 5 1 1 -6 -6 -10 -11
-10 -22 -1 -8 6 -14 14 -14 16 0 3 6 0 13 -6 8 -6 18 -7 22 -3z"/>
<path fill="#ffffff" stroke="none" d="M1536 2422 c-3 -3 0 -12 6 -21 10 -13
10 -14 -2 -4 -16 15 -23 46 -8 37 5 -3 7 -9 4 -12z"/>
<path fill="#ffffff" stroke="none" d="M1565 2431 c-3 -5 -1 -12 5 -16 5 -3
10 1 10 10 0 14 3 13 20 -3 20 -18 23 -54 5 -69 -4 -5 -5 -2 0 6 5 9 3 12 -6
9 -8 -3 -12 -12 -11 -19 2 -8 0 -10 -5 -6 -4 5 -8 14 -8 20 -1 7 -5 11 -10 10
-6 -1 -9 13 -8 30 2 38 2 37 9 37 3 0 3 -4 -1 -9z"/>
<path fill="#ffffff" stroke="none" d="M1717 2425 c0 -8 -4 -12 -9 -9 -5 3 -6
10 -3 15 9 13 12 11 12 -6z"/>
<path fill="#ffffff" stroke="none" d="M1665 2396 c0 -19 -3 -37 -6 -40 -4 -5
-4 62 0 72 4 10 7 -4 6 -32z"/>
<path fill="#ffffff" stroke="none" d="M1455 2411 c3 -5 2 -12 -3 -15 -5 -3
-9 1 -9 9 0 17 3 19 12 6z"/>
<path fill="#ffffff" stroke="none" d="M1506 2405 c-1 -8 -5 -17 -8 -21 -5 -4
-4 16 1 34 3 9 9 -1 7 -13z"/>
<path fill="#ffffff" stroke="none" d="M1695 2411 c3 -5 2 -12 -3 -15 -5 -3
-9 1 -9 9 0 17 3 19 12 6z"/>
<path fill="#ffffff" stroke="none" d="M1476 2385 c-1 -8 -8 -21 -16 -28 -10
-10 -11 -9 -4 3 5 8 9 18 10 23 3 14 4 17 8 17 2 0 3 -7 2 -15z"/>
<path fill="#ffffff" stroke="none" d="M1534 2382 c3 -5 -1 -9 -9 -9 -8 0 -12
4 -9 9 3 4 7 8 9 8 2 0 6 -4 9 -8z"/>
<path fill="#ffffff" stroke="none" d="M1500 2366 c0 -2 -8 -10 -17 -17 -16
-13 -17 -12 -4 4 13 16 21 21 21 13z"/>
<path fill="#ffffff" stroke="none" d="M1517 2345 c0 -8 -4 -12 -9 -9 -5 3 -6
10 -3 15 9 13 12 11 12 -6z"/>
<path fill="#ffffff" stroke="none" d="M1550 2345 c-5 -7 -9 -14 -7 -16 1 -2
0 -3 -2 -1 -11 7 -7 29 5 29 9 0 11 -4 4 -12z"/>
<path fill="#ffffff" stroke="none" d="M1636 2345 c-1 -8 -5 -17 -8 -21 -5 -4
-4 16 1 34 3 9 9 -1 7 -13z"/>
<path fill="#ffffff" stroke="none" d="M1574 2331 c3 -5 -2 -15 -12 -22 -15
-12 -16 -12 -5 2 7 9 10 19 6 22 -3 4 -4 7 0 7 3 0 8 -4 11 -9z"/>
<path fill="#ffffff" stroke="none" d="M1607 2325 c0 -8 -4 -12 -9 -9 -5 3 -6
10 -3 15 9 13 12 11 12 -6z"/>
<path fill="#ffffff" stroke="none" d="M1671 2323 c13 -16 12 -17 -3 -4 -10 7
-18 15 -18 17 0 8 8 3 21 -13z"/>
<path fill="#ffffff" stroke="none" d="M1535 2311 c3 -5 2 -12 -3 -15 -5 -3
-9 1 -9 9 0 17 3 19 12 6z"/>
<path fill="#ffffff" stroke="none" d="M1661 2303 c13 -16 12 -17 -3 -4 -10 7
-18 15 -18 17 0 8 8 3 21 -13z"/>
<path fill="#ffffff" stroke="none" d="M1590 2306 c0 -2 -8 -10 -17 -17 -16
-13 -17 -12 -4 4 13 16 21 21 21 13z"/>
<path fill="#ffffff" stroke="none" d="M1634 2301 c3 -4 -7 -19 -22 -32 l-27
-24 23 26 c12 14 19 29 15 32 -3 4 -4 7 0 7 3 0 8 -4 11 -9z"/>
<path fill="#ffffff" stroke="none" d="M1514 2278 c1 -7 5 -20 10 -28 7 -12 6
-13 -4 -3 -8 7 -15 23 -17 35 -2 12 -1 19 3 16 3 -3 6 -12 8 -20z"/>
<path fill="#ffffff" stroke="none" d="M1610 2296 c0 -2 -8 -10 -17 -17 -16
-13 -17 -12 -4 4 13 16 21 21 21 13z"/>
<path fill="#ffffff" stroke="none" d="M1547 2275 c0 -8 -4 -12 -9 -9 -5 3 -6
10 -3 15 9 13 12 11 12 -6z"/>
<path fill="#ffffff" stroke="none" d="M1646 2265 c-1 -8 -5 -17 -8 -21 -5 -4
-4 16 1 34 3 9 9 -1 7 -13z"/>
<path fill="#ffffff" stroke="none" d="M1568 2243 c-17 -21 -18 -54 -1 -74 11
-14 11 -18 -4 -30 -16 -12 -17 -12 -6 2 10 12 10 18 1 27 -15 15 -18 81 -4 79
6 -1 10 4 8 11 -1 8 2 11 8 7 8 -5 7 -12 -2 -22z"/>
<path fill="#ffffff" stroke="none" d="M1700 2256 c0 -2 -8 -10 -17 -17 -16
-13 -17 -12 -4 4 13 16 21 21 21 13z"/>
<path fill="#ffffff" stroke="none" d="M1506 2215 c0 -14 -7 -32 -16 -40 -14
-13 -17 -13 -17 -1 0 8 5 14 11 13 6 -1 11 12 10 30 -1 37 10 35 12 -2z"/>
<path fill="#ffffff" stroke="none" d="M1620 2246 c0 -2 -6 -9 -14 -15 -11 -9
-16 -9 -22 0 -4 7 -3 9 4 5 6 -3 13 -2 17 4 6 10 15 14 15 6z"/>
<path fill="#ffffff" stroke="none" d="M1657 2225 c0 -8 -4 -12 -9 -9 -5 3 -6
10 -3 15 9 13 12 11 12 -6z"/>
<path fill="#ffffff" stroke="none" d="M1622 2218 c-8 -8 -8 -15 -1 -24 7 -8
6 -14 -2 -20 -7 -4 -9 -3 -5 4 3 6 2 14 -4 17 -11 7 4 35 18 35 3 0 1 -5 -6
-12z"/>
<path fill="#ffffff" stroke="none" d="M1676 2174 c1 -9 0 -13 -4 -10 -3 4 -7
14 -8 22 -1 9 0 13 4 10 3 -4 7 -14 8 -22z"/>
<path fill="#ffffff" stroke="none" d="M1526 2175 c-3 -23 -22 -39 -31 -26 -3
7 -1 10 6 9 7 -2 14 3 15 10 2 19 4 22 8 22 2 0 3 -7 2 -15z"/>
<path fill="#ffffff" stroke="none" d="M1597 2173 c0 -9 -4 -10 -14 -2 -7 6
-13 12 -13 14 0 1 6 2 13 2 8 0 14 -6 14 -14z"/>
<path fill="#ffffff" stroke="none" d="M1705 2181 c3 -5 2 -12 -3 -15 -5 -3
-9 1 -9 9 0 17 3 19 12 6z"/>
<path fill="#ffffff" stroke="none" d="M1455 2153 c-1 -10 3 -25 9 -33 9 -13
9 -13 -6 -2 -13 10 -16 26 -9 50 4 11 9 -2 6 -15z"/>
<path fill="#ffffff" stroke="none" d="M1745 2153 c-1 -10 3 -25 9 -33 9 -13
9 -13 -6 -2 -13 10 -16 26 -9 50 4 11 9 -2 6 -15z"/>
<path fill="#ffffff" stroke="none" d="M1541 2147 c-6 -8 -7 -18 -3 -22 4 -5
1 -5 -6 -1 -10 6 -10 11 -1 22 6 8 14 14 16 14 3 0 0 -6 -6 -13z"/>
<path fill="#ffffff" stroke="none" d="M1655 2143 c-1 -10 4 -25 11 -34 13
-14 12 -18 -3 -30 -16 -12 -17 -12 -5 2 10 13 10 19 -2 28 -11 10 -14 26 -7
49 4 11 9 -2 6 -15z"/>
<path fill="#ffffff" stroke="none" d="M1495 2122 c-3 -3 0 -11 5 -17 7 -9 5
-17 -7 -26 -16 -12 -17 -12 -6 2 10 12 10 18 1 27 -7 7 -8 12 -4 12 5 0 2 8
-5 18 -13 15 -12 16 4 3 9 -8 15 -16 12 -19z"/>
<path fill="#ffffff" stroke="none" d="M1604 2141 c3 -4 -3 -16 -13 -25 -14
-13 -18 -14 -18 -2 0 8 5 14 11 13 6 -1 10 4 9 11 -3 14 3 16 11 3z"/>
<path fill="#ffffff" stroke="none" d="M1700 2145 c0 -2 -6 -8 -13 -14 -10 -8
-14 -7 -14 2 0 8 6 14 14 14 7 0 13 -1 13 -2z"/>
<path fill="#ffffff" stroke="none" d="M1425 2123 c-1 -10 4 -25 11 -34 12
-13 10 -19 -14 -40 l-27 -24 23 26 c19 22 21 28 8 38 -11 10 -14 26 -7 49 4
11 9 -2 6 -15z"/>
<path fill="#ffffff" stroke="none" d="M1711 2127 c-6 -8 -8 -16 -5 -19 3 -3
1 -9 -4 -12 -6 -3 -9 0 -8 6 2 16 15 38 23 38 3 0 0 -6 -6 -13z"/>
<path fill="#ffffff" stroke="none" d="M1397 2115 c0 -8 -4 -12 -9 -9 -5 3 -6
10 -3 15 9 13 12 11 12 -6z"/>
<path fill="#ffffff" stroke="none" d="M1626 2115 c-3 -23 -22 -39 -31 -26 -3
7 -1 10 6 9 7 -2 14 3 15 10 2 19 4 22 8 22 2 0 3 -7 2 -15z"/>
<path fill="#ffffff" stroke="none" d="M1787 2123 c-4 -3 -2 -12 4 -19 7 -8 6
-14 -2 -20 -7 -4 -9 -3 -5 4 3 6 2 13 -4 17 -10 6 -5 25 7 25 4 0 3 -3 0 -7z"/>
<path fill="#ffffff" stroke="none" d="M1555 2103 c-1 -10 4 -25 12 -35 11
-12 11 -18 2 -24 -7 -4 -10 -3 -6 3 4 6 1 16 -7 22 -11 10 -14 26 -7 49 4 11
9 -2 6 -15z"/>
<path fill="#ffffff" stroke="none" d="M1734 2111 c3 -4 -4 -17 -17 -27 -22
-19 -22 -19 -4 2 9 11 14 24 10 27 -3 4 -4 7 0 7 3 0 8 -4 11 -9z"/>
<path fill="#ffffff" stroke="none" d="M1475 2098 c5 4 5 1 1 -6 -6 -10 -11
-10 -22 -1 -8 6 -14 14 -14 16 0 3 6 0 13 -6 8 -6 18 -7 22 -3z"/>
<path fill="#ffffff" stroke="none" d="M1643 2088 c-6 -7 -9 -21 -8 -30 2 -10
0 -20 -4 -23 -4 -2 -7 6 -7 18 2 23 13 47 23 47 3 0 1 -6 -4 -12z"/>
<path fill="#ffffff" stroke="none" d="M1766 2074 c1 -9 0 -13 -4 -10 -3 4 -7
14 -8 22 -1 9 0 13 4 10 3 -4 7 -14 8 -22z"/>
<path fill="#ffffff" stroke="none" d="M1831 2083 c13 -16 12 -17 -3 -4 -17
13 -22 21 -14 21 2 0 10 -8 17 -17z"/>
<path fill="#ffffff" stroke="none" d="M1400 2086 c0 -2 -8 -10 -17 -17 -16
-13 -17 -12 -4 4 13 16 21 21 21 13z"/>
<path fill="#ffffff" stroke="none" d="M1530 2086 c0 -2 -8 -10 -17 -17 -16
-13 -17 -12 -4 4 13 16 21 21 21 13z"/>
<path fill="#ffffff" stroke="none" d="M1595 2070 c10 -11 16 -20 13 -20 -3 0
-13 9 -23 20 -10 11 -16 20 -13 20 3 0 13 -9 23 -20z"/>
<path fill="#ffffff" stroke="none" d="M1420 2076 c0 -2 -8 -10 -17 -17 -16
-13 -17 -12 -4 4 13 16 21 21 21 13z"/>
<path fill="#ffffff" stroke="none" d="M1740 2076 c0 -2 -8 -10 -17 -17 -16
-13 -17 -12 -4 4 13 16 21 21 21 13z"/>
<path fill="#ffffff" stroke="none" d="M1356 2055 c-1 -8 -5 -17 -8 -21 -5 -4
-4 16 1 34 3 9 9 -1 7 -13z"/>
<path fill="#ffffff" stroke="none" d="M1466 2055 c-1 -8 -5 -17 -8 -21 -5 -4
-4 16 1 34 3 9 9 -1 7 -13z"/>
<path fill="#ffffff" stroke="none" d="M1540 2066 c0 -2 -8 -10 -17 -17 -16
-13 -17 -12 -4 4 13 16 21 21 21 13z"/>
<path fill="#ffffff" stroke="none" d="M1794 2061 c3 -5 -1 -14 -8 -20 -10 -9
-16 -9 -21 -1 -4 6 -1 9 7 8 7 -2 12 3 11 10 -3 14 3 16 11 3z"/>
<path fill="#ffffff" stroke="none" d="M1304 2051 c3 -5 -1 -14 -8 -20 -10 -9
-16 -9 -21 -1 -4 6 -1 9 7 8 7 -2 12 3 11 10 -3 14 3 16 11 3z"/>
<path fill="#ffffff" stroke="none" d="M1494 2051 c3 -5 -2 -15 -12 -22 -15
-12 -16 -12 -5 2 7 9 10 19 6 22 -3 4 -4 7 0 7 3 0 8 -4 11 -9z"/>
<path fill="#ffffff" stroke="none" d="M1695 2043 c-1 -10 2 -23 7 -30 6 -7 5
-14 -3 -19 -7 -4 -9 -3 -5 4 3 6 2 13 -3 16 -7 5 -8 23 -2 44 4 11 9 -2 6 -15z"/>
<path fill="#ffffff" stroke="none" d="M1747 2053 c-4 -3 -1 -13 6 -22 11 -14
10 -14 -5 -2 -16 12 -16 31 -1 31 4 0 3 -3 0 -7z"/>
<path fill="#ffffff" stroke="none" d="M1860 2055 c0 -1 -15 -14 -32 -31 -27
-23 -29 -24 -10 -3 12 14 20 28 17 31 -3 2 2 5 10 5 8 0 15 -1 15 -2z"/>
<path fill="#ffffff" stroke="none" d="M1905 2051 c3 -5 2 -12 -3 -15 -5 -3
-9 1 -9 9 0 17 3 19 12 6z"/>
<path fill="#ffffff" stroke="none" d="M1257 2043 c-4 -3 -1 -13 6 -22 11 -14
10 -14 -5 -2 -16 12 -16 31 -1 31 4 0 3 -3 0 -7z"/>
<path fill="#ffffff" stroke="none" d="M1550 2046 c0 -2 -8 -10 -17 -17 -16
-13 -17 -12 -4 4 13 16 21 21 21 13z"/>
<path fill="#ffffff" stroke="none" d="M1820 2046 c0 -2 -8 -10 -17 -17 -16
-13 -17 -12 -4 4 13 16 21 21 21 13z"/>
<path fill="#ffffff" stroke="none" d="M1876 2036 c-1 -8 -7 -20 -14 -28 -6
-8 -10 -18 -7 -21 3 -4 2 -5 -2 -2 -12 9 -12 35 0 32 6 -1 12 4 13 11 2 19 4
22 8 22 2 0 3 -6 2 -14z"/>
<path fill="#ffffff" stroke="none" d="M1940 2046 c0 -2 -8 -10 -17 -17 -16
-13 -17 -12 -4 4 13 16 21 21 21 13z"/>
<path fill="#ffffff" stroke="none" d="M1330 2036 c0 -2 -8 -10 -17 -17 -16
-13 -17 -12 -4 4 13 16 21 21 21 13z"/>
<path fill="#ffffff" stroke="none" d="M1436 2025 c-1 -8 -8 -21 -16 -28 -10
-10 -11 -9 -4 3 5 8 9 18 10 23 3 14 4 17 8 17 2 0 3 -7 2 -15z"/>
<path fill="#ffffff" stroke="none" d="M1587 2033 c-4 -3 -2 -12 3 -18 7 -9 5
-17 -7 -26 -16 -13 -17 -12 -5 3 9 11 10 18 2 23 -10 6 -5 25 7 25 4 0 3 -3 0
-7z"/>
<path fill="#ffffff" stroke="none" d="M1729 2026 c9 -11 9 -16 -1 -22 -7 -4
-10 -4 -6 1 4 4 3 14 -3 22 -6 7 -9 13 -6 13 2 0 10 -6 16 -14z"/>
<path fill="#ffffff" stroke="none" d="M1367 2023 c-4 -3 -2 -12 4 -19 7 -8 6
-14 -2 -20 -7 -4 -9 -3 -5 4 3 6 2 13 -4 17 -10 6 -5 25 7 25 4 0 3 -3 0 -7z"/>
<path fill="#ffffff" stroke="none" d="M1510 2026 c0 -2 -8 -10 -17 -17 -16
-13 -17 -12 -4 4 13 16 21 21 21 13z"/>
<path fill="#ffffff" stroke="none" d="M1560 2026 c0 -2 -8 -10 -17 -17 -16
-13 -17 -12 -4 4 13 16 21 21 21 13z"/>
<path fill="#ffffff" stroke="none" d="M1670 2025 c0 -2 -6 -8 -13 -14 -10 -8
-14 -7 -14 2 0 8 6 14 14 14 7 0 13 -1 13 -2z"/>
<path fill="#ffffff" stroke="none" d="M1180 2016 c0 -2 -6 -9 -14 -15 -11 -9
-16 -9 -22 0 -4 7 -3 9 4 5 6 -3 13 -2 17 4 6 10 15 14 15 6z"/>
<path fill="#ffffff" stroke="none" d="M1246 1984 c0 -13 -2 -22 -5 -19 -3 3
-6 17 -7 31 0 13 2 22 5 19 3 -3 6 -17 7 -31z"/>
<path fill="#ffffff" stroke="none" d="M1340 2016 c0 -2 -8 -10 -17 -17 -16
-13 -17 -12 -4 4 13 16 21 21 21 13z"/>
<path fill="#ffffff" stroke="none" d="M1410 2014 c0 -8 -19 -13 -24 -6 -3 5
1 9 9 9 8 0 15 -2 15 -3z"/>
<path fill="#ffffff" stroke="none" d="M1627 2005 c0 -8 -4 -12 -9 -9 -5 3 -6
10 -3 15 9 13 12 11 12 -6z"/>
<path fill="#ffffff" stroke="none" d="M1784 2011 c3 -5 -2 -15 -12 -22 -15
-12 -16 -12 -5 2 7 9 10 19 6 22 -3 4 -4 7 0 7 3 0 8 -4 11 -9z"/>
<path fill="#ffffff" stroke="none" d="M1897 2013 c-4 -3 -1 -13 6 -22 11 -14
10 -14 -5 -2 -16 12 -16 31 -1 31 4 0 3 -3 0 -7z"/>
<path fill="#ffffff" stroke="none" d="M2005 1983 c-1 -15 5 -37 14 -48 15
-19 15 -19 -4 -2 -18 16 -31 92 -15 82 4 -2 6 -17 5 -32z"/>
<path fill="#ffffff" stroke="none" d="M1193 1998 c-6 -7 -9 -25 -8 -41 2 -30
-18 -56 -30 -37 -4 6 -1 9 6 8 8 -2 13 8 14 27 0 29 11 55 22 55 3 0 1 -6 -4
-12z"/>
<path fill="#ffffff" stroke="none" d="M1562 1998 c-8 -8 -8 -15 -1 -24 7 -8
6 -14 -2 -20 -7 -4 -9 -3 -5 4 3 6 2 14 -4 17 -11 7 4 35 18 35 3 0 1 -5 -6
-12z"/>
<path fill="#ffffff" stroke="none" d="M1677 1995 c0 -8 -4 -12 -9 -9 -5 3 -6
10 -3 15 9 13 12 11 12 -6z"/>
<path fill="#ffffff" stroke="none" d="M1751 1997 c-6 -8 -9 -16 -6 -19 3 -3
-1 -11 -9 -17 -10 -8 -16 -9 -21 -1 -4 6 -1 9 6 8 7 -2 13 2 14 7 0 13 14 35
22 35 3 0 0 -6 -6 -13z"/>
<path fill="#ffffff" stroke="none" d="M1955 1983 c-1 -16 3 -35 9 -43 9 -13
9 -13 -5 -3 -12 10 -18 50 -10 71 4 10 8 -3 6 -25z"/>
<path fill="#ffffff" stroke="none" d="M1145 1980 c10 -11 16 -20 13 -20 -3 0
-13 9 -23 20 -10 11 -16 20 -13 20 3 0 13 -9 23 -20z"/>
<path fill="#ffffff" stroke="none" d="M1217 1985 c0 -8 -4 -12 -9 -9 -5 3 -6
10 -3 15 9 13 12 11 12 -6z"/>
<path fill="#ffffff" stroke="none" d="M1275 1991 c3 -5 2 -12 -3 -15 -5 -3
-9 1 -9 9 0 17 3 19 12 6z"/>
<path fill="#ffffff" stroke="none" d="M1347 1985 c0 -8 -4 -12 -9 -9 -5 3 -6
10 -3 15 9 13 12 11 12 -6z"/>
<path fill="#ffffff" stroke="none" d="M1827 1993 c-4 -3 -2 -12 4 -19 7 -8 6
-14 -2 -20 -7 -4 -9 -3 -5 4 3 6 2 13 -4 17 -10 6 -5 25 7 25 4 0 3 -3 0 -7z"/>
<path fill="#ffffff" stroke="none" d="M1466 1975 c-1 -8 -5 -17 -8 -21 -5 -4
-4 16 1 34 3 9 9 -1 7 -13z"/>
<path fill="#ffffff" stroke="none" d="M1495 1981 c3 -5 2 -12 -3 -15 -5 -3
-9 1 -9 9 0 17 3 19 12 6z"/>
<path fill="#ffffff" stroke="none" d="M1527 1983 c-4 -3 -2 -12 4 -19 7 -8 6
-14 -2 -20 -7 -4 -9 -3 -5 4 3 6 2 13 -4 17 -10 6 -5 25 7 25 4 0 3 -3 0 -7z"/>
<path fill="#ffffff" stroke="none" d="M1607 1983 c-4 -3 -2 -12 3 -18 7 -9 5
-17 -7 -26 -16 -13 -17 -12 -5 3 9 11 10 18 2 23 -10 6 -5 25 7 25 4 0 3 -3 0
-7z"/>
<path fill="#ffffff" stroke="none" d="M1661 1973 c13 -16 12 -17 -3 -4 -10 7
-18 15 -18 17 0 8 8 3 21 -13z"/>
<path fill="#ffffff" stroke="none" d="M1884 1981 c3 -5 -1 -14 -8 -20 -10 -9
-16 -9 -21 -1 -4 6 -1 9 7 8 7 -2 12 3 11 10 -3 14 3 16 11 3z"/>
<path fill="#ffffff" stroke="none" d="M2067 1983 c-4 -3 -2 -12 4 -19 7 -8 6
-14 -2 -20 -7 -4 -9 -3 -5 4 3 6 2 13 -4 17 -10 6 -5 25 7 25 4 0 3 -3 0 -7z"/>
<path fill="#ffffff" stroke="none" d="M1131 1963 c13 -16 12 -17 -3 -4 -10 7
-18 15 -18 17 0 8 8 3 21 -13z"/>
<path fill="#ffffff" stroke="none" d="M1297 1965 c0 -8 -4 -12 -9 -9 -5 3 -6
10 -3 15 9 13 12 11 12 -6z"/>
<path fill="#ffffff" stroke="none" d="M1326 1962 c-3 -3 0 -12 6 -21 10 -13
10 -14 -2 -4 -16 15 -23 46 -8 37 5 -3 7 -9 4 -12z"/>
<path fill="#ffffff" stroke="none" d="M1411 1967 c-6 -8 -7 -18 -3 -22 4 -5
1 -5 -6 -1 -10 6 -10 11 -1 22 6 8 14 14 16 14 3 0 0 -6 -6 -13z"/>
<path fill="#ffffff" stroke="none" d="M1644 1961 c14 -15 15 -21 4 -27 -7 -4
-10 -3 -5 1 4 5 0 17 -10 27 -9 10 -14 18 -11 18 3 0 13 -9 22 -19z"/>
<path fill="#ffffff" stroke="none" d="M1697 1973 c-4 -3 -1 -13 6 -22 11 -14
10 -14 -5 -2 -16 12 -16 31 -1 31 4 0 3 -3 0 -7z"/>
<path fill="#ffffff" stroke="none" d="M2110 1974 c0 -8 -19 -13 -24 -6 -3 5
1 9 9 9 8 0 15 -2 15 -3z"/>
<path fill="#ffffff" stroke="none" d="M1027 1963 c-4 -3 -1 -13 6 -22 11 -14
10 -14 -5 -2 -16 12 -16 31 -1 31 4 0 3 -3 0 -7z"/>
<path fill="#ffffff" stroke="none" d="M1109 1956 c9 -11 9 -16 -1 -22 -7 -4
-10 -4 -6 1 4 4 3 14 -3 22 -6 7 -9 13 -6 13 2 0 10 -6 16 -14z"/>
<path fill="#ffffff" stroke="none" d="M1436 1955 c-1 -8 -8 -21 -16 -28 -10
-10 -11 -9 -4 3 5 8 9 18 10 23 3 14 4 17 8 17 2 0 3 -7 2 -15z"/>
<path fill="#ffffff" stroke="none" d="M1774 1961 c3 -5 -1 -14 -8 -20 -10 -9
-16 -9 -21 -1 -4 6 -1 9 7 8 7 -2 12 3 11 10 -3 14 3 16 11 3z"/>
<path fill="#ffffff" stroke="none" d="M1807 1955 c0 -8 -4 -12 -9 -9 -5 3 -6
10 -3 15 9 13 12 11 12 -6z"/>
<path fill="#ffffff" stroke="none" d="M1910 1967 c0 -2 -10 -12 -22 -23 l-23
-19 19 23 c18 21 26 27 26 19z"/>
<path fill="#ffffff" stroke="none" d="M2126 1955 c-1 -8 -5 -17 -8 -21 -5 -4
-4 16 1 34 3 9 9 -1 7 -13z"/>
<path fill="#ffffff" stroke="none" d="M996 1945 c-1 -8 -5 -17 -8 -21 -5 -4
-4 16 1 34 3 9 9 -1 7 -13z"/>
<path fill="#ffffff" stroke="none" d="M1225 1952 c-3 -3 0 -11 5 -17 7 -8 3
-18 -13 -31 -22 -19 -22 -19 -5 2 16 18 16 22 2 35 -13 14 -13 16 1 16 8 0 13
-3 10 -5z"/>
<path fill="#ffffff" stroke="none" d="M1281 1943 c13 -16 12 -17 -3 -4 -10 7
-18 15 -18 17 0 8 8 3 21 -13z"/>
<path fill="#ffffff" stroke="none" d="M1359 1946 c9 -11 9 -16 -1 -22 -7 -4
-10 -4 -6 1 4 4 3 14 -3 22 -6 7 -9 13 -6 13 2 0 10 -6 16 -14z"/>
<path fill="#ffffff" stroke="none" d="M1507 1953 c-4 -3 -1 -13 6 -22 11 -14
10 -14 -5 -2 -16 12 -16 31 -1 31 4 0 3 -3 0 -7z"/>
<path fill="#ffffff" stroke="none" d="M1582 1948 c-9 -9 -8 -16 6 -32 17 -21
17 -21 -5 -2 -18 15 -20 22 -12 33 6 7 14 13 17 13 3 0 1 -5 -6 -12z"/>
<path fill="#ffffff" stroke="none" d="M1926 1945 c-3 -23 -22 -39 -31 -26 -3
7 -1 10 6 9 7 -2 14 3 15 10 2 19 4 22 8 22 2 0 3 -7 2 -15z"/>
<path fill="#ffffff" stroke="none" d="M2047 1943 c0 -9 -4 -10 -14 -2 -7 6
-13 12 -13 14 0 1 6 2 13 2 8 0 14 -6 14 -14z"/>
<path fill="#ffffff" stroke="none" d="M2175 1937 c1 -7 7 -11 14 -9 8 1 10
-2 4 -10 -4 -7 -8 -16 -8 -20 0 -3 -3 -9 -7 -13 -3 -4 -5 1 -4 12 2 10 1 23
-3 28 -8 15 -11 38 -3 30 4 -4 7 -12 7 -18z"/>
<path fill="#ffffff" stroke="none" d="M2219 1913 c-6 -7 -14 -13 -17 -13 -3
0 -1 5 6 12 9 9 8 16 -6 32 -17 21 -17 21 5 2 18 -15 20 -22 12 -33z"/>
<path fill="#ffffff" stroke="none" d="M1087 1943 c-4 -3 -2 -12 3 -18 7 -9 6
-16 -4 -24 -11 -9 -16 -9 -22 0 -4 7 -3 9 4 5 6 -3 13 -2 16 3 4 5 2 12 -4 16
-10 6 -5 25 7 25 4 0 3 -3 0 -7z"/>
<path fill="#ffffff" stroke="none" d="M1264 1931 c14 -15 15 -21 4 -27 -7 -4
-10 -3 -5 1 4 5 0 17 -10 27 -9 10 -14 18 -11 18 3 0 13 -9 22 -19z"/>
<path fill="#ffffff" stroke="none" d="M2097 1935 c0 -8 -4 -12 -9 -9 -5 3 -6
10 -3 15 9 13 12 11 12 -6z"/>
<path fill="#ffffff" stroke="none" d="M1051 1917 c-10 -9 -11 -8 -5 6 3 10 9
15 12 12 3 -3 0 -11 -7 -18z"/>
<path fill="#ffffff" stroke="none" d="M1135 1931 c-3 -5 -1 -12 5 -16 6 -4 7
-12 3 -18 -4 -7 -8 -15 -8 -19 0 -3 -3 -9 -7 -13 -8 -9 -5 16 5 32 4 6 3 14
-3 18 -10 6 -5 25 6 25 3 0 3 -4 -1 -9z"/>
<path fill="#ffffff" stroke="none" d="M1466 1914 c1 -9 0 -13 -4 -10 -3 4 -7
14 -8 22 -1 9 0 13 4 10 3 -4 7 -14 8 -22z"/>
<path fill="#ffffff" stroke="none" d="M1546 1915 c-1 -13 -4 -27 -7 -30 -5
-4 -4 41 0 53 4 10 8 -2 7 -23z"/>
<path fill="#ffffff" stroke="none" d="M1626 1925 c-1 -8 -5 -17 -8 -21 -5 -4
-4 16 1 34 3 9 9 -1 7 -13z"/>
<path fill="#ffffff" stroke="none" d="M1736 1914 c1 -9 0 -13 -4 -10 -3 4 -7
14 -8 22 -1 9 0 13 4 10 3 -4 7 -14 8 -22z"/>
<path fill="#ffffff" stroke="none" d="M1821 1906 c-17 -18 -18 -25 -8 -36 10
-12 9 -12 -6 -1 -17 13 -17 15 3 36 11 12 17 25 13 30 -5 4 -2 5 5 1 11 -6 9
-13 -7 -30z"/>
<path fill="#ffffff" stroke="none" d="M2001 1923 c13 -16 12 -17 -3 -4 -10 7
-18 15 -18 17 0 8 8 3 21 -13z"/>
<path fill="#ffffff" stroke="none" d="M2147 1933 c-4 -3 -1 -13 6 -22 11 -14
10 -14 -5 -2 -16 12 -16 31 -1 31 4 0 3 -3 0 -7z"/>
<path fill="#ffffff" stroke="none" d="M2257 1925 c0 -8 -4 -12 -9 -9 -5 3 -6
10 -3 15 9 13 12 11 12 -6z"/>
<path fill="#ffffff" stroke="none" d="M897 1915 c0 -8 -4 -12 -9 -9 -5 3 -6
10 -3 15 9 13 12 11 12 -6z"/>
<path fill="#ffffff" stroke="none" d="M926 1904 c1 -9 0 -13 -4 -10 -3 4 -7
14 -8 22 -1 9 0 13 4 10 3 -4 7 -14 8 -22z"/>
<path fill="#ffffff" stroke="none" d="M1024 1922 c3 -5 -1 -9 -9 -9 -8 0 -12
4 -9 9 3 4 7 8 9 8 2 0 6 -4 9 -8z"/>
<path fill="#ffffff" stroke="none" d="M1210 1926 c0 -2 -8 -10 -17 -17 -16
-13 -17 -12 -4 4 13 16 21 21 21 13z"/>
<path fill="#ffffff" stroke="none" d="M1496 1905 c1 -8 -1 -17 -5 -19 -4 -3
-7 6 -7 19 0 25 8 25 12 0z"/>
<path fill="#ffffff" stroke="none" d="M1707 1923 c-4 -3 -1 -13 6 -22 11 -14
10 -14 -5 -2 -16 12 -16 31 -1 31 4 0 3 -3 0 -7z"/>
<path fill="#ffffff" stroke="none" d="M1810 1926 c0 -2 -8 -10 -17 -17 -16
-13 -17 -12 -4 4 13 16 21 21 21 13z"/>
<path fill="#ffffff" stroke="none" d="M1956 1918 c4 -7 4 -10 -1 -6 -4 4 -15
2 -24 -5 -14 -11 -14 -10 -2 6 16 20 18 21 27 5z"/>
<path fill="#ffffff" stroke="none" d="M1337 1913 c-4 -3 -1 -13 6 -22 11 -14
10 -14 -5 -2 -16 12 -16 31 -1 31 4 0 3 -3 0 -7z"/>
<path fill="#ffffff" stroke="none" d="M1440 1916 c0 -2 -6 -9 -14 -15 -11 -9
-16 -9 -22 0 -4 7 -3 9 4 5 6 -3 13 -2 17 4 6 10 15 14 15 6z"/>
<path fill="#ffffff" stroke="none" d="M1661 1903 c13 -16 12 -17 -3 -4 -10 7
-18 15 -18 17 0 8 8 3 21 -13z"/>
<path fill="#ffffff" stroke="none" d="M1765 1911 c3 -5 2 -12 -3 -15 -5 -3
-9 1 -9 9 0 17 3 19 12 6z"/>
<path fill="#ffffff" stroke="none" d="M1855 1903 c-1 -10 3 -25 9 -33 9 -13
9 -13 -6 -2 -13 10 -16 26 -9 50 4 11 9 -2 6 -15z"/>
<path fill="#ffffff" stroke="none" d="M1877 1909 c-1 -3 4 -13 12 -22 7 -10
10 -17 6 -17 -4 0 -1 -8 6 -17 13 -16 12 -17 -3 -5 -10 8 -17 17 -16 20 0 4
-1 9 -2 12 -4 11 -8 42 -5 38 2 -1 3 -6 2 -9z"/>
<path fill="#ffffff" stroke="none" d="M1991 1903 c13 -16 12 -17 -3 -4 -10 7
-18 15 -18 17 0 8 8 3 21 -13z"/>
<path fill="#ffffff" stroke="none" d="M2055 1911 c3 -5 2 -12 -3 -15 -5 -3
-9 1 -9 9 0 17 3 19 12 6z"/>
<path fill="#ffffff" stroke="none" d="M2129 1906 c9 -11 9 -16 -1 -22 -7 -4
-10 -4 -6 1 4 4 3 14 -3 22 -6 7 -9 13 -6 13 2 0 10 -6 16 -14z"/>
<path fill="#ffffff" stroke="none" d="M954 1901 c3 -5 -2 -15 -12 -22 -15
-12 -16 -12 -5 2 7 9 10 19 6 22 -3 4 -4 7 0 7 3 0 8 -4 11 -9z"/>
<path fill="#ffffff" stroke="none" d="M987 1903 c-4 -3 0 -14 9 -24 12 -13
12 -19 3 -25 -7 -4 -10 -3 -6 3 4 6 0 16 -8 23 -14 11 -12 30 2 30 4 0 3 -3 0
-7z"/>
<path fill="#ffffff" stroke="none" d="M1120 1907 c0 -2 -10 -12 -22 -23 l-23
-19 19 23 c18 21 26 27 26 19z"/>
<path fill="#ffffff" stroke="none" d="M1375 1882 c-3 -3 0 -11 6 -18 7 -9 6
-14 -3 -20 -7 -4 -10 -4 -6 1 4 4 3 14 -3 22 -6 7 -8 13 -4 13 4 0 1 8 -6 18
-13 15 -12 16 4 3 9 -8 15 -16 12 -19z"/>
<path fill="#ffffff" stroke="none" d="M1574 1901 c3 -5 -2 -15 -12 -22 -15
-12 -16 -12 -5 2 7 9 10 19 6 22 -3 4 -4 7 0 7 3 0 8 -4 11 -9z"/>
<path fill="#ffffff" stroke="none" d="M2026 1895 c-1 -8 -5 -17 -8 -21 -5 -4
-4 16 1 34 3 9 9 -1 7 -13z"/>
<path fill="#ffffff" stroke="none" d="M2097 1899 c-1 -3 4 -13 12 -22 7 -10
10 -17 6 -17 -4 0 -1 -8 6 -17 13 -16 12 -17 -3 -5 -10 8 -17 17 -16 20 0 4
-1 9 -2 12 -4 11 -8 42 -5 38 2 -1 3 -6 2 -9z"/>
<path fill="#ffffff" stroke="none" d="M2285 1901 c3 -5 2 -12 -3 -15 -5 -3
-9 1 -9 9 0 17 3 19 12 6z"/>
<path fill="#ffffff" stroke="none" d="M1030 1894 c0 -8 -19 -13 -24 -6 -3 5
1 9 9 9 8 0 15 -2 15 -3z"/>
<path fill="#ffffff" stroke="none" d="M1059 1886 c9 -11 9 -16 -1 -22 -7 -4
-10 -4 -6 1 4 4 3 14 -3 22 -6 7 -9 13 -6 13 2 0 10 -6 16 -14z"/>
<path fill="#ffffff" stroke="none" d="M1295 1891 c3 -5 2 -12 -3 -15 -5 -3
-9 1 -9 9 0 17 3 19 12 6z"/>
<path fill="#ffffff" stroke="none" d="M1441 1887 c-6 -8 -9 -16 -6 -19 3 -3
-1 -11 -9 -17 -10 -8 -16 -9 -21 -1 -4 6 -1 9 6 8 7 -2 13 2 14 7 0 13 14 35
22 35 3 0 0 -6 -6 -13z"/>
<path fill="#ffffff" stroke="none" d="M1651 1883 c13 -16 12 -17 -3 -4 -10 7
-18 15 -18 17 0 8 8 3 21 -13z"/>
<path fill="#ffffff" stroke="none" d="M1701 1883 c13 -16 12 -17 -3 -4 -10 7
-18 15 -18 17 0 8 8 3 21 -13z"/>
<path fill="#ffffff" stroke="none" d="M1946 1885 c-1 -8 -5 -17 -8 -21 -5 -4
-4 16 1 34 3 9 9 -1 7 -13z"/>
<path fill="#ffffff" stroke="none" d="M1975 1891 c3 -5 2 -12 -3 -15 -5 -3
-9 1 -9 9 0 17 3 19 12 6z"/>
<path fill="#ffffff" stroke="none" d="M2076 1885 c-1 -8 -8 -21 -16 -28 -10
-10 -11 -9 -4 3 5 8 9 18 10 23 3 14 4 17 8 17 2 0 3 -7 2 -15z"/>
<path fill="#ffffff" stroke="none" d="M2256 1885 c-1 -8 -8 -21 -16 -28 -10
-10 -11 -9 -4 3 5 8 9 18 10 23 3 14 4 17 8 17 2 0 3 -7 2 -15z"/>
<path fill="#ffffff" stroke="none" d="M2330 1894 c0 -8 -19 -13 -24 -6 -3 5
1 9 9 9 8 0 15 -2 15 -3z"/>
<path fill="#ffffff" stroke="none" d="M1189 1883 c-1 -5 0 -10 1 -13 7 -19 7
-41 0 -45 -5 -3 -7 3 -5 15 2 11 -1 22 -6 25 -5 4 -7 11 -4 16 7 11 15 12 14
2z"/>
<path fill="#ffffff" stroke="none" d="M1267 1883 c-4 -3 -1 -13 6 -22 11 -14
10 -14 -5 -2 -16 12 -16 31 -1 31 4 0 3 -3 0 -7z"/>
<path fill="#ffffff" stroke="none" d="M1329 1876 c9 -11 9 -16 -1 -22 -7 -4
-10 -4 -6 1 4 4 3 14 -3 22 -6 7 -9 13 -6 13 2 0 10 -6 16 -14z"/>
<path fill="#ffffff" stroke="none" d="M1467 1875 c0 -8 -4 -12 -9 -9 -5 3 -6
10 -3 15 9 13 12 11 12 -6z"/>
<path fill="#ffffff" stroke="none" d="M1517 1875 c0 -8 -4 -12 -9 -9 -5 3 -6
10 -3 15 9 13 12 11 12 -6z"/>
<path fill="#ffffff" stroke="none" d="M1600 1887 c0 -2 -10 -12 -22 -23 l-23
-19 19 23 c18 21 26 27 26 19z"/>
<path fill="#ffffff" stroke="none" d="M1629 1877 c8 -11 4 -19 -17 -38 l-27
-24 22 26 c18 19 20 28 11 37 -7 7 -9 12 -6 12 3 0 11 -6 17 -13z"/>
<path fill="#ffffff" stroke="none" d="M1736 1866 c0 -14 -3 -23 -7 -20 -6 3
-6 22 0 42 3 10 7 -2 7 -22z"/>
<path fill="#ffffff" stroke="none" d="M2157 1875 c0 -8 -4 -12 -9 -9 -5 3 -6
10 -3 15 9 13 12 11 12 -6z"/>
<path fill="#ffffff" stroke="none" d="M970 1877 c0 -2 -10 -13 -23 -25 -18
-17 -24 -19 -24 -8 0 8 4 13 8 11 3 -3 12 2 19 10 12 14 20 19 20 12z"/>
<path fill="#ffffff" stroke="none" d="M1037 1873 c-4 -3 -1 -13 6 -22 11 -14
10 -14 -5 -2 -16 12 -16 31 -1 31 4 0 3 -3 0 -7z"/>
<path fill="#ffffff" stroke="none" d="M1221 1863 c13 -16 12 -17 -3 -4 -17
13 -22 21 -14 21 2 0 10 -8 17 -17z"/>
<path fill="#ffffff" stroke="none" d="M1686 1862 c-3 -3 0 -12 6 -21 10 -13
10 -14 -2 -4 -16 15 -23 46 -8 37 5 -3 7 -9 4 -12z"/>
<path fill="#ffffff" stroke="none" d="M1765 1871 c3 -5 2 -12 -3 -15 -5 -3
-9 1 -9 9 0 17 3 19 12 6z"/>
<path fill="#ffffff" stroke="none" d="M1992 1868 c-9 -9 -9 -15 1 -27 11 -14
10 -14 -6 -2 -13 10 -15 17 -6 27 6 8 14 14 17 14 3 0 1 -5 -6 -12z"/>
<path fill="#ffffff" stroke="none" d="M2041 1867 c-6 -8 -7 -18 -3 -22 4 -5
1 -5 -6 -1 -10 6 -10 11 -1 22 6 8 14 14 16 14 3 0 0 -6 -6 -13z"/>
<path fill="#ffffff" stroke="none" d="M2221 1867 c-6 -8 -7 -18 -3 -22 4 -5
1 -5 -6 -1 -10 6 -10 11 -1 22 6 8 14 14 16 14 3 0 0 -6 -6 -13z"/>
<path fill="#ffffff" stroke="none" d="M2304 1871 c3 -4 -4 -17 -17 -27 -22
-19 -22 -19 -4 2 9 11 14 24 10 27 -3 4 -4 7 0 7 3 0 8 -4 11 -9z"/>
<path fill="#ffffff" stroke="none" d="M906 1844 c1 -9 0 -13 -4 -10 -3 4 -7
14 -8 22 -1 9 0 13 4 10 3 -4 7 -14 8 -22z"/>
<path fill="#ffffff" stroke="none" d="M1107 1855 c0 -8 -4 -12 -9 -9 -5 3 -6
10 -3 15 9 13 12 11 12 -6z"/>
<path fill="#ffffff" stroke="none" d="M1307 1855 c0 -8 -4 -12 -9 -9 -5 3 -6
10 -3 15 9 13 12 11 12 -6z"/>
<path fill="#ffffff" stroke="none" d="M1494 1861 c3 -5 -1 -14 -8 -20 -10 -9
-16 -9 -21 -1 -4 6 -1 9 7 8 7 -2 12 3 11 10 -3 14 3 16 11 3z"/>
<path fill="#ffffff" stroke="none" d="M1546 1844 c1 -9 0 -13 -4 -10 -3 4 -7
14 -8 22 -1 9 0 13 4 10 3 -4 7 -14 8 -22z"/>
<path fill="#ffffff" stroke="none" d="M1610 1866 c0 -2 -8 -10 -17 -17 -16
-13 -17 -12 -4 4 13 16 21 21 21 13z"/>
<path fill="#ffffff" stroke="none" d="M1801 1853 c13 -16 12 -17 -3 -4 -10 7
-18 15 -18 17 0 8 8 3 21 -13z"/>
<path fill="#ffffff" stroke="none" d="M1851 1853 c13 -16 12 -17 -3 -4 -10 7
-18 15 -18 17 0 8 8 3 21 -13z"/>
<path fill="#ffffff" stroke="none" d="M2280 1866 c0 -2 -8 -10 -17 -17 -16
-13 -17 -12 -4 4 13 16 21 21 21 13z"/>
<path fill="#ffffff" stroke="none" d="M1076 1845 c-1 -8 -5 -17 -8 -21 -5 -4
-4 16 1 34 3 9 9 -1 7 -13z"/>
<path fill="#ffffff" stroke="none" d="M1261 1843 c13 -16 12 -17 -3 -4 -10 7
-18 15 -18 17 0 8 8 3 21 -13z"/>
<path fill="#ffffff" stroke="none" d="M1356 1845 c-1 -8 -5 -17 -8 -21 -5 -4
-4 16 1 34 3 9 9 -1 7 -13z"/>
<path fill="#ffffff" stroke="none" d="M1655 1843 c-1 -10 2 -23 7 -30 6 -7 5
-14 -3 -19 -7 -4 -9 -3 -5 4 3 6 2 13 -3 16 -7 5 -8 23 -2 44 4 11 9 -2 6 -15z"/>
<path fill="#ffffff" stroke="none" d="M1947 1842 c-10 -10 -15 -22 -12 -25 3
-4 2 -5 -2 -2 -10 8 -13 36 -3 30 5 -3 11 -1 15 5 3 5 9 10 12 10 3 0 -1 -8
-10 -18z"/>
<path fill="#ffffff" stroke="none" d="M1166 1835 c-3 -23 -22 -39 -31 -26 -3
7 -1 10 6 9 7 -2 14 3 15 10 2 19 4 22 8 22 2 0 3 -7 2 -15z"/>
<path fill="#ffffff" stroke="none" d="M1450 1846 c0 -2 -8 -10 -17 -17 -16
-13 -17 -12 -4 4 13 16 21 21 21 13z"/>
<path fill="#ffffff" stroke="none" d="M1520 1846 c0 -2 -8 -10 -17 -17 -16
-13 -17 -12 -4 4 13 16 21 21 21 13z"/>
<path fill="#ffffff" stroke="none" d="M1785 1841 c3 -5 2 -12 -3 -15 -5 -3
-9 1 -9 9 0 17 3 19 12 6z"/>
<path fill="#ffffff" stroke="none" d="M1836 1832 c-3 -3 0 -12 6 -21 10 -13
10 -14 -2 -4 -16 15 -23 46 -8 37 5 -3 7 -9 4 -12z"/>
<path fill="#ffffff" stroke="none" d="M1886 1832 c-3 -3 0 -12 6 -21 10 -13
10 -14 -2 -4 -16 15 -23 46 -8 37 5 -3 7 -9 4 -12z"/>
<path fill="#ffffff" stroke="none" d="M2174 1841 c3 -4 -3 -16 -13 -25 -14
-13 -18 -14 -18 -2 0 8 5 14 11 13 6 -1 10 4 9 11 -3 14 3 16 11 3z"/>
<path fill="#ffffff" stroke="none" d="M957 1833 c-4 -3 1 -16 10 -27 18 -21
18 -21 -4 -2 -20 16 -23 36 -6 36 4 0 3 -3 0 -7z"/>
<path fill="#ffffff" stroke="none" d="M1011 1823 c13 -16 12 -17 -3 -4 -10 7
-18 15 -18 17 0 8 8 3 21 -13z"/>
<path fill="#ffffff" stroke="none" d="M1253 1820 c10 -12 9 -12 -4 -2 -9 6
-18 9 -21 6 -3 -3 -9 -1 -12 4 -9 15 22 8 37 -8z"/>
<path fill="#ffffff" stroke="none" d="M1327 1833 c-4 -3 -1 -13 6 -22 11 -14
10 -14 -5 -2 -16 12 -16 31 -1 31 4 0 3 -3 0 -7z"/>
<path fill="#ffffff" stroke="none" d="M1404 1831 c3 -4 -4 -17 -17 -27 -22
-19 -22 -19 -4 2 9 11 14 24 10 27 -3 4 -4 7 0 7 3 0 8 -4 11 -9z"/>
<path fill="#ffffff" stroke="none" d="M1576 1814 c1 -9 0 -13 -4 -10 -3 4 -7
14 -8 22 -1 9 0 13 4 10 3 -4 7 -14 8 -22z"/>
<path fill="#ffffff" stroke="none" d="M1757 1833 c-4 -3 -1 -13 6 -22 11 -14
10 -14 -5 -2 -16 12 -16 31 -1 31 4 0 3 -3 0 -7z"/>
<path fill="#ffffff" stroke="none" d="M2026 1822 c-3 -3 -1 -11 4 -17 7 -8 3
-18 -13 -31 -22 -19 -22 -19 -4 2 9 11 14 24 10 28 -11 11 -12 37 -1 30 5 -3
7 -9 4 -12z"/>
<path fill="#ffffff" stroke="none" d="M2057 1833 c-4 -3 -2 -12 4 -19 7 -8 6
-14 -2 -20 -7 -4 -9 -3 -5 4 3 6 2 13 -4 17 -10 6 -5 25 7 25 4 0 3 -3 0 -7z"/>
<path fill="#ffffff" stroke="none" d="M2236 1816 c0 -14 -3 -23 -7 -20 -6 3
-6 22 0 42 3 10 7 -2 7 -22z"/>
<path fill="#ffffff" stroke="none" d="M2310 1836 c0 -2 -8 -10 -17 -17 -16
-13 -17 -12 -4 4 13 16 21 21 21 13z"/>
<path fill="#ffffff" stroke="none" d="M991 1813 c13 -16 12 -17 -3 -4 -10 7
-18 15 -18 17 0 8 8 3 21 -13z"/>
<path fill="#ffffff" stroke="none" d="M1046 1815 c-1 -8 -5 -17 -8 -21 -5 -4
-4 16 1 34 3 9 9 -1 7 -13z"/>
<path fill="#ffffff" stroke="none" d="M1097 1823 c-4 -3 -1 -13 6 -22 11 -14
10 -14 -5 -2 -16 12 -16 31 -1 31 4 0 3 -3 0 -7z"/>
<path fill="#ffffff" stroke="none" d="M1380 1826 c0 -2 -8 -10 -17 -17 -16
-13 -17 -12 -4 4 13 16 21 21 21 13z"/>
<path fill="#ffffff" stroke="none" d="M1460 1827 c0 -2 -10 -13 -23 -25 -18
-17 -24 -19 -24 -8 0 8 4 13 8 11 3 -3 12 2 19 10 12 14 20 19 20 12z"/>
<path fill="#ffffff" stroke="none" d="M1527 1823 c-4 -3 -1 -13 6 -22 11 -14
10 -14 -5 -2 -16 12 -16 31 -1 31 4 0 3 -3 0 -7z"/>
<path fill="#ffffff" stroke="none" d="M1810 1826 c0 -2 -8 -10 -17 -17 -16
-13 -17 -12 -4 4 13 16 21 21 21 13z"/>
<path fill="#ffffff" stroke="none" d="M2091 1813 c13 -16 12 -17 -3 -4 -10 7
-18 15 -18 17 0 8 8 3 21 -13z"/>
<path fill="#ffffff" stroke="none" d="M2265 1821 c3 -5 2 -12 -3 -15 -5 -3
-9 1 -9 9 0 17 3 19 12 6z"/>
<path fill="#ffffff" stroke="none" d="M906 1804 c-1 -8 -4 -15 -7 -16 -2 -2
-3 -1 -2 1 2 2 -2 9 -7 16 -7 8 -5 12 4 12 8 0 13 -6 12 -13z"/>
<path fill="#ffffff" stroke="none" d="M936 1794 c1 -9 0 -13 -4 -10 -3 4 -7
14 -8 22 -1 9 0 13 4 10 3 -4 7 -14 8 -22z"/>
<path fill="#ffffff" stroke="none" d="M1286 1794 c1 -9 0 -13 -4 -10 -3 4 -7
14 -8 22 -1 9 0 13 4 10 3 -4 7 -14 8 -22z"/>
<path fill="#ffffff" stroke="none" d="M1476 1796 c0 -14 -3 -23 -7 -20 -6 3
-6 22 0 42 3 10 7 -2 7 -22z"/>
<path fill="#ffffff" stroke="none" d="M1716 1794 c1 -9 0 -13 -4 -10 -3 4 -7
14 -8 22 -1 9 0 13 4 10 3 -4 7 -14 8 -22z"/>
<path fill="#ffffff" stroke="none" d="M2000 1815 c0 -2 -6 -8 -13 -14 -10 -8
-14 -7 -14 2 0 8 6 14 14 14 7 0 13 -1 13 -2z"/>
<path fill="#ffffff" stroke="none" d="M2126 1805 c-1 -8 -5 -17 -8 -21 -5 -4
-4 16 1 34 3 9 9 -1 7 -13z"/>
<path fill="#ffffff" stroke="none" d="M2190 1816 c0 -2 -8 -10 -17 -17 -16
-13 -17 -12 -4 4 13 16 21 21 21 13z"/>
<path fill="#ffffff" stroke="none" d="M1081 1793 c13 -16 12 -17 -3 -4 -10 7
-18 15 -18 17 0 8 8 3 21 -13z"/>
<path fill="#ffffff" stroke="none" d="M1180 1806 c0 -2 -8 -10 -17 -17 -16
-13 -17 -12 -4 4 13 16 21 21 21 13z"/>
<path fill="#ffffff" stroke="none" d="M1251 1793 c2 1 3 0 2 -2 -2 -2 2 -10
8 -18 21 -25 3 -13 -22 14 -13 15 -17 22 -8 15 9 -6 18 -11 20 -9z"/>
<path fill="#ffffff" stroke="none" d="M1505 1801 c3 -5 2 -12 -3 -15 -5 -3
-9 1 -9 9 0 17 3 19 12 6z"/>
<path fill="#ffffff" stroke="none" d="M1637 1795 c0 -8 -4 -12 -9 -9 -5 3 -6
10 -3 15 9 13 12 11 12 -6z"/>
<path fill="#ffffff" stroke="none" d="M1746 1784 c1 -9 0 -13 -4 -10 -3 4 -7
14 -8 22 -1 9 0 13 4 10 3 -4 7 -14 8 -22z"/>
<path fill="#ffffff" stroke="none" d="M1817 1795 c0 -8 -4 -12 -9 -9 -5 3 -6
10 -3 15 9 13 12 11 12 -6z"/>
<path fill="#ffffff" stroke="none" d="M1881 1793 c13 -16 12 -17 -3 -4 -10 7
-18 15 -18 17 0 8 8 3 21 -13z"/>
<path fill="#ffffff" stroke="none" d="M1957 1803 c-4 -3 -1 -13 6 -22 11 -14
10 -14 -5 -2 -16 12 -16 31 -1 31 4 0 3 -3 0 -7z"/>
<path fill="#ffffff" stroke="none" d="M2210 1806 c0 -2 -8 -10 -17 -17 -16
-13 -17 -12 -4 4 13 16 21 21 21 13z"/>
<path fill="#ffffff" stroke="none" d="M1565 1791 c3 -5 2 -12 -3 -15 -5 -3
-9 1 -9 9 0 17 3 19 12 6z"/>
<path fill="#ffffff" stroke="none" d="M1687 1785 c0 -8 -4 -12 -9 -9 -5 3 -6
10 -3 15 9 13 12 11 12 -6z"/>
<path fill="#ffffff" stroke="none" d="M2010 1796 c0 -2 -8 -10 -17 -17 -16
-13 -17 -12 -4 4 13 16 21 21 21 13z"/>
<path fill="#ffffff" stroke="none" d="M997 1783 c-4 -3 1 -16 10 -27 18 -21
18 -21 -4 -2 -20 16 -23 36 -6 36 4 0 3 -3 0 -7z"/>
<path fill="#ffffff" stroke="none" d="M1871 1773 c13 -16 12 -17 -3 -4 -10 7
-18 15 -18 17 0 8 8 3 21 -13z"/>
<path fill="#ffffff" stroke="none" d="M2080 1787 c0 -2 -8 -11 -18 -20 -15
-14 -19 -15 -19 -2 0 8 4 12 8 9 4 -2 10 0 14 6 6 10 15 14 15 7z"/>
<path fill="#ffffff" stroke="none" d="M2097 1771 c0 -11 -5 -18 -9 -15 -4 3
-5 11 -1 19 7 21 12 19 10 -4z"/>
<path fill="#ffffff" stroke="none" d="M2220 1786 c0 -2 -8 -10 -17 -17 -16
-13 -17 -12 -4 4 13 16 21 21 21 13z"/>
<path fill="#ffffff" stroke="none" d="M2264 1781 c3 -4 -4 -17 -17 -27 -22
-19 -22 -19 -4 2 9 11 14 24 10 27 -3 4 -4 7 0 7 3 0 8 -4 11 -9z"/>
<path fill="#ffffff" stroke="none" d="M1053 1760 c10 -12 9 -12 -4 -2 -9 6
-18 9 -21 6 -3 -3 -9 -1 -12 4 -9 15 22 8 37 -8z"/>
<path fill="#ffffff" stroke="none" d="M2240 1776 c0 -2 -8 -10 -17 -17 -16
-13 -17 -12 -4 4 13 16 21 21 21 13z"/>
<path fill="#000000" stroke="none" d="M2779 1032 c-30 -42 -55 -80 -57 -84
-6 -13 60 -88 71 -81 6 3 7 1 3 -5 -4 -6 3 -27 16 -45 l22 -34 19 35 c10 19
28 43 40 53 12 10 18 18 14 19 -4 0 3 10 15 23 29 27 29 38 1 71 -12 14 -37
47 -56 75 l-34 49 -54 -76z"/>
<path fill="#ffffff" stroke="none" d="M2837 1073 c-4 -3 -2 -12 4 -19 7 -8 6
-14 -2 -20 -7 -4 -9 -3 -5 4 3 6 2 13 -4 17 -10 6 -5 25 7 25 4 0 3 -3 0 -7z"/>
<path fill="#ffffff" stroke="none" d="M2817 1035 c0 -8 -4 -12 -9 -9 -5 3 -6
10 -3 15 9 13 12 11 12 -6z"/>
<path fill="#ffffff" stroke="none" d="M2795 1021 c3 -5 2 -12 -3 -15 -5 -3
-9 1 -9 9 0 17 3 19 12 6z"/>
<path fill="#ffffff" stroke="none" d="M2849 1006 c9 -11 9 -16 -1 -22 -7 -4
-10 -4 -6 1 4 4 3 14 -3 22 -6 7 -9 13 -6 13 2 0 10 -6 16 -14z"/>
<path fill="#ffffff" stroke="none" d="M2915 981 c3 -5 2 -12 -3 -15 -5 -3 -9
1 -9 9 0 17 3 19 12 6z"/>
<path fill="#ffffff" stroke="none" d="M2775 971 c3 -5 2 -12 -3 -15 -5 -3 -9
1 -9 9 0 17 3 19 12 6z"/>
<path fill="#ffffff" stroke="none" d="M2867 973 c-4 -3 -1 -13 6 -22 11 -14
10 -14 -5 -2 -16 12 -16 31 -1 31 4 0 3 -3 0 -7z"/>
<path fill="#ffffff" stroke="none" d="M2800 956 c0 -2 -8 -10 -17 -17 -16
-13 -17 -12 -4 4 13 16 21 21 21 13z"/>
<path fill="#ffffff" stroke="none" d="M2926 945 c-3 -23 -22 -39 -31 -26 -3
7 -1 10 6 9 7 -2 14 3 15 10 2 19 4 22 8 22 2 0 3 -7 2 -15z"/>
<path fill="#ffffff" stroke="none" d="M2855 941 c3 -5 2 -12 -3 -15 -5 -3 -9
1 -9 9 0 17 3 19 12 6z"/>
<path fill="#ffffff" stroke="none" d="M2880 926 c0 -2 -8 -10 -17 -17 -16
-13 -17 -12 -4 4 13 16 21 21 21 13z"/>
<path fill="#ffffff" stroke="none" d="M2800 906 c0 -2 -8 -10 -17 -17 -16
-13 -17 -12 -4 4 13 16 21 21 21 13z"/>
<path fill="#ffffff" stroke="none" d="M2817 893 c-4 -3 -2 -12 3 -18 7 -9 5
-17 -7 -26 -16 -13 -17 -12 -5 3 9 11 10 18 2 23 -10 6 -5 25 7 25 4 0 3 -3 0
-7z"/>
<path fill="#000000" stroke="none" d="M2620 779 c14 -6 33 -15 42 -20 24 -12
31 -11 22 3 -4 7 -3 8 5 4 6 -4 9 -11 6 -16 -3 -5 3 -15 13 -22 9 -7 26 -26
36 -42 14 -22 15 -31 5 -40 -9 -8 -10 -8 -4 3 5 9 -8 5 -33 -9 -23 -13 -42
-28 -42 -32 0 -5 5 -6 12 -2 7 5 8 3 2 -7 -5 -8 -9 -17 -9 -21 0 -3 -3 -10 -7
-14 -4 -3 -6 3 -3 15 7 36 -10 24 -37 -26 -29 -53 -38 -90 -23 -89 6 1 9 9 9
18 -1 10 2 15 6 13 5 -3 7 -11 6 -18 -3 -22 -17 -37 -28 -31 -14 9 -2 -78 17
-124 19 -44 61 -87 110 -111 53 -26 147 -22 198 9 41 24 43 29 25 50 -11 12
-10 12 6 0 16 -13 20 -12 32 5 7 11 18 26 24 33 6 6 8 12 4 12 -3 0 0 7 7 17
17 20 18 16 -6 44 -11 13 -13 18 -5 12 21 -20 26 -16 28 23 2 21 -1 33 -7 30
-5 -4 -13 -2 -16 4 -4 6 -1 9 7 8 7 -2 12 3 10 10 -1 7 -4 21 -5 31 -2 11 -9
27 -17 37 -13 16 -13 17 0 10 8 -4 4 2 -10 14 -14 12 -18 18 -10 15 8 -4 -1 7
-20 25 -19 18 -48 39 -65 46 -16 7 -40 22 -52 33 -23 22 -39 28 -28 12 3 -5 1
-12 -4 -15 -4 -3 -8 4 -7 16 1 16 -12 28 -56 50 -57 28 -72 34 -133 43 -29 4
-29 4 -5 -6z"/>
<path fill="#ffffff" stroke="none" d="M2755 731 c3 -5 2 -12 -3 -15 -5 -3 -9
1 -9 9 0 17 3 19 12 6z"/>
<path fill="#ffffff" stroke="none" d="M2772 708 c-9 -9 -9 -15 1 -27 11 -14
10 -14 -6 -2 -13 10 -15 17 -6 27 6 8 14 14 17 14 3 0 1 -5 -6 -12z"/>
<path fill="#ffffff" stroke="none" d="M2797 695 c0 -8 -4 -12 -9 -9 -5 3 -6
10 -3 15 9 13 12 11 12 -6z"/>
<path fill="#ffffff" stroke="none" d="M2838 660 c-2 -6 15 -20 36 -33 21 -12
47 -37 56 -54 9 -18 20 -30 23 -27 3 3 3 -4 0 -17 -5 -17 -3 -20 8 -14 11 7
12 6 2 -7 -7 -8 -10 -18 -7 -21 10 -10 5 -115 -7 -160 -6 -23 -26 -56 -44 -74
-18 -18 -31 -34 -28 -36 2 -3 -8 -2 -23 1 -18 3 -25 1 -20 -6 5 -8 -21 -10
-31 -2 -2 2 -6 3 -10 4 -5 1 -14 5 -21 10 -7 4 -19 5 -27 2 -8 -3 -14 0 -12 7
1 7 -5 12 -14 11 -9 -1 -16 5 -16 12 0 7 5 11 11 8 6 -3 2 2 -8 10 -11 9 -16
16 -12 16 5 0 3 7 -4 15 -7 8 -9 15 -6 15 4 0 4 6 -1 13 -4 6 -8 17 -9 22 0 6
-2 16 -2 23 -1 7 -7 10 -14 6 -8 -5 -8 -3 -2 7 5 8 10 30 10 49 1 19 3 37 4
40 2 7 8 32 12 57 2 11 9 27 16 35 6 8 10 24 7 37 -2 12 0 19 6 16 5 -4 6 -11
3 -17 -5 -7 -2 -8 5 -4 7 5 10 15 6 23 -4 12 -2 13 7 5 9 -7 18 -7 30 2 10 7
17 15 15 17 -1 2 2 1 8 -3 12 -10 45 -10 44 0 -2 12 1 22 6 22 3 0 4 -5 3 -10z"/>
<path fill="#ffffff" stroke="none" d="M2965 581 c3 -5 2 -12 -3 -15 -5 -3 -9
1 -9 9 0 17 3 19 12 6z"/>
<path fill="#ffffff" stroke="none" d="M2977 549 c-1 -3 4 -13 11 -22 9 -10
10 -17 2 -22 -6 -4 -10 -3 -9 2 1 4 0 10 -1 13 -4 11 -8 42 -5 38 2 -1 3 -6 2
-9z"/>
<path fill="#ffffff" stroke="none" d="M2666 534 c-1 -8 -4 -15 -7 -16 -2 -2
-3 -1 -2 1 2 2 -2 9 -7 16 -7 8 -5 12 4 12 8 0 13 -6 12 -13z"/>
<path fill="#ffffff" stroke="none" d="M2637 523 c-4 -3 -1 -13 6 -22 11 -14
10 -14 -5 -2 -16 12 -16 31 -1 31 4 0 3 -3 0 -7z"/>
<path fill="#ffffff" stroke="none" d="M3015 491 c3 -5 2 -12 -3 -15 -5 -3 -9
1 -9 9 0 17 3 19 12 6z"/>
<path fill="#ffffff" stroke="none" d="M2987 483 c-4 -3 -2 -12 4 -19 7 -8 6
-14 -2 -20 -7 -4 -9 -3 -5 4 3 6 2 13 -4 17 -10 6 -5 25 7 25 4 0 3 -3 0 -7z"/>
<path fill="#ffffff" stroke="none" d="M2650 456 c0 -2 -8 -10 -17 -17 -16
-13 -17 -12 -4 4 13 16 21 21 21 13z"/>
<path fill="#ffffff" stroke="none" d="M2651 427 c-6 -8 -7 -18 -3 -22 4 -5 1
-5 -6 -1 -10 6 -10 11 -1 22 6 8 14 14 16 14 3 0 0 -6 -6 -13z"/>
<path fill="#ffffff" stroke="none" d="M2997 423 c-8 -10 -16 -22 -17 -28 -3
-19 -6 -14 -6 10 0 13 3 22 7 19 4 -2 10 0 14 6 3 5 9 10 12 10 3 0 -1 -8 -10
-17z"/>
<path fill="#ffffff" stroke="none" d="M3027 415 c0 -8 -4 -12 -9 -9 -5 3 -6
10 -3 15 9 13 12 11 12 -6z"/>
<path fill="#ffffff" stroke="none" d="M2670 365 c0 -1 -10 -11 -23 -23 -17
-17 -24 -18 -24 -8 0 8 5 14 11 13 6 -1 10 3 9 9 -1 6 5 11 13 11 8 0 14 -1
14 -2z"/>
<path fill="#ffffff" stroke="none" d="M2991 353 c13 -16 12 -17 -3 -4 -10 7
-18 15 -18 17 0 8 8 3 21 -13z"/>
<path fill="#ffffff" stroke="none" d="M2975 341 c3 -5 2 -12 -3 -15 -5 -3 -9
1 -9 9 0 17 3 19 12 6z"/>
<path fill="#ffffff" stroke="none" d="M2680 325 c0 -2 -6 -8 -13 -14 -10 -8
-14 -7 -14 2 0 8 6 14 14 14 7 0 13 -1 13 -2z"/>
<path fill="#ffffff" stroke="none" d="M2967 303 c-4 -3 -1 -13 6 -22 11 -14
10 -14 -5 -2 -16 12 -16 31 -1 31 4 0 3 -3 0 -7z"/>
<path fill="#ffffff" stroke="none" d="M2677 293 c-4 -3 -1 -13 6 -22 11 -14
10 -14 -5 -2 -16 12 -16 31 -1 31 4 0 3 -3 0 -7z"/>
</g>
</svg>
