<?xml version="1.0" standalone="no"?>
<!DOCTYPE svg PUBLIC "-//W3C//DTD SVG 20010904//EN"
 "http://www.w3.org/TR/2001/REC-SVG-20010904/DTD/svg10.dtd">
<svg version="1.0" xmlns="http://www.w3.org/2000/svg"
 width="318.000000pt" height="451.000000pt" viewBox="0 0 318.000000 451.000000"
 preserveAspectRatio="xMidYMid meet">
<metadata>
Created by potrace 1.16, written by Peter Selinger 2001-2019
</metadata>
<g transform="translate(0.000000,451.000000) scale(0.100000,-0.100000)"
fill="#000000" stroke="none">
<path fill="#000000" stroke="none" d="M132 4285 c2 -3 16 -6 31 -7 14 -1 25
-7 24 -13 -1 -5 4 -9 11 -7 8 1 11 -2 6 -10 -10 -16 -11 -138 -1 -138 5 0 5
-6 1 -12 -11 -18 -12 -48 -2 -48 5 0 6 -5 2 -12 -4 -6 -8 -47 -8 -89 -1 -81
-9 -99 -44 -102 -12 0 -19 -4 -16 -6 8 -9 174 -7 174 2 0 6 -24 11 -43 8 -5
-1 -6 3 -3 8 4 5 3 12 -2 14 -4 3 -7 38 -6 79 2 43 -2 79 -9 87 -9 12 -9 13 1
7 6 -4 12 -2 12 3 0 6 6 10 13 9 6 -2 11 3 10 9 -2 7 3 12 10 10 6 -1 11 4 9
11 -1 8 2 11 9 7 7 -5 4 -15 -10 -29 -25 -27 -28 -44 -4 -25 14 12 15 12 9 0
-6 -9 12 -34 60 -82 37 -37 71 -66 75 -63 4 2 11 -1 15 -7 4 -8 3 -9 -4 -5 -7
4 -12 1 -12 -9 0 -8 -10 -19 -22 -24 -18 -6 -19 -9 -5 -14 10 -4 17 -1 17 6 0
8 4 6 10 -3 9 -13 10 -13 11 0 1 8 1 18 0 23 0 4 5 6 11 5 7 -2 12 3 10 10 -1
8 2 11 8 7 8 -5 6 -13 -4 -24 -21 -23 -20 -27 4 -27 12 0 19 5 16 13 -3 7 -1
15 5 19 6 4 3 14 -8 27 l-18 22 22 -19 c15 -13 20 -23 14 -30 -6 -7 -6 -17 -1
-26 12 -19 18 -19 30 0 9 13 10 13 10 0 0 -13 1 -13 10 0 5 8 10 10 10 5 0 -6
11 -11 25 -11 14 0 25 4 25 8 0 4 -4 8 -10 8 -18 0 -25 2 -43 12 -13 6 -23 5
-35 -4 -15 -11 -15 -11 -5 3 10 13 5 23 -36 63 -27 27 -54 45 -60 42 -6 -4 -9
-1 -5 7 6 17 -21 41 -35 32 -6 -3 -9 0 -6 7 3 8 -6 24 -20 36 -26 23 -40 29
-30 13 3 -5 2 -12 -3 -15 -4 -2 -7 11 -7 29 0 18 3 33 7 32 15 -4 118 107 113
121 -2 7 0 10 5 7 5 -3 26 7 47 22 20 15 39 27 42 26 3 -2 11 -1 16 1 6 3 -30
4 -80 4 -49 0 -80 -3 -68 -5 47 -9 36 -34 -57 -126 -92 -92 -95 -92 -90 -23 1
15 -2 26 -7 23 -6 -4 -10 0 -10 8 0 8 4 12 9 9 6 -4 13 61 10 96 0 3 11 7 25
8 63 5 28 12 -62 12 -54 0 -96 -2 -93 -5z"/>
<path fill="#ffffff" stroke="none" d="M247 4243 c0 -9 -4 -10 -14 -2 -7 6
-13 12 -13 14 0 1 6 2 13 2 8 0 14 -6 14 -14z"/>
<path fill="#ffffff" stroke="none" d="M480 4254 c0 -8 -19 -13 -24 -6 -3 5 1
9 9 9 8 0 15 -2 15 -3z"/>
<path fill="#ffffff" stroke="none" d="M225 4231 c3 -5 2 -12 -3 -15 -5 -3 -9
1 -9 9 0 17 3 19 12 6z"/>
<path fill="#ffffff" stroke="none" d="M247 4205 c0 -8 -4 -12 -9 -9 -5 3 -6
10 -3 15 9 13 12 11 12 -6z"/>
<path fill="#ffffff" stroke="none" d="M440 4217 c0 -1 -24 -25 -52 -52 l-53
-50 50 53 c46 48 55 57 55 49z"/>
<path fill="#ffffff" stroke="none" d="M225 4173 c-1 -10 5 -27 14 -38 16 -20
16 -20 -6 -2 -17 15 -21 30 -14 55 4 11 9 -2 6 -15z"/>
<path fill="#ffffff" stroke="none" d="M231 4113 c13 -16 12 -17 -3 -4 -17 13
-22 21 -14 21 2 0 10 -8 17 -17z"/>
<path fill="#ffffff" stroke="none" d="M247 4073 c0 -9 -4 -10 -14 -2 -7 6
-13 12 -13 14 0 1 6 2 13 2 8 0 14 -6 14 -14z"/>
<path fill="#ffffff" stroke="none" d="M236 4015 c1 -8 -1 -17 -5 -19 -4 -3
-7 6 -7 19 0 25 8 25 12 0z"/>
<path fill="#ffffff" stroke="none" d="M247 3975 c0 -8 -4 -12 -9 -9 -5 3 -6
10 -3 15 9 13 12 11 12 -6z"/>
<path fill="#ffffff" stroke="none" d="M401 3973 c13 -16 12 -17 -3 -4 -10 7
-18 15 -18 17 0 8 8 3 21 -13z"/>
<path fill="#ffffff" stroke="none" d="M425 3942 c-3 -3 0 -11 6 -19 17 -20 5
-16 -14 5 -15 16 -15 19 -2 19 8 0 13 -3 10 -5z"/>
<path fill="#ffffff" stroke="none" d="M225 3931 c3 -5 2 -12 -3 -15 -5 -3 -9
1 -9 9 0 17 3 19 12 6z"/>
<path fill="#ffffff" stroke="none" d="M237 3895 c0 -8 -4 -12 -9 -9 -5 3 -6
10 -3 15 9 13 12 11 12 -6z"/>
<path fill="#ffffff" stroke="none" d="M246 3858 c4 -7 4 -10 -1 -6 -4 4 -15
2 -24 -5 -14 -11 -14 -10 -2 6 16 20 18 21 27 5z"/>
<path fill="#000000" stroke="none" d="M264 3702 c-19 -12 -34 -50 -30 -74 3
-13 5 -27 5 -33 1 -5 19 -30 41 -55 22 -25 46 -57 53 -72 6 -16 15 -28 18 -28
14 0 18 14 6 28 -10 13 -9 14 1 8 9 -6 11 -1 8 18 -3 14 -1 28 4 31 5 3 7 -4
5 -15 -2 -11 0 -20 6 -20 8 0 14 23 10 44 -1 5 5 4 13 -3 13 -11 15 -10 11 8
-2 12 0 19 4 17 16 -10 44 34 47 73 5 73 -69 112 -100 52 -9 -16 -13 -31 -10
-33 2 -3 -3 -11 -13 -19 -15 -12 -16 -12 -8 1 17 28 15 49 -7 65 -24 16 -47
19 -64 7z"/>
<path fill="#ffffff" stroke="none" d="M277 3693 c-4 -3 -1 -13 6 -22 11 -14
10 -14 -5 -2 -16 12 -16 31 -1 31 4 0 3 -3 0 -7z"/>
<path fill="#ffffff" stroke="none" d="M410 3695 c0 -1 -10 -10 -22 -21 -14
-12 -18 -13 -10 -3 6 9 10 18 7 21 -3 2 2 5 10 5 8 0 15 -1 15 -2z"/>
<path fill="#ffffff" stroke="none" d="M335 3681 c3 -5 2 -12 -3 -15 -5 -3 -9
1 -9 9 0 17 3 19 12 6z"/>
<path fill="#ffffff" stroke="none" d="M420 3676 c0 -2 -8 -10 -17 -17 -16
-13 -17 -12 -4 4 13 16 21 21 21 13z"/>
<path fill="#ffffff" stroke="none" d="M271 3653 c13 -16 12 -17 -3 -4 -10 7
-18 15 -18 17 0 8 8 3 21 -13z"/>
<path fill="#ffffff" stroke="none" d="M301 3647 c-10 -9 -11 -8 -5 6 3 10 9
15 12 12 3 -3 0 -11 -7 -18z"/>
<path fill="#ffffff" stroke="none" d="M440 3667 c0 -2 -10 -12 -22 -23 l-23
-19 19 23 c18 21 26 27 26 19z"/>
<path fill="#ffffff" stroke="none" d="M259 3636 c9 -11 9 -16 -1 -22 -7 -4
-10 -4 -6 1 4 4 3 14 -3 22 -6 7 -9 13 -6 13 2 0 10 -6 16 -14z"/>
<path fill="#ffffff" stroke="none" d="M321 3637 c-6 -8 -7 -18 -3 -22 4 -5 1
-5 -6 -1 -10 6 -10 11 -1 22 6 8 14 14 16 14 3 0 0 -6 -6 -13z"/>
<path fill="#ffffff" stroke="none" d="M454 3641 c3 -5 -1 -14 -8 -20 -10 -9
-16 -9 -21 -1 -4 6 -1 9 7 8 7 -2 12 3 11 10 -3 14 3 16 11 3z"/>
<path fill="#ffffff" stroke="none" d="M390 3616 c0 -2 -8 -10 -17 -17 -16
-13 -17 -12 -4 4 13 16 21 21 21 13z"/>
<path fill="#ffffff" stroke="none" d="M404 3568 c-32 -32 -31 -32 -40 -15 -4
6 -3 9 1 4 5 -4 19 3 32 15 19 17 21 24 10 37 -11 14 -10 14 6 2 17 -13 16
-16 -9 -43z"/>
<path fill="#ffffff" stroke="none" d="M300 3604 c0 -8 -19 -13 -24 -6 -3 5 1
9 9 9 8 0 15 -2 15 -3z"/>
<path fill="#ffffff" stroke="none" d="M344 3601 c3 -5 -2 -15 -12 -22 -15
-12 -16 -12 -5 2 7 9 10 19 6 22 -3 4 -4 7 0 7 3 0 8 -4 11 -9z"/>
<path fill="#ffffff" stroke="none" d="M271 3583 c13 -16 12 -17 -3 -4 -10 7
-18 15 -18 17 0 8 8 3 21 -13z"/>
<path fill="#ffffff" stroke="none" d="M311 3587 c-6 -8 -7 -18 -3 -22 4 -5 1
-5 -6 -1 -10 6 -10 11 -1 22 6 8 14 14 16 14 3 0 0 -6 -6 -13z"/>
<path fill="#ffffff" stroke="none" d="M400 3596 c0 -2 -8 -10 -17 -17 -16
-13 -17 -12 -4 4 13 16 21 21 21 13z"/>
<path fill="#ffffff" stroke="none" d="M326 3545 c-1 -8 -5 -17 -8 -21 -5 -4
-4 16 1 34 3 9 9 -1 7 -13z"/>
<path fill="#ffffff" stroke="none" d="M354 3541 c3 -4 -4 -17 -17 -27 -22
-19 -22 -19 -4 2 9 11 14 24 10 27 -3 4 -4 7 0 7 3 0 8 -4 11 -9z"/>
<path fill="#000000" stroke="none" d="M1331 2949 c-91 -19 -145 -124 -111
-214 12 -32 61 -86 71 -79 4 2 10 0 14 -6 4 -6 11 -7 17 -4 7 4 8 2 4 -4 -4
-7 -9 -22 -12 -34 -11 -50 -13 -60 -19 -79 -4 -10 -8 -31 -10 -47 -2 -15 -4
-27 -5 -27 -1 0 -3 -7 -5 -15 -2 -8 -10 -46 -19 -83 -9 -38 -13 -74 -10 -80 3
-7 -12 8 -35 33 -23 25 -46 44 -51 42 -6 -1 -9 2 -8 7 5 15 -53 81 -65 74 -6
-3 -7 -1 -3 5 3 6 -2 15 -11 21 -10 6 -12 11 -6 11 7 0 20 14 28 31 14 25 14
33 3 47 -10 12 -10 14 0 8 7 -4 12 -1 12 9 0 10 -5 13 -12 9 -10 -6 -10 -4 0
8 22 27 -18 97 -71 125 -43 22 -102 30 -92 11 6 -10 5 -10 -5 -1 -14 13 -39 6
-58 -16 -11 -13 -12 -13 -6 -1 3 8 -8 1 -26 -16 -18 -17 -33 -43 -33 -57 -1
-14 -5 -23 -9 -20 -5 2 -8 -12 -8 -32 0 -20 4 -34 9 -31 5 3 15 -2 22 -12 13
-15 12 -16 -3 -4 -11 9 -18 10 -23 2 -3 -5 -1 -10 4 -10 6 0 10 -3 9 -7 -7
-26 60 -90 102 -98 32 -6 36 -11 59 -77 31 -89 33 -93 29 -95 -2 -1 6 -9 17
-18 11 -9 15 -14 8 -10 -8 3 -3 -19 11 -57 13 -35 38 -106 56 -158 19 -52 35
-97 37 -99 6 -8 465 -6 470 2 2 4 10 4 16 0 16 -10 248 -11 269 -1 10 5 18 3
21 -5 4 -9 6 -9 6 0 1 7 8 10 16 7 18 -7 133 -11 133 -4 0 3 1 8 2 13 1 4 3
10 5 15 2 9 12 34 35 93 14 36 15 50 7 59 -9 9 -9 11 2 8 7 -2 16 3 19 11 2 8
0 11 -5 8 -5 -3 -10 0 -10 7 0 7 7 13 16 12 9 0 16 4 17 9 2 23 17 71 26 82 5
7 7 17 4 22 -4 5 -1 13 5 16 5 4 8 13 5 20 -3 8 0 15 6 17 11 4 18 25 21 61 1
9 5 17 10 17 4 0 5 5 2 10 -3 6 -2 10 4 10 5 0 8 9 6 20 -2 11 1 22 6 26 5 3
8 0 7 -6 -2 -7 5 -14 15 -15 9 -2 17 1 17 6 0 5 5 8 12 6 7 -1 12 3 13 10 0 6
4 15 9 20 5 5 6 3 2 -4 -4 -7 -2 -13 3 -13 6 0 11 4 11 10 0 5 3 9 8 7 4 -1 9
3 11 8 2 6 10 15 17 20 6 6 16 30 21 55 18 87 -46 173 -137 186 -26 4 -40 2
-36 -4 3 -5 -3 -17 -13 -26 -14 -13 -18 -14 -18 -2 0 8 3 14 6 13 6 -2 11 7
11 18 0 3 -17 -3 -38 -14 -43 -22 -77 -65 -66 -83 4 -7 3 -8 -4 -4 -7 4 -12 1
-13 -6 -1 -7 -2 -25 -3 -40 -2 -15 3 -44 11 -65 19 -52 23 -74 14 -69 -12 8
-44 -31 -37 -43 4 -5 1 -13 -5 -17 -8 -4 -9 -3 -5 4 4 7 5 12 1 12 -11 0 -70
-74 -69 -86 1 -7 -5 -10 -13 -7 -10 4 -13 -1 -9 -21 2 -14 1 -28 -4 -31 -5 -3
-7 4 -5 15 5 25 -2 25 -29 3 -21 -18 -21 -18 -5 2 9 11 15 27 14 35 -2 8 -6
33 -10 55 -4 22 -10 44 -13 50 -5 8 -12 41 -14 73 -1 7 -8 10 -16 7 -12 -4
-13 -3 -3 9 8 9 10 24 5 38 -4 13 -7 27 -6 32 2 4 -2 14 -8 20 -5 7 -7 16 -3
19 3 4 -2 17 -13 29 -12 14 -13 18 -3 10 13 -10 22 -8 50 11 18 12 39 33 45
45 6 12 14 19 19 14 5 -4 5 -1 1 6 -4 6 -4 18 1 25 25 39 -6 131 -57 169 -70
51 -171 36 -221 -33 -22 -31 -43 -109 -29 -109 4 0 6 -11 4 -25 -2 -19 9 -37
35 -65 21 -22 34 -43 30 -47 -4 -5 -35 -80 -68 -167 -59 -154 -61 -160 -44
-180 18 -21 18 -21 -3 -4 -19 17 -21 17 -39 0 -14 -12 -16 -13 -7 -1 9 12 9
19 -1 29 -9 10 -9 11 1 6 16 -9 15 -1 -3 34 -9 17 -13 30 -10 30 3 0 1 9 -5
20 -7 12 -16 18 -23 13 -7 -4 -7 0 2 10 16 20 2 23 -19 5 -8 -7 -6 -3 4 10 18
21 11 31 -10 15 -5 -5 -4 -2 2 5 13 15 -2 82 -18 82 -5 0 -7 4 -4 9 3 5 -3 30
-15 56 -20 44 -22 46 -39 30 -14 -12 -20 -13 -26 -4 -4 7 -3 10 3 6 6 -4 16 0
23 8 7 8 16 12 21 9 6 -3 8 6 5 20 -3 14 -1 28 4 31 5 3 7 -3 5 -15 -2 -11 0
-22 5 -25 11 -7 20 19 15 44 -2 11 0 23 5 26 5 3 7 -4 5 -15 -2 -11 0 -20 6
-20 8 0 13 15 7 23 -2 2 2 10 8 18 9 11 12 74 4 74 -1 0 -3 8 -5 18 -5 28 -31
63 -65 87 -16 12 -30 19 -30 16 0 -2 -12 -1 -27 3 -16 4 -43 4 -62 0z"/>
<path fill="#ffffff" stroke="none" d="M1346 2928 c3 -4 -1 -5 -10 -4 -8 1
-18 5 -22 8 -3 4 1 5 10 4 8 -1 18 -5 22 -8z"/>
<path fill="#ffffff" stroke="none" d="M1790 2934 c0 -8 -19 -13 -24 -6 -3 5
1 9 9 9 8 0 15 -2 15 -3z"/>
<path fill="#ffffff" stroke="none" d="M1839 2933 c-1 -5 0 -10 1 -13 6 -14 6
-61 0 -65 -4 -3 -6 9 -5 25 1 17 -1 33 -6 36 -5 3 -7 10 -4 15 7 11 15 12 14
2z"/>
<path fill="#ffffff" stroke="none" d="M1305 2921 c3 -5 2 -12 -3 -15 -5 -3
-9 1 -9 9 0 17 3 19 12 6z"/>
<path fill="#ffffff" stroke="none" d="M1374 2921 c3 -5 -1 -14 -8 -20 -10 -9
-16 -9 -21 -1 -4 6 -1 9 7 8 7 -2 12 3 11 10 -3 14 3 16 11 3z"/>
<path fill="#ffffff" stroke="none" d="M1807 2923 c-4 -3 -1 -13 6 -22 11 -14
10 -14 -5 -2 -16 12 -16 31 -1 31 4 0 3 -3 0 -7z"/>
<path fill="#ffffff" stroke="none" d="M1277 2913 c-4 -3 -1 -13 6 -22 11 -14
10 -14 -5 -2 -16 12 -16 31 -1 31 4 0 3 -3 0 -7z"/>
<path fill="#ffffff" stroke="none" d="M1736 2895 c1 -8 -1 -17 -5 -19 -4 -3
-7 6 -7 19 0 25 8 25 12 0z"/>
<path fill="#ffffff" stroke="none" d="M1900 2905 c-5 -7 -8 -14 -5 -17 3 -2
-7 -15 -22 -29 -15 -13 -22 -17 -15 -8 6 9 8 19 4 23 -4 4 0 6 8 4 10 -2 15 4
14 18 -1 11 5 21 12 21 9 0 11 -4 4 -12z"/>
<path fill="#ffffff" stroke="none" d="M1330 2906 c0 -2 -8 -10 -17 -17 -16
-13 -17 -12 -4 4 13 16 21 21 21 13z"/>
<path fill="#ffffff" stroke="none" d="M1400 2906 c0 -2 -8 -10 -17 -17 -16
-13 -17 -12 -4 4 13 16 21 21 21 13z"/>
<path fill="#ffffff" stroke="none" d="M1443 2897 c4 3 7 4 7 1 0 -2 -12 -15
-27 -29 -20 -17 -23 -18 -11 -3 14 16 15 23 5 34 -10 12 -9 12 4 2 9 -6 19 -9
22 -5z"/>
<path fill="#ffffff" stroke="none" d="M1796 2875 c-1 -8 -12 -25 -24 -38 -12
-13 -20 -27 -17 -30 3 -4 2 -5 -2 -2 -12 9 -12 34 0 32 7 -1 11 4 10 11 -2 6
2 11 9 10 15 -4 18 22 4 42 -9 13 -9 13 6 2 9 -7 15 -19 14 -27z"/>
<path fill="#ffffff" stroke="none" d="M1479 2886 c9 -11 9 -16 -1 -22 -7 -4
-10 -4 -6 1 4 4 3 14 -3 22 -6 7 -9 13 -6 13 2 0 10 -6 16 -14z"/>
<path fill="#ffffff" stroke="none" d="M1764 2892 c3 -5 -10 -23 -28 -41 -22
-21 -36 -29 -41 -22 -4 7 -1 10 7 9 7 -2 12 4 10 12 -2 8 0 12 4 7 9 -9 45 23
38 34 -3 5 -3 9 0 9 3 0 7 -4 10 -8z"/>
<path fill="#ffffff" stroke="none" d="M1929 2886 c9 -11 9 -16 -1 -22 -7 -4
-10 -4 -6 1 4 4 3 14 -3 22 -6 7 -9 13 -6 13 2 0 10 -6 16 -14z"/>
<path fill="#ffffff" stroke="none" d="M1266 2869 c1 -5 2 -10 4 -11 5 -8 7
-39 2 -33 -4 4 -8 11 -8 16 -1 5 -2 10 -4 12 -5 7 -7 38 -2 32 4 -4 8 -11 8
-16z"/>
<path fill="#ffffff" stroke="none" d="M1337 2883 c-4 -3 -1 -13 6 -22 11 -14
10 -14 -5 -2 -16 12 -16 31 -1 31 4 0 3 -3 0 -7z"/>
<path fill="#ffffff" stroke="none" d="M1410 2886 c0 -2 -8 -10 -17 -17 -16
-13 -17 -12 -4 4 13 16 21 21 21 13z"/>
<path fill="#ffffff" stroke="none" d="M1456 2865 c-3 -23 -22 -39 -31 -26 -3
7 -1 10 6 9 7 -2 14 3 15 10 2 19 4 22 8 22 2 0 3 -7 2 -15z"/>
<path fill="#ffffff" stroke="none" d="M1710 2877 c0 -2 -10 -12 -22 -23 l-23
-19 19 23 c18 21 26 27 26 19z"/>
<path fill="#ffffff" stroke="none" d="M1321 2853 c13 -16 12 -17 -3 -4 -17
13 -22 21 -14 21 2 0 10 -8 17 -17z"/>
<path fill="#ffffff" stroke="none" d="M1816 2845 c-3 -23 -22 -39 -31 -26 -3
7 -1 10 6 9 7 -2 14 3 15 10 2 19 4 22 8 22 2 0 3 -7 2 -15z"/>
<path fill="#ffffff" stroke="none" d="M1306 2814 c0 -13 -2 -22 -5 -19 -3 3
-6 17 -7 31 0 13 2 22 5 19 3 -3 6 -17 7 -31z"/>
<path fill="#ffffff" stroke="none" d="M1385 2842 c-3 -3 2 -13 11 -23 12 -14
13 -18 2 -25 -7 -4 -10 -3 -5 1 4 5 -2 18 -13 30 -16 17 -17 22 -5 22 8 0 13
-3 10 -5z"/>
<path fill="#ffffff" stroke="none" d="M1473 2838 c-6 -7 -9 -21 -8 -30 2 -10
0 -20 -4 -23 -4 -2 -7 6 -7 18 2 23 13 47 23 47 3 0 1 -6 -4 -12z"/>
<path fill="#ffffff" stroke="none" d="M1890 2846 c0 -2 -8 -10 -17 -17 -16
-13 -17 -12 -4 4 13 16 21 21 21 13z"/>
<path fill="#ffffff" stroke="none" d="M1934 2841 c3 -4 -7 -19 -22 -32 l-27
-24 23 26 c12 14 19 29 15 32 -3 4 -4 7 0 7 3 0 8 -4 11 -9z"/>
<path fill="#ffffff" stroke="none" d="M1359 2826 c9 -10 7 -17 -6 -27 -16
-12 -17 -12 -6 2 10 12 10 18 1 27 -7 7 -9 12 -6 12 3 0 11 -6 17 -14z"/>
<path fill="#ffffff" stroke="none" d="M1425 2820 c10 -11 16 -20 13 -20 -3 0
-13 9 -23 20 -10 11 -16 20 -13 20 3 0 13 -9 23 -20z"/>
<path fill="#ffffff" stroke="none" d="M1497 2833 c-4 -3 1 -16 10 -27 18 -21
18 -21 -4 -2 -20 16 -23 36 -6 36 4 0 3 -3 0 -7z"/>
<path fill="#ffffff" stroke="none" d="M1910 2836 c0 -2 -8 -10 -17 -17 -16
-13 -17 -12 -4 4 13 16 21 21 21 13z"/>
<path fill="#ffffff" stroke="none" d="M1251 2813 c2 1 3 0 2 -2 -2 -2 2 -10
8 -18 21 -25 3 -13 -22 14 -13 15 -17 22 -8 15 9 -6 18 -11 20 -9z"/>
<path fill="#ffffff" stroke="none" d="M1335 2821 c3 -5 2 -12 -3 -15 -5 -3
-9 1 -9 9 0 17 3 19 12 6z"/>
<path fill="#ffffff" stroke="none" d="M1691 2813 c13 -16 12 -17 -3 -4 -17
13 -22 21 -14 21 2 0 10 -8 17 -17z"/>
<path fill="#ffffff" stroke="none" d="M1727 2813 c-4 -3 -1 -13 6 -22 11 -14
10 -14 -5 -2 -16 12 -16 31 -1 31 4 0 3 -3 0 -7z"/>
<path fill="#ffffff" stroke="none" d="M1830 2816 c0 -2 -8 -10 -17 -17 -16
-13 -17 -12 -4 4 13 16 21 21 21 13z"/>
<path fill="#ffffff" stroke="none" d="M1946 2805 c-3 -23 -22 -39 -31 -26 -3
7 -1 10 6 9 7 -2 14 3 15 10 2 19 4 22 8 22 2 0 3 -7 2 -15z"/>
<path fill="#ffffff" stroke="none" d="M1786 2784 c1 -9 0 -13 -4 -10 -3 4 -7
14 -8 22 -1 9 0 13 4 10 3 -4 7 -14 8 -22z"/>
<path fill="#ffffff" stroke="none" d="M1850 2806 c0 -2 -8 -10 -17 -17 -16
-13 -17 -12 -4 4 13 16 21 21 21 13z"/>
<path fill="#ffffff" stroke="none" d="M1241 2783 c13 -16 12 -17 -3 -4 -10 7
-18 15 -18 17 0 8 8 3 21 -13z"/>
<path fill="#ffffff" stroke="none" d="M1505 2780 c10 -11 16 -20 13 -20 -3 0
-13 9 -23 20 -10 11 -16 20 -13 20 3 0 13 -9 23 -20z"/>
<path fill="#ffffff" stroke="none" d="M1296 2769 c1 -5 2 -10 4 -11 5 -8 7
-39 2 -33 -4 4 -8 11 -8 16 -1 5 -2 10 -4 12 -5 7 -7 38 -2 32 4 -4 8 -11 8
-16z"/>
<path fill="#ffffff" stroke="none" d="M1327 2783 c-4 -3 -2 -12 4 -19 7 -8 6
-14 -2 -20 -7 -4 -9 -3 -5 4 3 6 2 13 -4 17 -10 6 -5 25 7 25 4 0 3 -3 0 -7z"/>
<path fill="#ffffff" stroke="none" d="M1417 2783 c-4 -3 -1 -13 6 -22 11 -14
10 -14 -5 -2 -16 12 -16 31 -1 31 4 0 3 -3 0 -7z"/>
<path fill="#ffffff" stroke="none" d="M1716 2765 c1 -8 -5 -20 -14 -27 -15
-11 -15 -11 -6 2 6 8 10 23 8 33 -1 11 0 16 4 13 3 -4 7 -13 8 -21z"/>
<path fill="#ffffff" stroke="none" d="M1764 2774 c3 -8 2 -12 -4 -9 -6 3 -10
10 -10 16 0 14 7 11 14 -7z"/>
<path fill="#ffffff" stroke="none" d="M1860 2786 c0 -2 -8 -10 -17 -17 -16
-13 -17 -12 -4 4 13 16 21 21 21 13z"/>
<path fill="#ffffff" stroke="none" d="M1385 2763 c-1 -10 0 -22 4 -28 9 -16
10 -35 1 -40 -5 -3 -7 3 -5 15 2 11 0 22 -5 25 -7 4 -7 22 -1 43 4 10 9 -2 6
-15z"/>
<path fill="#ffffff" stroke="none" d="M1485 2771 c3 -5 2 -12 -3 -15 -5 -3
-9 1 -9 9 0 17 3 19 12 6z"/>
<path fill="#ffffff" stroke="none" d="M1816 2754 c1 -9 0 -13 -4 -10 -3 4 -7
14 -8 22 -1 9 0 13 4 10 3 -4 7 -14 8 -22z"/>
<path fill="#ffffff" stroke="none" d="M1880 2776 c0 -2 -8 -10 -17 -17 -16
-13 -17 -12 -4 4 13 16 21 21 21 13z"/>
<path fill="#ffffff" stroke="none" d="M1909 2767 c8 -11 6 -18 -12 -33 -22
-19 -22 -19 -5 2 14 16 15 23 6 32 -7 7 -9 12 -6 12 3 0 11 -6 17 -13z"/>
<path fill="#ffffff" stroke="none" d="M1265 2761 c-3 -5 -1 -12 4 -15 5 -4 8
-14 6 -24 -1 -9 4 -24 12 -34 11 -12 11 -18 2 -24 -7 -4 -10 -3 -6 3 4 6 0 16
-7 23 -8 6 -13 20 -11 30 2 11 -1 22 -6 25 -9 6 -3 25 7 25 3 0 3 -4 -1 -9z"/>
<path fill="#ffffff" stroke="none" d="M1457 2763 c-4 -3 -1 -13 6 -22 11 -14
10 -14 -5 -2 -16 12 -16 31 -1 31 4 0 3 -3 0 -7z"/>
<path fill="#ffffff" stroke="none" d="M1746 2745 c3 -19 -22 -40 -31 -25 -4
6 -1 9 7 8 8 -2 13 6 12 20 -2 24 8 22 12 -3z"/>
<path fill="#ffffff" stroke="none" d="M1947 2755 c0 -8 -4 -12 -9 -9 -5 3 -6
10 -3 15 9 13 12 11 12 -6z"/>
<path fill="#ffffff" stroke="none" d="M1890 2756 c0 -2 -8 -10 -17 -17 -16
-13 -17 -12 -4 4 13 16 21 21 21 13z"/>
<path fill="#ffffff" stroke="none" d="M1357 2743 c-4 -3 -1 -13 6 -22 11 -14
10 -14 -5 -2 -16 12 -16 31 -1 31 4 0 3 -3 0 -7z"/>
<path fill="#ffffff" stroke="none" d="M1796 2738 c4 4 3 0 -4 -9 -6 -9 -10
-19 -7 -22 3 -4 2 -4 -2 -1 -5 3 -8 9 -8 12 0 4 -4 14 -10 22 -7 12 -6 13 7 3
8 -7 19 -9 24 -5z"/>
<path fill="#ffffff" stroke="none" d="M1846 2724 c1 -9 0 -13 -4 -10 -3 4 -7
14 -8 22 -1 9 0 13 4 10 3 -4 7 -14 8 -22z"/>
<path fill="#ffffff" stroke="none" d="M1444 2731 c3 -4 -7 -19 -22 -32 -14
-13 -21 -17 -14 -8 6 9 8 19 4 23 -4 4 0 6 8 4 8 -1 14 3 13 10 -3 14 3 16 11
3z"/>
<path fill="#ffffff" stroke="none" d="M1936 2714 c1 -9 0 -13 -4 -10 -3 4 -7
14 -8 22 -1 9 0 13 4 10 3 -4 7 -14 8 -22z"/>
<path fill="#ffffff" stroke="none" d="M1341 2713 c13 -16 12 -17 -3 -4 -17
13 -22 21 -14 21 2 0 10 -8 17 -17z"/>
<path fill="#ffffff" stroke="none" d="M958 2692 c-16 -19 -17 -49 -4 -72 7
-12 6 -13 -5 -2 -16 15 -20 82 -5 79 6 -1 10 4 8 11 -1 8 2 11 8 7 8 -5 7 -12
-2 -23z"/>
<path fill="#ffffff" stroke="none" d="M1711 2703 c13 -16 12 -17 -3 -4 -17
13 -22 21 -14 21 2 0 10 -8 17 -17z"/>
<path fill="#ffffff" stroke="none" d="M1760 2716 c0 -2 -8 -10 -17 -17 -16
-13 -17 -12 -4 4 13 16 21 21 21 13z"/>
<path fill="#ffffff" stroke="none" d="M1907 2713 c-4 -3 -1 -13 6 -22 11 -14
10 -14 -5 -2 -16 12 -16 31 -1 31 4 0 3 -3 0 -7z"/>
<path fill="#ffffff" stroke="none" d="M916 2696 c-1 -6 -6 -18 -11 -26 -5 -8
-10 -18 -10 -22 0 -3 -3 -9 -7 -13 -11 -12 -3 22 10 37 8 10 8 18 1 25 -6 6
-5 10 5 10 7 0 13 -5 12 -11z"/>
<path fill="#ffffff" stroke="none" d="M1333 2690 c10 -12 9 -12 -4 -2 -9 6
-18 9 -21 6 -3 -3 -9 -1 -12 4 -9 15 22 8 37 -8z"/>
<path fill="#ffffff" stroke="none" d="M2261 2687 c-10 -9 -11 -8 -5 6 3 10 9
15 12 12 3 -3 0 -11 -7 -18z"/>
<path fill="#ffffff" stroke="none" d="M2294 2701 c3 -4 -4 -17 -17 -27 -22
-19 -22 -19 -4 2 9 11 14 24 10 27 -3 4 -4 7 0 7 3 0 8 -4 11 -9z"/>
<path fill="#ffffff" stroke="none" d="M987 2685 c0 -8 -4 -12 -9 -9 -5 3 -6
10 -3 15 9 13 12 11 12 -6z"/>
<path fill="#ffffff" stroke="none" d="M1016 2674 c1 -9 0 -13 -4 -10 -3 4 -7
14 -8 22 -1 9 0 13 4 10 3 -4 7 -14 8 -22z"/>
<path fill="#ffffff" stroke="none" d="M1367 2685 c0 -8 -4 -12 -9 -9 -5 3 -6
10 -3 15 9 13 12 11 12 -6z"/>
<path fill="#ffffff" stroke="none" d="M1761 2687 c-6 -8 -7 -18 -3 -22 4 -5
1 -5 -6 -1 -10 6 -10 11 -1 22 6 8 14 14 16 14 3 0 0 -6 -6 -13z"/>
<path fill="#ffffff" stroke="none" d="M1811 2676 c-6 -7 -7 -17 -3 -21 4 -5
1 -5 -6 -1 -9 6 -10 11 -3 20 6 7 7 17 3 21 -4 5 -1 5 6 1 9 -6 10 -11 3 -20z"/>
<path fill="#ffffff" stroke="none" d="M1866 2674 c1 -9 0 -13 -4 -10 -3 4 -7
14 -8 22 -1 9 0 13 4 10 3 -4 7 -14 8 -22z"/>
<path fill="#ffffff" stroke="none" d="M2167 2685 c0 -8 -4 -12 -9 -9 -5 3 -6
10 -3 15 9 13 12 11 12 -6z"/>
<path fill="#ffffff" stroke="none" d="M2234 2691 c3 -4 -3 -16 -13 -25 -14
-13 -18 -14 -18 -2 0 8 5 14 11 13 6 -1 10 4 9 11 -3 14 3 16 11 3z"/>
<path fill="#ffffff" stroke="none" d="M890 2686 c0 -2 -6 -9 -14 -15 -11 -9
-16 -9 -22 0 -4 7 -3 9 4 5 6 -3 13 -2 17 4 6 10 15 14 15 6z"/>
<path fill="#ffffff" stroke="none" d="M1045 2662 c-1 -9 2 -24 8 -32 9 -12 9
-13 -3 -2 -15 13 -23 65 -9 57 4 -3 6 -13 4 -23z"/>
<path fill="#ffffff" stroke="none" d="M1440 2686 c0 -2 -8 -10 -17 -17 -16
-13 -17 -12 -4 4 13 16 21 21 21 13z"/>
<path fill="#ffffff" stroke="none" d="M1895 2681 c3 -5 2 -12 -3 -15 -5 -3
-9 1 -9 9 0 17 3 19 12 6z"/>
<path fill="#ffffff" stroke="none" d="M2316 2675 c-1 -8 -5 -17 -8 -21 -5 -4
-4 16 1 34 3 9 9 -1 7 -13z"/>
<path fill="#ffffff" stroke="none" d="M854 2651 c14 -15 15 -21 4 -27 -7 -4
-10 -3 -5 1 4 5 0 17 -10 27 -9 10 -14 18 -11 18 3 0 13 -9 22 -19z"/>
<path fill="#ffffff" stroke="none" d="M991 2653 c2 1 3 0 2 -2 -2 -2 2 -10 8
-18 21 -25 3 -13 -22 14 -13 15 -17 22 -8 15 9 -6 18 -11 20 -9z"/>
<path fill="#ffffff" stroke="none" d="M1356 2644 c1 -9 0 -13 -4 -10 -3 4 -7
14 -8 22 -1 9 0 13 4 10 3 -4 7 -14 8 -22z"/>
<path fill="#ffffff" stroke="none" d="M2155 2661 c3 -5 2 -12 -3 -15 -5 -3
-9 1 -9 9 0 17 3 19 12 6z"/>
<path fill="#ffffff" stroke="none" d="M2187 2663 c-4 -3 1 -16 10 -27 18 -21
18 -21 -4 -2 -20 16 -23 36 -6 36 4 0 3 -3 0 -7z"/>
<path fill="#ffffff" stroke="none" d="M2243 2658 c-8 -11 -10 -53 -3 -60 1
-2 3 -15 4 -31 3 -29 -17 -56 -29 -37 -4 6 -1 9 6 8 14 -3 20 39 9 57 -13 20
0 75 17 75 3 0 1 -6 -4 -12z"/>
<path fill="#ffffff" stroke="none" d="M2351 2653 c13 -16 12 -17 -3 -4 -10 7
-18 15 -18 17 0 8 8 3 21 -13z"/>
<path fill="#ffffff" stroke="none" d="M1386 2642 c-3 -3 0 -12 6 -21 10 -13
10 -14 -2 -4 -16 15 -23 46 -8 37 5 -3 7 -9 4 -12z"/>
<path fill="#ffffff" stroke="none" d="M1781 2636 c-6 -7 -9 -15 -6 -18 3 -3
-1 -11 -9 -17 -10 -8 -16 -9 -21 -1 -4 6 -1 9 6 8 7 -2 14 3 15 10 1 6 3 15 4
20 1 4 2 11 1 15 -1 5 3 6 9 2 8 -5 8 -11 1 -19z"/>
<path fill="#ffffff" stroke="none" d="M2126 2645 c-1 -8 -5 -17 -8 -21 -5 -4
-4 16 1 34 3 9 9 -1 7 -13z"/>
<path fill="#ffffff" stroke="none" d="M2285 2633 c-1 -16 5 -37 14 -48 16
-20 16 -20 -5 -2 -17 14 -24 51 -15 75 4 10 8 -3 6 -25z"/>
<path fill="#ffffff" stroke="none" d="M836 2615 c0 -14 -7 -32 -16 -40 -14
-13 -17 -13 -17 -1 0 8 5 14 11 13 6 -1 11 12 10 30 -1 37 10 35 12 -2z"/>
<path fill="#ffffff" stroke="none" d="M1079 2636 c9 -11 9 -16 -1 -22 -7 -4
-10 -4 -6 1 4 4 3 14 -3 22 -6 7 -9 13 -6 13 2 0 10 -6 16 -14z"/>
<path fill="#ffffff" stroke="none" d="M1760 2647 c0 -2 -10 -12 -22 -23 l-23
-19 19 23 c18 21 26 27 26 19z"/>
<path fill="#ffffff" stroke="none" d="M1834 2641 c3 -5 -2 -15 -12 -22 -15
-12 -16 -12 -5 2 7 9 10 19 6 22 -3 4 -4 7 0 7 3 0 8 -4 11 -9z"/>
<path fill="#ffffff" stroke="none" d="M2341 2633 c13 -16 12 -17 -3 -4 -17
13 -22 21 -14 21 2 0 10 -8 17 -17z"/>
<path fill="#ffffff" stroke="none" d="M912 2628 c-8 -8 -8 -16 -2 -23 7 -8 3
-18 -13 -31 l-22 -19 18 22 c13 14 15 23 7 28 -8 5 -8 11 1 21 6 8 14 14 17
14 3 0 1 -5 -6 -12z"/>
<path fill="#ffffff" stroke="none" d="M979 2626 c9 -11 9 -16 -1 -22 -7 -4
-10 -4 -6 1 4 4 3 14 -3 22 -6 7 -9 13 -6 13 2 0 10 -6 16 -14z"/>
<path fill="#ffffff" stroke="none" d="M2175 2631 c3 -5 2 -12 -3 -15 -5 -3
-9 1 -9 9 0 17 3 19 12 6z"/>
<path fill="#ffffff" stroke="none" d="M2325 2620 c10 -11 16 -20 13 -20 -3 0
-13 9 -23 20 -10 11 -16 20 -13 20 3 0 13 -9 23 -20z"/>
<path fill="#ffffff" stroke="none" d="M1036 2604 c1 -9 0 -13 -4 -10 -3 4 -7
14 -8 22 -1 9 0 13 4 10 3 -4 7 -14 8 -22z"/>
<path fill="#ffffff" stroke="none" d="M1346 2612 c-3 -3 0 -12 6 -21 10 -13
10 -14 -2 -4 -16 15 -23 46 -8 37 5 -3 7 -9 4 -12z"/>
<path fill="#ffffff" stroke="none" d="M1860 2627 c0 -2 -10 -12 -22 -23 l-23
-19 19 23 c18 21 26 27 26 19z"/>
<path fill="#ffffff" stroke="none" d="M2145 2613 c-2 -10 -4 -19 -5 -20 -2
-2 -3 -7 -4 -12 0 -5 -4 -12 -8 -16 -5 -6 -3 25 2 33 2 1 4 7 5 12 1 6 3 12 4
15 3 14 9 3 6 -12z"/>
<path fill="#ffffff" stroke="none" d="M1386 2575 c0 -13 -3 -22 -7 -20 -4 3
-6 13 -4 23 1 9 -2 24 -8 32 -9 12 -9 13 3 2 8 -7 15 -23 16 -37z"/>
<path fill="#ffffff" stroke="none" d="M883 2597 c4 3 7 4 7 1 0 -3 -8 -12
-17 -19 -10 -7 -15 -9 -11 -5 4 5 2 16 -5 25 -10 14 -10 14 4 4 9 -7 19 -10
22 -6z"/>
<path fill="#ffffff" stroke="none" d="M1010 2606 c0 -2 -8 -10 -17 -17 -16
-13 -17 -12 -4 4 13 16 21 21 21 13z"/>
<path fill="#ffffff" stroke="none" d="M1065 2601 c3 -5 2 -12 -3 -15 -5 -3
-9 1 -9 9 0 17 3 19 12 6z"/>
<path fill="#ffffff" stroke="none" d="M1806 2584 c1 -9 0 -13 -4 -10 -3 4 -7
14 -8 22 -1 9 0 13 4 10 3 -4 7 -14 8 -22z"/>
<path fill="#ffffff" stroke="none" d="M2120 2605 c0 -1 -10 -10 -22 -21 -14
-12 -18 -13 -10 -3 6 9 10 18 7 21 -3 2 2 5 10 5 8 0 15 -1 15 -2z"/>
<path fill="#ffffff" stroke="none" d="M2205 2602 c-3 -3 0 -11 6 -19 17 -20
5 -16 -14 5 -15 16 -15 19 -2 19 8 0 13 -3 10 -5z"/>
<path fill="#ffffff" stroke="none" d="M2321 2593 c13 -16 12 -17 -3 -4 -17
13 -22 21 -14 21 2 0 10 -8 17 -17z"/>
<path fill="#ffffff" stroke="none" d="M2380 2604 c0 -8 -19 -13 -24 -6 -3 5
1 9 9 9 8 0 15 -2 15 -3z"/>
<path fill="#ffffff" stroke="none" d="M1415 2591 c3 -5 2 -12 -3 -15 -5 -3
-9 1 -9 9 0 17 3 19 12 6z"/>
<path fill="#ffffff" stroke="none" d="M1470 2596 c0 -2 -6 -9 -14 -15 -11 -9
-16 -9 -22 0 -4 7 -3 9 4 5 6 -3 13 -2 17 4 6 10 15 14 15 6z"/>
<path fill="#ffffff" stroke="none" d="M1741 2583 c13 -16 12 -17 -3 -4 -17
13 -22 21 -14 21 2 0 10 -8 17 -17z"/>
<path fill="#ffffff" stroke="none" d="M2185 2580 c10 -11 16 -20 13 -20 -3 0
-13 9 -23 20 -10 11 -16 20 -13 20 3 0 13 -9 23 -20z"/>
<path fill="#ffffff" stroke="none" d="M937 2579 c-1 -3 4 -13 11 -22 9 -10
10 -17 2 -22 -6 -4 -10 -3 -9 2 1 4 0 10 -1 13 -4 11 -8 42 -5 38 2 -1 3 -6 2
-9z"/>
<path fill="#ffffff" stroke="none" d="M1016 2575 c-1 -8 -8 -21 -16 -28 -10
-10 -11 -9 -4 3 5 8 9 18 10 23 3 14 4 17 8 17 2 0 3 -7 2 -15z"/>
<path fill="#ffffff" stroke="none" d="M1336 2572 c-3 -3 0 -12 6 -21 10 -13
10 -14 -2 -4 -16 15 -23 46 -8 37 5 -3 7 -9 4 -12z"/>
<path fill="#ffffff" stroke="none" d="M1777 2583 c-4 -3 -1 -13 6 -22 11 -14
10 -14 -5 -2 -16 12 -16 31 -1 31 4 0 3 -3 0 -7z"/>
<path fill="#ffffff" stroke="none" d="M1870 2584 c0 -8 -19 -13 -24 -6 -3 5
1 9 9 9 8 0 15 -2 15 -3z"/>
<path fill="#ffffff" stroke="none" d="M2285 2570 c10 -11 16 -20 13 -20 -3 0
-13 9 -23 20 -10 11 -16 20 -13 20 3 0 13 -9 23 -20z"/>
<path fill="#ffffff" stroke="none" d="M2356 2564 c1 -9 0 -13 -4 -10 -3 4 -7
14 -8 22 -1 9 0 13 4 10 3 -4 7 -14 8 -22z"/>
<path fill="#ffffff" stroke="none" d="M1076 2565 c-1 -8 -5 -17 -8 -21 -5 -4
-4 16 1 34 3 9 9 -1 7 -13z"/>
<path fill="#ffffff" stroke="none" d="M1471 2567 c-6 -8 -7 -18 -3 -22 4 -5
1 -5 -6 -1 -10 6 -10 11 -1 22 6 8 14 14 16 14 3 0 0 -6 -6 -13z"/>
<path fill="#ffffff" stroke="none" d="M1731 2563 c13 -16 12 -17 -3 -4 -10 7
-18 15 -18 17 0 8 8 3 21 -13z"/>
<path fill="#ffffff" stroke="none" d="M1836 2554 c1 -9 0 -13 -4 -10 -3 4 -7
14 -8 22 -1 9 0 13 4 10 3 -4 7 -14 8 -22z"/>
<path fill="#ffffff" stroke="none" d="M2169 2566 c9 -11 9 -16 -1 -22 -7 -4
-10 -4 -6 1 4 4 3 14 -3 22 -6 7 -9 13 -6 13 2 0 10 -6 16 -14z"/>
<path fill="#ffffff" stroke="none" d="M990 2564 c0 -8 -19 -13 -24 -6 -3 5 1
9 9 9 8 0 15 -2 15 -3z"/>
<path fill="#ffffff" stroke="none" d="M2329 2563 c-1 -5 0 -10 1 -13 8 -21 6
-41 -5 -50 -9 -8 -15 -8 -20 0 -4 6 -1 9 5 8 15 -4 22 29 9 38 -5 3 -7 10 -4
15 7 11 15 12 14 2z"/>
<path fill="#ffffff" stroke="none" d="M867 2553 c-4 -3 -1 -13 6 -22 11 -14
10 -14 -5 -2 -16 12 -16 31 -1 31 4 0 3 -3 0 -7z"/>
<path fill="#ffffff" stroke="none" d="M1421 2543 c13 -16 12 -17 -3 -4 -17
13 -22 21 -14 21 2 0 10 -8 17 -17z"/>
<path fill="#ffffff" stroke="none" d="M1764 2551 c3 -5 -1 -14 -8 -20 -10 -9
-16 -9 -21 -1 -4 6 -1 9 7 8 7 -2 12 3 11 10 -3 14 3 16 11 3z"/>
<path fill="#ffffff" stroke="none" d="M1813 2546 c3 -8 -2 -20 -11 -27 -14
-11 -15 -11 -5 0 6 7 9 20 6 27 -3 8 -3 14 0 14 3 0 7 -6 10 -14z"/>
<path fill="#ffffff" stroke="none" d="M1865 2551 c3 -5 2 -12 -3 -15 -5 -3
-9 1 -9 9 0 17 3 19 12 6z"/>
<path fill="#ffffff" stroke="none" d="M2147 2553 c-4 -3 -2 -11 3 -18 7 -8 1
-19 -18 -36 l-27 -24 23 26 c15 18 20 29 13 34 -11 6 -6 25 6 25 4 0 3 -3 0
-7z"/>
<path fill="#ffffff" stroke="none" d="M2274 2551 c3 -4 -4 -17 -17 -27 -22
-19 -22 -19 -4 2 9 11 14 24 10 27 -3 4 -4 7 0 7 3 0 8 -4 11 -9z"/>
<path fill="#ffffff" stroke="none" d="M927 2535 c0 -8 -14 -27 -31 -42 -17
-16 -23 -19 -13 -7 9 11 14 24 10 28 -5 4 -1 6 7 4 8 -1 15 3 16 10 4 27 11
32 11 7z"/>
<path fill="#ffffff" stroke="none" d="M1026 2535 c-1 -8 -14 -28 -29 -43 -15
-16 -25 -31 -22 -35 3 -4 2 -5 -2 -2 -10 8 -13 36 -4 30 5 -2 19 7 31 20 13
14 20 25 16 25 -4 0 -4 5 -1 10 9 14 14 12 11 -5z"/>
<path fill="#ffffff" stroke="none" d="M1367 2539 c-1 -3 4 -13 11 -21 10 -12
10 -18 -1 -27 -11 -8 -18 -6 -31 8 -14 15 -15 21 -4 27 7 4 10 4 6 -1 -10 -10
11 -37 23 -29 5 3 6 11 2 17 -8 12 -14 42 -8 35 2 -1 3 -6 2 -9z"/>
<path fill="#ffffff" stroke="none" d="M2197 2543 c-4 -3 -2 -12 4 -19 7 -8 6
-14 -2 -20 -7 -4 -9 -3 -5 4 3 6 2 13 -4 17 -10 6 -5 25 7 25 4 0 3 -3 0 -7z"/>
<path fill="#ffffff" stroke="none" d="M1416 2504 c1 -9 -1 -13 -4 -9 -4 4 -7
10 -7 13 0 4 -4 14 -9 22 -7 12 -6 13 4 3 8 -7 15 -20 16 -29z"/>
<path fill="#ffffff" stroke="none" d="M1487 2533 c-4 -3 -1 -13 6 -22 11 -14
10 -14 -5 -2 -16 12 -16 31 -1 31 4 0 3 -3 0 -7z"/>
<path fill="#ffffff" stroke="none" d="M1783 2528 c-6 -7 -9 -25 -8 -40 1 -15
-1 -25 -5 -23 -15 9 0 75 17 75 3 0 1 -6 -4 -12z"/>
<path fill="#ffffff" stroke="none" d="M2123 2527 c4 3 7 4 7 1 0 -3 -8 -12
-17 -19 -10 -7 -15 -9 -11 -5 4 5 2 16 -5 25 -10 14 -10 14 4 4 9 -7 19 -10
22 -6z"/>
<path fill="#ffffff" stroke="none" d="M2304 2532 c3 -5 -1 -9 -9 -9 -8 0 -12
4 -9 9 3 4 7 8 9 8 2 0 6 -4 9 -8z"/>
<path fill="#ffffff" stroke="none" d="M2380 2535 c0 -2 -6 -8 -13 -14 -10 -8
-14 -7 -14 2 0 8 6 14 14 14 7 0 13 -1 13 -2z"/>
<path fill="#ffffff" stroke="none" d="M854 2521 c3 -5 -1 -14 -8 -20 -10 -9
-16 -9 -21 -1 -4 6 -1 9 7 8 7 -2 12 3 11 10 -3 14 3 16 11 3z"/>
<path fill="#ffffff" stroke="none" d="M1000 2526 c0 -2 -8 -10 -17 -17 -16
-13 -17 -12 -4 4 13 16 21 21 21 13z"/>
<path fill="#ffffff" stroke="none" d="M1079 2516 c9 -10 7 -17 -6 -27 -16
-12 -17 -12 -6 2 10 12 10 18 1 27 -7 7 -9 12 -6 12 3 0 11 -6 17 -14z"/>
<path fill="#ffffff" stroke="none" d="M1315 2521 c3 -5 2 -12 -3 -15 -5 -3
-9 1 -9 9 0 17 3 19 12 6z"/>
<path fill="#ffffff" stroke="none" d="M1735 2510 c10 -11 16 -20 13 -20 -3 0
-13 9 -23 20 -10 11 -16 20 -13 20 3 0 13 -9 23 -20z"/>
<path fill="#ffffff" stroke="none" d="M1844 2521 c3 -5 -1 -14 -8 -20 -10 -9
-16 -9 -21 -1 -4 6 -1 9 7 8 7 -2 12 3 11 10 -3 14 3 16 11 3z"/>
<path fill="#ffffff" stroke="none" d="M954 2511 c3 -4 -3 -16 -13 -25 -14
-13 -18 -14 -18 -2 0 8 5 14 11 13 6 -1 10 4 9 11 -3 14 3 16 11 3z"/>
<path fill="#ffffff" stroke="none" d="M1054 2511 c3 -4 -5 -18 -18 -30 -16
-15 -26 -19 -31 -12 -4 7 -1 10 7 9 7 -2 12 3 11 10 -2 6 3 11 10 10 6 -2 11
3 10 10 -3 14 3 16 11 3z"/>
<path fill="#ffffff" stroke="none" d="M1446 2495 c1 -8 -1 -17 -5 -19 -4 -3
-7 6 -7 19 0 25 8 25 12 0z"/>
<path fill="#ffffff" stroke="none" d="M1709 2506 c9 -11 9 -16 -1 -22 -7 -4
-10 -4 -6 1 4 4 3 14 -3 22 -6 7 -9 13 -6 13 2 0 10 -6 16 -14z"/>
<path fill="#ffffff" stroke="none" d="M2175 2503 c-1 -10 3 -25 9 -33 9 -13
9 -13 -6 -2 -13 10 -16 26 -9 50 4 11 9 -2 6 -15z"/>
<path fill="#ffffff" stroke="none" d="M880 2506 c0 -2 -8 -10 -17 -17 -16
-13 -17 -12 -4 4 13 16 21 21 21 13z"/>
<path fill="#ffffff" stroke="none" d="M1475 2501 c3 -5 2 -12 -3 -15 -5 -3
-9 1 -9 9 0 17 3 19 12 6z"/>
<path fill="#ffffff" stroke="none" d="M2227 2495 c0 -8 -4 -12 -9 -9 -5 3 -6
10 -3 15 9 13 12 11 12 -6z"/>
<path fill="#ffffff" stroke="none" d="M2290 2504 c0 -8 -19 -13 -24 -6 -3 5
1 9 9 9 8 0 15 -2 15 -3z"/>
<path fill="#ffffff" stroke="none" d="M1327 2485 c0 -8 -4 -12 -9 -9 -5 3 -6
10 -3 15 9 13 12 11 12 -6z"/>
<path fill="#ffffff" stroke="none" d="M1686 2485 c-1 -8 -5 -17 -8 -21 -5 -4
-4 16 1 34 3 9 9 -1 7 -13z"/>
<path fill="#ffffff" stroke="none" d="M1815 2480 c10 -11 16 -20 13 -20 -3 0
-13 9 -23 20 -10 11 -16 20 -13 20 3 0 13 -9 23 -20z"/>
<path fill="#ffffff" stroke="none" d="M1855 2473 c-1 -16 3 -35 9 -43 9 -13
9 -13 -5 -3 -12 10 -18 50 -10 71 4 10 8 -3 6 -25z"/>
<path fill="#ffffff" stroke="none" d="M2255 2491 c3 -5 2 -12 -3 -15 -5 -3
-9 1 -9 9 0 17 3 19 12 6z"/>
<path fill="#ffffff" stroke="none" d="M2350 2496 c0 -2 -8 -10 -17 -17 -16
-13 -17 -12 -4 4 13 16 21 21 21 13z"/>
<path fill="#ffffff" stroke="none" d="M1391 2477 c-6 -8 -7 -18 -3 -22 4 -5
1 -5 -6 -1 -10 6 -10 11 -1 22 6 8 14 14 16 14 3 0 0 -6 -6 -13z"/>
<path fill="#ffffff" stroke="none" d="M1500 2486 c0 -2 -8 -10 -17 -17 -16
-13 -17 -12 -4 4 13 16 21 21 21 13z"/>
<path fill="#ffffff" stroke="none" d="M2143 2478 c-6 -7 -9 -21 -8 -30 4 -21
-20 -44 -30 -28 -4 6 -1 9 6 8 7 -2 13 6 14 17 0 21 12 45 22 45 3 0 1 -6 -4
-12z"/>
<path fill="#ffffff" stroke="none" d="M2304 2481 c3 -4 -7 -19 -22 -32 l-27
-24 23 26 c12 14 19 29 15 32 -3 4 -4 7 0 7 3 0 8 -4 11 -9z"/>
<path fill="#ffffff" stroke="none" d="M910 2476 c0 -2 -8 -10 -17 -17 -16
-13 -17 -12 -4 4 13 16 21 21 21 13z"/>
<path fill="#ffffff" stroke="none" d="M1750 2475 c0 -1 -10 -10 -22 -21 -14
-12 -18 -13 -10 -3 6 9 10 18 7 21 -3 2 2 5 10 5 8 0 15 -1 15 -2z"/>
<path fill="#ffffff" stroke="none" d="M2280 2476 c0 -2 -8 -10 -17 -17 -16
-13 -17 -12 -4 4 13 16 21 21 21 13z"/>
<path fill="#ffffff" stroke="none" d="M946 2461 c-6 -10 18 -34 26 -26 2 3 5
-2 5 -10 0 -12 -6 -10 -23 6 -20 19 -24 39 -8 39 3 0 3 -4 0 -9z"/>
<path fill="#ffffff" stroke="none" d="M1050 2466 c0 -2 -8 -10 -17 -17 -16
-13 -17 -12 -4 4 13 16 21 21 21 13z"/>
<path fill="#ffffff" stroke="none" d="M1316 2444 c1 -9 0 -13 -4 -10 -3 4 -7
14 -8 22 -1 9 0 13 4 10 3 -4 7 -14 8 -22z"/>
<path fill="#ffffff" stroke="none" d="M1456 2455 c-3 -23 -22 -39 -31 -26 -3
7 -1 10 6 9 7 -2 14 3 15 10 2 19 4 22 8 22 2 0 3 -7 2 -15z"/>
<path fill="#ffffff" stroke="none" d="M1703 2458 c-8 -11 -10 -33 -3 -40 7
-9 7 -39 0 -43 -5 -3 -7 3 -5 15 2 11 0 22 -5 25 -13 8 1 55 17 55 3 0 1 -6
-4 -12z"/>
<path fill="#ffffff" stroke="none" d="M1806 2452 c-3 -3 0 -12 6 -21 10 -13
10 -14 -2 -4 -16 15 -23 46 -8 37 5 -3 7 -9 4 -12z"/>
<path fill="#ffffff" stroke="none" d="M2171 2453 c13 -16 12 -17 -3 -4 -10 7
-18 15 -18 17 0 8 8 3 21 -13z"/>
<path fill="#ffffff" stroke="none" d="M2235 2461 c3 -5 2 -12 -3 -15 -5 -3
-9 1 -9 9 0 17 3 19 12 6z"/>
<path fill="#ffffff" stroke="none" d="M916 2445 c-1 -8 -5 -17 -8 -21 -5 -4
-4 16 1 34 3 9 9 -1 7 -13z"/>
<path fill="#ffffff" stroke="none" d="M1006 2435 c1 -8 -1 -17 -5 -19 -4 -3
-7 6 -7 19 0 25 8 25 12 0z"/>
<path fill="#ffffff" stroke="none" d="M1346 2435 c1 -8 -1 -17 -5 -19 -4 -3
-7 6 -7 19 0 25 8 25 12 0z"/>
<path fill="#ffffff" stroke="none" d="M1760 2456 c0 -2 -8 -10 -17 -17 -16
-13 -17 -12 -4 4 13 16 21 21 21 13z"/>
<path fill="#ffffff" stroke="none" d="M2207 2453 c-4 -3 -1 -13 6 -22 11 -14
10 -14 -5 -2 -16 12 -16 31 -1 31 4 0 3 -3 0 -7z"/>
<path fill="#ffffff" stroke="none" d="M1064 2442 c3 -5 -1 -9 -9 -9 -8 0 -12
4 -9 9 3 4 7 8 9 8 2 0 6 -4 9 -8z"/>
<path fill="#ffffff" stroke="none" d="M1375 2441 c3 -5 2 -12 -3 -15 -5 -3
-9 1 -9 9 0 17 3 19 12 6z"/>
<path fill="#ffffff" stroke="none" d="M1407 2443 c-4 -3 -2 -12 4 -19 7 -8 6
-14 -2 -20 -7 -4 -9 -3 -5 4 3 6 2 13 -4 17 -10 6 -5 25 7 25 4 0 3 -3 0 -7z"/>
<path fill="#ffffff" stroke="none" d="M1771 2437 c-6 -8 -9 -16 -6 -19 3 -3
-1 -10 -8 -17 -11 -8 -18 -6 -33 12 l-19 22 23 -19 c12 -11 23 -16 23 -13 1 4
2 10 3 15 2 11 17 32 23 32 3 0 0 -6 -6 -13z"/>
<path fill="#ffffff" stroke="none" d="M1900 2444 c0 -8 -19 -13 -24 -6 -3 5
1 9 9 9 8 0 15 -2 15 -3z"/>
<path fill="#ffffff" stroke="none" d="M951 2413 c13 -16 12 -17 -3 -4 -10 7
-18 15 -18 17 0 8 8 3 21 -13z"/>
<path fill="#ffffff" stroke="none" d="M1667 2423 c-4 -3 -1 -13 6 -22 11 -14
10 -14 -5 -2 -16 12 -16 31 -1 31 4 0 3 -3 0 -7z"/>
<path fill="#ffffff" stroke="none" d="M1799 2416 c9 -11 9 -16 -1 -22 -7 -4
-10 -4 -6 1 4 4 3 14 -3 22 -6 7 -9 13 -6 13 2 0 10 -6 16 -14z"/>
<path fill="#ffffff" stroke="none" d="M1851 2413 c13 -16 12 -17 -3 -4 -10 7
-18 15 -18 17 0 8 8 3 21 -13z"/>
<path fill="#ffffff" stroke="none" d="M2196 2412 c-3 -3 0 -12 6 -21 10 -13
10 -14 -2 -4 -16 15 -23 46 -8 37 5 -3 7 -9 4 -12z"/>
<path fill="#ffffff" stroke="none" d="M1077 2403 c0 -9 -4 -10 -14 -2 -7 6
-13 12 -13 14 0 1 6 2 13 2 8 0 14 -6 14 -14z"/>
<path fill="#ffffff" stroke="none" d="M1106 2394 c1 -9 0 -13 -4 -10 -3 4 -7
14 -8 22 -1 9 0 13 4 10 3 -4 7 -14 8 -22z"/>
<path fill="#ffffff" stroke="none" d="M1311 2407 c-6 -8 -9 -16 -6 -19 3 -3
-3 -12 -13 -21 -15 -14 -19 -14 -19 -3 0 8 5 14 11 13 5 -1 10 3 11 8 0 13 14
35 22 35 3 0 0 -6 -6 -13z"/>
<path fill="#ffffff" stroke="none" d="M1387 2413 c-4 -3 0 -14 9 -24 12 -13
12 -19 3 -25 -7 -4 -10 -3 -6 3 4 6 0 16 -8 23 -14 11 -12 30 2 30 4 0 3 -3 0
-7z"/>
<path fill="#ffffff" stroke="none" d="M1487 2405 c0 -8 -4 -12 -9 -9 -5 3 -6
10 -3 15 9 13 12 11 12 -6z"/>
<path fill="#ffffff" stroke="none" d="M1516 2395 c1 -8 -1 -17 -5 -19 -4 -3
-7 6 -7 19 0 25 8 25 12 0z"/>
<path fill="#ffffff" stroke="none" d="M1887 2405 c0 -8 -4 -12 -9 -9 -5 3 -6
10 -3 15 9 13 12 11 12 -6z"/>
<path fill="#ffffff" stroke="none" d="M1356 2395 c-1 -8 -5 -17 -8 -21 -5 -4
-4 16 1 34 3 9 9 -1 7 -13z"/>
<path fill="#ffffff" stroke="none" d="M1436 2395 c-1 -8 -5 -17 -8 -21 -5 -4
-4 16 1 34 3 9 9 -1 7 -13z"/>
<path fill="#ffffff" stroke="none" d="M1839 2396 c9 -11 9 -16 -1 -22 -7 -4
-10 -4 -6 1 4 4 3 14 -3 22 -6 7 -9 13 -6 13 2 0 10 -6 16 -14z"/>
<path fill="#ffffff" stroke="none" d="M2097 2403 c-4 -3 -2 -12 4 -19 7 -8 6
-14 -2 -20 -7 -4 -9 -3 -5 4 3 6 2 13 -4 17 -10 6 -5 25 7 25 4 0 3 -3 0 -7z"/>
<path fill="#ffffff" stroke="none" d="M2161 2397 c-6 -8 -8 -16 -5 -19 3 -3
1 -9 -4 -12 -6 -3 -9 0 -8 6 2 16 15 38 23 38 3 0 0 -6 -6 -13z"/>
<path fill="#ffffff" stroke="none" d="M1011 2383 c13 -16 12 -17 -3 -4 -10 7
-18 15 -18 17 0 8 8 3 21 -13z"/>
<path fill="#ffffff" stroke="none" d="M1061 2383 c13 -16 12 -17 -3 -4 -17
13 -22 21 -14 21 2 0 10 -8 17 -17z"/>
<path fill="#ffffff" stroke="none" d="M1464 2391 c3 -4 -4 -17 -17 -27 -22
-19 -22 -19 -4 2 9 11 14 24 10 27 -3 4 -4 7 0 7 3 0 8 -4 11 -9z"/>
<path fill="#ffffff" stroke="none" d="M1654 2391 c3 -5 -2 -15 -12 -22 -15
-12 -16 -12 -5 2 7 9 10 19 6 22 -3 4 -4 7 0 7 3 0 8 -4 11 -9z"/>
<path fill="#ffffff" stroke="none" d="M1780 2396 c0 -2 -8 -10 -17 -17 -16
-13 -17 -12 -4 4 13 16 21 21 21 13z"/>
<path fill="#ffffff" stroke="none" d="M1901 2377 c-10 -9 -11 -8 -5 6 3 10 9
15 12 12 3 -3 0 -11 -7 -18z"/>
<path fill="#ffffff" stroke="none" d="M1817 2383 c-4 -3 -2 -12 4 -19 7 -8 6
-14 -2 -20 -7 -4 -9 -3 -5 4 3 6 2 13 -4 17 -10 6 -5 25 7 25 4 0 3 -3 0 -7z"/>
<path fill="#ffffff" stroke="none" d="M2189 2376 c8 -10 8 -16 -3 -25 -10 -8
-16 -9 -21 -1 -4 6 -3 10 2 9 20 -3 25 2 13 16 -7 8 -10 15 -7 15 2 0 10 -6
16 -14z"/>
<path fill="#ffffff" stroke="none" d="M999 2366 c9 -10 7 -17 -6 -27 -16 -12
-17 -12 -6 2 10 12 10 18 1 27 -7 7 -9 12 -6 12 3 0 11 -6 17 -14z"/>
<path fill="#ffffff" stroke="none" d="M1051 2363 c13 -16 12 -17 -3 -4 -10 7
-18 15 -18 17 0 8 8 3 21 -13z"/>
<path fill="#ffffff" stroke="none" d="M1377 2373 c-4 -3 -1 -13 6 -22 11 -14
10 -14 -5 -2 -16 12 -16 31 -1 31 4 0 3 -3 0 -7z"/>
<path fill="#ffffff" stroke="none" d="M1486 2365 c-3 -23 -22 -39 -31 -26 -3
7 -1 10 6 9 7 -2 14 3 15 10 2 19 4 22 8 22 2 0 3 -7 2 -15z"/>
<path fill="#ffffff" stroke="none" d="M1544 2372 c3 -5 -1 -9 -9 -9 -8 0 -12
4 -9 9 3 4 7 8 9 8 2 0 6 -4 9 -8z"/>
<path fill="#ffffff" stroke="none" d="M1680 2377 c0 -2 -11 -14 -24 -26 -18
-17 -26 -19 -31 -10 -5 7 -4 10 2 6 6 -4 18 2 28 13 17 19 25 24 25 17z"/>
<path fill="#ffffff" stroke="none" d="M1787 2373 c-4 -3 -2 -12 4 -19 7 -8 6
-14 -2 -20 -7 -4 -9 -3 -5 4 3 6 2 13 -4 17 -10 6 -5 25 7 25 4 0 3 -3 0 -7z"/>
<path fill="#ffffff" stroke="none" d="M2079 2373 c-1 -5 0 -10 1 -13 7 -19 7
-41 0 -45 -5 -3 -7 3 -5 15 2 11 -1 22 -6 25 -5 4 -7 11 -4 16 7 11 15 12 14
2z"/>
<path fill="#ffffff" stroke="none" d="M1137 2353 c0 -7 -10 -21 -21 -30 -21
-18 -21 -18 -4 3 12 14 14 24 8 30 -7 7 -6 11 3 11 8 0 14 -6 14 -14z"/>
<path fill="#ffffff" stroke="none" d="M1720 2367 c0 -2 -8 -11 -18 -20 -15
-14 -19 -15 -19 -2 0 8 4 12 8 9 4 -2 10 0 14 6 6 10 15 14 15 7z"/>
<path fill="#ffffff" stroke="none" d="M1857 2363 c-4 -3 1 -16 10 -27 18 -21
18 -21 -4 -2 -20 16 -23 36 -6 36 4 0 3 -3 0 -7z"/>
<path fill="#ffffff" stroke="none" d="M2047 2363 c-4 -3 -1 -13 6 -22 11 -14
10 -14 -5 -2 -16 12 -16 31 -1 31 4 0 3 -3 0 -7z"/>
<path fill="#ffffff" stroke="none" d="M2127 2355 c0 -8 -4 -12 -9 -9 -5 3 -6
10 -3 15 9 13 12 11 12 -6z"/>
<path fill="#ffffff" stroke="none" d="M1039 2347 c8 -11 4 -19 -17 -38 l-27
-24 22 26 c18 19 20 28 11 37 -7 7 -9 12 -6 12 3 0 11 -6 17 -13z"/>
<path fill="#ffffff" stroke="none" d="M1105 2348 c5 4 5 1 1 -6 -6 -10 -11
-10 -22 -1 -8 6 -14 14 -14 16 0 3 6 0 13 -6 8 -6 18 -7 22 -3z"/>
<path fill="#ffffff" stroke="none" d="M1310 2357 c0 -2 -10 -13 -23 -25 -18
-17 -24 -19 -24 -8 0 8 4 13 8 11 3 -3 12 2 19 10 12 14 20 19 20 12z"/>
<path fill="#ffffff" stroke="none" d="M1355 2351 c3 -5 2 -12 -3 -15 -5 -3
-9 1 -9 9 0 17 3 19 12 6z"/>
<path fill="#ffffff" stroke="none" d="M1415 2343 c-1 -10 2 -24 8 -30 5 -7 6
-13 2 -13 -4 0 -1 -8 6 -17 13 -16 12 -17 -3 -4 -10 7 -16 17 -13 21 3 5 1 11
-4 14 -7 5 -8 23 -2 44 4 11 9 -2 6 -15z"/>
<path fill="#ffffff" stroke="none" d="M1736 2345 c-3 -23 -22 -39 -31 -26 -3
7 -1 10 6 9 7 -2 14 3 15 10 2 19 4 22 8 22 2 0 3 -7 2 -15z"/>
<path fill="#ffffff" stroke="none" d="M1766 2334 c1 -9 0 -13 -4 -10 -3 4 -7
14 -8 22 -1 9 0 13 4 10 3 -4 7 -14 8 -22z"/>
<path fill="#ffffff" stroke="none" d="M1900 2354 c0 -8 -19 -13 -24 -6 -3 5
1 9 9 9 8 0 15 -2 15 -3z"/>
<path fill="#ffffff" stroke="none" d="M1325 2333 c-1 -10 4 -25 12 -35 11
-12 11 -18 2 -24 -7 -4 -10 -3 -6 3 4 6 1 16 -7 22 -11 10 -14 26 -7 49 4 11
9 -2 6 -15z"/>
<path fill="#ffffff" stroke="none" d="M1551 2337 c-7 -7 -7 -16 1 -26 10 -13
10 -14 -2 -4 -19 17 -21 40 -4 40 10 0 11 -4 5 -10z"/>
<path fill="#ffffff" stroke="none" d="M1920 2346 c0 -2 -8 -10 -17 -17 -16
-13 -17 -12 -4 4 13 16 21 21 21 13z"/>
<path fill="#ffffff" stroke="none" d="M2025 2341 c3 -5 2 -12 -3 -15 -5 -3
-9 1 -9 9 0 17 3 19 12 6z"/>
<path fill="#ffffff" stroke="none" d="M2161 2333 c13 -16 12 -17 -3 -4 -10 7
-18 15 -18 17 0 8 8 3 21 -13z"/>
<path fill="#ffffff" stroke="none" d="M2210 2346 c0 -2 -8 -10 -17 -17 -16
-13 -17 -12 -4 4 13 16 21 21 21 13z"/>
<path fill="#ffffff" stroke="none" d="M1020 2336 c0 -2 -8 -10 -17 -17 -16
-13 -17 -12 -4 4 13 16 21 21 21 13z"/>
<path fill="#ffffff" stroke="none" d="M1081 2323 c13 -16 12 -17 -3 -4 -10 7
-18 15 -18 17 0 8 8 3 21 -13z"/>
<path fill="#ffffff" stroke="none" d="M1165 2317 c1 -7 7 -11 14 -9 8 1 10
-2 4 -10 -4 -7 -8 -16 -8 -20 0 -3 -3 -9 -7 -13 -3 -4 -5 1 -4 12 2 10 1 23
-3 28 -8 15 -11 38 -3 30 4 -4 7 -12 7 -18z"/>
<path fill="#ffffff" stroke="none" d="M1456 2310 c1 -6 2 -11 4 -12 7 -9 7
-39 0 -43 -5 -3 -7 3 -5 12 1 10 -2 24 -8 31 -5 6 -6 12 -2 12 4 0 1 8 -6 18
-11 15 -11 15 1 4 8 -7 16 -17 16 -22z"/>
<path fill="#ffffff" stroke="none" d="M1497 2333 c-4 -3 -1 -13 6 -22 11 -14
10 -14 -5 -2 -16 12 -16 31 -1 31 4 0 3 -3 0 -7z"/>
<path fill="#ffffff" stroke="none" d="M1665 2323 c-1 -10 3 -25 9 -33 9 -13
9 -13 -6 -2 -13 10 -16 26 -9 50 4 11 9 -2 6 -15z"/>
<path fill="#ffffff" stroke="none" d="M1837 2325 c0 -8 -4 -12 -9 -9 -5 3 -6
10 -3 15 9 13 12 11 12 -6z"/>
<path fill="#ffffff" stroke="none" d="M2114 2331 c3 -5 -2 -15 -12 -22 -15
-12 -16 -12 -5 2 7 9 10 19 6 22 -3 4 -4 7 0 7 3 0 8 -4 11 -9z"/>
<path fill="#ffffff" stroke="none" d="M1385 2322 c-3 -3 0 -11 6 -18 7 -9 6
-14 -3 -20 -7 -4 -10 -3 -5 1 4 5 0 16 -8 25 -13 15 -13 17 0 17 8 0 13 -3 10
-5z"/>
<path fill="#ffffff" stroke="none" d="M1631 2313 c13 -16 12 -17 -3 -4 -10 7
-18 15 -18 17 0 8 8 3 21 -13z"/>
<path fill="#ffffff" stroke="none" d="M2149 2316 c9 -10 7 -17 -6 -27 -16
-12 -17 -12 -6 2 10 12 10 18 1 27 -7 7 -9 12 -6 12 3 0 11 -6 17 -14z"/>
<path fill="#ffffff" stroke="none" d="M1057 2309 c-1 -3 4 -13 11 -22 9 -10
10 -17 2 -22 -6 -4 -10 -3 -9 2 1 4 0 10 -1 13 -4 11 -8 42 -5 38 2 -1 3 -6 2
-9z"/>
<path fill="#ffffff" stroke="none" d="M1137 2313 c-4 -3 -1 -13 6 -22 11 -14
10 -14 -5 -2 -16 12 -16 31 -1 31 4 0 3 -3 0 -7z"/>
<path fill="#ffffff" stroke="none" d="M1300 2317 c0 -2 -9 -12 -19 -21 -14
-13 -21 -14 -27 -5 -4 7 -3 10 3 6 6 -4 16 0 23 8 12 14 20 19 20 12z"/>
<path fill="#ffffff" stroke="none" d="M1361 2303 c13 -16 12 -17 -3 -4 -10 7
-18 15 -18 17 0 8 8 3 21 -13z"/>
<path fill="#ffffff" stroke="none" d="M1706 2285 c-1 -8 -5 -17 -8 -21 -4 -3
-5 2 -4 13 2 10 -2 25 -8 33 -9 13 -9 13 6 2 9 -7 15 -19 14 -27z"/>
<path fill="#ffffff" stroke="none" d="M1750 2316 c0 -2 -8 -10 -17 -17 -16
-13 -17 -12 -4 4 13 16 21 21 21 13z"/>
<path fill="#ffffff" stroke="none" d="M1783 2288 c-10 -11 -17 -23 -16 -27 1
-3 0 -8 -2 -9 -9 -10 3 28 13 40 6 8 8 19 4 23 -4 5 -1 5 6 1 11 -6 10 -12 -5
-28z"/>
<path fill="#ffffff" stroke="none" d="M1916 2305 c-1 -8 -5 -17 -8 -21 -5 -4
-4 16 1 34 3 9 9 -1 7 -13z"/>
<path fill="#ffffff" stroke="none" d="M2040 2317 c0 -2 -13 -15 -28 -30 -20
-19 -29 -23 -29 -13 0 8 5 14 11 13 6 -1 10 4 8 11 -1 8 2 11 7 8 5 -4 12 -2
16 4 6 9 15 14 15 7z"/>
<path fill="#ffffff" stroke="none" d="M2057 2300 c-2 -11 -6 -22 -9 -26 -4
-3 -5 2 -3 13 2 10 4 21 4 26 1 4 3 7 6 7 3 0 4 -9 2 -20z"/>
<path fill="#ffffff" stroke="none" d="M1489 2296 c9 -11 9 -16 -1 -22 -7 -4
-10 -4 -6 1 4 4 3 14 -3 22 -6 7 -9 13 -6 13 2 0 10 -6 16 -14z"/>
<path fill="#ffffff" stroke="none" d="M1541 2293 c13 -16 12 -17 -3 -4 -10 7
-18 15 -18 17 0 8 8 3 21 -13z"/>
<path fill="#ffffff" stroke="none" d="M1770 2306 c0 -2 -8 -10 -17 -17 -16
-13 -17 -12 -4 4 13 16 21 21 21 13z"/>
<path fill="#ffffff" stroke="none" d="M1843 2297 c4 3 7 4 7 1 0 -3 -10 -13
-22 -24 -13 -11 -18 -13 -11 -3 10 12 10 18 0 29 -10 12 -9 12 4 2 9 -6 19 -9
22 -5z"/>
<path fill="#ffffff" stroke="none" d="M2121 2297 c-6 -8 -8 -16 -5 -19 3 -3
1 -9 -4 -12 -6 -3 -9 0 -8 6 2 16 15 38 23 38 3 0 0 -6 -6 -13z"/>
<path fill="#ffffff" stroke="none" d="M1121 2283 c13 -16 12 -17 -3 -4 -10 7
-18 15 -18 17 0 8 8 3 21 -13z"/>
<path fill="#ffffff" stroke="none" d="M1310 2296 c0 -2 -8 -10 -17 -17 -16
-13 -17 -12 -4 4 13 16 21 21 21 13z"/>
<path fill="#ffffff" stroke="none" d="M1531 2273 c13 -16 12 -17 -3 -4 -10 7
-18 15 -18 17 0 8 8 3 21 -13z"/>
<path fill="#ffffff" stroke="none" d="M1600 2287 c0 -2 -10 -13 -23 -25 -18
-17 -24 -19 -24 -8 0 8 4 13 8 11 3 -3 12 2 19 10 12 14 20 19 20 12z"/>
<path fill="#ffffff" stroke="none" d="M1655 2281 c3 -5 2 -12 -3 -15 -5 -3
-9 1 -9 9 0 17 3 19 12 6z"/>
<path fill="#ffffff" stroke="none" d="M1867 2275 c0 -8 -8 -22 -17 -30 -14
-13 -17 -13 -17 -1 0 8 5 14 11 13 5 -1 11 4 12 11 4 27 11 32 11 7z"/>
<path fill="#ffffff" stroke="none" d="M1047 2273 c-4 -3 -1 -13 6 -22 11 -14
10 -14 -5 -2 -16 12 -16 31 -1 31 4 0 3 -3 0 -7z"/>
<path fill="#ffffff" stroke="none" d="M1109 2266 c9 -11 9 -16 -1 -22 -7 -4
-10 -4 -6 1 4 4 3 14 -3 22 -6 7 -9 13 -6 13 2 0 10 -6 16 -14z"/>
<path fill="#ffffff" stroke="none" d="M1225 2271 c3 -5 2 -12 -3 -15 -5 -3
-9 1 -9 9 0 17 3 19 12 6z"/>
<path fill="#ffffff" stroke="none" d="M1320 2276 c0 -2 -8 -10 -17 -17 -16
-13 -17 -12 -4 4 13 16 21 21 21 13z"/>
<path fill="#ffffff" stroke="none" d="M1370 2276 c0 -2 -8 -10 -17 -17 -16
-13 -17 -12 -4 4 13 16 21 21 21 13z"/>
<path fill="#ffffff" stroke="none" d="M1411 2256 c-6 -7 -7 -17 -3 -21 4 -5
1 -5 -6 -1 -9 6 -10 11 -3 20 6 7 7 17 3 21 -4 5 -1 5 6 1 9 -6 10 -11 3 -20z"/>
<path fill="#ffffff" stroke="none" d="M1741 2263 c13 -16 12 -17 -3 -4 -10 7
-18 15 -18 17 0 8 8 3 21 -13z"/>
<path fill="#ffffff" stroke="none" d="M1891 2256 c-6 -7 -9 -15 -6 -18 3 -3
-1 -11 -9 -17 -10 -8 -16 -9 -21 -1 -4 6 -1 9 6 8 7 -2 14 3 15 10 1 6 3 15 4
20 1 4 2 11 1 15 -1 5 3 6 9 2 8 -5 8 -11 1 -19z"/>
<path fill="#ffffff" stroke="none" d="M1147 2255 c0 -8 -4 -12 -9 -9 -5 3 -6
10 -3 15 9 13 12 11 12 -6z"/>
<path fill="#ffffff" stroke="none" d="M1197 2255 c0 -8 -4 -12 -9 -9 -5 3 -6
10 -3 15 9 13 12 11 12 -6z"/>
<path fill="#ffffff" stroke="none" d="M1275 2261 c3 -5 2 -12 -3 -15 -5 -3
-9 1 -9 9 0 17 3 19 12 6z"/>
<path fill="#ffffff" stroke="none" d="M1377 2253 c-8 -10 -16 -22 -17 -28 -1
-5 -3 -12 -5 -13 -2 -2 -3 3 -1 11 2 16 25 47 34 47 3 0 -2 -8 -11 -17z"/>
<path fill="#ffffff" stroke="none" d="M1514 2261 c3 -5 -2 -15 -12 -22 -15
-12 -16 -12 -5 2 7 9 10 19 6 22 -3 4 -4 7 0 7 3 0 8 -4 11 -9z"/>
<path fill="#ffffff" stroke="none" d="M1606 2255 c-1 -8 -5 -17 -8 -21 -5 -4
-4 16 1 34 3 9 9 -1 7 -13z"/>
<path fill="#ffffff" stroke="none" d="M1677 2255 c0 -8 -4 -12 -9 -9 -5 3 -6
10 -3 15 9 13 12 11 12 -6z"/>
<path fill="#ffffff" stroke="none" d="M2087 2253 c0 -9 -4 -10 -14 -2 -7 6
-13 12 -13 14 0 1 6 2 13 2 8 0 14 -6 14 -14z"/>
<path fill="#ffffff" stroke="none" d="M1087 2245 c0 -8 -4 -12 -9 -9 -5 3 -6
10 -3 15 9 13 12 11 12 -6z"/>
<path fill="#ffffff" stroke="none" d="M1246 2245 c-1 -8 -5 -17 -8 -21 -5 -4
-4 16 1 34 3 9 9 -1 7 -13z"/>
<path fill="#ffffff" stroke="none" d="M1320 2245 c-7 -8 -9 -15 -4 -15 4 0
-2 -10 -14 -22 -11 -13 -20 -26 -19 -30 1 -3 -1 -9 -5 -13 -5 -6 -4 19 2 35 1
3 2 8 1 13 0 4 4 6 11 5 7 -2 12 2 13 7 0 13 14 35 22 35 3 0 0 -7 -7 -15z"/>
<path fill="#ffffff" stroke="none" d="M1481 2247 c-6 -8 -9 -16 -6 -19 3 -3
-1 -11 -9 -17 -10 -8 -16 -9 -21 -1 -4 6 -1 9 6 8 7 -2 13 2 14 7 0 13 14 35
22 35 3 0 0 -6 -6 -13z"/>
<path fill="#ffffff" stroke="none" d="M1731 2243 c13 -16 12 -17 -3 -4 -10 7
-18 15 -18 17 0 8 8 3 21 -13z"/>
<path fill="#ffffff" stroke="none" d="M1800 2257 c0 -2 -9 -12 -19 -21 -14
-13 -21 -14 -27 -5 -4 7 -3 10 3 6 6 -4 16 0 23 8 12 14 20 19 20 12z"/>
<path fill="#ffffff" stroke="none" d="M1937 2245 c0 -8 -8 -22 -17 -30 -14
-13 -17 -13 -17 -1 0 8 5 14 11 13 5 -1 11 4 12 11 4 27 11 32 11 7z"/>
<path fill="#ffffff" stroke="none" d="M2007 2253 c-4 -3 1 -16 10 -27 18 -21
18 -21 -4 -2 -20 16 -23 36 -6 36 4 0 3 -3 0 -7z"/>
<path fill="#ffffff" stroke="none" d="M2061 2243 c13 -16 12 -17 -3 -4 -10 7
-18 15 -18 17 0 8 8 3 21 -13z"/>
<path fill="#ffffff" stroke="none" d="M2160 2256 c0 -2 -8 -10 -17 -17 -16
-13 -17 -12 -4 4 13 16 21 21 21 13z"/>
<path fill="#ffffff" stroke="none" d="M1041 2233 c13 -16 12 -17 -3 -4 -10 7
-18 15 -18 17 0 8 8 3 21 -13z"/>
<path fill="#ffffff" stroke="none" d="M1181 2233 c13 -16 12 -17 -3 -4 -10 7
-18 15 -18 17 0 8 8 3 21 -13z"/>
<path fill="#ffffff" stroke="none" d="M1540 2246 c0 -2 -8 -10 -17 -17 -16
-13 -17 -12 -4 4 13 16 21 21 21 13z"/>
<path fill="#ffffff" stroke="none" d="M1655 2241 c3 -5 2 -12 -3 -15 -5 -3
-9 1 -9 9 0 17 3 19 12 6z"/>
<path fill="#ffffff" stroke="none" d="M1705 2227 c1 -7 7 -11 15 -9 11 3 11
0 0 -12 -14 -17 -21 -20 -19 -8 1 4 0 9 -1 12 -6 16 -7 41 -2 35 4 -4 7 -12 7
-18z"/>
<path fill="#ffffff" stroke="none" d="M1815 2233 c-1 -10 4 -25 11 -34 12
-13 10 -19 -19 -45 l-32 -29 28 31 c24 26 26 33 13 43 -11 10 -14 26 -7 49 4
11 9 -2 6 -15z"/>
<path fill="#ffffff" stroke="none" d="M2041 2233 c13 -16 12 -17 -3 -4 -10 7
-18 15 -18 17 0 8 8 3 21 -13z"/>
<path fill="#ffffff" stroke="none" d="M2114 2241 c3 -5 -1 -14 -8 -20 -10 -9
-16 -9 -21 -1 -4 6 -1 9 7 8 7 -2 12 3 11 10 -3 14 3 16 11 3z"/>
<path fill="#ffffff" stroke="none" d="M1135 2231 c3 -5 2 -12 -3 -15 -5 -3
-9 1 -9 9 0 17 3 19 12 6z"/>
<path fill="#ffffff" stroke="none" d="M1217 2225 c0 -8 -4 -12 -9 -9 -5 3 -6
10 -3 15 9 13 12 11 12 -6z"/>
<path fill="#ffffff" stroke="none" d="M1577 2225 c0 -8 -4 -12 -9 -9 -5 3 -6
10 -3 15 9 13 12 11 12 -6z"/>
<path fill="#ffffff" stroke="none" d="M1627 2225 c0 -8 -4 -12 -9 -9 -5 3 -6
10 -3 15 9 13 12 11 12 -6z"/>
<path fill="#ffffff" stroke="none" d="M2170 2236 c0 -2 -8 -10 -17 -17 -16
-13 -17 -12 -4 4 13 16 21 21 21 13z"/>
<path fill="#ffffff" stroke="none" d="M1074 2221 c3 -5 -1 -14 -8 -20 -10 -9
-16 -9 -21 -1 -4 6 -1 9 7 8 7 -2 12 3 11 10 -3 14 3 16 11 3z"/>
<path fill="#ffffff" stroke="none" d="M1107 2215 c0 -8 -4 -12 -9 -9 -5 3 -6
10 -3 15 9 13 12 11 12 -6z"/>
<path fill="#ffffff" stroke="none" d="M1171 2213 c13 -16 12 -17 -3 -4 -10 7
-18 15 -18 17 0 8 8 3 21 -13z"/>
<path fill="#ffffff" stroke="none" d="M1266 2215 c-1 -8 -5 -17 -8 -21 -5 -4
-4 16 1 34 3 9 9 -1 7 -13z"/>
<path fill="#ffffff" stroke="none" d="M1427 2223 c-4 -3 1 -16 10 -27 18 -21
18 -21 -4 -2 -20 16 -23 36 -6 36 4 0 3 -3 0 -7z"/>
<path fill="#ffffff" stroke="none" d="M1550 2226 c0 -2 -8 -10 -17 -17 -16
-13 -17 -12 -4 4 13 16 21 21 21 13z"/>
<path fill="#ffffff" stroke="none" d="M1677 2223 c-4 -3 -1 -13 6 -22 11 -14
10 -14 -5 -2 -16 12 -16 31 -1 31 4 0 3 -3 0 -7z"/>
<path fill="#ffffff" stroke="none" d="M2001 2213 c13 -16 12 -17 -3 -4 -10 7
-18 15 -18 17 0 8 8 3 21 -13z"/>
<path fill="#ffffff" stroke="none" d="M1336 2205 c-1 -8 -5 -17 -8 -21 -5 -4
-4 16 1 34 3 9 9 -1 7 -13z"/>
<path fill="#ffffff" stroke="none" d="M1506 2194 c1 -9 0 -13 -4 -10 -3 4 -7
14 -8 22 -1 9 0 13 4 10 3 -4 7 -14 8 -22z"/>
<path fill="#ffffff" stroke="none" d="M1597 2209 c-1 -3 4 -13 11 -21 10 -13
9 -18 -5 -29 -16 -12 -17 -12 -6 2 7 9 10 19 6 23 -4 3 -8 14 -9 22 -1 9 -1
14 1 12 2 -1 3 -6 2 -9z"/>
<path fill="#ffffff" stroke="none" d="M1786 2205 c-3 -23 -22 -39 -31 -26 -3
7 -1 10 6 9 7 -2 14 3 15 10 2 19 4 22 8 22 2 0 3 -7 2 -15z"/>
<path fill="#ffffff" stroke="none" d="M1851 2203 c13 -16 12 -17 -3 -4 -10 7
-18 15 -18 17 0 8 8 3 21 -13z"/>
<path fill="#ffffff" stroke="none" d="M1954 2211 c3 -5 -1 -14 -8 -20 -10 -9
-16 -9 -21 -1 -4 6 -1 9 7 8 7 -2 12 3 11 10 -3 14 3 16 11 3z"/>
<path fill="#ffffff" stroke="none" d="M2079 2207 c8 -11 6 -18 -12 -33 -22
-19 -22 -19 -5 2 14 16 15 23 6 32 -7 7 -9 12 -6 12 3 0 11 -6 17 -13z"/>
<path fill="#ffffff" stroke="none" d="M2127 2205 c0 -8 -4 -12 -9 -9 -5 3 -6
10 -3 15 9 13 12 11 12 -6z"/>
<path fill="#ffffff" stroke="none" d="M1161 2193 c13 -16 12 -17 -3 -4 -10 7
-18 15 -18 17 0 8 8 3 21 -13z"/>
<path fill="#ffffff" stroke="none" d="M1237 2203 c-4 -3 1 -16 10 -27 18 -21
18 -21 -4 -2 -20 16 -23 36 -6 36 4 0 3 -3 0 -7z"/>
<path fill="#ffffff" stroke="none" d="M1661 2193 c13 -16 12 -17 -3 -4 -10 7
-18 15 -18 17 0 8 8 3 21 -13z"/>
<path fill="#ffffff" stroke="none" d="M1887 2195 c0 -8 -4 -12 -9 -9 -5 3 -6
10 -3 15 9 13 12 11 12 -6z"/>
<path fill="#ffffff" stroke="none" d="M1989 2196 c9 -11 9 -16 -1 -22 -7 -4
-10 -4 -6 1 4 4 3 14 -3 22 -6 7 -9 13 -6 13 2 0 10 -6 16 -14z"/>
<path fill="#ffffff" stroke="none" d="M2055 2201 c3 -5 2 -12 -3 -15 -5 -3
-9 1 -9 9 0 17 3 19 12 6z"/>
<path fill="#ffffff" stroke="none" d="M1085 2183 c-1 -10 0 -22 4 -28 9 -16
10 -35 1 -40 -5 -3 -7 3 -5 15 2 11 0 22 -5 25 -7 4 -7 22 -1 43 4 10 9 -2 6
-15z"/>
<path fill="#ffffff" stroke="none" d="M1140 2165 c-5 -6 -6 -16 -2 -20 4 -5
1 -5 -6 -1 -9 6 -10 12 -3 20 7 9 7 17 -2 26 -10 12 -9 12 6 1 12 -10 14 -17
7 -26z"/>
<path fill="#ffffff" stroke="none" d="M1371 2183 c13 -16 12 -17 -3 -4 -10 7
-18 15 -18 17 0 8 8 3 21 -13z"/>
<path fill="#ffffff" stroke="none" d="M1421 2183 c13 -16 12 -17 -3 -4 -10 7
-18 15 -18 17 0 8 8 3 21 -13z"/>
<path fill="#ffffff" stroke="none" d="M1479 2193 c-1 -5 0 -10 1 -13 7 -19 7
-39 -1 -34 -5 3 -7 9 -4 14 3 5 1 11 -5 15 -6 4 -8 11 -5 16 7 11 15 12 14 2z"/>
<path fill="#ffffff" stroke="none" d="M1580 2196 c0 -2 -8 -10 -17 -17 -16
-13 -17 -12 -4 4 13 16 21 21 21 13z"/>
<path fill="#ffffff" stroke="none" d="M1644 2181 c14 -15 15 -21 4 -27 -7 -4
-10 -3 -5 1 4 5 0 17 -10 27 -9 10 -14 18 -11 18 3 0 13 -9 22 -19z"/>
<path fill="#ffffff" stroke="none" d="M1737 2193 c-4 -3 1 -16 10 -27 18 -21
18 -21 -4 -2 -20 16 -23 36 -6 36 4 0 3 -3 0 -7z"/>
<path fill="#ffffff" stroke="none" d="M2027 2193 c-4 -3 -1 -13 6 -22 11 -14
10 -14 -5 -2 -16 12 -16 31 -1 31 4 0 3 -3 0 -7z"/>
<path fill="#ffffff" stroke="none" d="M1051 2173 c13 -16 12 -17 -3 -4 -10 7
-18 15 -18 17 0 8 8 3 21 -13z"/>
<path fill="#ffffff" stroke="none" d="M1115 2181 c3 -5 2 -12 -3 -15 -5 -3
-9 1 -9 9 0 17 3 19 12 6z"/>
<path fill="#ffffff" stroke="none" d="M1194 2181 c3 -5 -1 -14 -8 -20 -10 -9
-16 -9 -21 -1 -4 6 -1 9 7 8 7 -2 12 3 11 10 -3 14 3 16 11 3z"/>
<path fill="#ffffff" stroke="none" d="M1534 2181 c3 -4 -3 -16 -13 -25 -14
-13 -18 -14 -18 -2 0 8 5 14 11 13 6 -1 10 4 9 11 -3 14 3 16 11 3z"/>
<path fill="#ffffff" stroke="none" d="M1810 2187 c0 -2 -10 -12 -22 -23 l-23
-19 19 23 c18 21 26 27 26 19z"/>
<path fill="#ffffff" stroke="none" d="M1910 2175 c1 -5 9 -19 18 -30 17 -20
17 -20 -4 -2 -11 9 -21 24 -21 32 0 16 4 16 7 0z"/>
<path fill="#ffffff" stroke="none" d="M1967 2175 c0 -8 -4 -12 -9 -9 -5 3 -6
10 -3 15 9 13 12 11 12 -6z"/>
<path fill="#ffffff" stroke="none" d="M2107 2175 c0 -8 -12 -25 -26 -37 -14
-13 -20 -16 -13 -7 6 9 8 19 4 23 -4 4 0 6 8 4 8 -1 15 3 16 10 4 27 11 32 11
7z"/>
<path fill="#ffffff" stroke="none" d="M1229 2166 c9 -10 7 -17 -6 -27 -16
-12 -17 -12 -6 2 10 12 10 18 1 27 -7 7 -9 12 -6 12 3 0 11 -6 17 -14z"/>
<path fill="#ffffff" stroke="none" d="M1359 2166 c9 -11 9 -16 -1 -22 -7 -4
-10 -4 -6 1 4 4 3 14 -3 22 -6 7 -9 13 -6 13 2 0 10 -6 16 -14z"/>
<path fill="#ffffff" stroke="none" d="M1411 2163 c13 -16 12 -17 -3 -4 -10 7
-18 15 -18 17 0 8 8 3 21 -13z"/>
<path fill="#ffffff" stroke="none" d="M1572 2157 c-12 -13 -20 -27 -17 -30 3
-4 2 -5 -2 -2 -10 8 -13 36 -3 30 4 -3 13 2 20 10 7 8 15 15 18 15 3 0 -4 -10
-16 -23z"/>
<path fill="#ffffff" stroke="none" d="M1687 2165 c0 -8 -4 -12 -9 -9 -5 3 -6
10 -3 15 9 13 12 11 12 -6z"/>
<path fill="#ffffff" stroke="none" d="M1716 2154 c1 -9 0 -13 -4 -10 -3 4 -7
14 -8 22 -1 9 0 13 4 10 3 -4 7 -14 8 -22z"/>
<path fill="#ffffff" stroke="none" d="M1856 2151 c-9 -10 -14 -21 -11 -24 3
-4 2 -5 -2 -2 -12 9 -12 34 0 32 7 -1 11 4 9 11 -1 8 2 11 8 7 8 -5 6 -13 -4
-24z"/>
<path fill="#ffffff" stroke="none" d="M2150 2175 c0 -1 -10 -10 -22 -21 -14
-12 -18 -13 -10 -3 6 9 10 18 7 21 -3 2 2 5 10 5 8 0 15 -1 15 -2z"/>
<path fill="#ffffff" stroke="none" d="M1305 2153 c-2 -10 -4 -19 -5 -20 -2
-2 -3 -7 -4 -12 0 -5 -4 -12 -8 -16 -5 -6 -3 25 2 33 2 1 4 7 5 12 1 6 3 12 4
15 3 14 9 3 6 -12z"/>
<path fill="#ffffff" stroke="none" d="M1336 2144 c1 -9 0 -13 -4 -10 -3 4 -7
14 -8 22 -1 9 0 13 4 10 3 -4 7 -14 8 -22z"/>
<path fill="#ffffff" stroke="none" d="M1454 2162 c3 -5 -1 -9 -9 -9 -8 0 -12
4 -9 9 3 4 7 8 9 8 2 0 6 -4 9 -8z"/>
<path fill="#ffffff" stroke="none" d="M1887 2151 c0 -11 -5 -18 -9 -15 -4 3
-5 11 -1 19 7 21 12 19 10 -4z"/>
<path fill="#ffffff" stroke="none" d="M1201 2147 c-6 -8 -7 -18 -3 -22 4 -5
1 -5 -6 -1 -10 6 -10 11 -1 22 6 8 14 14 16 14 3 0 0 -6 -6 -13z"/>
<path fill="#ffffff" stroke="none" d="M1401 2143 c13 -16 12 -17 -3 -4 -10 7
-18 15 -18 17 0 8 8 3 21 -13z"/>
<path fill="#ffffff" stroke="none" d="M1627 2145 c0 -8 -4 -12 -9 -9 -5 3 -6
10 -3 15 9 13 12 11 12 -6z"/>
<path fill="#ffffff" stroke="none" d="M1996 2134 c1 -9 0 -13 -4 -10 -3 4 -7
14 -8 22 -1 9 0 13 4 10 3 -4 7 -14 8 -22z"/>
<path fill="#ffffff" stroke="none" d="M1280 2145 c0 -1 -10 -11 -23 -23 -17
-17 -24 -18 -24 -8 0 8 5 14 11 13 6 -1 10 3 9 9 -1 6 5 11 13 11 8 0 14 -1
14 -2z"/>
<path fill="#ffffff" stroke="none" d="M1765 2138 c5 4 5 1 1 -6 -6 -10 -11
-10 -22 -1 -8 6 -14 14 -14 16 0 3 6 0 13 -6 8 -6 18 -7 22 -3z"/>
<path fill="#ffffff" stroke="none" d="M1967 2143 c-4 -3 -1 -13 6 -22 11 -14
10 -14 -5 -2 -16 12 -16 31 -1 31 4 0 3 -3 0 -7z"/>
<path fill="#ffffff" stroke="none" d="M2060 2144 c0 -8 -19 -13 -24 -6 -3 5
1 9 9 9 8 0 15 -2 15 -3z"/>
<path fill="#ffffff" stroke="none" d="M1113 2108 c-10 -11 -17 -23 -16 -27 1
-3 0 -8 -2 -9 -9 -10 3 28 13 40 6 8 8 19 4 23 -4 5 -1 5 6 1 11 -6 10 -12 -5
-28z"/>
<path fill="#ffffff" stroke="none" d="M1391 2123 c13 -16 12 -17 -3 -4 -10 7
-18 15 -18 17 0 8 8 3 21 -13z"/>
<path fill="#ffffff" stroke="none" d="M1447 2123 c0 -9 -4 -10 -14 -2 -7 6
-13 12 -13 14 0 1 6 2 13 2 8 0 14 -6 14 -14z"/>
<path fill="#ffffff" stroke="none" d="M1476 2115 c1 -8 -1 -17 -5 -19 -4 -3
-7 6 -7 19 0 25 8 25 12 0z"/>
<path fill="#ffffff" stroke="none" d="M1530 2137 c0 -2 -8 -11 -18 -20 -15
-14 -19 -15 -19 -2 0 8 4 12 8 9 4 -2 10 0 14 6 6 10 15 14 15 7z"/>
<path fill="#ffffff" stroke="none" d="M1604 2124 c3 -8 2 -12 -4 -9 -6 3 -10
10 -10 16 0 14 7 11 14 -7z"/>
<path fill="#ffffff" stroke="none" d="M1646 2111 c-9 -10 -14 -21 -11 -24 3
-4 2 -5 -2 -2 -12 9 -12 34 0 32 7 -1 11 4 9 11 -1 8 2 11 8 7 8 -5 6 -13 -4
-24z"/>
<path fill="#ffffff" stroke="none" d="M1706 2114 c1 -9 0 -13 -4 -10 -3 4 -7
14 -8 22 -1 9 0 13 4 10 3 -4 7 -14 8 -22z"/>
<path fill="#ffffff" stroke="none" d="M1812 2128 c-9 -9 -9 -15 1 -27 11 -14
10 -14 -6 -2 -13 10 -15 17 -6 27 6 8 14 14 17 14 3 0 1 -5 -6 -12z"/>
<path fill="#ffffff" stroke="none" d="M1921 2123 c13 -16 12 -17 -3 -4 -10 7
-18 15 -18 17 0 8 8 3 21 -13z"/>
<path fill="#ffffff" stroke="none" d="M2025 2131 c3 -5 2 -12 -3 -15 -5 -3
-9 1 -9 9 0 17 3 19 12 6z"/>
<path fill="#ffffff" stroke="none" d="M1369 2116 c9 -10 7 -17 -6 -27 -16
-12 -17 -12 -6 2 10 12 10 18 1 27 -7 7 -9 12 -6 12 3 0 11 -6 17 -14z"/>
<path fill="#ffffff" stroke="none" d="M1736 2105 c1 -8 -1 -17 -5 -19 -4 -3
-7 6 -7 19 0 25 8 25 12 0z"/>
<path fill="#ffffff" stroke="none" d="M2097 2115 c0 -8 -4 -12 -9 -9 -5 3 -6
10 -3 15 9 13 12 11 12 -6z"/>
<path fill="#ffffff" stroke="none" d="M1216 2105 c-3 -23 -22 -39 -31 -26 -3
7 -1 10 6 9 7 -2 14 3 15 10 2 19 4 22 8 22 2 0 3 -7 2 -15z"/>
<path fill="#ffffff" stroke="none" d="M1341 2096 c-6 -7 -9 -15 -6 -18 3 -2
-6 -15 -19 -27 -16 -15 -26 -19 -31 -12 -4 7 -1 10 7 9 7 -2 12 3 11 10 -2 6
2 11 9 10 7 -2 13 3 14 10 1 6 3 15 4 20 1 4 2 11 1 15 -1 5 3 6 9 2 8 -5 8
-11 1 -19z"/>
<path fill="#ffffff" stroke="none" d="M1424 2111 c3 -4 -5 -18 -18 -30 -16
-15 -26 -19 -31 -12 -4 7 -1 10 7 9 7 -2 12 3 11 10 -2 6 3 11 10 10 6 -2 11
3 10 10 -3 14 3 16 11 3z"/>
<path fill="#ffffff" stroke="none" d="M1540 2117 c0 -2 -10 -12 -22 -23 l-23
-19 19 23 c18 21 26 27 26 19z"/>
<path fill="#ffffff" stroke="none" d="M1586 2102 c-3 -3 0 -12 6 -21 10 -13
10 -14 -2 -4 -16 15 -23 46 -8 37 5 -3 7 -9 4 -12z"/>
<path fill="#ffffff" stroke="none" d="M1677 2113 c-4 -3 -1 -13 6 -22 11 -14
10 -14 -5 -2 -16 12 -16 31 -1 31 4 0 3 -3 0 -7z"/>
<path fill="#ffffff" stroke="none" d="M1911 2103 c13 -16 12 -17 -3 -4 -10 7
-18 15 -18 17 0 8 8 3 21 -13z"/>
<path fill="#ffffff" stroke="none" d="M1961 2103 c13 -16 12 -17 -3 -4 -10 7
-18 15 -18 17 0 8 8 3 21 -13z"/>
<path fill="#ffffff" stroke="none" d="M2047 2113 c-4 -3 0 -14 8 -23 13 -15
14 -19 1 -29 -11 -9 -16 -9 -22 0 -4 7 -3 9 4 5 17 -10 23 10 7 24 -14 11 -12
30 2 30 4 0 3 -3 0 -7z"/>
<path fill="#ffffff" stroke="none" d="M1161 2093 c2 1 3 0 1 -2 -1 -2 5 -13
15 -23 9 -10 13 -18 8 -18 -4 0 -2 -7 5 -15 7 -8 9 -15 5 -15 -4 0 -1 -8 6
-17 13 -16 12 -17 -4 -4 -9 8 -15 16 -12 19 3 3 0 11 -6 19 -6 7 -8 13 -3 13
4 0 -5 14 -22 32 -16 18 -22 27 -13 20 9 -6 18 -11 20 -9z"/>
<path fill="#ffffff" stroke="none" d="M1320 2107 c0 -2 -14 -16 -32 -33 -18
-16 -27 -22 -20 -13 6 9 8 20 4 24 -4 5 -2 5 4 2 7 -4 17 0 24 8 12 14 20 19
20 12z"/>
<path fill="#ffffff" stroke="none" d="M1556 2088 c0 -13 4 -22 11 -21 9 2 11
-12 4 -34 -1 -2 -1 -6 -2 -10 0 -5 -7 -15 -15 -24 -8 -9 -12 -19 -9 -22 3 -4
2 -5 -2 -2 -9 7 -13 35 -5 32 4 -1 9 3 10 8 2 6 8 15 13 21 6 7 4 16 -5 23
-11 10 -14 26 -7 49 4 11 8 -2 7 -20z"/>
<path fill="#ffffff" stroke="none" d="M1764 2101 c3 -5 -2 -15 -12 -22 -15
-12 -16 -12 -5 2 7 9 10 19 6 22 -3 4 -4 7 0 7 3 0 8 -4 11 -9z"/>
<path fill="#ffffff" stroke="none" d="M1866 2084 c1 -9 0 -13 -4 -10 -3 4 -7
14 -8 22 -1 9 0 13 4 10 3 -4 7 -14 8 -22z"/>
<path fill="#ffffff" stroke="none" d="M1996 2076 c0 -19 -3 -33 -7 -31 -7 5
-4 65 4 65 1 0 3 -15 3 -34z"/>
<path fill="#ffffff" stroke="none" d="M2081 2093 c13 -16 12 -17 -3 -4 -10 7
-18 15 -18 17 0 8 8 3 21 -13z"/>
<path fill="#ffffff" stroke="none" d="M1446 2085 c-1 -8 -5 -17 -8 -21 -5 -4
-4 16 1 34 3 9 9 -1 7 -13z"/>
<path fill="#ffffff" stroke="none" d="M1799 2086 c9 -11 9 -16 -1 -22 -7 -4
-10 -4 -6 1 4 4 3 14 -3 22 -6 7 -9 13 -6 13 2 0 10 -6 16 -14z"/>
<path fill="#ffffff" stroke="none" d="M1896 2075 c1 -8 -1 -17 -5 -19 -4 -3
-7 6 -7 19 0 25 8 25 12 0z"/>
<path fill="#ffffff" stroke="none" d="M1945 2072 c-1 -9 2 -24 8 -32 9 -12 9
-13 -3 -2 -15 13 -23 65 -9 57 4 -3 6 -13 4 -23z"/>
<path fill="#ffffff" stroke="none" d="M2025 2091 c3 -5 2 -12 -3 -15 -5 -3
-9 1 -9 9 0 17 3 19 12 6z"/>
<path fill="#ffffff" stroke="none" d="M1139 2076 c9 -11 9 -16 -1 -22 -7 -4
-10 -4 -6 1 4 4 3 14 -3 22 -6 7 -9 13 -6 13 2 0 10 -6 16 -14z"/>
<path fill="#ffffff" stroke="none" d="M1231 2077 c-6 -8 -7 -18 -3 -22 4 -5
1 -5 -6 -1 -10 6 -10 11 -1 22 6 8 14 14 16 14 3 0 0 -6 -6 -13z"/>
<path fill="#ffffff" stroke="none" d="M1671 2073 c13 -16 12 -17 -3 -4 -10 7
-18 15 -18 17 0 8 8 3 21 -13z"/>
<path fill="#ffffff" stroke="none" d="M1701 2067 c-10 -9 -11 -8 -5 6 3 10 9
15 12 12 3 -3 0 -11 -7 -18z"/>
<path fill="#ffffff" stroke="none" d="M1837 2083 c-4 -3 -1 -13 6 -22 11 -14
10 -14 -5 -2 -16 12 -16 31 -1 31 4 0 3 -3 0 -7z"/>
<path fill="#ffffff" stroke="none" d="M1526 2065 c-1 -8 -8 -21 -16 -28 -10
-10 -11 -9 -4 3 5 8 9 18 10 23 3 14 4 17 8 17 2 0 3 -7 2 -15z"/>
<path fill="#ffffff" stroke="none" d="M1616 2051 c-9 -10 -14 -21 -11 -24 3
-4 2 -5 -2 -2 -12 9 -12 34 0 32 7 -1 11 4 9 11 -1 8 2 11 8 7 8 -5 6 -13 -4
-24z"/>
<path fill="#ffffff" stroke="none" d="M1776 2065 c-1 -8 -5 -17 -8 -21 -5 -4
-4 16 1 34 3 9 9 -1 7 -13z"/>
<path fill="#ffffff" stroke="none" d="M1117 2063 c-4 -3 -1 -13 6 -22 11 -14
10 -14 -5 -2 -16 12 -16 31 -1 31 4 0 3 -3 0 -7z"/>
<path fill="#ffffff" stroke="none" d="M1344 2029 c-32 -34 -31 -33 -31 -15 0
8 5 14 11 13 6 -1 10 4 9 11 -2 6 3 11 10 10 6 -2 11 3 9 10 -1 8 2 11 9 7 7
-5 1 -17 -17 -36z"/>
<path fill="#ffffff" stroke="none" d="M1659 2056 c9 -10 7 -17 -6 -27 -16
-12 -17 -12 -6 2 10 12 10 18 1 27 -7 7 -9 12 -6 12 3 0 11 -6 17 -14z"/>
<path fill="#ffffff" stroke="none" d="M1730 2067 c0 -2 -9 -12 -19 -21 -14
-13 -21 -14 -27 -5 -4 7 -3 10 3 6 6 -4 16 0 23 8 12 14 20 19 20 12z"/>
<path fill="#ffffff" stroke="none" d="M2110 2065 c0 -1 -14 -14 -32 -31 -18
-16 -27 -22 -20 -13 6 9 8 19 4 23 -4 4 0 6 8 4 8 -1 14 2 13 8 -1 6 5 11 13
11 8 0 14 -1 14 -2z"/>
<path fill="#ffffff" stroke="none" d="M1457 2053 c-4 -3 1 -16 10 -27 18 -21
18 -21 -4 -2 -20 16 -23 36 -6 36 4 0 3 -3 0 -7z"/>
<path fill="#ffffff" stroke="none" d="M1746 2045 c-3 -23 -22 -39 -31 -26 -3
7 -1 10 6 9 7 -2 14 3 15 10 2 19 4 22 8 22 2 0 3 -7 2 -15z"/>
<path fill="#ffffff" stroke="none" d="M1824 2051 c3 -4 -4 -17 -17 -27 -22
-19 -22 -19 -4 2 9 11 14 24 10 27 -3 4 -4 7 0 7 3 0 8 -4 11 -9z"/>
<path fill="#ffffff" stroke="none" d="M1916 2045 c-1 -8 -5 -17 -8 -21 -5 -4
-4 16 1 34 3 9 9 -1 7 -13z"/>
<path fill="#ffffff" stroke="none" d="M2024 2051 c3 -5 -2 -15 -12 -22 -15
-12 -16 -12 -5 2 7 9 10 19 6 22 -3 4 -4 7 0 7 3 0 8 -4 11 -9z"/>
<path fill="#ffffff" stroke="none" d="M1157 2043 c-4 -3 -1 -13 6 -22 11 -14
10 -14 -5 -2 -16 12 -16 31 -1 31 4 0 3 -3 0 -7z"/>
<path fill="#ffffff" stroke="none" d="M1246 2026 c0 -14 -3 -23 -7 -20 -6 3
-6 22 0 42 3 10 7 -2 7 -22z"/>
<path fill="#ffffff" stroke="none" d="M1386 2035 c-1 -8 -5 -17 -8 -21 -5 -4
-4 16 1 34 3 9 9 -1 7 -13z"/>
<path fill="#ffffff" stroke="none" d="M1550 2047 c0 -2 -13 -15 -28 -30 -20
-19 -29 -23 -29 -13 0 8 3 13 7 11 4 -3 15 4 25 15 17 19 25 24 25 17z"/>
<path fill="#ffffff" stroke="none" d="M1111 2023 c13 -16 12 -17 -3 -4 -10 7
-18 15 -18 17 0 8 8 3 21 -13z"/>
<path fill="#ffffff" stroke="none" d="M1275 2031 c3 -5 2 -12 -3 -15 -5 -3
-9 1 -9 9 0 17 3 19 12 6z"/>
<path fill="#ffffff" stroke="none" d="M1414 2031 c3 -5 -2 -15 -12 -22 -15
-12 -16 -12 -5 2 7 9 10 19 6 22 -3 4 -4 7 0 7 3 0 8 -4 11 -9z"/>
<path fill="#ffffff" stroke="none" d="M1856 2022 c-3 -3 0 -12 6 -21 10 -13
10 -14 -2 -4 -16 15 -23 46 -8 37 5 -3 7 -9 4 -12z"/>
<path fill="#ffffff" stroke="none" d="M1887 2033 c-4 -3 -2 -12 4 -19 7 -8 6
-14 -2 -20 -7 -4 -9 -3 -5 4 3 6 2 13 -4 17 -10 6 -5 25 7 25 4 0 3 -3 0 -7z"/>
<path fill="#ffffff" stroke="none" d="M2050 2037 c0 -2 -10 -12 -22 -23 l-23
-19 19 23 c18 21 26 27 26 19z"/>
<path fill="#ffffff" stroke="none" d="M1449 2016 c9 -11 9 -16 -1 -22 -7 -4
-10 -4 -6 1 4 4 3 14 -3 22 -6 7 -9 13 -6 13 2 0 10 -6 16 -14z"/>
<path fill="#ffffff" stroke="none" d="M1677 2015 c0 -8 -4 -12 -9 -9 -5 3 -6
10 -3 15 9 13 12 11 12 -6z"/>
<path fill="#ffffff" stroke="none" d="M1774 2022 c3 -5 -12 -26 -33 -46 -29
-29 -41 -34 -46 -24 -5 7 -4 10 0 5 11 -9 56 33 49 45 -3 5 0 7 8 6 7 -2 12 3
11 10 -3 14 3 16 11 4z"/>
<path fill="#ffffff" stroke="none" d="M1946 2018 c4 -7 4 -10 -1 -6 -4 4 -15
2 -24 -5 -14 -11 -14 -10 -2 6 16 20 18 21 27 5z"/>
<path fill="#ffffff" stroke="none" d="M1151 2003 c13 -16 12 -17 -3 -4 -10 7
-18 15 -18 17 0 8 8 3 21 -13z"/>
<path fill="#ffffff" stroke="none" d="M1296 2005 c-1 -8 -5 -17 -8 -21 -5 -4
-4 16 1 34 3 9 9 -1 7 -13z"/>
<path fill="#ffffff" stroke="none" d="M1627 2013 c-4 -3 -1 -13 6 -22 11 -14
10 -14 -5 -2 -16 12 -16 31 -1 31 4 0 3 -3 0 -7z"/>
<path fill="#ffffff" stroke="none" d="M1705 2011 c3 -5 2 -12 -3 -15 -5 -3
-9 1 -9 9 0 17 3 19 12 6z"/>
<path fill="#ffffff" stroke="none" d="M1790 1975 c-24 -25 -45 -45 -45 -45
-1 0 -2 7 -2 14 0 8 5 14 11 13 6 -1 10 4 9 11 -2 6 3 11 10 10 6 -2 11 3 9
10 -1 8 2 11 7 8 5 -3 14 1 21 9 7 8 15 15 18 15 4 0 -14 -20 -38 -45z"/>
<path fill="#ffffff" stroke="none" d="M1995 2008 c5 4 5 1 1 -6 -6 -10 -11
-10 -22 -1 -8 6 -14 14 -14 16 0 3 6 0 13 -6 8 -6 18 -7 22 -3z"/>
<path fill="#ffffff" stroke="none" d="M1427 1995 c0 -8 -4 -12 -9 -9 -5 3 -6
10 -3 15 9 13 12 11 12 -6z"/>
<path fill="#ffffff" stroke="none" d="M1141 1983 c13 -16 12 -17 -3 -4 -10 7
-18 15 -18 17 0 8 8 3 21 -13z"/>
<path fill="#ffffff" stroke="none" d="M1191 1983 c13 -16 12 -17 -3 -4 -10 7
-18 15 -18 17 0 8 8 3 21 -13z"/>
<path fill="#ffffff" stroke="none" d="M1267 1993 c-4 -3 1 -16 10 -27 18 -21
18 -21 -4 -2 -20 16 -23 36 -6 36 4 0 3 -3 0 -7z"/>
<path fill="#ffffff" stroke="none" d="M1345 1991 c3 -5 2 -12 -3 -15 -5 -3
-9 1 -9 9 0 17 3 19 12 6z"/>
<path fill="#ffffff" stroke="none" d="M1377 1993 c-4 -3 -1 -13 6 -22 11 -14
10 -14 -5 -2 -16 12 -16 31 -1 31 4 0 3 -3 0 -7z"/>
<path fill="#ffffff" stroke="none" d="M1730 1996 c0 -2 -8 -10 -17 -17 -16
-13 -17 -12 -4 4 13 16 21 21 21 13z"/>
<path fill="#ffffff" stroke="none" d="M1844 1991 c3 -4 -3 -16 -13 -25 -14
-13 -18 -14 -18 -2 0 8 5 14 11 13 6 -1 10 4 9 11 -3 14 3 16 11 3z"/>
<path fill="#ffffff" stroke="none" d="M1937 1985 c0 -8 -4 -12 -9 -9 -5 3 -6
10 -3 15 9 13 12 11 12 -6z"/>
<path fill="#ffffff" stroke="none" d="M1966 1982 c-3 -3 0 -12 6 -21 10 -13
10 -14 -2 -4 -16 15 -23 46 -8 37 5 -3 7 -9 4 -12z"/>
<path fill="#ffffff" stroke="none" d="M2040 1996 c0 -2 -6 -9 -14 -15 -11 -9
-16 -9 -22 0 -4 7 -3 9 4 5 6 -3 13 -2 17 4 6 10 15 14 15 6z"/>
<path fill="#ffffff" stroke="none" d="M1316 1965 c-1 -13 -4 -27 -7 -30 -5
-4 -4 41 0 53 4 10 8 -2 7 -23z"/>
<path fill="#ffffff" stroke="none" d="M1515 1981 c-3 -5 -1 -12 4 -15 5 -4 8
-14 6 -24 -1 -9 3 -24 9 -32 9 -13 9 -13 -6 -2 -9 7 -15 22 -13 32 2 11 -1 22
-6 25 -9 6 -3 25 7 25 3 0 3 -4 -1 -9z"/>
<path fill="#ffffff" stroke="none" d="M1621 1973 c13 -16 12 -17 -3 -4 -10 7
-18 15 -18 17 0 8 8 3 21 -13z"/>
<path fill="#ffffff" stroke="none" d="M1685 1981 c3 -5 2 -12 -3 -15 -5 -3
-9 1 -9 9 0 17 3 19 12 6z"/>
<path fill="#ffffff" stroke="none" d="M1131 1963 c13 -16 12 -17 -3 -4 -10 7
-18 15 -18 17 0 8 8 3 21 -13z"/>
<path fill="#ffffff" stroke="none" d="M1181 1963 c13 -16 12 -17 -3 -4 -10 7
-18 15 -18 17 0 8 8 3 21 -13z"/>
<path fill="#ffffff" stroke="none" d="M1487 1973 c-4 -3 -1 -13 6 -22 11 -14
10 -14 -5 -2 -16 12 -16 31 -1 31 4 0 3 -3 0 -7z"/>
<path fill="#ffffff" stroke="none" d="M1576 1955 c1 -8 -1 -17 -5 -19 -4 -3
-7 6 -7 19 0 25 8 25 12 0z"/>
<path fill="#ffffff" stroke="none" d="M1655 1963 c-1 -10 3 -25 9 -33 9 -13
9 -13 -6 -2 -13 10 -16 26 -9 50 4 11 9 -2 6 -15z"/>
<path fill="#ffffff" stroke="none" d="M1866 1965 c-3 -23 -22 -39 -31 -26 -3
7 -1 10 6 9 7 -2 14 3 15 10 2 19 4 22 8 22 2 0 3 -7 2 -15z"/>
<path fill="#ffffff" stroke="none" d="M1896 1954 c1 -9 0 -13 -4 -10 -3 4 -7
14 -8 22 -1 9 0 13 4 10 3 -4 7 -14 8 -22z"/>
<path fill="#ffffff" stroke="none" d="M1999 1966 c9 -11 9 -16 -1 -22 -7 -4
-10 -4 -6 1 4 4 3 14 -3 22 -6 7 -9 13 -6 13 2 0 10 -6 16 -14z"/>
<path fill="#ffffff" stroke="none" d="M2050 1976 c0 -2 -8 -10 -17 -17 -16
-13 -17 -12 -4 4 13 16 21 21 21 13z"/>
<path fill="#ffffff" stroke="none" d="M1259 1956 c9 -11 9 -16 -1 -22 -7 -4
-10 -4 -6 1 4 4 3 14 -3 22 -6 7 -9 13 -6 13 2 0 10 -6 16 -14z"/>
<path fill="#ffffff" stroke="none" d="M1441 1953 c13 -16 12 -17 -3 -4 -10 7
-18 15 -18 17 0 8 8 3 21 -13z"/>
<path fill="#ffffff" stroke="none" d="M1606 1952 c-3 -3 0 -12 6 -21 10 -13
10 -14 -2 -4 -16 15 -23 46 -8 37 5 -3 7 -9 4 -12z"/>
<path fill="#ffffff" stroke="none" d="M1926 1945 c1 -8 -1 -17 -5 -19 -4 -3
-7 6 -7 19 0 25 8 25 12 0z"/>
<path fill="#ffffff" stroke="none" d="M2057 1953 c-8 -10 -16 -22 -17 -28 -1
-5 -3 -12 -5 -13 -2 -2 -3 3 -1 11 2 16 25 47 34 47 3 0 -2 -8 -11 -17z"/>
<path fill="#ffffff" stroke="none" d="M1171 1943 c13 -16 12 -17 -3 -4 -10 7
-18 15 -18 17 0 8 8 3 21 -13z"/>
<path fill="#ffffff" stroke="none" d="M1232 1945 c2 3 5 -2 5 -10 0 -19 0
-19 -23 7 -12 14 -13 18 -3 10 9 -6 18 -10 21 -7z"/>
<path fill="#ffffff" stroke="none" d="M1344 1951 c3 -5 -2 -15 -12 -22 -15
-12 -16 -12 -5 2 7 9 10 19 6 22 -3 4 -4 7 0 7 3 0 8 -4 11 -9z"/>
<path fill="#ffffff" stroke="none" d="M1419 1946 c9 -10 7 -17 -6 -27 -16
-12 -17 -12 -6 2 10 12 10 18 1 27 -7 7 -9 12 -6 12 3 0 11 -6 17 -14z"/>
<path fill="#ffffff" stroke="none" d="M1955 1951 c3 -5 2 -12 -3 -15 -5 -3
-9 1 -9 9 0 17 3 19 12 6z"/>
<path fill="#ffffff" stroke="none" d="M1391 1926 c-6 -7 -7 -17 -3 -21 4 -5
1 -5 -6 -1 -9 6 -10 11 -3 20 6 7 7 17 3 21 -4 5 -1 5 6 1 9 -6 10 -11 3 -20z"/>
<path fill="#ffffff" stroke="none" d="M1475 1941 c3 -5 2 -12 -3 -15 -5 -3
-9 1 -9 9 0 17 3 19 12 6z"/>
<path fill="#ffffff" stroke="none" d="M1689 1936 c9 -10 7 -17 -6 -27 -16
-12 -17 -12 -6 2 10 12 10 18 1 27 -7 7 -9 12 -6 12 3 0 11 -6 17 -14z"/>
<path fill="#ffffff" stroke="none" d="M1161 1923 c13 -16 12 -17 -3 -4 -17
13 -22 21 -14 21 2 0 10 -8 17 -17z"/>
<path fill="#ffffff" stroke="none" d="M1211 1923 c13 -16 12 -17 -3 -4 -10 7
-18 15 -18 17 0 8 8 3 21 -13z"/>
<path fill="#ffffff" stroke="none" d="M1287 1925 c0 -8 -4 -12 -9 -9 -5 3 -6
10 -3 15 9 13 12 11 12 -6z"/>
<path fill="#ffffff" stroke="none" d="M1370 1937 c0 -2 -10 -12 -22 -23 l-23
-19 19 23 c18 21 26 27 26 19z"/>
<path fill="#ffffff" stroke="none" d="M1727 1925 c0 -8 -4 -12 -9 -9 -5 3 -6
10 -3 15 9 13 12 11 12 -6z"/>
<path fill="#ffffff" stroke="none" d="M1777 1933 c-4 -3 -1 -13 6 -22 11 -14
10 -14 -5 -2 -16 12 -16 31 -1 31 4 0 3 -3 0 -7z"/>
<path fill="#ffffff" stroke="none" d="M1835 1920 c10 -11 16 -20 13 -20 -3 0
-13 9 -23 20 -10 11 -16 20 -13 20 3 0 13 -9 23 -20z"/>
<path fill="#ffffff" stroke="none" d="M1876 1925 c-1 -8 -5 -17 -8 -21 -5 -4
-4 16 1 34 3 9 9 -1 7 -13z"/>
<path fill="#ffffff" stroke="none" d="M1971 1927 c-6 -8 -7 -18 -3 -22 4 -5
1 -5 -6 -1 -10 6 -10 11 -1 22 6 8 14 14 16 14 3 0 0 -6 -6 -13z"/>
<path fill="#ffffff" stroke="none" d="M1497 1915 c0 -8 -4 -12 -9 -9 -5 3 -6
10 -3 15 9 13 12 11 12 -6z"/>
<path fill="#ffffff" stroke="none" d="M1587 1915 c0 -8 -4 -12 -9 -9 -5 3 -6
10 -3 15 9 13 12 11 12 -6z"/>
<path fill="#ffffff" stroke="none" d="M1651 1913 c13 -16 12 -17 -3 -4 -10 7
-18 15 -18 17 0 8 8 3 21 -13z"/>
<path fill="#ffffff" stroke="none" d="M1811 1913 c13 -16 12 -17 -3 -4 -10 7
-18 15 -18 17 0 8 8 3 21 -13z"/>
<path fill="#000000" stroke="none" d="M1126 1785 c-3 -8 0 -15 6 -15 6 0 7
-5 2 -12 -5 -7 -9 -42 -8 -78 3 -117 3 -117 14 -100 5 8 10 10 10 5 0 -14 123
-14 132 0 5 7 8 7 8 0 0 -6 13 -11 30 -10 26 0 29 3 25 24 -2 13 -1 20 3 16 4
-3 8 -11 8 -16 1 -5 2 -13 3 -17 0 -4 10 -8 21 -8 15 0 19 6 15 24 -2 14 -1
21 3 17 4 -3 8 -11 8 -16 1 -5 2 -13 3 -17 0 -4 10 -8 21 -8 15 0 19 6 15 24
-2 14 -1 21 3 17 7 -6 8 -10 11 -37 1 -9 4 -8 11 2 5 8 10 10 10 5 0 -14 50
-14 50 0 0 6 3 7 8 0 4 -5 15 -11 25 -12 13 -1 17 4 13 15 -5 13 -2 12 9 -2
11 -14 15 -16 15 -5 0 8 3 10 8 4 11 -15 65 -12 80 5 11 13 11 13 7 0 -4 -12
2 -16 30 -16 19 0 35 5 35 11 0 7 3 7 8 0 10 -16 55 -12 72 5 8 9 12 11 8 6
-13 -17 -9 -22 17 -22 14 0 25 5 25 11 0 5 5 3 10 -5 10 -16 17 -15 40 10 8 8
12 11 8 6 -14 -18 -8 -21 42 -21 53 0 57 3 38 25 -7 8 -4 7 7 -2 20 -17 20
-16 20 90 l0 107 -174 3 c-129 2 -177 -1 -189 -10 -11 -9 -14 -9 -9 -1 6 9
-45 12 -209 12 -119 0 -221 -2 -226 -5 -5 -3 -5 -11 2 -19 7 -9 6 -16 -5 -25
-8 -7 -13 -16 -10 -20 3 -4 -1 -13 -9 -19 -10 -8 -17 -6 -32 12 l-19 22 22
-18 c14 -12 23 -15 28 -8 3 6 3 11 -1 11 -4 0 1 9 10 19 12 13 14 21 6 26 -5
3 -8 11 -5 16 10 15 -47 10 -66 -7 -13 -12 -19 -12 -25 -3 -4 7 -3 10 4 5 6
-3 13 -2 17 4 3 5 -3 10 -13 10 -11 0 -22 -7 -26 -15z"/>
<path fill="#ffffff" stroke="none" d="M1220 1785 c0 -1 -9 -10 -19 -19 -13
-12 -21 -14 -26 -6 -4 6 -1 9 7 8 7 -2 12 2 11 8 -1 6 5 11 13 11 8 0 14 -1
14 -2z"/>
<path fill="#ffffff" stroke="none" d="M1281 1767 c-10 -9 -11 -8 -5 6 3 10 9
15 12 12 3 -3 0 -11 -7 -18z"/>
<path fill="#ffffff" stroke="none" d="M1310 1765 c-11 -12 -17 -25 -13 -30 5
-4 2 -5 -5 -1 -11 7 -10 11 2 25 9 10 14 20 11 23 -3 2 2 5 10 5 12 0 11 -5
-5 -22z"/>
<path fill="#ffffff" stroke="none" d="M1342 1767 c-7 -8 -8 -18 -4 -22 4 -5
1 -5 -5 -1 -10 5 -10 11 -1 26 7 11 14 17 17 15 2 -3 -1 -11 -7 -18z"/>
<path fill="#ffffff" stroke="none" d="M1390 1785 c0 -1 -10 -10 -22 -21 -14
-12 -18 -13 -10 -3 6 9 10 18 7 21 -3 2 2 5 10 5 8 0 15 -1 15 -2z"/>
<path fill="#ffffff" stroke="none" d="M1391 1757 l-24 -22 19 27 c10 14 21
24 23 22 3 -3 -6 -15 -18 -27z"/>
<path fill="#ffffff" stroke="none" d="M1435 1770 c-8 -9 -13 -19 -10 -22 3
-3 -1 -11 -9 -17 -10 -8 -16 -9 -21 -1 -4 6 -1 9 6 8 7 -2 14 3 15 10 1 6 3
15 4 20 1 4 2 10 2 13 -1 3 6 6 14 6 12 0 12 -3 -1 -17z"/>
<path fill="#ffffff" stroke="none" d="M1456 1762 c-17 -16 -18 -16 -5 5 7 12
15 20 18 17 3 -2 -3 -12 -13 -22z"/>
<path fill="#ffffff" stroke="none" d="M1525 1782 c-3 -3 0 -11 6 -19 17 -20
5 -16 -14 5 -15 16 -15 19 -2 19 8 0 13 -3 10 -5z"/>
<path fill="#ffffff" stroke="none" d="M1587 1773 c0 -9 -4 -10 -14 -2 -7 6
-13 12 -13 14 0 1 6 2 13 2 8 0 14 -6 14 -14z"/>
<path fill="#ffffff" stroke="none" d="M1613 1775 c4 -8 3 -16 -1 -19 -4 -3
-9 4 -9 15 -2 23 3 25 10 4z"/>
<path fill="#ffffff" stroke="none" d="M1645 1782 c-3 -3 0 -11 5 -17 7 -9 6
-16 -4 -24 -10 -8 -16 -9 -21 -1 -4 6 -3 10 2 9 21 -4 25 3 10 19 -15 16 -15
19 -2 19 8 0 13 -3 10 -5z"/>
<path fill="#ffffff" stroke="none" d="M1680 1765 c14 -19 14 -19 -2 -6 -10 7
-18 18 -18 24 0 6 1 8 3 6 1 -2 9 -13 17 -24z"/>
<path fill="#ffffff" stroke="none" d="M1716 1765 c-1 -13 -4 -27 -7 -30 -5
-4 -4 41 0 53 4 10 8 -2 7 -23z"/>
<path fill="#ffffff" stroke="none" d="M1751 1777 c-7 -7 -7 -16 1 -26 10 -13
10 -14 -2 -4 -19 17 -21 40 -4 40 10 0 11 -4 5 -10z"/>
<path fill="#ffffff" stroke="none" d="M1771 1767 c-10 -9 -11 -8 -5 6 3 10 9
15 12 12 3 -3 0 -11 -7 -18z"/>
<path fill="#ffffff" stroke="none" d="M1820 1785 c0 -1 -12 -12 -27 -26 -20
-17 -23 -18 -10 -3 9 11 15 23 12 26 -3 2 2 5 10 5 8 0 15 -1 15 -2z"/>
<path fill="#ffffff" stroke="none" d="M1832 1767 c-7 -8 -10 -16 -7 -19 3 -2
-10 -18 -27 -34 -18 -16 -25 -20 -15 -8 9 11 14 24 10 28 -5 4 -1 6 7 4 8 -1
15 2 15 7 3 19 18 46 23 41 3 -3 0 -12 -6 -19z"/>
<path fill="#ffffff" stroke="none" d="M1880 1785 c0 -1 -10 -10 -22 -21 -14
-12 -18 -13 -10 -3 6 9 10 18 7 21 -3 2 2 5 10 5 8 0 15 -1 15 -2z"/>
<path fill="#ffffff" stroke="none" d="M1881 1757 l-24 -22 19 27 c10 14 21
24 23 22 3 -3 -6 -15 -18 -27z"/>
<path fill="#ffffff" stroke="none" d="M1925 1770 c-8 -9 -12 -19 -9 -22 3 -3
1 -9 -4 -12 -9 -5 -9 14 -2 34 1 3 2 8 2 11 -1 3 6 6 14 6 12 0 12 -3 -1 -17z"/>
<path fill="#ffffff" stroke="none" d="M1946 1762 c-17 -16 -18 -16 -5 5 7 12
15 20 18 17 3 -2 -3 -12 -13 -22z"/>
<path fill="#ffffff" stroke="none" d="M1990 1775 c-5 -7 -8 -14 -5 -17 3 -2
-10 -18 -27 -34 -18 -16 -25 -20 -15 -8 9 11 14 24 10 28 -5 4 -1 6 7 4 10 -2
15 4 14 18 -1 11 5 21 12 21 9 0 11 -4 4 -12z"/>
<path fill="#ffffff" stroke="none" d="M2011 1767 c-10 -9 -11 -8 -5 6 3 10 9
15 12 12 3 -3 0 -11 -7 -18z"/>
<path fill="#ffffff" stroke="none" d="M2044 1781 c3 -5 -2 -15 -12 -22 -15
-12 -16 -12 -5 2 7 9 10 19 6 22 -3 4 -4 7 0 7 3 0 8 -4 11 -9z"/>
<path fill="#ffffff" stroke="none" d="M1515 1742 c-3 -3 0 -11 6 -18 7 -9 6
-14 -3 -20 -7 -4 -10 -4 -6 1 4 4 3 14 -3 22 -6 7 -8 13 -4 13 5 0 0 10 -11
23 l-19 22 23 -19 c12 -11 20 -21 17 -24z"/>
<path fill="#ffffff" stroke="none" d="M1559 1766 c9 -11 9 -16 -1 -22 -7 -4
-10 -4 -6 1 4 4 3 14 -3 22 -6 7 -9 13 -6 13 2 0 10 -6 16 -14z"/>
<path fill="#ffffff" stroke="none" d="M1230 1766 c0 -2 -8 -10 -17 -17 -16
-13 -17 -12 -4 4 13 16 21 21 21 13z"/>
<path fill="#ffffff" stroke="none" d="M1166 1739 c1 -5 2 -10 4 -11 5 -8 7
-39 2 -33 -4 4 -8 11 -8 16 -1 5 -2 10 -4 12 -5 7 -7 38 -2 32 4 -4 8 -11 8
-16z"/>
<path fill="#ffffff" stroke="none" d="M1587 1735 c0 -21 -43 -59 -52 -46 -3
7 -3 11 2 10 22 -4 24 3 7 24 l-19 22 23 -19 c12 -11 23 -16 23 -13 1 4 3 12
4 17 1 6 3 12 4 15 2 11 8 4 8 -10z"/>
<path fill="#ffffff" stroke="none" d="M2014 1741 c3 -4 -3 -16 -13 -25 -14
-13 -18 -14 -18 -2 0 8 5 14 11 13 6 -1 10 4 9 11 -3 14 3 16 11 3z"/>
<path fill="#ffffff" stroke="none" d="M1324 1731 c3 -5 -1 -14 -8 -20 -10 -9
-16 -9 -21 -1 -4 6 -1 9 7 8 7 -2 12 3 11 10 -3 14 3 16 11 3z"/>
<path fill="#ffffff" stroke="none" d="M1357 1733 c-4 -3 0 -15 10 -25 9 -10
12 -18 8 -18 -4 0 0 -10 11 -22 l19 -23 -22 19 c-13 10 -20 22 -18 26 3 4 -2
13 -10 20 -14 11 -12 30 2 30 4 0 3 -3 0 -7z"/>
<path fill="#ffffff" stroke="none" d="M1456 1719 c1 -5 3 -11 4 -14 1 -3 4
-9 5 -15 1 -5 3 -11 5 -12 5 -8 7 -39 2 -33 -4 4 -8 11 -8 16 -1 5 -3 11 -4
14 -1 3 -4 10 -5 15 -1 6 -3 11 -5 13 -5 7 -7 38 -2 32 4 -4 8 -11 8 -16z"/>
<path fill="#ffffff" stroke="none" d="M1489 1733 c-1 -5 0 -10 1 -13 7 -19 7
-39 -1 -34 -5 3 -7 9 -4 14 3 5 1 11 -5 15 -6 4 -8 11 -5 16 7 11 15 12 14 2z"/>
<path fill="#ffffff" stroke="none" d="M1616 1716 c1 -8 -10 -26 -25 -40 -19
-18 -28 -22 -28 -12 0 8 5 14 11 13 6 -1 10 4 9 11 -2 6 3 11 10 10 7 -2 11 6
11 20 -2 24 8 22 12 -2z"/>
<path fill="#ffffff" stroke="none" d="M1667 1725 c0 -8 -4 -12 -9 -9 -5 3 -6
10 -3 15 9 13 12 11 12 -6z"/>
<path fill="#ffffff" stroke="none" d="M1737 1733 c-4 -3 0 -14 8 -23 14 -15
13 -18 -3 -33 -15 -14 -19 -15 -19 -2 0 8 4 12 8 9 15 -9 19 14 4 26 -14 11
-12 30 2 30 4 0 3 -3 0 -7z"/>
<path fill="#ffffff" stroke="none" d="M1854 1731 c3 -4 -3 -16 -13 -25 -14
-13 -18 -14 -18 -2 0 8 5 14 11 13 6 -1 10 4 9 11 -3 14 3 16 11 3z"/>
<path fill="#ffffff" stroke="none" d="M1887 1725 c0 -8 -4 -12 -9 -9 -5 3 -6
10 -3 15 9 13 12 11 12 -6z"/>
<path fill="#ffffff" stroke="none" d="M1275 1722 c-3 -3 0 -11 6 -19 6 -7 8
-13 4 -13 -4 0 -2 -6 4 -14 9 -11 9 -16 -1 -22 -7 -4 -10 -4 -6 1 4 4 3 14 -3
22 -6 7 -8 13 -4 13 5 0 1 8 -8 18 -15 16 -15 19 -2 19 8 0 13 -3 10 -5z"/>
<path fill="#ffffff" stroke="none" d="M1391 1713 c13 -16 12 -17 -3 -4 -10 7
-18 15 -18 17 0 8 8 3 21 -13z"/>
<path fill="#ffffff" stroke="none" d="M1780 1724 c0 -8 -19 -13 -24 -6 -3 5
1 9 9 9 8 0 15 -2 15 -3z"/>
<path fill="#ffffff" stroke="none" d="M1427 1713 c-4 -3 -2 -12 4 -20 6 -7 8
-13 4 -13 -4 0 -1 -8 6 -17 13 -16 12 -17 -3 -4 -10 7 -16 17 -13 21 3 5 1 11
-5 15 -10 6 -5 25 7 25 4 0 3 -3 0 -7z"/>
<path fill="#ffffff" stroke="none" d="M1649 1706 c9 -11 9 -16 -1 -22 -7 -4
-10 -4 -6 1 4 4 3 14 -3 22 -6 7 -9 13 -6 13 2 0 10 -6 16 -14z"/>
<path fill="#ffffff" stroke="none" d="M1715 1711 c3 -5 2 -12 -3 -15 -5 -3
-9 1 -9 9 0 17 3 19 12 6z"/>
<path fill="#ffffff" stroke="none" d="M2036 1684 c0 -13 -2 -22 -5 -19 -3 3
-6 17 -7 31 0 13 2 22 5 19 3 -3 6 -17 7 -31z"/>
<path fill="#ffffff" stroke="none" d="M1250 1706 c0 -2 -8 -10 -17 -17 -16
-13 -17 -12 -4 4 13 16 21 21 21 13z"/>
<path fill="#ffffff" stroke="none" d="M1687 1695 c0 -8 -4 -12 -9 -9 -5 3 -6
10 -3 15 9 13 12 11 12 -6z"/>
<path fill="#ffffff" stroke="none" d="M1876 1685 c1 -8 -1 -17 -5 -19 -4 -3
-7 6 -7 19 0 25 8 25 12 0z"/>
<path fill="#ffffff" stroke="none" d="M1961 1696 c-7 -9 -8 -17 -2 -20 5 -3
8 -14 6 -24 -1 -9 4 -24 11 -33 13 -14 12 -18 -3 -30 -16 -12 -17 -12 -5 2 10
13 10 19 -2 28 -8 7 -13 21 -11 31 2 11 -1 22 -6 26 -9 5 6 34 18 34 3 0 0 -6
-6 -14z"/>
<path fill="#ffffff" stroke="none" d="M1801 1687 c-6 -8 -8 -16 -5 -19 3 -3
1 -9 -4 -12 -6 -3 -9 0 -8 6 2 16 15 38 23 38 3 0 0 -6 -6 -13z"/>
<path fill="#ffffff" stroke="none" d="M1921 1683 c2 1 3 0 2 -2 -2 -2 2 -10
8 -18 21 -25 3 -13 -22 14 -13 15 -17 22 -8 15 9 -6 18 -11 20 -9z"/>
<path fill="#ffffff" stroke="none" d="M2007 1685 c0 -8 -4 -12 -9 -9 -5 3 -6
10 -3 15 9 13 12 11 12 -6z"/>
<path fill="#ffffff" stroke="none" d="M1260 1687 c0 -2 -10 -13 -23 -25 -18
-17 -24 -19 -24 -8 0 8 4 13 8 11 3 -3 12 2 19 10 12 14 20 19 20 12z"/>
<path fill="#ffffff" stroke="none" d="M1345 1673 c-1 -10 7 -29 19 -43 l21
-25 -26 23 c-22 20 -27 35 -20 60 4 11 9 -2 6 -15z"/>
<path fill="#ffffff" stroke="none" d="M1524 1681 c3 -4 -3 -16 -13 -25 -14
-13 -18 -14 -18 -2 0 8 5 14 11 13 6 -1 10 4 9 11 -3 14 3 16 11 3z"/>
<path fill="#ffffff" stroke="none" d="M1846 1666 c0 -14 -3 -23 -7 -20 -6 3
-6 22 0 42 3 10 7 -2 7 -22z"/>
<path fill="#ffffff" stroke="none" d="M1196 1654 c1 -9 0 -13 -4 -10 -3 4 -7
14 -8 22 -1 9 0 13 4 10 3 -4 7 -14 8 -22z"/>
<path fill="#ffffff" stroke="none" d="M1675 1671 c3 -5 2 -12 -3 -15 -5 -3
-9 1 -9 9 0 17 3 19 12 6z"/>
<path fill="#ffffff" stroke="none" d="M1707 1673 c-4 -3 -1 -13 6 -22 11 -14
10 -14 -5 -2 -16 12 -16 31 -1 31 4 0 3 -3 0 -7z"/>
<path fill="#ffffff" stroke="none" d="M1266 1655 c-3 -23 -22 -39 -31 -26 -3
7 -1 10 6 9 7 -2 14 3 15 10 2 19 4 22 8 22 2 0 3 -7 2 -15z"/>
<path fill="#ffffff" stroke="none" d="M1545 1653 c-1 -10 0 -22 4 -28 10 -17
10 -35 0 -29 -5 3 -7 9 -4 14 3 5 1 11 -4 14 -7 5 -8 23 -2 44 4 10 9 -2 6
-15z"/>
<path fill="#ffffff" stroke="none" d="M1614 1661 c3 -5 -1 -14 -8 -20 -10 -9
-16 -9 -21 -1 -4 6 -1 9 7 8 7 -2 12 3 11 10 -3 14 3 16 11 3z"/>
<path fill="#ffffff" stroke="none" d="M1647 1655 c0 -8 -4 -12 -9 -9 -5 3 -6
10 -3 15 9 13 12 11 12 -6z"/>
<path fill="#ffffff" stroke="none" d="M1911 1653 c12 -16 12 -17 -2 -6 -9 7
-20 9 -24 5 -5 -4 -5 -1 -1 6 9 16 11 15 27 -5z"/>
<path fill="#ffffff" stroke="none" d="M2011 1653 c2 1 3 0 2 -2 -2 -2 2 -10
8 -18 21 -25 3 -13 -22 14 -13 15 -17 22 -8 15 9 -6 18 -11 20 -9z"/>
<path fill="#ffffff" stroke="none" d="M1167 1653 c-4 -3 -1 -13 6 -22 11 -14
10 -14 -5 -2 -16 12 -16 31 -1 31 4 0 3 -3 0 -7z"/>
<path fill="#ffffff" stroke="none" d="M1381 1643 c13 -16 12 -17 -3 -4 -10 7
-18 15 -18 17 0 8 8 3 21 -13z"/>
<path fill="#ffffff" stroke="none" d="M1431 1643 c13 -16 12 -17 -3 -4 -10 7
-18 15 -18 17 0 8 8 3 21 -13z"/>
<path fill="#ffffff" stroke="none" d="M1746 1645 c-1 -8 -5 -17 -8 -21 -5 -4
-4 16 1 34 3 9 9 -1 7 -13z"/>
<path fill="#ffffff" stroke="none" d="M1816 1651 c-7 -11 18 -33 27 -24 4 3
7 4 7 1 0 -3 -9 -13 -19 -22 -14 -13 -21 -14 -27 -5 -4 7 -3 10 4 5 17 -10 23
10 7 24 -13 11 -12 30 1 30 3 0 3 -4 0 -9z"/>
<path fill="#ffffff" stroke="none" d="M1867 1639 c-1 -3 4 -13 11 -21 10 -13
9 -18 -5 -29 -16 -12 -17 -12 -6 2 7 9 10 19 6 23 -4 3 -8 14 -9 22 -1 9 -1
14 1 12 2 -1 3 -6 2 -9z"/>
<path fill="#ffffff" stroke="none" d="M1296 1622 c-9 -9 15 -32 27 -25 6 4 7
1 3 -6 -6 -9 -12 -9 -25 3 -18 16 -25 50 -9 40 5 -4 7 -9 4 -12z"/>
<path fill="#ffffff" stroke="none" d="M1327 1625 c0 -8 -4 -12 -9 -9 -5 3 -6
10 -3 15 9 13 12 11 12 -6z"/>
<path fill="#ffffff" stroke="none" d="M1421 1623 c13 -16 12 -17 -3 -4 -10 7
-18 15 -18 17 0 8 8 3 21 -13z"/>
<path fill="#ffffff" stroke="none" d="M1517 1633 c-4 -3 -2 -12 3 -18 7 -9 6
-16 -4 -24 -11 -9 -16 -9 -22 0 -4 7 -3 9 4 5 6 -3 13 -2 16 3 4 5 2 12 -4 16
-10 6 -5 25 7 25 4 0 3 -3 0 -7z"/>
<path fill="#ffffff" stroke="none" d="M1585 1620 c10 -11 16 -20 13 -20 -3 0
-13 9 -23 20 -10 11 -16 20 -13 20 3 0 13 -9 23 -20z"/>
<path fill="#ffffff" stroke="none" d="M1626 1616 c0 -14 -3 -23 -7 -20 -6 3
-6 22 0 42 3 10 7 -2 7 -22z"/>
<path fill="#ffffff" stroke="none" d="M1679 1626 c9 -10 7 -17 -6 -27 -16
-12 -17 -12 -6 2 10 12 10 18 1 27 -7 7 -9 12 -6 12 3 0 11 -6 17 -14z"/>
<path fill="#ffffff" stroke="none" d="M1795 1631 c3 -5 2 -12 -3 -15 -5 -3
-9 1 -9 9 0 17 3 19 12 6z"/>
<path fill="#ffffff" stroke="none" d="M1936 1625 c-3 -23 -22 -39 -31 -26 -3
7 -1 10 6 9 7 -2 14 3 15 10 2 19 4 22 8 22 2 0 3 -7 2 -15z"/>
<path fill="#ffffff" stroke="none" d="M2001 1623 c13 -16 12 -17 -3 -4 -10 7
-18 15 -18 17 0 8 8 3 21 -13z"/>
<path fill="#ffffff" stroke="none" d="M1155 1621 c3 -5 2 -12 -3 -15 -5 -3
-9 1 -9 9 0 17 3 19 12 6z"/>
<path fill="#ffffff" stroke="none" d="M1203 1615 c4 -8 3 -16 -1 -19 -4 -3
-9 4 -9 15 -2 23 3 25 10 4z"/>
<path fill="#ffffff" stroke="none" d="M1231 1613 c13 -16 12 -17 -3 -4 -10 7
-18 15 -18 17 0 8 8 3 21 -13z"/>
<path fill="#ffffff" stroke="none" d="M1481 1607 c-10 -9 -11 -8 -5 6 3 10 9
15 12 12 3 -3 0 -11 -7 -18z"/>
<path fill="#ffffff" stroke="none" d="M1655 1621 c3 -5 2 -12 -3 -15 -5 -3
-9 1 -9 9 0 17 3 19 12 6z"/>
<path fill="#ffffff" stroke="none" d="M1717 1615 c0 -8 -4 -12 -9 -9 -5 3 -6
10 -3 15 9 13 12 11 12 -6z"/>
<path fill="#ffffff" stroke="none" d="M1767 1615 c0 -8 -4 -12 -9 -9 -5 3 -6
10 -3 15 9 13 12 11 12 -6z"/>
<path fill="#ffffff" stroke="none" d="M1266 1605 c-1 -8 -5 -17 -8 -21 -5 -4
-4 16 1 34 3 9 9 -1 7 -13z"/>
<path fill="#ffffff" stroke="none" d="M1177 1595 c0 -8 -4 -12 -9 -9 -5 3 -6
10 -3 15 9 13 12 11 12 -6z"/>
<path fill="#ffffff" stroke="none" d="M1745 1601 c3 -5 2 -12 -3 -15 -5 -3
-9 1 -9 9 0 17 3 19 12 6z"/>
<path fill="#000000" stroke="none" d="M2824 1065 c-3 -8 -3 -19 1 -25 4 -6 2
-9 -2 -8 -10 3 -86 -80 -102 -110 -5 -9 -8 -28 -6 -42 1 -14 3 -30 4 -37 0 -6
8 -19 17 -27 19 -19 48 -22 38 -3 -5 9 -4 9 6 0 9 -9 15 -9 25 0 11 10 10 15
-2 30 -9 9 -13 17 -8 17 4 0 2 6 -4 14 -8 10 -9 16 -1 21 6 4 10 3 9 -2 -1 -4
0 -11 1 -15 1 -5 3 -13 4 -20 0 -6 7 -13 15 -16 8 -3 11 0 7 7 -5 7 -2 10 6 9
7 -2 12 3 10 10 -1 8 2 11 8 7 8 -5 7 -11 -1 -21 -17 -21 16 -55 50 -51 35 5
59 52 42 80 -8 11 -8 16 -2 12 6 -3 11 -3 11 2 0 12 -64 103 -73 103 -5 0 -5
-6 -1 -12 4 -7 3 -10 -1 -5 -5 4 -10 17 -12 29 -2 12 -10 29 -18 38 -8 9 -12
20 -8 23 3 4 3 7 -1 7 -3 0 -9 -7 -12 -15z"/>
<path fill="#ffffff" stroke="none" d="M2838 1014 c-12 -12 -17 -13 -23 -3 -5
8 -4 10 4 5 6 -4 14 0 17 9 4 9 9 13 12 10 3 -3 -1 -13 -10 -21z"/>
<path fill="#ffffff" stroke="none" d="M2845 983 c-1 -10 0 -22 4 -28 9 -16
10 -35 1 -40 -5 -3 -7 3 -5 15 2 11 0 22 -5 25 -7 4 -7 22 -1 43 4 10 9 -2 6
-15z"/>
<path fill="#ffffff" stroke="none" d="M2795 981 c3 -5 2 -12 -3 -15 -5 -3 -9
1 -9 9 0 17 3 19 12 6z"/>
<path fill="#ffffff" stroke="none" d="M2766 955 c-1 -8 -5 -17 -8 -21 -5 -4
-4 16 1 34 3 9 9 -1 7 -13z"/>
<path fill="#ffffff" stroke="none" d="M2817 963 c-4 -3 -1 -13 6 -22 11 -14
10 -14 -5 -2 -16 12 -16 31 -1 31 4 0 3 -3 0 -7z"/>
<path fill="#ffffff" stroke="none" d="M2901 953 c8 -8 8 -13 0 -18 -7 -3 -10
-1 -9 6 2 7 -2 13 -9 14 -6 0 -14 3 -18 7 -4 3 0 5 9 4 9 -1 21 -7 27 -13z"/>
<path fill="#ffffff" stroke="none" d="M2799 936 c9 -11 9 -16 -1 -22 -7 -4
-10 -4 -6 1 4 4 3 14 -3 22 -6 7 -9 13 -6 13 2 0 10 -6 16 -14z"/>
<path fill="#ffffff" stroke="none" d="M2777 915 c0 -8 -4 -12 -9 -9 -5 3 -6
10 -3 15 9 13 12 11 12 -6z"/>
<path fill="#ffffff" stroke="none" d="M2872 908 c-9 -9 -9 -15 1 -27 11 -14
10 -14 -6 -2 -13 10 -15 17 -6 27 6 8 14 14 17 14 3 0 1 -5 -6 -12z"/>
<path fill="#ffffff" stroke="none" d="M2911 903 c13 -16 12 -17 -3 -4 -17 13
-22 21 -14 21 2 0 10 -8 17 -17z"/>
<path fill="#ffffff" stroke="none" d="M2766 882 c-3 -3 0 -12 6 -21 10 -13
10 -14 -2 -4 -16 15 -23 46 -8 37 5 -3 7 -9 4 -12z"/>
<path fill="#ffffff" stroke="none" d="M2899 886 c9 -11 9 -16 -1 -22 -7 -4
-10 -4 -6 1 4 4 3 14 -3 22 -6 7 -9 13 -6 13 2 0 10 -6 16 -14z"/>
<path fill="#ffffff" stroke="none" d="M2761 843 c13 -16 12 -17 -3 -4 -17 13
-22 21 -14 21 2 0 10 -8 17 -17z"/>
<path fill="#ffffff" stroke="none" d="M2876 845 c-1 -8 -5 -17 -8 -21 -5 -4
-4 16 1 34 3 9 9 -1 7 -13z"/>
<path fill="#ffffff" stroke="none" d="M2904 841 c3 -5 -2 -15 -12 -22 -15
-12 -16 -12 -5 2 7 9 10 19 6 22 -3 4 -4 7 0 7 3 0 8 -4 11 -9z"/>
<path fill="#ffffff" stroke="none" d="M2751 823 c13 -16 12 -17 -3 -4 -17 13
-22 21 -14 21 2 0 10 -8 17 -17z"/>
<path fill="#000000" stroke="none" d="M2566 668 c3 -5 13 -8 23 -8 9 0 23 -6
30 -12 11 -11 12 -10 6 2 -5 8 15 -9 44 -37 29 -29 54 -53 56 -53 2 0 2 9 0
20 -2 11 0 22 4 24 4 3 7 -7 6 -22 -1 -18 11 -42 38 -75 21 -26 42 -45 46 -42
5 2 14 -7 22 -21 13 -25 11 -28 -71 -107 -47 -45 -85 -89 -86 -98 -1 -13 10
-16 53 -18 33 -1 52 2 49 8 -4 5 -15 8 -25 6 -35 -7 -17 29 52 102 56 59 67
76 58 87 -9 11 -9 16 0 22 7 4 9 3 6 -3 -4 -6 1 -17 10 -24 14 -12 16 -12 11
1 -4 11 0 16 12 17 10 1 17 -5 16 -15 0 -9 4 -17 9 -17 6 0 9 8 9 17 -1 10 2
15 6 13 5 -3 7 -11 6 -18 -3 -19 -17 -38 -25 -33 -4 3 -7 -25 -7 -61 -1 -52
-5 -69 -19 -79 -10 -7 -21 -11 -26 -9 -4 3 -10 2 -13 -3 -3 -5 37 -8 89 -8 97
0 119 11 38 18 -6 1 -9 8 -5 16 3 10 1 13 -6 8 -6 -3 -14 -2 -17 4 -4 6 -1 9
6 8 6 -2 14 3 17 11 3 10 0 11 -9 5 -11 -6 -10 -3 1 11 14 17 13 18 -2 12 -10
-3 -20 -2 -23 4 -4 5 -3 9 2 8 25 -4 28 9 28 145 0 96 -3 142 -10 139 -5 -3
-4 0 3 8 21 23 13 33 -10 13 -14 -12 -18 -13 -10 -3 6 9 10 18 7 20 -2 3 6 6
18 6 87 5 74 18 -19 18 -46 0 -84 -3 -84 -7 0 -7 22 -12 41 -10 3 1 4 -11 1
-25 -4 -20 -2 -24 9 -18 11 7 12 6 3 -6 -12 -16 -13 -128 -1 -147 23 -35 -25
2 -103 80 -48 48 -91 84 -95 80 -4 -4 -2 3 4 16 6 12 16 22 21 22 6 0 10 3 10
8 0 4 -47 7 -104 7 -57 0 -102 -3 -100 -7z"/>
<path fill="#ffffff" stroke="none" d="M2667 645 c0 -8 -4 -12 -9 -9 -5 3 -6
10 -3 15 9 13 12 11 12 -6z"/>
<path fill="#ffffff" stroke="none" d="M2702 646 c-4 -6 -7 -14 -7 -18 0 -19
-11 -14 -11 6 0 12 6 23 13 23 6 0 9 -5 5 -11z"/>
<path fill="#ffffff" stroke="none" d="M2721 637 c-10 -9 -11 -8 -5 6 3 10 9
15 12 12 3 -3 0 -11 -7 -18z"/>
<path fill="#ffffff" stroke="none" d="M2941 637 c-10 -9 -11 -8 -5 6 3 10 9
15 12 12 3 -3 0 -11 -7 -18z"/>
<path fill="#ffffff" stroke="none" d="M2951 583 c13 -16 12 -17 -3 -4 -10 7
-18 15 -18 17 0 8 8 3 21 -13z"/>
<path fill="#ffffff" stroke="none" d="M2780 575 c0 -2 -6 -8 -13 -14 -10 -8
-14 -7 -14 2 0 8 6 14 14 14 7 0 13 -1 13 -2z"/>
<path fill="#ffffff" stroke="none" d="M2786 545 c-1 -8 -5 -17 -8 -21 -5 -4
-4 16 1 34 3 9 9 -1 7 -13z"/>
<path fill="#ffffff" stroke="none" d="M2821 543 c13 -16 12 -17 -3 -4 -10 7
-18 15 -18 17 0 8 8 3 21 -13z"/>
<path fill="#ffffff" stroke="none" d="M2957 553 c-4 -3 0 -14 8 -23 13 -15
14 -19 1 -29 -11 -9 -16 -9 -22 0 -4 7 -3 9 4 5 17 -10 23 10 7 24 -14 11 -12
30 2 30 4 0 3 -3 0 -7z"/>
<path fill="#ffffff" stroke="none" d="M2802 518 c-9 -9 -8 -16 6 -32 17 -21
17 -21 -5 -2 -18 15 -20 22 -12 33 6 7 14 13 17 13 3 0 1 -5 -6 -12z"/>
<path fill="#ffffff" stroke="none" d="M2827 513 c-4 -3 -1 -13 6 -22 11 -14
10 -14 -5 -2 -16 12 -16 31 -1 31 4 0 3 -3 0 -7z"/>
<path fill="#ffffff" stroke="none" d="M2877 473 c0 -9 -4 -10 -14 -2 -7 6
-13 12 -13 14 0 1 6 2 13 2 8 0 14 -6 14 -14z"/>
<path fill="#ffffff" stroke="none" d="M2980 454 c0 -8 -19 -13 -24 -6 -3 5 1
9 9 9 8 0 15 -2 15 -3z"/>
<path fill="#ffffff" stroke="none" d="M2957 372 c-10 -10 -14 -22 -10 -27 5
-4 2 -5 -5 -1 -11 6 -10 12 4 27 9 10 19 19 22 19 3 0 -2 -8 -11 -18z"/>
<path fill="#ffffff" stroke="none" d="M2810 347 c0 -2 -19 -21 -42 -42 l-43
-40 40 43 c36 39 45 47 45 39z"/>
<path fill="#ffffff" stroke="none" d="M2945 281 c3 -5 2 -12 -3 -15 -5 -3 -9
1 -9 9 0 17 3 19 12 6z"/>
<path fill="#ffffff" stroke="none" d="M2965 251 c3 -5 2 -12 -3 -15 -5 -3 -9
1 -9 9 0 17 3 19 12 6z"/>
<path fill="#000000" stroke="none" d="M2655 240 c-4 -6 -10 -8 -15 -5 -5 3
-12 1 -15 -5 -4 -7 3 -10 19 -8 30 5 41 14 27 22 -5 4 -12 2 -16 -4z"/>
</g>
</svg>
