<?xml version="1.0" standalone="no"?>
<!DOCTYPE svg PUBLIC "-//W3C//DTD SVG 20010904//EN"
 "http://www.w3.org/TR/2001/REC-SVG-20010904/DTD/svg10.dtd">
<svg version="1.0" xmlns="http://www.w3.org/2000/svg"
 width="318.000000pt" height="451.000000pt" viewBox="0 0 318.000000 451.000000"
 preserveAspectRatio="xMidYMid meet">
<metadata>
Created by potrace 1.16, written by Peter Selinger 2001-2019
</metadata>
<g transform="translate(0.000000,451.000000) scale(0.100000,-0.100000)"
fill="#000000" stroke="none">
<path fill="#000000" stroke="none" d="M390 4304 c-128 -59 -200 -245 -139
-359 24 -44 68 -87 84 -81 6 2 20 -1 32 -5 13 -5 25 -4 28 2 4 5 11 7 16 4 5
-4 9 -1 9 4 0 6 6 10 13 9 6 -2 11 2 10 9 -2 7 3 10 11 7 17 -7 40 31 30 48
-4 6 -3 8 3 5 17 -10 34 48 20 63 -9 10 -9 11 0 6 8 -4 11 1 10 14 -1 11 -5
20 -10 20 -4 0 -5 5 -2 10 10 16 -44 82 -62 76 -8 -3 -11 -2 -8 3 12 21 -36
18 -115 -5 -22 -7 -24 -6 -11 9 7 9 10 17 6 17 -4 0 -2 7 5 15 7 8 9 15 6 15
-8 0 8 21 56 70 20 21 39 35 42 32 3 -3 6 -1 6 4 0 9 14 13 58 16 6 1 12 5 12
10 0 14 -62 4 -110 -18z"/>
<path fill="#ffffff" stroke="none" d="M415 4118 c5 4 5 1 1 -5 -4 -7 -4 -13
1 -13 11 0 33 -49 33 -73 0 -11 4 -15 12 -11 7 5 8 3 3 -7 -5 -7 -9 -26 -10
-41 -2 -40 -25 -78 -52 -84 -12 -4 -20 -10 -17 -15 3 -5 -9 -1 -26 9 -16 9
-36 29 -42 44 -7 15 -15 25 -18 23 -3 -2 -6 25 -6 60 -1 35 -5 69 -9 75 -5 9
-4 11 3 6 15 -9 16 6 2 22 -7 9 -7 9 2 2 14 -12 31 -13 24 -2 -2 4 9 9 27 10
17 2 33 5 36 7 2 3 9 0 16 -5 7 -5 16 -6 20 -2z"/>
<path fill="#000000" stroke="none" d="M1004 3898 c-27 -18 -83 -66 -125 -108
-85 -85 -143 -186 -144 -250 0 -21 -3 -36 -7 -34 -9 6 -4 -48 6 -65 6 -10 5
-12 -3 -7 -8 5 -8 0 1 -21 22 -51 41 -74 55 -69 8 3 11 2 8 -4 -7 -12 26 -29
62 -31 54 -3 73 1 92 20 11 11 23 16 27 13 4 -4 4 1 1 11 -4 10 -3 16 2 13 14
-9 34 22 28 44 -3 13 -1 18 6 13 7 -4 8 9 4 43 l-6 49 19 -40 c18 -39 21 -135
6 -205 -16 -72 -18 -68 27 -66 23 0 41 4 40 9 -2 4 -3 14 -3 23 0 8 -3 13 -7
11 -5 -3 -8 8 -7 24 0 16 -2 49 -6 72 -3 24 -3 55 1 70 5 19 4 25 -4 20 -7 -4
-6 1 2 10 7 9 10 25 7 34 -4 10 -4 14 0 11 3 -4 14 1 23 10 9 10 13 13 9 8
-11 -14 -10 -80 3 -113 19 -52 94 -103 119 -80 10 9 11 9 5 -2 -6 -10 -2 -12
13 -7 11 4 29 9 41 11 30 6 83 61 85 89 0 13 4 22 7 20 4 -2 9 10 11 27 3 16
1 32 -3 35 -5 2 -6 11 -3 19 3 8 -1 38 -10 67 -22 76 -123 227 -147 221 -5 -2
-8 1 -6 5 4 15 -147 132 -171 132 -5 0 -31 -14 -58 -32z"/>
<path fill="#000000" stroke="none" d="M2074 3902 c-66 -44 -123 -95 -118
-104 3 -5 0 -7 -8 -6 -7 2 -12 -3 -10 -10 1 -8 -1 -11 -6 -8 -20 12 -130 -163
-116 -185 4 -8 3 -9 -4 -5 -12 7 -27 -73 -25 -125 2 -37 31 -102 43 -94 6 4 7
-1 3 -11 -4 -12 -3 -15 5 -10 7 4 12 3 12 -3 0 -12 24 -26 63 -35 22 -5 27 -4
21 6 -6 11 -5 11 8 0 11 -9 18 -10 23 -2 3 6 11 8 16 4 5 -3 25 8 45 25 19 17
31 31 27 31 -4 0 -1 5 8 10 18 11 23 96 7 117 -6 7 -5 14 3 19 8 4 9 3 5 -4
-4 -7 -3 -12 3 -12 5 0 12 -14 16 -30 4 -17 10 -28 15 -25 4 3 7 -3 5 -12 -2
-10 -6 -47 -9 -83 -3 -36 -8 -78 -11 -94 -3 -16 -7 -33 -8 -39 -1 -6 16 -11
39 -13 30 -2 41 1 41 11 0 8 -3 15 -6 15 -3 0 -6 10 -7 23 -2 43 -15 131 -19
136 -3 2 1 11 8 19 10 13 9 14 -3 7 -12 -7 -13 -6 -4 6 7 8 15 29 19 47 3 17
11 32 16 32 6 0 8 4 5 8 -3 5 1 9 9 9 13 0 13 -3 0 -17 -16 -18 -18 -40 -9
-89 8 -38 61 -94 81 -87 8 3 11 1 8 -4 -3 -6 -3 -10 2 -11 4 0 16 -2 26 -4 11
-2 15 1 11 8 -5 9 -3 8 6 0 25 -23 108 24 136 79 22 42 17 175 -6 203 -6 7 -7
15 -3 18 3 4 1 7 -6 7 -7 0 -10 4 -7 9 11 17 -110 174 -127 164 -6 -3 -7 -1
-3 5 7 12 -50 59 -66 54 -5 -1 -7 2 -4 7 6 9 -82 71 -100 71 -5 0 -27 -12 -50
-28z"/>
<path fill="#000000" stroke="none" d="M325 3757 c-45 -32 -85 -80 -80 -95 3
-7 1 -10 -4 -7 -5 3 -11 -5 -13 -17 -4 -25 10 -78 20 -79 4 0 16 -2 27 -4 10
-2 26 2 34 8 12 10 13 9 6 -2 -6 -10 -4 -12 4 -7 7 5 10 15 7 23 -4 9 -2 11 6
7 7 -5 9 2 6 20 -4 17 -2 24 4 18 11 -11 13 -59 3 -90 -6 -20 -4 -23 12 -20
10 2 17 10 15 17 -8 38 -8 71 0 83 8 10 9 10 5 -2 -7 -21 18 -54 34 -44 8 4
10 3 5 -4 -11 -18 26 -15 52 4 14 10 22 25 22 45 0 38 -27 92 -42 83 -7 -4 -8
-3 -4 5 8 12 -21 41 -64 65 -23 13 -29 12 -55 -7z"/>
<path fill="#000000" stroke="none" d="M1009 2587 c-74 -51 -128 -100 -123
-109 3 -5 1 -7 -4 -6 -29 9 -132 -153 -148 -232 -18 -87 7 -213 38 -194 7 4 8
3 4 -4 -8 -14 50 -46 66 -36 7 4 8 3 4 -4 -12 -19 72 -5 110 18 19 12 34 28
34 36 0 8 4 14 9 14 18 0 23 76 7 116 -16 39 -16 39 3 15 10 -14 23 -39 29
-58 10 -32 9 -133 -2 -183 -16 -73 -18 -69 25 -68 l40 0 -6 37 c-3 20 -8 48
-10 61 -9 44 -7 124 3 151 6 15 8 30 5 33 -4 3 -1 6 6 6 7 0 9 5 5 13 -4 6 -3
9 1 4 5 -4 8 -30 6 -58 -2 -39 0 -49 10 -44 8 5 10 4 5 -4 -10 -15 21 -64 35
-56 5 4 8 3 7 -2 -2 -4 1 -8 5 -8 4 0 12 -7 17 -15 13 -21 100 -19 134 3 15
10 24 22 21 28 -4 5 -1 8 6 7 7 -2 21 13 31 32 14 27 17 51 14 110 -2 41 -9
76 -15 78 -5 2 -7 10 -4 19 5 12 3 14 -7 8 -8 -5 -11 -4 -7 2 13 21 -39 101
-117 178 -70 70 -167 146 -185 145 -3 -1 -27 -15 -52 -33z"/>
<path fill="#000000" stroke="none" d="M2064 2581 c-69 -46 -154 -128 -196
-188 -40 -58 -71 -131 -64 -149 3 -9 1 -12 -4 -9 -9 6 -13 -21 -12 -80 0 -40
10 -70 22 -67 6 1 9 -2 6 -7 -15 -24 42 -76 96 -87 31 -6 80 5 73 17 -4 5 0 6
8 3 16 -6 65 41 78 74 11 29 12 85 1 78 -11 -6 -9 31 2 41 4 5 6 1 4 -7 -1 -8
2 -14 8 -13 7 1 11 -3 11 -10 -1 -34 4 -48 15 -41 7 4 8 3 4 -5 -4 -7 -9 -50
-9 -96 -1 -45 -6 -81 -11 -78 -5 3 -7 -8 -4 -25 2 -17 1 -29 -4 -26 -4 3 -8 0
-8 -6 0 -7 16 -9 43 -7 31 2 41 7 38 18 -2 8 -4 24 -4 37 -1 12 -4 22 -7 22
-3 0 -6 31 -5 70 0 40 -4 70 -10 70 -6 0 -5 3 1 8 11 7 29 60 25 75 -1 5 2 6
7 3 4 -2 7 -26 6 -53 -2 -52 20 -108 38 -97 6 4 8 3 5 -3 -4 -6 1 -17 10 -24
14 -12 16 -12 9 1 -4 9 -2 8 7 -2 16 -20 102 -34 112 -18 3 6 11 8 16 5 5 -4
9 -1 9 4 0 6 6 11 13 12 20 0 60 59 61 90 1 16 4 29 7 29 10 0 -2 84 -15 99
-9 12 -8 13 3 6 9 -5 12 -4 8 2 -7 11 -23 51 -27 68 -6 24 -88 133 -129 173
-43 41 -163 132 -174 132 -2 0 -31 -18 -63 -39z"/>
<path fill="#000000" stroke="none" d="M1007 1272 c-103 -70 -226 -200 -211
-223 4 -7 3 -10 -3 -6 -12 8 -46 -61 -37 -75 4 -6 2 -8 -4 -5 -10 7 -24 -48
-27 -108 -2 -45 14 -97 27 -89 7 4 8 3 4 -5 -10 -15 13 -43 27 -34 5 3 7 1 4
-4 -12 -20 24 -36 83 -39 53 -2 61 0 95 29 28 24 38 41 39 64 0 17 4 29 8 27
4 -3 5 8 4 23 -2 16 -5 28 -6 28 -1 0 -3 7 -5 16 -1 9 3 16 10 16 7 0 12 -7
10 -16 -1 -9 2 -19 8 -23 15 -9 16 -132 1 -202 -7 -33 -10 -63 -8 -65 8 -8 84
-9 79 -2 -4 7 -12 45 -20 91 -8 49 -6 145 3 170 6 14 18 32 28 40 17 13 18 13
7 0 -17 -23 -21 -106 -4 -96 5 4 7 -2 5 -12 -3 -10 8 -30 30 -51 28 -27 45
-35 87 -39 43 -4 50 -2 44 9 -7 11 -6 12 7 2 12 -11 18 -10 32 5 9 10 13 22 9
26 -4 4 1 4 12 0 14 -6 17 -4 12 9 -4 12 -2 14 10 10 10 -4 14 -2 9 5 -3 6 -1
14 5 17 5 4 8 14 5 22 -4 8 -2 11 5 7 14 -8 6 134 -9 162 -5 10 -11 24 -11 29
-6 40 -112 182 -132 177 -6 -1 -8 2 -5 7 7 10 -47 56 -125 109 l-47 32 -55
-38z"/>
<path fill="#000000" stroke="none" d="M2053 1261 c-109 -77 -235 -223 -217
-252 4 -8 3 -9 -4 -5 -15 9 -43 -89 -44 -151 -1 -54 17 -107 32 -98 5 3 7 0 4
-9 -7 -18 61 -66 87 -61 11 2 19 -2 19 -8 0 -8 3 -8 8 -2 4 6 16 10 27 10 20
1 99 45 81 45 -6 0 -2 6 8 13 23 17 30 103 11 133 -11 17 -11 21 0 21 8 0 12
-3 10 -7 -2 -3 7 -25 20 -48 13 -24 21 -41 17 -38 -4 2 -8 -24 -8 -57 -2 -101
-8 -155 -18 -150 -5 3 -7 0 -4 -7 2 -7 14 -15 27 -17 14 -2 20 1 15 8 -4 8 0
8 15 0 26 -14 27 -10 16 45 -3 16 -8 61 -11 99 -3 39 -7 76 -10 83 -2 7 0 11
5 7 8 -4 27 50 23 66 0 3 6 6 13 6 9 0 11 -4 6 -11 -5 -6 -7 -31 -6 -56 3 -61
3 -62 17 -54 7 4 8 3 4 -5 -10 -15 13 -43 27 -34 5 3 7 1 4 -4 -12 -18 20 -35
78 -40 38 -4 55 -2 55 6 0 7 4 10 9 7 12 -8 59 31 76 63 16 32 26 131 12 131
-4 0 -5 5 -2 10 4 6 1 18 -7 27 -8 11 -9 14 -1 10 15 -9 -30 95 -59 138 -35
51 -160 169 -215 202 l-51 32 -69 -48z"/>
<path fill="#000000" stroke="none" d="M2818 995 c-3 -3 -2 -24 2 -45 8 -41
-3 -66 -13 -30 -7 27 -53 47 -75 33 -30 -18 -41 -51 -29 -89 13 -43 72 -108
88 -98 8 4 9 3 5 -4 -3 -6 2 -16 13 -21 26 -15 26 -15 56 14 14 14 25 23 25
19 0 -13 42 41 59 76 21 43 17 75 -12 95 -24 17 -62 20 -52 5 3 -6 -1 -7 -10
-4 -11 5 -17 -3 -22 -27 l-7 -34 -7 28 c-4 16 -4 39 1 52 10 27 -4 47 -22 30z"/>
<path fill="#000000" stroke="none" d="M2750 633 c-74 -51 -98 -149 -54 -220
13 -21 24 -34 24 -29 0 6 6 2 13 -7 13 -19 74 -30 83 -16 3 5 10 7 15 4 5 -4
9 -1 9 6 0 7 3 9 7 6 3 -4 12 -2 20 4 40 34 -11 -84 -55 -126 -17 -16 -29 -32
-26 -37 3 -4 -3 -5 -12 -1 -10 4 -15 2 -11 -3 3 -5 -2 -10 -11 -11 -49 -3 -93
-23 -51 -23 38 0 97 19 115 38 10 9 19 15 20 12 1 -3 19 12 39 33 20 20 33 37
30 37 -3 0 4 9 14 19 20 20 41 99 41 155 0 42 -19 98 -31 90 -5 -3 -6 1 -3 9
6 18 -45 69 -63 63 -8 -3 -11 -1 -8 4 11 17 -79 11 -105 -7z"/>
<path fill="#ffffff" stroke="none" d="M2784 628 c-6 -10 -5 -10 7 -1 12 10
21 9 41 -1 15 -8 30 -11 33 -8 4 4 6 3 5 -3 -4 -19 0 -36 8 -32 7 5 13 -29 16
-90 0 -18 5 -29 11 -25 6 3 5 -1 -1 -9 -6 -8 -10 -24 -9 -36 1 -12 -2 -20 -7
-17 -5 3 -15 1 -21 -5 -16 -13 -88 -21 -81 -10 3 5 1 9 -5 9 -6 0 -18 14 -27
31 -19 37 -27 169 -10 166 6 -1 10 4 8 11 -1 8 2 11 7 8 5 -3 11 1 15 9 3 8 8
15 11 15 4 0 3 -6 -1 -12z"/>
</g>
</svg>
