<?xml version="1.0" standalone="no"?>
<!DOCTYPE svg PUBLIC "-//W3C//DTD SVG 20010904//EN"
 "http://www.w3.org/TR/2001/REC-SVG-20010904/DTD/svg10.dtd">
<svg version="1.0" xmlns="http://www.w3.org/2000/svg"
 width="318.000000pt" height="451.000000pt" viewBox="0 0 318.000000 451.000000"
 preserveAspectRatio="xMidYMid meet">
<metadata>
Created by potrace 1.16, written by Peter Selinger 2001-2019
</metadata>
<g transform="translate(0.000000,451.000000) scale(0.100000,-0.100000)"
fill="#000000" stroke="none">
<path fill="#000000" stroke="none" d="M150 4271 c8 -6 18 -7 22 -5 5 3 11 -2
14 -10 3 -9 9 -14 13 -12 3 2 6 -84 5 -191 0 -178 -2 -197 -18 -209 -11 -7
-22 -11 -27 -9 -4 3 -10 1 -13 -4 -4 -6 31 -9 89 -9 52 1 95 4 95 7 0 4 -9 7
-20 8 -32 3 -45 24 -45 73 0 25 -4 51 -10 59 -7 11 -7 13 3 7 6 -4 12 -3 12 1
0 5 -6 15 -12 22 -11 11 -10 12 0 6 8 -4 13 -2 11 6 -1 8 -1 19 0 26 1 12 181
-163 181 -176 0 -5 -10 -15 -22 -23 -20 -13 -12 -15 90 -15 64 -1 110 3 106 8
-3 5 -12 9 -21 9 -25 0 -72 38 -178 145 -55 55 -98 99 -97 98 9 -4 160 152
155 160 -4 6 -1 7 6 3 7 -5 19 0 27 10 9 11 12 13 9 6 -6 -11 -3 -12 12 -3 11
6 23 7 27 4 3 -3 6 -1 6 5 0 8 -27 12 -87 12 -58 0 -83 -3 -73 -9 8 -6 18 -7
22 -5 4 3 8 -5 8 -17 0 -15 -28 -51 -85 -107 -47 -46 -86 -82 -86 -78 -1 3 -2
9 -3 14 -1 4 -5 13 -10 21 -6 10 -5 12 2 7 14 -8 12 20 -2 43 -6 10 -5 12 2 7
16 -10 15 7 0 23 -10 11 -10 13 0 7 16 -9 16 6 0 23 -10 11 -10 13 0 7 8 -5
12 0 12 13 0 20 14 34 38 37 8 2 16 5 20 8 3 3 -39 6 -94 6 -64 0 -94 -4 -84
-9z"/>
<path fill="#000000" stroke="none" d="M309 3747 c-81 -61 -108 -126 -73 -175
27 -38 93 -21 97 25 0 12 4 20 8 17 4 -2 5 -27 3 -55 -3 -37 -1 -50 8 -47 8 3
11 24 11 59 -1 39 0 47 6 29 4 -14 13 -24 19 -22 7 1 11 -3 9 -10 -3 -17 25
-21 57 -8 21 8 27 15 23 30 -3 11 -1 17 4 14 14 -8 0 44 -20 81 -9 16 -37 44
-63 62 l-46 33 -43 -33z"/>
<path fill="#000000" stroke="none" d="M1315 2944 c-74 -25 -115 -88 -109
-167 4 -43 21 -80 33 -72 5 2 8 -2 7 -11 0 -10 15 -25 36 -36 34 -18 36 -21
27 -51 -4 -18 -10 -43 -13 -57 -2 -14 -14 -65 -26 -114 -11 -50 -18 -96 -15
-103 2 -8 0 -11 -5 -8 -6 3 -10 -3 -10 -14 0 -31 -12 -26 -54 24 -21 25 -42
42 -48 39 -7 -5 -8 -2 -4 5 5 8 -8 27 -33 52 -23 21 -38 39 -33 39 12 0 34 49
27 61 -4 5 -1 9 6 9 8 0 7 5 -2 17 -10 11 -10 14 -1 9 6 -4 12 -3 12 1 0 5 -6
15 -12 22 -10 10 -10 12 -1 7 19 -11 -3 44 -31 77 -27 31 -83 57 -124 57 -36
0 -100 -33 -121 -62 -9 -12 -21 -37 -27 -56 -11 -36 -7 -95 5 -87 4 2 7 -6 7
-18 -1 -12 4 -21 10 -20 7 1 11 -5 10 -15 0 -10 6 -16 16 -16 10 1 16 -3 15
-10 -1 -6 6 -10 15 -10 10 1 15 -2 12 -7 -5 -9 4 -12 37 -12 10 0 22 -14 29
-38 7 -21 18 -36 23 -32 6 3 7 1 3 -5 -10 -16 4 -63 17 -55 5 3 7 1 4 -4 -9
-15 37 -146 47 -136 5 4 6 3 3 -3 -9 -16 36 -147 47 -137 5 4 6 3 3 -3 -8 -14
14 -85 24 -78 5 3 6 -2 3 -10 -4 -10 -1 -16 7 -17 104 -4 299 -2 299 4 0 4 8
4 18 -1 9 -4 149 -7 311 -6 311 2 312 2 306 50 -1 13 1 21 6 19 11 -7 22 32
13 46 -4 7 -3 9 3 6 9 -6 28 45 24 66 0 4 3 7 8 7 5 0 8 11 7 25 -2 13 0 22 4
20 10 -6 71 175 63 188 -4 6 -1 7 7 2 8 -5 11 -3 8 6 -3 8 2 20 11 27 12 10
13 12 1 6 -13 -7 -13 -5 -1 9 7 9 11 23 8 30 -4 10 2 13 16 12 28 -3 87 22 87
36 0 5 5 7 12 3 8 -5 9 -2 5 10 -4 10 -3 15 3 11 13 -8 31 30 36 80 8 65 -27
125 -92 162 -17 9 -24 9 -34 0 -10 -9 -11 -9 -5 2 7 11 -1 13 -40 9 -81 -10
-135 -65 -143 -149 -4 -41 -2 -50 8 -44 9 5 11 4 6 -4 -5 -7 -3 -25 4 -41 12
-28 9 -32 -68 -119 l-80 -89 -18 72 c-9 39 -22 77 -28 85 -9 12 -8 13 3 6 9
-5 12 -4 8 2 -6 10 -18 58 -19 81 -1 6 -4 12 -7 12 -3 0 -7 13 -8 28 -3 42 -7
56 -18 64 -6 5 -5 8 3 8 7 0 10 4 7 10 -3 5 0 7 8 4 18 -7 90 65 83 83 -4 9
-1 11 5 7 8 -5 10 11 7 55 -3 39 -10 66 -19 72 -8 5 -10 9 -6 9 16 0 -31 41
-67 59 -61 29 -133 13 -185 -42 -13 -15 -20 -31 -16 -38 6 -8 4 -10 -5 -4 -10
6 -12 3 -8 -13 4 -12 2 -20 -3 -17 -11 7 -2 -81 12 -106 5 -11 15 -16 21 -13
7 5 8 2 3 -5 -4 -8 1 -18 13 -27 20 -14 20 -14 -9 -90 -16 -42 -26 -81 -22
-87 3 -7 2 -9 -2 -4 -11 9 -77 -161 -68 -176 3 -6 1 -7 -5 -3 -7 4 -12 1 -12
-6 -1 -7 -18 31 -39 85 -20 53 -39 95 -42 93 -2 -2 -5 8 -6 22 0 15 -6 28 -12
30 -5 2 -7 10 -4 19 5 12 3 14 -7 8 -8 -5 -11 -4 -7 2 8 13 -16 76 -25 67 -4
-3 -4 4 -1 15 3 12 14 26 24 32 19 10 55 69 42 69 -4 0 -2 5 4 11 14 14 -2 97
-25 129 -20 28 -79 60 -116 64 -13 2 -41 -3 -61 -10z"/>
<path fill="#000000" stroke="none" d="M1125 1687 c0 -83 3 -114 12 -114 7 0
9 5 6 11 -3 6 0 5 8 -1 7 -7 17 -13 22 -13 4 0 5 6 1 13 -5 7 0 6 11 -3 17
-13 18 -13 10 0 -6 12 -5 13 6 3 7 -7 17 -13 22 -13 4 0 5 6 1 13 -5 7 0 6 11
-3 17 -13 18 -13 10 0 -6 12 -5 13 6 3 16 -16 33 -17 23 -1 -5 7 -3 8 7 3 20
-13 69 -13 62 -1 -3 6 0 5 8 -1 15 -15 33 -18 25 -5 -3 5 1 9 9 9 8 0 12 -4 9
-9 -3 -4 2 -8 11 -8 10 0 14 5 9 13 -6 10 -4 10 7 0 7 -7 17 -13 22 -13 4 0 5
6 1 13 -5 7 0 6 11 -3 17 -13 18 -13 10 0 -6 12 -5 13 6 3 16 -16 33 -17 23
-1 -5 7 -3 8 7 2 20 -12 101 -12 118 0 11 8 13 8 7 -1 -4 -7 -3 -13 3 -13 5 0
12 6 14 13 4 10 6 10 6 0 1 -7 6 -13 12 -13 5 0 8 4 5 8 -3 5 1 9 9 9 8 0 12
-3 10 -6 -6 -11 280 -7 287 4 5 6 8 5 8 -4 0 -10 3 -11 13 -2 8 6 17 8 21 4
10 -11 37 -12 30 -2 -3 5 -2 9 3 9 4 0 8 20 8 44 0 27 -4 42 -10 38 -5 -3 -4
1 3 10 10 13 10 17 0 21 -7 3 -8 6 -3 6 8 1 10 35 6 84 -1 4 -209 7 -464 7
l-462 0 0 -113z"/>
<path fill="#000000" stroke="none" d="M2815 948 c2 -26 0 -50 -4 -52 -4 -3
-8 4 -8 15 -4 42 -50 60 -90 34 -22 -15 -25 -22 -20 -58 6 -43 38 -94 57 -89
6 1 9 -2 6 -7 -3 -5 10 -21 29 -35 l35 -27 33 22 c47 33 72 60 91 97 14 28 15
36 4 50 -11 13 -11 14 1 8 9 -6 12 -5 9 5 -3 8 -10 13 -16 12 -7 -2 -9 4 -5
14 5 13 2 15 -11 10 -10 -4 -15 -3 -11 4 4 6 -2 9 -17 7 -31 -5 -48 -16 -59
-42 -7 -16 -8 -8 -6 30 3 36 0 51 -9 51 -9 0 -12 -14 -9 -49z"/>
<path fill="#000000" stroke="none" d="M2550 679 c0 -4 13 -9 29 -12 16 -4 45
-20 64 -36 19 -17 38 -27 42 -23 5 4 5 2 2 -4 -8 -14 26 -47 37 -37 4 5 6 1 4
-7 -2 -8 3 -14 10 -12 8 1 11 -2 8 -6 -7 -12 28 -44 39 -35 4 5 5 3 2 -3 -7
-12 36 -58 45 -49 2 3 5 -3 5 -12 0 -24 -151 -171 -193 -189 -19 -8 -34 -16
-34 -18 0 -1 39 -3 88 -4 48 0 80 2 72 5 -8 3 -23 12 -32 21 -17 14 -16 17 12
44 17 15 30 33 30 38 0 6 6 9 13 8 6 -2 11 3 9 10 -1 6 4 11 10 10 7 -2 12 3
10 10 -1 6 4 11 10 10 7 -2 12 3 10 10 -1 6 4 11 10 10 7 -2 12 3 10 10 -1 8
2 11 8 7 5 -3 13 0 16 8 2 7 11 14 19 14 8 0 12 -3 10 -7 -2 -3 -5 -45 -6 -93
-1 -48 -6 -87 -11 -87 -5 0 -6 -5 -2 -12 4 -6 3 -8 -4 -5 -5 4 -21 3 -34 -2
-21 -9 -20 -10 12 -10 20 -1 42 5 49 11 9 9 12 9 7 1 -4 -8 12 -11 56 -12 40
0 57 3 48 9 -8 5 -17 7 -21 5 -3 -3 -13 3 -22 13 -10 12 -14 36 -13 80 0 35
-3 62 -9 62 -7 0 -7 3 0 8 6 4 10 48 10 97 0 50 -4 93 -10 97 -6 5 -5 8 3 8
10 0 10 5 1 21 -8 15 -8 19 0 15 6 -4 11 0 11 8 0 14 26 22 55 16 6 -1 6 2 2
7 -12 11 -198 13 -191 1 3 -5 12 -7 20 -4 7 3 16 1 19 -5 4 -5 10 -7 15 -4 5
3 8 -43 8 -102 l1 -106 -90 89 c-84 84 -108 124 -74 124 8 0 15 4 15 8 0 11
-61 10 -79 -2 -9 -6 -12 -5 -7 2 8 14 -34 12 -53 -2 -11 -8 -13 -8 -8 0 5 8
-5 11 -28 11 -19 -1 -35 -4 -35 -8z"/>
</g>
</svg>
