<?xml version="1.0" standalone="no"?>
<!DOCTYPE svg PUBLIC "-//W3C//DTD SVG 20010904//EN"
 "http://www.w3.org/TR/2001/REC-SVG-20010904/DTD/svg10.dtd">
<svg version="1.0" xmlns="http://www.w3.org/2000/svg"
 width="318.000000pt" height="450.000000pt" viewBox="0 0 318.000000 450.000000"
 preserveAspectRatio="xMidYMid meet">
<metadata>
Created by potrace 1.16, written by Peter Selinger 2001-2019
</metadata>
<g transform="translate(0.000000,450.000000) scale(0.100000,-0.100000)"
fill="#000000" stroke="none">
<path fill="#000000" stroke="none" d="M374 4312 c-24 -16 -208 -295 -210
-316 -1 -23 2 -24 90 -25 49 -1 93 -4 96 -7 3 -3 5 -29 5 -56 0 -35 4 -53 14
-56 9 -3 11 0 5 9 -7 12 -5 12 9 0 20 -16 19 -18 22 44 2 28 4 53 4 57 1 4 13
8 29 10 20 2 27 9 28 26 1 21 -2 23 -30 20 l-31 -3 2 146 c2 114 -1 148 -11
152 -7 3 -17 2 -22 -1z"/>
<path fill="#ffffff" stroke="none" d="M354 4133 c-1 -54 -2 -101 -3 -105 -2
-13 -149 -9 -157 4 -4 7 -3 8 4 4 7 -4 12 -1 12 8 0 9 4 16 8 16 10 0 62 77
62 91 0 5 5 9 10 9 6 0 18 16 27 35 28 60 38 43 37 -62z"/>
<path fill="#000000" stroke="none" d="M977 3933 c-9 -2 -15 -9 -12 -14 3 -5
0 -6 -7 -4 -34 13 -96 -91 -92 -152 3 -61 4 -64 14 -58 5 3 8 0 5 -7 -3 -7 6
-26 19 -43 21 -26 25 -28 42 -15 13 9 15 10 7 1 -6 -7 -9 -19 -7 -26 3 -7 1
-16 -5 -20 -6 -3 -11 -2 -11 4 0 18 -88 44 -135 39 -76 -9 -144 -79 -147 -152
-2 -54 2 -77 14 -70 6 4 8 3 5 -4 -9 -14 3 -43 14 -36 5 3 6 -3 2 -12 -5 -13
-3 -16 10 -11 12 4 14 2 10 -10 -4 -11 -2 -14 5 -9 7 4 12 3 12 -3 0 -10 29
-23 41 -18 3 1 13 -4 21 -11 13 -10 17 -10 21 0 4 10 6 10 6 1 1 -7 6 -13 12
-13 5 0 7 5 3 11 -4 8 -1 8 12 2 21 -11 69 8 56 22 -4 5 -1 5 6 1 16 -10 54
22 45 37 -3 6 -1 7 5 3 14 -8 32 25 35 64 2 30 20 40 33 18 4 -7 3 -8 -4 -4
-8 5 -10 2 -6 -8 3 -9 11 -13 17 -9 6 4 7 1 2 -7 -11 -18 -11 -62 0 -80 5 -8
4 -11 -3 -6 -6 4 -10 -1 -10 -11 1 -10 -4 -44 -11 -76 -7 -32 -10 -61 -7 -64
3 -4 6 -1 6 7 0 10 3 10 15 0 12 -10 15 -10 15 1 0 11 2 11 10 -1 7 -11 10
-11 10 -2 0 10 5 10 20 2 18 -10 19 -8 10 14 -5 13 -6 27 -3 30 4 3 2 6 -4 6
-6 0 -9 9 -5 22 3 11 1 19 -4 16 -14 -9 -10 160 4 174 9 9 12 8 12 -5 0 -29
40 -98 52 -91 6 4 8 3 5 -3 -9 -14 40 -46 55 -37 7 4 8 3 4 -4 -7 -12 0 -14
59 -14 48 -1 57 1 50 12 -4 6 1 7 11 3 11 -4 22 1 30 12 8 10 14 15 14 11 0
-13 27 19 45 53 9 18 15 42 12 52 -3 11 -1 16 4 13 13 -7 0 65 -17 98 -22 43
-79 80 -130 86 -51 5 -127 -15 -117 -32 3 -6 3 -8 -2 -4 -4 4 -16 3 -27 -3
-18 -9 -18 -8 -8 10 6 12 15 21 21 21 6 0 7 4 4 10 -3 5 0 7 9 4 10 -4 20 6
31 33 19 44 30 138 16 129 -5 -4 -7 3 -3 16 4 16 2 19 -8 13 -9 -6 -11 -4 -5
5 5 8 1 18 -10 27 -11 7 -15 13 -11 13 10 0 -29 29 -59 46 -21 11 -98 16 -128
7z"/>
<path fill="#000000" stroke="none" d="M2095 3926 c-42 -19 -87 -69 -89 -99 0
-14 -4 -23 -8 -20 -5 2 -8 -12 -8 -32 0 -26 4 -34 13 -29 9 5 9 4 0 -6 -10
-11 -9 -18 5 -34 11 -12 12 -16 3 -11 -8 5 -2 -8 13 -28 27 -35 38 -42 60 -38
5 1 4 -4 -2 -12 -7 -8 -8 -17 -4 -21 4 -5 -15 4 -43 19 -68 36 -139 32 -193
-12 -20 -17 -36 -38 -36 -47 1 -9 -2 -13 -7 -10 -8 5 -23 -42 -23 -71 0 -64
41 -144 65 -129 7 4 9 3 5 -4 -7 -11 11 -24 59 -42 20 -8 25 -7 19 3 -5 9 -4
9 5 1 13 -12 74 -6 66 6 -3 5 5 6 17 2 16 -4 19 -2 13 8 -5 9 -4 11 3 6 22
-13 90 73 76 95 -4 8 -3 9 4 5 8 -5 12 2 12 21 1 25 2 26 11 10 17 -28 18
-103 3 -181 -8 -39 -14 -75 -14 -81 0 -8 66 -11 99 -6 2 1 -4 13 -14 27 -9 15
-12 23 -6 20 11 -7 10 -1 -4 39 -4 11 -8 44 -9 72 0 29 -5 53 -11 53 -5 0 -4
4 4 9 8 5 11 16 8 25 -4 9 -2 16 4 16 6 0 8 7 5 16 -3 8 -2 13 3 10 5 -3 11
-23 15 -44 7 -44 42 -96 58 -86 7 4 8 2 4 -4 -3 -6 3 -16 14 -22 11 -6 20 -7
20 -3 0 4 4 2 8 -4 9 -14 92 -25 92 -12 0 4 9 6 20 4 12 -2 30 5 40 15 11 11
23 20 28 19 4 0 12 8 17 18 6 10 13 20 16 23 3 3 11 19 16 36 8 23 8 35 0 44
-9 10 -9 11 2 5 10 -6 12 -2 7 13 -4 11 -9 30 -11 42 -18 95 -150 149 -246
100 -30 -16 -44 -19 -52 -11 -8 8 -7 11 2 11 7 0 9 4 6 10 -3 5 0 7 9 4 19 -7
62 58 71 108 12 66 -31 150 -93 180 -37 19 -111 21 -147 4z"/>
<path fill="#000000" stroke="none" d="M312 3674 c-7 -3 -19 -18 -27 -33 -13
-25 -12 -32 7 -67 11 -21 14 -33 7 -26 -20 19 -66 14 -87 -8 -40 -43 -9 -109
49 -105 20 1 33 6 32 13 -2 7 3 11 10 10 6 -2 12 4 11 13 -1 9 4 16 11 16 12
0 14 -52 3 -82 -3 -10 4 -15 21 -15 5 0 7 24 5 53 -5 51 -5 52 11 25 9 -16 19
-29 23 -29 74 -12 102 4 102 56 0 55 -51 81 -103 54 -22 -12 -22 -12 -3 9 23
26 29 74 13 95 -13 18 -63 30 -85 21z"/>
<path fill="#000000" stroke="none" d="M999 1320 c-82 -23 -128 -77 -133 -157
-3 -52 2 -76 14 -68 5 3 6 -3 4 -13 -6 -21 33 -65 49 -56 7 4 9 4 5 -1 -4 -4
-3 -14 4 -22 18 -22 4 -24 -38 -3 -52 26 -93 30 -139 14 -70 -24 -117 -86
-118 -159 -1 -46 32 -121 51 -117 6 1 11 -3 10 -9 -2 -6 12 -20 31 -31 39 -22
135 -23 156 -1 8 7 18 13 23 13 16 0 44 38 36 51 -4 8 -3 10 4 5 14 -8 32 31
33 72 0 24 2 23 15 -13 13 -36 13 -111 0 -170 -3 -11 -8 -35 -12 -52 l-6 -33
46 0 c35 0 46 4 46 16 0 9 -5 12 -12 8 -10 -6 -10 -4 -2 7 7 8 8 22 3 34 -4
11 -8 34 -8 51 -1 16 -7 36 -13 43 -10 11 -10 13 0 7 14 -9 14 -9 3 32 -6 20
-6 30 0 27 5 -4 9 5 9 19 0 42 16 37 28 -9 6 -24 22 -54 34 -67 29 -30 84 -65
72 -47 -6 11 -5 12 7 2 8 -6 23 -12 34 -14 30 -4 95 11 95 22 0 6 4 8 8 5 14
-8 65 51 57 65 -5 7 -4 10 2 6 12 -8 25 31 28 78 3 64 -81 171 -117 149 -7 -4
-8 -3 -4 4 8 13 -4 15 -62 14 -44 0 -94 -21 -85 -36 3 -6 3 -8 -2 -4 -4 4 -13
4 -20 -2 -8 -6 -11 -2 -11 14 0 17 4 22 15 18 10 -4 12 -1 6 8 -5 8 -4 11 2 7
14 -9 52 55 59 99 6 42 -4 96 -17 89 -5 -4 -7 0 -4 7 7 17 -32 61 -72 82 -39
20 -79 25 -114 16z"/>
<path fill="#000000" stroke="none" d="M2121 1318 c-18 -5 -44 -16 -57 -25
-31 -20 -67 -80 -60 -99 4 -9 2 -12 -5 -8 -8 4 -10 -7 -6 -37 6 -56 24 -102
37 -94 5 3 7 0 4 -8 -6 -16 34 -50 48 -41 4 3 5 -2 2 -10 -8 -20 -5 -20 -55 6
-106 55 -244 -15 -250 -128 -3 -55 1 -85 11 -79 5 3 7 0 4 -8 -3 -8 9 -31 26
-50 53 -61 140 -76 212 -36 13 7 27 12 31 11 5 -1 6 2 2 8 -3 5 1 13 9 16 9 3
14 10 11 14 -3 4 2 11 11 14 11 4 15 14 12 31 -3 15 -1 22 5 18 6 -4 8 2 5 15
-9 34 6 26 24 -13 8 -19 12 -33 9 -30 -4 2 -6 -15 -6 -38 1 -23 -5 -67 -12
-97 -19 -80 -19 -80 31 -80 l44 0 -5 42 c-2 23 -7 46 -10 51 -3 6 -7 36 -9 68
-1 32 -6 64 -10 70 -5 8 -3 9 6 4 10 -6 12 -3 8 13 -4 12 -2 20 2 17 5 -3 11
3 13 12 3 13 5 10 6 -7 4 -65 71 -154 102 -134 8 4 9 3 5 -4 -4 -7 -4 -12 1
-13 4 0 17 -3 28 -5 28 -7 78 -5 85 4 3 4 13 8 23 10 20 3 86 62 71 62 -5 0
-4 4 2 8 20 13 33 68 21 82 -9 10 -9 11 2 5 15 -9 10 15 -15 76 -35 82 -159
118 -241 69 -36 -21 -54 -10 -27 18 10 9 19 16 21 15 2 -2 2 -2 1 0 -2 1 7 12
20 25 12 12 22 30 23 40 1 9 2 34 4 55 2 20 0 35 -5 32 -4 -3 -6 5 -2 17 4 16
2 19 -8 13 -9 -5 -11 -4 -6 3 11 18 -23 61 -66 83 -46 24 -82 28 -127 17z"/>
<path fill="#000000" stroke="none" d="M2812 1113 c-6 -3 -9 -10 -5 -16 11
-18 11 -77 0 -84 -6 -3 -7 -1 -3 5 4 7 2 12 -5 12 -7 0 -9 3 -6 7 11 10 -26
32 -55 33 -25 0 -57 -21 -59 -41 -1 -5 -2 -15 -3 -21 -1 -7 4 -25 11 -40 10
-21 19 -26 45 -25 18 1 36 6 39 10 3 5 9 2 12 -7 4 -9 1 -15 -5 -13 -12 2 -27
-41 -20 -60 2 -7 8 -10 13 -7 5 3 6 -1 4 -9 -3 -7 5 -19 19 -27 21 -11 28 -11
43 1 15 12 16 12 8 -1 -4 -8 4 -4 18 9 30 27 34 56 12 87 -14 20 -13 21 25 18
22 -1 40 2 40 7 0 6 4 8 9 5 12 -8 32 41 24 61 -11 32 -36 53 -62 53 -31 0
-74 -27 -66 -41 4 -5 1 -9 -6 -9 -8 0 -10 13 -6 45 7 45 2 56 -21 48z"/>
<path fill="#000000" stroke="none" d="M2700 690 l0 -60 -31 0 c-26 0 -30 -3
-27 -22 2 -18 9 -23 33 -22 l30 0 -3 -146 c-3 -141 -2 -146 18 -147 11 -1 20
2 20 6 0 5 12 20 26 34 14 14 23 31 19 37 -4 6 -1 9 7 8 7 -2 12 3 11 10 -2 6
2 12 7 12 6 0 18 16 27 35 9 19 20 35 25 35 4 0 15 15 24 33 9 17 22 35 28 39
6 4 7 8 1 8 -5 0 1 7 13 16 12 8 22 26 22 39 0 24 -2 24 -97 27 -90 3 -98 5
-98 23 0 11 -4 26 -9 34 -6 9 -5 12 1 8 7 -4 10 5 9 23 -1 26 -5 30 -28 30
-27 0 -28 -1 -28 -60z"/>
<path fill="#ffffff" stroke="none" d="M2841 596 c-10 -12 -8 -14 13 -12 14 1
33 9 43 17 17 13 17 13 3 -5 -14 -18 -13 -19 2 -13 9 3 -18 -43 -60 -102 -42
-60 -78 -107 -80 -106 -2 2 -4 9 -6 17 -1 7 -6 19 -10 27 -6 10 -5 12 2 7 16
-10 15 7 0 23 -11 11 -10 13 0 7 14 -8 12 19 -2 43 -6 10 -5 12 2 7 14 -8 12
20 -2 43 -7 10 -5 12 4 6 9 -5 10 -2 6 12 -6 18 -2 20 29 18 20 -1 40 5 46 12
7 7 14 13 16 13 3 0 0 -6 -6 -14z"/>
</g>
</svg>
