<?xml version="1.0" standalone="no"?>
<!DOCTYPE svg PUBLIC "-//W3C//DTD SVG 20010904//EN"
 "http://www.w3.org/TR/2001/REC-SVG-20010904/DTD/svg10.dtd">
<svg version="1.0" xmlns="http://www.w3.org/2000/svg"
 width="318.000000pt" height="451.000000pt" viewBox="0 0 318.000000 451.000000"
 preserveAspectRatio="xMidYMid meet">
<metadata>
Created by potrace 1.16, written by Peter Selinger 2001-2019
</metadata>
<g transform="translate(0.000000,451.000000) scale(0.100000,-0.100000)"
fill="#000000" stroke="none">
<path fill="#000000" stroke="none" d="M298 4313 c-10 -3 -18 -9 -18 -14 0 -5
-6 -8 -12 -6 -7 1 -12 -3 -11 -10 2 -7 -3 -10 -11 -7 -15 6 -70 -58 -87 -102
-6 -16 -10 -54 -10 -84 2 -78 3 -90 13 -90 4 0 7 -3 7 -7 -5 -29 30 -77 81
-113 l29 -21 -4 22 c-2 12 -1 19 2 15 4 -4 8 -14 9 -23 3 -15 22 -33 34 -30 3
1 17 -11 33 -26 29 -30 126 -79 139 -71 4 3 8 0 8 -7 0 -7 3 -10 6 -6 3 3 17
2 30 -3 13 -5 24 -6 24 -1 0 5 -10 11 -23 15 -13 3 -34 14 -46 26 -13 11 -28
17 -34 13 -5 -3 -7 -1 -4 4 4 6 -2 22 -13 36 -13 16 -16 28 -10 32 6 4 7 12 3
18 -4 7 2 5 12 -3 17 -14 18 -13 11 5 -5 15 -4 17 5 8 26 -26 130 94 115 133
-3 8 -2 14 3 14 9 0 7 100 -2 135 -2 11 -10 19 -15 18 -6 -2 -9 4 -6 12 8 19
-14 47 -29 38 -5 -3 -7 -1 -4 5 9 14 -52 64 -70 58 -8 -3 -12 -2 -9 3 3 5 0
11 -7 14 -15 5 -115 5 -139 0z"/>
<path fill="#ffffff" stroke="none" d="M396 4297 c4 -4 13 -2 21 5 11 8 12 7
7 -6 -3 -9 -1 -16 4 -16 6 0 24 -12 39 -27 15 -14 21 -23 13 -18 -10 5 -8 1 4
-13 11 -12 16 -22 12 -22 -4 0 -4 -6 1 -12 10 -17 13 -34 16 -88 1 -25 6 -51
11 -59 6 -10 5 -12 -2 -7 -8 5 -12 -1 -12 -16 0 -13 -9 -42 -19 -64 -15 -32
-16 -45 -8 -55 10 -10 9 -11 -3 -2 -11 8 -22 6 -42 -7 -16 -9 -25 -19 -22 -22
3 -3 0 -9 -7 -14 -8 -4 -10 -3 -5 4 5 9 -6 12 -38 12 -33 0 -52 6 -75 26 -27
23 -34 24 -49 13 -13 -11 -13 -9 2 9 20 23 10 31 -14 10 -12 -11 -12 -10 -2 3
6 9 8 20 4 24 -4 5 -1 5 7 0 10 -6 12 -4 5 6 -8 13 -10 19 -17 54 -2 8 -8 20
-15 27 -8 8 -8 15 -1 24 6 7 12 37 14 66 3 50 38 137 60 148 6 3 9 8 8 11 -1
4 6 5 16 2 10 -3 21 -1 25 5 6 10 51 10 62 -1z"/>
<path fill="#ffffff" stroke="none" d="M490 4274 c0 -8 -19 -13 -24 -6 -3 5 1
9 9 9 8 0 15 -2 15 -3z"/>
<path fill="#ffffff" stroke="none" d="M237 4263 c-4 -3 -1 -13 6 -22 11 -14
10 -14 -5 -2 -16 12 -16 31 -1 31 4 0 3 -3 0 -7z"/>
<path fill="#ffffff" stroke="none" d="M231 4223 c13 -16 12 -17 -3 -4 -10 7
-18 15 -18 17 0 8 8 3 21 -13z"/>
<path fill="#ffffff" stroke="none" d="M514 4224 c3 -8 2 -12 -4 -9 -6 3 -10
10 -10 16 0 14 7 11 14 -7z"/>
<path fill="#ffffff" stroke="none" d="M536 4175 c1 -8 -1 -17 -5 -19 -4 -3
-7 6 -7 19 0 25 8 25 12 0z"/>
<path fill="#ffffff" stroke="none" d="M184 4181 c3 -5 -2 -15 -12 -22 -15
-12 -16 -12 -5 2 7 9 10 19 6 22 -3 4 -4 7 0 7 3 0 8 -4 11 -9z"/>
<path fill="#ffffff" stroke="none" d="M570 4144 c0 -8 -19 -13 -24 -6 -3 5 1
9 9 9 8 0 15 -2 15 -3z"/>
<path fill="#ffffff" stroke="none" d="M199 4133 c14 11 14 10 2 -6 -10 -13
-17 -15 -27 -6 -8 6 -14 14 -14 17 0 3 5 1 12 -6 9 -9 15 -9 27 1z"/>
<path fill="#ffffff" stroke="none" d="M541 4123 c13 -16 12 -17 -3 -4 -10 7
-18 15 -18 17 0 8 8 3 21 -13z"/>
<path fill="#ffffff" stroke="none" d="M576 4115 c-1 -8 -5 -17 -8 -21 -5 -4
-4 16 1 34 3 9 9 -1 7 -13z"/>
<path fill="#ffffff" stroke="none" d="M214 4101 c3 -5 -2 -15 -12 -22 -15
-12 -16 -12 -5 2 7 9 10 19 6 22 -3 4 -4 7 0 7 3 0 8 -4 11 -9z"/>
<path fill="#ffffff" stroke="none" d="M547 4085 c0 -8 -4 -12 -9 -9 -5 3 -6
10 -3 15 9 13 12 11 12 -6z"/>
<path fill="#ffffff" stroke="none" d="M193 4037 c4 3 7 4 7 1 0 -3 -8 -12
-17 -19 -10 -7 -15 -9 -11 -5 4 5 2 16 -5 25 -10 14 -10 14 4 4 9 -7 19 -10
22 -6z"/>
<path fill="#ffffff" stroke="none" d="M546 4011 c-9 -10 -14 -21 -11 -24 3
-4 2 -5 -2 -2 -12 9 -12 34 0 32 7 -1 11 4 9 11 -1 8 2 11 8 7 8 -5 6 -13 -4
-24z"/>
<path fill="#ffffff" stroke="none" d="M202 4008 c-9 -9 -8 -16 6 -32 17 -21
17 -21 -5 -2 -18 15 -20 22 -12 33 6 7 14 13 17 13 3 0 1 -5 -6 -12z"/>
<path fill="#ffffff" stroke="none" d="M531 3927 c-10 -9 -11 -8 -5 6 3 10 9
15 12 12 3 -3 0 -11 -7 -18z"/>
<path fill="#ffffff" stroke="none" d="M505 3931 c3 -5 2 -12 -3 -15 -5 -3 -9
1 -9 9 0 17 3 19 12 6z"/>
<path fill="#ffffff" stroke="none" d="M321 3853 c13 -16 12 -17 -3 -4 -10 7
-18 15 -18 17 0 8 8 3 21 -13z"/>
<path fill="#ffffff" stroke="none" d="M387 3843 c0 -9 -4 -10 -14 -2 -7 6
-13 12 -13 14 0 1 6 2 13 2 8 0 14 -6 14 -14z"/>
<path fill="#ffffff" stroke="none" d="M371 3823 c13 -16 12 -17 -3 -4 -10 7
-18 15 -18 17 0 8 8 3 21 -13z"/>
<path fill="#ffffff" stroke="none" d="M405 3811 c3 -5 2 -12 -3 -15 -5 -3 -9
1 -9 9 0 17 3 19 12 6z"/>
<path fill="#000000" stroke="none" d="M570 3730 c0 -5 5 -10 11 -10 5 0 7 5
4 10 -3 6 -8 10 -11 10 -2 0 -4 -4 -4 -10z"/>
<path fill="#000000" stroke="none" d="M258 3683 c-39 -44 -31 -88 27 -157 22
-26 48 -62 58 -79 10 -18 16 -24 13 -14 -3 9 -1 17 4 17 6 0 10 7 10 16 0 8 5
12 10 9 6 -4 10 -3 9 2 -4 21 2 34 13 27 6 -4 9 -3 6 2 -8 12 18 35 28 26 5
-4 0 3 -10 16 -11 12 -16 22 -11 22 4 0 2 6 -4 14 -8 10 -9 16 -1 21 6 4 10 3
9 -2 -1 -4 0 -11 1 -15 1 -5 3 -13 4 -20 0 -6 7 -13 15 -16 10 -3 12 0 8 11
-3 9 -1 19 5 23 7 5 8 2 3 -6 -5 -9 -4 -11 3 -6 7 4 12 21 12 37 0 22 -4 28
-12 23 -8 -5 -7 -1 2 10 13 16 12 20 -9 37 -13 11 -31 19 -41 19 -20 0 -50
-25 -50 -42 0 -6 -11 1 -25 16 -28 30 -55 33 -77 9z"/>
<path fill="#ffffff" stroke="none" d="M296 3674 c-1 -8 -4 -15 -7 -16 -2 -2
-3 -1 -2 1 2 2 -2 9 -7 16 -7 8 -5 12 4 12 8 0 13 -6 12 -13z"/>
<path fill="#ffffff" stroke="none" d="M397 3683 c-4 -3 -1 -13 6 -22 11 -14
10 -14 -5 -2 -16 12 -16 31 -1 31 4 0 3 -3 0 -7z"/>
<path fill="#ffffff" stroke="none" d="M324 3671 c3 -5 -2 -15 -12 -22 -15
-12 -16 -12 -5 2 7 9 10 19 6 22 -3 4 -4 7 0 7 3 0 8 -4 11 -9z"/>
<path fill="#ffffff" stroke="none" d="M455 3671 c3 -5 2 -12 -3 -15 -5 -3 -9
1 -9 9 0 17 3 19 12 6z"/>
<path fill="#ffffff" stroke="none" d="M265 3653 c-2 -10 -4 -20 -5 -23 -1 -3
-2 -9 -1 -13 1 -5 -3 -6 -9 -2 -6 3 -7 12 -3 18 4 7 8 15 9 20 3 14 4 17 8 17
2 0 3 -8 1 -17z"/>
<path fill="#ffffff" stroke="none" d="M377 3649 c-1 -3 4 -13 11 -22 9 -10
10 -17 2 -22 -6 -4 -10 -3 -9 2 1 4 0 10 -1 13 -4 11 -8 42 -5 38 2 -1 3 -6 2
-9z"/>
<path fill="#ffffff" stroke="none" d="M434 3644 c3 -8 2 -12 -4 -9 -6 3 -10
10 -10 16 0 14 7 11 14 -7z"/>
<path fill="#ffffff" stroke="none" d="M340 3646 c0 -2 -8 -10 -17 -17 -16
-13 -17 -12 -4 4 13 16 21 21 21 13z"/>
<path fill="#ffffff" stroke="none" d="M360 3637 c0 -2 -13 -15 -28 -30 -20
-19 -29 -23 -29 -13 0 8 3 13 7 11 4 -3 15 4 25 15 17 19 25 24 25 17z"/>
<path fill="#ffffff" stroke="none" d="M286 3586 c-2 -38 -12 -39 -12 -1 0 18
3 32 7 30 3 -3 5 -15 5 -29z"/>
<path fill="#ffffff" stroke="none" d="M366 3605 c-1 -8 -5 -17 -8 -21 -5 -4
-4 16 1 34 3 9 9 -1 7 -13z"/>
<path fill="#ffffff" stroke="none" d="M460 3615 c0 -2 -6 -8 -13 -14 -10 -8
-14 -7 -14 2 0 8 6 14 14 14 7 0 13 -1 13 -2z"/>
<path fill="#ffffff" stroke="none" d="M390 3586 c0 -2 -8 -10 -17 -17 -16
-13 -17 -12 -4 4 13 16 21 21 21 13z"/>
<path fill="#ffffff" stroke="none" d="M347 3555 c0 -8 -4 -12 -9 -9 -5 3 -6
10 -3 15 9 13 12 11 12 -6z"/>
<path fill="#ffffff" stroke="none" d="M397 3563 c-4 -3 -1 -13 6 -22 11 -14
10 -14 -5 -2 -16 12 -16 31 -1 31 4 0 3 -3 0 -7z"/>
<path fill="#ffffff" stroke="none" d="M381 3533 c13 -16 12 -17 -3 -4 -10 7
-18 15 -18 17 0 8 8 3 21 -13z"/>
<path fill="#ffffff" stroke="none" d="M369 3516 c9 -11 9 -16 -1 -22 -7 -4
-10 -4 -6 1 4 4 3 14 -3 22 -6 7 -9 13 -6 13 2 0 10 -6 16 -14z"/>
<path fill="#ffffff" stroke="none" d="M341 3503 c2 1 3 0 2 -2 -2 -2 2 -10 8
-17 7 -9 6 -14 -3 -20 -7 -4 -10 -3 -5 1 4 5 -3 20 -15 34 -13 14 -16 20 -7
13 9 -6 18 -11 20 -9z"/>
<path fill="#000000" stroke="none" d="M1566 2844 c-16 -8 -24 -9 -20 -2 4 6
-8 2 -25 -8 -53 -31 -94 -119 -69 -151 6 -8 4 -10 -10 -6 -44 11 -116 -60
-109 -107 5 -31 30 -80 38 -74 5 3 9 1 9 -4 0 -5 11 -14 25 -20 32 -15 38 -15
30 -2 -4 6 -1 9 7 8 7 -2 12 3 10 10 -1 8 2 11 8 7 8 -5 6 -13 -5 -25 -10 -11
-14 -24 -9 -31 4 -8 3 -10 -4 -5 -18 11 -15 -26 4 -52 9 -13 21 -21 28 -19 9
4 10 -8 5 -47 -3 -28 -5 -53 -3 -55 2 -2 -6 -17 -17 -32 -11 -16 -17 -34 -13
-40 4 -7 3 -9 -3 -6 -11 7 -30 -11 -28 -28 0 -5 4 -17 10 -25 8 -13 7 -13 -8
-1 -9 7 -14 17 -11 22 3 5 0 9 -5 9 -6 0 -11 -4 -11 -9 0 -17 -151 -82 -324
-140 -97 -32 -173 -60 -171 -63 2 -2 -7 -4 -22 -4 -14 1 -28 -5 -31 -13 -3 -8
0 -11 5 -8 5 3 9 -4 8 -16 -1 -12 1 -26 5 -32 4 -5 15 -35 24 -65 13 -42 22
-56 38 -57 13 -1 18 3 14 12 -3 8 -1 17 5 20 5 4 9 3 8 -2 -4 -24 3 -30 34
-26 34 4 132 11 180 12 20 1 26 5 21 14 -5 8 -2 8 9 -2 19 -15 24 -2 6 16 -8
8 -8 13 0 18 6 3 11 3 10 -2 -6 -23 14 -39 44 -37 18 1 40 3 50 3 12 1 16 5
11 14 -6 9 -5 9 7 0 12 -10 18 -10 29 0 9 8 11 8 6 0 -4 -8 11 -11 54 -10 48
2 59 5 55 16 -4 10 1 9 15 -4 11 -10 20 -13 20 -8 0 6 -6 16 -14 22 -14 12
-16 35 -3 47 3 4 5 -2 2 -14 -2 -12 6 -29 21 -43 28 -26 32 -16 7 15 -13 15
-10 14 10 -4 25 -22 36 -24 120 -25 51 0 95 5 99 10 5 6 8 4 8 -5 0 -9 6 -5
17 10 10 14 17 29 15 33 -1 5 2 5 8 2 8 -5 6 -13 -4 -24 -9 -10 -16 -19 -16
-22 0 -2 28 -5 63 -6 34 -2 99 -5 145 -7 61 -3 81 -1 76 7 -3 7 2 3 10 -7 9
-11 16 -14 16 -7 0 7 5 9 12 5 21 -13 59 -14 51 -1 -4 7 0 6 10 -2 9 -7 24
-11 32 -7 8 3 15 0 15 -7 0 -8 3 -8 9 2 7 11 8 46 1 46 -7 0 -5 57 2 61 5 3 3
13 -4 21 -15 18 -20 45 -7 37 5 -3 7 -9 4 -14 -3 -4 2 -13 10 -20 8 -7 12 -17
8 -24 -10 -16 -11 -56 -2 -62 4 -2 6 -15 3 -28 -3 -21 0 -23 29 -22 17 1 32 6
33 11 0 6 4 18 7 28 4 9 10 25 14 35 3 9 7 19 8 22 1 3 7 17 13 31 17 43 18
62 2 64 -8 2 -22 4 -30 6 -8 2 -14 -1 -15 -8 0 -6 -3 -14 -6 -18 -4 -3 -6 2
-5 12 0 10 -3 18 -9 18 -5 0 -9 -4 -7 -8 1 -5 -2 -6 -8 -2 -6 3 -8 10 -6 14 3
4 -59 29 -137 55 -177 58 -289 112 -347 167 -25 23 -38 39 -30 34 10 -5 8 -1
-4 13 -11 12 -16 22 -11 22 4 0 2 7 -5 15 -7 8 -9 15 -5 15 4 0 1 8 -6 17 -12
15 -12 16 1 8 13 -8 13 -7 0 10 -9 11 -10 16 -2 11 6 -4 12 -3 12 2 0 20 -15
21 -35 2 -16 -15 -22 -17 -22 -6 0 8 5 14 11 13 6 -1 10 3 9 10 -1 6 5 10 15
9 9 -2 23 4 30 13 11 13 12 13 7 1 -4 -8 1 -6 9 4 12 15 13 23 4 33 -8 11 -7
12 6 7 13 -5 15 -2 10 12 -4 11 -11 24 -16 31 -7 9 -4 11 12 8 17 -3 20 0 16
12 -5 12 -3 13 7 5 10 -8 20 -5 40 12 15 13 24 26 20 30 -3 3 0 6 7 6 7 0 11
3 7 6 -3 3 -2 16 3 28 14 39 -34 102 -85 112 -28 5 -30 9 -27 37 3 37 -32 102
-50 91 -7 -4 -8 -3 -4 4 16 25 -82 56 -118 36z"/>
<path fill="#ffffff" stroke="none" d="M1611 2827 c-7 -7 -7 -16 1 -26 10 -13
10 -14 -2 -4 -19 17 -21 40 -4 40 10 0 11 -4 5 -10z"/>
<path fill="#ffffff" stroke="none" d="M1571 2807 c-7 -7 -7 -16 1 -26 10 -13
10 -14 -2 -4 -19 17 -21 40 -4 40 10 0 11 -4 5 -10z"/>
<path fill="#ffffff" stroke="none" d="M1665 2803 c-1 -10 3 -25 9 -33 9 -13
9 -13 -6 -2 -13 10 -16 26 -9 50 4 11 9 -2 6 -15z"/>
<path fill="#ffffff" stroke="none" d="M1520 2805 c0 -2 -6 -8 -13 -14 -10 -8
-14 -7 -14 2 0 8 6 14 14 14 7 0 13 -1 13 -2z"/>
<path fill="#ffffff" stroke="none" d="M1531 2787 c-6 -8 -8 -16 -5 -19 3 -3
1 -9 -4 -12 -6 -3 -9 0 -8 6 2 16 15 38 23 38 3 0 0 -6 -6 -13z"/>
<path fill="#ffffff" stroke="none" d="M1491 2763 c13 -16 12 -17 -3 -4 -17
13 -22 21 -14 21 2 0 10 -8 17 -17z"/>
<path fill="#ffffff" stroke="none" d="M1565 2752 c-3 -3 0 -11 5 -17 7 -9 5
-17 -7 -26 -16 -12 -17 -12 -6 2 10 12 10 18 1 27 -7 7 -8 12 -4 12 5 0 2 8
-5 18 -13 15 -12 16 4 3 9 -8 15 -16 12 -19z"/>
<path fill="#ffffff" stroke="none" d="M1626 2754 c1 -9 0 -13 -4 -10 -3 4 -7
14 -8 22 -1 9 0 13 4 10 3 -4 7 -14 8 -22z"/>
<path fill="#ffffff" stroke="none" d="M1597 2763 c-4 -3 -2 -12 4 -19 7 -8 6
-14 -2 -20 -7 -4 -9 -3 -5 4 3 6 2 13 -4 17 -10 6 -5 25 7 25 4 0 3 -3 0 -7z"/>
<path fill="#ffffff" stroke="none" d="M1647 2759 c-1 -3 4 -13 12 -22 7 -10
10 -17 6 -17 -4 0 -1 -8 6 -17 13 -16 12 -17 -3 -5 -10 8 -17 17 -16 20 0 4
-1 9 -2 12 -4 11 -8 42 -5 38 2 -1 3 -6 2 -9z"/>
<path fill="#ffffff" stroke="none" d="M1710 2755 c-5 -7 -9 -14 -7 -16 1 -2
0 -3 -2 -1 -11 7 -7 29 5 29 9 0 11 -4 4 -12z"/>
<path fill="#ffffff" stroke="none" d="M1481 2743 c13 -16 12 -17 -3 -4 -17
13 -22 21 -14 21 2 0 10 -8 17 -17z"/>
<path fill="#ffffff" stroke="none" d="M1540 2747 c0 -2 -8 -11 -18 -20 -15
-14 -19 -15 -19 -2 0 8 4 12 8 9 4 -2 10 0 14 6 6 10 15 14 15 7z"/>
<path fill="#ffffff" stroke="none" d="M1550 2727 c0 -2 -10 -12 -22 -23 l-23
-19 19 23 c18 21 26 27 26 19z"/>
<path fill="#ffffff" stroke="none" d="M1636 2718 c4 -7 4 -10 -1 -6 -4 4 -15
2 -24 -5 -14 -11 -14 -10 -2 6 16 20 18 21 27 5z"/>
<path fill="#ffffff" stroke="none" d="M1726 2715 c-1 -8 -5 -17 -8 -21 -5 -4
-4 16 1 34 3 9 9 -1 7 -13z"/>
<path fill="#ffffff" stroke="none" d="M1490 2716 c0 -2 -8 -10 -17 -17 -16
-13 -17 -12 -4 4 13 16 21 21 21 13z"/>
<path fill="#ffffff" stroke="none" d="M1584 2699 c-5 -8 1 -10 19 -7 15 3 24
1 21 -3 -3 -5 -3 -9 0 -9 2 0 13 -3 23 -7 16 -6 17 -5 3 13 -14 18 -14 18 2 5
10 -7 15 -17 12 -23 -3 -5 0 -15 6 -23 7 -8 13 -30 14 -49 0 -18 6 -33 11 -32
6 0 9 5 7 9 -1 5 2 6 8 2 8 -5 7 -11 -1 -21 -8 -10 -15 -11 -24 -4 -12 10 -25
4 -25 -12 0 -5 4 -7 9 -4 5 4 8 -2 6 -11 -1 -10 2 -25 8 -33 9 -13 9 -13 -3
-2 -8 7 -15 18 -15 24 0 6 -6 13 -14 16 -10 3 -12 0 -8 -12 5 -12 3 -15 -6 -9
-6 4 -23 6 -35 4 -35 -4 -75 16 -89 45 -16 34 -9 92 14 110 10 9 12 12 4 8 -9
-4 -12 -3 -7 4 3 6 15 9 25 7 11 -2 22 3 25 11 3 8 8 14 11 14 4 0 3 -5 -1
-11z"/>
<path fill="#ffffff" stroke="none" d="M1492 2688 c-9 -9 -9 -15 1 -27 11 -14
10 -14 -6 -2 -13 10 -15 17 -6 27 6 8 14 14 17 14 3 0 1 -5 -6 -12z"/>
<path fill="#ffffff" stroke="none" d="M1691 2677 c-10 -9 -11 -8 -5 6 3 10 9
15 12 12 3 -3 0 -11 -7 -18z"/>
<path fill="#ffffff" stroke="none" d="M1720 2676 c0 -2 -8 -10 -17 -17 -16
-13 -17 -12 -4 4 13 16 21 21 21 13z"/>
<path fill="#ffffff" stroke="none" d="M1446 2649 c1 -5 3 -11 4 -14 1 -3 3
-13 4 -22 1 -10 5 -25 11 -33 7 -13 6 -13 -7 -2 -9 7 -15 21 -13 30 1 9 0 22
-4 27 -8 15 -11 38 -3 30 4 -4 8 -11 8 -16z"/>
<path fill="#ffffff" stroke="none" d="M1740 2666 c0 -2 -8 -10 -17 -17 -16
-13 -17 -12 -4 4 13 16 21 21 21 13z"/>
<path fill="#ffffff" stroke="none" d="M1486 2624 c1 -9 -1 -13 -4 -9 -4 4 -7
10 -7 13 0 4 -4 14 -9 22 -7 12 -6 13 4 3 8 -7 15 -20 16 -29z"/>
<path fill="#ffffff" stroke="none" d="M1384 2641 c3 -4 -4 -17 -17 -27 -22
-19 -22 -19 -4 2 9 11 14 24 10 27 -3 4 -4 7 0 7 3 0 8 -4 11 -9z"/>
<path fill="#ffffff" stroke="none" d="M1417 2643 c-4 -3 -1 -13 6 -22 11 -14
10 -14 -5 -2 -16 12 -16 31 -1 31 4 0 3 -3 0 -7z"/>
<path fill="#ffffff" stroke="none" d="M1750 2646 c0 -2 -8 -10 -17 -17 -16
-13 -17 -12 -4 4 13 16 21 21 21 13z"/>
<path fill="#ffffff" stroke="none" d="M1705 2631 c3 -5 2 -12 -3 -15 -5 -3
-9 1 -9 9 0 17 3 19 12 6z"/>
<path fill="#ffffff" stroke="none" d="M1789 2633 c-1 -5 0 -10 1 -13 7 -19 7
-39 -1 -34 -5 3 -7 9 -4 14 3 5 1 11 -5 15 -6 4 -8 11 -5 16 7 11 15 12 14 2z"/>
<path fill="#ffffff" stroke="none" d="M1819 2626 c9 -11 9 -16 -1 -22 -7 -4
-10 -4 -6 1 4 4 3 14 -3 22 -6 7 -9 13 -6 13 2 0 10 -6 16 -14z"/>
<path fill="#ffffff" stroke="none" d="M1760 2626 c0 -2 -8 -10 -17 -17 -16
-13 -17 -12 -4 4 13 16 21 21 21 13z"/>
<path fill="#ffffff" stroke="none" d="M1397 2609 c-1 -3 4 -13 11 -22 9 -10
10 -17 2 -22 -6 -4 -10 -3 -9 2 1 4 0 10 -1 13 -4 11 -8 42 -5 38 2 -1 3 -6 2
-9z"/>
<path fill="#ffffff" stroke="none" d="M1761 2597 c-6 -8 -7 -18 -3 -22 4 -5
1 -5 -6 -1 -10 6 -10 11 -1 22 6 8 14 14 16 14 3 0 0 -6 -6 -13z"/>
<path fill="#ffffff" stroke="none" d="M1375 2591 c-3 -5 -1 -12 5 -16 6 -4 7
-12 3 -18 -4 -7 -8 -15 -8 -19 0 -3 -3 -9 -7 -13 -8 -9 -5 16 5 32 4 6 3 14
-3 18 -10 6 -5 25 6 25 3 0 3 -4 -1 -9z"/>
<path fill="#ffffff" stroke="none" d="M1500 2594 c0 -8 -19 -13 -24 -6 -3 5
1 9 9 9 8 0 15 -2 15 -3z"/>
<path fill="#ffffff" stroke="none" d="M1831 2573 c13 -16 12 -17 -3 -4 -17
13 -22 21 -14 21 2 0 10 -8 17 -17z"/>
<path fill="#ffffff" stroke="none" d="M1449 2566 c9 -11 9 -16 -1 -22 -7 -4
-10 -4 -6 1 4 4 3 14 -3 22 -6 7 -9 13 -6 13 2 0 10 -6 16 -14z"/>
<path fill="#ffffff" stroke="none" d="M1487 2555 c0 -8 -4 -12 -9 -9 -5 3 -6
10 -3 15 9 13 12 11 12 -6z"/>
<path fill="#ffffff" stroke="none" d="M1821 2553 c13 -16 12 -17 -3 -4 -10 7
-18 15 -18 17 0 8 8 3 21 -13z"/>
<path fill="#ffffff" stroke="none" d="M1425 2543 c-1 -10 2 -23 6 -29 6 -7 4
-16 -4 -23 -11 -8 -18 -6 -31 8 -13 14 -14 21 -5 27 7 4 10 3 6 -3 -4 -6 0
-16 7 -22 9 -8 16 -8 20 -2 4 5 2 12 -3 15 -7 5 -8 23 -2 44 4 11 9 -2 6 -15z"/>
<path fill="#ffffff" stroke="none" d="M1774 2551 c3 -5 -1 -14 -8 -20 -10 -9
-16 -9 -21 -1 -4 6 -1 9 7 8 7 -2 12 3 11 10 -3 14 3 16 11 3z"/>
<path fill="#ffffff" stroke="none" d="M1727 2543 c-4 -3 -1 -13 5 -21 15 -17
20 -44 7 -36 -5 3 -7 9 -4 14 3 4 -2 13 -10 20 -14 11 -12 30 2 30 4 0 3 -3 0
-7z"/>
<path fill="#ffffff" stroke="none" d="M1809 2537 c8 -11 6 -18 -12 -33 -22
-19 -22 -19 -5 2 14 16 15 23 6 32 -7 7 -9 12 -6 12 3 0 11 -6 17 -13z"/>
<path fill="#ffffff" stroke="none" d="M1506 2525 c-1 -8 -5 -17 -8 -21 -5 -4
-4 16 1 34 3 9 9 -1 7 -13z"/>
<path fill="#ffffff" stroke="none" d="M1705 2521 c3 -5 2 -12 -3 -15 -5 -3
-9 1 -9 9 0 17 3 19 12 6z"/>
<path fill="#ffffff" stroke="none" d="M1790 2526 c0 -2 -8 -10 -17 -17 -16
-13 -17 -12 -4 4 13 16 21 21 21 13z"/>
<path fill="#ffffff" stroke="none" d="M1539 2507 c8 -11 6 -18 -12 -33 -22
-19 -22 -19 -5 2 14 16 15 23 6 32 -7 7 -9 12 -6 12 3 0 11 -6 17 -13z"/>
<path fill="#ffffff" stroke="none" d="M1520 2496 c0 -2 -6 -9 -14 -15 -11 -9
-16 -9 -22 0 -4 7 -3 9 4 5 6 -3 13 -2 17 4 6 10 15 14 15 6z"/>
<path fill="#ffffff" stroke="none" d="M1606 2483 c-1 -7 -8 -19 -16 -26 -12
-10 -12 -9 -2 4 8 10 8 19 1 26 -6 6 -5 10 5 10 7 0 13 -6 12 -14z"/>
<path fill="#ffffff" stroke="none" d="M1636 2474 c1 -9 0 -13 -4 -10 -3 4 -7
14 -8 22 -1 9 0 13 4 10 3 -4 7 -14 8 -22z"/>
<path fill="#ffffff" stroke="none" d="M1715 2483 c-1 -10 5 -27 14 -38 16
-20 16 -20 -6 -2 -17 15 -21 30 -14 55 4 11 9 -2 6 -15z"/>
<path fill="#ffffff" stroke="none" d="M1657 2479 c-1 -3 4 -13 10 -21 11 -12
8 -19 -14 -39 -15 -13 -22 -17 -15 -8 9 12 9 19 -1 29 -10 12 -9 12 4 2 18
-13 32 -5 22 12 -8 11 -14 40 -8 34 2 -1 3 -6 2 -9z"/>
<path fill="#ffffff" stroke="none" d="M1569 2463 c-16 -18 16 -29 36 -13 13
11 14 10 9 -4 -3 -9 -1 -16 5 -16 8 0 9 -6 2 -19 -6 -10 -8 -21 -5 -23 2 -3
-2 -11 -10 -17 -11 -9 -16 -9 -22 0 -4 7 -3 9 4 5 6 -3 13 -2 17 4 3 5 -3 10
-14 10 -12 0 -21 5 -21 11 0 5 -5 7 -11 3 -8 -5 -8 -1 0 13 6 11 7 23 4 27
-13 12 -11 33 3 33 10 0 11 -4 3 -14z"/>
<path fill="#ffffff" stroke="none" d="M1476 2445 c-2 -30 -20 -52 -31 -36 -3
7 -1 10 6 9 7 -2 14 7 15 20 2 27 3 32 7 32 2 0 3 -11 3 -25z"/>
<path fill="#ffffff" stroke="none" d="M1505 2451 c3 -5 2 -12 -3 -15 -5 -3
-9 1 -9 9 0 17 3 19 12 6z"/>
<path fill="#ffffff" stroke="none" d="M1537 2453 c-4 -3 -1 -13 6 -22 11 -14
10 -14 -5 -2 -16 12 -16 31 -1 31 4 0 3 -3 0 -7z"/>
<path fill="#ffffff" stroke="none" d="M1711 2433 c13 -16 12 -17 -3 -4 -10 7
-18 15 -18 17 0 8 8 3 21 -13z"/>
<path fill="#ffffff" stroke="none" d="M1531 2413 c13 -16 12 -17 -3 -4 -10 7
-18 15 -18 17 0 8 8 3 21 -13z"/>
<path fill="#ffffff" stroke="none" d="M1687 2419 c-1 -3 4 -13 11 -22 9 -10
10 -17 2 -22 -6 -4 -10 -3 -9 2 1 4 0 10 -1 13 -4 11 -8 42 -5 38 2 -1 3 -6 2
-9z"/>
<path fill="#ffffff" stroke="none" d="M1504 2411 c3 -5 -1 -14 -8 -20 -10 -9
-16 -9 -21 -1 -4 6 -1 9 7 8 7 -2 12 3 11 10 -3 14 3 16 11 3z"/>
<path fill="#ffffff" stroke="none" d="M1667 2403 c-4 -3 -1 -13 6 -22 11 -14
10 -14 -5 -2 -16 12 -16 31 -1 31 4 0 3 -3 0 -7z"/>
<path fill="#ffffff" stroke="none" d="M1516 2375 c-1 -8 -5 -17 -8 -21 -5 -4
-4 16 1 34 3 9 9 -1 7 -13z"/>
<path fill="#ffffff" stroke="none" d="M1548 2368 c10 -12 10 -18 1 -24 -7 -4
-9 -3 -5 4 3 6 2 13 -4 17 -5 3 -10 11 -10 17 0 6 1 9 3 7 1 -2 8 -11 15 -21z"/>
<path fill="#ffffff" stroke="none" d="M1649 2376 c9 -10 7 -17 -6 -27 -16
-12 -17 -12 -6 2 10 12 10 18 1 27 -7 7 -9 12 -6 12 3 0 11 -6 17 -14z"/>
<path fill="#ffffff" stroke="none" d="M1621 2357 c-6 -8 -7 -18 -3 -22 4 -5
1 -5 -6 -1 -10 6 -10 11 -1 22 6 8 14 14 16 14 3 0 0 -6 -6 -13z"/>
<path fill="#ffffff" stroke="none" d="M1526 2325 c-1 -13 -4 -27 -7 -30 -5
-4 -4 41 0 53 4 10 8 -2 7 -23z"/>
<path fill="#ffffff" stroke="none" d="M1555 2321 c3 -5 2 -12 -3 -15 -5 -3
-9 1 -9 9 0 17 3 19 12 6z"/>
<path fill="#ffffff" stroke="none" d="M1606 2312 c-3 -3 0 -12 6 -21 10 -13
10 -14 -2 -4 -16 15 -23 46 -8 37 5 -3 7 -9 4 -12z"/>
<path fill="#ffffff" stroke="none" d="M1639 2323 c-1 -5 0 -10 1 -13 8 -21 6
-41 -5 -50 -9 -8 -15 -8 -20 0 -4 6 -1 9 5 8 15 -4 22 29 9 38 -5 3 -7 10 -4
15 7 11 15 12 14 2z"/>
<path fill="#ffffff" stroke="none" d="M1572 2298 c-9 -9 -9 -15 1 -27 11 -14
10 -14 -6 -2 -13 10 -15 17 -6 27 6 8 14 14 17 14 3 0 1 -5 -6 -12z"/>
<path fill="#ffffff" stroke="none" d="M1677 2303 c-4 -3 -1 -13 6 -22 11 -14
10 -14 -5 -2 -16 12 -16 31 -1 31 4 0 3 -3 0 -7z"/>
<path fill="#ffffff" stroke="none" d="M1501 2257 c-10 -9 -11 -8 -5 6 3 10 9
15 12 12 3 -3 0 -11 -7 -18z"/>
<path fill="#ffffff" stroke="none" d="M1554 2261 c3 -4 -4 -17 -17 -27 -22
-19 -22 -19 -4 2 9 11 14 24 10 27 -3 4 -4 7 0 7 3 0 8 -4 11 -9z"/>
<path fill="#ffffff" stroke="none" d="M1670 2266 c0 -2 -8 -10 -17 -17 -16
-13 -17 -12 -4 4 13 16 21 21 21 13z"/>
<path fill="#ffffff" stroke="none" d="M1530 2256 c0 -2 -8 -10 -17 -17 -16
-13 -17 -12 -4 4 13 16 21 21 21 13z"/>
<path fill="#ffffff" stroke="none" d="M1605 2251 c3 -5 2 -12 -3 -15 -5 -3
-9 1 -9 9 0 17 3 19 12 6z"/>
<path fill="#ffffff" stroke="none" d="M1690 2256 c0 -2 -8 -10 -17 -17 -16
-13 -17 -12 -4 4 13 16 21 21 21 13z"/>
<path fill="#ffffff" stroke="none" d="M1576 2235 c-1 -8 -5 -17 -8 -21 -5 -4
-4 16 1 34 3 9 9 -1 7 -13z"/>
<path fill="#ffffff" stroke="none" d="M1486 2225 c-1 -8 -5 -17 -8 -21 -5 -4
-4 16 1 34 3 9 9 -1 7 -13z"/>
<path fill="#ffffff" stroke="none" d="M1626 2225 c-1 -8 -5 -17 -8 -21 -5 -4
-4 16 1 34 3 9 9 -1 7 -13z"/>
<path fill="#ffffff" stroke="none" d="M1700 2236 c0 -2 -8 -10 -17 -17 -16
-13 -17 -12 -4 4 13 16 21 21 21 13z"/>
<path fill="#ffffff" stroke="none" d="M1654 2221 c3 -5 -2 -15 -12 -22 -15
-12 -16 -12 -5 2 7 9 10 19 6 22 -3 4 -4 7 0 7 3 0 8 -4 11 -9z"/>
<path fill="#ffffff" stroke="none" d="M1546 2205 c-1 -8 -5 -17 -8 -21 -5 -4
-4 16 1 34 3 9 9 -1 7 -13z"/>
<path fill="#ffffff" stroke="none" d="M1597 2205 c0 -8 -4 -12 -9 -9 -5 3 -6
10 -3 15 9 13 12 11 12 -6z"/>
<path fill="#ffffff" stroke="none" d="M1710 2216 c0 -2 -8 -10 -17 -17 -16
-13 -17 -12 -4 4 13 16 21 21 21 13z"/>
<path fill="#ffffff" stroke="none" d="M1500 2196 c0 -2 -6 -9 -14 -15 -11 -9
-16 -9 -22 0 -4 7 -3 9 4 5 6 -3 13 -2 17 4 6 10 15 14 15 6z"/>
<path fill="#ffffff" stroke="none" d="M1579 2186 c9 -11 9 -16 -1 -22 -7 -4
-10 -4 -6 1 4 4 3 14 -3 22 -6 7 -9 13 -6 13 2 0 10 -6 16 -14z"/>
<path fill="#ffffff" stroke="none" d="M1712 2188 c-8 -8 -8 -15 -1 -24 7 -8
6 -14 -2 -20 -7 -4 -9 -3 -5 4 3 6 2 14 -4 17 -11 7 4 35 18 35 3 0 1 -5 -6
-12z"/>
<path fill="#ffffff" stroke="none" d="M1520 2187 c0 -2 -10 -12 -22 -23 l-23
-19 19 23 c18 21 26 27 26 19z"/>
<path fill="#ffffff" stroke="none" d="M1617 2183 c-4 -3 0 -14 8 -23 13 -15
14 -19 1 -29 -11 -9 -16 -9 -22 0 -4 7 -3 9 4 5 17 -10 23 10 7 24 -14 11 -12
30 2 30 4 0 3 -3 0 -7z"/>
<path fill="#ffffff" stroke="none" d="M1557 2173 c-4 -3 -1 -13 6 -22 11 -14
10 -14 -5 -2 -16 12 -16 31 -1 31 4 0 3 -3 0 -7z"/>
<path fill="#ffffff" stroke="none" d="M1677 2173 c-4 -3 -1 -13 6 -22 11 -14
10 -14 -5 -2 -16 12 -16 31 -1 31 4 0 3 -3 0 -7z"/>
<path fill="#ffffff" stroke="none" d="M1760 2176 c0 -2 -8 -10 -17 -17 -16
-13 -17 -12 -4 4 13 16 21 21 21 13z"/>
<path fill="#ffffff" stroke="none" d="M1464 2161 c3 -5 -1 -14 -8 -20 -10 -9
-16 -9 -21 -1 -4 6 -1 9 7 8 7 -2 12 3 11 10 -3 14 3 16 11 3z"/>
<path fill="#ffffff" stroke="none" d="M1530 2167 c0 -2 -10 -12 -22 -23 l-23
-19 19 23 c18 21 26 27 26 19z"/>
<path fill="#ffffff" stroke="none" d="M1796 2128 l29 -33 -31 27 c-24 23 -33
26 -44 15 -12 -10 -12 -9 -1 6 7 9 14 17 15 17 1 0 15 -15 32 -32z"/>
<path fill="#ffffff" stroke="none" d="M1537 2139 c-1 -3 4 -13 11 -22 9 -10
10 -17 2 -22 -6 -4 -10 -3 -9 2 1 4 0 10 -1 13 -4 11 -8 42 -5 38 2 -1 3 -6 2
-9z"/>
<path fill="#ffffff" stroke="none" d="M1671 2133 c13 -16 12 -17 -3 -4 -10 7
-18 15 -18 17 0 8 8 3 21 -13z"/>
<path fill="#ffffff" stroke="none" d="M1730 2137 c0 -2 -8 -11 -18 -20 -15
-14 -19 -15 -19 -2 0 8 4 12 8 9 4 -2 10 0 14 6 6 10 15 14 15 7z"/>
<path fill="#ffffff" stroke="none" d="M1411 2113 c13 -16 12 -17 -3 -4 -10 7
-18 15 -18 17 0 8 8 3 21 -13z"/>
<path fill="#ffffff" stroke="none" d="M1520 2126 c0 -2 -6 -9 -14 -15 -11 -9
-16 -9 -22 0 -4 7 -3 9 4 5 6 -3 13 -2 17 4 6 10 15 14 15 6z"/>
<path fill="#ffffff" stroke="none" d="M1601 2113 c13 -16 12 -17 -3 -4 -10 7
-18 15 -18 17 0 8 8 3 21 -13z"/>
<path fill="#ffffff" stroke="none" d="M1650 2126 c0 -2 -8 -10 -17 -17 -16
-13 -17 -12 -4 4 13 16 21 21 21 13z"/>
<path fill="#ffffff" stroke="none" d="M1767 2115 c0 -8 -4 -12 -9 -9 -5 3 -6
10 -3 15 9 13 12 11 12 -6z"/>
<path fill="#ffffff" stroke="none" d="M1366 2084 c0 -13 -2 -22 -5 -19 -3 3
-6 17 -7 31 0 13 2 22 5 19 3 -3 6 -17 7 -31z"/>
<path fill="#ffffff" stroke="none" d="M1446 2105 c-1 -8 -5 -17 -8 -21 -5 -4
-4 16 1 34 3 9 9 -1 7 -13z"/>
<path fill="#ffffff" stroke="none" d="M1740 2116 c0 -2 -8 -10 -17 -17 -16
-13 -17 -12 -4 4 13 16 21 21 21 13z"/>
<path fill="#ffffff" stroke="none" d="M1395 2101 c3 -5 2 -12 -3 -15 -5 -3
-9 1 -9 9 0 17 3 19 12 6z"/>
<path fill="#ffffff" stroke="none" d="M1474 2101 c3 -5 -2 -15 -12 -22 -15
-12 -16 -12 -5 2 7 9 10 19 6 22 -3 4 -4 7 0 7 3 0 8 -4 11 -9z"/>
<path fill="#ffffff" stroke="none" d="M1526 2095 c-1 -8 -8 -21 -16 -28 -10
-10 -11 -9 -4 3 5 8 9 18 10 23 3 14 4 17 8 17 2 0 3 -7 2 -15z"/>
<path fill="#ffffff" stroke="none" d="M1591 2093 c13 -16 12 -17 -3 -4 -10 7
-18 15 -18 17 0 8 8 3 21 -13z"/>
<path fill="#ffffff" stroke="none" d="M1660 2107 c0 -2 -9 -12 -19 -21 -14
-13 -21 -14 -27 -5 -4 7 -3 10 3 6 6 -4 16 0 23 8 12 14 20 19 20 12z"/>
<path fill="#ffffff" stroke="none" d="M1677 2090 c-2 -11 -6 -22 -9 -26 -4
-3 -5 2 -3 13 2 10 4 21 4 26 1 4 3 7 6 7 3 0 4 -9 2 -20z"/>
<path fill="#ffffff" stroke="none" d="M1796 2074 c0 -13 -2 -22 -5 -19 -3 3
-6 17 -7 31 0 13 2 22 5 19 3 -3 6 -17 7 -31z"/>
<path fill="#ffffff" stroke="none" d="M1844 2101 c3 -4 -3 -16 -13 -25 -14
-13 -18 -14 -18 -2 0 8 5 14 11 13 6 -1 10 4 9 11 -3 14 3 16 11 3z"/>
<path fill="#ffffff" stroke="none" d="M1745 2083 c-1 -10 3 -25 9 -33 9 -13
9 -13 -6 -2 -13 10 -16 26 -9 50 4 11 9 -2 6 -15z"/>
<path fill="#ffffff" stroke="none" d="M1879 2087 c8 -11 6 -18 -12 -33 -22
-19 -22 -19 -5 2 14 16 15 23 6 32 -7 7 -9 12 -6 12 3 0 11 -6 17 -13z"/>
<path fill="#ffffff" stroke="none" d="M1315 2082 c-3 -3 0 -11 6 -19 17 -20
5 -16 -14 5 -15 16 -15 19 -2 19 8 0 13 -3 10 -5z"/>
<path fill="#ffffff" stroke="none" d="M1417 2075 c0 -8 -4 -12 -9 -9 -5 3 -6
10 -3 15 9 13 12 11 12 -6z"/>
<path fill="#ffffff" stroke="none" d="M1500 2087 c0 -2 -10 -12 -22 -23 l-23
-19 19 23 c18 21 26 27 26 19z"/>
<path fill="#ffffff" stroke="none" d="M1579 2077 c8 -11 4 -19 -17 -38 l-27
-24 22 26 c18 19 20 28 11 37 -7 7 -9 12 -6 12 3 0 11 -6 17 -13z"/>
<path fill="#ffffff" stroke="none" d="M1709 2076 c8 -10 8 -16 -3 -25 -10 -8
-16 -9 -21 -1 -4 6 -3 10 2 9 20 -3 25 2 13 16 -7 8 -10 15 -7 15 2 0 10 -6
16 -14z"/>
<path fill="#ffffff" stroke="none" d="M1294 2061 c14 -15 15 -21 4 -27 -7 -4
-10 -3 -5 1 4 5 0 17 -10 27 -9 10 -14 18 -11 18 3 0 13 -9 22 -19z"/>
<path fill="#ffffff" stroke="none" d="M1554 2071 c3 -5 -1 -14 -8 -20 -10 -9
-16 -9 -21 -1 -4 6 -1 9 7 8 7 -2 12 3 11 10 -3 14 3 16 11 3z"/>
<path fill="#ffffff" stroke="none" d="M1860 2076 c0 -2 -8 -10 -17 -17 -16
-13 -17 -12 -4 4 13 16 21 21 21 13z"/>
<path fill="#ffffff" stroke="none" d="M1265 2061 c3 -5 2 -12 -3 -15 -5 -3
-9 1 -9 9 0 17 3 19 12 6z"/>
<path fill="#ffffff" stroke="none" d="M1401 2053 c13 -16 12 -17 -3 -4 -10 7
-18 15 -18 17 0 8 8 3 21 -13z"/>
<path fill="#ffffff" stroke="none" d="M1647 2055 c0 -8 -4 -12 -9 -9 -5 3 -6
10 -3 15 9 13 12 11 12 -6z"/>
<path fill="#ffffff" stroke="none" d="M1926 2055 c-1 -8 -5 -17 -8 -21 -5 -4
-4 16 1 34 3 9 9 -1 7 -13z"/>
<path fill="#ffffff" stroke="none" d="M1236 2048 c4 -7 4 -10 -1 -6 -4 4 -14
3 -21 -3 -8 -7 -14 -6 -20 2 -4 7 -3 9 4 5 6 -3 13 -2 17 4 8 13 12 13 21 -2z"/>
<path fill="#ffffff" stroke="none" d="M1347 2049 c-1 -3 4 -13 11 -21 10 -13
9 -18 -5 -29 -16 -12 -17 -12 -6 2 7 9 10 19 6 23 -4 3 -8 14 -9 22 -1 9 -1
14 1 12 2 -1 3 -6 2 -9z"/>
<path fill="#ffffff" stroke="none" d="M1954 2051 c3 -5 -2 -15 -12 -22 -15
-12 -16 -12 -5 2 7 9 10 19 6 22 -3 4 -4 7 0 7 3 0 8 -4 11 -9z"/>
<path fill="#ffffff" stroke="none" d="M1389 2036 c9 -11 9 -16 -1 -22 -7 -4
-10 -4 -6 1 4 4 3 14 -3 22 -6 7 -9 13 -6 13 2 0 10 -6 16 -14z"/>
<path fill="#ffffff" stroke="none" d="M1490 2046 c0 -2 -6 -9 -14 -15 -11 -9
-16 -9 -22 0 -4 7 -3 9 4 5 6 -3 13 -2 17 4 6 10 15 14 15 6z"/>
<path fill="#ffffff" stroke="none" d="M1519 2036 c9 -10 7 -17 -6 -27 -16
-12 -17 -12 -6 2 10 12 10 18 1 27 -7 7 -9 12 -6 12 3 0 11 -6 17 -14z"/>
<path fill="#ffffff" stroke="none" d="M1606 2032 c-3 -3 -1 -11 4 -17 7 -8 3
-18 -13 -31 -22 -19 -22 -19 -4 2 9 11 14 24 10 28 -11 11 -12 37 -1 30 5 -3
7 -9 4 -12z"/>
<path fill="#ffffff" stroke="none" d="M1679 2037 c8 -10 3 -21 -23 -46 -22
-21 -33 -27 -33 -16 0 8 3 13 5 10 3 -3 16 5 29 17 17 16 20 24 12 35 -6 7 -9
13 -6 13 2 0 10 -6 16 -13z"/>
<path fill="#ffffff" stroke="none" d="M1730 2046 c0 -2 -8 -10 -17 -17 -16
-13 -17 -12 -4 4 13 16 21 21 21 13z"/>
<path fill="#ffffff" stroke="none" d="M1777 2039 c-1 -3 4 -13 11 -21 10 -12
10 -18 -2 -27 -10 -8 -16 -9 -21 -1 -4 6 -3 10 2 9 18 -3 24 2 16 14 -7 12
-14 42 -8 35 2 -1 3 -6 2 -9z"/>
<path fill="#ffffff" stroke="none" d="M1817 2043 c-4 -3 -2 -12 4 -20 6 -7 8
-13 4 -13 -4 0 -1 -8 6 -17 13 -16 12 -17 -3 -4 -10 7 -16 17 -13 21 3 5 1 11
-5 15 -10 6 -5 25 7 25 4 0 3 -3 0 -7z"/>
<path fill="#ffffff" stroke="none" d="M1184 2031 c3 -5 0 -14 -8 -20 -10 -9
-17 -7 -27 6 -13 16 -12 17 4 4 15 -12 21 -9 18 12 -1 10 7 9 13 -2z"/>
<path fill="#ffffff" stroke="none" d="M1267 2022 c-10 -10 -15 -22 -12 -25 3
-4 2 -5 -2 -2 -10 8 -13 36 -3 30 5 -3 11 -1 15 5 3 5 9 10 12 10 3 0 -1 -8
-10 -18z"/>
<path fill="#ffffff" stroke="none" d="M1330 2036 c0 -2 -8 -10 -17 -17 -16
-13 -17 -12 -4 4 13 16 21 21 21 13z"/>
<path fill="#ffffff" stroke="none" d="M1653 2027 c4 3 7 4 7 1 0 -3 -8 -12
-17 -19 -10 -7 -15 -9 -11 -5 4 5 2 16 -5 25 -10 14 -10 14 4 4 9 -7 19 -10
22 -6z"/>
<path fill="#ffffff" stroke="none" d="M1876 2016 c0 -14 -3 -23 -7 -20 -6 3
-6 22 0 42 3 10 7 -2 7 -22z"/>
<path fill="#ffffff" stroke="none" d="M1491 2017 c-6 -8 -7 -18 -3 -22 4 -5
1 -5 -6 -1 -10 6 -10 11 -1 22 6 8 14 14 16 14 3 0 0 -6 -6 -13z"/>
<path fill="#ffffff" stroke="none" d="M1580 2026 c0 -2 -8 -10 -17 -17 -16
-13 -17 -12 -4 4 13 16 21 21 21 13z"/>
<path fill="#ffffff" stroke="none" d="M1733 2018 c-6 -7 -9 -21 -8 -31 2 -9
0 -15 -5 -12 -13 8 1 55 17 55 3 0 1 -6 -4 -12z"/>
<path fill="#ffffff" stroke="none" d="M1751 2007 c-10 -9 -11 -8 -5 6 3 10 9
15 12 12 3 -3 0 -11 -7 -18z"/>
<path fill="#ffffff" stroke="none" d="M1970 2026 c0 -2 -8 -10 -17 -17 -16
-13 -17 -12 -4 4 13 16 21 21 21 13z"/>
<path fill="#ffffff" stroke="none" d="M1117 2013 c-4 -3 3 -17 15 -30 12 -13
18 -23 14 -23 -5 0 -3 -6 3 -14 9 -11 9 -16 0 -22 -7 -4 -9 -3 -5 4 3 6 2 13
-4 17 -6 4 -8 10 -5 14 2 5 -4 16 -15 26 -17 16 -19 35 -3 35 4 0 3 -3 0 -7z"/>
<path fill="#ffffff" stroke="none" d="M1201 2007 c-6 -8 -8 -16 -5 -19 3 -3
1 -9 -4 -12 -6 -3 -9 0 -8 6 2 16 15 38 23 38 3 0 0 -6 -6 -13z"/>
<path fill="#ffffff" stroke="none" d="M1340 2017 c0 -2 -10 -13 -23 -25 -18
-17 -24 -19 -24 -8 0 8 4 13 8 11 3 -3 12 2 19 10 12 14 20 19 20 12z"/>
<path fill="#ffffff" stroke="none" d="M1454 2011 c3 -5 -1 -14 -8 -20 -10 -9
-16 -9 -21 -1 -4 6 -1 9 7 8 7 -2 12 3 11 10 -3 14 3 16 11 3z"/>
<path fill="#ffffff" stroke="none" d="M1990 2016 c0 -2 -8 -10 -17 -17 -16
-13 -17 -12 -4 4 13 16 21 21 21 13z"/>
<path fill="#ffffff" stroke="none" d="M2045 2003 c-1 -10 5 -27 14 -38 16
-20 16 -20 -6 -2 -17 15 -21 30 -14 55 4 11 9 -2 6 -15z"/>
<path fill="#ffffff" stroke="none" d="M1090 2007 c0 -2 -8 -11 -18 -20 -15
-14 -19 -15 -19 -2 0 8 4 12 8 9 4 -2 10 0 14 6 6 10 15 14 15 7z"/>
<path fill="#ffffff" stroke="none" d="M1155 1990 c10 -11 16 -20 13 -20 -3 0
-13 9 -23 20 -10 11 -16 20 -13 20 3 0 13 -9 23 -20z"/>
<path fill="#ffffff" stroke="none" d="M1405 2001 c-3 -5 -1 -12 4 -15 5 -4 8
-14 6 -24 -1 -9 2 -23 8 -29 5 -7 6 -13 2 -13 -4 0 -1 -8 6 -17 13 -16 12 -17
-3 -4 -10 7 -16 17 -13 21 3 5 1 11 -4 15 -5 3 -8 14 -6 25 2 11 -1 22 -6 25
-9 6 -3 25 7 25 3 0 3 -4 -1 -9z"/>
<path fill="#ffffff" stroke="none" d="M1590 2006 c0 -2 -8 -10 -17 -17 -16
-13 -17 -12 -4 4 13 16 21 21 21 13z"/>
<path fill="#ffffff" stroke="none" d="M1904 2001 c3 -5 -2 -15 -12 -22 -15
-12 -16 -12 -5 2 7 9 10 19 6 22 -3 4 -4 7 0 7 3 0 8 -4 11 -9z"/>
<path fill="#ffffff" stroke="none" d="M2090 2005 c0 -2 -6 -8 -13 -14 -10 -8
-14 -7 -14 2 0 8 6 14 14 14 7 0 13 -1 13 -2z"/>
<path fill="#ffffff" stroke="none" d="M1377 1993 c-4 -3 -1 -13 6 -22 11 -14
10 -14 -5 -2 -16 12 -16 31 -1 31 4 0 3 -3 0 -7z"/>
<path fill="#ffffff" stroke="none" d="M1991 1987 c-6 -8 -7 -18 -3 -22 4 -5
1 -5 -6 -1 -10 6 -10 11 -1 22 6 8 14 14 16 14 3 0 0 -6 -6 -13z"/>
<path fill="#ffffff" stroke="none" d="M2101 1987 c-6 -8 -8 -16 -5 -19 3 -3
1 -9 -4 -12 -6 -3 -9 0 -8 6 2 16 15 38 23 38 3 0 0 -6 -6 -13z"/>
<path fill="#ffffff" stroke="none" d="M1036 1964 c1 -9 0 -13 -4 -10 -3 4 -7
14 -8 22 -1 9 0 13 4 10 3 -4 7 -14 8 -22z"/>
<path fill="#ffffff" stroke="none" d="M1104 1981 c3 -5 -1 -14 -8 -20 -10 -9
-16 -9 -21 -1 -4 6 -1 9 7 8 7 -2 12 3 11 10 -3 14 3 16 11 3z"/>
<path fill="#ffffff" stroke="none" d="M1245 1981 c3 -5 2 -12 -3 -15 -5 -3
-9 1 -9 9 0 17 3 19 12 6z"/>
<path fill="#ffffff" stroke="none" d="M1277 1983 c-4 -3 1 -16 10 -27 18 -21
18 -21 -4 -2 -20 16 -23 36 -6 36 4 0 3 -3 0 -7z"/>
<path fill="#ffffff" stroke="none" d="M1467 1975 c0 -8 -4 -12 -9 -9 -5 3 -6
10 -3 15 9 13 12 11 12 -6z"/>
<path fill="#ffffff" stroke="none" d="M1546 1975 c-1 -8 -5 -17 -8 -21 -5 -4
-4 16 1 34 3 9 9 -1 7 -13z"/>
<path fill="#ffffff" stroke="none" d="M1689 1974 c-6 -8 -6 -14 0 -18 10 -6
9 -31 -1 -42 -4 -3 -5 2 -4 13 2 10 1 23 -3 28 -11 19 -9 32 5 32 10 0 11 -4
3 -13z"/>
<path fill="#ffffff" stroke="none" d="M1754 1981 c3 -5 -2 -15 -12 -22 -15
-12 -16 -12 -5 2 7 9 10 19 6 22 -3 4 -4 7 0 7 3 0 8 -4 11 -9z"/>
<path fill="#ffffff" stroke="none" d="M1865 1981 c3 -5 2 -12 -3 -15 -5 -3
-9 1 -9 9 0 17 3 19 12 6z"/>
<path fill="#ffffff" stroke="none" d="M1917 1972 c-10 -10 -15 -21 -12 -24 3
-3 -1 -11 -9 -17 -10 -8 -16 -9 -21 -1 -4 6 -3 9 2 8 4 -2 8 0 8 3 0 8 36 49
43 49 3 0 -2 -8 -11 -18z"/>
<path fill="#ffffff" stroke="none" d="M2016 1975 c-1 -8 -5 -17 -8 -21 -5 -4
-4 16 1 34 3 9 9 -1 7 -13z"/>
<path fill="#ffffff" stroke="none" d="M2127 1975 c0 -8 -4 -12 -9 -9 -5 3 -6
10 -3 15 9 13 12 11 12 -6z"/>
<path fill="#ffffff" stroke="none" d="M2156 1965 c1 -8 -1 -17 -5 -19 -4 -3
-7 6 -7 19 0 25 8 25 12 0z"/>
<path fill="#ffffff" stroke="none" d="M1004 1971 c3 -5 -2 -15 -12 -22 -15
-12 -16 -12 -5 2 7 9 10 19 6 22 -3 4 -4 7 0 7 3 0 8 -4 11 -9z"/>
<path fill="#ffffff" stroke="none" d="M1217 1965 c0 -8 -4 -12 -9 -9 -5 3 -6
10 -3 15 9 13 12 11 12 -6z"/>
<path fill="#ffffff" stroke="none" d="M1326 1955 c-1 -13 -4 -27 -7 -30 -5
-4 -4 41 0 53 4 10 8 -2 7 -23z"/>
<path fill="#ffffff" stroke="none" d="M1355 1971 c3 -5 2 -12 -3 -15 -5 -3
-9 1 -9 9 0 17 3 19 12 6z"/>
<path fill="#ffffff" stroke="none" d="M1495 1971 c3 -5 2 -12 -3 -15 -5 -3
-9 1 -9 9 0 17 3 19 12 6z"/>
<path fill="#ffffff" stroke="none" d="M980 1967 c0 -2 -8 -11 -18 -20 -15
-14 -19 -15 -19 -2 0 8 4 12 8 9 4 -2 10 0 14 6 6 10 15 14 15 7z"/>
<path fill="#ffffff" stroke="none" d="M1445 1961 c3 -5 2 -12 -3 -15 -5 -3
-9 1 -9 9 0 17 3 19 12 6z"/>
<path fill="#ffffff" stroke="none" d="M1607 1955 c0 -8 -4 -12 -9 -9 -5 3 -6
10 -3 15 9 13 12 11 12 -6z"/>
<path fill="#ffffff" stroke="none" d="M1657 1963 c-4 -3 -1 -13 6 -22 11 -14
10 -14 -5 -2 -16 12 -16 31 -1 31 4 0 3 -3 0 -7z"/>
<path fill="#ffffff" stroke="none" d="M1784 1961 c3 -5 -1 -14 -8 -20 -10 -9
-16 -9 -21 -1 -4 6 -1 9 7 8 7 -2 12 3 11 10 -3 14 3 16 11 3z"/>
<path fill="#ffffff" stroke="none" d="M1817 1963 c-4 -3 -2 -12 4 -19 7 -8 6
-14 -2 -20 -7 -4 -9 -3 -5 4 3 6 2 13 -4 17 -10 6 -5 25 7 25 4 0 3 -3 0 -7z"/>
<path fill="#ffffff" stroke="none" d="M1965 1958 c5 4 5 1 1 -6 -6 -10 -11
-10 -22 -1 -8 6 -14 14 -14 16 0 3 6 0 13 -6 8 -6 18 -7 22 -3z"/>
<path fill="#ffffff" stroke="none" d="M926 1945 c-3 -23 -22 -39 -31 -26 -3
7 -1 10 6 9 7 -2 14 3 15 10 2 19 4 22 8 22 2 0 3 -7 2 -15z"/>
<path fill="#ffffff" stroke="none" d="M1066 1942 c-3 -3 0 -12 6 -21 10 -13
10 -14 -2 -4 -16 15 -23 46 -8 37 5 -3 7 -9 4 -12z"/>
<path fill="#ffffff" stroke="none" d="M1117 1953 c-4 -3 -2 -12 4 -19 7 -8 6
-14 -2 -20 -7 -4 -9 -3 -5 4 3 6 2 13 -4 17 -10 6 -5 25 7 25 4 0 3 -3 0 -7z"/>
<path fill="#ffffff" stroke="none" d="M1201 1943 c13 -16 12 -17 -3 -4 -10 7
-18 15 -18 17 0 8 8 3 21 -13z"/>
<path fill="#ffffff" stroke="none" d="M1265 1951 c3 -5 2 -12 -3 -15 -5 -3
-9 1 -9 9 0 17 3 19 12 6z"/>
<path fill="#ffffff" stroke="none" d="M1517 1945 c0 -8 -4 -12 -9 -9 -5 3 -6
10 -3 15 9 13 12 11 12 -6z"/>
<path fill="#ffffff" stroke="none" d="M2049 1946 c8 -10 9 -16 1 -21 -6 -4
-9 -1 -8 7 2 7 -3 12 -10 10 -8 -1 -11 2 -7 8 8 13 10 13 24 -4z"/>
<path fill="#ffffff" stroke="none" d="M1017 1943 c-4 -3 -1 -13 6 -22 11 -14
10 -14 -5 -2 -16 12 -16 31 -1 31 4 0 3 -3 0 -7z"/>
<path fill="#ffffff" stroke="none" d="M1237 1943 c-4 -3 -1 -13 6 -22 11 -14
10 -14 -5 -2 -16 12 -16 31 -1 31 4 0 3 -3 0 -7z"/>
<path fill="#ffffff" stroke="none" d="M1385 1942 c-3 -3 0 -11 6 -18 7 -9 6
-14 -3 -20 -7 -4 -10 -3 -5 1 4 5 0 16 -8 25 -13 15 -13 17 0 17 8 0 13 -3 10
-5z"/>
<path fill="#ffffff" stroke="none" d="M1467 1943 c-4 -3 -1 -13 6 -22 11 -14
10 -14 -5 -2 -16 12 -16 31 -1 31 4 0 3 -3 0 -7z"/>
<path fill="#ffffff" stroke="none" d="M1641 1933 c13 -16 12 -17 -3 -4 -10 7
-18 15 -18 17 0 8 8 3 21 -13z"/>
<path fill="#ffffff" stroke="none" d="M1857 1943 c-4 -3 -1 -13 6 -22 11 -14
10 -14 -5 -2 -16 12 -16 31 -1 31 4 0 3 -3 0 -7z"/>
<path fill="#ffffff" stroke="none" d="M1939 1937 c8 -11 6 -18 -12 -33 -22
-19 -22 -19 -5 2 14 16 15 23 6 32 -7 7 -9 12 -6 12 3 0 11 -6 17 -13z"/>
<path fill="#ffffff" stroke="none" d="M1990 1946 c0 -2 -8 -10 -17 -17 -16
-13 -17 -12 -4 4 13 16 21 21 21 13z"/>
<path fill="#ffffff" stroke="none" d="M2110 1946 c0 -2 -6 -9 -14 -15 -11 -9
-16 -9 -22 0 -4 7 -3 9 4 5 6 -3 13 -2 17 4 6 10 15 14 15 6z"/>
<path fill="#ffffff" stroke="none" d="M2116 1922 c-17 -16 -18 -16 -5 5 7 12
15 20 18 17 3 -2 -3 -12 -13 -22z"/>
<path fill="#ffffff" stroke="none" d="M2235 1938 c5 4 5 1 1 -6 -6 -10 -11
-10 -22 -1 -8 6 -14 14 -14 16 0 3 6 0 13 -6 8 -6 18 -7 22 -3z"/>
<path fill="#ffffff" stroke="none" d="M1189 1926 c9 -11 9 -16 -1 -22 -7 -4
-10 -4 -6 1 4 4 3 14 -3 22 -6 7 -9 13 -6 13 2 0 10 -6 16 -14z"/>
<path fill="#ffffff" stroke="none" d="M1361 1923 c13 -16 12 -17 -3 -4 -10 7
-18 15 -18 17 0 8 8 3 21 -13z"/>
<path fill="#ffffff" stroke="none" d="M1499 1926 c9 -10 7 -17 -6 -27 -16
-12 -17 -12 -6 2 10 12 10 18 1 27 -7 7 -9 12 -6 12 3 0 11 -6 17 -14z"/>
<path fill="#ffffff" stroke="none" d="M1551 1923 c13 -16 12 -17 -3 -4 -10 7
-18 15 -18 17 0 8 8 3 21 -13z"/>
<path fill="#ffffff" stroke="none" d="M1746 1919 c1 -5 3 -11 4 -14 1 -3 4
-14 5 -25 1 -11 3 -21 5 -22 7 -9 7 -39 0 -43 -5 -3 -7 3 -5 12 1 10 0 23 -4
28 -3 6 -6 18 -7 28 -1 9 -2 18 -4 20 -5 7 -7 38 -2 32 4 -4 8 -11 8 -16z"/>
<path fill="#ffffff" stroke="none" d="M1797 1925 c0 -8 -4 -12 -9 -9 -5 3 -6
10 -3 15 9 13 12 11 12 -6z"/>
<path fill="#ffffff" stroke="none" d="M1997 1923 c-8 -10 -16 -22 -17 -28 -1
-5 -3 -12 -5 -13 -2 -2 -3 3 -1 11 2 16 25 47 34 47 3 0 -2 -8 -11 -17z"/>
<path fill="#ffffff" stroke="none" d="M2321 1923 c13 -16 12 -17 -3 -4 -17
13 -22 21 -14 21 2 0 10 -8 17 -17z"/>
<path fill="#ffffff" stroke="none" d="M883 1916 c3 -8 -2 -20 -11 -27 -14
-11 -15 -11 -5 0 6 7 9 20 6 27 -3 8 -3 14 0 14 3 0 7 -6 10 -14z"/>
<path fill="#ffffff" stroke="none" d="M967 1915 c0 -8 -4 -12 -9 -9 -5 3 -6
10 -3 15 9 13 12 11 12 -6z"/>
<path fill="#ffffff" stroke="none" d="M996 1904 c1 -9 0 -13 -4 -10 -3 4 -7
14 -8 22 -1 9 0 13 4 10 3 -4 7 -14 8 -22z"/>
<path fill="#ffffff" stroke="none" d="M1277 1923 c-4 -3 -1 -13 6 -22 11 -14
10 -14 -5 -2 -16 12 -16 31 -1 31 4 0 3 -3 0 -7z"/>
<path fill="#ffffff" stroke="none" d="M1629 1916 c9 -11 9 -16 -1 -22 -7 -4
-10 -4 -6 1 4 4 3 14 -3 22 -6 7 -9 13 -6 13 2 0 10 -6 16 -14z"/>
<path fill="#ffffff" stroke="none" d="M2030 1926 c0 -2 -8 -10 -17 -17 -16
-13 -17 -12 -4 4 13 16 21 21 21 13z"/>
<path fill="#ffffff" stroke="none" d="M2156 1912 c-3 -3 0 -12 6 -21 10 -13
10 -14 -2 -4 -16 15 -23 46 -8 37 5 -3 7 -9 4 -12z"/>
<path fill="#ffffff" stroke="none" d="M2257 1915 c0 -8 -4 -12 -9 -9 -5 3 -6
10 -3 15 9 13 12 11 12 -6z"/>
<path fill="#ffffff" stroke="none" d="M1061 1903 c13 -16 12 -17 -3 -4 -10 7
-18 15 -18 17 0 8 8 3 21 -13z"/>
<path fill="#ffffff" stroke="none" d="M1167 1913 c-4 -3 -1 -13 6 -22 11 -14
10 -14 -5 -2 -16 12 -16 31 -1 31 4 0 3 -3 0 -7z"/>
<path fill="#ffffff" stroke="none" d="M1229 1906 c9 -11 9 -16 -1 -22 -7 -4
-10 -4 -6 1 4 4 3 14 -3 22 -6 7 -9 13 -6 13 2 0 10 -6 16 -14z"/>
<path fill="#ffffff" stroke="none" d="M1345 1911 c3 -5 2 -12 -3 -15 -5 -3
-9 1 -9 9 0 17 3 19 12 6z"/>
<path fill="#ffffff" stroke="none" d="M1459 1906 c9 -11 9 -16 -1 -22 -7 -4
-10 -4 -6 1 4 4 3 14 -3 22 -6 7 -9 13 -6 13 2 0 10 -6 16 -14z"/>
<path fill="#ffffff" stroke="none" d="M1545 1882 c-1 -9 2 -22 6 -28 6 -7 4
-16 -4 -23 -11 -8 -18 -6 -31 8 -13 14 -14 21 -5 27 7 4 10 3 6 -3 -4 -6 0
-16 7 -22 9 -8 16 -8 20 -2 4 5 2 12 -3 15 -5 4 -8 14 -6 24 1 9 -3 24 -9 32
-9 13 -9 13 6 2 9 -7 15 -21 13 -30z"/>
<path fill="#ffffff" stroke="none" d="M1602 1905 c2 3 5 -2 5 -10 0 -19 0
-19 -23 7 -12 14 -13 18 -3 10 9 -6 18 -10 21 -7z"/>
<path fill="#ffffff" stroke="none" d="M1667 1905 c0 -8 -4 -12 -9 -9 -5 3 -6
10 -3 15 9 13 12 11 12 -6z"/>
<path fill="#ffffff" stroke="none" d="M1717 1913 c-4 -3 -1 -13 6 -22 11 -14
10 -14 -5 -2 -16 12 -16 31 -1 31 4 0 3 -3 0 -7z"/>
<path fill="#ffffff" stroke="none" d="M2067 1913 c-4 -3 -1 -13 6 -22 11 -14
10 -14 -5 -2 -16 12 -16 31 -1 31 4 0 3 -3 0 -7z"/>
<path fill="#ffffff" stroke="none" d="M2311 1903 c13 -16 12 -17 -3 -4 -10 7
-18 15 -18 17 0 8 8 3 21 -13z"/>
<path fill="#ffffff" stroke="none" d="M1097 1903 c-4 -3 1 -16 10 -27 18 -21
18 -21 -4 -2 -20 16 -23 36 -6 36 4 0 3 -3 0 -7z"/>
<path fill="#ffffff" stroke="none" d="M1316 1895 c-1 -8 -5 -17 -8 -21 -5 -4
-4 16 1 34 3 9 9 -1 7 -13z"/>
<path fill="#ffffff" stroke="none" d="M1831 1893 c13 -16 12 -17 -3 -4 -17
13 -22 21 -14 21 2 0 10 -8 17 -17z"/>
<path fill="#ffffff" stroke="none" d="M1895 1901 c3 -5 2 -12 -3 -15 -5 -3
-9 1 -9 9 0 17 3 19 12 6z"/>
<path fill="#ffffff" stroke="none" d="M2127 1895 c0 -8 -16 -29 -36 -47 -21
-19 -26 -22 -13 -7 12 14 19 29 15 33 -5 4 -1 6 7 4 8 -1 15 3 16 10 3 27 11
32 11 7z"/>
<path fill="#ffffff" stroke="none" d="M2241 1893 c13 -16 12 -17 -3 -4 -17
13 -22 21 -14 21 2 0 10 -8 17 -17z"/>
<path fill="#ffffff" stroke="none" d="M2291 1893 c13 -16 12 -17 -3 -4 -17
13 -22 21 -14 21 2 0 10 -8 17 -17z"/>
<path fill="#ffffff" stroke="none" d="M907 1893 c-4 -3 -1 -13 6 -22 11 -14
10 -14 -5 -2 -16 12 -16 31 -1 31 4 0 3 -3 0 -7z"/>
<path fill="#ffffff" stroke="none" d="M1053 1880 c10 -12 9 -12 -4 -2 -9 6
-18 9 -21 6 -3 -3 -9 -1 -12 4 -9 15 22 8 37 -8z"/>
<path fill="#ffffff" stroke="none" d="M1206 1891 c-3 -4 3 -16 14 -26 18 -17
25 -14 21 8 -1 5 3 6 9 2 8 -5 7 -11 -1 -21 -10 -13 -15 -12 -35 7 -20 19 -24
39 -8 39 3 0 3 -4 0 -9z"/>
<path fill="#ffffff" stroke="none" d="M1366 1885 c-1 -8 -5 -17 -8 -21 -5 -4
-4 16 1 34 3 9 9 -1 7 -13z"/>
<path fill="#ffffff" stroke="none" d="M1520 1896 c0 -2 -8 -10 -17 -17 -16
-13 -17 -12 -4 4 13 16 21 21 21 13z"/>
<path fill="#ffffff" stroke="none" d="M1585 1880 c10 -11 16 -20 13 -20 -3 0
-13 9 -23 20 -10 11 -16 20 -13 20 3 0 13 -9 23 -20z"/>
<path fill="#ffffff" stroke="none" d="M1701 1883 c13 -16 12 -17 -3 -4 -10 7
-18 15 -18 17 0 8 8 3 21 -13z"/>
<path fill="#ffffff" stroke="none" d="M1810 1865 c-5 -6 -6 -16 -2 -20 4 -5
1 -5 -6 -1 -9 6 -10 12 -3 20 7 9 7 17 -2 26 -10 12 -9 12 6 1 12 -10 14 -17
7 -26z"/>
<path fill="#ffffff" stroke="none" d="M1867 1893 c-4 -3 -2 -12 3 -18 7 -9 6
-16 -4 -24 -10 -9 -16 -7 -27 6 -13 16 -12 17 3 5 10 -8 19 -9 22 -3 4 5 2 12
-4 16 -10 6 -5 25 7 25 4 0 3 -3 0 -7z"/>
<path fill="#ffffff" stroke="none" d="M939 1876 c9 -10 7 -17 -6 -27 -16 -12
-17 -12 -6 2 10 12 10 18 1 27 -7 7 -9 12 -6 12 3 0 11 -6 17 -14z"/>
<path fill="#ffffff" stroke="none" d="M1141 1867 c-10 -9 -11 -8 -5 6 3 10 9
15 12 12 3 -3 0 -11 -7 -18z"/>
<path fill="#ffffff" stroke="none" d="M1394 1881 c3 -5 -2 -15 -12 -22 -15
-12 -16 -12 -5 2 7 9 10 19 6 22 -3 4 -4 7 0 7 3 0 8 -4 11 -9z"/>
<path fill="#ffffff" stroke="none" d="M1655 1881 c3 -5 2 -12 -3 -15 -5 -3
-9 1 -9 9 0 17 3 19 12 6z"/>
<path fill="#ffffff" stroke="none" d="M1785 1881 c3 -5 2 -12 -3 -15 -5 -3
-9 1 -9 9 0 17 3 19 12 6z"/>
<path fill="#ffffff" stroke="none" d="M1937 1883 c-4 -3 -2 -12 3 -18 7 -8 3
-18 -13 -31 -12 -10 -19 -15 -14 -10 4 5 0 17 -9 27 -12 13 -12 19 -3 25 7 4
10 3 6 -3 -4 -6 0 -16 7 -22 9 -8 16 -8 20 -2 4 5 2 12 -4 16 -10 6 -5 25 7
25 4 0 3 -3 0 -7z"/>
<path fill="#ffffff" stroke="none" d="M2055 1881 c3 -5 2 -12 -3 -15 -5 -3
-9 1 -9 9 0 17 3 19 12 6z"/>
<path fill="#ffffff" stroke="none" d="M2181 1856 c-12 -12 -19 -25 -15 -28 3
-3 1 -9 -4 -12 -9 -5 -9 14 -2 34 1 3 2 8 1 13 0 4 5 6 12 5 6 -2 11 3 9 10
-1 8 2 11 9 7 7 -5 3 -15 -10 -29z"/>
<path fill="#ffffff" stroke="none" d="M2274 1881 c3 -5 -1 -14 -8 -20 -10 -9
-16 -9 -21 -1 -4 6 -1 9 7 8 7 -2 12 3 11 10 -3 14 3 16 11 3z"/>
<path fill="#ffffff" stroke="none" d="M1091 1863 c13 -16 12 -17 -3 -4 -17
13 -22 21 -14 21 2 0 10 -8 17 -17z"/>
<path fill="#ffffff" stroke="none" d="M1287 1865 c0 -8 -4 -12 -9 -9 -5 3 -6
10 -3 15 9 13 12 11 12 -6z"/>
<path fill="#ffffff" stroke="none" d="M1337 1865 c0 -8 -4 -12 -9 -9 -5 3 -6
10 -3 15 9 13 12 11 12 -6z"/>
<path fill="#ffffff" stroke="none" d="M1443 1857 c-4 -7 -8 -15 -8 -19 0 -3
-3 -9 -7 -13 -5 -6 -4 19 2 35 1 3 2 9 1 13 -1 5 3 6 9 2 6 -3 7 -12 3 -18z"/>
<path fill="#ffffff" stroke="none" d="M1627 1873 c-4 -3 -1 -13 6 -22 11 -14
10 -14 -5 -2 -16 12 -16 31 -1 31 4 0 3 -3 0 -7z"/>
<path fill="#ffffff" stroke="none" d="M1689 1866 c9 -11 9 -16 -1 -22 -7 -4
-10 -4 -6 1 4 4 3 14 -3 22 -6 7 -9 13 -6 13 2 0 10 -6 16 -14z"/>
<path fill="#ffffff" stroke="none" d="M2027 1873 c-4 -3 -2 -12 4 -19 7 -8 6
-14 -2 -20 -7 -4 -9 -3 -5 4 3 6 2 13 -4 17 -10 6 -5 25 7 25 4 0 3 -3 0 -7z"/>
<path fill="#ffffff" stroke="none" d="M2147 1865 c0 -8 -8 -22 -17 -30 -14
-13 -17 -13 -17 -1 0 8 5 14 11 13 5 -1 11 4 12 11 4 27 11 32 11 7z"/>
<path fill="#ffffff" stroke="none" d="M899 1856 c9 -11 9 -16 -1 -22 -7 -4
-10 -4 -6 1 4 4 3 14 -3 22 -6 7 -9 13 -6 13 2 0 10 -6 16 -14z"/>
<path fill="#ffffff" stroke="none" d="M1167 1855 c0 -8 -4 -12 -9 -9 -5 3 -6
10 -3 15 9 13 12 11 12 -6z"/>
<path fill="#ffffff" stroke="none" d="M1196 1845 c1 -8 -1 -17 -5 -19 -4 -3
-7 6 -7 19 0 25 8 25 12 0z"/>
<path fill="#ffffff" stroke="none" d="M1420 1867 c0 -2 -10 -12 -22 -23 l-23
-19 19 23 c18 21 26 27 26 19z"/>
<path fill="#ffffff" stroke="none" d="M1581 1853 c13 -16 12 -17 -3 -4 -10 7
-18 15 -18 17 0 8 8 3 21 -13z"/>
<path fill="#ffffff" stroke="none" d="M1727 1863 c-4 -3 -1 -13 6 -22 11 -14
10 -14 -5 -2 -16 12 -16 31 -1 31 4 0 3 -3 0 -7z"/>
<path fill="#ffffff" stroke="none" d="M1977 1863 c-4 -3 -1 -13 6 -22 11 -14
10 -14 -5 -2 -16 12 -16 31 -1 31 4 0 3 -3 0 -7z"/>
<path fill="#ffffff" stroke="none" d="M2080 1866 c0 -2 -8 -10 -17 -17 -16
-13 -17 -12 -4 4 13 16 21 21 21 13z"/>
<path fill="#ffffff" stroke="none" d="M2300 1867 c0 -2 -10 -12 -22 -23 l-23
-19 19 23 c18 21 26 27 26 19z"/>
<path fill="#ffffff" stroke="none" d="M1006 1834 c1 -9 0 -13 -4 -10 -3 4 -7
14 -8 22 -1 9 0 13 4 10 3 -4 7 -14 8 -22z"/>
<path fill="#ffffff" stroke="none" d="M1081 1843 c13 -16 12 -17 -3 -4 -10 7
-18 15 -18 17 0 8 8 3 21 -13z"/>
<path fill="#ffffff" stroke="none" d="M1310 1845 c1 -5 9 -19 18 -30 17 -20
17 -20 -4 -2 -11 9 -21 24 -21 32 0 16 4 16 7 0z"/>
<path fill="#ffffff" stroke="none" d="M1666 1845 c-1 -8 -5 -17 -8 -21 -5 -4
-4 16 1 34 3 9 9 -1 7 -13z"/>
<path fill="#ffffff" stroke="none" d="M960 1846 c0 -2 -8 -10 -17 -17 -16
-13 -17 -12 -4 4 13 16 21 21 21 13z"/>
<path fill="#ffffff" stroke="none" d="M1035 1822 c-1 -9 2 -22 7 -29 6 -7 5
-14 -2 -18 -6 -4 -10 -3 -9 2 1 4 0 10 -1 13 -6 15 -6 59 1 55 4 -3 6 -13 4
-23z"/>
<path fill="#ffffff" stroke="none" d="M1116 1835 c-1 -8 -5 -17 -8 -21 -5 -4
-4 16 1 34 3 9 9 -1 7 -13z"/>
<path fill="#ffffff" stroke="none" d="M1145 1841 c3 -5 2 -12 -3 -15 -5 -3
-9 1 -9 9 0 17 3 19 12 6z"/>
<path fill="#ffffff" stroke="none" d="M1270 1846 c0 -2 -8 -10 -17 -17 -16
-13 -17 -12 -4 4 13 16 21 21 21 13z"/>
<path fill="#ffffff" stroke="none" d="M1615 1841 c3 -5 2 -12 -3 -15 -5 -3
-9 1 -9 9 0 17 3 19 12 6z"/>
<path fill="#ffffff" stroke="none" d="M1841 1833 c13 -16 12 -17 -3 -4 -10 7
-18 15 -18 17 0 8 8 3 21 -13z"/>
<path fill="#ffffff" stroke="none" d="M1890 1846 c0 -2 -8 -10 -17 -17 -16
-13 -17 -12 -4 4 13 16 21 21 21 13z"/>
<path fill="#ffffff" stroke="none" d="M980 1837 c0 -2 -10 -12 -22 -23 l-23
-19 19 23 c18 21 26 27 26 19z"/>
<path fill="#ffffff" stroke="none" d="M1057 1829 c-1 -3 4 -13 11 -22 9 -10
10 -17 2 -22 -6 -4 -10 -3 -9 2 1 4 0 10 -1 13 -4 11 -8 42 -5 38 2 -1 3 -6 2
-9z"/>
<path fill="#ffffff" stroke="none" d="M1290 1836 c0 -2 -8 -10 -17 -17 -16
-13 -17 -12 -4 4 13 16 21 21 21 13z"/>
<path fill="#ffffff" stroke="none" d="M1351 1823 c13 -16 12 -17 -3 -4 -10 7
-18 15 -18 17 0 8 8 3 21 -13z"/>
<path fill="#ffffff" stroke="none" d="M1715 1831 c3 -5 2 -12 -3 -15 -5 -3
-9 1 -9 9 0 17 3 19 12 6z"/>
<path fill="#ffffff" stroke="none" d="M1957 1829 c-1 -3 4 -13 11 -22 9 -10
10 -17 2 -22 -6 -4 -10 -3 -9 2 1 4 0 10 -1 13 -4 11 -8 42 -5 38 2 -1 3 -6 2
-9z"/>
<path fill="#ffffff" stroke="none" d="M1162 1818 c-9 -9 -9 -15 1 -27 11 -14
10 -14 -6 -2 -13 10 -15 17 -6 27 6 8 14 14 17 14 3 0 1 -5 -6 -12z"/>
<path fill="#ffffff" stroke="none" d="M1410 1827 c0 -2 -8 -11 -18 -20 -15
-14 -19 -15 -19 -2 0 8 4 12 8 9 4 -2 10 0 14 6 6 10 15 14 15 7z"/>
<path fill="#ffffff" stroke="none" d="M1451 1817 c-6 -8 -7 -18 -3 -22 4 -5
1 -5 -6 -1 -10 6 -10 11 -1 22 6 8 14 14 16 14 3 0 0 -6 -6 -13z"/>
<path fill="#ffffff" stroke="none" d="M1566 1815 c-1 -8 -5 -17 -8 -21 -5 -4
-4 16 1 34 3 9 9 -1 7 -13z"/>
<path fill="#ffffff" stroke="none" d="M1637 1815 c0 -8 -4 -12 -9 -9 -5 3 -6
10 -3 15 9 13 12 11 12 -6z"/>
<path fill="#ffffff" stroke="none" d="M1687 1815 c0 -8 -4 -12 -9 -9 -5 3 -6
10 -3 15 9 13 12 11 12 -6z"/>
<path fill="#ffffff" stroke="none" d="M1831 1813 c13 -16 12 -17 -3 -4 -10 7
-18 15 -18 17 0 8 8 3 21 -13z"/>
<path fill="#ffffff" stroke="none" d="M1900 1827 c0 -2 -9 -12 -19 -21 -14
-13 -21 -14 -27 -5 -4 7 -3 10 3 6 6 -4 16 0 23 8 12 14 20 19 20 12z"/>
<path fill="#ffffff" stroke="none" d="M2047 1815 c0 -8 -4 -12 -9 -9 -5 3 -6
10 -3 15 9 13 12 11 12 -6z"/>
<path fill="#ffffff" stroke="none" d="M2286 1815 c-1 -8 -5 -17 -8 -21 -5 -4
-4 16 1 34 3 9 9 -1 7 -13z"/>
<path fill="#ffffff" stroke="none" d="M990 1816 c0 -2 -8 -10 -17 -17 -16
-13 -17 -12 -4 4 13 16 21 21 21 13z"/>
<path fill="#ffffff" stroke="none" d="M1297 1805 c0 -8 -4 -12 -9 -9 -5 3 -6
10 -3 15 9 13 12 11 12 -6z"/>
<path fill="#ffffff" stroke="none" d="M1937 1813 c-4 -3 -1 -13 6 -22 11 -14
10 -14 -5 -2 -16 12 -16 31 -1 31 4 0 3 -3 0 -7z"/>
<path fill="#ffffff" stroke="none" d="M2001 1803 c13 -16 12 -17 -3 -4 -10 7
-18 15 -18 17 0 8 8 3 21 -13z"/>
<path fill="#ffffff" stroke="none" d="M2136 1805 c-1 -8 -5 -17 -8 -21 -5 -4
-4 16 1 34 3 9 9 -1 7 -13z"/>
<path fill="#ffffff" stroke="none" d="M2187 1813 c-4 -3 -1 -13 6 -22 11 -14
10 -14 -5 -2 -16 12 -16 31 -1 31 4 0 3 -3 0 -7z"/>
<path fill="#ffffff" stroke="none" d="M2257 1803 c0 -9 -4 -10 -14 -2 -7 6
-13 12 -13 14 0 1 6 2 13 2 8 0 14 -6 14 -14z"/>
<path fill="#ffffff" stroke="none" d="M1010 1806 c0 -2 -8 -10 -17 -17 -16
-13 -17 -12 -4 4 13 16 21 21 21 13z"/>
<path fill="#ffffff" stroke="none" d="M1130 1806 c0 -2 -6 -9 -14 -15 -11 -9
-16 -9 -22 0 -4 7 -3 9 4 5 6 -3 13 -2 17 4 6 10 15 14 15 6z"/>
<path fill="#ffffff" stroke="none" d="M1247 1793 c0 -9 -4 -10 -14 -2 -7 6
-13 12 -13 14 0 1 6 2 13 2 8 0 14 -6 14 -14z"/>
<path fill="#ffffff" stroke="none" d="M2107 1795 c0 -8 -4 -12 -9 -9 -5 3 -6
10 -3 15 9 13 12 11 12 -6z"/>
<path fill="#ffffff" stroke="none" d="M2171 1783 c13 -16 12 -17 -3 -4 -10 7
-18 15 -18 17 0 8 8 3 21 -13z"/>
<path fill="#ffffff" stroke="none" d="M1020 1786 c0 -2 -8 -10 -17 -17 -16
-13 -17 -12 -4 4 13 16 21 21 21 13z"/>
<path fill="#ffffff" stroke="none" d="M2270 1774 c0 -8 -19 -13 -24 -6 -3 5
1 9 9 9 8 0 15 -2 15 -3z"/>
<path fill="#000000" stroke="none" d="M2827 1076 c-4 -10 -4 -23 0 -29 3 -7
3 -9 -2 -5 -8 8 -104 -100 -106 -119 -5 -48 -3 -61 13 -85 13 -19 25 -25 45
-23 34 3 68 42 53 60 -7 9 -5 16 7 26 16 13 17 12 5 -3 -9 -11 -10 -18 -2 -23
6 -3 8 -11 4 -16 -3 -6 2 -19 12 -30 18 -20 58 -19 78 2 8 9 7 10 -4 5 -9 -5
-8 -2 3 7 10 9 17 28 17 51 0 38 -7 44 -30 24 -8 -7 -6 -3 4 9 17 20 17 23 2
29 -9 3 -14 9 -11 14 6 10 -53 62 -64 56 -4 -3 -8 1 -8 9 0 8 5 11 11 8 7 -5
7 -2 0 8 -6 8 -13 21 -16 28 -3 12 -6 11 -11 -3z"/>
<path fill="#ffffff" stroke="none" d="M2830 1026 c0 -2 -8 -10 -17 -17 -16
-13 -17 -12 -4 4 13 16 21 21 21 13z"/>
<path fill="#ffffff" stroke="none" d="M2790 996 c0 -2 -8 -10 -17 -17 -16
-13 -17 -12 -4 4 13 16 21 21 21 13z"/>
<path fill="#ffffff" stroke="none" d="M2901 983 c13 -16 12 -17 -3 -4 -10 7
-18 15 -18 17 0 8 8 3 21 -13z"/>
<path fill="#ffffff" stroke="none" d="M2810 986 c0 -2 -8 -10 -17 -17 -16
-13 -17 -12 -4 4 13 16 21 21 21 13z"/>
<path fill="#ffffff" stroke="none" d="M2854 981 c3 -4 -7 -19 -22 -32 l-27
-24 23 26 c12 14 19 29 15 32 -3 4 -4 7 0 7 3 0 8 -4 11 -9z"/>
<path fill="#ffffff" stroke="none" d="M2830 976 c0 -2 -8 -10 -17 -17 -16
-13 -17 -12 -4 4 13 16 21 21 21 13z"/>
<path fill="#ffffff" stroke="none" d="M2889 966 c9 -11 9 -16 -1 -22 -7 -4
-10 -4 -6 1 4 4 3 14 -3 22 -6 7 -9 13 -6 13 2 0 10 -6 16 -14z"/>
<path fill="#ffffff" stroke="none" d="M2767 953 c-4 -3 1 -16 10 -27 18 -21
18 -21 -4 -2 -20 16 -23 36 -6 36 4 0 3 -3 0 -7z"/>
<path fill="#ffffff" stroke="none" d="M2866 936 c0 -14 -3 -23 -7 -20 -6 3
-6 22 0 42 3 10 7 -2 7 -22z"/>
<path fill="#ffffff" stroke="none" d="M2746 915 c1 -8 -5 -20 -14 -27 -15
-11 -15 -11 -6 2 6 8 10 23 8 33 -1 11 0 16 4 13 3 -4 7 -13 8 -21z"/>
<path fill="#ffffff" stroke="none" d="M2840 926 c0 -2 -6 -9 -14 -15 -11 -9
-16 -9 -22 0 -4 7 -3 9 4 5 6 -3 13 -2 17 4 6 10 15 14 15 6z"/>
<path fill="#ffffff" stroke="none" d="M2895 921 c3 -5 2 -12 -3 -15 -5 -3 -9
1 -9 9 0 17 3 19 12 6z"/>
<path fill="#ffffff" stroke="none" d="M2936 886 c0 -14 -3 -23 -7 -20 -6 3
-6 22 0 42 3 10 7 -2 7 -22z"/>
<path fill="#ffffff" stroke="none" d="M2890 886 c0 -2 -8 -10 -17 -17 -16
-13 -17 -12 -4 4 13 16 21 21 21 13z"/>
<path fill="#ffffff" stroke="none" d="M2812 865 c2 3 5 -2 5 -10 0 -19 0 -19
-23 7 -12 14 -13 18 -3 10 9 -6 18 -10 21 -7z"/>
<path fill="#ffffff" stroke="none" d="M2897 863 c-8 -10 -16 -22 -17 -28 -1
-5 -3 -12 -5 -13 -2 -2 -3 3 -1 11 2 16 25 47 34 47 3 0 -2 -8 -11 -17z"/>
<path fill="#ffffff" stroke="none" d="M2755 861 c3 -5 2 -12 -3 -15 -5 -3 -9
1 -9 9 0 17 3 19 12 6z"/>
<path fill="#ffffff" stroke="none" d="M2789 846 c9 -11 9 -16 -1 -22 -7 -4
-10 -4 -6 1 4 4 3 14 -3 22 -6 7 -9 13 -6 13 2 0 10 -6 16 -14z"/>
<path fill="#000000" stroke="none" d="M2630 776 c19 -7 38 -12 41 -10 4 2 9
-3 13 -11 3 -8 10 -15 16 -15 6 0 8 5 4 12 -5 7 -3 8 5 4 7 -5 10 -10 7 -13
-9 -9 56 -93 67 -86 6 3 7 1 3 -5 -4 -7 -2 -12 3 -12 10 0 15 14 12 33 -1 5 3
6 8 2 6 -3 8 -11 5 -18 -6 -17 32 -19 46 -2 26 31 -123 116 -230 130 l-35 5
35 -14z"/>
<path fill="#ffffff" stroke="none" d="M2749 736 c9 -11 9 -16 -1 -22 -7 -4
-10 -4 -6 1 4 4 3 14 -3 22 -6 7 -9 13 -6 13 2 0 10 -6 16 -14z"/>
<path fill="#ffffff" stroke="none" d="M2797 705 c0 -8 -4 -12 -9 -9 -5 3 -6
10 -3 15 9 13 12 11 12 -6z"/>
<path fill="#ffffff" stroke="none" d="M2834 681 c14 -15 15 -21 4 -27 -7 -4
-10 -3 -5 1 4 5 0 17 -10 27 -9 10 -14 18 -11 18 3 0 13 -9 22 -19z"/>
<path fill="#000000" stroke="none" d="M2715 642 c-96 -59 -139 -174 -107
-286 16 -58 51 -109 69 -102 7 3 12 0 10 -6 -7 -33 146 -75 165 -45 6 9 8 9 8
-1 0 -7 5 -10 10 -7 6 4 7 12 4 18 -5 9 -4 9 6 0 14 -13 41 -3 67 23 7 7 18
14 25 17 10 3 10 9 -1 28 -13 23 -13 23 4 9 16 -13 19 -12 33 9 21 31 27 67 9
55 -7 -5 -6 -2 3 6 16 16 27 56 12 46 -5 -3 -9 1 -9 9 0 8 4 12 9 9 4 -3 8 2
8 11 0 9 -4 14 -8 11 -5 -3 -9 1 -9 9 0 8 4 12 9 9 12 -8 -2 58 -20 86 -45 75
-152 138 -152 90 0 -5 10 -7 21 -5 12 3 19 2 15 -2 -9 -10 25 -44 37 -36 5 3
7 1 4 -4 -4 -6 -1 -26 7 -44 8 -19 15 -47 17 -64 2 -16 8 -36 14 -44 7 -11 7
-13 -3 -7 -8 5 -11 1 -9 -15 6 -40 -14 -113 -42 -149 -14 -19 -25 -38 -24 -41
1 -4 -3 -6 -10 -6 -41 1 -58 -4 -51 -15 5 -10 4 -10 -6 -1 -11 10 -17 10 -29
0 -12 -9 -13 -9 -7 1 6 10 -3 16 -24 14 -3 0 -26 18 -50 40 -25 23 -37 35 -27
28 24 -18 21 -5 -5 21 -13 12 -18 19 -12 16 9 -5 9 4 3 34 -6 23 -8 44 -5 46
3 3 1 15 -4 28 -5 13 -6 26 -2 29 11 11 10 51 -2 65 -8 11 -8 13 1 8 12 -7 40
29 35 45 -1 4 10 15 24 24 15 11 23 23 19 32 -5 13 -3 13 11 1 15 -12 17 -12
13 0 -8 22 -21 23 -54 3z"/>
<path fill="#ffffff" stroke="none" d="M2700 607 c0 -2 -10 -12 -22 -23 l-23
-19 19 23 c18 21 26 27 26 19z"/>
<path fill="#ffffff" stroke="none" d="M2975 580 c10 -11 16 -20 13 -20 -3 0
-13 9 -23 20 -10 11 -16 20 -13 20 3 0 13 -9 23 -20z"/>
<path fill="#ffffff" stroke="none" d="M2700 576 c0 -2 -8 -10 -17 -17 -16
-13 -17 -12 -4 4 13 16 21 21 21 13z"/>
<path fill="#ffffff" stroke="none" d="M2961 563 c13 -16 12 -17 -3 -4 -10 7
-18 15 -18 17 0 8 8 3 21 -13z"/>
<path fill="#ffffff" stroke="none" d="M3010 544 c0 -8 -19 -13 -24 -6 -3 5 1
9 9 9 8 0 15 -2 15 -3z"/>
<path fill="#ffffff" stroke="none" d="M2981 523 c13 -16 12 -17 -3 -4 -10 7
-18 15 -18 17 0 8 8 3 21 -13z"/>
<path fill="#ffffff" stroke="none" d="M3017 515 c0 -8 -4 -12 -9 -9 -5 3 -6
10 -3 15 9 13 12 11 12 -6z"/>
<path fill="#ffffff" stroke="none" d="M2665 511 c3 -5 2 -12 -3 -15 -5 -3 -9
1 -9 9 0 17 3 19 12 6z"/>
<path fill="#ffffff" stroke="none" d="M2640 495 c0 -2 -6 -8 -13 -14 -10 -8
-14 -7 -14 2 0 8 6 14 14 14 7 0 13 -1 13 -2z"/>
<path fill="#ffffff" stroke="none" d="M3000 495 c0 -2 -6 -8 -13 -14 -10 -8
-14 -7 -14 2 0 8 6 14 14 14 7 0 13 -1 13 -2z"/>
<path fill="#ffffff" stroke="none" d="M3020 487 c0 -2 -10 -12 -22 -23 l-23
-19 19 23 c18 21 26 27 26 19z"/>
<path fill="#ffffff" stroke="none" d="M2647 465 c0 -8 -4 -12 -9 -9 -5 3 -6
10 -3 15 9 13 12 11 12 -6z"/>
<path fill="#ffffff" stroke="none" d="M3007 435 c0 -8 -4 -12 -9 -9 -5 3 -6
10 -3 15 9 13 12 11 12 -6z"/>
<path fill="#ffffff" stroke="none" d="M2659 426 c9 -11 9 -16 -1 -22 -7 -4
-10 -4 -6 1 4 4 3 14 -3 22 -6 7 -9 13 -6 13 2 0 10 -6 16 -14z"/>
<path fill="#ffffff" stroke="none" d="M2636 404 c1 -9 0 -13 -4 -10 -3 4 -7
14 -8 22 -1 9 0 13 4 10 3 -4 7 -14 8 -22z"/>
<path fill="#ffffff" stroke="none" d="M3010 407 c0 -2 -10 -12 -22 -23 l-23
-19 19 23 c18 21 26 27 26 19z"/>
<path fill="#ffffff" stroke="none" d="M2625 381 c3 -5 2 -12 -3 -15 -5 -3 -9
1 -9 9 0 17 3 19 12 6z"/>
<path fill="#ffffff" stroke="none" d="M3020 386 c0 -2 -8 -10 -17 -17 -16
-13 -17 -12 -4 4 13 16 21 21 21 13z"/>
<path fill="#ffffff" stroke="none" d="M2667 355 c0 -8 -4 -12 -9 -9 -5 3 -6
10 -3 15 9 13 12 11 12 -6z"/>
<path fill="#ffffff" stroke="none" d="M2975 331 c3 -5 2 -12 -3 -15 -5 -3 -9
1 -9 9 0 17 3 19 12 6z"/>
<path fill="#ffffff" stroke="none" d="M3020 324 c0 -8 -19 -13 -24 -6 -3 5 1
9 9 9 8 0 15 -2 15 -3z"/>
<path fill="#ffffff" stroke="none" d="M2661 303 c2 1 3 0 2 -2 -2 -2 2 -10 8
-17 7 -9 6 -14 -3 -20 -7 -4 -10 -3 -5 1 4 5 -3 20 -15 34 -13 14 -16 20 -7
13 9 -6 18 -11 20 -9z"/>
<path fill="#ffffff" stroke="none" d="M2959 276 c9 -11 9 -16 -1 -22 -7 -4
-10 -4 -6 1 4 4 3 14 -3 22 -6 7 -9 13 -6 13 2 0 10 -6 16 -14z"/>
<path fill="#ffffff" stroke="none" d="M2931 257 c-6 -8 -8 -16 -5 -19 3 -3 1
-9 -4 -12 -6 -3 -9 0 -8 6 2 16 15 38 23 38 3 0 0 -6 -6 -13z"/>
<path fill="#ffffff" stroke="none" d="M2741 223 c13 -16 12 -17 -3 -4 -10 7
-18 15 -18 17 0 8 8 3 21 -13z"/>
</g>
</svg>
