<?xml version="1.0" standalone="no"?>
<!DOCTYPE svg PUBLIC "-//W3C//DTD SVG 20010904//EN"
 "http://www.w3.org/TR/2001/REC-SVG-20010904/DTD/svg10.dtd">
<svg version="1.0" xmlns="http://www.w3.org/2000/svg"
 width="317.000000pt" height="451.000000pt" viewBox="0 0 317.000000 451.000000"
 preserveAspectRatio="xMidYMid meet">
<metadata>
Created by potrace 1.16, written by Peter Selinger 2001-2019
</metadata>
<g transform="translate(0.000000,451.000000) scale(0.100000,-0.100000)"
fill="#000000" stroke="none">
<path fill="#000000" stroke="none" d="M213 4292 c-29 -14 -53 -30 -53 -34 0
-5 9 -4 19 1 37 20 45 -9 46 -177 1 -176 -3 -205 -31 -210 -36 -7 -33 -17 6
-18 26 -1 37 3 33 10 -4 6 2 4 12 -4 15 -12 17 -12 10 -1 -6 10 -4 12 6 5 18
-11 67 -15 73 -5 3 4 -5 8 -16 8 -12 1 -25 6 -31 12 -6 6 -10 96 -9 225 0 119
-3 216 -6 215 -4 0 -31 -12 -59 -27z"/>
<path fill="#000000" stroke="none" d="M442 4300 c-36 -22 -75 -78 -67 -98 3
-7 1 -11 -4 -8 -12 8 -19 -35 -19 -116 0 -76 6 -110 18 -103 5 3 6 -5 2 -17
-3 -13 -1 -19 5 -15 6 4 10 -1 9 -11 0 -9 4 -16 10 -15 7 1 11 -5 10 -15 0 -9
5 -16 12 -14 8 1 11 -2 7 -7 -3 -6 4 -15 15 -21 30 -16 80 -16 91 1 4 8 12 14
16 14 4 0 7 3 6 6 -1 4 5 6 14 5 18 -1 56 60 47 76 -4 7 -2 8 4 4 7 -4 12 0
13 11 0 10 3 27 5 38 9 37 4 140 -8 175 -18 54 -50 98 -85 115 -41 20 -61 19
-101 -5z"/>
<path fill="#ffffff" stroke="none" d="M500 4297 c0 23 49 -29 61 -65 6 -19
13 -70 14 -112 1 -42 6 -83 10 -90 5 -8 4 -11 -2 -7 -6 4 -10 -5 -11 -21 -3
-76 -32 -123 -80 -133 -17 -3 -29 -3 -27 1 3 4 -2 13 -10 20 -14 12 -38 80
-38 110 0 8 -5 21 -11 29 -8 12 -8 13 2 7 12 -7 11 15 -4 62 -2 7 1 10 6 7 14
-9 12 8 -2 24 -11 11 -10 12 0 7 10 -6 12 1 9 33 -2 25 0 38 6 34 6 -4 8 2 5
15 -4 12 -2 22 4 22 6 0 7 7 4 16 -3 8 -2 12 4 9 6 -3 10 1 10 10 0 9 5 13 10
10 6 -3 13 1 16 10 6 13 8 14 15 3 7 -10 9 -10 9 -1z"/>
<path fill="#000000" stroke="none" d="M974 3898 c-27 -18 -83 -66 -125 -108
-85 -85 -143 -186 -144 -250 0 -21 -3 -36 -7 -34 -9 6 -1 -77 11 -108 14 -38
69 -87 84 -75 2 1 10 -3 18 -9 15 -11 18 -11 72 -1 20 5 37 12 37 18 0 6 5 7
10 4 6 -3 10 2 10 11 0 10 3 14 6 11 4 -4 15 8 24 26 14 24 15 35 6 46 -9 12
-8 13 3 6 12 -7 13 -1 8 33 -5 27 -3 43 5 48 6 4 8 3 5 -4 -8 -12 2 -44 12
-37 8 5 6 -168 -3 -205 -17 -72 -18 -69 27 -67 25 1 41 7 40 13 -4 19 -12 58
-18 84 -11 48 -7 141 7 157 11 14 11 15 -1 9 -11 -7 0 17 26 53 1 2 0 -13 -4
-32 -3 -20 -2 -52 1 -71 7 -38 54 -94 82 -99 11 -1 25 -6 32 -10 7 -5 12 -3
12 5 0 11 2 11 9 0 7 -11 15 -10 47 4 21 9 44 16 49 15 6 -2 7 1 3 5 -5 4 0
13 11 20 10 7 24 33 31 58 11 39 10 66 -2 164 -1 6 -5 12 -10 12 -4 0 -7 3 -6
8 5 15 -25 71 -35 65 -6 -3 -7 -1 -3 6 8 13 -44 82 -109 145 -42 41 -148 116
-163 116 -5 0 -31 -14 -58 -32z"/>
<path fill="#000000" stroke="none" d="M2090 3891 c-109 -76 -249 -242 -235
-279 3 -8 0 -10 -7 -6 -7 5 -9 0 -6 -14 4 -12 3 -20 -2 -17 -11 7 -19 -42 -16
-111 2 -50 7 -69 30 -98 33 -44 84 -69 105 -52 12 9 13 8 7 -3 -7 -10 -3 -11
15 -5 13 4 30 7 37 7 8 0 31 17 52 37 36 35 38 39 36 96 -1 43 -5 58 -14 56
-8 -1 -11 2 -7 8 17 28 55 -45 57 -112 2 -40 -8 -122 -21 -163 -8 -30 -8 -30
35 -32 46 -2 46 -3 29 74 -3 12 -8 46 -11 75 -2 29 -7 59 -9 66 -3 7 0 10 5 7
9 -5 15 32 11 58 -1 5 3 6 8 3 5 -4 12 2 14 11 3 10 5 0 4 -22 0 -67 3 -86 13
-80 5 3 7 0 5 -7 -7 -17 28 -56 63 -70 40 -16 53 -18 45 -5 -4 8 -1 7 9 -1 13
-10 17 -10 21 0 4 9 6 9 6 1 2 -21 88 36 104 69 9 18 13 36 11 40 -3 4 -1 8 3
8 14 0 14 52 1 68 -10 13 -10 14 0 8 16 -9 16 -9 -8 65 -24 76 -63 145 -80
141 -6 -1 -8 2 -5 8 14 22 -203 211 -239 209 -6 0 -36 -17 -66 -38z"/>
<path fill="#000000" stroke="none" d="M324 3754 c-45 -31 -75 -67 -90 -108
-12 -33 -7 -69 7 -60 5 3 6 -3 2 -12 -5 -14 -3 -16 11 -11 10 4 15 3 11 -3 -4
-6 7 -8 26 -6 34 4 48 19 50 51 0 20 1 20 8 1 4 -11 4 -37 1 -58 -6 -33 -5
-38 11 -38 15 0 17 4 11 23 -5 12 -7 28 -6 35 1 6 2 20 3 30 1 11 7 6 16 -15
8 -18 17 -33 20 -33 3 0 3 5 0 11 -4 6 2 5 13 -2 17 -10 25 -10 46 5 22 14 26
24 25 54 -2 36 -28 84 -59 110 -8 7 -27 21 -41 32 l-27 20 -38 -26z"/>
<path fill="#000000" stroke="none" d="M1530 3418 c-72 -50 -102 -76 -158
-141 -29 -34 -50 -68 -47 -75 2 -7 1 -11 -4 -8 -9 6 -31 -42 -49 -106 -7 -26
-7 -40 2 -49 8 -9 8 -10 -1 -5 -14 8 -11 -44 5 -85 13 -34 60 -81 73 -74 5 4
9 2 9 -2 0 -8 81 -10 88 -3 1 1 7 3 12 4 6 0 14 6 18 13 4 6 11 10 16 10 17
-3 44 59 42 100 0 22 -7 49 -15 59 -7 10 -2 6 13 -9 14 -15 26 -37 26 -48 0
-13 4 -18 12 -13 7 5 8 3 4 -5 -5 -7 -10 -40 -11 -74 -4 -60 -8 -90 -20 -126
-4 -14 2 -18 35 -19 39 -3 40 -2 35 25 -17 83 -25 224 -12 216 7 -4 12 21 7
42 -1 6 2 6 7 2 4 -5 8 -28 9 -52 1 -48 28 -100 46 -89 6 4 8 3 5 -3 -19 -31
87 -53 138 -28 38 18 67 52 69 80 0 13 4 21 9 18 4 -2 5 26 3 64 -5 88 -5 85
-13 80 -5 -3 -9 7 -10 21 0 15 -6 28 -12 30 -6 2 -9 8 -5 13 3 5 0 9 -7 9 -7
0 -10 3 -6 6 9 10 -74 115 -86 107 -5 -3 -7 -1 -4 4 8 13 -17 36 -28 25 -5 -4
-5 -2 -2 4 5 9 -39 48 -113 97 -31 21 -27 22 -80 -15z"/>
<path fill="#000000" stroke="none" d="M974 3021 c-110 -74 -244 -228 -248
-286 0 -13 -4 -21 -7 -19 -12 7 -26 -85 -15 -97 8 -9 8 -10 -1 -5 -9 5 -11 -4
-8 -33 5 -50 32 -104 47 -95 7 4 8 3 4 -4 -4 -7 6 -20 25 -31 36 -22 130 -24
137 -3 2 7 8 10 12 7 8 -5 43 36 65 74 6 10 4 12 -6 6 -11 -7 -12 -6 -2 6 7 8
10 31 7 51 -2 22 1 40 8 44 6 4 8 3 5 -4 -8 -12 2 -44 12 -37 11 6 5 -163 -7
-215 -6 -24 -10 -45 -9 -46 3 -3 51 -6 72 -5 11 1 16 5 10 9 -5 4 -11 22 -13
41 -1 19 -8 41 -15 50 -10 12 -9 13 2 6 9 -5 12 -4 7 3 -8 14 -12 104 -5 117
4 6 5 20 4 32 -1 13 3 19 8 16 6 -4 8 1 4 11 -4 9 -3 15 2 11 5 -3 11 1 14 7
2 7 2 -12 0 -42 -4 -57 13 -107 35 -103 7 2 9 -4 5 -15 -3 -9 -3 -14 2 -10 4
4 13 1 19 -8 19 -26 99 -28 147 -4 28 15 39 26 35 36 -3 8 -2 13 3 10 20 -13
36 29 37 102 2 77 -22 160 -59 202 -8 10 -13 20 -11 23 6 6 -123 138 -171 174
-93 69 -85 68 -151 24z"/>
<path fill="#000000" stroke="none" d="M2099 3023 c-67 -45 -177 -154 -212
-210 -60 -95 -82 -218 -52 -290 16 -37 63 -85 76 -77 4 2 10 0 14 -6 3 -5 22
-10 41 -10 19 0 33 4 30 9 -4 5 4 7 16 3 13 -3 19 -1 15 5 -4 6 1 10 11 9 9 0
16 5 14 12 -1 8 1 11 6 8 11 -6 42 30 47 55 2 11 7 24 11 31 5 7 3 8 -7 3 -12
-8 -12 -6 0 8 9 12 10 17 2 17 -7 0 -9 4 -6 10 3 5 1 19 -5 30 -6 11 -8 20 -6
20 3 0 15 -18 26 -39 19 -38 34 -185 18 -175 -4 3 -6 -4 -6 -13 1 -22 -9 -69
-16 -82 -8 -13 10 -17 50 -13 30 4 34 7 28 26 -4 11 -8 31 -8 44 0 12 -3 22
-7 22 -3 0 -4 12 -1 26 4 21 2 25 -9 19 -11 -6 -11 -5 -3 4 7 8 8 27 4 51 -4
22 -3 37 1 34 5 -3 9 4 9 14 0 11 7 33 15 48 15 29 15 29 11 -21 -4 -58 8 -89
47 -128 23 -23 31 -26 43 -16 12 10 13 9 9 -3 -5 -12 3 -15 40 -14 25 0 45 4
45 9 0 4 4 6 9 2 12 -7 83 64 76 75 -3 5 -1 10 4 12 17 5 23 69 9 86 -11 13
-11 14 1 7 11 -6 13 -4 8 8 -3 8 -9 32 -13 51 -3 21 -10 33 -17 29 -6 -3 -7
-1 -3 6 9 15 -3 53 -15 46 -5 -3 -6 0 -3 8 3 8 -2 20 -11 27 -8 7 -15 18 -15
24 -1 27 -173 186 -239 220 -27 14 -31 13 -82 -21z"/>
<path fill="#000000" stroke="none" d="M969 2142 c-78 -55 -99 -74 -92 -86 3
-6 2 -8 -2 -3 -11 9 -46 -23 -39 -35 3 -4 1 -7 -5 -6 -15 4 -93 -103 -87 -119
3 -8 2 -12 -3 -8 -13 7 -41 -82 -45 -142 -4 -55 14 -119 32 -116 6 2 9 -3 6
-11 -6 -16 42 -50 58 -40 6 4 8 3 5 -3 -4 -6 0 -14 9 -17 10 -4 13 -2 8 7 -5
9 -4 9 7 0 7 -7 17 -13 22 -13 4 0 5 6 1 13 -5 9 -4 9 6 0 10 -9 19 -9 40 2
15 8 31 11 35 7 5 -4 5 1 2 10 -3 10 -3 17 1 17 18 -3 35 2 29 8 -4 3 0 11 7
17 29 22 31 136 3 120 -7 -4 -8 -3 -4 1 9 11 37 16 35 7 -1 -4 3 -24 9 -44 6
-20 10 -52 9 -71 -1 -20 3 -33 8 -30 5 4 6 0 0 -8 -4 -8 -9 -18 -10 -24 -9
-54 -13 -74 -19 -98 -7 -28 -7 -28 34 -25 23 1 45 6 47 10 3 4 1 8 -5 8 -6 0
-8 7 -5 15 3 8 2 20 -2 27 -5 7 -9 24 -10 38 -1 14 -3 27 -4 30 -7 15 3 117
13 129 10 12 9 13 -2 6 -8 -5 -5 6 8 23 12 18 25 32 28 32 3 0 0 -7 -7 -15
-18 -22 -7 -110 17 -143 11 -15 23 -25 27 -22 4 3 12 -2 17 -12 5 -10 19 -15
34 -14 13 2 22 -1 19 -5 -3 -5 0 -9 5 -9 6 0 11 6 11 13 0 8 3 8 9 -2 8 -12
12 -12 25 -2 9 8 16 10 16 7 0 -4 14 2 30 14 41 29 70 89 70 145 0 57 -19 137
-31 129 -5 -3 -6 1 -4 8 11 28 -91 162 -176 233 -39 33 -117 85 -127 85 -5 0
-33 -17 -63 -38z"/>
<path fill="#000000" stroke="none" d="M2095 2144 c-103 -71 -235 -219 -219
-246 4 -6 3 -8 -3 -5 -30 18 -68 -187 -42 -220 12 -14 12 -16 0 -8 -10 6 -8
-3 6 -26 11 -19 26 -33 32 -31 7 1 10 -2 7 -7 -6 -10 16 -32 36 -35 7 -1 18
-4 23 -7 16 -8 67 -4 95 9 48 21 73 59 78 119 3 37 1 54 -6 49 -6 -4 -8 2 -4
16 5 19 7 20 10 5 2 -9 8 -15 13 -11 5 3 9 2 8 -3 -4 -25 2 -44 14 -37 9 5 9
4 0 -6 -7 -7 -8 -22 -3 -39 8 -28 7 -35 -15 -169 l-8 -43 42 3 c40 2 42 3 36
27 -16 62 -18 80 -18 151 0 50 6 85 17 105 l16 30 -4 -44 c-4 -50 2 -83 15
-75 5 3 6 -1 4 -8 -7 -19 50 -72 66 -63 8 5 10 4 5 -3 -4 -7 -1 -12 8 -12 8 0
22 -3 32 -7 13 -5 15 -3 9 8 -7 11 -6 12 6 2 12 -10 21 -9 42 2 15 8 27 11 27
7 0 -4 5 1 11 11 6 9 15 14 21 11 6 -4 8 -3 5 3 -4 6 0 16 9 23 8 7 13 19 10
27 -4 9 -1 11 6 7 8 -5 9 -2 5 9 -4 10 -2 17 5 17 6 0 5 6 -3 17 -10 11 -10
14 -1 9 7 -4 12 -2 12 6 0 8 -6 20 -12 27 -10 11 -10 13 0 7 6 -4 12 -3 12 1
0 5 -6 15 -12 22 -8 9 -9 12 -1 7 8 -4 8 3 1 29 -6 19 -15 32 -19 30 -4 -3 -5
4 -2 15 3 12 0 20 -6 20 -7 0 -10 4 -6 10 8 13 -75 131 -87 123 -6 -3 -8 -2
-5 4 11 18 -176 174 -207 172 -6 0 -33 -16 -61 -35z"/>
<path fill="#000000" stroke="none" d="M1550 1682 c-66 -43 -139 -106 -134
-114 3 -4 1 -7 -4 -6 -6 2 -22 -10 -37 -27 -65 -74 -124 -216 -101 -244 8 -11
8 -13 -1 -8 -9 6 -11 -2 -9 -25 6 -50 24 -90 38 -82 7 4 8 3 4 -5 -14 -21 32
-51 91 -58 37 -5 78 14 112 51 31 33 39 112 13 133 -15 12 -14 13 6 3 12 -6
22 -18 22 -26 0 -8 4 -13 8 -10 9 5 7 -145 -2 -184 -17 -67 -17 -67 25 -68 42
-2 42 -4 24 78 -2 8 -4 28 -4 43 -1 20 -5 26 -13 21 -10 -6 -10 -5 -1 7 10 12
10 18 0 29 -9 10 -9 11 1 6 11 -7 16 14 16 76 0 9 3 15 8 12 4 -3 8 0 8 5 0 6
5 11 11 11 8 0 8 -4 2 -12 -24 -30 12 -149 39 -132 6 4 8 3 5 -3 -4 -6 5 -19
19 -28 18 -11 24 -12 18 -4 -7 12 -5 12 9 1 20 -17 86 -10 98 10 5 7 9 9 9 5
0 -11 33 23 51 53 24 40 23 114 -2 185 -12 35 -27 61 -32 58 -6 -4 -7 -1 -3 6
5 7 0 19 -10 27 -11 9 -13 12 -5 8 8 -4 0 11 -19 34 -18 23 -37 39 -43 35 -6
-3 -7 -1 -4 4 7 11 -67 79 -137 125 -48 32 -44 32 -76 10z"/>
<path fill="#000000" stroke="none" d="M970 1268 c-75 -51 -213 -195 -206
-215 3 -8 2 -12 -2 -9 -12 7 -44 -63 -36 -76 4 -6 2 -8 -4 -5 -10 7 -24 -48
-27 -108 -2 -45 14 -97 27 -89 7 4 8 3 4 -5 -10 -15 13 -43 27 -34 6 3 7 1 3
-5 -8 -14 30 -36 46 -26 7 4 8 3 4 -4 -5 -8 5 -12 34 -12 23 0 39 3 37 8 -3 4
6 8 20 9 30 1 87 59 79 79 -3 8 -1 14 4 14 11 0 6 75 -6 93 -5 7 -2 5 7 -5 9
-9 18 -15 20 -13 12 11 16 -161 6 -210 -4 -16 -9 -42 -13 -57 -3 -18 -1 -28 6
-28 6 0 8 6 4 13 -6 9 -4 9 7 -1 16 -15 33 -16 23 0 -5 7 -3 8 7 2 18 -11 40
-14 34 -5 -4 8 -9 31 -21 106 -10 63 -10 144 0 137 5 -3 7 5 3 17 -3 13 -3 20
1 17 3 -4 11 2 16 13 9 16 11 6 11 -46 0 -65 1 -66 44 -104 39 -35 48 -39 92
-37 27 2 49 6 49 10 0 5 3 7 8 7 21 -4 33 5 60 46 24 36 30 55 30 102 0 32 -5
64 -12 72 -8 11 -8 13 0 8 7 -4 5 11 -4 37 -9 25 -21 42 -26 39 -5 -3 -6 -1
-2 5 9 15 -73 134 -87 125 -5 -3 -7 -2 -4 4 9 14 -91 103 -175 156 -26 16 -27
15 -88 -25z"/>
<path fill="#000000" stroke="none" d="M2129 1291 c-66 -42 -129 -94 -123
-102 3 -5 0 -8 -8 -7 -7 2 -12 -3 -10 -10 1 -8 -2 -11 -7 -8 -15 9 -88 -86
-122 -158 -50 -108 -50 -217 1 -276 10 -12 24 -19 30 -15 6 3 9 1 8 -7 -2 -7
5 -12 14 -12 10 1 15 -2 12 -7 -3 -5 21 -7 52 -5 33 2 60 10 65 18 5 7 9 9 9
5 0 -5 12 6 26 23 29 34 43 122 24 145 -8 9 -8 15 0 20 6 4 9 3 8 -2 -1 -4 6
-24 17 -43 21 -40 22 -119 2 -216 -12 -56 -12 -60 5 -61 10 -1 16 2 14 6 -3 4
1 8 9 8 8 0 12 -5 8 -10 -3 -5 3 -7 13 -5 19 4 21 15 9 73 -4 17 -6 40 -6 53
1 16 -3 21 -12 16 -9 -6 -9 -4 -2 7 6 8 10 37 10 66 0 28 4 49 9 45 5 -3 7 5
4 16 -4 12 -2 20 2 17 5 -3 10 3 12 12 3 10 4 -10 4 -43 0 -63 24 -121 45
-109 5 4 8 3 7 -2 -2 -4 0 -8 3 -8 3 0 13 -7 22 -16 32 -33 182 -1 160 34 -3
6 -1 7 5 3 13 -8 46 39 38 53 -4 5 -2 12 2 15 12 7 12 96 1 96 -5 0 -6 6 -3
14 13 35 -87 204 -160 270 -44 39 -102 83 -136 103 -33 19 -37 20 -61 4z"/>
<path fill="#000000" stroke="none" d="M2823 961 c3 -22 1 -41 -4 -41 -4 0 -7
-6 -5 -12 1 -7 1 -10 -1 -5 -3 4 -10 4 -16 0 -7 -4 -6 0 1 10 18 21 9 34 -29
42 -41 9 -69 -16 -69 -62 0 -23 4 -32 12 -27 7 4 8 3 4 -5 -11 -17 43 -93 61
-87 8 3 12 2 9 -3 -3 -5 2 -15 11 -22 14 -12 16 -12 9 1 -6 11 -4 11 6 -1 9
-11 20 -14 33 -9 43 16 142 140 112 140 -9 0 -9 2 0 8 19 12 -7 55 -39 66 -22
8 -32 6 -48 -9 -11 -10 -20 -24 -20 -32 0 -7 -3 -13 -8 -13 -7 0 -8 51 0 79 1
7 -3 16 -11 19 -11 4 -13 -4 -8 -37z"/>
<path fill="#000000" stroke="none" d="M2640 643 c-59 -41 -85 -101 -89 -199
-3 -72 7 -136 20 -128 5 3 6 -2 3 -11 -7 -18 23 -68 36 -60 6 3 7 -1 4 -9 -11
-29 79 -55 115 -32 10 7 12 5 7 -5 -4 -8 2 -3 14 11 12 14 18 19 14 11 -5 -9
-3 -12 4 -7 7 4 12 14 12 22 0 8 5 14 11 14 6 0 9 7 5 15 -3 8 0 14 6 12 13
-2 26 39 34 103 3 25 7 50 9 57 2 7 0 15 -4 17 -5 3 -6 18 -3 32 4 20 2 25 -8
19 -8 -5 -11 -4 -6 3 9 15 -4 63 -15 56 -5 -3 -6 1 -3 9 3 9 -10 30 -31 51
-28 29 -43 36 -73 36 -21 0 -49 -8 -62 -17z"/>
<path fill="#ffffff" stroke="none" d="M2727 635 c-1 -5 3 -9 9 -8 6 1 11 -3
12 -10 2 -23 24 -102 34 -121 5 -10 6 -16 1 -13 -4 3 -8 -37 -8 -88 0 -51 -3
-91 -7 -88 -7 4 -12 -22 -11 -55 1 -7 -1 -11 -4 -9 -2 3 -13 -3 -24 -14 -21
-21 -48 -21 -73 0 -21 17 -38 81 -42 153 -1 32 -6 63 -10 69 -4 8 -3 9 4 5 16
-10 15 7 0 23 -11 11 -10 12 0 7 10 -6 12 1 9 33 -2 22 -1 38 3 36 7 -5 24 51
21 68 -1 5 3 6 9 2 5 -3 10 -1 10 5 0 6 5 8 10 5 6 -3 10 -3 10 2 0 4 11 8 24
8 13 0 24 -4 23 -10z"/>
<path fill="#000000" stroke="none" d="M2860 648 c0 -4 8 -8 18 -8 11 0 23
-10 28 -22 6 -13 9 -114 9 -225 -1 -112 1 -203 5 -203 3 0 14 6 25 14 11 7 22
13 25 13 3 0 19 7 35 17 23 13 25 16 8 13 -40 -9 -46 13 -45 181 0 202 1 212
10 211 21 -4 54 2 48 8 -10 10 -166 11 -166 1z"/>
</g>
</svg>
