<?xml version="1.0" standalone="no"?>
<!DOCTYPE svg PUBLIC "-//W3C//DTD SVG 20010904//EN"
 "http://www.w3.org/TR/2001/REC-SVG-20010904/DTD/svg10.dtd">
<svg version="1.0" xmlns="http://www.w3.org/2000/svg"
 width="318.000000pt" height="450.000000pt" viewBox="0 0 318.000000 450.000000"
 preserveAspectRatio="xMidYMid meet">
<metadata>
Created by potrace 1.16, written by Peter Selinger 2001-2019
</metadata>
<g transform="translate(0.000000,450.000000) scale(0.100000,-0.100000)"
fill="#000000" stroke="none">
<path fill="#000000" stroke="none" d="M368 4306 c-7 -8 -56 -75 -108 -150
-102 -148 -125 -212 -61 -172 9 6 12 5 8 -1 -4 -6 4 -10 18 -10 16 0 22 4 18
11 -4 7 -1 6 8 -1 12 -10 18 -10 29 0 10 9 11 9 6 0 -4 -7 -3 -13 2 -13 16 0
22 13 12 25 -7 8 -5 12 4 12 8 0 13 -8 11 -17 -2 -13 3 -17 21 -17 23 0 24 1
9 17 -8 9 -12 20 -8 23 3 4 -28 7 -70 7 -48 0 -77 4 -77 11 0 5 4 8 9 5 5 -3
14 8 21 24 7 16 16 27 21 24 5 -3 8 -2 7 3 -2 4 9 24 25 44 15 20 27 41 27 48
0 7 5 9 12 5 7 -4 8 -3 4 5 -4 6 -1 14 8 17 8 3 13 14 11 25 -5 26 -1 24 20
-7 9 -15 13 -24 8 -21 -12 8 -11 -153 1 -172 6 -9 5 -12 -1 -8 -17 11 -23 -20
-7 -34 8 -7 11 -16 6 -23 -7 -9 -9 -69 -3 -104 0 -5 11 -8 23 -7 21 1 23 7 24
61 1 32 -4 66 -10 74 -9 13 -9 13 5 3 9 -7 20 -9 24 -5 5 4 5 1 1 -5 -4 -7 -3
-13 2 -13 16 0 22 13 12 25 -7 8 -5 12 4 12 8 0 13 -8 11 -19 -2 -10 0 -18 6
-18 5 0 9 11 9 25 0 21 -5 25 -31 25 -20 0 -28 -4 -23 -12 4 -6 3 -8 -3 -5 -5
3 -8 40 -7 82 2 52 -1 73 -8 69 -7 -5 -8 -2 -2 7 13 22 14 42 1 58 -9 12 -9
13 1 7 7 -4 12 -1 12 9 0 10 -5 14 -12 9 -10 -6 -10 -4 0 7 17 18 15 56 -3 63
-8 3 -20 -1 -27 -8z"/>
<path fill="#ffffff" stroke="none" d="M390 4306 c0 -2 -8 -10 -17 -17 -16
-13 -17 -12 -4 4 13 16 21 21 21 13z"/>
<path fill="#ffffff" stroke="none" d="M397 4275 c0 -8 -4 -12 -9 -9 -5 3 -6
10 -3 15 9 13 12 11 12 -6z"/>
<path fill="#ffffff" stroke="none" d="M377 4235 c0 -8 -4 -12 -9 -9 -5 3 -6
10 -3 15 9 13 12 11 12 -6z"/>
<path fill="#ffffff" stroke="none" d="M384 4182 c3 -5 -1 -9 -9 -9 -8 0 -12
4 -9 9 3 4 7 8 9 8 2 0 6 -4 9 -8z"/>
<path fill="#ffffff" stroke="none" d="M390 4134 c0 -8 -19 -13 -24 -6 -3 5 1
9 9 9 8 0 15 -2 15 -3z"/>
<path fill="#ffffff" stroke="none" d="M397 4105 c0 -8 -4 -12 -9 -9 -5 3 -6
10 -3 15 9 13 12 11 12 -6z"/>
<path fill="#ffffff" stroke="none" d="M387 4045 c0 -8 -4 -12 -9 -9 -5 3 -6
10 -3 15 9 13 12 11 12 -6z"/>
<path fill="#ffffff" stroke="none" d="M240 4004 c0 -8 -19 -13 -24 -6 -3 5 1
9 9 9 8 0 15 -2 15 -3z"/>
<path fill="#ffffff" stroke="none" d="M280 4004 c0 -8 -19 -13 -24 -6 -3 5 1
9 9 9 8 0 15 -2 15 -3z"/>
<path fill="#ffffff" stroke="none" d="M387 3915 c0 -8 -4 -12 -9 -9 -5 3 -6
10 -3 15 9 13 12 11 12 -6z"/>
<path fill="#000000" stroke="none" d="M986 3879 c-34 -62 -133 -196 -203
-276 -57 -66 -59 -77 -16 -114 21 -19 41 -44 129 -164 37 -49 71 -89 76 -87 5
1 7 -2 3 -8 -6 -10 31 -80 42 -80 3 0 2 12 -2 28 -6 25 -5 26 8 8 13 -17 14
-17 20 -2 4 9 3 15 -1 12 -5 -3 -9 1 -9 8 0 8 6 12 12 10 11 -5 69 70 70 89 0
4 11 20 25 34 14 15 20 24 15 21 -7 -4 -11 3 -11 17 0 13 4 21 8 19 5 -3 5
-10 2 -16 -4 -6 -1 -9 7 -6 8 3 19 15 25 27 6 12 21 32 33 45 11 12 21 28 21
35 0 7 5 9 13 5 6 -4 1 6 -13 22 -23 27 -23 27 -2 9 l24 -19 18 24 c18 24 18
25 -18 62 -20 20 -40 34 -45 31 -6 -3 -7 -1 -3 6 10 15 -13 43 -27 34 -5 -3
-7 -1 -4 4 9 15 -51 95 -65 87 -6 -4 -8 -3 -5 3 4 6 -17 49 -46 96 l-53 84
-28 -48z"/>
<path fill="#ffffff" stroke="none" d="M1025 3891 c3 -5 2 -12 -3 -15 -5 -3
-9 1 -9 9 0 17 3 19 12 6z"/>
<path fill="#ffffff" stroke="none" d="M1040 3867 c0 -2 -8 -11 -18 -20 -15
-14 -19 -15 -19 -2 0 8 4 12 8 9 4 -2 10 0 14 6 6 10 15 14 15 7z"/>
<path fill="#ffffff" stroke="none" d="M987 3825 c0 -8 -4 -12 -9 -9 -5 3 -6
10 -3 15 9 13 12 11 12 -6z"/>
<path fill="#ffffff" stroke="none" d="M1047 3813 c0 -7 -10 -21 -21 -30 -21
-18 -21 -18 -4 3 12 14 14 24 8 30 -7 7 -6 11 3 11 8 0 14 -6 14 -14z"/>
<path fill="#ffffff" stroke="none" d="M1014 3811 c3 -5 -1 -14 -8 -20 -10 -9
-16 -9 -21 -1 -4 6 -1 9 7 8 7 -2 12 3 11 10 -3 14 3 16 11 3z"/>
<path fill="#ffffff" stroke="none" d="M967 3803 c-4 -3 -2 -12 4 -19 7 -8 6
-14 -2 -20 -7 -4 -9 -3 -5 4 3 6 2 13 -4 17 -10 6 -5 25 7 25 4 0 3 -3 0 -7z"/>
<path fill="#ffffff" stroke="none" d="M1081 3793 c13 -16 12 -17 -3 -4 -10 7
-18 15 -18 17 0 8 8 3 21 -13z"/>
<path fill="#ffffff" stroke="none" d="M1064 3781 c3 -5 -1 -14 -8 -20 -10 -9
-16 -9 -21 -1 -4 6 -1 9 7 8 7 -2 12 3 11 10 -3 14 3 16 11 3z"/>
<path fill="#ffffff" stroke="none" d="M947 3765 c0 -8 -4 -12 -9 -9 -5 3 -6
10 -3 15 9 13 12 11 12 -6z"/>
<path fill="#ffffff" stroke="none" d="M996 3755 c-1 -8 -5 -17 -8 -21 -5 -4
-4 16 1 34 3 9 9 -1 7 -13z"/>
<path fill="#ffffff" stroke="none" d="M1090 3766 c0 -2 -8 -10 -17 -17 -16
-13 -17 -12 -4 4 13 16 21 21 21 13z"/>
<path fill="#ffffff" stroke="none" d="M929 3746 c8 -10 8 -16 -3 -25 -10 -8
-16 -9 -21 -1 -4 6 -3 10 2 9 20 -3 25 2 13 16 -7 8 -10 15 -7 15 2 0 10 -6
16 -14z"/>
<path fill="#ffffff" stroke="none" d="M1024 3751 c3 -5 -2 -15 -12 -22 -15
-12 -16 -12 -5 2 7 9 10 19 6 22 -3 4 -4 7 0 7 3 0 8 -4 11 -9z"/>
<path fill="#ffffff" stroke="none" d="M967 3735 c0 -8 -4 -12 -9 -9 -5 3 -6
10 -3 15 9 13 12 11 12 -6z"/>
<path fill="#ffffff" stroke="none" d="M1050 3737 c0 -2 -10 -12 -22 -23 l-23
-19 19 23 c18 21 26 27 26 19z"/>
<path fill="#ffffff" stroke="none" d="M1065 3713 c-1 -10 3 -25 9 -33 9 -13
9 -13 -6 -2 -13 10 -16 26 -9 50 4 11 9 -2 6 -15z"/>
<path fill="#ffffff" stroke="none" d="M1130 3724 c0 -8 -19 -13 -24 -6 -3 5
1 9 9 9 8 0 15 -2 15 -3z"/>
<path fill="#ffffff" stroke="none" d="M895 3711 c3 -5 2 -12 -3 -15 -5 -3 -9
1 -9 9 0 17 3 19 12 6z"/>
<path fill="#ffffff" stroke="none" d="M995 3711 c3 -5 2 -12 -3 -15 -5 -3 -9
1 -9 9 0 17 3 19 12 6z"/>
<path fill="#ffffff" stroke="none" d="M1095 3711 c3 -5 2 -12 -3 -15 -5 -3
-9 1 -9 9 0 17 3 19 12 6z"/>
<path fill="#ffffff" stroke="none" d="M1147 3705 c0 -21 -73 -89 -82 -76 -4
7 -1 10 7 9 7 -2 12 3 10 10 -1 8 1 11 6 8 5 -3 20 6 32 19 13 14 20 25 16 25
-4 0 -4 5 -1 10 9 14 12 13 12 -5z"/>
<path fill="#ffffff" stroke="none" d="M965 3693 c-2 -10 -4 -20 -5 -23 -1 -3
-2 -8 -2 -11 1 -4 -7 -14 -17 -23 -15 -13 -18 -14 -18 -2 0 8 5 14 11 13 5 -1
11 4 12 11 1 6 3 14 4 17 1 3 4 10 5 15 1 6 3 12 4 15 3 14 9 3 6 -12z"/>
<path fill="#ffffff" stroke="none" d="M920 3696 c0 -2 -8 -10 -17 -17 -16
-13 -17 -12 -4 4 13 16 21 21 21 13z"/>
<path fill="#ffffff" stroke="none" d="M1035 3683 c-1 -10 2 -24 8 -30 5 -7 6
-13 2 -13 -4 0 -1 -8 6 -17 13 -16 12 -17 -3 -4 -10 7 -16 17 -13 21 3 5 1 11
-4 14 -7 5 -8 23 -2 44 4 11 9 -2 6 -15z"/>
<path fill="#ffffff" stroke="none" d="M1120 3696 c0 -2 -8 -10 -17 -17 -16
-13 -17 -12 -4 4 13 16 21 21 21 13z"/>
<path fill="#ffffff" stroke="none" d="M940 3687 c0 -2 -15 -18 -34 -36 -22
-21 -36 -29 -41 -22 -4 7 -1 10 7 9 7 -2 12 3 10 10 -1 8 2 11 6 8 5 -3 17 3
27 14 17 19 25 24 25 17z"/>
<path fill="#ffffff" stroke="none" d="M1167 3675 c0 -21 -63 -79 -72 -66 -4
7 -1 10 7 9 7 -2 12 3 11 10 -2 6 3 11 10 10 6 -2 11 3 10 10 -2 6 2 11 9 10
7 -2 13 3 14 10 3 27 11 32 11 7z"/>
<path fill="#ffffff" stroke="none" d="M1007 3663 c-4 -3 -2 -12 4 -19 7 -8 6
-14 -2 -20 -7 -4 -9 -3 -5 4 3 6 2 13 -4 17 -10 6 -5 25 7 25 4 0 3 -3 0 -7z"/>
<path fill="#ffffff" stroke="none" d="M847 3643 c-4 -3 -2 -12 3 -18 7 -8 4
-17 -8 -29 -16 -13 -19 -14 -19 -1 0 8 4 12 8 9 4 -2 10 0 13 5 4 5 2 12 -4
16 -10 6 -5 25 7 25 4 0 3 -3 0 -7z"/>
<path fill="#ffffff" stroke="none" d="M986 3624 c1 -9 0 -13 -4 -10 -3 4 -7
14 -8 22 -1 9 0 13 4 10 3 -4 7 -14 8 -22z"/>
<path fill="#ffffff" stroke="none" d="M1174 3624 c3 -8 2 -12 -4 -9 -6 3 -10
10 -10 16 0 14 7 11 14 -7z"/>
<path fill="#ffffff" stroke="none" d="M1210 3634 c0 -8 -19 -13 -24 -6 -3 5
1 9 9 9 8 0 15 -2 15 -3z"/>
<path fill="#ffffff" stroke="none" d="M960 3627 c0 -2 -9 -12 -19 -21 -14
-13 -21 -14 -27 -5 -4 7 -3 10 3 6 6 -4 16 0 23 8 12 14 20 19 20 12z"/>
<path fill="#ffffff" stroke="none" d="M1156 3599 c1 -5 3 -11 4 -14 1 -3 4
-14 5 -25 1 -11 3 -22 4 -25 0 -3 1 -8 2 -12 0 -5 5 -13 10 -20 7 -7 6 -14 -1
-18 -6 -4 -10 -3 -9 2 1 4 0 11 -1 16 -1 4 -4 12 -5 17 -1 6 -4 12 -5 15 -1 3
-4 14 -5 25 -1 11 -3 21 -5 23 -5 7 -7 38 -2 32 4 -4 8 -11 8 -16z"/>
<path fill="#ffffff" stroke="none" d="M877 3595 c0 -8 -12 -25 -26 -37 -14
-13 -20 -16 -13 -7 6 9 8 19 4 23 -4 4 0 6 8 4 8 -1 15 3 16 10 4 27 11 32 11
7z"/>
<path fill="#ffffff" stroke="none" d="M970 3606 c0 -2 -8 -10 -17 -17 -16
-13 -17 -12 -4 4 13 16 21 21 21 13z"/>
<path fill="#ffffff" stroke="none" d="M1014 3601 c3 -5 -2 -15 -12 -22 -15
-12 -16 -12 -5 2 7 9 10 19 6 22 -3 4 -4 7 0 7 3 0 8 -4 11 -9z"/>
<path fill="#ffffff" stroke="none" d="M1089 3596 c9 -10 7 -17 -6 -27 -16
-12 -17 -12 -6 2 10 12 10 18 1 27 -7 7 -9 12 -6 12 3 0 11 -6 17 -14z"/>
<path fill="#ffffff" stroke="none" d="M806 3585 c-3 -23 -22 -39 -31 -26 -3
7 -1 10 6 9 7 -2 14 3 15 10 2 19 4 22 8 22 2 0 3 -7 2 -15z"/>
<path fill="#ffffff" stroke="none" d="M906 3576 c1 -8 -14 -29 -34 -48 -20
-18 -31 -26 -24 -17 6 9 8 19 4 23 -4 4 0 6 8 4 8 -1 14 3 13 10 -2 6 3 11 10
10 7 -2 11 6 11 20 -2 24 8 22 12 -2z"/>
<path fill="#ffffff" stroke="none" d="M981 3587 c-6 -8 -8 -16 -5 -19 3 -3 1
-9 -4 -12 -6 -3 -9 0 -8 6 2 16 15 38 23 38 3 0 0 -6 -6 -13z"/>
<path fill="#ffffff" stroke="none" d="M1064 3591 c3 -4 -4 -17 -17 -27 -22
-19 -22 -19 -4 2 9 11 14 24 10 27 -3 4 -4 7 0 7 3 0 8 -4 11 -9z"/>
<path fill="#ffffff" stroke="none" d="M1127 3593 c-4 -3 -1 -13 6 -22 11 -14
10 -14 -5 -2 -16 12 -16 31 -1 31 4 0 3 -3 0 -7z"/>
<path fill="#ffffff" stroke="none" d="M1191 3583 c13 -16 12 -17 -3 -4 -17
13 -22 21 -14 21 2 0 10 -8 17 -17z"/>
<path fill="#ffffff" stroke="none" d="M1241 3583 c13 -16 12 -17 -3 -4 -17
13 -22 21 -14 21 2 0 10 -8 17 -17z"/>
<path fill="#ffffff" stroke="none" d="M1040 3586 c0 -2 -8 -10 -17 -17 -16
-13 -17 -12 -4 4 13 16 21 21 21 13z"/>
<path fill="#ffffff" stroke="none" d="M946 3546 c1 -9 -5 -21 -14 -28 -13
-11 -14 -11 -7 2 13 20 13 32 1 50 -8 12 -8 13 4 3 8 -7 15 -19 16 -27z"/>
<path fill="#ffffff" stroke="none" d="M1229 3566 c9 -11 9 -16 -1 -22 -7 -4
-10 -4 -6 1 4 4 3 14 -3 22 -6 7 -9 13 -6 13 2 0 10 -6 16 -14z"/>
<path fill="#ffffff" stroke="none" d="M821 3557 c-6 -8 -8 -16 -5 -19 3 -3 1
-9 -4 -12 -6 -3 -9 0 -8 6 2 16 15 38 23 38 3 0 0 -6 -6 -13z"/>
<path fill="#ffffff" stroke="none" d="M775 3540 c10 -11 16 -20 13 -20 -3 0
-13 9 -23 20 -10 11 -16 20 -13 20 3 0 13 -9 23 -20z"/>
<path fill="#ffffff" stroke="none" d="M1205 3541 c-1 -9 2 -21 7 -28 6 -7 4
-14 -4 -19 -7 -4 -10 -4 -6 1 4 4 3 14 -3 22 -6 7 -8 13 -4 13 4 0 2 6 -4 13
-8 10 -7 14 3 14 8 0 13 -7 11 -16z"/>
<path fill="#ffffff" stroke="none" d="M1011 3537 c-6 -8 -8 -16 -5 -19 3 -3
1 -9 -4 -12 -6 -3 -9 0 -8 6 2 16 15 38 23 38 3 0 0 -6 -6 -13z"/>
<path fill="#ffffff" stroke="none" d="M1080 3545 c0 -2 -6 -8 -13 -14 -10 -8
-14 -7 -14 2 0 8 6 14 14 14 7 0 13 -1 13 -2z"/>
<path fill="#ffffff" stroke="none" d="M1135 3542 c-3 -3 0 -11 6 -18 7 -9 6
-14 -3 -20 -7 -4 -10 -3 -5 1 4 5 0 16 -8 25 -13 15 -13 17 0 17 8 0 13 -3 10
-5z"/>
<path fill="#ffffff" stroke="none" d="M765 3520 c10 -11 16 -20 13 -20 -3 0
-13 9 -23 20 -10 11 -16 20 -13 20 3 0 13 -9 23 -20z"/>
<path fill="#ffffff" stroke="none" d="M1037 3533 c-4 -3 -2 -12 4 -19 7 -8 6
-14 -2 -20 -7 -4 -9 -3 -5 4 3 6 2 13 -4 17 -10 6 -5 25 7 25 4 0 3 -3 0 -7z"/>
<path fill="#ffffff" stroke="none" d="M1111 3523 c11 -15 11 -16 -1 -6 -11
10 -18 9 -34 -5 -21 -17 -21 -17 -2 6 23 26 20 26 37 5z"/>
<path fill="#ffffff" stroke="none" d="M1267 3523 c0 -9 -4 -10 -14 -2 -7 6
-13 12 -13 14 0 1 6 2 13 2 8 0 14 -6 14 -14z"/>
<path fill="#ffffff" stroke="none" d="M840 3527 c0 -2 -10 -13 -23 -25 -18
-17 -24 -19 -24 -8 0 8 4 13 8 11 3 -3 12 2 19 10 12 14 20 19 20 12z"/>
<path fill="#ffffff" stroke="none" d="M906 3504 c1 -9 0 -13 -4 -10 -3 4 -7
14 -8 22 -1 9 0 13 4 10 3 -4 7 -14 8 -22z"/>
<path fill="#ffffff" stroke="none" d="M877 3503 c-4 -3 -1 -13 6 -22 11 -14
10 -14 -5 -2 -16 12 -16 31 -1 31 4 0 3 -3 0 -7z"/>
<path fill="#ffffff" stroke="none" d="M980 3506 c0 -2 -8 -10 -17 -17 -16
-13 -17 -12 -4 4 13 16 21 21 21 13z"/>
<path fill="#ffffff" stroke="none" d="M1091 3497 c-6 -8 -7 -18 -3 -22 4 -5
1 -5 -6 -1 -10 6 -10 11 -1 22 6 8 14 14 16 14 3 0 0 -6 -6 -13z"/>
<path fill="#ffffff" stroke="none" d="M935 3491 c3 -5 2 -12 -3 -15 -5 -3 -9
1 -9 9 0 17 3 19 12 6z"/>
<path fill="#ffffff" stroke="none" d="M1017 3485 c0 -8 -4 -12 -9 -9 -5 3 -6
10 -3 15 9 13 12 11 12 -6z"/>
<path fill="#ffffff" stroke="none" d="M1157 3493 c-4 -3 -1 -13 6 -22 11 -14
10 -14 -5 -2 -16 12 -16 31 -1 31 4 0 3 -3 0 -7z"/>
<path fill="#ffffff" stroke="none" d="M830 3486 c0 -2 -8 -10 -17 -17 -16
-13 -17 -12 -4 4 13 16 21 21 21 13z"/>
<path fill="#ffffff" stroke="none" d="M861 3473 c13 -16 12 -17 -3 -4 -10 7
-18 15 -18 17 0 8 8 3 21 -13z"/>
<path fill="#ffffff" stroke="none" d="M981 3477 c-6 -8 -9 -16 -6 -19 3 -3
-1 -11 -9 -17 -10 -8 -16 -9 -21 -1 -4 6 -1 9 6 8 7 -2 13 2 14 7 0 13 14 35
22 35 3 0 0 -6 -6 -13z"/>
<path fill="#ffffff" stroke="none" d="M1227 3475 c0 -8 -4 -12 -9 -9 -5 3 -6
10 -3 15 9 13 12 11 12 -6z"/>
<path fill="#ffffff" stroke="none" d="M1063 3467 c4 3 7 4 7 1 0 -2 -12 -15
-27 -29 -20 -17 -23 -18 -11 -3 14 16 15 23 5 34 -10 12 -9 12 4 2 9 -6 19 -9
22 -5z"/>
<path fill="#ffffff" stroke="none" d="M1116 3454 c1 -9 0 -13 -4 -10 -3 4 -7
14 -8 22 -1 9 0 13 4 10 3 -4 7 -14 8 -22z"/>
<path fill="#ffffff" stroke="none" d="M1197 3473 c-4 -3 -2 -12 4 -19 7 -8 6
-14 -2 -20 -7 -4 -9 -3 -5 4 3 6 2 13 -4 17 -10 6 -5 25 7 25 4 0 3 -3 0 -7z"/>
<path fill="#ffffff" stroke="none" d="M840 3455 c1 -5 9 -18 17 -27 9 -10 13
-18 8 -18 -4 0 -1 -8 6 -17 13 -16 12 -17 -4 -4 -9 8 -15 16 -12 19 3 3 -1 12
-7 20 -10 12 -22 50 -13 40 2 -1 4 -7 5 -13z"/>
<path fill="#ffffff" stroke="none" d="M1023 3457 c4 3 7 4 7 1 0 -3 -8 -12
-17 -19 -10 -7 -15 -9 -11 -5 4 5 2 16 -5 25 -10 14 -10 14 4 4 9 -7 19 -10
22 -6z"/>
<path fill="#ffffff" stroke="none" d="M1137 3459 c-1 -3 4 -13 11 -22 9 -10
10 -17 2 -22 -6 -4 -10 -3 -9 2 1 4 0 10 -1 13 -4 11 -8 42 -5 38 2 -1 3 -6 2
-9z"/>
<path fill="#ffffff" stroke="none" d="M927 3453 c-4 -3 3 -18 15 -32 l23 -26
-27 24 c-24 21 -29 41 -11 41 4 0 3 -3 0 -7z"/>
<path fill="#ffffff" stroke="none" d="M1085 3443 c-1 -10 3 -25 9 -33 9 -13
9 -13 -6 -2 -13 10 -16 26 -9 50 4 11 9 -2 6 -15z"/>
<path fill="#ffffff" stroke="none" d="M881 3433 c13 -16 12 -17 -3 -4 -10 7
-18 15 -18 17 0 8 8 3 21 -13z"/>
<path fill="#ffffff" stroke="none" d="M985 3423 c-1 -10 1 -23 6 -29 6 -7 0
-18 -14 -30 l-22 -19 18 22 c11 12 14 24 9 27 -8 5 -9 22 -3 44 4 11 9 -2 6
-15z"/>
<path fill="#ffffff" stroke="none" d="M916 3404 c1 -9 0 -13 -4 -10 -3 4 -7
14 -8 22 -1 9 0 13 4 10 3 -4 7 -14 8 -22z"/>
<path fill="#ffffff" stroke="none" d="M1051 3417 c-6 -8 -9 -16 -6 -19 3 -3
-1 -11 -9 -17 -10 -8 -16 -9 -21 -1 -4 6 -1 9 6 8 7 -2 13 2 14 7 0 13 14 35
22 35 3 0 0 -6 -6 -13z"/>
<path fill="#ffffff" stroke="none" d="M1126 3413 c-1 -7 -8 -19 -16 -26 -12
-10 -12 -9 -2 4 8 10 8 19 1 26 -6 6 -5 10 5 10 7 0 13 -6 12 -14z"/>
<path fill="#ffffff" stroke="none" d="M1177 3405 c0 -8 -4 -12 -9 -9 -5 3 -6
10 -3 15 9 13 12 11 12 -6z"/>
<path fill="#ffffff" stroke="none" d="M1079 3396 c9 -11 9 -16 -1 -22 -7 -4
-10 -4 -6 1 4 4 3 14 -3 22 -6 7 -9 13 -6 13 2 0 10 -6 16 -14z"/>
<path fill="#ffffff" stroke="none" d="M963 3387 c4 3 7 4 7 1 0 -3 -8 -12
-17 -19 -10 -7 -15 -9 -11 -5 4 5 2 16 -5 25 -10 14 -10 14 4 4 9 -7 19 -10
22 -6z"/>
<path fill="#ffffff" stroke="none" d="M923 3376 c3 3 4 -1 3 -10 -1 -8 -6
-19 -12 -23 -5 -4 -6 -4 -1 1 4 5 -1 19 -10 30 -14 15 -14 18 -2 8 9 -6 18 -9
22 -6z"/>
<path fill="#ffffff" stroke="none" d="M1056 3365 c-1 -8 -8 -21 -16 -28 -10
-10 -11 -9 -4 3 5 8 9 18 10 23 3 14 4 17 8 17 2 0 3 -7 2 -15z"/>
<path fill="#ffffff" stroke="none" d="M1127 3365 c0 -8 -4 -12 -9 -9 -5 3 -6
10 -3 15 9 13 12 11 12 -6z"/>
<path fill="#ffffff" stroke="none" d="M894 3354 c3 -8 2 -12 -4 -9 -6 3 -10
10 -10 16 0 14 7 11 14 -7z"/>
<path fill="#ffffff" stroke="none" d="M1010 3366 c0 -2 -8 -10 -17 -17 -16
-13 -17 -12 -4 4 13 16 21 21 21 13z"/>
<path fill="#ffffff" stroke="none" d="M1030 3357 c0 -2 -10 -12 -22 -23 l-23
-19 19 23 c18 21 26 27 26 19z"/>
<path fill="#ffffff" stroke="none" d="M947 3343 c-4 -3 -1 -13 6 -22 11 -14
10 -14 -5 -2 -16 12 -16 31 -1 31 4 0 3 -3 0 -7z"/>
<path fill="#ffffff" stroke="none" d="M1114 3341 c3 -4 -3 -16 -13 -25 -14
-13 -18 -14 -18 -2 0 8 5 14 11 13 6 -1 10 4 9 11 -3 14 3 16 11 3z"/>
<path fill="#ffffff" stroke="none" d="M1066 3328 c-1 -7 -4 -17 -7 -23 -3 -5
-5 -27 -4 -47 1 -20 -2 -35 -5 -33 -6 4 -6 76 0 83 1 1 4 7 5 12 1 6 3 12 4
15 2 11 9 4 7 -7z"/>
<path fill="#ffffff" stroke="none" d="M931 3313 c13 -16 12 -17 -3 -4 -10 7
-18 15 -18 17 0 8 8 3 21 -13z"/>
<path fill="#ffffff" stroke="none" d="M1022 3296 c-20 -22 -22 -52 -7 -76 7
-12 6 -13 -7 -3 -17 15 -18 54 0 75 6 8 10 17 7 20 -3 2 2 5 10 5 13 0 12 -4
-3 -21z"/>
<path fill="#ffffff" stroke="none" d="M1000 3305 c0 -2 -6 -8 -13 -14 -10 -8
-14 -7 -14 2 0 8 6 14 14 14 7 0 13 -1 13 -2z"/>
<path fill="#ffffff" stroke="none" d="M957 3293 c-4 -3 1 -16 10 -27 18 -21
18 -21 -4 -2 -20 16 -23 36 -6 36 4 0 3 -3 0 -7z"/>
<path fill="#ffffff" stroke="none" d="M1110 3296 c0 -2 -6 -9 -14 -15 -11 -9
-16 -9 -22 0 -4 7 -3 9 4 5 6 -3 13 -2 17 4 6 10 15 14 15 6z"/>
<path fill="#000000" stroke="none" d="M2090 3818 c-36 -55 -91 -131 -122
-169 -39 -46 -56 -74 -53 -89 2 -11 0 -18 -6 -15 -5 4 -7 11 -4 16 4 5 2 9 -2
9 -5 0 -13 -8 -20 -19 -10 -16 -7 -23 16 -45 15 -14 31 -23 36 -19 4 5 5 2 1
-5 -5 -9 1 -24 16 -40 33 -35 100 -128 161 -221 41 -62 51 -72 59 -58 5 10 6
22 2 29 -4 6 -3 8 3 5 6 -4 17 1 24 10 12 14 12 16 -1 9 -9 -4 -8 -1 3 7 9 8
17 20 17 26 0 7 5 9 13 5 7 -5 6 0 -3 11 -8 10 -10 16 -4 12 15 -9 45 28 32
41 -6 6 -6 12 3 17 8 5 10 4 5 -3 -4 -7 -3 -12 2 -12 16 0 22 13 12 25 -7 9
-5 17 7 26 16 13 17 12 4 -3 -7 -10 -9 -18 -4 -18 5 0 26 22 46 49 28 36 36
56 33 75 -3 14 -1 28 4 31 5 3 7 -4 5 -15 -6 -30 9 -24 40 16 27 35 27 37 10
50 -10 8 -15 14 -10 14 5 0 -4 13 -20 30 -15 16 -32 27 -37 24 -5 -3 -7 -2 -6
3 5 16 -23 54 -35 47 -7 -4 -9 -4 -5 1 13 14 -12 47 -30 40 -9 -3 -13 -3 -9 1
4 4 1 14 -6 23 -11 14 -10 15 8 1 13 -10 9 -2 -10 25 -16 22 -30 42 -32 44 -1
2 -11 -2 -20 -10 -16 -12 -17 -12 -6 2 7 9 9 20 5 24 -4 5 -2 5 5 1 6 -3 -3
16 -20 44 -18 27 -34 49 -37 49 -3 0 -34 -46 -70 -101z"/>
<path fill="#ffffff" stroke="none" d="M2171 3883 c13 -16 12 -17 -3 -4 -17
13 -22 21 -14 21 2 0 10 -8 17 -17z"/>
<path fill="#ffffff" stroke="none" d="M2183 3857 c4 3 7 4 7 1 0 -3 -8 -12
-17 -19 -10 -7 -15 -9 -11 -5 4 5 2 16 -5 25 -10 14 -10 14 4 4 9 -7 19 -10
22 -6z"/>
<path fill="#ffffff" stroke="none" d="M2146 3834 c-1 -8 -4 -15 -7 -16 -2 -2
-3 -1 -2 1 2 2 -2 9 -7 16 -7 8 -5 12 4 12 8 0 13 -6 12 -13z"/>
<path fill="#ffffff" stroke="none" d="M2196 3825 c-1 -8 -5 -17 -8 -21 -5 -4
-4 16 1 34 3 9 9 -1 7 -13z"/>
<path fill="#ffffff" stroke="none" d="M2117 3823 c-4 -3 -2 -12 4 -19 7 -8 6
-14 -2 -20 -7 -4 -9 -3 -5 4 3 6 2 13 -4 17 -10 6 -5 25 7 25 4 0 3 -3 0 -7z"/>
<path fill="#ffffff" stroke="none" d="M2167 3813 c-4 -3 -2 -12 3 -18 7 -9 5
-17 -7 -26 -16 -13 -17 -12 -5 3 9 11 10 18 2 23 -10 6 -5 25 7 25 4 0 3 -3 0
-7z"/>
<path fill="#ffffff" stroke="none" d="M2097 3793 c-4 -3 -1 -13 6 -22 11 -14
10 -14 -5 -2 -16 12 -16 31 -1 31 4 0 3 -3 0 -7z"/>
<path fill="#ffffff" stroke="none" d="M2141 3777 c-6 -8 -8 -17 -4 -21 14
-13 11 -35 -6 -50 -15 -14 -18 -14 -18 -2 0 8 5 14 10 13 13 -3 18 31 6 39 -9
5 6 34 18 34 3 0 0 -6 -6 -13z"/>
<path fill="#ffffff" stroke="none" d="M2241 3773 c12 -16 12 -17 -2 -6 -9 7
-20 9 -24 5 -5 -4 -5 -1 -1 6 9 16 11 15 27 -5z"/>
<path fill="#ffffff" stroke="none" d="M2192 3768 c-9 -9 -9 -15 1 -27 11 -14
10 -14 -6 -2 -13 10 -15 17 -6 27 6 8 14 14 17 14 3 0 1 -5 -6 -12z"/>
<path fill="#ffffff" stroke="none" d="M2086 3752 c-3 -3 0 -12 6 -21 10 -13
10 -14 -2 -4 -16 15 -23 46 -8 37 5 -3 7 -9 4 -12z"/>
<path fill="#ffffff" stroke="none" d="M2230 3754 c0 -8 -19 -13 -24 -6 -3 5
1 9 9 9 8 0 15 -2 15 -3z"/>
<path fill="#ffffff" stroke="none" d="M2249 3743 c-1 -5 0 -10 1 -13 7 -19 7
-41 0 -45 -5 -3 -7 3 -5 15 2 11 -1 22 -6 25 -5 4 -7 11 -4 16 7 11 15 12 14
2z"/>
<path fill="#ffffff" stroke="none" d="M2174 3731 c3 -5 -2 -15 -12 -22 -15
-12 -16 -12 -5 2 7 9 10 19 6 22 -3 4 -4 7 0 7 3 0 8 -4 11 -9z"/>
<path fill="#ffffff" stroke="none" d="M2224 3721 c3 -4 -4 -17 -17 -27 -22
-19 -22 -19 -4 2 9 11 14 24 10 27 -3 4 -4 7 0 7 3 0 8 -4 11 -9z"/>
<path fill="#ffffff" stroke="none" d="M2061 3703 c13 -16 12 -17 -3 -4 -17
13 -22 21 -14 21 2 0 10 -8 17 -17z"/>
<path fill="#ffffff" stroke="none" d="M2200 3716 c0 -2 -8 -10 -17 -17 -16
-13 -17 -12 -4 4 13 16 21 21 21 13z"/>
<path fill="#ffffff" stroke="none" d="M2045 3682 c-3 -3 0 -11 6 -18 7 -9 6
-14 -3 -20 -7 -4 -10 -4 -6 1 4 4 3 14 -3 22 -6 7 -8 13 -4 13 4 0 1 8 -6 18
-13 15 -12 16 4 3 9 -8 15 -16 12 -19z"/>
<path fill="#ffffff" stroke="none" d="M2096 3686 c0 -14 -3 -23 -7 -20 -6 3
-6 22 0 42 3 10 7 -2 7 -22z"/>
<path fill="#ffffff" stroke="none" d="M2296 3684 c-1 -8 -4 -15 -7 -16 -2 -2
-3 -1 -2 1 2 2 -2 9 -7 16 -7 8 -5 12 4 12 8 0 13 -6 12 -13z"/>
<path fill="#ffffff" stroke="none" d="M2155 3682 c-3 -3 0 -11 6 -19 6 -7 8
-13 4 -13 -4 0 -1 -8 6 -17 13 -16 12 -17 -4 -4 -9 8 -15 16 -12 19 3 3 -2 13
-10 22 -13 15 -13 17 0 17 8 0 13 -3 10 -5z"/>
<path fill="#ffffff" stroke="none" d="M2230 3686 c0 -2 -8 -10 -17 -17 -16
-13 -17 -12 -4 4 13 16 21 21 21 13z"/>
<path fill="#ffffff" stroke="none" d="M2017 3673 c-4 -3 -1 -13 6 -22 11 -14
10 -14 -5 -2 -16 12 -16 31 -1 31 4 0 3 -3 0 -7z"/>
<path fill="#ffffff" stroke="none" d="M2124 3671 c3 -5 -2 -15 -12 -22 -15
-12 -16 -12 -5 2 7 9 10 19 6 22 -3 4 -4 7 0 7 3 0 8 -4 11 -9z"/>
<path fill="#ffffff" stroke="none" d="M2267 3673 c-4 -3 -2 -12 4 -20 6 -7 8
-13 4 -13 -5 0 -1 -8 9 -19 15 -17 15 -19 -1 -32 -16 -12 -17 -12 -5 2 10 13
9 19 -3 29 -8 7 -13 16 -10 20 3 5 1 11 -5 15 -10 6 -5 25 7 25 4 0 3 -3 0 -7z"/>
<path fill="#ffffff" stroke="none" d="M2237 3663 c-4 -3 -1 -13 6 -22 11 -14
10 -14 -5 -2 -16 12 -16 31 -1 31 4 0 3 -3 0 -7z"/>
<path fill="#ffffff" stroke="none" d="M1999 3646 c9 -11 9 -16 -1 -22 -7 -4
-10 -4 -6 1 4 4 3 14 -3 22 -6 7 -9 13 -6 13 2 0 10 -6 16 -14z"/>
<path fill="#ffffff" stroke="none" d="M2330 3654 c0 -8 -19 -13 -24 -6 -3 5
1 9 9 9 8 0 15 -2 15 -3z"/>
<path fill="#ffffff" stroke="none" d="M2140 3647 c0 -2 -9 -12 -19 -21 -14
-13 -21 -14 -27 -5 -4 7 -3 10 3 6 6 -4 16 0 23 8 12 14 20 19 20 12z"/>
<path fill="#ffffff" stroke="none" d="M2224 3632 c15 -18 15 -20 -6 -38 -23
-19 -23 -19 -6 2 17 19 17 21 1 37 -10 9 -15 17 -12 17 3 0 13 -8 23 -18z"/>
<path fill="#ffffff" stroke="none" d="M2337 3625 c0 -8 -4 -12 -9 -9 -5 3 -6
10 -3 15 9 13 12 11 12 -6z"/>
<path fill="#ffffff" stroke="none" d="M1980 3626 c0 -2 -8 -10 -17 -17 -16
-13 -17 -12 -4 4 13 16 21 21 21 13z"/>
<path fill="#ffffff" stroke="none" d="M2030 3626 c0 -2 -8 -10 -17 -17 -16
-13 -17 -12 -4 4 13 16 21 21 21 13z"/>
<path fill="#ffffff" stroke="none" d="M2059 3594 c-6 -8 -8 -14 -3 -14 4 0
-4 -13 -19 -28 -15 -16 -25 -31 -22 -35 3 -4 2 -5 -2 -2 -12 9 -12 34 0 32 7
-1 11 4 10 11 -2 6 2 11 9 10 7 -2 12 2 13 9 0 6 3 15 7 19 4 4 2 14 -5 23
-11 14 -10 14 6 2 13 -10 15 -17 6 -27z"/>
<path fill="#ffffff" stroke="none" d="M2150 3627 c0 -2 -10 -12 -22 -23 l-23
-19 19 23 c18 21 26 27 26 19z"/>
<path fill="#ffffff" stroke="none" d="M2204 3621 c3 -5 -1 -14 -8 -20 -10 -9
-16 -9 -21 -1 -4 6 -1 9 7 8 7 -2 12 3 11 10 -3 14 3 16 11 3z"/>
<path fill="#ffffff" stroke="none" d="M2040 3607 c0 -2 -19 -21 -42 -42 -24
-22 -33 -28 -20 -14 12 14 19 29 15 34 -5 4 -3 5 3 2 7 -4 17 0 24 8 12 14 20
19 20 12z"/>
<path fill="#ffffff" stroke="none" d="M2163 3595 c4 -8 3 -16 -1 -19 -4 -3
-9 4 -9 15 -2 23 3 25 10 4z"/>
<path fill="#ffffff" stroke="none" d="M2355 3593 c-1 -10 2 -24 8 -32 14 -17
18 -43 6 -35 -5 3 -7 9 -4 14 3 4 -1 13 -9 19 -11 10 -14 26 -7 49 4 11 9 -2
6 -15z"/>
<path fill="#ffffff" stroke="none" d="M2395 3590 c10 -11 16 -20 13 -20 -3 0
-13 9 -23 20 -10 11 -16 20 -13 20 3 0 13 -9 23 -20z"/>
<path fill="#ffffff" stroke="none" d="M2254 3591 c3 -5 -1 -14 -8 -20 -10 -9
-16 -9 -21 -1 -4 6 -1 9 7 8 7 -2 12 3 11 10 -3 14 3 16 11 3z"/>
<path fill="#ffffff" stroke="none" d="M1960 3586 c0 -2 -8 -10 -17 -17 -16
-13 -17 -12 -4 4 13 16 21 21 21 13z"/>
<path fill="#ffffff" stroke="none" d="M2103 3577 c4 3 7 4 7 1 0 -3 -8 -12
-17 -19 -10 -7 -15 -9 -11 -5 4 5 2 16 -5 25 -10 14 -10 14 4 4 9 -7 19 -10
22 -6z"/>
<path fill="#ffffff" stroke="none" d="M2137 3583 c-4 -3 -2 -12 3 -18 7 -9 5
-17 -7 -26 -16 -13 -17 -12 -5 3 9 11 10 18 2 23 -10 6 -5 25 7 25 4 0 3 -3 0
-7z"/>
<path fill="#ffffff" stroke="none" d="M2310 3586 c0 -2 -8 -10 -17 -17 -16
-13 -17 -12 -4 4 13 16 21 21 21 13z"/>
<path fill="#ffffff" stroke="none" d="M1980 3576 c0 -2 -8 -10 -17 -17 -16
-13 -17 -12 -4 4 13 16 21 21 21 13z"/>
<path fill="#ffffff" stroke="none" d="M2185 3571 c-3 -5 -1 -12 5 -16 6 -4 7
-12 3 -18 -4 -7 -8 -15 -8 -19 0 -3 -3 -9 -7 -13 -8 -9 -5 16 5 32 4 6 3 14
-3 18 -10 6 -5 25 6 25 3 0 3 -4 -1 -9z"/>
<path fill="#ffffff" stroke="none" d="M2330 3576 c0 -2 -8 -10 -17 -17 -16
-13 -17 -12 -4 4 13 16 21 21 21 13z"/>
<path fill="#ffffff" stroke="none" d="M2391 3563 c13 -16 12 -17 -3 -4 -17
13 -22 21 -14 21 2 0 10 -8 17 -17z"/>
<path fill="#ffffff" stroke="none" d="M2235 3522 c-1 -9 3 -24 9 -32 9 -13 9
-13 -6 -2 -9 7 -15 21 -13 30 1 9 -5 26 -14 37 -16 20 -16 20 6 2 11 -10 20
-26 18 -35z"/>
<path fill="#ffffff" stroke="none" d="M2266 3555 c-1 -8 -5 -17 -8 -21 -5 -4
-4 16 1 34 3 9 9 -1 7 -13z"/>
<path fill="#ffffff" stroke="none" d="M2340 3556 c0 -2 -8 -10 -17 -17 -16
-13 -17 -12 -4 4 13 16 21 21 21 13z"/>
<path fill="#ffffff" stroke="none" d="M1945 3541 c3 -5 2 -12 -3 -15 -5 -3
-9 1 -9 9 0 17 3 19 12 6z"/>
<path fill="#ffffff" stroke="none" d="M2170 3547 c0 -2 -10 -12 -22 -23 l-23
-19 19 23 c18 21 26 27 26 19z"/>
<path fill="#ffffff" stroke="none" d="M2087 3533 c-4 -3 1 -16 10 -27 18 -21
18 -21 -4 -2 -20 16 -23 36 -6 36 4 0 3 -3 0 -7z"/>
<path fill="#ffffff" stroke="none" d="M2350 3537 c0 -2 -9 -12 -19 -21 -14
-13 -21 -14 -27 -5 -4 7 -3 10 3 6 6 -4 16 0 23 8 12 14 20 19 20 12z"/>
<path fill="#ffffff" stroke="none" d="M2405 3531 c3 -5 2 -12 -3 -15 -5 -3
-9 1 -9 9 0 17 3 19 12 6z"/>
<path fill="#ffffff" stroke="none" d="M1924 3514 c3 -8 2 -12 -4 -9 -6 3 -10
10 -10 16 0 14 7 11 14 -7z"/>
<path fill="#ffffff" stroke="none" d="M1989 3523 c-1 -5 0 -10 1 -13 7 -19 7
-39 -1 -34 -5 3 -7 9 -4 14 3 5 1 11 -5 15 -6 4 -8 11 -5 16 7 11 15 12 14 2z"/>
<path fill="#ffffff" stroke="none" d="M1957 3513 c-4 -3 -2 -12 3 -18 7 -9 5
-17 -7 -26 -16 -13 -17 -12 -5 3 9 11 10 18 2 23 -10 6 -5 25 7 25 4 0 3 -3 0
-7z"/>
<path fill="#ffffff" stroke="none" d="M2046 3495 c1 -8 -1 -17 -5 -19 -4 -3
-7 6 -7 19 0 25 8 25 12 0z"/>
<path fill="#ffffff" stroke="none" d="M2276 3485 c-1 -8 -5 -17 -8 -21 -4 -3
-5 2 -4 13 2 10 -2 25 -8 33 -9 13 -9 13 6 2 9 -7 15 -19 14 -27z"/>
<path fill="#ffffff" stroke="none" d="M2360 3517 c0 -2 -10 -12 -22 -23 l-23
-19 19 23 c18 21 26 27 26 19z"/>
<path fill="#ffffff" stroke="none" d="M2075 3501 c3 -5 2 -12 -3 -15 -5 -3
-9 1 -9 9 0 17 3 19 12 6z"/>
<path fill="#ffffff" stroke="none" d="M2160 3507 c0 -2 -8 -11 -18 -20 -15
-14 -19 -15 -19 -2 0 8 4 12 8 9 4 -2 10 0 14 6 6 10 15 14 15 7z"/>
<path fill="#ffffff" stroke="none" d="M2202 3498 c-9 -9 -8 -16 6 -32 17 -21
17 -21 -5 -2 -18 15 -20 22 -12 33 6 7 14 13 17 13 3 0 1 -5 -6 -12z"/>
<path fill="#ffffff" stroke="none" d="M2305 3491 c3 -5 2 -12 -3 -15 -5 -3
-9 1 -9 9 0 17 3 19 12 6z"/>
<path fill="#ffffff" stroke="none" d="M2170 3486 c0 -2 -8 -10 -17 -17 -16
-13 -17 -12 -4 4 13 16 21 21 21 13z"/>
<path fill="#ffffff" stroke="none" d="M2085 3471 c-3 -5 -1 -12 4 -15 5 -4 8
-14 6 -24 -1 -9 3 -24 9 -32 9 -13 9 -13 -6 -2 -9 7 -15 22 -13 32 2 11 -1 22
-6 25 -9 6 -3 25 7 25 3 0 3 -4 -1 -9z"/>
<path fill="#ffffff" stroke="none" d="M2347 3473 c-4 -3 -2 -12 4 -19 7 -8 6
-14 -2 -20 -7 -4 -9 -3 -5 4 3 6 2 13 -4 17 -10 6 -5 25 7 25 4 0 3 -3 0 -7z"/>
<path fill="#ffffff" stroke="none" d="M1977 3463 c-4 -3 1 -16 10 -27 18 -21
18 -21 -4 -2 -20 16 -23 36 -6 36 4 0 3 -3 0 -7z"/>
<path fill="#ffffff" stroke="none" d="M2057 3463 c-4 -3 -1 -13 6 -22 11 -14
10 -14 -5 -2 -16 12 -16 31 -1 31 4 0 3 -3 0 -7z"/>
<path fill="#ffffff" stroke="none" d="M2177 3455 c0 -8 -4 -12 -9 -9 -5 3 -6
10 -3 15 9 13 12 11 12 -6z"/>
<path fill="#ffffff" stroke="none" d="M2247 3455 c0 -8 -4 -12 -9 -9 -5 3 -6
10 -3 15 9 13 12 11 12 -6z"/>
<path fill="#ffffff" stroke="none" d="M2315 3461 c-3 -5 -1 -12 5 -16 6 -4 7
-12 3 -18 -4 -7 -8 -15 -8 -19 0 -3 -3 -9 -7 -13 -8 -9 -5 16 5 32 4 6 3 14
-3 18 -10 6 -5 25 6 25 3 0 3 -4 -1 -9z"/>
<path fill="#ffffff" stroke="none" d="M2011 3443 c13 -16 12 -17 -3 -4 -10 7
-18 15 -18 17 0 8 8 3 21 -13z"/>
<path fill="#ffffff" stroke="none" d="M2127 3453 c-4 -3 1 -16 10 -27 18 -21
18 -21 -4 -2 -20 16 -23 36 -6 36 4 0 3 -3 0 -7z"/>
<path fill="#ffffff" stroke="none" d="M2206 3429 c1 -5 2 -10 4 -11 5 -8 7
-39 2 -33 -4 4 -8 11 -8 16 -1 5 -2 10 -4 12 -5 7 -7 38 -2 32 4 -4 8 -11 8
-16z"/>
<path fill="#ffffff" stroke="none" d="M2293 3437 c4 3 7 4 7 1 0 -2 -12 -15
-27 -29 -20 -17 -23 -18 -11 -3 14 16 15 23 5 34 -10 12 -9 12 4 2 9 -6 19 -9
22 -5z"/>
<path fill="#ffffff" stroke="none" d="M2046 3422 c-3 -3 0 -12 6 -21 10 -13
10 -14 -2 -4 -16 15 -23 46 -8 37 5 -3 7 -9 4 -12z"/>
<path fill="#ffffff" stroke="none" d="M2253 3427 c4 3 7 4 7 1 0 -3 -8 -12
-17 -19 -10 -7 -15 -9 -11 -5 4 5 2 16 -5 25 -10 14 -10 14 4 4 9 -7 19 -10
22 -6z"/>
<path fill="#ffffff" stroke="none" d="M2177 3423 c-4 -3 -1 -13 6 -22 11 -14
10 -14 -5 -2 -16 12 -16 31 -1 31 4 0 3 -3 0 -7z"/>
<path fill="#ffffff" stroke="none" d="M2129 3406 c9 -10 7 -17 -6 -27 -16
-12 -17 -12 -6 2 10 12 10 18 1 27 -7 7 -9 12 -6 12 3 0 11 -6 17 -14z"/>
<path fill="#ffffff" stroke="none" d="M2041 3383 c13 -16 12 -17 -3 -4 -17
13 -22 21 -14 21 2 0 10 -8 17 -17z"/>
<path fill="#ffffff" stroke="none" d="M2091 3383 c13 -16 12 -17 -3 -4 -17
13 -22 21 -14 21 2 0 10 -8 17 -17z"/>
<path fill="#ffffff" stroke="none" d="M2171 3383 c13 -16 12 -17 -3 -4 -17
13 -22 21 -14 21 2 0 10 -8 17 -17z"/>
<path fill="#ffffff" stroke="none" d="M2290 3396 c0 -2 -8 -10 -17 -17 -16
-13 -17 -12 -4 4 13 16 21 21 21 13z"/>
<path fill="#ffffff" stroke="none" d="M2081 3363 c13 -16 12 -17 -3 -4 -17
13 -22 21 -14 21 2 0 10 -8 17 -17z"/>
<path fill="#ffffff" stroke="none" d="M2150 3377 c0 -2 -9 -12 -19 -21 -14
-13 -21 -14 -27 -5 -4 7 -3 10 3 6 6 -4 16 0 23 8 12 14 20 19 20 12z"/>
<path fill="#ffffff" stroke="none" d="M2204 3371 c3 -5 -1 -14 -8 -20 -10 -9
-16 -9 -21 -1 -4 6 -1 9 7 8 7 -2 12 3 11 10 -3 14 3 16 11 3z"/>
<path fill="#ffffff" stroke="none" d="M2253 3357 c4 3 7 4 7 1 0 -3 -8 -12
-17 -19 -10 -7 -15 -9 -11 -5 4 5 2 16 -5 25 -10 14 -10 14 4 4 9 -7 19 -10
22 -6z"/>
<path fill="#ffffff" stroke="none" d="M2071 3343 c13 -16 12 -17 -3 -4 -10 7
-18 15 -18 17 0 8 8 3 21 -13z"/>
<path fill="#ffffff" stroke="none" d="M2163 3345 c4 -8 3 -16 -1 -19 -4 -3
-9 4 -9 15 -2 23 3 25 10 4z"/>
<path fill="#ffffff" stroke="none" d="M2217 3335 c0 -8 -10 -23 -21 -32 -21
-18 -21 -18 -2 5 11 12 16 22 12 22 -4 0 -4 5 -1 10 9 14 12 13 12 -5z"/>
<path fill="#ffffff" stroke="none" d="M2104 3331 c3 -5 -1 -14 -8 -20 -10 -9
-16 -9 -21 -1 -4 6 -1 9 7 8 7 -2 12 3 11 10 -3 14 3 16 11 3z"/>
<path fill="#ffffff" stroke="none" d="M2137 3325 c0 -8 -4 -12 -9 -9 -5 3 -6
10 -3 15 9 13 12 11 12 -6z"/>
<path fill="#ffffff" stroke="none" d="M2245 3311 c3 -5 2 -12 -3 -15 -5 -3
-9 1 -9 9 0 17 3 19 12 6z"/>
<path fill="#ffffff" stroke="none" d="M2165 3301 c3 -5 2 -12 -3 -15 -5 -3
-9 1 -9 9 0 17 3 19 12 6z"/>
<path fill="#ffffff" stroke="none" d="M2136 3285 c-1 -8 -8 -21 -16 -28 -10
-10 -11 -9 -4 3 5 8 9 18 10 23 3 14 4 17 8 17 2 0 3 -7 2 -15z"/>
<path fill="#ffffff" stroke="none" d="M2213 3288 c-6 -7 -9 -21 -8 -31 2 -9
0 -15 -5 -12 -13 8 1 55 17 55 3 0 1 -6 -4 -12z"/>
<path fill="#ffffff" stroke="none" d="M2160 3266 c0 -2 -8 -10 -17 -17 -16
-13 -17 -12 -4 4 13 16 21 21 21 13z"/>
<path fill="#ffffff" stroke="none" d="M2180 3257 c0 -2 -10 -12 -22 -23 l-23
-19 19 23 c18 21 26 27 26 19z"/>
<path fill="#ffffff" stroke="none" d="M2190 3237 c0 -2 -10 -12 -22 -23 l-23
-19 19 23 c18 21 26 27 26 19z"/>
<path fill="#000000" stroke="none" d="M332 3706 c-6 -13 -31 -48 -56 -79 -25
-31 -46 -59 -46 -63 0 -3 19 -30 42 -59 41 -53 43 -54 63 -37 20 17 20 17 2
-5 -18 -20 -18 -24 -3 -44 l15 -23 14 32 c7 18 15 31 18 30 2 -2 3 -1 2 1 -1
2 15 25 37 51 22 26 40 51 40 54 0 4 -15 21 -32 38 -18 18 -24 25 -13 18 18
-13 18 -12 -1 10 -12 14 -33 42 -47 62 -24 36 -24 37 -35 14z"/>
<path fill="#ffffff" stroke="none" d="M370 3675 c0 -2 -6 -8 -13 -14 -10 -8
-14 -7 -14 2 0 8 6 14 14 14 7 0 13 -1 13 -2z"/>
<path fill="#ffffff" stroke="none" d="M380 3656 c0 -2 -8 -10 -17 -17 -16
-13 -17 -12 -4 4 13 16 21 21 21 13z"/>
<path fill="#ffffff" stroke="none" d="M336 3625 c-1 -8 -5 -17 -8 -21 -5 -4
-4 16 1 34 3 9 9 -1 7 -13z"/>
<path fill="#ffffff" stroke="none" d="M387 3633 c-4 -3 -2 -12 3 -18 7 -9 5
-17 -7 -26 -16 -13 -17 -12 -5 3 9 11 10 18 2 23 -10 6 -5 25 7 25 4 0 3 -3 0
-7z"/>
<path fill="#ffffff" stroke="none" d="M287 3603 c-4 -3 -2 -12 3 -18 7 -9 6
-16 -4 -24 -11 -9 -16 -9 -22 0 -4 7 -3 9 4 5 6 -3 13 -2 16 3 4 5 2 12 -4 16
-10 6 -5 25 7 25 4 0 3 -3 0 -7z"/>
<path fill="#ffffff" stroke="none" d="M355 3591 c3 -5 2 -12 -3 -15 -5 -3 -9
1 -9 9 0 17 3 19 12 6z"/>
<path fill="#ffffff" stroke="none" d="M327 3575 c0 -8 -4 -12 -9 -9 -5 3 -6
10 -3 15 9 13 12 11 12 -6z"/>
<path fill="#ffffff" stroke="none" d="M402 3578 c-9 -9 -9 -15 1 -27 11 -14
10 -14 -6 -2 -13 10 -15 17 -6 27 6 8 14 14 17 14 3 0 1 -5 -6 -12z"/>
<path fill="#ffffff" stroke="none" d="M334 3519 c-32 -33 -31 -33 -40 -17 -4
6 -3 8 3 5 13 -8 56 37 46 48 -5 4 -2 5 5 1 11 -6 7 -15 -14 -37z"/>
<path fill="#ffffff" stroke="none" d="M330 3546 c0 -2 -8 -10 -17 -17 -16
-13 -17 -12 -4 4 13 16 21 21 21 13z"/>
<path fill="#ffffff" stroke="none" d="M389 3536 c9 -11 9 -16 -1 -22 -7 -4
-10 -4 -6 1 4 4 3 14 -3 22 -6 7 -9 13 -6 13 2 0 10 -6 16 -14z"/>
<path fill="#ffffff" stroke="none" d="M285 3531 c3 -5 2 -12 -3 -15 -5 -3 -9
1 -9 9 0 17 3 19 12 6z"/>
<path fill="#ffffff" stroke="none" d="M366 3515 c-1 -8 -5 -17 -8 -21 -5 -4
-4 16 1 34 3 9 9 -1 7 -13z"/>
<path fill="#ffffff" stroke="none" d="M340 3496 c0 -2 -8 -10 -17 -17 -16
-13 -17 -12 -4 4 13 16 21 21 21 13z"/>
<path fill="#ffffff" stroke="none" d="M390 3496 c0 -2 -8 -10 -17 -17 -16
-13 -17 -12 -4 4 13 16 21 21 21 13z"/>
<path fill="#ffffff" stroke="none" d="M356 3445 c-1 -8 -5 -17 -8 -21 -5 -4
-4 16 1 34 3 9 9 -1 7 -13z"/>
<path fill="#000000" stroke="none" d="M981 1294 c-17 -29 -58 -89 -92 -134
-33 -44 -57 -85 -54 -90 3 -5 0 -12 -6 -16 -8 -4 -9 -3 -5 4 4 7 2 12 -3 12
-10 0 -15 -14 -12 -33 1 -5 -3 -6 -8 -3 -21 14 -36 -32 -18 -60 4 -7 -1 -18
-11 -25 -15 -13 -16 -12 -4 3 9 11 10 18 2 23 -6 3 -8 11 -5 16 4 5 2 9 -2 9
-5 0 -14 -9 -21 -21 -12 -18 -8 -26 34 -77 26 -31 53 -61 59 -67 7 -5 13 -14
15 -20 2 -5 27 -41 55 -80 28 -38 64 -91 80 -116 l29 -47 27 37 c19 26 24 40
16 49 -8 10 -7 12 3 10 12 -3 51 46 118 147 15 22 32 44 39 48 7 4 13 15 13
23 0 10 5 12 13 8 9 -6 9 -4 -1 8 -9 11 -10 18 -2 23 6 3 8 10 6 14 -3 4 1 8
9 8 12 0 12 -4 -2 -20 -14 -16 -15 -19 -3 -15 8 2 20 14 26 26 6 12 14 19 19
14 19 -17 -13 29 -49 71 -22 25 -44 43 -50 40 -5 -3 -6 -1 -2 5 4 7 -5 24 -21
39 -15 14 -21 22 -13 18 13 -8 13 -6 1 8 -7 9 -18 14 -24 10 -5 -3 -7 -2 -4 4
4 5 -22 53 -57 105 l-63 95 -32 -53z"/>
<path fill="#ffffff" stroke="none" d="M1019 1306 c9 -11 9 -16 -1 -22 -7 -4
-10 -4 -6 1 4 4 3 14 -3 22 -6 7 -9 13 -6 13 2 0 10 -6 16 -14z"/>
<path fill="#ffffff" stroke="none" d="M1005 1271 c3 -5 2 -12 -3 -15 -5 -3
-9 1 -9 9 0 17 3 19 12 6z"/>
<path fill="#ffffff" stroke="none" d="M1037 1265 c0 -8 -4 -12 -9 -9 -5 3 -6
10 -3 15 9 13 12 11 12 -6z"/>
<path fill="#ffffff" stroke="none" d="M985 1241 c3 -5 2 -12 -3 -15 -5 -3 -9
1 -9 9 0 17 3 19 12 6z"/>
<path fill="#ffffff" stroke="none" d="M1017 1243 c-4 -3 1 -16 10 -27 18 -21
18 -21 -4 -2 -20 16 -23 36 -6 36 4 0 3 -3 0 -7z"/>
<path fill="#ffffff" stroke="none" d="M1071 1233 c13 -16 12 -17 -3 -4 -10 7
-18 15 -18 17 0 8 8 3 21 -13z"/>
<path fill="#ffffff" stroke="none" d="M1051 1223 c13 -16 12 -17 -3 -4 -10 7
-18 15 -18 17 0 8 8 3 21 -13z"/>
<path fill="#ffffff" stroke="none" d="M997 1205 c0 -8 -4 -12 -9 -9 -5 3 -6
10 -3 15 9 13 12 11 12 -6z"/>
<path fill="#ffffff" stroke="none" d="M949 1196 c8 -10 8 -16 -3 -25 -10 -8
-16 -9 -21 -1 -4 6 -3 10 2 9 20 -3 25 2 13 16 -7 8 -10 15 -7 15 2 0 10 -6
16 -14z"/>
<path fill="#ffffff" stroke="none" d="M1104 1201 c3 -5 -1 -14 -8 -20 -10 -9
-16 -9 -21 -1 -4 6 -1 9 7 8 7 -2 12 3 11 10 -3 14 3 16 11 3z"/>
<path fill="#ffffff" stroke="none" d="M1057 1193 c-4 -3 3 -18 15 -32 l23
-26 -27 24 c-24 21 -29 41 -11 41 4 0 3 -3 0 -7z"/>
<path fill="#ffffff" stroke="none" d="M1014 1171 c3 -5 -1 -14 -8 -20 -10 -9
-16 -9 -21 -1 -4 6 -1 9 7 8 7 -2 12 3 11 10 -3 14 3 16 11 3z"/>
<path fill="#ffffff" stroke="none" d="M1116 1155 c-1 -13 -4 -27 -7 -30 -5
-4 -4 41 0 53 4 10 8 -2 7 -23z"/>
<path fill="#ffffff" stroke="none" d="M919 1156 c8 -10 8 -16 -3 -25 -10 -8
-16 -9 -21 -1 -4 6 -3 10 2 9 20 -3 25 2 13 16 -7 8 -10 15 -7 15 2 0 10 -6
16 -14z"/>
<path fill="#ffffff" stroke="none" d="M967 1163 c-4 -3 -2 -12 3 -18 7 -8 3
-18 -13 -31 l-22 -19 18 22 c12 14 15 23 7 28 -10 6 -5 25 7 25 4 0 3 -3 0 -7z"/>
<path fill="#ffffff" stroke="none" d="M1049 1156 c9 -11 9 -16 -1 -22 -7 -4
-10 -4 -6 1 4 4 3 14 -3 22 -6 7 -9 13 -6 13 2 0 10 -6 16 -14z"/>
<path fill="#ffffff" stroke="none" d="M1027 1135 c0 -8 -4 -12 -9 -9 -5 3 -6
10 -3 15 9 13 12 11 12 -6z"/>
<path fill="#ffffff" stroke="none" d="M950 1136 c0 -2 -8 -10 -17 -17 -16
-13 -17 -12 -4 4 13 16 21 21 21 13z"/>
<path fill="#ffffff" stroke="none" d="M884 1121 c3 -5 -2 -15 -12 -22 -15
-12 -16 -12 -5 2 7 9 10 19 6 22 -3 4 -4 7 0 7 3 0 8 -4 11 -9z"/>
<path fill="#ffffff" stroke="none" d="M1006 1109 c1 -5 2 -10 4 -11 5 -8 7
-39 2 -33 -4 4 -8 11 -8 16 -1 5 -2 10 -4 12 -5 7 -7 38 -2 32 4 -4 8 -11 8
-16z"/>
<path fill="#ffffff" stroke="none" d="M1087 1113 c0 -9 -4 -10 -14 -2 -7 6
-13 12 -13 14 0 1 6 2 13 2 8 0 14 -6 14 -14z"/>
<path fill="#ffffff" stroke="none" d="M1061 1103 c13 -16 12 -17 -3 -4 -10 7
-18 15 -18 17 0 8 8 3 21 -13z"/>
<path fill="#ffffff" stroke="none" d="M910 1107 c0 -2 -10 -12 -22 -23 l-23
-19 19 23 c18 21 26 27 26 19z"/>
<path fill="#ffffff" stroke="none" d="M977 1103 c-4 -3 -1 -13 6 -22 11 -14
10 -14 -5 -2 -16 12 -16 31 -1 31 4 0 3 -3 0 -7z"/>
<path fill="#ffffff" stroke="none" d="M1045 1090 c10 -11 16 -20 13 -20 -3 0
-13 9 -23 20 -10 11 -16 20 -13 20 3 0 13 -9 23 -20z"/>
<path fill="#ffffff" stroke="none" d="M1107 1099 c-1 -3 4 -13 12 -22 7 -10
10 -17 6 -17 -4 0 -1 -8 6 -17 13 -16 12 -17 -3 -5 -10 8 -17 17 -16 20 0 4
-1 9 -2 12 -4 11 -8 42 -5 38 2 -1 3 -6 2 -9z"/>
<path fill="#ffffff" stroke="none" d="M1147 1103 c-4 -3 -2 -12 4 -20 6 -7 8
-13 4 -13 -4 0 -2 -7 5 -15 7 -8 9 -15 5 -15 -4 0 -1 -8 6 -17 13 -16 12 -17
-3 -4 -10 7 -16 17 -13 21 3 5 1 11 -5 15 -6 4 -8 10 -5 15 3 5 1 11 -5 15
-10 6 -5 25 7 25 4 0 3 -3 0 -7z"/>
<path fill="#ffffff" stroke="none" d="M926 1085 c-3 -23 -22 -39 -31 -26 -3
7 -1 10 6 9 7 -2 14 3 15 10 2 19 4 22 8 22 2 0 3 -7 2 -15z"/>
<path fill="#ffffff" stroke="none" d="M955 1062 c-1 -9 2 -23 8 -29 5 -7 6
-13 2 -13 -4 0 -2 -6 4 -13 8 -11 6 -18 -12 -33 -22 -19 -22 -19 -4 2 9 11 14
24 10 28 -5 4 -9 12 -9 17 -1 5 -3 10 -4 12 -6 7 -6 56 1 52 4 -3 6 -13 4 -23z"/>
<path fill="#ffffff" stroke="none" d="M1087 1083 c-4 -3 -1 -13 6 -22 11 -14
10 -14 -5 -2 -16 12 -16 31 -1 31 4 0 3 -3 0 -7z"/>
<path fill="#ffffff" stroke="none" d="M1044 1061 c3 -4 -3 -16 -13 -25 -14
-13 -18 -14 -18 -2 0 8 5 14 11 13 6 -1 10 4 9 11 -3 14 3 16 11 3z"/>
<path fill="#ffffff" stroke="none" d="M889 1046 c9 -11 9 -16 -1 -22 -7 -4
-10 -4 -6 1 4 4 3 14 -3 22 -6 7 -9 13 -6 13 2 0 10 -6 16 -14z"/>
<path fill="#ffffff" stroke="none" d="M995 1041 c-1 -9 2 -22 8 -28 5 -7 6
-13 2 -13 -4 0 -1 -8 6 -17 13 -16 12 -17 -4 -4 -9 8 -15 16 -12 19 3 3 0 11
-6 19 -6 7 -8 13 -4 13 4 0 2 6 -4 13 -8 10 -7 14 3 14 8 0 13 -7 11 -16z"/>
<path fill="#ffffff" stroke="none" d="M1079 1046 c9 -10 7 -17 -6 -27 -16
-12 -17 -12 -6 2 10 12 10 18 1 27 -7 7 -9 12 -6 12 3 0 11 -6 17 -14z"/>
<path fill="#ffffff" stroke="none" d="M927 1043 c-4 -3 -2 -12 4 -19 7 -8 6
-14 -2 -20 -7 -4 -9 -3 -5 4 3 6 2 13 -4 17 -10 6 -5 25 7 25 4 0 3 -3 0 -7z"/>
<path fill="#ffffff" stroke="none" d="M1206 1034 c-1 -8 -4 -15 -7 -16 -2 -2
-3 -1 -2 1 2 2 -2 9 -7 16 -7 8 -5 12 4 12 8 0 13 -6 12 -13z"/>
<path fill="#ffffff" stroke="none" d="M836 1022 c-3 -3 0 -12 6 -21 10 -13
10 -14 -2 -4 -16 15 -23 46 -8 37 5 -3 7 -9 4 -12z"/>
<path fill="#ffffff" stroke="none" d="M867 1033 c-4 -3 -2 -12 4 -20 6 -7 8
-13 4 -13 -4 0 -1 -8 6 -17 13 -16 12 -17 -3 -4 -10 7 -16 17 -13 21 3 5 1 11
-5 15 -10 6 -5 25 7 25 4 0 3 -3 0 -7z"/>
<path fill="#ffffff" stroke="none" d="M1051 1027 c-6 -8 -7 -18 -3 -22 4 -5
1 -5 -6 -1 -10 6 -10 11 -1 22 6 8 14 14 16 14 3 0 0 -6 -6 -13z"/>
<path fill="#ffffff" stroke="none" d="M1119 1026 c9 -10 7 -17 -6 -27 -16
-12 -17 -12 -6 2 10 12 10 18 1 27 -7 7 -9 12 -6 12 3 0 11 -6 17 -14z"/>
<path fill="#ffffff" stroke="none" d="M810 1014 c0 -8 -19 -13 -24 -6 -3 5 1
9 9 9 8 0 15 -2 15 -3z"/>
<path fill="#ffffff" stroke="none" d="M907 1013 c-4 -3 -2 -12 4 -19 7 -8 6
-14 -2 -20 -7 -4 -9 -3 -5 4 3 6 2 13 -4 17 -10 6 -5 25 7 25 4 0 3 -3 0 -7z"/>
<path fill="#ffffff" stroke="none" d="M1161 1003 c13 -16 12 -17 -3 -4 -10 7
-18 15 -18 17 0 8 8 3 21 -13z"/>
<path fill="#ffffff" stroke="none" d="M1220 1007 c0 -2 -8 -11 -18 -20 -15
-14 -19 -15 -19 -2 0 8 4 12 8 9 4 -2 10 0 14 6 6 10 15 14 15 7z"/>
<path fill="#ffffff" stroke="none" d="M1249 997 c8 -11 6 -18 -12 -33 -22
-19 -22 -19 -5 2 14 16 15 23 6 32 -7 7 -9 12 -6 12 3 0 11 -6 17 -13z"/>
<path fill="#ffffff" stroke="none" d="M831 983 c13 -16 12 -17 -3 -4 -10 7
-18 15 -18 17 0 8 8 3 21 -13z"/>
<path fill="#ffffff" stroke="none" d="M1066 976 c0 -14 -3 -23 -7 -20 -6 3
-6 22 0 42 3 10 7 -2 7 -22z"/>
<path fill="#ffffff" stroke="none" d="M1140 996 c0 -2 -8 -10 -17 -17 -16
-13 -17 -12 -4 4 13 16 21 21 21 13z"/>
<path fill="#ffffff" stroke="none" d="M814 971 c14 -15 15 -21 4 -27 -7 -4
-10 -3 -5 1 4 5 0 17 -10 27 -9 10 -14 18 -11 18 3 0 13 -9 22 -19z"/>
<path fill="#ffffff" stroke="none" d="M1095 981 c3 -5 2 -12 -3 -15 -5 -3 -9
1 -9 9 0 17 3 19 12 6z"/>
<path fill="#ffffff" stroke="none" d="M1230 986 c0 -2 -8 -10 -17 -17 -16
-13 -17 -12 -4 4 13 16 21 21 21 13z"/>
<path fill="#ffffff" stroke="none" d="M871 963 c13 -16 12 -17 -3 -4 -10 7
-18 15 -18 17 0 8 8 3 21 -13z"/>
<path fill="#ffffff" stroke="none" d="M987 969 c-1 -3 4 -13 11 -22 9 -10 10
-17 2 -22 -6 -4 -10 -3 -9 2 1 4 0 10 -1 13 -4 11 -8 42 -5 38 2 -1 3 -6 2 -9z"/>
<path fill="#ffffff" stroke="none" d="M1141 967 c-6 -8 -9 -16 -6 -19 3 -3
-1 -11 -9 -17 -10 -8 -16 -9 -21 -1 -4 6 -1 9 6 8 7 -2 13 2 14 7 0 13 14 35
22 35 3 0 0 -6 -6 -13z"/>
<path fill="#ffffff" stroke="none" d="M1161 957 c-10 -9 -11 -8 -5 6 3 10 9
15 12 12 3 -3 0 -11 -7 -18z"/>
<path fill="#ffffff" stroke="none" d="M930 966 c0 -2 -6 -9 -14 -15 -11 -9
-16 -9 -22 0 -4 7 -3 9 4 5 6 -3 13 -2 17 4 6 10 15 14 15 6z"/>
<path fill="#ffffff" stroke="none" d="M859 946 c9 -11 9 -16 -1 -22 -7 -4
-10 -4 -6 1 4 4 3 14 -3 22 -6 7 -9 13 -6 13 2 0 10 -6 16 -14z"/>
<path fill="#ffffff" stroke="none" d="M967 953 c-4 -3 -2 -12 4 -19 7 -8 6
-14 -2 -20 -7 -4 -9 -3 -5 4 3 6 2 13 -4 17 -10 6 -5 25 7 25 4 0 3 -3 0 -7z"/>
<path fill="#ffffff" stroke="none" d="M800 946 c0 -2 -8 -10 -17 -17 -16 -13
-17 -12 -4 4 13 16 21 21 21 13z"/>
<path fill="#ffffff" stroke="none" d="M940 946 c0 -2 -8 -10 -17 -17 -16 -13
-17 -12 -4 4 13 16 21 21 21 13z"/>
<path fill="#ffffff" stroke="none" d="M1056 932 c-3 -3 0 -12 6 -21 10 -13
10 -14 -2 -4 -16 15 -23 46 -8 37 5 -3 7 -9 4 -12z"/>
<path fill="#ffffff" stroke="none" d="M1089 943 c-1 -5 0 -10 1 -13 8 -21 6
-41 -5 -50 -9 -8 -15 -8 -20 0 -4 6 -1 9 5 8 15 -4 22 29 9 38 -5 3 -7 10 -4
15 7 11 15 12 14 2z"/>
<path fill="#ffffff" stroke="none" d="M1210 946 c0 -2 -8 -10 -17 -17 -16
-13 -17 -12 -4 4 13 16 21 21 21 13z"/>
<path fill="#ffffff" stroke="none" d="M837 933 c-4 -3 -1 -13 6 -22 11 -14
10 -14 -5 -2 -16 12 -16 31 -1 31 4 0 3 -3 0 -7z"/>
<path fill="#ffffff" stroke="none" d="M1164 931 c3 -5 -1 -14 -8 -20 -10 -9
-16 -9 -21 -1 -4 6 -1 9 7 8 7 -2 12 3 11 10 -3 14 3 16 11 3z"/>
<path fill="#ffffff" stroke="none" d="M1230 937 c0 -2 -10 -12 -22 -23 l-23
-19 19 23 c18 21 26 27 26 19z"/>
<path fill="#ffffff" stroke="none" d="M810 926 c0 -2 -8 -10 -17 -17 -16 -13
-17 -12 -4 4 13 16 21 21 21 13z"/>
<path fill="#ffffff" stroke="none" d="M946 915 c-1 -8 -8 -21 -16 -28 -10
-10 -11 -9 -4 3 5 8 9 18 10 23 3 14 4 17 8 17 2 0 3 -7 2 -15z"/>
<path fill="#ffffff" stroke="none" d="M1022 918 c-9 -9 -9 -15 1 -27 11 -14
10 -14 -6 -2 -13 10 -15 17 -6 27 6 8 14 14 17 14 3 0 1 -5 -6 -12z"/>
<path fill="#ffffff" stroke="none" d="M877 913 c-4 -3 -1 -13 6 -22 11 -14
10 -14 -5 -2 -16 12 -16 31 -1 31 4 0 3 -3 0 -7z"/>
<path fill="#ffffff" stroke="none" d="M817 895 c0 -8 -4 -12 -9 -9 -5 3 -6
10 -3 15 9 13 12 11 12 -6z"/>
<path fill="#ffffff" stroke="none" d="M920 904 c0 -8 -19 -13 -24 -6 -3 5 1
9 9 9 8 0 15 -2 15 -3z"/>
<path fill="#ffffff" stroke="none" d="M1126 885 c1 -8 -1 -17 -5 -19 -4 -3
-7 6 -7 19 0 25 8 25 12 0z"/>
<path fill="#ffffff" stroke="none" d="M976 874 c1 -9 0 -13 -4 -10 -3 4 -7
14 -8 22 -1 9 0 13 4 10 3 -4 7 -14 8 -22z"/>
<path fill="#ffffff" stroke="none" d="M1217 885 c0 -8 -4 -12 -9 -9 -5 3 -6
10 -3 15 9 13 12 11 12 -6z"/>
<path fill="#ffffff" stroke="none" d="M831 867 c-10 -9 -11 -8 -5 6 3 10 9
15 12 12 3 -3 0 -11 -7 -18z"/>
<path fill="#ffffff" stroke="none" d="M866 854 c0 -13 -2 -22 -5 -19 -3 3 -6
17 -7 31 0 13 2 22 5 19 3 -3 6 -17 7 -31z"/>
<path fill="#ffffff" stroke="none" d="M1006 854 c0 -13 -2 -22 -5 -19 -3 3
-6 17 -7 31 0 13 2 22 5 19 3 -3 6 -17 7 -31z"/>
<path fill="#ffffff" stroke="none" d="M1186 866 c0 -14 -3 -23 -7 -20 -6 3
-6 22 0 42 3 10 7 -2 7 -22z"/>
<path fill="#ffffff" stroke="none" d="M946 871 c-8 -12 19 -33 29 -23 5 4 5
1 1 -6 -6 -11 -12 -10 -27 4 -16 14 -18 34 -3 34 3 0 3 -4 0 -9z"/>
<path fill="#ffffff" stroke="none" d="M1059 866 c9 -10 7 -17 -6 -27 -16 -12
-17 -12 -6 2 10 12 10 18 1 27 -7 7 -9 12 -6 12 3 0 11 -6 17 -14z"/>
<path fill="#ffffff" stroke="none" d="M901 853 c13 -16 12 -17 -3 -4 -10 7
-18 15 -18 17 0 8 8 3 21 -13z"/>
<path fill="#ffffff" stroke="none" d="M1035 861 c3 -5 2 -12 -3 -15 -5 -3 -9
1 -9 9 0 17 3 19 12 6z"/>
<path fill="#ffffff" stroke="none" d="M1097 855 c0 -8 -4 -12 -9 -9 -5 3 -6
10 -3 15 9 13 12 11 12 -6z"/>
<path fill="#ffffff" stroke="none" d="M1156 844 c-1 -8 -4 -15 -7 -16 -2 -2
-3 -1 -2 1 2 2 -2 9 -7 16 -7 8 -5 12 4 12 8 0 13 -6 12 -13z"/>
<path fill="#ffffff" stroke="none" d="M940 815 c-5 -6 -7 -14 -4 -17 3 -3 1
-9 -4 -12 -11 -7 -10 19 1 30 4 4 1 14 -6 23 -11 14 -10 14 6 2 12 -9 14 -17
7 -26z"/>
<path fill="#ffffff" stroke="none" d="M1126 824 c1 -9 0 -13 -4 -10 -3 4 -7
14 -8 22 -1 9 0 13 4 10 3 -4 7 -14 8 -22z"/>
<path fill="#ffffff" stroke="none" d="M913 827 c4 3 7 4 7 1 0 -3 -10 -13
-22 -24 -13 -11 -18 -13 -11 -3 10 12 10 18 0 29 -10 12 -9 12 4 2 9 -6 19 -9
22 -5z"/>
<path fill="#ffffff" stroke="none" d="M994 821 c3 -5 -2 -15 -12 -22 -15 -12
-16 -12 -5 2 7 9 10 19 6 22 -3 4 -4 7 0 7 3 0 8 -4 11 -9z"/>
<path fill="#ffffff" stroke="none" d="M1027 823 c-4 -3 -1 -13 5 -21 15 -17
20 -44 7 -36 -5 3 -7 9 -4 14 3 4 -2 13 -10 20 -14 11 -12 30 2 30 4 0 3 -3 0
-7z"/>
<path fill="#ffffff" stroke="none" d="M1100 826 c0 -2 -8 -10 -17 -17 -16
-13 -17 -12 -4 4 13 16 21 21 21 13z"/>
<path fill="#ffffff" stroke="none" d="M880 814 c0 -8 -19 -13 -24 -6 -3 5 1
9 9 9 8 0 15 -2 15 -3z"/>
<path fill="#ffffff" stroke="none" d="M1101 797 c-6 -8 -9 -16 -6 -19 3 -2
-8 -17 -23 -32 -20 -18 -29 -22 -29 -12 0 8 5 14 11 13 6 -1 10 4 9 11 -2 6 2
11 9 10 7 -2 12 2 13 7 0 13 14 35 22 35 3 0 0 -6 -6 -13z"/>
<path fill="#ffffff" stroke="none" d="M1154 801 c3 -5 -2 -15 -12 -22 -15
-12 -16 -12 -5 2 7 9 10 19 6 22 -3 4 -4 7 0 7 3 0 8 -4 11 -9z"/>
<path fill="#ffffff" stroke="none" d="M908 778 c-2 -7 2 -12 8 -11 6 1 11 -5
11 -13 0 -12 -4 -11 -18 2 -10 9 -16 21 -13 25 8 13 14 11 12 -3z"/>
<path fill="#ffffff" stroke="none" d="M956 775 c-1 -8 -5 -17 -8 -21 -5 -4
-4 16 1 34 3 9 9 -1 7 -13z"/>
<path fill="#ffffff" stroke="none" d="M984 771 c3 -5 -2 -15 -12 -22 -15 -12
-16 -12 -5 2 7 9 10 19 6 22 -3 4 -4 7 0 7 3 0 8 -4 11 -9z"/>
<path fill="#ffffff" stroke="none" d="M1019 773 c-1 -5 0 -10 1 -13 8 -21 6
-41 -5 -50 -9 -8 -15 -8 -20 0 -4 6 -1 9 5 8 15 -4 22 29 9 38 -5 3 -7 10 -4
15 7 11 15 12 14 2z"/>
<path fill="#ffffff" stroke="none" d="M1125 761 c3 -5 2 -12 -3 -15 -5 -3 -9
1 -9 9 0 17 3 19 12 6z"/>
<path fill="#ffffff" stroke="none" d="M1000 746 c0 -2 -8 -10 -17 -17 -16
-13 -17 -12 -4 4 13 16 21 21 21 13z"/>
<path fill="#ffffff" stroke="none" d="M1080 726 c0 -2 -8 -10 -17 -17 -16
-13 -17 -12 -4 4 13 16 21 21 21 13z"/>
<path fill="#ffffff" stroke="none" d="M1100 717 c0 -2 -10 -12 -22 -23 l-23
-19 19 23 c18 21 26 27 26 19z"/>
<path fill="#ffffff" stroke="none" d="M991 693 c13 -16 12 -17 -3 -4 -10 7
-18 15 -18 17 0 8 8 3 21 -13z"/>
<path fill="#ffffff" stroke="none" d="M1040 706 c0 -2 -8 -10 -17 -17 -16
-13 -17 -12 -4 4 13 16 21 21 21 13z"/>
<path fill="#ffffff" stroke="none" d="M981 673 c13 -16 12 -17 -3 -4 -10 7
-18 15 -18 17 0 8 8 3 21 -13z"/>
<path fill="#ffffff" stroke="none" d="M1027 662 c-15 -16 -24 -32 -20 -37 5
-5 0 -3 -9 4 -21 16 -23 22 -5 19 6 -2 11 3 9 10 -1 8 2 11 7 8 5 -3 14 1 21
9 7 8 15 15 18 15 3 0 -6 -13 -21 -28z"/>
<path fill="#ffffff" stroke="none" d="M1031 627 c-10 -9 -11 -8 -5 6 3 10 9
15 12 12 3 -3 0 -11 -7 -18z"/>
<path fill="#000000" stroke="none" d="M2126 1291 c-44 -71 -165 -232 -213
-282 -26 -28 -33 -42 -28 -58 3 -12 11 -21 16 -21 6 0 7 5 3 12 -4 7 -3 8 4 4
6 -4 9 -12 7 -19 -3 -7 7 -25 23 -42 15 -16 38 -45 51 -63 24 -34 42 -35 36
-2 -2 12 0 18 5 15 10 -6 8 -24 -4 -44 -5 -8 -3 -16 5 -22 8 -5 10 -9 5 -9 -5
0 0 -10 11 -22 24 -27 98 -137 106 -158 4 -10 6 -11 6 -2 1 7 6 10 13 6 7 -4
8 -3 4 4 -12 20 -16 53 -5 47 5 -4 7 -10 4 -15 -3 -5 -1 -11 5 -15 5 -3 10 0
10 9 0 8 16 36 36 61 19 26 36 55 37 65 1 10 4 17 8 14 4 -2 13 4 20 13 12 14
12 16 -1 9 -8 -4 -6 -1 4 8 16 13 17 18 5 33 -11 15 -11 16 1 6 8 -7 17 -13
20 -13 4 0 24 27 45 59 22 33 44 57 49 54 5 -3 6 -1 2 5 -4 7 -3 12 2 12 6 0
13 7 16 16 4 10 -8 31 -33 57 -22 23 -58 67 -81 97 -22 30 -46 54 -51 52 -6
-1 -8 2 -4 8 9 14 -14 42 -28 33 -6 -3 -7 -1 -3 5 4 6 -11 41 -33 77 l-39 66
-36 -60z"/>
<path fill="#ffffff" stroke="none" d="M2166 1264 c1 -9 0 -13 -4 -10 -3 4 -7
14 -8 22 -1 9 0 13 4 10 3 -4 7 -14 8 -22z"/>
<path fill="#ffffff" stroke="none" d="M2196 1255 c3 -19 -22 -40 -31 -25 -4
6 -1 9 7 8 8 -2 13 6 12 20 -2 24 8 22 12 -3z"/>
<path fill="#ffffff" stroke="none" d="M2135 1261 c-3 -5 0 -13 6 -16 7 -5 3
-15 -10 -29 -12 -12 -18 -26 -14 -31 5 -4 2 -5 -5 -1 -11 6 -9 13 8 31 14 15
18 25 11 30 -10 6 -6 25 5 25 3 0 3 -4 -1 -9z"/>
<path fill="#ffffff" stroke="none" d="M2120 1236 c0 -2 -8 -10 -17 -17 -16
-13 -17 -12 -4 4 13 16 21 21 21 13z"/>
<path fill="#ffffff" stroke="none" d="M2157 1213 c-4 -3 -1 -13 6 -22 11 -14
10 -14 -5 -2 -16 12 -16 31 -1 31 4 0 3 -3 0 -7z"/>
<path fill="#ffffff" stroke="none" d="M2216 1195 c-1 -8 -5 -17 -8 -21 -5 -4
-4 16 1 34 3 9 9 -1 7 -13z"/>
<path fill="#ffffff" stroke="none" d="M2075 1181 c3 -5 2 -12 -3 -15 -5 -3
-9 1 -9 9 0 17 3 19 12 6z"/>
<path fill="#ffffff" stroke="none" d="M2151 1173 c13 -16 12 -17 -3 -4 -17
13 -22 21 -14 21 2 0 10 -8 17 -17z"/>
<path fill="#ffffff" stroke="none" d="M2186 1165 c-1 -8 -5 -17 -8 -21 -5 -4
-4 16 1 34 3 9 9 -1 7 -13z"/>
<path fill="#ffffff" stroke="none" d="M2134 1161 c3 -5 -1 -14 -8 -20 -10 -9
-16 -9 -21 -1 -4 6 -1 9 7 8 7 -2 12 3 11 10 -3 14 3 16 11 3z"/>
<path fill="#ffffff" stroke="none" d="M2250 1164 c0 -8 -19 -13 -24 -6 -3 5
1 9 9 9 8 0 15 -2 15 -3z"/>
<path fill="#ffffff" stroke="none" d="M2087 1153 c-4 -3 -1 -13 6 -22 11 -14
10 -14 -5 -2 -16 12 -16 31 -1 31 4 0 3 -3 0 -7z"/>
<path fill="#ffffff" stroke="none" d="M2219 1146 c9 -11 9 -16 -1 -22 -7 -4
-10 -4 -6 1 4 4 3 14 -3 22 -6 7 -9 13 -6 13 2 0 10 -6 16 -14z"/>
<path fill="#ffffff" stroke="none" d="M2160 1146 c0 -2 -8 -10 -17 -17 -16
-13 -17 -12 -4 4 13 16 21 21 21 13z"/>
<path fill="#ffffff" stroke="none" d="M2257 1135 c0 -8 -4 -12 -9 -9 -5 3 -6
10 -3 15 9 13 12 11 12 -6z"/>
<path fill="#ffffff" stroke="none" d="M2285 1141 c3 -5 2 -12 -3 -15 -5 -3
-9 1 -9 9 0 17 3 19 12 6z"/>
<path fill="#ffffff" stroke="none" d="M2046 1114 c1 -9 0 -13 -4 -10 -3 4 -7
14 -8 22 -1 9 0 13 4 10 3 -4 7 -14 8 -22z"/>
<path fill="#ffffff" stroke="none" d="M2197 1125 c0 -8 -4 -12 -9 -9 -5 3 -6
10 -3 15 9 13 12 11 12 -6z"/>
<path fill="#ffffff" stroke="none" d="M2076 1112 c-3 -3 0 -12 6 -21 10 -13
10 -14 -2 -4 -16 15 -23 46 -8 37 5 -3 7 -9 4 -12z"/>
<path fill="#ffffff" stroke="none" d="M2170 1126 c0 -2 -8 -10 -17 -17 -16
-13 -17 -12 -4 4 13 16 21 21 21 13z"/>
<path fill="#ffffff" stroke="none" d="M2300 1117 c0 -2 -8 -11 -18 -20 -15
-14 -19 -15 -19 -2 0 8 4 12 8 9 4 -2 10 0 14 6 6 10 15 14 15 7z"/>
<path fill="#ffffff" stroke="none" d="M2109 1096 c9 -11 9 -16 -1 -22 -7 -4
-10 -4 -6 1 4 4 3 14 -3 22 -6 7 -9 13 -6 13 2 0 10 -6 16 -14z"/>
<path fill="#ffffff" stroke="none" d="M2171 1097 c-6 -8 -7 -18 -3 -22 4 -5
1 -5 -6 -1 -10 6 -10 11 -1 22 6 8 14 14 16 14 3 0 0 -6 -6 -13z"/>
<path fill="#ffffff" stroke="none" d="M2221 1086 c-6 -7 -7 -17 -3 -21 4 -5
1 -5 -6 -1 -9 6 -10 11 -3 20 6 7 7 17 3 21 -4 5 -1 5 6 1 9 -6 10 -11 3 -20z"/>
<path fill="#ffffff" stroke="none" d="M2316 1086 c0 -14 -3 -23 -7 -20 -6 3
-6 22 0 42 3 10 7 -2 7 -22z"/>
<path fill="#ffffff" stroke="none" d="M2035 1091 c3 -5 2 -12 -3 -15 -5 -3
-9 1 -9 9 0 17 3 19 12 6z"/>
<path fill="#ffffff" stroke="none" d="M2007 1075 c0 -8 -4 -12 -9 -9 -5 3 -6
10 -3 15 9 13 12 11 12 -6z"/>
<path fill="#ffffff" stroke="none" d="M2290 1077 c0 -2 -8 -11 -18 -20 -15
-14 -19 -15 -19 -2 0 8 4 12 8 9 4 -2 10 0 14 6 6 10 15 14 15 7z"/>
<path fill="#ffffff" stroke="none" d="M1991 1053 c13 -16 12 -17 -3 -4 -17
13 -22 21 -14 21 2 0 10 -8 17 -17z"/>
<path fill="#ffffff" stroke="none" d="M2055 1061 c3 -5 2 -12 -3 -15 -5 -3
-9 1 -9 9 0 17 3 19 12 6z"/>
<path fill="#ffffff" stroke="none" d="M2087 1063 c-4 -3 -2 -12 4 -19 7 -8 6
-14 -2 -20 -7 -4 -9 -3 -5 4 3 6 2 13 -4 17 -10 6 -5 25 7 25 4 0 3 -3 0 -7z"/>
<path fill="#ffffff" stroke="none" d="M2145 1062 c-3 -3 0 -11 6 -19 17 -20
5 -16 -14 5 -15 16 -15 19 -2 19 8 0 13 -3 10 -5z"/>
<path fill="#ffffff" stroke="none" d="M2201 1053 c13 -16 12 -17 -3 -4 -17
13 -22 21 -14 21 2 0 10 -8 17 -17z"/>
<path fill="#ffffff" stroke="none" d="M2027 1053 c-4 -3 -1 -13 6 -22 11 -14
10 -14 -5 -2 -16 12 -16 31 -1 31 4 0 3 -3 0 -7z"/>
<path fill="#ffffff" stroke="none" d="M2124 1042 c15 -18 15 -20 -2 -35 -15
-14 -19 -14 -19 -3 0 8 3 15 6 14 20 -2 22 4 6 22 -10 11 -16 20 -13 20 3 0
12 -8 22 -18z"/>
<path fill="#ffffff" stroke="none" d="M2179 1046 c9 -11 9 -16 -1 -22 -7 -4
-10 -4 -6 1 4 4 3 14 -3 22 -6 7 -9 13 -6 13 2 0 10 -6 16 -14z"/>
<path fill="#ffffff" stroke="none" d="M2239 1053 c-1 -5 0 -10 1 -13 7 -19 7
-39 -1 -34 -5 3 -7 9 -4 14 3 5 1 11 -5 15 -6 4 -8 11 -5 16 7 11 15 12 14 2z"/>
<path fill="#ffffff" stroke="none" d="M2300 1057 c0 -2 -10 -12 -22 -23 l-23
-19 19 23 c18 21 26 27 26 19z"/>
<path fill="#ffffff" stroke="none" d="M2345 1051 c3 -5 2 -12 -3 -15 -5 -3
-9 1 -9 9 0 17 3 19 12 6z"/>
<path fill="#ffffff" stroke="none" d="M1979 1037 c8 -11 4 -19 -17 -38 l-27
-24 22 26 c18 19 20 28 11 37 -7 7 -9 12 -6 12 3 0 11 -6 17 -13z"/>
<path fill="#ffffff" stroke="none" d="M2316 1035 c-3 -23 -22 -39 -31 -26 -3
7 -1 10 6 9 7 -2 14 3 15 10 2 19 4 22 8 22 2 0 3 -7 2 -15z"/>
<path fill="#ffffff" stroke="none" d="M2066 1025 c-1 -8 -5 -17 -8 -21 -5 -4
-4 16 1 34 3 9 9 -1 7 -13z"/>
<path fill="#ffffff" stroke="none" d="M1960 1026 c0 -2 -8 -10 -17 -17 -16
-13 -17 -12 -4 4 13 16 21 21 21 13z"/>
<path fill="#ffffff" stroke="none" d="M2216 1018 c4 -7 4 -10 -1 -6 -4 4 -15
2 -24 -5 -14 -11 -14 -10 -2 6 16 20 18 21 27 5z"/>
<path fill="#ffffff" stroke="none" d="M2380 1025 c0 -1 -10 -10 -22 -21 -14
-12 -18 -13 -10 -3 6 9 10 18 7 21 -3 2 2 5 10 5 8 0 15 -1 15 -2z"/>
<path fill="#ffffff" stroke="none" d="M2166 994 c1 -9 0 -13 -4 -10 -3 4 -7
14 -8 22 -1 9 0 13 4 10 3 -4 7 -14 8 -22z"/>
<path fill="#ffffff" stroke="none" d="M2331 1007 c-6 -8 -8 -16 -5 -19 3 -3
1 -9 -4 -12 -6 -3 -9 0 -8 6 2 16 15 38 23 38 3 0 0 -6 -6 -13z"/>
<path fill="#ffffff" stroke="none" d="M2006 989 c1 -5 2 -10 4 -11 1 -2 3
-11 5 -20 4 -21 -20 -44 -30 -28 -4 6 -1 9 6 8 14 -3 19 19 10 37 -8 15 -10
38 -3 30 4 -4 8 -11 8 -16z"/>
<path fill="#ffffff" stroke="none" d="M2037 995 c0 -8 -4 -12 -9 -9 -5 3 -6
10 -3 15 9 13 12 11 12 -6z"/>
<path fill="#ffffff" stroke="none" d="M2087 995 c0 -8 -4 -12 -9 -9 -5 3 -6
10 -3 15 9 13 12 11 12 -6z"/>
<path fill="#ffffff" stroke="none" d="M2285 990 c10 -11 16 -20 13 -20 -3 0
-13 9 -23 20 -10 11 -16 20 -13 20 3 0 13 -9 23 -20z"/>
<path fill="#ffffff" stroke="none" d="M2394 1001 c3 -4 -3 -16 -13 -25 -14
-13 -18 -14 -18 -2 0 8 5 14 11 13 6 -1 10 4 9 11 -3 14 3 16 11 3z"/>
<path fill="#ffffff" stroke="none" d="M1924 991 c3 -5 -1 -14 -8 -20 -10 -9
-16 -9 -21 -1 -4 6 -1 9 7 8 7 -2 12 3 11 10 -3 14 3 16 11 3z"/>
<path fill="#ffffff" stroke="none" d="M1980 986 c0 -2 -8 -10 -17 -17 -16
-13 -17 -12 -4 4 13 16 21 21 21 13z"/>
<path fill="#ffffff" stroke="none" d="M2064 981 c3 -4 -3 -16 -13 -25 -14
-13 -18 -14 -18 -2 0 8 5 14 11 13 6 -1 10 4 9 11 -3 14 3 16 11 3z"/>
<path fill="#ffffff" stroke="none" d="M2196 964 c1 -9 0 -13 -4 -10 -3 4 -7
14 -8 22 -1 9 0 13 4 10 3 -4 7 -14 8 -22z"/>
<path fill="#ffffff" stroke="none" d="M2271 973 c13 -16 12 -17 -3 -4 -17 13
-22 21 -14 21 2 0 10 -8 17 -17z"/>
<path fill="#ffffff" stroke="none" d="M2115 971 c3 -5 2 -12 -3 -15 -5 -3 -9
1 -9 9 0 17 3 19 12 6z"/>
<path fill="#ffffff" stroke="none" d="M2147 973 c-4 -3 -1 -13 6 -22 11 -14
10 -14 -5 -2 -16 12 -16 31 -1 31 4 0 3 -3 0 -7z"/>
<path fill="#ffffff" stroke="none" d="M2226 954 c1 -9 0 -13 -4 -10 -3 4 -7
14 -8 22 -1 9 0 13 4 10 3 -4 7 -14 8 -22z"/>
<path fill="#ffffff" stroke="none" d="M2346 965 c-1 -8 -5 -17 -8 -21 -5 -4
-4 16 1 34 3 9 9 -1 7 -13z"/>
<path fill="#ffffff" stroke="none" d="M2430 975 c0 -1 -10 -11 -23 -23 -17
-17 -24 -18 -24 -8 0 8 5 14 11 13 6 -1 10 3 9 9 -1 6 5 11 13 11 8 0 14 -1
14 -2z"/>
<path fill="#ffffff" stroke="none" d="M1990 966 c0 -2 -8 -10 -17 -17 -16
-13 -17 -12 -4 4 13 16 21 21 21 13z"/>
<path fill="#ffffff" stroke="none" d="M2085 953 c-1 -10 0 -22 4 -28 9 -16
10 -35 1 -40 -5 -3 -7 3 -5 15 2 11 0 22 -5 25 -7 4 -7 22 -1 43 4 10 9 -2 6
-15z"/>
<path fill="#ffffff" stroke="none" d="M2256 952 c-3 -3 0 -12 6 -21 10 -13
10 -14 -2 -4 -16 15 -23 46 -8 37 5 -3 7 -9 4 -12z"/>
<path fill="#ffffff" stroke="none" d="M2317 943 c0 -9 -4 -10 -14 -2 -7 6
-13 12 -13 14 0 1 6 2 13 2 8 0 14 -6 14 -14z"/>
<path fill="#ffffff" stroke="none" d="M1947 935 c0 -8 -4 -12 -9 -9 -5 3 -6
10 -3 15 9 13 12 11 12 -6z"/>
<path fill="#ffffff" stroke="none" d="M2186 924 c1 -9 0 -13 -4 -10 -3 4 -7
14 -8 22 -1 9 0 13 4 10 3 -4 7 -14 8 -22z"/>
<path fill="#ffffff" stroke="none" d="M2296 915 c-1 -8 -5 -17 -8 -21 -4 -3
-5 2 -4 13 2 10 -2 25 -8 33 -9 13 -9 13 6 2 9 -7 15 -19 14 -27z"/>
<path fill="#ffffff" stroke="none" d="M2367 935 c0 -8 -4 -12 -9 -9 -5 3 -6
10 -3 15 9 13 12 11 12 -6z"/>
<path fill="#ffffff" stroke="none" d="M2057 933 c-4 -3 -1 -13 6 -22 11 -14
10 -14 -5 -2 -16 12 -16 31 -1 31 4 0 3 -3 0 -7z"/>
<path fill="#ffffff" stroke="none" d="M2121 923 c13 -16 12 -17 -3 -4 -17 13
-22 21 -14 21 2 0 10 -8 17 -17z"/>
<path fill="#ffffff" stroke="none" d="M2216 915 c3 -19 -22 -40 -31 -25 -4 6
-1 9 7 8 8 -2 13 6 12 20 -2 24 8 22 12 -3z"/>
<path fill="#ffffff" stroke="none" d="M1974 921 c3 -5 -1 -14 -8 -20 -10 -9
-16 -9 -21 -1 -4 6 -1 9 7 8 7 -2 12 3 11 10 -3 14 3 16 11 3z"/>
<path fill="#ffffff" stroke="none" d="M2157 923 c-4 -3 -2 -12 4 -19 7 -8 6
-14 -2 -20 -7 -4 -9 -3 -5 4 3 6 2 13 -4 17 -10 6 -5 25 7 25 4 0 3 -3 0 -7z"/>
<path fill="#ffffff" stroke="none" d="M2260 885 c-5 -6 -8 -14 -5 -17 3 -3
-3 -12 -13 -21 -15 -14 -19 -14 -19 -3 0 8 5 14 11 13 5 -1 10 3 11 10 0 6 3
15 8 19 4 4 -1 17 -10 28 -18 21 -18 21 4 2 16 -13 20 -23 13 -31z"/>
<path fill="#ffffff" stroke="none" d="M2335 892 c-3 -3 1 -12 8 -21 11 -14
10 -14 -6 -2 -9 8 -15 16 -12 19 3 3 -1 12 -8 21 -11 14 -10 14 6 2 9 -8 15
-16 12 -19z"/>
<path fill="#ffffff" stroke="none" d="M2000 907 c0 -2 -10 -12 -22 -23 l-23
-19 19 23 c18 21 26 27 26 19z"/>
<path fill="#ffffff" stroke="none" d="M2045 901 c3 -5 2 -12 -3 -15 -5 -3 -9
1 -9 9 0 17 3 19 12 6z"/>
<path fill="#ffffff" stroke="none" d="M2367 895 c0 -8 -4 -12 -9 -9 -5 3 -6
10 -3 15 9 13 12 11 12 -6z"/>
<path fill="#ffffff" stroke="none" d="M2015 883 c-2 -10 -4 -19 -5 -20 -2 -2
-3 -7 -4 -12 0 -5 -5 -13 -11 -18 -6 -4 -7 -4 -3 1 4 5 3 15 -4 23 -9 11 -8
13 2 11 8 -2 15 3 16 10 2 19 4 22 8 22 2 0 3 -8 1 -17z"/>
<path fill="#ffffff" stroke="none" d="M2137 883 c0 -9 -4 -10 -14 -2 -7 6
-13 12 -13 14 0 1 6 2 13 2 8 0 14 -6 14 -14z"/>
<path fill="#ffffff" stroke="none" d="M2240 897 c0 -2 -10 -12 -22 -23 l-23
-19 19 23 c18 21 26 27 26 19z"/>
<path fill="#ffffff" stroke="none" d="M2066 875 c-1 -8 -8 -21 -16 -28 -10
-10 -11 -9 -4 3 5 8 9 18 10 23 3 14 4 17 8 17 2 0 3 -7 2 -15z"/>
<path fill="#ffffff" stroke="none" d="M2305 873 c-1 -10 5 -27 14 -38 16 -20
16 -20 -6 -2 -17 15 -21 30 -14 55 4 11 9 -2 6 -15z"/>
<path fill="#ffffff" stroke="none" d="M2101 853 c13 -16 12 -17 -3 -4 -17 13
-22 21 -14 21 2 0 10 -8 17 -17z"/>
<path fill="#ffffff" stroke="none" d="M2157 859 c-1 -3 4 -13 11 -21 10 -12
10 -18 -2 -27 -10 -8 -16 -9 -21 -1 -4 6 -3 10 2 9 18 -3 24 2 16 14 -7 12
-14 42 -8 35 2 -1 3 -6 2 -9z"/>
<path fill="#ffffff" stroke="none" d="M2136 845 c-1 -8 -5 -17 -8 -21 -5 -4
-4 16 1 34 3 9 9 -1 7 -13z"/>
<path fill="#ffffff" stroke="none" d="M2275 843 c-1 -10 2 -23 7 -30 6 -7 5
-14 -3 -19 -7 -4 -9 -3 -5 4 3 6 2 13 -3 16 -7 5 -8 23 -2 44 4 11 9 -2 6 -15z"/>
<path fill="#ffffff" stroke="none" d="M2080 846 c0 -2 -8 -10 -17 -17 -16
-13 -17 -12 -4 4 13 16 21 21 21 13z"/>
<path fill="#ffffff" stroke="none" d="M2205 842 c-3 -3 0 -11 6 -18 7 -9 6
-14 -3 -20 -7 -4 -10 -3 -5 1 4 5 0 16 -8 25 -13 15 -13 17 0 17 8 0 13 -3 10
-5z"/>
<path fill="#ffffff" stroke="none" d="M2087 815 c0 -8 -4 -12 -9 -9 -5 3 -6
10 -3 15 9 13 12 11 12 -6z"/>
<path fill="#ffffff" stroke="none" d="M2247 823 c-4 -3 -2 -12 4 -19 7 -8 6
-14 -2 -20 -7 -4 -9 -3 -5 4 3 6 2 13 -4 17 -10 6 -5 25 7 25 4 0 3 -3 0 -7z"/>
<path fill="#ffffff" stroke="none" d="M2139 796 c9 -11 9 -16 -1 -22 -7 -4
-10 -4 -6 1 4 4 3 14 -3 22 -6 7 -9 13 -6 13 2 0 10 -6 16 -14z"/>
<path fill="#ffffff" stroke="none" d="M2190 806 c0 -2 -8 -10 -17 -17 -16
-13 -17 -12 -4 4 13 16 21 21 21 13z"/>
<path fill="#ffffff" stroke="none" d="M2116 774 c1 -9 0 -13 -4 -10 -3 4 -7
14 -8 22 -1 9 0 13 4 10 3 -4 7 -14 8 -22z"/>
<path fill="#ffffff" stroke="none" d="M2227 785 c0 -8 -4 -12 -9 -9 -5 3 -6
10 -3 15 9 13 12 11 12 -6z"/>
<path fill="#ffffff" stroke="none" d="M2087 783 c-4 -3 -2 -12 3 -18 7 -9 5
-17 -7 -26 -16 -13 -17 -12 -5 3 9 11 10 18 2 23 -10 6 -5 25 7 25 4 0 3 -3 0
-7z"/>
<path fill="#ffffff" stroke="none" d="M2192 778 c-9 -9 -9 -15 1 -27 11 -14
10 -14 -6 -2 -13 10 -15 17 -6 27 6 8 14 14 17 14 3 0 1 -5 -6 -12z"/>
<path fill="#ffffff" stroke="none" d="M2246 745 c-1 -14 -13 -35 -26 -48 -13
-12 -19 -15 -12 -6 7 9 8 19 4 23 -4 4 0 6 8 4 9 -2 15 5 16 20 2 27 3 32 7
32 2 0 3 -11 3 -25z"/>
<path fill="#ffffff" stroke="none" d="M2070 754 c0 -8 -19 -13 -24 -6 -3 5 1
9 9 9 8 0 15 -2 15 -3z"/>
<path fill="#ffffff" stroke="none" d="M2126 714 c0 -13 -2 -22 -5 -19 -3 3
-6 17 -7 31 0 13 2 22 5 19 3 -3 6 -17 7 -31z"/>
<path fill="#ffffff" stroke="none" d="M2174 741 c3 -4 -3 -16 -13 -25 -14
-13 -18 -14 -18 -2 0 8 5 14 11 13 6 -1 10 4 9 11 -3 14 3 16 11 3z"/>
<path fill="#ffffff" stroke="none" d="M2097 715 c0 -8 -4 -12 -9 -9 -5 3 -6
10 -3 15 9 13 12 11 12 -6z"/>
<path fill="#ffffff" stroke="none" d="M2197 715 c0 -8 -8 -22 -17 -30 -14
-13 -17 -13 -17 -1 0 8 5 14 11 13 5 -1 11 4 12 11 4 27 11 32 11 7z"/>
<path fill="#ffffff" stroke="none" d="M2147 683 c-4 -3 -1 -13 6 -22 11 -14
10 -14 -5 -2 -16 12 -16 31 -1 31 4 0 3 -3 0 -7z"/>
<path fill="#ffffff" stroke="none" d="M2187 655 c0 -8 -4 -12 -9 -9 -5 3 -6
10 -3 15 9 13 12 11 12 -6z"/>
<path fill="#ffffff" stroke="none" d="M2141 643 c13 -16 12 -17 -3 -4 -17 13
-22 21 -14 21 2 0 10 -8 17 -17z"/>
<path fill="#000000" stroke="none" d="M2777 1118 c-43 -61 -52 -96 -34 -126
5 -7 14 -9 20 -6 7 4 9 4 5 -1 -4 -4 -2 -15 4 -24 7 -9 -2 -3 -19 13 -19 17
-30 36 -28 47 4 22 -10 26 -18 4 -7 -16 68 -112 84 -107 6 1 8 -2 4 -8 -7 -11
12 -50 25 -50 11 0 41 60 35 70 -3 4 3 14 13 21 15 13 16 12 3 -3 -7 -10 -9
-18 -3 -18 13 0 22 24 17 50 -2 11 0 18 6 15 5 -4 7 -11 4 -16 -12 -18 7 -8
25 13 17 22 17 23 -7 55 -14 18 -30 30 -37 26 -6 -3 -8 -3 -4 2 8 9 -22 65
-35 65 -4 0 -5 5 -2 10 3 6 1 10 -5 10 -6 0 -8 5 -5 10 3 6 4 10 1 10 -2 0
-24 -28 -49 -62z"/>
<path fill="#ffffff" stroke="none" d="M2831 1117 c-7 -7 -7 -16 1 -26 10 -13
10 -14 -2 -4 -19 17 -21 40 -4 40 10 0 11 -4 5 -10z"/>
<path fill="#ffffff" stroke="none" d="M2814 1081 c3 -5 -1 -14 -8 -20 -10 -9
-16 -9 -21 -1 -4 6 -1 9 7 8 7 -2 12 3 11 10 -3 14 3 16 11 3z"/>
<path fill="#ffffff" stroke="none" d="M2840 1067 c0 -2 -10 -12 -22 -23 l-23
-19 19 23 c18 21 26 27 26 19z"/>
<path fill="#ffffff" stroke="none" d="M2856 1045 c-3 -23 -22 -39 -31 -26 -3
7 -1 10 6 9 7 -2 14 3 15 10 2 19 4 22 8 22 2 0 3 -7 2 -15z"/>
<path fill="#ffffff" stroke="none" d="M2900 1055 c0 -2 -6 -8 -13 -14 -10 -8
-14 -7 -14 2 0 8 6 14 14 14 7 0 13 -1 13 -2z"/>
<path fill="#ffffff" stroke="none" d="M2786 1025 c1 -8 -1 -17 -5 -19 -4 -3
-7 6 -7 19 0 25 8 25 12 0z"/>
<path fill="#ffffff" stroke="none" d="M2910 1036 c0 -2 -8 -10 -17 -17 -16
-13 -17 -12 -4 4 13 16 21 21 21 13z"/>
<path fill="#ffffff" stroke="none" d="M2819 1006 c9 -11 9 -16 -1 -22 -7 -4
-10 -4 -6 1 4 4 3 14 -3 22 -6 7 -9 13 -6 13 2 0 10 -6 16 -14z"/>
<path fill="#ffffff" stroke="none" d="M2867 1005 c0 -8 -4 -12 -9 -9 -5 3 -6
10 -3 15 9 13 12 11 12 -6z"/>
<path fill="#ffffff" stroke="none" d="M2799 993 c-1 -5 0 -10 1 -13 7 -19 7
-41 0 -45 -5 -3 -7 3 -5 15 2 11 -1 22 -6 25 -5 4 -7 11 -4 16 7 11 15 12 14
2z"/>
<path fill="#ffffff" stroke="none" d="M2850 986 c0 -2 -8 -10 -17 -17 -16
-13 -17 -12 -4 4 13 16 21 21 21 13z"/>
<path fill="#ffffff" stroke="none" d="M2870 976 c0 -2 -8 -10 -17 -17 -16
-13 -17 -12 -4 4 13 16 21 21 21 13z"/>
<path fill="#ffffff" stroke="none" d="M2826 894 c0 -13 -2 -22 -5 -19 -3 3
-6 17 -7 31 0 13 2 22 5 19 3 -3 6 -17 7 -31z"/>
<path fill="#000000" stroke="none" d="M2701 693 l3 -58 -33 -3 c-27 -3 -32
-7 -29 -25 3 -23 24 -30 45 -14 7 5 10 14 6 20 -3 6 -1 7 6 3 8 -6 9 -12 2
-20 -6 -7 -9 -15 -6 -18 3 -3 6 -68 7 -146 1 -133 2 -140 20 -139 21 2 52 49
40 62 -4 5 -2 5 5 1 7 -4 19 5 30 21 10 15 22 31 28 35 5 4 6 8 2 8 -5 0 -2 7
5 15 30 33 38 45 38 55 0 6 5 8 12 4 6 -4 8 -3 5 3 -3 5 9 27 28 49 19 21 35
49 35 62 0 21 -3 22 -101 22 -64 0 -98 4 -94 10 10 16 -6 12 -29 -7 -15 -13
-17 -14 -9 -2 10 12 10 18 0 29 -10 12 -9 12 3 3 23 -18 35 -3 36 45 1 40 -1
42 -28 42 -29 0 -29 0 -27 -57z"/>
<path fill="#ffffff" stroke="none" d="M2745 731 c3 -5 2 -12 -3 -15 -5 -3 -9
1 -9 9 0 17 3 19 12 6z"/>
<path fill="#ffffff" stroke="none" d="M2723 705 c4 -8 3 -16 -1 -19 -4 -3 -9
4 -9 15 -2 23 3 25 10 4z"/>
<path fill="#ffffff" stroke="none" d="M2737 605 c0 -8 -4 -12 -9 -9 -5 3 -6
10 -3 15 9 13 12 11 12 -6z"/>
<path fill="#ffffff" stroke="none" d="M2784 597 c-3 -9 11 -12 50 -12 30 0
53 2 51 6 -2 3 2 6 10 6 8 0 13 -3 12 -6 -1 -3 3 -6 8 -6 6 0 9 8 9 18 -2 20
9 14 12 -8 1 -7 -7 -22 -19 -32 -14 -13 -18 -14 -13 -3 4 8 1 6 -8 -4 -8 -10
-13 -24 -9 -30 3 -6 3 -8 -2 -4 -11 10 -56 -52 -48 -66 3 -6 3 -8 -2 -4 -11
10 -48 -39 -39 -53 4 -8 3 -9 -5 -5 -6 4 -14 1 -17 -8 -11 -28 -29 -24 -31 6
0 19 2 26 7 18 4 -7 7 23 6 67 -2 44 -5 84 -9 89 -3 6 -1 16 5 24 8 12 9 11 4
-5 -6 -19 -6 -19 9 -1 8 10 12 23 8 29 -3 6 -1 7 5 3 6 -4 9 -12 6 -19z"/>
<path fill="#ffffff" stroke="none" d="M2725 546 c-1 -51 -11 -52 -11 -1 0 24
3 42 6 40 4 -2 6 -20 5 -39z"/>
<path fill="#ffffff" stroke="none" d="M2729 476 c9 -10 7 -17 -6 -27 -16 -12
-17 -12 -6 2 10 12 10 18 1 27 -7 7 -9 12 -6 12 3 0 11 -6 17 -14z"/>
<path fill="#ffffff" stroke="none" d="M2726 375 c-1 -13 -4 -27 -7 -30 -5 -4
-4 41 0 53 4 10 8 -2 7 -23z"/>
<path fill="#ffffff" stroke="none" d="M2747 335 c0 -8 -4 -12 -9 -9 -5 3 -6
10 -3 15 9 13 12 11 12 -6z"/>
<path fill="#ffffff" stroke="none" d="M2731 313 c13 -16 12 -17 -3 -4 -17 13
-22 21 -14 21 2 0 10 -8 17 -17z"/>
</g>
</svg>
