<?xml version="1.0" standalone="no"?>
<!DOCTYPE svg PUBLIC "-//W3C//DTD SVG 20010904//EN"
 "http://www.w3.org/TR/2001/REC-SVG-20010904/DTD/svg10.dtd">
<svg version="1.0" xmlns="http://www.w3.org/2000/svg"
 width="318.000000pt" height="451.000000pt" viewBox="0 0 318.000000 451.000000"
 preserveAspectRatio="xMidYMid meet">
<metadata>
Created by potrace 1.16, written by Peter Selinger 2001-2019
</metadata>
<g transform="translate(0.000000,451.000000) scale(0.100000,-0.100000)"
fill="#000000" stroke="none">
<path fill="#000000" stroke="none" d="M294 4300 c-35 -14 -64 -59 -64 -100 0
-40 34 -95 52 -84 6 4 8 2 5 -3 -4 -6 0 -16 8 -23 13 -10 10 -17 -21 -48 -41
-41 -56 -72 -50 -105 3 -12 5 -25 5 -28 2 -11 36 -46 56 -56 28 -14 112 -16
120 -4 3 6 10 9 14 7 10 -7 49 38 61 69 5 14 5 37 0 56 -11 38 -68 101 -83 92
-6 -3 -7 -1 -3 5 4 7 1 12 -6 12 -7 0 -2 11 12 24 14 13 28 21 33 19 4 -2 7 3
7 12 0 9 3 14 8 11 4 -2 12 7 19 20 8 18 8 22 0 17 -9 -5 -9 -3 0 8 18 22 -13
78 -54 95 -36 16 -87 17 -119 4z"/>
<path fill="#ffffff" stroke="none" d="M380 4288 c0 -4 6 -8 13 -8 15 0 49
-58 37 -65 -4 -3 -7 -16 -5 -30 1 -14 0 -24 -2 -21 -3 3 -16 -8 -29 -23 -20
-24 -61 -41 -48 -20 2 5 -7 16 -21 25 -25 16 -53 58 -53 79 0 6 5 16 11 24 10
12 9 13 -3 7 -9 -4 -8 -2 2 7 10 8 15 17 11 21 -4 4 0 4 10 0 9 -3 17 -2 17 2
0 5 14 9 30 9 17 1 30 -3 30 -7z"/>
<path fill="#ffffff" stroke="none" d="M370 4026 c19 -19 38 -32 43 -29 4 2 6
1 5 -4 -1 -4 3 -18 10 -30 10 -18 11 -49 2 -73 -2 -3 -2 -8 -1 -12 0 -5 -2 -7
-6 -6 -5 1 -17 -2 -28 -8 -38 -19 -83 -4 -110 36 -13 20 -14 111 -1 103 5 -4
7 1 3 11 -4 10 -3 15 3 11 6 -3 10 0 10 9 0 12 12 23 30 25 3 1 21 -14 40 -33z"/>
<path fill="#000000" stroke="none" d="M991 3890 c-124 -89 -210 -193 -247
-297 -28 -82 -30 -144 -5 -199 19 -43 74 -90 91 -79 5 3 10 1 10 -4 0 -6 5
-11 11 -11 5 0 7 6 3 13 -5 8 -2 8 9 -2 14 -11 17 -11 17 0 0 11 2 11 10 -1 6
-9 10 -10 10 -3 0 6 9 10 20 8 11 -2 18 0 15 6 -4 5 0 9 9 9 8 0 26 14 40 31
21 24 26 41 26 84 0 33 -5 55 -12 58 -10 4 -10 6 -1 6 13 1 32 -28 39 -62 7
-29 6 -125 -1 -157 -19 -89 -20 -85 24 -87 43 -3 53 10 29 36 -7 8 -8 11 -2 8
12 -7 -1 63 -18 97 -5 10 -6 16 -1 13 5 -3 9 21 8 53 -1 36 3 56 9 53 5 -4 7
1 3 11 -4 10 -3 15 3 11 6 -3 10 1 10 9 0 9 5 16 10 16 7 0 7 -6 2 -17 -13
-24 -9 -72 9 -108 15 -31 76 -78 90 -69 5 3 9 0 9 -7 0 -9 3 -9 14 0 10 8 16
9 21 1 3 -6 12 -7 18 -3 7 4 17 8 24 9 22 4 73 45 68 55 -4 5 -2 9 3 9 16 0
30 54 28 101 -4 70 -17 120 -29 112 -6 -3 -7 -1 -3 6 13 20 -60 133 -126 197
-65 63 -161 134 -182 134 -6 0 -35 -18 -65 -40z"/>
<path fill="#000000" stroke="none" d="M2059 3894 c-74 -50 -188 -169 -223
-233 -44 -82 -56 -142 -47 -247 0 -8 5 -12 11 -9 5 3 8 0 5 -7 -6 -16 31 -60
64 -78 27 -14 81 -22 81 -11 0 3 11 7 24 7 37 2 89 55 90 92 0 16 4 28 9 25 8
-5 0 54 -10 71 -4 6 0 5 9 -1 8 -7 17 -10 21 -7 3 3 3 -4 0 -17 -4 -12 -2 -20
3 -16 5 3 9 -15 9 -40 -1 -24 3 -47 8 -50 4 -2 4 -10 -1 -16 -5 -7 -9 -19 -10
-27 0 -8 -2 -28 -6 -45 -18 -88 -20 -81 24 -82 l41 -1 -7 42 c-7 47 -12 71
-14 71 -1 0 -2 18 -3 40 -1 57 12 135 24 135 6 0 7 5 4 10 -3 6 -1 10 5 10 8
0 9 -7 5 -17 -14 -34 -9 -97 7 -87 7 4 8 3 4 -5 -12 -19 20 -59 65 -82 25 -12
38 -15 33 -7 -6 10 -5 11 7 1 12 -10 18 -10 29 0 9 8 11 8 6 0 -6 -12 7 -11
36 2 10 4 15 12 11 18 -3 6 -1 7 5 3 16 -10 56 29 47 45 -5 8 -4 10 3 5 11 -6
16 6 13 27 0 4 3 7 7 7 12 0 13 118 2 125 -5 3 -7 12 -4 19 3 8 0 17 -5 21 -6
3 -9 11 -6 16 4 5 1 9 -6 9 -7 0 -9 3 -6 7 7 6 -30 73 -47 85 -6 4 -7 8 -2 8
5 0 -3 11 -18 25 -15 14 -24 25 -21 25 4 0 -13 18 -37 41 -51 48 -161 129
-176 129 -5 0 -34 -16 -63 -36z"/>
<path fill="#000000" stroke="none" d="M313 3751 c-22 -16 -50 -43 -62 -60
-25 -34 -42 -109 -23 -97 8 4 10 2 6 -7 -6 -18 7 -27 46 -33 21 -4 32 1 44 17
8 12 13 26 10 31 -3 4 0 8 6 8 8 0 10 -15 6 -48 -4 -36 -2 -49 7 -49 10 0 13
16 11 59 -2 32 1 56 6 53 4 -3 6 -13 3 -24 -5 -21 30 -51 61 -51 27 0 55 37
51 68 -8 61 -37 100 -107 146 -24 15 -27 15 -65 -13z"/>
<path fill="#000000" stroke="none" d="M1516 3205 c-70 -48 -162 -141 -202
-201 -112 -174 -84 -372 56 -384 47 -4 69 0 84 16 9 8 16 13 16 9 0 -3 11 5
25 19 34 34 49 94 33 135 -7 21 -7 22 6 11 9 -6 18 -28 22 -49 4 -20 11 -41
16 -48 5 -6 5 -14 0 -17 -5 -3 -8 -25 -8 -50 1 -24 -2 -42 -6 -40 -4 3 -7 -4
-7 -13 0 -10 -2 -33 -6 -50 -6 -33 -6 -33 34 -33 44 0 41 -8 26 95 -12 80 -13
119 -3 139 7 14 7 16 -2 11 -7 -4 -5 4 4 17 9 14 13 28 9 33 -5 4 -3 5 3 2 7
-4 12 -24 12 -46 1 -74 48 -128 122 -141 25 -4 39 -1 48 10 8 8 11 9 7 3 -3
-7 -1 -13 4 -13 6 0 11 5 11 11 0 5 5 7 10 4 6 -3 10 -1 10 5 0 6 4 9 10 5 5
-3 17 7 27 22 10 15 21 30 24 33 4 3 8 8 8 13 1 4 2 8 2 10 5 9 5 127 0 127
-3 0 -7 10 -7 23 -3 48 -64 153 -126 216 -67 68 -177 151 -199 150 -8 0 -36
-16 -63 -34z"/>
<path fill="#ffffff" stroke="none" d="M1650 2824 c0 -8 -19 -13 -24 -6 -3 5
1 9 9 9 8 0 15 -2 15 -3z"/>
<path fill="#000000" stroke="none" d="M983 2571 c-150 -106 -253 -260 -259
-387 -1 -36 2 -78 9 -93 16 -37 38 -62 50 -54 5 3 7 1 4 -4 -9 -14 19 -37 33
-28 5 3 10 2 10 -2 0 -5 16 -10 36 -11 20 -2 33 1 30 7 -4 5 3 7 16 3 14 -3
19 -1 14 6 -5 8 -2 10 8 6 10 -4 16 -1 16 7 0 7 3 9 7 6 7 -8 39 34 35 46 -1
4 3 7 9 7 5 0 8 4 4 9 -3 5 -1 12 4 15 4 3 5 25 1 48 -5 24 -6 45 -4 47 2 2 4
-1 4 -8 0 -7 5 -9 10 -6 6 4 10 3 8 -2 -1 -4 2 -24 7 -43 10 -44 13 -160 3
-153 -5 2 -8 -5 -8 -15 0 -11 -3 -34 -6 -51 -6 -31 -6 -31 36 -31 39 0 42 2
37 23 -4 12 -9 42 -12 67 -4 25 -8 55 -10 67 -2 13 -7 28 -11 34 -4 8 -3 9 4
5 16 -10 15 7 0 23 -8 8 -8 11 -2 8 7 -4 14 4 17 21 3 16 14 37 24 48 10 11
14 14 9 7 -4 -7 -6 -20 -2 -28 3 -9 2 -13 -4 -10 -6 4 -8 -3 -6 -17 3 -13 5
-31 5 -41 1 -10 5 -15 11 -12 5 3 8 0 5 -7 -7 -18 44 -71 62 -64 8 3 11 1 8
-4 -3 -6 -5 -10 -3 -10 2 -1 20 -3 42 -6 30 -5 37 -3 30 8 -6 11 -5 10 9 -1
12 -9 17 -10 17 -2 0 7 5 9 10 6 6 -3 10 -1 10 5 0 6 4 9 8 6 13 -8 54 43 46
56 -4 6 -3 8 4 4 13 -8 24 23 28 79 4 49 -24 157 -39 148 -6 -3 -7 -1 -3 6 12
19 -76 149 -96 143 -5 -1 -7 1 -4 6 7 12 -38 54 -49 45 -4 -5 -5 -3 -2 3 4 6
-15 26 -40 45 -48 35 -101 69 -107 69 -1 0 -34 -22 -73 -49z"/>
<path fill="#000000" stroke="none" d="M2032 2561 c-82 -61 -168 -155 -201
-219 -33 -64 -51 -138 -38 -152 9 -10 9 -11 0 -6 -8 4 -10 -4 -8 -26 2 -18 4
-41 4 -51 1 -10 5 -15 11 -12 5 3 7 0 4 -8 -8 -21 41 -74 80 -87 38 -12 95
-10 103 4 4 5 1 6 -7 1 -8 -5 -11 -4 -6 3 4 6 13 9 20 6 14 -5 75 57 77 79 1
7 3 22 4 35 1 12 -2 25 -7 28 -4 3 -6 10 -2 15 3 5 0 17 -8 26 -11 14 -11 16
1 9 27 -17 49 -85 45 -149 -1 -34 -5 -73 -8 -87 -20 -87 -22 -80 22 -80 45 0
44 -1 26 90 -9 50 -6 157 5 179 6 10 7 22 3 26 -4 5 -2 5 5 1 6 -3 13 -1 16 6
2 7 2 2 -1 -12 -12 -60 10 -138 37 -132 7 1 10 -2 7 -6 -3 -5 4 -18 16 -28 14
-12 18 -14 13 -4 -6 11 -3 10 11 -2 16 -14 23 -15 34 -5 10 9 11 9 6 0 -5 -9
1 -13 19 -13 18 0 24 4 19 13 -5 9 -4 9 6 0 10 -10 19 -8 42 8 15 11 25 25 22
31 -4 6 -2 8 3 5 14 -9 46 41 39 59 -3 9 -1 12 5 9 6 -5 8 18 5 67 -8 143
-100 278 -271 397 -32 23 -62 41 -66 41 -4 0 -43 -27 -87 -59z"/>
<path fill="#000000" stroke="none" d="M1520 1879 c-106 -72 -216 -202 -254
-297 -24 -63 -32 -148 -15 -169 9 -11 10 -14 2 -9 -9 5 -11 2 -7 -8 3 -9 10
-13 15 -10 5 3 6 -1 4 -9 -18 -46 132 -119 169 -81 8 7 16 11 19 8 10 -10 77
64 78 87 1 13 2 31 3 39 1 8 -2 23 -7 33 -5 10 -4 17 3 17 5 0 10 -5 10 -11 0
-8 6 -7 18 2 14 11 15 11 5 -1 -15 -16 -17 -34 -4 -26 4 3 6 -6 3 -19 -2 -14
1 -31 7 -39 9 -10 9 -16 1 -21 -8 -5 -7 -11 2 -23 7 -9 8 -13 2 -9 -7 4 -13
-10 -17 -41 -3 -26 -9 -62 -13 -80 l-7 -33 46 2 c42 2 45 4 37 24 -15 39 -22
89 -22 160 -1 56 4 77 21 105 17 27 21 29 15 10 -20 -63 4 -133 58 -171 17
-13 28 -18 24 -11 -4 7 1 7 18 -2 28 -14 89 -9 79 7 -3 6 -1 7 6 3 19 -12 84
43 78 65 -3 12 -1 17 6 12 6 -4 8 2 5 15 -4 13 -2 20 4 16 12 -8 0 137 -12
154 -2 1 -3 5 -4 10 -10 37 -37 82 -47 76 -8 -4 -9 -3 -5 5 8 13 -38 77 -94
129 -50 47 -155 122 -171 122 -8 0 -34 -14 -59 -31z"/>
<path fill="#000000" stroke="none" d="M1025 1287 c-85 -59 -134 -100 -129
-108 3 -5 0 -8 -8 -7 -7 2 -12 -3 -11 -9 2 -7 -1 -12 -6 -10 -16 4 -71 -67
-106 -138 -57 -114 -58 -230 -2 -288 38 -39 69 -47 155 -39 23 2 66 39 79 67
18 38 16 105 -4 121 -17 14 -17 14 3 5 12 -6 25 -7 29 -3 5 4 5 1 1 -5 -4 -7
-2 -22 5 -34 12 -23 16 -132 6 -165 -3 -11 -9 -39 -12 -63 -6 -42 -5 -44 11
-30 10 8 15 9 11 2 -5 -8 1 -11 20 -10 21 2 28 8 29 25 1 12 -1 22 -5 22 -3 0
-7 19 -9 43 -3 54 -6 69 -15 84 -4 6 -3 14 2 17 5 3 8 19 7 36 -1 16 1 30 6
30 4 0 7 3 6 8 -2 4 6 18 16 32 14 19 17 20 11 5 -15 -43 -16 -67 -3 -59 10 5
10 4 1 -6 -13 -14 -6 -43 8 -34 5 3 6 -2 3 -10 -8 -20 53 -79 73 -72 8 4 11 1
8 -5 -5 -6 11 -9 44 -8 36 2 57 9 74 25 14 13 27 21 30 18 2 -3 12 12 22 33
18 38 29 129 17 148 -4 5 -7 15 -7 20 -2 29 -18 75 -26 75 -6 0 -7 5 -4 10 3
6 1 10 -5 10 -6 0 -9 4 -6 8 3 5 -4 19 -15 30 -11 12 -17 22 -14 22 6 0 -19
32 -60 74 -40 43 -139 122 -173 140 -25 13 -30 12 -57 -7z"/>
<path fill="#000000" stroke="none" d="M2063 1270 c-137 -93 -240 -221 -269
-335 -14 -58 -11 -129 8 -168 10 -21 23 -35 28 -32 5 3 7 0 4 -8 -3 -9 5 -18
23 -26 15 -6 30 -11 33 -9 3 1 15 -4 27 -10 13 -7 24 -8 28 -3 3 6 14 8 24 6
29 -5 104 72 98 101 -2 13 0 21 4 18 13 -8 11 10 -3 25 -10 11 -10 13 0 7 15
-9 15 -1 2 25 -7 12 -7 19 -1 19 5 0 13 -9 16 -20 4 -11 9 -18 13 -16 8 5 6
-158 -2 -194 -19 -78 -19 -76 27 -74 23 1 43 2 44 3 1 1 -2 13 -8 28 -5 14
-12 51 -16 82 -3 31 -11 62 -17 70 -9 12 -8 13 3 7 11 -7 13 -1 9 27 -2 20 -1
34 3 31 4 -2 10 9 14 26 10 44 23 46 15 1 -8 -43 9 -107 28 -104 6 2 9 -3 6
-11 -6 -15 32 -43 68 -50 12 -2 28 -5 33 -6 6 -1 13 -1 18 0 14 5 27 8 41 9
18 1 78 65 84 88 2 10 6 42 8 71 4 42 2 52 -8 46 -9 -6 -9 -3 1 9 9 12 10 17
2 17 -7 0 -10 4 -7 9 4 5 2 20 -3 33 -5 12 -10 28 -11 33 -2 6 -10 16 -19 23
-9 8 -10 11 -3 7 21 -11 14 2 -48 80 -36 45 -65 73 -72 69 -6 -4 -8 -3 -4 4 6
10 -31 43 -116 100 l-46 32 -59 -40z"/>
<path fill="#000000" stroke="none" d="M2816 946 c5 -51 5 -51 -11 -24 -8 15
-26 30 -39 34 -25 6 -65 -10 -67 -26 -5 -41 -3 -59 9 -85 20 -41 43 -66 55
-58 6 3 7 1 3 -5 -10 -16 54 -54 69 -42 7 6 16 6 20 2 5 -4 6 0 2 9 -4 11 0
16 11 15 9 0 16 5 14 12 -1 8 1 11 6 8 11 -7 55 38 45 47 -3 4 -1 7 6 7 7 0 9
5 6 10 -3 6 -2 10 2 10 18 0 13 60 -7 80 -34 34 -89 18 -93 -27 0 -12 -4 -20
-8 -17 -4 2 -5 26 -3 52 3 37 1 49 -10 49 -12 0 -14 -12 -10 -51z"/>
<path fill="#000000" stroke="none" d="M2753 646 c-50 -17 -75 -48 -81 -101
-4 -38 -2 -46 8 -40 9 5 11 4 6 -3 -10 -16 12 -54 26 -46 6 4 8 3 4 -4 -3 -6
7 -20 23 -31 l29 -21 -44 -44 c-34 -33 -44 -51 -44 -75 0 -18 4 -30 9 -27 5 3
8 -1 7 -10 -2 -26 49 -57 99 -60 26 -2 43 1 40 6 -3 6 1 7 11 3 11 -4 22 1 30
12 8 10 14 15 14 10 0 -17 30 33 34 57 5 31 -20 88 -49 114 -26 22 -34 56 -12
51 6 -1 11 4 9 11 -1 8 2 11 7 8 5 -3 14 1 21 9 7 8 9 15 4 15 -5 0 -3 4 5 9
8 5 15 26 16 48 5 83 -83 139 -172 109z"/>
<path fill="#ffffff" stroke="none" d="M2830 627 c0 -6 3 -7 7 -4 11 11 43
-46 43 -76 0 -34 -22 -88 -42 -104 -32 -27 -134 97 -121 146 2 9 16 24 29 32
28 17 84 21 84 6z"/>
<path fill="#ffffff" stroke="none" d="M2809 374 c7 5 10 2 9 -6 -2 -7 3 -12
10 -10 8 1 11 -2 8 -7 -7 -10 18 -33 27 -26 4 3 5 2 2 -1 -2 -4 3 -23 11 -42
8 -20 12 -33 8 -29 -4 4 -12 -3 -18 -15 -15 -30 -67 -44 -104 -29 -16 7 -29
17 -30 24 -2 22 -8 42 -16 57 -5 8 -6 12 -1 8 11 -10 37 41 28 55 -3 6 -1 7 5
3 6 -4 17 2 24 13 8 13 15 16 19 9 4 -6 12 -7 18 -4z"/>
</g>
</svg>
