<?xml version="1.0" standalone="no"?>
<!DOCTYPE svg PUBLIC "-//W3C//DTD SVG 20010904//EN"
 "http://www.w3.org/TR/2001/REC-SVG-20010904/DTD/svg10.dtd">
<svg version="1.0" xmlns="http://www.w3.org/2000/svg"
 width="318.000000pt" height="451.000000pt" viewBox="0 0 318.000000 451.000000"
 preserveAspectRatio="xMidYMid meet">
<metadata>
Created by potrace 1.16, written by Peter Selinger 2001-2019
</metadata>
<g transform="translate(0.000000,451.000000) scale(0.100000,-0.100000)"
fill="#000000" stroke="none">
<path fill="#000000" stroke="none" d="M305 4278 c-39 -22 -71 -73 -53 -84 7
-4 10 -4 6 0 -8 10 24 44 36 38 5 -3 7 2 3 11 -3 9 -1 19 5 23 6 4 8 3 4 -4
-3 -6 -2 -13 4 -17 5 -3 10 -1 10 6 0 8 4 9 13 0 8 -6 18 -7 23 -3 5 4 8 6 7
3 -1 -2 9 -13 23 -24 23 -18 26 -26 22 -69 -3 -26 -3 -48 -1 -48 13 0 45 42
53 70 8 27 6 39 -10 66 -27 43 -98 59 -145 32z"/>
<path fill="#ffffff" stroke="none" d="M387 4269 c-3 -10 25 -39 32 -34 4 2 8
-3 8 -11 0 -11 -5 -10 -22 6 -12 11 -22 27 -22 35 0 8 1 14 3 13 1 -2 2 -6 1
-9z"/>
<path fill="#ffffff" stroke="none" d="M455 4211 c3 -5 2 -12 -3 -15 -5 -3 -9
1 -9 9 0 17 3 19 12 6z"/>
<path fill="#ffffff" stroke="none" d="M433 4165 c4 -8 3 -16 -1 -19 -4 -3 -9
4 -9 15 -2 23 3 25 10 4z"/>
<path fill="#000000" stroke="none" d="M380 4101 c0 -5 -17 -16 -37 -24 -35
-15 -34 -18 10 -21 6 -1 18 -7 25 -13 16 -15 36 -17 27 -4 -3 5 -1 12 4 15 5
4 8 -2 6 -11 -1 -10 4 -30 11 -45 22 -43 17 -85 -13 -117 -30 -30 -70 -34
-111 -12 -43 23 -88 1 -59 -28 17 -17 26 -13 22 9 -2 12 0 18 6 15 5 -4 7 -10
4 -15 -7 -12 7 -19 41 -21 39 -1 78 9 82 21 2 6 8 8 13 4 5 -3 12 2 15 10 3 9
10 14 14 11 10 -6 22 24 15 36 -4 5 0 6 8 3 7 -2 14 1 15 8 1 7 4 28 7 46 7
46 -17 98 -57 122 -36 22 -48 25 -48 11z"/>
<path fill="#ffffff" stroke="none" d="M420 4087 c0 -2 -8 -11 -18 -20 -15
-14 -19 -15 -19 -2 0 8 4 12 8 9 4 -2 10 0 14 6 6 10 15 14 15 7z"/>
<path fill="#ffffff" stroke="none" d="M445 4071 c3 -5 2 -12 -3 -15 -5 -3 -9
1 -9 9 0 17 3 19 12 6z"/>
<path fill="#ffffff" stroke="none" d="M445 4031 c3 -5 2 -12 -3 -15 -5 -3 -9
1 -9 9 0 17 3 19 12 6z"/>
<path fill="#ffffff" stroke="none" d="M462 4008 c-9 -9 -9 -15 1 -27 11 -14
10 -14 -6 -2 -13 10 -15 17 -6 27 6 8 14 14 17 14 3 0 1 -5 -6 -12z"/>
<path fill="#ffffff" stroke="none" d="M480 3955 c0 -2 -6 -8 -13 -14 -10 -8
-14 -7 -14 2 0 8 6 14 14 14 7 0 13 -1 13 -2z"/>
<path fill="#000000" stroke="none" d="M1377 3879 c-9 -5 -15 -14 -12 -20 3
-5 0 -6 -8 -3 -18 6 -62 -60 -51 -77 4 -7 3 -9 -3 -6 -30 19 -27 -141 4 -198
11 -22 26 -39 33 -37 6 1 8 -2 5 -9 -7 -11 34 -56 47 -52 4 2 5 -3 2 -11 -3
-7 10 -26 28 -42 61 -55 158 -204 158 -244 0 -13 20 -13 21 0 1 6 2 14 3 19 0
5 4 13 9 17 4 4 7 16 7 26 0 11 4 16 10 13 6 -4 7 1 3 11 -4 12 -3 15 6 10 6
-4 10 -4 9 1 -4 13 89 133 96 125 4 -3 4 2 0 11 -3 10 -2 17 2 15 5 -2 21 8
34 21 14 13 20 21 14 18 -7 -4 -18 1 -25 11 -13 15 -12 16 3 4 15 -12 21 -10
43 12 14 15 23 31 19 38 -4 6 -3 8 3 5 18 -11 55 64 59 116 2 31 0 46 -7 41
-6 -3 -5 3 2 14 7 10 10 26 7 33 -3 8 -5 16 -5 19 1 16 -35 70 -44 65 -5 -4
-9 -3 -8 2 4 22 -4 32 -35 47 -69 33 -137 14 -181 -51 -25 -38 -34 -69 -15
-58 6 4 7 11 4 17 -4 7 -2 8 5 4 8 -5 9 -12 2 -19 -5 -7 -10 -16 -11 -22 -1
-5 -4 -12 -7 -15 -2 -3 -3 2 -1 10 2 10 -4 15 -19 14 -13 -1 -20 3 -17 7 3 5
9 7 14 4 20 -12 -25 58 -56 89 -27 27 -42 33 -81 34 -26 1 -56 -3 -66 -9z"/>
<path fill="#ffffff" stroke="none" d="M1435 3872 c-3 -3 0 -11 6 -18 7 -9 6
-14 -3 -20 -7 -4 -10 -3 -5 1 4 5 0 16 -8 25 -13 15 -13 17 0 17 8 0 13 -3 10
-5z"/>
<path fill="#ffffff" stroke="none" d="M1469 3866 c9 -11 9 -16 -1 -22 -7 -4
-10 -4 -6 1 4 4 3 14 -3 22 -6 7 -9 13 -6 13 2 0 10 -6 16 -14z"/>
<path fill="#ffffff" stroke="none" d="M1750 3875 c0 0 -19 -19 -42 -40 -24
-22 -33 -28 -20 -14 12 14 19 29 15 33 -5 4 -1 6 7 4 8 -1 14 2 13 8 -1 6 5
11 13 11 8 0 14 -1 14 -2z"/>
<path fill="#ffffff" stroke="none" d="M1805 3842 c-1 -9 2 -24 8 -32 9 -12 9
-13 -3 -2 -15 13 -23 65 -9 57 4 -3 6 -13 4 -23z"/>
<path fill="#ffffff" stroke="none" d="M1416 3834 c1 -9 0 -13 -4 -10 -3 4 -7
14 -8 22 -1 9 0 13 4 10 3 -4 7 -14 8 -22z"/>
<path fill="#ffffff" stroke="none" d="M1670 3856 c0 -2 -8 -10 -17 -17 -16
-13 -17 -12 -4 4 13 16 21 21 21 13z"/>
<path fill="#ffffff" stroke="none" d="M1757 3845 c0 -8 -8 -22 -17 -30 -14
-13 -17 -13 -17 -1 0 8 5 14 11 13 5 -1 11 4 12 11 4 27 11 32 11 7z"/>
<path fill="#ffffff" stroke="none" d="M1355 3841 c3 -5 2 -12 -3 -15 -5 -3
-9 1 -9 9 0 17 3 19 12 6z"/>
<path fill="#ffffff" stroke="none" d="M1387 3843 c-4 -3 -1 -13 6 -22 11 -14
10 -14 -5 -2 -16 12 -16 31 -1 31 4 0 3 -3 0 -7z"/>
<path fill="#ffffff" stroke="none" d="M1690 3846 c0 -2 -8 -10 -17 -17 -16
-13 -17 -12 -4 4 13 16 21 21 21 13z"/>
<path fill="#ffffff" stroke="none" d="M1487 3833 c-4 -3 -1 -13 6 -22 11 -14
10 -14 -5 -2 -16 12 -16 31 -1 31 4 0 3 -3 0 -7z"/>
<path fill="#ffffff" stroke="none" d="M1530 3824 c0 -8 -19 -13 -24 -6 -3 5
1 9 9 9 8 0 15 -2 15 -3z"/>
<path fill="#ffffff" stroke="none" d="M1775 3813 c-1 -10 2 -23 6 -29 6 -7 4
-16 -4 -23 -11 -8 -18 -6 -31 8 -13 14 -14 21 -5 27 7 4 10 3 6 -3 -4 -6 0
-16 7 -22 9 -8 16 -8 20 -2 4 5 2 12 -3 15 -7 5 -8 23 -2 44 4 11 9 -2 6 -15z"/>
<path fill="#ffffff" stroke="none" d="M1359 3796 c9 -11 9 -16 -1 -22 -7 -4
-10 -4 -6 1 4 4 3 14 -3 22 -6 7 -9 13 -6 13 2 0 10 -6 16 -14z"/>
<path fill="#ffffff" stroke="none" d="M1425 3801 c3 -5 2 -12 -3 -15 -5 -3
-9 1 -9 9 0 17 3 19 12 6z"/>
<path fill="#ffffff" stroke="none" d="M1470 3795 c1 -5 9 -19 18 -30 17 -20
17 -20 -4 -2 -11 9 -21 24 -21 32 0 16 4 16 7 0z"/>
<path fill="#ffffff" stroke="none" d="M1641 3793 c13 -16 12 -17 -3 -4 -10 7
-18 15 -18 17 0 8 8 3 21 -13z"/>
<path fill="#ffffff" stroke="none" d="M1710 3807 c0 -2 -10 -13 -23 -25 -18
-17 -24 -19 -24 -8 0 8 4 13 8 11 3 -3 12 2 19 10 12 14 20 19 20 12z"/>
<path fill="#ffffff" stroke="none" d="M1860 3804 c0 -8 -19 -13 -24 -6 -3 5
1 9 9 9 8 0 15 -2 15 -3z"/>
<path fill="#ffffff" stroke="none" d="M1336 3775 c3 -19 -22 -40 -31 -25 -4
6 -1 9 7 8 8 -2 13 6 12 20 -2 24 8 22 12 -3z"/>
<path fill="#ffffff" stroke="none" d="M1397 3785 c0 -8 -4 -12 -9 -9 -5 3 -6
10 -3 15 9 13 12 11 12 -6z"/>
<path fill="#ffffff" stroke="none" d="M1557 3785 c0 -8 -4 -12 -9 -9 -5 3 -6
10 -3 15 9 13 12 11 12 -6z"/>
<path fill="#ffffff" stroke="none" d="M1446 3775 c-1 -8 -5 -17 -8 -21 -5 -4
-4 16 1 34 3 9 9 -1 7 -13z"/>
<path fill="#ffffff" stroke="none" d="M1511 3773 c13 -16 12 -17 -3 -4 -17
13 -22 21 -14 21 2 0 10 -8 17 -17z"/>
<path fill="#ffffff" stroke="none" d="M1715 3773 c-1 -10 2 -23 7 -30 6 -7 5
-14 -3 -19 -7 -4 -9 -3 -5 4 3 6 2 13 -3 16 -7 5 -8 23 -2 44 4 11 9 -2 6 -15z"/>
<path fill="#ffffff" stroke="none" d="M1836 3772 c-3 -3 0 -12 6 -21 10 -13
10 -14 -2 -4 -16 15 -23 46 -8 37 5 -3 7 -9 4 -12z"/>
<path fill="#ffffff" stroke="none" d="M1867 3775 c0 -8 -4 -12 -9 -9 -5 3 -6
10 -3 15 9 13 12 11 12 -6z"/>
<path fill="#ffffff" stroke="none" d="M1415 3753 c-1 -10 3 -25 9 -33 9 -13
9 -13 -6 -2 -13 10 -16 26 -9 50 4 11 9 -2 6 -15z"/>
<path fill="#ffffff" stroke="none" d="M1546 3744 c1 -9 0 -13 -4 -10 -3 4 -7
14 -8 22 -1 9 0 13 4 10 3 -4 7 -14 8 -22z"/>
<path fill="#ffffff" stroke="none" d="M1801 3757 c-6 -8 -8 -16 -5 -19 3 -3
1 -9 -4 -12 -6 -3 -9 0 -8 6 2 16 15 38 23 38 3 0 0 -6 -6 -13z"/>
<path fill="#ffffff" stroke="none" d="M1366 3742 c-3 -3 0 -12 6 -21 10 -13
10 -14 -2 -4 -16 15 -23 46 -8 37 5 -3 7 -9 4 -12z"/>
<path fill="#ffffff" stroke="none" d="M1481 3743 c12 -16 12 -17 -2 -6 -9 7
-20 9 -24 5 -5 -4 -5 -1 -1 6 9 16 11 15 27 -5z"/>
<path fill="#ffffff" stroke="none" d="M1690 3757 c0 -2 -12 -14 -27 -28 -15
-13 -22 -17 -15 -8 6 9 8 20 4 24 -4 5 -2 5 5 1 6 -3 14 -2 18 4 6 10 15 14
15 7z"/>
<path fill="#ffffff" stroke="none" d="M1754 3742 c15 -18 15 -20 -2 -35 -15
-14 -19 -14 -19 -3 0 8 3 15 6 14 20 -2 22 4 6 22 -10 11 -16 20 -13 20 3 0
12 -8 22 -18z"/>
<path fill="#ffffff" stroke="none" d="M1517 3743 c-4 -3 -1 -13 6 -22 11 -14
10 -14 -5 -2 -16 12 -16 31 -1 31 4 0 3 -3 0 -7z"/>
<path fill="#ffffff" stroke="none" d="M1836 3714 c1 -9 -1 -13 -4 -9 -4 4 -7
10 -7 13 0 4 -4 14 -9 22 -7 12 -6 13 4 3 8 -7 15 -20 16 -29z"/>
<path fill="#ffffff" stroke="none" d="M1861 3727 c-10 -9 -11 -8 -5 6 3 10 9
15 12 12 3 -3 0 -11 -7 -18z"/>
<path fill="#ffffff" stroke="none" d="M1335 3723 c-1 -10 7 -29 19 -43 l21
-25 -26 23 c-22 20 -27 35 -20 60 4 11 9 -2 6 -15z"/>
<path fill="#ffffff" stroke="none" d="M1590 3735 c0 -2 -6 -8 -13 -14 -10 -8
-14 -7 -14 2 0 8 6 14 14 14 7 0 13 -1 13 -2z"/>
<path fill="#ffffff" stroke="none" d="M1632 3728 c-9 -9 -9 -15 1 -27 11 -14
10 -14 -6 -2 -13 10 -15 17 -6 27 6 8 14 14 17 14 3 0 1 -5 -6 -12z"/>
<path fill="#ffffff" stroke="none" d="M1696 3725 c-1 -8 -5 -17 -8 -21 -5 -4
-4 16 1 34 3 9 9 -1 7 -13z"/>
<path fill="#ffffff" stroke="none" d="M1476 3709 c1 -5 2 -10 4 -11 7 -9 7
-39 0 -43 -5 -3 -7 3 -5 12 1 10 0 23 -4 28 -8 15 -11 38 -3 30 4 -4 8 -11 8
-16z"/>
<path fill="#ffffff" stroke="none" d="M1409 3707 c8 -11 6 -18 -12 -33 -22
-19 -22 -19 -5 2 14 16 15 23 6 32 -7 7 -9 12 -6 12 3 0 11 -6 17 -13z"/>
<path fill="#ffffff" stroke="none" d="M1509 3706 c9 -11 9 -16 -1 -22 -7 -4
-10 -4 -6 1 4 4 3 14 -3 22 -6 7 -9 13 -6 13 2 0 10 -6 16 -14z"/>
<path fill="#ffffff" stroke="none" d="M1541 3697 c-10 -9 -11 -8 -5 6 3 10 9
15 12 12 3 -3 0 -11 -7 -18z"/>
<path fill="#ffffff" stroke="none" d="M1596 3705 c-1 -8 -8 -21 -16 -28 -10
-10 -11 -9 -4 3 5 8 9 18 10 23 3 14 4 17 8 17 2 0 3 -7 2 -15z"/>
<path fill="#ffffff" stroke="none" d="M1807 3713 c-4 -3 -2 -11 3 -18 7 -8
-1 -21 -24 -44 -21 -21 -33 -27 -33 -17 0 8 3 13 7 11 4 -2 17 6 29 19 15 16
19 26 12 31 -11 6 -6 25 6 25 4 0 3 -3 0 -7z"/>
<path fill="#ffffff" stroke="none" d="M1305 3676 c0 -19 -3 -37 -6 -40 -4 -5
-4 62 0 72 4 10 7 -4 6 -32z"/>
<path fill="#ffffff" stroke="none" d="M1385 3698 c5 4 5 1 1 -6 -6 -10 -11
-10 -22 -1 -8 6 -14 14 -14 16 0 3 6 0 13 -6 8 -6 18 -7 22 -3z"/>
<path fill="#ffffff" stroke="none" d="M1447 3703 c-4 -3 -1 -13 6 -22 11 -14
10 -14 -5 -2 -16 12 -16 31 -1 31 4 0 3 -3 0 -7z"/>
<path fill="#ffffff" stroke="none" d="M1666 3695 c-1 -8 -5 -17 -8 -21 -5 -4
-4 16 1 34 3 9 9 -1 7 -13z"/>
<path fill="#ffffff" stroke="none" d="M1717 3695 c0 -8 -4 -12 -9 -9 -5 3 -6
10 -3 15 9 13 12 11 12 -6z"/>
<path fill="#ffffff" stroke="none" d="M1780 3706 c0 -2 -8 -10 -17 -17 -16
-13 -17 -12 -4 4 13 16 21 21 21 13z"/>
<path fill="#ffffff" stroke="none" d="M1864 3701 c3 -5 -1 -14 -8 -20 -10 -9
-16 -9 -21 -1 -4 6 -1 9 7 8 7 -2 12 3 11 10 -3 14 3 16 11 3z"/>
<path fill="#ffffff" stroke="none" d="M1561 3687 c-6 -8 -7 -18 -3 -22 4 -5
1 -5 -6 -1 -10 6 -10 11 -1 22 6 8 14 14 16 14 3 0 0 -6 -6 -13z"/>
<path fill="#ffffff" stroke="none" d="M1620 3686 c0 -2 -8 -10 -17 -17 -16
-13 -17 -12 -4 4 13 16 21 21 21 13z"/>
<path fill="#ffffff" stroke="none" d="M1790 3686 c0 -2 -8 -10 -17 -17 -16
-13 -17 -12 -4 4 13 16 21 21 21 13z"/>
<path fill="#ffffff" stroke="none" d="M1335 3671 c3 -5 2 -12 -3 -15 -5 -3
-9 1 -9 9 0 17 3 19 12 6z"/>
<path fill="#ffffff" stroke="none" d="M1434 3671 c3 -5 -1 -14 -8 -20 -10 -9
-16 -9 -21 -1 -4 6 -1 9 7 8 7 -2 12 3 11 10 -3 14 3 16 11 3z"/>
<path fill="#ffffff" stroke="none" d="M1640 3677 c0 -2 -10 -12 -22 -23 l-23
-19 19 23 c18 21 26 27 26 19z"/>
<path fill="#ffffff" stroke="none" d="M1880 3676 c0 -2 -8 -10 -17 -17 -16
-13 -17 -12 -4 4 13 16 21 21 21 13z"/>
<path fill="#ffffff" stroke="none" d="M1533 3657 c4 3 7 4 7 1 0 -3 -8 -12
-17 -19 -10 -7 -15 -9 -11 -5 4 5 2 16 -5 25 -10 14 -10 14 4 4 9 -7 19 -10
22 -6z"/>
<path fill="#ffffff" stroke="none" d="M1677 3663 c-4 -3 -1 -13 6 -22 11 -14
10 -14 -5 -2 -16 12 -16 31 -1 31 4 0 3 -3 0 -7z"/>
<path fill="#ffffff" stroke="none" d="M1731 3653 c13 -16 12 -17 -3 -4 -17
13 -22 21 -14 21 2 0 10 -8 17 -17z"/>
<path fill="#ffffff" stroke="none" d="M1834 3661 c3 -4 -3 -16 -13 -25 -14
-13 -18 -14 -18 -2 0 8 5 14 11 13 6 -1 10 4 9 11 -3 14 3 16 11 3z"/>
<path fill="#ffffff" stroke="none" d="M1460 3656 c0 -2 -8 -10 -17 -17 -16
-13 -17 -12 -4 4 13 16 21 21 21 13z"/>
<path fill="#ffffff" stroke="none" d="M1584 3651 c3 -5 -2 -15 -12 -22 -15
-12 -16 -12 -5 2 7 9 10 19 6 22 -3 4 -4 7 0 7 3 0 8 -4 11 -9z"/>
<path fill="#ffffff" stroke="none" d="M1650 3657 c0 -2 -10 -12 -22 -23 l-23
-19 19 23 c18 21 26 27 26 19z"/>
<path fill="#ffffff" stroke="none" d="M1709 3646 c9 -11 9 -16 -1 -22 -7 -4
-10 -4 -6 1 4 4 3 14 -3 22 -6 7 -9 13 -6 13 2 0 10 -6 16 -14z"/>
<path fill="#ffffff" stroke="none" d="M1890 3656 c0 -2 -8 -10 -17 -17 -16
-13 -17 -12 -4 4 13 16 21 21 21 13z"/>
<path fill="#ffffff" stroke="none" d="M1366 3634 c-1 -8 -4 -15 -7 -16 -2 -2
-3 -1 -2 1 2 2 -2 9 -7 16 -7 8 -5 12 4 12 8 0 13 -6 12 -13z"/>
<path fill="#ffffff" stroke="none" d="M1396 3632 c-3 -3 0 -12 6 -21 10 -13
10 -14 -2 -4 -16 15 -23 46 -8 37 5 -3 7 -9 4 -12z"/>
<path fill="#ffffff" stroke="none" d="M1496 3641 c-3 -5 0 -14 8 -20 14 -12
16 -35 3 -47 -3 -4 -5 3 -2 14 2 11 -3 26 -11 32 -12 11 -11 30 2 30 3 0 3 -4
0 -9z"/>
<path fill="#ffffff" stroke="none" d="M1551 3637 c-6 -8 -8 -16 -5 -19 3 -3
1 -9 -4 -12 -6 -3 -9 0 -8 6 2 16 15 38 23 38 3 0 0 -6 -6 -13z"/>
<path fill="#ffffff" stroke="none" d="M1336 3614 c1 -9 0 -13 -4 -10 -3 4 -7
14 -8 22 -1 9 0 13 4 10 3 -4 7 -14 8 -22z"/>
<path fill="#ffffff" stroke="none" d="M1470 3636 c0 -2 -8 -10 -17 -17 -16
-13 -17 -12 -4 4 13 16 21 21 21 13z"/>
<path fill="#ffffff" stroke="none" d="M1660 3625 c1 -5 9 -19 18 -30 17 -20
17 -20 -4 -2 -11 9 -21 24 -21 32 0 16 4 16 7 0z"/>
<path fill="#ffffff" stroke="none" d="M1850 3637 c0 -2 -10 -12 -22 -23 l-23
-19 19 23 c18 21 26 27 26 19z"/>
<path fill="#ffffff" stroke="none" d="M1740 3626 c0 -2 -8 -10 -17 -17 -16
-13 -17 -12 -4 4 13 16 21 21 21 13z"/>
<path fill="#ffffff" stroke="none" d="M1790 3626 c0 -2 -8 -10 -17 -17 -16
-13 -17 -12 -4 4 13 16 21 21 21 13z"/>
<path fill="#ffffff" stroke="none" d="M1635 3603 c-1 -10 5 -27 14 -38 16
-20 16 -20 -6 -2 -17 15 -21 30 -14 55 4 11 9 -2 6 -15z"/>
<path fill="#ffffff" stroke="none" d="M1385 3601 c3 -5 2 -12 -3 -15 -5 -3
-9 1 -9 9 0 17 3 19 12 6z"/>
<path fill="#ffffff" stroke="none" d="M1741 3597 c-6 -8 -7 -18 -3 -22 4 -5
1 -5 -6 -1 -10 6 -10 11 -1 22 6 8 14 14 16 14 3 0 0 -6 -6 -13z"/>
<path fill="#ffffff" stroke="none" d="M1800 3606 c0 -2 -8 -10 -17 -17 -16
-13 -17 -12 -4 4 13 16 21 21 21 13z"/>
<path fill="#ffffff" stroke="none" d="M1325 3591 c3 -5 2 -12 -3 -15 -5 -3
-9 1 -9 9 0 17 3 19 12 6z"/>
<path fill="#ffffff" stroke="none" d="M1357 3585 c0 -8 -4 -12 -9 -9 -5 3 -6
10 -3 15 9 13 12 11 12 -6z"/>
<path fill="#ffffff" stroke="none" d="M1456 3579 c1 -5 2 -10 4 -11 7 -9 7
-39 0 -43 -5 -3 -7 3 -5 12 1 10 0 23 -4 28 -8 15 -11 38 -3 30 4 -4 8 -11 8
-16z"/>
<path fill="#ffffff" stroke="none" d="M1487 3585 c0 -8 -4 -12 -9 -9 -5 3 -6
10 -3 15 9 13 12 11 12 -6z"/>
<path fill="#ffffff" stroke="none" d="M1581 3587 c-6 -8 -7 -18 -3 -22 4 -5
1 -5 -6 -1 -10 6 -10 11 -1 22 6 8 14 14 16 14 3 0 0 -6 -6 -13z"/>
<path fill="#ffffff" stroke="none" d="M1837 3585 c0 -8 -4 -12 -9 -9 -5 3 -6
10 -3 15 9 13 12 11 12 -6z"/>
<path fill="#ffffff" stroke="none" d="M1605 3573 c-2 -10 -4 -20 -5 -23 -1
-3 -2 -9 -1 -13 1 -5 -3 -6 -9 -2 -6 3 -7 12 -3 18 4 7 8 15 9 20 3 14 4 17 8
17 2 0 3 -8 1 -17z"/>
<path fill="#ffffff" stroke="none" d="M1671 3573 c13 -16 12 -17 -3 -4 -10 7
-18 15 -18 17 0 8 8 3 21 -13z"/>
<path fill="#ffffff" stroke="none" d="M1427 3573 c-4 -3 -1 -13 6 -22 11 -14
10 -14 -5 -2 -16 12 -16 31 -1 31 4 0 3 -3 0 -7z"/>
<path fill="#ffffff" stroke="none" d="M1376 3555 c-1 -8 -5 -17 -8 -21 -5 -4
-4 16 1 34 3 9 9 -1 7 -13z"/>
<path fill="#ffffff" stroke="none" d="M1720 3565 c0 -2 -6 -8 -13 -14 -10 -8
-14 -7 -14 2 0 8 6 14 14 14 7 0 13 -1 13 -2z"/>
<path fill="#ffffff" stroke="none" d="M1780 3565 c0 -1 -15 -14 -32 -31 -27
-23 -29 -24 -10 -3 12 14 20 28 17 31 -3 2 2 5 10 5 8 0 15 -1 15 -2z"/>
<path fill="#ffffff" stroke="none" d="M1825 3561 c3 -5 2 -12 -3 -15 -5 -3
-9 1 -9 9 0 17 3 19 12 6z"/>
<path fill="#ffffff" stroke="none" d="M1416 3530 c1 -6 2 -11 4 -12 7 -9 7
-39 0 -43 -5 -3 -7 3 -5 12 1 10 -2 24 -8 31 -5 6 -6 12 -2 12 4 0 1 8 -6 18
-11 15 -11 15 1 4 8 -7 16 -17 16 -22z"/>
<path fill="#ffffff" stroke="none" d="M1523 3540 c10 -12 9 -12 -4 -2 -10 8
-19 8 -26 1 -6 -6 -10 -5 -10 5 0 17 23 15 40 -4z"/>
<path fill="#ffffff" stroke="none" d="M1641 3543 c12 -16 12 -17 -2 -6 -9 7
-20 9 -24 5 -5 -4 -5 -1 -1 6 9 16 11 15 27 -5z"/>
<path fill="#ffffff" stroke="none" d="M1740 3556 c0 -2 -8 -10 -17 -17 -16
-13 -17 -12 -4 4 13 16 21 21 21 13z"/>
<path fill="#ffffff" stroke="none" d="M1797 3545 c0 -8 -8 -22 -17 -30 -14
-13 -17 -13 -17 -1 0 8 5 14 11 13 5 -1 11 4 12 11 4 27 11 32 11 7z"/>
<path fill="#ffffff" stroke="none" d="M1676 3535 c-1 -8 -5 -17 -8 -21 -5 -4
-4 16 1 34 3 9 9 -1 7 -13z"/>
<path fill="#ffffff" stroke="none" d="M1556 3514 c1 -9 0 -13 -4 -10 -3 4 -7
14 -8 22 -1 9 0 13 4 10 3 -4 7 -14 8 -22z"/>
<path fill="#ffffff" stroke="none" d="M1387 3523 c-4 -3 -1 -13 6 -22 11 -14
10 -14 -5 -2 -16 12 -16 31 -1 31 4 0 3 -3 0 -7z"/>
<path fill="#ffffff" stroke="none" d="M1507 3523 c-4 -3 -1 -13 6 -22 11 -14
10 -14 -5 -2 -16 12 -16 31 -1 31 4 0 3 -3 0 -7z"/>
<path fill="#ffffff" stroke="none" d="M1586 3504 c1 -9 0 -13 -4 -10 -3 4 -7
14 -8 22 -1 9 0 13 4 10 3 -4 7 -14 8 -22z"/>
<path fill="#ffffff" stroke="none" d="M1624 3522 c3 -5 -1 -9 -9 -9 -8 0 -12
4 -9 9 3 4 7 8 9 8 2 0 6 -4 9 -8z"/>
<path fill="#ffffff" stroke="none" d="M1816 3515 c-1 -8 -5 -17 -8 -21 -5 -4
-4 16 1 34 3 9 9 -1 7 -13z"/>
<path fill="#ffffff" stroke="none" d="M1475 3503 c-1 -10 5 -27 14 -38 16
-20 16 -20 -6 -2 -17 15 -21 30 -14 55 4 11 9 -2 6 -15z"/>
<path fill="#ffffff" stroke="none" d="M1695 3501 c3 -5 2 -12 -3 -15 -5 -3
-9 1 -9 9 0 17 3 19 12 6z"/>
<path fill="#ffffff" stroke="none" d="M1747 3495 c0 -8 -4 -12 -9 -9 -5 3 -6
10 -3 15 9 13 12 11 12 -6z"/>
<path fill="#ffffff" stroke="none" d="M1667 3493 c-4 -3 -1 -13 6 -22 11 -14
10 -14 -5 -2 -16 12 -16 31 -1 31 4 0 3 -3 0 -7z"/>
<path fill="#ffffff" stroke="none" d="M1553 3466 c3 3 4 -1 3 -10 -1 -8 -6
-19 -12 -23 -5 -4 -6 -4 -1 1 4 5 -1 19 -10 30 -14 15 -14 18 -2 8 9 -6 18 -9
22 -6z"/>
<path fill="#ffffff" stroke="none" d="M1604 3464 c3 -8 2 -12 -4 -9 -6 3 -10
10 -10 16 0 14 7 11 14 -7z"/>
<path fill="#ffffff" stroke="none" d="M1706 3465 c-1 -8 -5 -17 -8 -21 -5 -4
-4 16 1 34 3 9 9 -1 7 -13z"/>
<path fill="#ffffff" stroke="none" d="M1736 3454 c1 -9 0 -13 -4 -10 -3 4 -7
14 -8 22 -1 9 0 13 4 10 3 -4 7 -14 8 -22z"/>
<path fill="#ffffff" stroke="none" d="M1440 3466 c0 -2 -6 -9 -14 -15 -11 -9
-16 -9 -22 0 -4 7 -3 9 4 5 6 -3 13 -2 17 4 6 10 15 14 15 6z"/>
<path fill="#ffffff" stroke="none" d="M1469 3456 c9 -11 9 -16 -1 -22 -7 -4
-10 -4 -6 1 4 4 3 14 -3 22 -6 7 -9 13 -6 13 2 0 10 -6 16 -14z"/>
<path fill="#ffffff" stroke="none" d="M1641 3436 c-12 -12 -19 -25 -16 -28 3
-2 -3 -12 -13 -21 -15 -14 -19 -14 -19 -3 0 8 5 14 11 13 5 -1 11 4 12 11 1 6
3 15 4 20 1 4 2 10 1 15 0 4 5 6 12 5 6 -2 11 3 9 10 -1 8 2 11 9 7 7 -5 3
-15 -10 -29z"/>
<path fill="#ffffff" stroke="none" d="M1765 3461 c3 -5 2 -12 -3 -15 -5 -3
-9 1 -9 9 0 17 3 19 12 6z"/>
<path fill="#ffffff" stroke="none" d="M1526 3434 c1 -9 0 -13 -4 -10 -3 4 -7
14 -8 22 -1 9 0 13 4 10 3 -4 7 -14 8 -22z"/>
<path fill="#ffffff" stroke="none" d="M1584 3451 c3 -5 -2 -15 -12 -22 -15
-12 -16 -12 -5 2 7 9 10 19 6 22 -3 4 -4 7 0 7 3 0 8 -4 11 -9z"/>
<path fill="#ffffff" stroke="none" d="M1447 3443 c-4 -3 -1 -13 6 -22 11 -14
10 -14 -5 -2 -16 12 -16 31 -1 31 4 0 3 -3 0 -7z"/>
<path fill="#ffffff" stroke="none" d="M1675 3423 c-1 -16 4 -35 12 -44 12
-14 11 -18 -4 -30 -16 -12 -17 -12 -5 2 10 13 10 18 -1 28 -11 8 -15 50 -8 69
4 10 8 -3 6 -25z"/>
<path fill="#ffffff" stroke="none" d="M1500 3436 c0 -2 -8 -10 -17 -17 -16
-13 -17 -12 -4 4 13 16 21 21 21 13z"/>
<path fill="#ffffff" stroke="none" d="M1610 3437 c0 -2 -10 -12 -22 -23 l-23
-19 19 23 c18 21 26 27 26 19z"/>
<path fill="#ffffff" stroke="none" d="M1711 3413 c13 -16 12 -17 -3 -4 -17
13 -22 21 -14 21 2 0 10 -8 17 -17z"/>
<path fill="#ffffff" stroke="none" d="M1507 3405 c0 -8 -4 -12 -9 -9 -5 3 -6
10 -3 15 9 13 12 11 12 -6z"/>
<path fill="#ffffff" stroke="none" d="M1536 3385 c1 -8 -1 -17 -5 -19 -4 -3
-7 6 -7 19 0 25 8 25 12 0z"/>
<path fill="#ffffff" stroke="none" d="M1646 3385 c-3 -23 -22 -39 -31 -26 -3
7 -1 10 6 9 7 -2 14 3 15 10 2 19 4 22 8 22 2 0 3 -7 2 -15z"/>
<path fill="#ffffff" stroke="none" d="M1575 3371 c-1 -9 0 -20 4 -26 8 -15
11 -38 3 -30 -4 4 -8 11 -8 16 -1 5 -3 11 -4 14 -1 3 -3 8 -4 13 -1 4 -4 12
-8 18 -4 6 -1 11 6 11 8 0 13 -7 11 -16z"/>
<path fill="#ffffff" stroke="none" d="M1507 3373 c-4 -3 -1 -13 6 -22 11 -14
10 -14 -5 -2 -16 12 -16 31 -1 31 4 0 3 -3 0 -7z"/>
<path fill="#ffffff" stroke="none" d="M1663 3358 c-6 -7 -9 -21 -8 -31 2 -9
0 -15 -5 -12 -13 8 1 55 17 55 3 0 1 -6 -4 -12z"/>
<path fill="#ffffff" stroke="none" d="M1547 3353 c-4 -3 -1 -13 6 -22 11 -14
10 -14 -5 -2 -16 12 -16 31 -1 31 4 0 3 -3 0 -7z"/>
<path fill="#ffffff" stroke="none" d="M1615 3340 c10 -11 16 -20 13 -20 -3 0
-13 9 -23 20 -10 11 -16 20 -13 20 3 0 13 -9 23 -20z"/>
<path fill="#ffffff" stroke="none" d="M1541 3313 c13 -16 12 -17 -3 -4 -10 7
-18 15 -18 17 0 8 8 3 21 -13z"/>
<path fill="#ffffff" stroke="none" d="M1635 3308 c5 4 5 1 1 -6 -6 -10 -11
-10 -22 -1 -8 6 -14 14 -14 16 0 3 6 0 13 -6 8 -6 18 -7 22 -3z"/>
<path fill="#ffffff" stroke="none" d="M1611 3283 c13 -16 12 -17 -3 -4 -17
13 -22 21 -14 21 2 0 10 -8 17 -17z"/>
<path fill="#ffffff" stroke="none" d="M1565 3281 c3 -5 2 -12 -3 -15 -5 -3
-9 1 -9 9 0 17 3 19 12 6z"/>
<path fill="#ffffff" stroke="none" d="M1601 3263 c13 -16 12 -17 -3 -4 -17
13 -22 21 -14 21 2 0 10 -8 17 -17z"/>
<path fill="#ffffff" stroke="none" d="M1595 3240 c10 -11 16 -20 13 -20 -3 0
-13 9 -23 20 -10 11 -16 20 -13 20 3 0 13 -9 23 -20z"/>
<path fill="#000000" stroke="none" d="M275 3700 c3 -5 0 -7 -8 -5 -21 9 -41
-38 -33 -78 4 -19 24 -53 46 -78 22 -24 47 -59 55 -76 9 -18 17 -33 19 -33 2
0 3 16 1 35 -1 20 2 38 6 41 4 2 6 -6 4 -18 -4 -23 -4 -23 10 -3 8 11 27 32
41 47 15 16 24 34 21 42 -4 11 -1 13 11 9 13 -5 11 0 -6 19 -18 20 -21 28 -10
34 7 4 10 4 6 -1 -9 -9 9 -35 24 -35 6 0 4 8 -3 17 -10 11 -10 14 -1 9 21 -12
14 42 -8 64 -11 11 -31 20 -45 20 -14 0 -30 -9 -37 -20 -7 -11 -17 -20 -22
-20 -5 0 -21 -10 -35 -22 -14 -13 -20 -16 -13 -7 6 9 8 19 4 23 -4 4 0 6 8 4
8 -2 14 3 12 10 -1 8 3 11 10 7 7 -4 4 1 -6 9 -22 17 -61 22 -51 6z"/>
<path fill="#ffffff" stroke="none" d="M430 3694 c0 -8 -19 -13 -24 -6 -3 5 1
9 9 9 8 0 15 -2 15 -3z"/>
<path fill="#ffffff" stroke="none" d="M286 3664 c-1 -8 -4 -15 -7 -16 -2 -2
-3 -1 -2 1 2 2 -2 9 -7 16 -7 8 -5 12 4 12 8 0 13 -6 12 -13z"/>
<path fill="#ffffff" stroke="none" d="M397 3663 c0 -7 -10 -21 -21 -30 -21
-18 -21 -18 -4 3 12 14 14 24 8 30 -7 7 -6 11 3 11 8 0 14 -6 14 -14z"/>
<path fill="#ffffff" stroke="none" d="M256 3634 c0 -13 -2 -22 -5 -19 -3 3
-6 17 -7 31 0 13 2 22 5 19 3 -3 6 -17 7 -31z"/>
<path fill="#ffffff" stroke="none" d="M424 3661 c3 -5 -2 -15 -12 -22 -15
-12 -16 -12 -5 2 7 9 10 19 6 22 -3 4 -4 7 0 7 3 0 8 -4 11 -9z"/>
<path fill="#ffffff" stroke="none" d="M457 3655 c0 -8 -4 -12 -9 -9 -5 3 -6
10 -3 15 9 13 12 11 12 -6z"/>
<path fill="#ffffff" stroke="none" d="M370 3655 c0 -2 -6 -8 -13 -14 -10 -8
-14 -7 -14 2 0 8 6 14 14 14 7 0 13 -1 13 -2z"/>
<path fill="#ffffff" stroke="none" d="M327 3625 c0 -8 -4 -12 -9 -9 -5 3 -6
10 -3 15 9 13 12 11 12 -6z"/>
<path fill="#ffffff" stroke="none" d="M285 3621 c3 -5 2 -12 -3 -15 -5 -3 -9
1 -9 9 0 17 3 19 12 6z"/>
<path fill="#ffffff" stroke="none" d="M356 3602 c-9 -9 15 -32 27 -25 6 4 7
1 3 -6 -6 -9 -12 -9 -25 3 -18 16 -25 50 -9 40 5 -4 7 -9 4 -12z"/>
<path fill="#ffffff" stroke="none" d="M387 3605 c0 -8 -4 -12 -9 -9 -5 3 -6
10 -3 15 9 13 12 11 12 -6z"/>
<path fill="#ffffff" stroke="none" d="M415 3592 c-1 -9 2 -22 7 -29 6 -7 5
-14 -2 -18 -6 -4 -10 -3 -9 2 1 4 0 10 -1 13 -6 15 -6 59 1 55 4 -3 6 -13 4
-23z"/>
<path fill="#ffffff" stroke="none" d="M301 3597 c-6 -8 -7 -18 -3 -22 4 -5 1
-5 -6 -1 -10 6 -10 11 -1 22 6 8 14 14 16 14 3 0 0 -6 -6 -13z"/>
<path fill="#ffffff" stroke="none" d="M325 3583 c-2 -10 -4 -19 -5 -20 -2 -2
-3 -7 -4 -12 0 -5 -4 -12 -8 -16 -5 -6 -3 25 2 33 2 1 4 7 5 12 1 6 3 12 4 15
3 14 9 3 6 -12z"/>
<path fill="#ffffff" stroke="none" d="M361 3553 c12 -16 12 -17 -2 -6 -9 7
-20 9 -24 5 -5 -4 -5 -1 -1 6 9 16 11 15 27 -5z"/>
<path fill="#ffffff" stroke="none" d="M397 3545 c0 -8 -4 -12 -9 -9 -5 3 -6
10 -3 15 9 13 12 11 12 -6z"/>
<path fill="#ffffff" stroke="none" d="M340 3536 c0 -2 -8 -10 -17 -17 -16
-13 -17 -12 -4 4 13 16 21 21 21 13z"/>
<path fill="#ffffff" stroke="none" d="M360 3526 c0 -2 -8 -10 -17 -17 -16
-13 -17 -12 -4 4 13 16 21 21 21 13z"/>
<path fill="#000000" stroke="none" d="M1395 2602 c4 -12 3 -12 -8 -3 -11 9
-20 5 -42 -16 -48 -48 -68 -105 -62 -181 5 -65 24 -122 40 -122 4 0 7 -6 7
-12 0 -20 131 -159 142 -152 7 5 8 2 4 -5 -9 -14 22 -53 35 -45 5 3 6 10 3 16
-4 7 -2 8 5 4 9 -6 9 -11 1 -21 -13 -16 -4 -39 11 -29 5 3 7 9 4 14 -3 5 -1
11 4 14 10 7 9 -13 -2 -31 -4 -6 4 -34 18 -61 14 -27 25 -58 25 -68 1 -13 7
-8 20 16 17 32 17 36 2 53 -18 20 -26 51 -11 41 5 -3 7 -9 4 -14 -7 -11 24
-35 33 -26 4 4 7 11 7 14 1 19 53 91 61 85 5 -5 6 -4 2 1 -4 5 6 24 22 43 17
19 27 39 24 45 -5 7 -2 8 6 3 14 -8 85 63 95 96 4 11 11 16 18 13 7 -4 9 -3 4
1 -4 5 0 19 8 32 9 13 13 23 9 23 -4 0 -2 6 4 13 13 16 7 160 -7 165 -6 2 -9
8 -6 12 8 13 -56 82 -71 76 -8 -3 -13 -2 -11 2 1 4 -2 7 -8 7 -5 0 -9 -4 -7
-8 1 -5 -2 -6 -8 -2 -6 3 -8 11 -5 16 8 12 -37 12 -71 -1 -36 -14 -85 -71 -80
-93 2 -10 0 -14 -7 -10 -6 4 -8 0 -4 -10 3 -9 1 -19 -5 -23 -6 -4 -8 -3 -5 3
4 6 0 14 -9 17 -9 3 -12 11 -8 18 5 8 2 9 -11 4 -16 -6 -16 -4 -4 11 12 15 12
16 -5 10 -15 -6 -17 -5 -7 6 8 11 7 17 -7 29 -38 32 -69 45 -110 45 -35 0 -42
-2 -37 -15z"/>
<path fill="#ffffff" stroke="none" d="M1426 2595 c-1 -8 -5 -17 -8 -21 -5 -4
-4 16 1 34 3 9 9 -1 7 -13z"/>
<path fill="#ffffff" stroke="none" d="M1456 2584 c1 -9 0 -13 -4 -10 -3 4 -7
14 -8 22 -1 9 0 13 4 10 3 -4 7 -14 8 -22z"/>
<path fill="#ffffff" stroke="none" d="M1745 2602 c-3 -3 0 -11 5 -17 7 -9 6
-16 -4 -24 -10 -8 -16 -9 -21 -1 -4 6 -3 10 2 9 21 -4 25 3 10 19 -15 16 -15
19 -2 19 8 0 13 -3 10 -5z"/>
<path fill="#ffffff" stroke="none" d="M1486 2582 c-3 -3 0 -12 6 -21 10 -13
10 -14 -2 -4 -16 15 -23 46 -8 37 5 -3 7 -9 4 -12z"/>
<path fill="#ffffff" stroke="none" d="M1686 2576 c0 -14 -3 -23 -7 -20 -6 3
-6 22 0 42 3 10 7 -2 7 -22z"/>
<path fill="#ffffff" stroke="none" d="M1715 2591 c3 -5 2 -12 -3 -15 -5 -3
-9 1 -9 9 0 17 3 19 12 6z"/>
<path fill="#ffffff" stroke="none" d="M1374 2582 c3 -5 -1 -9 -9 -9 -8 0 -12
4 -9 9 3 4 7 8 9 8 2 0 6 -4 9 -8z"/>
<path fill="#ffffff" stroke="none" d="M1374 2539 c-21 -20 -31 -25 -31 -15 0
8 5 14 11 13 6 -1 10 4 8 11 -1 8 2 11 8 7 5 -3 13 1 16 10 4 9 9 13 12 10 3
-3 -8 -19 -24 -36z"/>
<path fill="#ffffff" stroke="none" d="M1541 2563 c13 -16 12 -17 -3 -4 -10 7
-18 15 -18 17 0 8 8 3 21 -13z"/>
<path fill="#ffffff" stroke="none" d="M1761 2547 l-24 -22 19 27 c10 14 21
24 23 22 3 -3 -6 -15 -18 -27z"/>
<path fill="#ffffff" stroke="none" d="M1812 2566 c-4 -6 -7 -14 -7 -18 0 -19
-11 -14 -11 6 0 12 6 23 13 23 6 0 9 -5 5 -11z"/>
<path fill="#ffffff" stroke="none" d="M1424 2551 c3 -4 -3 -16 -13 -25 -14
-13 -18 -14 -18 -2 0 8 5 14 11 13 6 -1 10 4 9 11 -3 14 3 16 11 3z"/>
<path fill="#ffffff" stroke="none" d="M1476 2542 c-3 -3 0 -12 6 -21 10 -13
10 -14 -2 -4 -16 15 -23 46 -8 37 5 -3 7 -9 4 -12z"/>
<path fill="#ffffff" stroke="none" d="M1526 2542 c-3 -3 0 -12 6 -21 10 -13
10 -14 -2 -4 -16 15 -23 46 -8 37 5 -3 7 -9 4 -12z"/>
<path fill="#ffffff" stroke="none" d="M1721 2543 c13 -16 12 -17 -3 -4 -10 7
-18 15 -18 17 0 8 8 3 21 -13z"/>
<path fill="#ffffff" stroke="none" d="M1446 2525 c-3 -23 -22 -39 -31 -26 -3
7 -1 10 6 9 7 -2 14 3 15 10 2 19 4 22 8 22 2 0 3 -7 2 -15z"/>
<path fill="#ffffff" stroke="none" d="M1653 2527 c4 3 7 4 7 1 0 -3 -8 -12
-17 -19 -10 -7 -15 -9 -11 -5 4 5 2 16 -5 25 -10 14 -10 14 4 4 9 -7 19 -10
22 -6z"/>
<path fill="#ffffff" stroke="none" d="M1697 2529 c-1 -3 4 -13 11 -21 10 -13
9 -18 -5 -29 -16 -12 -17 -12 -6 2 7 9 10 19 6 23 -4 3 -8 14 -9 22 -1 9 -1
14 1 12 2 -1 3 -6 2 -9z"/>
<path fill="#ffffff" stroke="none" d="M1776 2525 c-1 -8 -8 -21 -16 -28 -10
-10 -11 -9 -4 3 5 8 9 18 10 23 3 14 4 17 8 17 2 0 3 -7 2 -15z"/>
<path fill="#ffffff" stroke="none" d="M1327 2523 c-4 -3 1 -16 10 -27 18 -21
18 -21 -4 -2 -20 16 -23 36 -6 36 4 0 3 -3 0 -7z"/>
<path fill="#ffffff" stroke="none" d="M1375 2493 c-1 -16 2 -33 7 -40 5 -7 5
-14 -2 -18 -6 -3 -8 -10 -5 -15 3 -5 1 -11 -4 -14 -10 -7 -9 13 2 31 4 6 3 14
-1 17 -10 6 -8 66 1 66 2 0 3 -12 2 -27z"/>
<path fill="#ffffff" stroke="none" d="M1507 2509 c-1 -3 4 -13 11 -22 9 -10
10 -17 2 -22 -6 -4 -10 -3 -9 2 1 4 0 10 -1 13 -4 11 -8 42 -5 38 2 -1 3 -6 2
-9z"/>
<path fill="#ffffff" stroke="none" d="M1667 2502 c-10 -10 -14 -22 -10 -27 5
-4 2 -5 -5 -1 -11 6 -10 12 4 27 9 10 19 19 22 19 3 0 -2 -8 -11 -18z"/>
<path fill="#ffffff" stroke="none" d="M1750 2514 c0 -8 -19 -13 -24 -6 -3 5
1 9 9 9 8 0 15 -2 15 -3z"/>
<path fill="#ffffff" stroke="none" d="M1836 2505 c-1 -8 -5 -17 -8 -21 -5 -4
-4 16 1 34 3 9 9 -1 7 -13z"/>
<path fill="#ffffff" stroke="none" d="M1470 2507 c0 -2 -10 -12 -22 -23 l-23
-19 19 23 c18 21 26 27 26 19z"/>
<path fill="#ffffff" stroke="none" d="M1321 2483 c13 -16 12 -17 -3 -4 -10 7
-18 15 -18 17 0 8 8 3 21 -13z"/>
<path fill="#ffffff" stroke="none" d="M1411 2483 c13 -16 12 -17 -3 -4 -10 7
-18 15 -18 17 0 8 8 3 21 -13z"/>
<path fill="#ffffff" stroke="none" d="M1490 2497 c0 -2 -12 -14 -27 -28 l-28
-24 24 28 c23 25 31 32 31 24z"/>
<path fill="#ffffff" stroke="none" d="M1571 2483 c13 -16 12 -17 -3 -4 -10 7
-18 15 -18 17 0 8 8 3 21 -13z"/>
<path fill="#ffffff" stroke="none" d="M1790 2496 c0 -2 -8 -10 -17 -17 -16
-13 -17 -12 -4 4 13 16 21 21 21 13z"/>
<path fill="#ffffff" stroke="none" d="M1744 2481 c3 -5 -1 -14 -8 -20 -10 -9
-16 -9 -21 -1 -4 6 -1 9 7 8 7 -2 12 3 11 10 -3 14 3 16 11 3z"/>
<path fill="#ffffff" stroke="none" d="M1810 2487 c0 -2 -10 -12 -22 -23 l-23
-19 19 23 c18 21 26 27 26 19z"/>
<path fill="#ffffff" stroke="none" d="M1842 2467 c-12 -13 -20 -27 -17 -30 3
-4 2 -5 -2 -2 -10 8 -13 36 -3 30 4 -3 13 2 20 10 7 8 15 15 18 15 3 0 -4 -10
-16 -23z"/>
<path fill="#ffffff" stroke="none" d="M1306 2455 c1 -8 -1 -17 -5 -19 -4 -3
-7 6 -7 19 0 25 8 25 12 0z"/>
<path fill="#ffffff" stroke="none" d="M1496 2465 c-3 -23 -22 -39 -31 -26 -3
7 -1 10 6 9 7 -2 14 3 15 10 2 19 4 22 8 22 2 0 3 -7 2 -15z"/>
<path fill="#ffffff" stroke="none" d="M1561 2463 c13 -16 12 -17 -3 -4 -10 7
-18 15 -18 17 0 8 8 3 21 -13z"/>
<path fill="#ffffff" stroke="none" d="M1876 2455 c-2 -30 -20 -52 -31 -36 -3
7 -1 10 6 9 7 -2 14 7 15 20 2 27 3 32 7 32 2 0 3 -11 3 -25z"/>
<path fill="#ffffff" stroke="none" d="M1620 2467 c0 -2 -8 -11 -18 -20 -15
-14 -19 -15 -19 -2 0 8 4 12 8 9 4 -2 10 0 14 6 6 10 15 14 15 7z"/>
<path fill="#ffffff" stroke="none" d="M1676 2446 c0 -14 -3 -23 -7 -20 -6 3
-6 22 0 42 3 10 7 -2 7 -22z"/>
<path fill="#ffffff" stroke="none" d="M1353 2447 c4 3 7 4 7 1 0 -3 -9 -13
-19 -22 -13 -12 -21 -14 -26 -6 -3 6 -3 10 2 9 21 -4 24 2 12 19 -12 15 -12
16 2 5 9 -7 19 -10 22 -6z"/>
<path fill="#ffffff" stroke="none" d="M1536 2431 c-9 -10 -14 -20 -11 -23 3
-2 -8 -17 -23 -32 -20 -18 -29 -22 -29 -12 0 8 3 15 6 14 20 -2 22 5 5 25
l-19 22 23 -19 c18 -16 29 -17 20 -2 -2 2 5 13 15 23 9 11 14 23 10 28 -5 4
-2 5 5 1 11 -7 10 -11 -2 -25z"/>
<path fill="#ffffff" stroke="none" d="M1705 2451 c3 -5 2 -12 -3 -15 -5 -3
-9 1 -9 9 0 17 3 19 12 6z"/>
<path fill="#ffffff" stroke="none" d="M1520 2446 c0 -2 -8 -10 -17 -17 -16
-13 -17 -12 -4 4 13 16 21 21 21 13z"/>
<path fill="#ffffff" stroke="none" d="M1630 2446 c0 -2 -8 -10 -17 -17 -16
-13 -17 -12 -4 4 13 16 21 21 21 13z"/>
<path fill="#ffffff" stroke="none" d="M1800 2446 c0 -2 -6 -9 -14 -15 -11 -9
-16 -9 -22 0 -4 7 -3 9 4 5 6 -3 13 -2 17 4 6 10 15 14 15 6z"/>
<path fill="#ffffff" stroke="none" d="M1447 2429 c-1 -3 4 -13 11 -22 9 -10
10 -17 2 -22 -6 -4 -10 -3 -9 2 1 4 0 10 -1 13 -4 11 -8 42 -5 38 2 -1 3 -6 2
-9z"/>
<path fill="#ffffff" stroke="none" d="M1567 2425 c0 -8 -4 -12 -9 -9 -5 3 -6
10 -3 15 9 13 12 11 12 -6z"/>
<path fill="#ffffff" stroke="none" d="M1650 2437 c0 -2 -10 -12 -22 -23 l-23
-19 19 23 c18 21 26 27 26 19z"/>
<path fill="#ffffff" stroke="none" d="M1727 2433 c-4 -3 0 -14 8 -23 13 -15
14 -19 1 -29 -11 -9 -16 -9 -22 0 -4 7 -3 9 4 5 17 -10 23 10 7 24 -14 11 -12
30 2 30 4 0 3 -3 0 -7z"/>
<path fill="#ffffff" stroke="none" d="M1427 2415 c0 -8 -10 -23 -21 -32 -21
-18 -21 -18 -2 5 11 12 16 22 12 22 -4 0 -4 5 -1 10 9 14 12 13 12 -5z"/>
<path fill="#ffffff" stroke="none" d="M1791 2393 c1 4 2 11 3 16 2 17 13 21
13 6 0 -8 -10 -23 -21 -32 -12 -10 -18 -14 -13 -9 4 5 -3 21 -15 35 l-23 26
28 -24 c15 -14 28 -21 28 -18z"/>
<path fill="#ffffff" stroke="none" d="M1309 2406 c9 -10 7 -17 -6 -27 -16
-12 -17 -12 -6 2 10 12 10 18 1 27 -7 7 -9 12 -6 12 3 0 11 -6 17 -14z"/>
<path fill="#ffffff" stroke="none" d="M1660 2417 c0 -2 -10 -12 -22 -23 l-23
-19 19 23 c18 21 26 27 26 19z"/>
<path fill="#ffffff" stroke="none" d="M1705 2411 c3 -5 2 -12 -3 -15 -5 -3
-9 1 -9 9 0 17 3 19 12 6z"/>
<path fill="#ffffff" stroke="none" d="M1834 2411 c3 -5 -2 -15 -12 -22 -15
-12 -16 -12 -5 2 7 9 10 19 6 22 -3 4 -4 7 0 7 3 0 8 -4 11 -9z"/>
<path fill="#ffffff" stroke="none" d="M1347 2395 c0 -8 -4 -12 -9 -9 -5 3 -6
10 -3 15 9 13 12 11 12 -6z"/>
<path fill="#ffffff" stroke="none" d="M1675 2393 c-1 -10 0 -22 4 -28 10 -17
10 -35 0 -29 -5 3 -7 9 -4 14 3 5 1 11 -4 14 -7 5 -8 23 -2 44 4 10 9 -2 6
-15z"/>
<path fill="#ffffff" stroke="none" d="M1605 2388 c5 4 5 1 1 -6 -6 -10 -11
-10 -22 -1 -8 6 -14 14 -14 16 0 3 6 0 13 -6 8 -6 18 -7 22 -3z"/>
<path fill="#ffffff" stroke="none" d="M1860 2396 c0 -2 -8 -10 -17 -17 -16
-13 -17 -12 -4 4 13 16 21 21 21 13z"/>
<path fill="#ffffff" stroke="none" d="M1376 2364 c1 -9 0 -13 -4 -10 -3 4 -7
14 -8 22 -1 9 0 13 4 10 3 -4 7 -14 8 -22z"/>
<path fill="#ffffff" stroke="none" d="M1544 2381 c3 -4 -5 -18 -18 -30 -16
-15 -26 -19 -31 -12 -4 7 -1 10 7 9 7 -2 12 3 11 10 -2 6 3 11 10 10 6 -2 11
3 10 10 -3 14 3 16 11 3z"/>
<path fill="#ffffff" stroke="none" d="M1880 2386 c0 -2 -8 -10 -17 -17 -16
-13 -17 -12 -4 4 13 16 21 21 21 13z"/>
<path fill="#ffffff" stroke="none" d="M1330 2376 c0 -2 -8 -10 -17 -17 -16
-13 -17 -12 -4 4 13 16 21 21 21 13z"/>
<path fill="#ffffff" stroke="none" d="M1579 2366 c9 -11 9 -16 -1 -22 -7 -4
-10 -4 -6 1 4 4 3 14 -3 22 -6 7 -9 13 -6 13 2 0 10 -6 16 -14z"/>
<path fill="#ffffff" stroke="none" d="M1647 2373 c-4 -3 -2 -12 4 -20 6 -7 8
-13 4 -13 -4 0 -1 -8 6 -17 13 -16 12 -17 -3 -4 -10 7 -16 17 -13 21 3 5 1 11
-5 15 -10 6 -5 25 7 25 4 0 3 -3 0 -7z"/>
<path fill="#ffffff" stroke="none" d="M1715 2360 c10 -11 16 -20 13 -20 -3 0
-13 9 -23 20 -10 11 -16 20 -13 20 3 0 13 -9 23 -20z"/>
<path fill="#ffffff" stroke="none" d="M1755 2363 c-1 -10 3 -25 9 -33 9 -13
9 -13 -6 -2 -13 10 -16 26 -9 50 4 11 9 -2 6 -15z"/>
<path fill="#ffffff" stroke="none" d="M1350 2366 c0 -2 -8 -10 -17 -17 -16
-13 -17 -12 -4 4 13 16 21 21 21 13z"/>
<path fill="#ffffff" stroke="none" d="M1456 2345 c-1 -13 -4 -27 -7 -30 -5
-4 -4 41 0 53 4 10 8 -2 7 -23z"/>
<path fill="#ffffff" stroke="none" d="M1617 2363 c-4 -3 -1 -13 6 -22 11 -14
10 -14 -5 -2 -16 12 -16 31 -1 31 4 0 3 -3 0 -7z"/>
<path fill="#ffffff" stroke="none" d="M1817 2353 c0 -9 -4 -10 -14 -2 -7 6
-13 12 -13 14 0 1 6 2 13 2 8 0 14 -6 14 -14z"/>
<path fill="#ffffff" stroke="none" d="M1890 2366 c0 -2 -8 -10 -17 -17 -16
-13 -17 -12 -4 4 13 16 21 21 21 13z"/>
<path fill="#ffffff" stroke="none" d="M1406 2335 c1 -8 -1 -17 -5 -19 -4 -3
-7 6 -7 19 0 25 8 25 12 0z"/>
<path fill="#ffffff" stroke="none" d="M1557 2345 c0 -8 -8 -22 -17 -30 -14
-13 -17 -13 -17 -1 0 8 5 14 11 13 5 -1 11 4 12 11 4 27 11 32 11 7z"/>
<path fill="#ffffff" stroke="none" d="M1796 2325 c-1 -8 -5 -17 -8 -21 -4 -3
-5 2 -4 13 2 10 -2 25 -8 33 -9 13 -9 13 6 2 9 -7 15 -19 14 -27z"/>
<path fill="#ffffff" stroke="none" d="M1845 2351 c3 -5 2 -12 -3 -15 -5 -3
-9 1 -9 9 0 17 3 19 12 6z"/>
<path fill="#ffffff" stroke="none" d="M1356 2335 c-1 -8 -5 -17 -8 -21 -5 -4
-4 16 1 34 3 9 9 -1 7 -13z"/>
<path fill="#ffffff" stroke="none" d="M1321 2323 c13 -16 12 -17 -3 -4 -10 7
-18 15 -18 17 0 8 8 3 21 -13z"/>
<path fill="#ffffff" stroke="none" d="M1484 2331 c3 -4 -4 -17 -17 -27 -22
-19 -22 -19 -4 2 9 11 14 24 10 27 -3 4 -4 7 0 7 3 0 8 -4 11 -9z"/>
<path fill="#ffffff" stroke="none" d="M1611 2323 c13 -16 12 -17 -3 -4 -10 7
-18 15 -18 17 0 8 8 3 21 -13z"/>
<path fill="#ffffff" stroke="none" d="M1716 2314 c1 -9 0 -13 -4 -10 -3 4 -7
14 -8 22 -1 9 0 13 4 10 3 -4 7 -14 8 -22z"/>
<path fill="#ffffff" stroke="none" d="M1586 2304 c1 -9 0 -13 -4 -10 -3 4 -7
14 -8 22 -1 9 0 13 4 10 3 -4 7 -14 8 -22z"/>
<path fill="#ffffff" stroke="none" d="M1746 2312 c-3 -3 0 -12 6 -21 10 -13
10 -14 -2 -4 -16 15 -23 46 -8 37 5 -3 7 -9 4 -12z"/>
<path fill="#ffffff" stroke="none" d="M1856 2315 c-3 -23 -22 -39 -31 -26 -3
7 -1 10 6 9 7 -2 14 3 15 10 2 19 4 22 8 22 2 0 3 -7 2 -15z"/>
<path fill="#ffffff" stroke="none" d="M1377 2305 c0 -8 -4 -12 -9 -9 -5 3 -6
10 -3 15 9 13 12 11 12 -6z"/>
<path fill="#ffffff" stroke="none" d="M1506 2305 c-3 -23 -22 -39 -31 -26 -3
7 -1 10 6 9 7 -2 14 3 15 10 2 19 4 22 8 22 2 0 3 -7 2 -15z"/>
<path fill="#ffffff" stroke="none" d="M1651 2303 c13 -16 12 -17 -3 -4 -10 7
-18 15 -18 17 0 8 8 3 21 -13z"/>
<path fill="#ffffff" stroke="none" d="M1687 2301 c0 -11 -5 -18 -9 -15 -4 3
-5 11 -1 19 7 21 12 19 10 -4z"/>
<path fill="#ffffff" stroke="none" d="M1355 2291 c3 -5 2 -12 -3 -15 -5 -3
-9 1 -9 9 0 17 3 19 12 6z"/>
<path fill="#ffffff" stroke="none" d="M1405 2291 c3 -5 2 -12 -3 -15 -5 -3
-9 1 -9 9 0 17 3 19 12 6z"/>
<path fill="#ffffff" stroke="none" d="M1437 2285 c0 -8 -4 -12 -9 -9 -5 3 -6
10 -3 15 9 13 12 11 12 -6z"/>
<path fill="#ffffff" stroke="none" d="M1614 2284 c3 -8 2 -12 -4 -9 -6 3 -10
10 -10 16 0 14 7 11 14 -7z"/>
<path fill="#ffffff" stroke="none" d="M1639 2286 c9 -11 9 -16 -1 -22 -7 -4
-10 -4 -6 1 4 4 3 14 -3 22 -6 7 -9 13 -6 13 2 0 10 -6 16 -14z"/>
<path fill="#ffffff" stroke="none" d="M1810 2296 c0 -2 -6 -9 -14 -15 -11 -9
-16 -9 -22 0 -4 7 -3 9 4 5 6 -3 13 -2 17 4 6 10 15 14 15 6z"/>
<path fill="#ffffff" stroke="none" d="M1534 2281 c3 -5 -1 -14 -8 -20 -10 -9
-16 -9 -21 -1 -4 6 -1 9 7 8 7 -2 12 3 11 10 -3 14 3 16 11 3z"/>
<path fill="#ffffff" stroke="none" d="M1567 2283 c-4 -3 1 -16 10 -27 18 -21
18 -21 -4 -2 -20 16 -23 36 -6 36 4 0 3 -3 0 -7z"/>
<path fill="#ffffff" stroke="none" d="M1727 2273 c0 -9 -4 -10 -14 -2 -7 6
-13 12 -13 14 0 1 6 2 13 2 8 0 14 -6 14 -14z"/>
<path fill="#ffffff" stroke="none" d="M1466 2262 c-3 -3 0 -12 6 -21 10 -13
10 -14 -2 -4 -16 15 -23 46 -8 37 5 -3 7 -9 4 -12z"/>
<path fill="#ffffff" stroke="none" d="M1817 2273 c-4 -3 -2 -12 4 -19 7 -8 6
-14 -2 -20 -7 -4 -9 -3 -5 4 3 6 2 13 -4 17 -10 6 -5 25 7 25 4 0 3 -3 0 -7z"/>
<path fill="#ffffff" stroke="none" d="M1417 2263 c-4 -3 -1 -13 6 -22 11 -14
10 -14 -5 -2 -16 12 -16 31 -1 31 4 0 3 -3 0 -7z"/>
<path fill="#ffffff" stroke="none" d="M1711 2253 c13 -16 12 -17 -3 -4 -10 7
-18 15 -18 17 0 8 8 3 21 -13z"/>
<path fill="#ffffff" stroke="none" d="M1765 2262 c-3 -3 0 -11 6 -19 17 -20
5 -16 -14 5 -15 16 -15 19 -2 19 8 0 13 -3 10 -5z"/>
<path fill="#ffffff" stroke="none" d="M1386 2245 c-1 -8 -5 -17 -8 -21 -5 -4
-4 16 1 34 3 9 9 -1 7 -13z"/>
<path fill="#ffffff" stroke="none" d="M1499 2246 c9 -11 9 -16 -1 -22 -7 -4
-10 -4 -6 1 4 4 3 14 -3 22 -6 7 -9 13 -6 13 2 0 10 -6 16 -14z"/>
<path fill="#ffffff" stroke="none" d="M1547 2245 c0 -8 -4 -12 -9 -9 -5 3 -6
10 -3 15 9 13 12 11 12 -6z"/>
<path fill="#ffffff" stroke="none" d="M1617 2253 c-4 -3 3 -18 15 -32 l23
-26 -27 24 c-24 21 -29 41 -11 41 4 0 3 -3 0 -7z"/>
<path fill="#ffffff" stroke="none" d="M1651 2233 c13 -16 12 -17 -3 -4 -10 7
-18 15 -18 17 0 8 8 3 21 -13z"/>
<path fill="#ffffff" stroke="none" d="M1701 2233 c13 -16 12 -17 -3 -4 -10 7
-18 15 -18 17 0 8 8 3 21 -13z"/>
<path fill="#ffffff" stroke="none" d="M1751 2233 c13 -16 12 -17 -3 -4 -10 7
-18 15 -18 17 0 8 8 3 21 -13z"/>
<path fill="#ffffff" stroke="none" d="M1447 2229 c-1 -3 4 -13 11 -22 9 -10
10 -17 2 -22 -6 -4 -10 -3 -9 2 1 4 0 10 -1 13 -4 11 -8 42 -5 38 2 -1 3 -6 2
-9z"/>
<path fill="#ffffff" stroke="none" d="M1576 2214 c1 -9 0 -13 -4 -10 -3 4 -7
14 -8 22 -1 9 0 13 4 10 3 -4 7 -14 8 -22z"/>
<path fill="#ffffff" stroke="none" d="M1530 2226 c0 -2 -8 -10 -17 -17 -16
-13 -17 -12 -4 4 13 16 21 21 21 13z"/>
<path fill="#ffffff" stroke="none" d="M1606 2204 c1 -9 0 -13 -4 -10 -3 4 -7
14 -8 22 -1 9 0 13 4 10 3 -4 7 -14 8 -22z"/>
<path fill="#ffffff" stroke="none" d="M1691 2213 c13 -16 12 -17 -3 -4 -10 7
-18 15 -18 17 0 8 8 3 21 -13z"/>
<path fill="#ffffff" stroke="none" d="M1741 2213 c13 -16 12 -17 -3 -4 -10 7
-18 15 -18 17 0 8 8 3 21 -13z"/>
<path fill="#ffffff" stroke="none" d="M1805 2221 c3 -5 2 -12 -3 -15 -5 -3
-9 1 -9 9 0 17 3 19 12 6z"/>
<path fill="#ffffff" stroke="none" d="M1427 2213 c-4 -3 -1 -13 6 -22 11 -14
10 -14 -5 -2 -16 12 -16 31 -1 31 4 0 3 -3 0 -7z"/>
<path fill="#ffffff" stroke="none" d="M1541 2207 c-6 -8 -7 -18 -3 -22 4 -5
1 -5 -6 -1 -10 6 -10 11 -1 22 6 8 14 14 16 14 3 0 0 -6 -6 -13z"/>
<path fill="#ffffff" stroke="none" d="M1777 2205 c0 -8 -4 -12 -9 -9 -5 3 -6
10 -3 15 9 13 12 11 12 -6z"/>
<path fill="#ffffff" stroke="none" d="M1681 2193 c13 -16 12 -17 -3 -4 -10 7
-18 15 -18 17 0 8 8 3 21 -13z"/>
<path fill="#ffffff" stroke="none" d="M1731 2193 c13 -16 12 -17 -3 -4 -10 7
-18 15 -18 17 0 8 8 3 21 -13z"/>
<path fill="#ffffff" stroke="none" d="M1411 2183 c13 -16 12 -17 -3 -4 -10 7
-18 15 -18 17 0 8 8 3 21 -13z"/>
<path fill="#ffffff" stroke="none" d="M1564 2191 c3 -5 -2 -15 -12 -22 -15
-12 -16 -12 -5 2 7 9 10 19 6 22 -3 4 -4 7 0 7 3 0 8 -4 11 -9z"/>
<path fill="#ffffff" stroke="none" d="M1486 2175 c-1 -8 -5 -17 -8 -21 -5 -4
-4 16 1 34 3 9 9 -1 7 -13z"/>
<path fill="#ffffff" stroke="none" d="M1521 2173 c13 -16 12 -17 -3 -4 -10 7
-18 15 -18 17 0 8 8 3 21 -13z"/>
<path fill="#ffffff" stroke="none" d="M1671 2173 c13 -16 12 -17 -3 -4 -10 7
-18 15 -18 17 0 8 8 3 21 -13z"/>
<path fill="#ffffff" stroke="none" d="M1721 2173 c13 -16 12 -17 -3 -4 -10 7
-18 15 -18 17 0 8 8 3 21 -13z"/>
<path fill="#ffffff" stroke="none" d="M1626 2155 c1 -8 -1 -17 -5 -19 -4 -3
-7 6 -7 19 0 25 8 25 12 0z"/>
<path fill="#ffffff" stroke="none" d="M1455 2162 c-3 -3 0 -11 6 -19 17 -20
5 -16 -14 5 -15 16 -15 19 -2 19 8 0 13 -3 10 -5z"/>
<path fill="#ffffff" stroke="none" d="M1580 2167 c0 -2 -9 -12 -19 -21 -14
-13 -21 -14 -27 -5 -4 7 -3 10 3 6 6 -4 16 0 23 8 12 14 20 19 20 12z"/>
<path fill="#ffffff" stroke="none" d="M1656 2152 c-3 -3 0 -12 6 -21 10 -13
10 -14 -2 -4 -16 15 -23 46 -8 37 5 -3 7 -9 4 -12z"/>
<path fill="#ffffff" stroke="none" d="M1706 2152 c-3 -3 0 -12 6 -21 10 -13
10 -14 -2 -4 -16 15 -23 46 -8 37 5 -3 7 -9 4 -12z"/>
<path fill="#ffffff" stroke="none" d="M1516 2148 c4 -7 4 -10 -1 -6 -4 4 -15
2 -24 -5 -14 -11 -14 -10 -2 6 16 20 18 21 27 5z"/>
<path fill="#ffffff" stroke="none" d="M1596 2136 c0 -14 -3 -23 -7 -20 -6 3
-6 22 0 42 3 10 7 -2 7 -22z"/>
<path fill="#ffffff" stroke="none" d="M1507 2115 c0 -8 -4 -12 -9 -9 -5 3 -6
10 -3 15 9 13 12 11 12 -6z"/>
<path fill="#ffffff" stroke="none" d="M1536 2112 c-3 -3 0 -12 6 -21 10 -13
10 -14 -2 -4 -16 15 -23 46 -8 37 5 -3 7 -9 4 -12z"/>
<path fill="#ffffff" stroke="none" d="M1569 2123 c-1 -5 0 -10 1 -13 7 -19 7
-41 0 -45 -5 -3 -7 3 -5 15 2 11 -1 22 -6 25 -5 4 -7 11 -4 16 7 11 15 12 14
2z"/>
<path fill="#ffffff" stroke="none" d="M1694 2121 c3 -4 -3 -16 -13 -25 -14
-13 -18 -14 -18 -2 0 8 5 14 11 13 6 -1 10 4 9 11 -3 14 3 16 11 3z"/>
<path fill="#ffffff" stroke="none" d="M1624 2111 c3 -4 -3 -16 -13 -25 -14
-13 -18 -14 -18 -2 0 8 5 14 11 13 6 -1 10 4 9 11 -3 14 3 16 11 3z"/>
<path fill="#ffffff" stroke="none" d="M1645 2083 c-1 -10 2 -23 7 -30 6 -7 5
-14 -3 -19 -7 -4 -9 -3 -5 4 3 6 2 13 -3 16 -7 5 -8 23 -2 44 4 11 9 -2 6 -15z"/>
<path fill="#ffffff" stroke="none" d="M1617 2063 c-4 -3 -1 -13 6 -22 11 -14
10 -14 -5 -2 -16 12 -16 31 -1 31 4 0 3 -3 0 -7z"/>
<path fill="#ffffff" stroke="none" d="M1611 2023 c13 -16 12 -17 -3 -4 -10 7
-18 15 -18 17 0 8 8 3 21 -13z"/>
<path fill="#ffffff" stroke="none" d="M1566 2004 c1 -9 0 -13 -4 -10 -3 4 -7
14 -8 22 -1 9 0 13 4 10 3 -4 7 -14 8 -22z"/>
<path fill="#ffffff" stroke="none" d="M1596 1944 c1 -9 -1 -13 -4 -9 -4 4 -7
10 -7 13 0 4 -4 14 -9 22 -7 12 -6 13 4 3 8 -7 15 -20 16 -29z"/>
<path fill="#000000" stroke="none" d="M1375 1331 c-68 -42 -94 -96 -91 -196
2 -84 23 -125 113 -225 32 -36 74 -83 93 -105 19 -22 37 -39 40 -38 3 1 6 -6
7 -15 1 -27 49 -132 56 -125 4 3 2 12 -3 19 -8 9 -6 12 7 10 10 0 17 5 15 13
-1 7 4 24 13 37 8 13 13 35 11 49 -3 13 -1 27 4 30 5 3 7 -4 5 -15 -2 -11 0
-20 6 -20 5 0 9 6 9 13 0 8 11 24 25 37 14 13 23 30 21 36 -3 7 2 18 9 24 8 7
12 17 8 23 -4 6 -1 7 6 3 9 -6 8 -13 -5 -27 -9 -10 -13 -19 -8 -19 5 0 20 16
33 35 13 19 27 35 32 35 5 0 9 5 9 11 0 5 -5 7 -12 3 -7 -4 -8 -3 -4 4 4 6 14
8 24 5 9 -3 14 -3 11 0 -3 4 11 26 32 48 21 23 38 44 37 48 0 3 1 9 2 14 1 4
4 12 5 17 1 6 4 12 5 15 7 14 5 31 -4 44 -8 11 -8 13 2 7 20 -12 15 69 -8 119
-61 133 -210 137 -268 7 -14 -31 -22 -38 -33 -31 -8 5 -10 9 -6 9 5 0 -2 17
-14 39 -38 69 -126 98 -184 62z"/>
<path fill="#ffffff" stroke="none" d="M1441 1323 c13 -16 12 -17 -3 -4 -10 7
-18 15 -18 17 0 8 8 3 21 -13z"/>
<path fill="#ffffff" stroke="none" d="M1469 1326 c9 -11 9 -16 -1 -22 -7 -4
-10 -4 -6 1 4 4 3 14 -3 22 -6 7 -9 13 -6 13 2 0 10 -6 16 -14z"/>
<path fill="#ffffff" stroke="none" d="M1716 1325 c-1 -8 -5 -17 -8 -21 -5 -4
-4 16 1 34 3 9 9 -1 7 -13z"/>
<path fill="#ffffff" stroke="none" d="M1745 1331 c3 -5 2 -12 -3 -15 -5 -3
-9 1 -9 9 0 17 3 19 12 6z"/>
<path fill="#ffffff" stroke="none" d="M1380 1317 c0 -2 -10 -12 -22 -23 l-23
-19 19 23 c18 21 26 27 26 19z"/>
<path fill="#ffffff" stroke="none" d="M1420 1305 c1 -5 8 -17 16 -26 13 -14
12 -18 -3 -30 -16 -12 -17 -12 -6 2 10 12 10 18 1 27 -7 7 -13 19 -14 28 -1 9
-1 14 1 12 2 -1 4 -7 5 -13z"/>
<path fill="#ffffff" stroke="none" d="M1820 1315 c0 -1 -9 -10 -19 -19 -13
-12 -21 -14 -26 -6 -4 6 -1 9 7 8 7 -2 12 2 11 8 -1 6 5 11 13 11 8 0 14 -1
14 -2z"/>
<path fill="#ffffff" stroke="none" d="M1396 1288 c-1 -15 4 -22 13 -20 11 2
12 0 3 -11 -7 -8 -8 -18 -4 -22 4 -5 1 -5 -6 -1 -7 4 -10 11 -7 16 3 5 1 11
-4 14 -7 5 -8 23 -2 44 4 11 8 -2 7 -20z"/>
<path fill="#ffffff" stroke="none" d="M1680 1295 c-5 -7 -7 -15 -3 -19 4 -3
8 -14 9 -22 1 -9 -1 -13 -4 -9 -4 4 -8 11 -8 16 -1 5 -2 10 -4 12 -9 11 -5 34
6 34 9 0 11 -4 4 -12z"/>
<path fill="#ffffff" stroke="none" d="M1755 1301 c-3 -5 -1 -12 3 -15 5 -3 8
-18 7 -33 -1 -15 3 -35 9 -43 9 -13 9 -13 -5 -2 -10 7 -16 24 -14 42 1 17 -1
33 -6 36 -9 5 -3 24 7 24 3 0 3 -4 -1 -9z"/>
<path fill="#ffffff" stroke="none" d="M1487 1293 c-4 -3 -1 -13 6 -22 11 -14
10 -14 -5 -2 -16 12 -16 31 -1 31 4 0 3 -3 0 -7z"/>
<path fill="#ffffff" stroke="none" d="M1727 1293 c-4 -3 -1 -13 6 -22 11 -14
10 -14 -5 -2 -16 12 -16 31 -1 31 4 0 3 -3 0 -7z"/>
<path fill="#ffffff" stroke="none" d="M1836 1274 c1 -9 0 -13 -4 -10 -3 4 -7
14 -8 22 -1 9 0 13 4 10 3 -4 7 -14 8 -22z"/>
<path fill="#ffffff" stroke="none" d="M1647 1283 c-4 -3 -2 -12 3 -18 7 -9 6
-16 -4 -24 -11 -9 -16 -9 -22 0 -4 7 -3 9 4 5 6 -3 13 -2 16 3 4 5 2 12 -4 16
-10 6 -5 25 7 25 4 0 3 -3 0 -7z"/>
<path fill="#ffffff" stroke="none" d="M1367 1273 c-4 -3 -1 -13 6 -22 11 -14
10 -14 -5 -2 -16 12 -16 31 -1 31 4 0 3 -3 0 -7z"/>
<path fill="#ffffff" stroke="none" d="M1544 1271 c3 -5 -1 -14 -8 -20 -10 -9
-16 -9 -21 -1 -4 6 -1 9 7 8 7 -2 12 3 11 10 -3 14 3 16 11 3z"/>
<path fill="#ffffff" stroke="none" d="M1715 1242 c-1 -9 2 -24 8 -32 9 -12 9
-13 -3 -2 -15 13 -23 65 -9 57 4 -3 6 -13 4 -23z"/>
<path fill="#ffffff" stroke="none" d="M1811 1253 c2 1 3 0 2 -2 -2 -2 2 -10
8 -18 21 -25 3 -13 -22 14 -13 15 -17 22 -8 15 9 -6 18 -11 20 -9z"/>
<path fill="#ffffff" stroke="none" d="M1361 1233 c13 -16 12 -17 -3 -4 -17
13 -22 21 -14 21 2 0 10 -8 17 -17z"/>
<path fill="#ffffff" stroke="none" d="M1506 1225 c1 -8 -1 -17 -5 -19 -4 -3
-7 6 -7 19 0 25 8 25 12 0z"/>
<path fill="#ffffff" stroke="none" d="M1557 1235 c0 -8 -4 -12 -9 -9 -5 3 -6
10 -3 15 9 13 12 11 12 -6z"/>
<path fill="#ffffff" stroke="none" d="M1315 1231 c3 -5 2 -12 -3 -15 -5 -3
-9 1 -9 9 0 17 3 19 12 6z"/>
<path fill="#ffffff" stroke="none" d="M1477 1225 c0 -8 -4 -12 -9 -9 -5 3 -6
10 -3 15 9 13 12 11 12 -6z"/>
<path fill="#ffffff" stroke="none" d="M1667 1233 c-4 -3 -2 -12 4 -19 7 -8 6
-14 -2 -20 -7 -4 -9 -3 -5 4 3 6 2 13 -4 17 -10 6 -5 25 7 25 4 0 3 -3 0 -7z"/>
<path fill="#ffffff" stroke="none" d="M1805 1212 c-3 -3 1 -12 8 -21 11 -14
10 -14 -6 -2 -9 8 -15 16 -12 19 3 3 -1 12 -8 21 -11 14 -10 14 6 2 9 -8 15
-16 12 -19z"/>
<path fill="#ffffff" stroke="none" d="M1874 1231 c3 -5 -1 -14 -8 -20 -10 -9
-16 -9 -21 -1 -4 6 -1 9 7 8 7 -2 12 3 11 10 -3 14 3 16 11 3z"/>
<path fill="#ffffff" stroke="none" d="M1351 1213 c13 -16 12 -17 -3 -4 -17
13 -22 21 -14 21 2 0 10 -8 17 -17z"/>
<path fill="#ffffff" stroke="none" d="M1427 1223 c-4 -3 -1 -13 6 -22 11 -14
10 -14 -5 -2 -16 12 -16 31 -1 31 4 0 3 -3 0 -7z"/>
<path fill="#ffffff" stroke="none" d="M1534 1221 c3 -4 -4 -17 -17 -27 -22
-19 -22 -19 -4 2 9 11 14 24 10 27 -3 4 -4 7 0 7 3 0 8 -4 11 -9z"/>
<path fill="#ffffff" stroke="none" d="M1341 1193 c13 -16 12 -17 -3 -4 -17
13 -22 21 -14 21 2 0 10 -8 17 -17z"/>
<path fill="#ffffff" stroke="none" d="M1580 1205 c0 -2 -6 -8 -13 -14 -10 -8
-14 -7 -14 2 0 8 6 14 14 14 7 0 13 -1 13 -2z"/>
<path fill="#ffffff" stroke="none" d="M1621 1186 c-6 -7 -9 -15 -6 -18 3 -3
-1 -11 -9 -17 -10 -8 -16 -9 -21 -1 -4 6 -1 9 6 8 7 -2 14 3 15 10 1 6 3 15 4
20 1 4 2 11 1 15 -1 5 3 6 9 2 8 -5 8 -11 1 -19z"/>
<path fill="#ffffff" stroke="none" d="M1711 1193 c13 -16 12 -17 -3 -4 -17
13 -22 21 -14 21 2 0 10 -8 17 -17z"/>
<path fill="#ffffff" stroke="none" d="M1761 1193 c13 -16 12 -17 -3 -4 -17
13 -22 21 -14 21 2 0 10 -8 17 -17z"/>
<path fill="#ffffff" stroke="none" d="M1839 1196 c9 -11 9 -16 -1 -22 -7 -4
-10 -4 -6 1 4 4 3 14 -3 22 -6 7 -9 13 -6 13 2 0 10 -6 16 -14z"/>
<path fill="#ffffff" stroke="none" d="M1887 1195 c0 -8 -4 -12 -9 -9 -5 3 -6
10 -3 15 9 13 12 11 12 -6z"/>
<path fill="#ffffff" stroke="none" d="M1325 1180 c10 -11 16 -20 13 -20 -3 0
-13 9 -23 20 -10 11 -16 20 -13 20 3 0 13 -9 23 -20z"/>
<path fill="#ffffff" stroke="none" d="M1421 1183 c13 -16 12 -17 -3 -4 -17
13 -22 21 -14 21 2 0 10 -8 17 -17z"/>
<path fill="#ffffff" stroke="none" d="M1485 1191 c3 -5 2 -12 -3 -15 -5 -3
-9 1 -9 9 0 17 3 19 12 6z"/>
<path fill="#ffffff" stroke="none" d="M1600 1197 c0 -2 -10 -12 -22 -23 l-23
-19 19 23 c18 21 26 27 26 19z"/>
<path fill="#ffffff" stroke="none" d="M1457 1183 c-4 -3 -1 -13 6 -22 11 -14
10 -14 -5 -2 -16 12 -16 31 -1 31 4 0 3 -3 0 -7z"/>
<path fill="#ffffff" stroke="none" d="M1540 1186 c0 -2 -8 -10 -17 -17 -16
-13 -17 -12 -4 4 13 16 21 21 21 13z"/>
<path fill="#ffffff" stroke="none" d="M1695 1181 c3 -5 2 -12 -3 -15 -5 -3
-9 1 -9 9 0 17 3 19 12 6z"/>
<path fill="#ffffff" stroke="none" d="M1746 1172 c-3 -3 0 -12 6 -21 10 -13
10 -14 -2 -4 -16 15 -23 46 -8 37 5 -3 7 -9 4 -12z"/>
<path fill="#ffffff" stroke="none" d="M1796 1172 c-3 -3 0 -12 6 -21 10 -13
10 -14 -2 -4 -16 15 -23 46 -8 37 5 -3 7 -9 4 -12z"/>
<path fill="#ffffff" stroke="none" d="M1309 1166 c9 -10 7 -17 -6 -27 -16
-12 -17 -12 -6 2 10 12 10 18 1 27 -7 7 -9 12 -6 12 3 0 11 -6 17 -14z"/>
<path fill="#ffffff" stroke="none" d="M1411 1163 c13 -16 12 -17 -3 -4 -17
13 -22 21 -14 21 2 0 10 -8 17 -17z"/>
<path fill="#ffffff" stroke="none" d="M1667 1173 c-4 -3 -1 -13 6 -22 11 -14
10 -14 -5 -2 -16 12 -16 31 -1 31 4 0 3 -3 0 -7z"/>
<path fill="#ffffff" stroke="none" d="M1862 1168 c-8 -8 -9 -15 -1 -25 7 -7
8 -13 4 -13 -4 0 -1 -8 6 -17 13 -16 12 -17 -3 -4 -10 7 -16 17 -13 21 3 5 1
12 -5 15 -11 7 4 35 18 35 3 0 1 -5 -6 -12z"/>
<path fill="#ffffff" stroke="none" d="M1364 1161 c3 -4 -5 -18 -18 -30 -16
-15 -26 -19 -31 -12 -4 7 -1 10 7 9 7 -2 12 3 11 10 -2 6 3 11 10 10 6 -2 11
3 10 10 -3 14 3 16 11 3z"/>
<path fill="#ffffff" stroke="none" d="M1497 1155 c0 -8 -4 -12 -9 -9 -5 3 -6
10 -3 15 9 13 12 11 12 -6z"/>
<path fill="#ffffff" stroke="none" d="M1547 1155 c0 -8 -4 -12 -9 -9 -5 3 -6
10 -3 15 9 13 12 11 12 -6z"/>
<path fill="#ffffff" stroke="none" d="M1720 1166 c0 -2 -8 -10 -17 -17 -16
-13 -17 -12 -4 4 13 16 21 21 21 13z"/>
<path fill="#ffffff" stroke="none" d="M1887 1155 c0 -8 -4 -12 -9 -9 -5 3 -6
10 -3 15 9 13 12 11 12 -6z"/>
<path fill="#ffffff" stroke="none" d="M1401 1143 c13 -16 12 -17 -3 -4 -17
13 -22 21 -14 21 2 0 10 -8 17 -17z"/>
<path fill="#ffffff" stroke="none" d="M1451 1143 c13 -16 12 -17 -3 -4 -17
13 -22 21 -14 21 2 0 10 -8 17 -17z"/>
<path fill="#ffffff" stroke="none" d="M1645 1137 c1 -7 7 -11 15 -9 12 3 12
1 3 -9 -10 -10 -10 -16 0 -28 11 -14 10 -14 -5 -3 -10 8 -17 17 -16 20 0 4 -1
9 -2 12 -6 16 -7 41 -2 35 4 -4 7 -12 7 -18z"/>
<path fill="#ffffff" stroke="none" d="M1531 1133 c13 -16 12 -17 -3 -4 -17
13 -22 21 -14 21 2 0 10 -8 17 -17z"/>
<path fill="#ffffff" stroke="none" d="M1581 1133 c13 -16 12 -17 -3 -4 -17
13 -22 21 -14 21 2 0 10 -8 17 -17z"/>
<path fill="#ffffff" stroke="none" d="M1730 1147 c0 -2 -9 -12 -19 -21 -14
-13 -21 -14 -27 -5 -4 7 -3 10 3 6 6 -4 16 0 23 8 12 14 20 19 20 12z"/>
<path fill="#ffffff" stroke="none" d="M1780 1135 c1 -5 9 -19 18 -30 17 -20
17 -20 -4 -2 -11 9 -21 24 -21 32 0 16 4 16 7 0z"/>
<path fill="#ffffff" stroke="none" d="M1377 1129 c-1 -3 4 -13 11 -21 10 -13
9 -18 -5 -29 -16 -12 -17 -12 -6 2 7 9 10 19 6 23 -4 3 -8 14 -9 22 -1 9 -1
14 1 12 2 -1 3 -6 2 -9z"/>
<path fill="#ffffff" stroke="none" d="M1434 1131 c3 -5 -1 -14 -8 -20 -10 -9
-16 -9 -21 -1 -4 6 -1 9 7 8 7 -2 12 3 11 10 -3 14 3 16 11 3z"/>
<path fill="#ffffff" stroke="none" d="M1486 1119 c1 -5 2 -10 4 -11 7 -9 7
-39 0 -43 -5 -3 -7 3 -5 12 1 10 0 23 -4 28 -8 15 -11 38 -3 30 4 -4 8 -11 8
-16z"/>
<path fill="#ffffff" stroke="none" d="M1617 1133 c-4 -3 -1 -13 6 -22 11 -14
10 -14 -5 -2 -16 12 -16 31 -1 31 4 0 3 -3 0 -7z"/>
<path fill="#ffffff" stroke="none" d="M1519 1116 c9 -11 9 -16 -1 -22 -7 -4
-10 -4 -6 1 4 4 3 14 -3 22 -6 7 -9 13 -6 13 2 0 10 -6 16 -14z"/>
<path fill="#ffffff" stroke="none" d="M1571 1113 c13 -16 12 -17 -3 -4 -17
13 -22 21 -14 21 2 0 10 -8 17 -17z"/>
<path fill="#ffffff" stroke="none" d="M1740 1127 c0 -2 -10 -12 -22 -23 l-23
-19 19 23 c18 21 26 27 26 19z"/>
<path fill="#ffffff" stroke="none" d="M1757 1110 c-4 -28 -23 -45 -32 -31 -3
7 -1 10 6 9 7 -2 14 3 15 10 1 6 2 17 3 22 0 6 3 10 6 10 3 0 3 -9 2 -20z"/>
<path fill="#ffffff" stroke="none" d="M1821 1113 c13 -16 12 -17 -3 -4 -17
13 -22 21 -14 21 2 0 10 -8 17 -17z"/>
<path fill="#ffffff" stroke="none" d="M1311 1103 c13 -16 12 -17 -3 -4 -17
13 -22 21 -14 21 2 0 10 -8 17 -17z"/>
<path fill="#ffffff" stroke="none" d="M1360 1116 c0 -2 -8 -10 -17 -17 -16
-13 -17 -12 -4 4 13 16 21 21 21 13z"/>
<path fill="#ffffff" stroke="none" d="M1460 1116 c0 -2 -8 -10 -17 -17 -16
-13 -17 -12 -4 4 13 16 21 21 21 13z"/>
<path fill="#ffffff" stroke="none" d="M1561 1093 c13 -16 12 -17 -3 -4 -17
13 -22 21 -14 21 2 0 10 -8 17 -17z"/>
<path fill="#ffffff" stroke="none" d="M1611 1093 c13 -16 12 -17 -3 -4 -17
13 -22 21 -14 21 2 0 10 -8 17 -17z"/>
<path fill="#ffffff" stroke="none" d="M1854 1101 c3 -5 -1 -14 -8 -20 -10 -9
-16 -9 -21 -1 -4 6 -1 9 7 8 7 -2 12 3 11 10 -3 14 3 16 11 3z"/>
<path fill="#ffffff" stroke="none" d="M1470 1096 c0 -2 -8 -10 -17 -17 -16
-13 -17 -12 -4 4 13 16 21 21 21 13z"/>
<path fill="#ffffff" stroke="none" d="M1424 1081 c3 -4 -7 -19 -22 -32 -14
-13 -21 -17 -14 -8 6 9 8 19 4 23 -4 4 0 6 8 4 8 -1 14 3 13 10 -3 14 3 16 11
3z"/>
<path fill="#ffffff" stroke="none" d="M1551 1073 c13 -16 12 -17 -3 -4 -17
13 -22 21 -14 21 2 0 10 -8 17 -17z"/>
<path fill="#ffffff" stroke="none" d="M1601 1073 c13 -16 12 -17 -3 -4 -17
13 -22 21 -14 21 2 0 10 -8 17 -17z"/>
<path fill="#ffffff" stroke="none" d="M1651 1073 c13 -16 12 -17 -3 -4 -17
13 -22 21 -14 21 2 0 10 -8 17 -17z"/>
<path fill="#ffffff" stroke="none" d="M1880 1086 c0 -2 -8 -10 -17 -17 -16
-13 -17 -12 -4 4 13 16 21 21 21 13z"/>
<path fill="#ffffff" stroke="none" d="M1340 1074 c0 -8 -19 -13 -24 -6 -3 5
1 9 9 9 8 0 15 -2 15 -3z"/>
<path fill="#ffffff" stroke="none" d="M1531 1063 c13 -16 12 -17 -3 -4 -17
13 -22 21 -14 21 2 0 10 -8 17 -17z"/>
<path fill="#ffffff" stroke="none" d="M1686 1065 c-1 -8 -5 -17 -8 -21 -5 -4
-4 16 1 34 3 9 9 -1 7 -13z"/>
<path fill="#ffffff" stroke="none" d="M1715 1071 c3 -5 2 -12 -3 -15 -5 -3
-9 1 -9 9 0 17 3 19 12 6z"/>
<path fill="#ffffff" stroke="none" d="M1815 1071 c3 -5 2 -12 -3 -15 -5 -3
-9 1 -9 9 0 17 3 19 12 6z"/>
<path fill="#ffffff" stroke="none" d="M1360 1066 c0 -2 -8 -10 -17 -17 -16
-13 -17 -12 -4 4 13 16 21 21 21 13z"/>
<path fill="#ffffff" stroke="none" d="M1467 1055 c0 -8 -8 -22 -17 -30 -14
-13 -17 -13 -17 -1 0 8 5 14 11 13 5 -1 11 4 12 11 4 27 11 32 11 7z"/>
<path fill="#ffffff" stroke="none" d="M1586 1052 c-3 -3 0 -12 6 -21 10 -13
10 -14 -2 -4 -16 15 -23 46 -8 37 5 -3 7 -9 4 -12z"/>
<path fill="#ffffff" stroke="none" d="M1636 1052 c-3 -3 0 -12 6 -21 10 -13
10 -14 -2 -4 -16 15 -23 46 -8 37 5 -3 7 -9 4 -12z"/>
<path fill="#ffffff" stroke="none" d="M1786 1055 c-1 -8 -8 -21 -16 -28 -10
-10 -11 -9 -4 3 5 8 9 18 10 23 3 14 4 17 8 17 2 0 3 -7 2 -15z"/>
<path fill="#ffffff" stroke="none" d="M1380 1057 c0 -2 -11 -14 -24 -26 -18
-17 -26 -19 -31 -10 -5 7 -4 10 2 6 6 -4 18 2 28 13 17 19 25 24 25 17z"/>
<path fill="#ffffff" stroke="none" d="M1521 1043 c13 -16 12 -17 -3 -4 -17
13 -22 21 -14 21 2 0 10 -8 17 -17z"/>
<path fill="#ffffff" stroke="none" d="M1740 1056 c0 -2 -8 -10 -17 -17 -16
-13 -17 -12 -4 4 13 16 21 21 21 13z"/>
<path fill="#ffffff" stroke="none" d="M1501 1033 c13 -16 12 -17 -3 -4 -17
13 -22 21 -14 21 2 0 10 -8 17 -17z"/>
<path fill="#ffffff" stroke="none" d="M1555 1033 c-1 -10 5 -27 14 -38 16
-20 16 -20 -6 -2 -17 15 -21 30 -14 55 4 11 9 -2 6 -15z"/>
<path fill="#ffffff" stroke="none" d="M1760 1047 c0 -2 -10 -12 -22 -23 l-23
-19 19 23 c18 21 26 27 26 19z"/>
<path fill="#ffffff" stroke="none" d="M1860 1046 c0 -2 -8 -10 -17 -17 -16
-13 -17 -12 -4 4 13 16 21 21 21 13z"/>
<path fill="#ffffff" stroke="none" d="M1417 1025 c0 -8 -4 -12 -9 -9 -5 3 -6
10 -3 15 9 13 12 11 12 -6z"/>
<path fill="#ffffff" stroke="none" d="M1700 1036 c0 -2 -6 -9 -14 -15 -11 -9
-16 -9 -22 0 -4 7 -3 9 4 5 6 -3 13 -2 17 4 6 10 15 14 15 6z"/>
<path fill="#ffffff" stroke="none" d="M1814 1031 c3 -5 -1 -14 -8 -20 -10 -9
-16 -9 -21 -1 -4 6 -1 9 7 8 7 -2 12 3 11 10 -3 14 3 16 11 3z"/>
<path fill="#ffffff" stroke="none" d="M1480 1015 c1 -5 9 -19 18 -30 17 -20
17 -20 -4 -2 -11 9 -21 24 -21 32 0 16 4 16 7 0z"/>
<path fill="#ffffff" stroke="none" d="M1631 1013 c13 -16 12 -17 -3 -4 -17
13 -22 21 -14 21 2 0 10 -8 17 -17z"/>
<path fill="#ffffff" stroke="none" d="M1870 1026 c0 -2 -8 -10 -17 -17 -16
-13 -17 -12 -4 4 13 16 21 21 21 13z"/>
<path fill="#ffffff" stroke="none" d="M1362 1008 c-9 -9 -9 -15 1 -27 11 -14
10 -14 -6 -2 -13 10 -15 17 -6 27 6 8 14 14 17 14 3 0 1 -5 -6 -12z"/>
<path fill="#ffffff" stroke="none" d="M1401 1003 c13 -16 12 -17 -3 -4 -17
13 -22 21 -14 21 2 0 10 -8 17 -17z"/>
<path fill="#ffffff" stroke="none" d="M1701 1007 c-6 -8 -7 -18 -3 -22 4 -5
1 -5 -6 -1 -10 6 -10 11 -1 22 6 8 14 14 16 14 3 0 0 -6 -6 -13z"/>
<path fill="#ffffff" stroke="none" d="M1455 993 c-1 -10 3 -25 9 -33 9 -13 9
-13 -6 -2 -13 10 -16 26 -9 50 4 11 9 -2 6 -15z"/>
<path fill="#ffffff" stroke="none" d="M1621 993 c13 -16 12 -17 -3 -4 -17 13
-22 21 -14 21 2 0 10 -8 17 -17z"/>
<path fill="#ffffff" stroke="none" d="M1746 995 c-1 -8 -5 -17 -8 -21 -5 -4
-4 16 1 34 3 9 9 -1 7 -13z"/>
<path fill="#ffffff" stroke="none" d="M1775 1001 c3 -5 2 -12 -3 -15 -5 -3
-9 1 -9 9 0 17 3 19 12 6z"/>
<path fill="#ffffff" stroke="none" d="M1551 983 c13 -16 12 -17 -3 -4 -17 13
-22 21 -14 21 2 0 10 -8 17 -17z"/>
<path fill="#ffffff" stroke="none" d="M1597 979 c-1 -3 4 -13 12 -22 7 -10
10 -17 6 -17 -4 0 -1 -8 6 -17 13 -16 12 -17 -3 -5 -10 8 -17 17 -16 20 0 4
-1 9 -2 12 -4 11 -8 42 -5 38 2 -1 3 -6 2 -9z"/>
<path fill="#ffffff" stroke="none" d="M1654 981 c3 -5 -1 -14 -8 -20 -10 -9
-16 -9 -21 -1 -4 6 -1 9 7 8 7 -2 12 3 11 10 -3 14 3 16 11 3z"/>
<path fill="#ffffff" stroke="none" d="M1791 977 c-6 -8 -7 -18 -3 -22 4 -5 1
-5 -6 -1 -10 6 -10 11 -1 22 6 8 14 14 16 14 3 0 0 -6 -6 -13z"/>
<path fill="#ffffff" stroke="none" d="M1430 975 c0 -1 -12 -12 -27 -26 -20
-17 -23 -18 -10 -3 9 11 15 23 12 26 -3 2 2 5 10 5 8 0 15 -1 15 -2z"/>
<path fill="#ffffff" stroke="none" d="M1489 966 c9 -11 9 -16 -1 -22 -7 -4
-10 -4 -6 1 4 4 3 14 -3 22 -6 7 -9 13 -6 13 2 0 10 -6 16 -14z"/>
<path fill="#ffffff" stroke="none" d="M1541 963 c13 -16 12 -17 -3 -4 -17 13
-22 21 -14 21 2 0 10 -8 17 -17z"/>
<path fill="#ffffff" stroke="none" d="M1715 963 c-1 -10 3 -25 9 -33 9 -13 9
-13 -6 -2 -13 10 -16 26 -9 50 4 11 9 -2 6 -15z"/>
<path fill="#ffffff" stroke="none" d="M1577 963 c-4 -3 -1 -13 6 -22 11 -14
10 -14 -5 -2 -16 12 -16 31 -1 31 4 0 3 -3 0 -7z"/>
<path fill="#ffffff" stroke="none" d="M1437 949 c-1 -3 4 -13 11 -21 10 -12
10 -18 -1 -27 -11 -8 -18 -6 -31 8 -14 15 -15 21 -4 27 7 4 10 4 6 -1 -10 -10
11 -37 23 -29 5 3 6 11 2 17 -8 12 -14 42 -8 35 2 -1 3 -6 2 -9z"/>
<path fill="#ffffff" stroke="none" d="M1529 946 c9 -11 9 -16 -1 -22 -7 -4
-10 -4 -6 1 4 4 3 14 -3 22 -6 7 -9 13 -6 13 2 0 10 -6 16 -14z"/>
<path fill="#ffffff" stroke="none" d="M1667 953 c-4 -3 -2 -12 4 -19 7 -8 6
-14 -2 -20 -7 -4 -9 -3 -5 4 3 6 2 13 -4 17 -10 6 -5 25 7 25 4 0 3 -3 0 -7z"/>
<path fill="#ffffff" stroke="none" d="M1766 948 c4 4 3 0 -4 -9 -6 -9 -10
-19 -7 -22 3 -4 2 -4 -2 -1 -5 3 -8 9 -8 12 0 4 -4 14 -10 22 -7 12 -6 13 7 3
8 -7 19 -9 24 -5z"/>
<path fill="#ffffff" stroke="none" d="M1509 933 c-1 -5 0 -11 1 -15 1 -5 4
-12 5 -18 1 -5 3 -11 5 -12 7 -10 6 -37 -1 -32 -5 3 -7 9 -4 14 3 5 1 11 -5
15 -6 4 -8 10 -5 15 3 5 1 11 -5 15 -6 4 -8 11 -5 16 7 11 15 12 14 2z"/>
<path fill="#ffffff" stroke="none" d="M1569 926 c9 -11 9 -16 -1 -22 -7 -4
-10 -4 -6 1 4 4 3 14 -3 22 -6 7 -9 13 -6 13 2 0 10 -6 16 -14z"/>
<path fill="#ffffff" stroke="none" d="M1709 916 c9 -11 9 -16 -1 -22 -7 -4
-10 -4 -6 1 4 4 3 14 -3 22 -6 7 -9 13 -6 13 2 0 10 -6 16 -14z"/>
<path fill="#ffffff" stroke="none" d="M1547 913 c-4 -3 -2 -12 4 -19 7 -8 6
-14 -2 -20 -7 -4 -9 -3 -5 4 3 6 2 13 -4 17 -10 6 -5 25 7 25 4 0 3 -3 0 -7z"/>
<path fill="#ffffff" stroke="none" d="M1486 892 c-3 -3 0 -12 6 -21 10 -13
10 -14 -2 -4 -16 15 -23 46 -8 37 5 -3 7 -9 4 -12z"/>
<path fill="#ffffff" stroke="none" d="M1686 895 c-1 -8 -5 -17 -8 -21 -5 -4
-4 16 1 34 3 9 9 -1 7 -13z"/>
<path fill="#ffffff" stroke="none" d="M1634 891 c3 -5 -2 -15 -12 -22 -15
-12 -16 -12 -5 2 7 9 10 19 6 22 -3 4 -4 7 0 7 3 0 8 -4 11 -9z"/>
<path fill="#ffffff" stroke="none" d="M1601 877 c-6 -8 -7 -18 -3 -22 4 -5 1
-5 -6 -1 -10 6 -10 11 -1 22 6 8 14 14 16 14 3 0 0 -6 -6 -13z"/>
<path fill="#ffffff" stroke="none" d="M1660 876 c0 -2 -8 -10 -17 -17 -16
-13 -17 -12 -4 4 13 16 21 21 21 13z"/>
<path fill="#ffffff" stroke="none" d="M1710 876 c0 -2 -8 -10 -17 -17 -16
-13 -17 -12 -4 4 13 16 21 21 21 13z"/>
<path fill="#ffffff" stroke="none" d="M1479 856 c9 -11 9 -16 -1 -22 -7 -4
-10 -4 -6 1 4 4 3 14 -3 22 -6 7 -9 13 -6 13 2 0 10 -6 16 -14z"/>
<path fill="#ffffff" stroke="none" d="M1667 845 c0 -8 -4 -12 -9 -9 -5 3 -6
10 -3 15 9 13 12 11 12 -6z"/>
<path fill="#ffffff" stroke="none" d="M1615 833 c-1 -10 1 -23 6 -29 6 -7 -2
-20 -19 -35 l-27 -24 23 26 c14 16 19 29 14 33 -8 5 -9 22 -3 44 4 11 9 -2 6
-15z"/>
<path fill="#ffffff" stroke="none" d="M1563 827 c4 3 7 4 7 1 0 -3 -8 -12
-17 -19 -10 -7 -15 -9 -11 -5 4 5 2 16 -5 25 -10 14 -10 14 4 4 9 -7 19 -10
22 -6z"/>
<path fill="#ffffff" stroke="none" d="M1645 831 c3 -5 2 -12 -3 -15 -5 -3 -9
1 -9 9 0 17 3 19 12 6z"/>
<path fill="#ffffff" stroke="none" d="M1695 831 c3 -5 2 -12 -3 -15 -5 -3 -9
1 -9 9 0 17 3 19 12 6z"/>
<path fill="#ffffff" stroke="none" d="M1521 813 c2 1 3 0 2 -2 -2 -2 2 -10 8
-18 21 -25 3 -13 -22 14 -13 15 -17 22 -8 15 9 -6 18 -11 20 -9z"/>
<path fill="#ffffff" stroke="none" d="M1590 817 c0 -2 -10 -12 -22 -23 l-23
-19 19 23 c18 21 26 27 26 19z"/>
<path fill="#ffffff" stroke="none" d="M1667 805 c0 -8 -4 -12 -9 -9 -5 3 -6
10 -3 15 9 13 12 11 12 -6z"/>
<path fill="#ffffff" stroke="none" d="M1600 796 c0 -2 -8 -10 -17 -17 -16
-13 -17 -12 -4 4 13 16 21 21 21 13z"/>
<path fill="#ffffff" stroke="none" d="M1617 753 c-4 -3 -1 -13 6 -22 11 -14
10 -14 -5 -2 -16 12 -16 31 -1 31 4 0 3 -3 0 -7z"/>
<path fill="#ffffff" stroke="none" d="M1600 705 c-5 -6 -7 -14 -4 -17 3 -3 1
-9 -4 -12 -11 -7 -10 19 1 30 4 4 1 14 -6 23 -11 14 -10 14 6 2 12 -9 14 -17
7 -26z"/>
<path fill="#000000" stroke="none" d="M2814 1048 c-9 -18 -34 -53 -56 -77
-21 -25 -36 -51 -33 -58 3 -8 0 -11 -6 -7 -16 10 -4 -65 13 -82 27 -27 56 -24
83 8 24 28 24 32 10 48 -14 16 -14 18 2 31 16 12 17 12 5 -2 -10 -13 -10 -19
2 -28 8 -6 12 -20 9 -30 -2 -10 3 -25 12 -35 19 -19 40 -22 29 -3 -6 9 -4 9 8
-1 13 -10 19 -10 32 3 9 9 16 19 17 23 10 67 6 80 -35 128 -45 51 -72 94 -68
107 5 19 -9 4 -24 -25z"/>
<path fill="#ffffff" stroke="none" d="M2854 1011 c3 -5 -1 -14 -8 -20 -10 -9
-16 -9 -21 -1 -4 6 -1 9 7 8 7 -2 12 3 11 10 -3 14 3 16 11 3z"/>
<path fill="#ffffff" stroke="none" d="M2816 965 c-3 -23 -22 -39 -31 -26 -3
7 -1 10 6 9 7 -2 14 3 15 10 2 19 4 22 8 22 2 0 3 -7 2 -15z"/>
<path fill="#ffffff" stroke="none" d="M2844 961 c3 -4 -7 -19 -22 -32 l-27
-24 23 26 c12 14 19 29 15 32 -3 4 -4 7 0 7 3 0 8 -4 11 -9z"/>
<path fill="#ffffff" stroke="none" d="M2877 963 c-4 -3 -1 -13 6 -22 11 -14
10 -14 -5 -2 -16 12 -16 31 -1 31 4 0 3 -3 0 -7z"/>
<path fill="#ffffff" stroke="none" d="M2762 937 c-5 -7 -8 -20 -7 -29 4 -21
-20 -44 -30 -28 -4 6 -1 9 6 8 7 -2 14 7 15 20 1 12 3 25 4 30 1 4 2 11 1 15
-1 5 3 6 9 2 7 -4 8 -11 2 -18z"/>
<path fill="#ffffff" stroke="none" d="M2866 922 c-3 -3 0 -12 6 -21 10 -13
10 -14 -2 -4 -16 15 -23 46 -8 37 5 -3 7 -9 4 -12z"/>
<path fill="#ffffff" stroke="none" d="M2914 931 c3 -5 -1 -14 -8 -20 -10 -9
-16 -9 -21 -1 -4 6 -1 9 7 8 7 -2 12 3 11 10 -3 14 3 16 11 3z"/>
<path fill="#ffffff" stroke="none" d="M2940 916 c0 -2 -8 -10 -17 -17 -16
-13 -17 -12 -4 4 13 16 21 21 21 13z"/>
<path fill="#ffffff" stroke="none" d="M2797 883 c0 -7 -10 -21 -21 -30 -21
-18 -21 -18 -4 3 12 14 14 24 8 30 -7 7 -6 11 3 11 8 0 14 -6 14 -14z"/>
<path fill="#ffffff" stroke="none" d="M2905 881 c3 -5 2 -12 -3 -15 -5 -3 -9
1 -9 9 0 17 3 19 12 6z"/>
<path fill="#ffffff" stroke="none" d="M2876 855 c-1 -13 -4 -27 -7 -30 -5 -4
-4 41 0 53 4 10 8 -2 7 -23z"/>
<path fill="#ffffff" stroke="none" d="M2816 855 c-1 -8 -5 -17 -8 -21 -5 -4
-4 16 1 34 3 9 9 -1 7 -13z"/>
<path fill="#ffffff" stroke="none" d="M2745 851 c3 -5 2 -12 -3 -15 -5 -3 -9
1 -9 9 0 17 3 19 12 6z"/>
<path fill="#ffffff" stroke="none" d="M2923 837 c4 3 7 4 7 1 0 -3 -8 -12
-17 -19 -10 -7 -15 -9 -11 -5 4 5 2 16 -5 25 -10 14 -10 14 4 4 9 -7 19 -10
22 -6z"/>
<path fill="#ffffff" stroke="none" d="M2787 825 c0 -8 -4 -12 -9 -9 -5 3 -6
10 -3 15 9 13 12 11 12 -6z"/>
<path fill="#000000" stroke="none" d="M2809 680 c-68 -19 -110 -68 -114 -133
-3 -57 12 -94 46 -114 28 -17 38 -33 21 -33 -16 0 -50 -75 -46 -100 5 -28 31
-70 42 -69 4 1 9 0 12 -1 36 -16 130 6 130 31 0 6 6 7 13 3 6 -4 9 -3 4 1 -4
5 0 16 9 26 10 11 12 19 5 24 -6 3 -11 2 -11 -4 0 -15 -40 -39 -73 -45 -22 -4
-35 2 -56 22 -15 15 -26 34 -26 42 1 8 -4 21 -9 29 -8 11 -8 13 2 7 11 -6 17
5 13 27 0 4 4 7 10 7 6 0 9 6 6 14 -4 10 0 12 14 9 11 -3 19 0 19 6 0 7 -5 9
-12 5 -6 -4 -8 -3 -5 3 4 6 18 8 32 5 16 -3 25 0 25 9 0 7 -3 10 -6 6 -4 -3
-22 0 -41 8 -19 8 -40 12 -46 8 -6 -3 -7 -1 -3 6 4 6 3 17 -3 24 -22 28 -30
64 -17 88 7 13 14 29 16 34 1 6 15 18 31 27 20 12 29 14 33 5 3 -9 5 -9 5 0 1
8 11 6 34 -5 35 -18 80 -24 71 -10 -3 4 1 8 8 8 8 0 7 5 -4 17 -18 18 -86 24
-129 13z"/>
<path fill="#ffffff" stroke="none" d="M2745 621 c3 -5 2 -12 -3 -15 -5 -3 -9
1 -9 9 0 17 3 19 12 6z"/>
<path fill="#ffffff" stroke="none" d="M2725 591 c3 -5 2 -12 -3 -15 -5 -3 -9
1 -9 9 0 17 3 19 12 6z"/>
<path fill="#ffffff" stroke="none" d="M2740 505 c0 -2 -6 -8 -13 -14 -10 -8
-14 -7 -14 2 0 8 6 14 14 14 7 0 13 -1 13 -2z"/>
<path fill="#ffffff" stroke="none" d="M2747 482 c-10 -10 -14 -22 -10 -27 5
-4 2 -5 -5 -1 -11 6 -10 12 4 27 9 10 19 19 22 19 3 0 -2 -8 -11 -18z"/>
<path fill="#ffffff" stroke="none" d="M2764 444 c3 -8 2 -12 -4 -9 -6 3 -10
10 -10 16 0 14 7 11 14 -7z"/>
<path fill="#ffffff" stroke="none" d="M2800 454 c0 -8 -19 -13 -24 -6 -3 5 1
9 9 9 8 0 15 -2 15 -3z"/>
<path fill="#ffffff" stroke="none" d="M2746 325 c-1 -13 -4 -27 -7 -30 -5 -4
-4 41 0 53 4 10 8 -2 7 -23z"/>
<path fill="#ffffff" stroke="none" d="M2786 254 c1 -9 0 -13 -4 -10 -3 4 -7
14 -8 22 -1 9 0 13 4 10 3 -4 7 -14 8 -22z"/>
<path fill="#ffffff" stroke="none" d="M2757 255 c0 -8 -4 -12 -9 -9 -5 3 -6
10 -3 15 9 13 12 11 12 -6z"/>
<path fill="#ffffff" stroke="none" d="M2890 266 c0 -2 -6 -9 -14 -15 -11 -9
-16 -9 -22 0 -4 7 -3 9 4 5 6 -3 13 -2 17 4 6 10 15 14 15 6z"/>
<path fill="#ffffff" stroke="none" d="M2815 251 c3 -5 2 -12 -3 -15 -5 -3 -9
1 -9 9 0 17 3 19 12 6z"/>
</g>
</svg>
