<?xml version="1.0" standalone="no"?>
<!DOCTYPE svg PUBLIC "-//W3C//DTD SVG 20010904//EN"
 "http://www.w3.org/TR/2001/REC-SVG-20010904/DTD/svg10.dtd">
<svg version="1.0" xmlns="http://www.w3.org/2000/svg"
 width="318.000000pt" height="451.000000pt" viewBox="0 0 318.000000 451.000000"
 preserveAspectRatio="xMidYMid meet">
<metadata>
Created by potrace 1.16, written by Peter Selinger 2001-2019
</metadata>
<g transform="translate(0.000000,451.000000) scale(0.100000,-0.100000)"
fill="#000000" stroke="none">
<path fill="#000000" stroke="none" d="M272 4285 c-30 -25 -60 -81 -49 -91 3
-4 15 9 26 27 12 19 24 34 28 34 5 0 7 2 6 5 -3 11 63 3 87 -10 14 -8 28 -14
31 -13 7 2 9 -9 14 -68 4 -62 -32 -125 -131 -228 -41 -43 -74 -80 -74 -83 0
-9 95 -3 102 7 5 6 8 5 8 -2 0 -7 5 -13 11 -13 5 0 7 6 3 13 -6 10 -4 10 7 0
7 -7 17 -13 22 -13 4 0 5 6 1 13 -6 10 -4 10 7 0 7 -7 17 -13 22 -13 4 0 5 6
1 13 -6 10 -4 10 7 0 7 -7 17 -13 22 -13 4 0 5 6 1 13 -5 8 -2 8 9 -2 14 -11
17 -11 17 0 0 11 2 11 10 -1 9 -15 15 -6 35 59 l7 24 -28 -20 c-23 -15 -45
-19 -104 -18 -41 1 -82 -4 -90 -9 -13 -10 -13 -9 0 9 8 10 30 34 48 51 17 18
32 37 32 44 0 6 5 8 10 5 9 -6 14 8 11 27 0 5 5 7 12 5 6 -1 11 4 9 11 -1 8 2
11 7 7 12 -7 34 32 26 45 -4 6 -1 9 7 8 7 -2 12 3 11 10 -2 6 1 12 6 12 5 0 8
11 7 25 -2 13 1 22 6 19 15 -9 -2 60 -21 86 -40 56 -128 68 -179 25z"/>
<path fill="#000000" stroke="none" d="M316 3754 c-21 -14 -34 -30 -30 -36 4
-7 3 -8 -4 -4 -14 8 -54 -53 -47 -72 3 -7 0 -10 -5 -7 -7 4 -9 -5 -5 -27 11
-61 61 -76 102 -30 l25 27 -6 -47 c-4 -41 -3 -46 14 -45 10 1 16 5 13 11 -11
17 -15 84 -5 90 6 3 8 -2 5 -12 -2 -10 5 -26 18 -37 14 -12 19 -14 14 -5 -6
12 -5 13 6 3 33 -31 72 0 75 61 2 35 -46 100 -97 132 l-36 23 -37 -25z"/>
<path fill="#000000" stroke="none" d="M1533 3601 c-159 -107 -270 -267 -277
-402 -3 -58 15 -126 33 -121 6 1 10 -1 10 -5 -4 -25 2 -35 18 -29 10 4 14 4
10 0 -9 -9 30 -37 42 -29 5 3 12 2 15 -3 7 -11 66 -3 66 9 0 5 3 8 8 7 4 -1
17 3 29 10 47 26 73 122 45 164 -15 23 -15 23 5 5 11 -9 22 -15 24 -13 5 6 11
-47 12 -114 0 -50 -2 -69 -18 -150 -4 -24 -2 -25 39 -26 43 0 44 1 34 25 -5
15 -9 27 -9 29 1 1 1 3 0 5 0 1 -3 27 -6 57 -3 30 -10 61 -16 69 -10 12 -9 13
2 7 11 -7 13 0 9 32 -2 22 0 38 3 36 4 -2 10 7 13 21 4 14 11 25 16 25 6 0 6
-9 1 -22 -13 -37 9 -125 29 -113 5 3 7 0 4 -8 -3 -8 6 -21 20 -31 15 -9 26
-13 26 -9 0 5 4 2 8 -4 9 -15 43 -18 86 -8 36 7 80 42 97 75 15 29 21 160 7
160 -5 0 -6 5 -3 10 4 6 1 17 -5 25 -7 8 -10 15 -6 15 11 0 -34 81 -76 138
-23 30 -44 50 -50 46 -6 -4 -8 -3 -5 3 8 13 -17 36 -28 25 -5 -4 -5 -2 -2 4 6
11 -1 17 -99 87 l-52 37 -59 -39z"/>
<path fill="#000000" stroke="none" d="M1510 1551 c-36 -27 -86 -70 -112 -97
-55 -57 -121 -163 -113 -182 3 -8 0 -10 -7 -6 -7 5 -9 0 -6 -14 4 -12 2 -20
-3 -16 -5 3 -9 -5 -10 -18 -1 -13 -2 -42 -4 -64 -2 -48 16 -110 32 -107 6 1
10 -5 9 -15 0 -10 6 -16 16 -16 10 1 16 -2 13 -6 -9 -14 24 -32 50 -28 13 3
22 1 19 -3 -3 -5 -1 -9 5 -9 5 0 12 6 14 13 4 9 6 9 6 -1 1 -10 5 -10 24 0 12
7 25 12 28 11 12 -4 56 52 67 83 7 23 7 35 -1 44 -9 10 -9 11 2 5 10 -6 11 -2
6 16 -16 51 -15 52 9 6 19 -40 23 -60 20 -110 -2 -34 -6 -73 -9 -87 -18 -85
-19 -81 25 -78 32 1 40 6 40 21 0 12 -4 16 -12 11 -9 -5 -9 -2 1 9 7 9 9 17 5
17 -10 0 -14 42 -13 135 1 86 2 94 13 88 6 -4 6 1 2 13 -4 10 -4 15 0 11 4 -4
14 -1 23 6 14 11 14 10 2 -5 -7 -10 -11 -24 -8 -33 4 -8 2 -17 -3 -20 -11 -7
4 -59 25 -92 21 -32 96 -67 107 -50 5 8 8 8 8 1 0 -7 11 -9 25 -6 14 2 25 9
25 14 0 5 4 7 9 4 16 -10 59 34 76 77 14 38 16 109 3 157 -15 56 -31 89 -40
84 -7 -4 -8 -2 -4 4 17 28 -110 172 -215 243 -32 21 -64 39 -71 39 -7 0 -42
-22 -78 -49z"/>
<path fill="#000000" stroke="none" d="M2818 950 c2 -27 0 -50 -6 -54 -6 -3
-8 2 -5 13 3 12 -3 24 -18 35 -26 17 -64 22 -54 6 3 -5 0 -7 -8 -4 -15 5 -29
-17 -32 -51 -2 -27 33 -97 46 -90 5 4 8 1 7 -7 -2 -7 3 -12 10 -11 6 2 11 -2
10 -7 -2 -6 12 -20 30 -31 19 -12 32 -16 32 -9 0 6 5 8 10 5 14 -9 93 74 110
114 16 40 6 79 -25 93 -33 15 -78 -4 -73 -31 2 -10 -1 -17 -7 -17 -5 1 -9 22
-8 47 1 32 -2 46 -11 46 -9 0 -12 -13 -8 -47z"/>
<path fill="#000000" stroke="none" d="M2711 645 c-14 -18 -30 -75 -22 -75 5
0 16 10 25 23 9 12 14 16 11 10 -7 -16 26 -5 37 11 5 7 8 7 8 -1 0 -7 5 -13
11 -13 5 0 7 6 3 13 -6 10 -4 10 7 0 7 -7 17 -13 22 -13 4 0 5 6 1 13 -6 10
-4 10 7 0 7 -7 17 -13 22 -13 4 0 5 6 1 13 -6 10 -4 10 7 0 7 -7 17 -13 22
-13 4 0 5 6 1 13 -6 9 -3 8 8 -1 15 -12 11 -20 -40 -73 -112 -118 -142 -178
-128 -254 8 -39 59 -85 97 -87 48 -2 70 2 64 12 -3 5 0 7 9 4 14 -5 81 54 71
64 -2 2 0 13 6 23 6 13 6 19 0 19 -6 0 -15 -9 -21 -20 -16 -29 -52 -50 -94
-53 -19 -2 -33 -1 -31 2 3 2 -5 12 -17 20 -26 18 -30 30 -32 81 -1 35 35 118
58 132 6 4 8 8 4 8 -4 0 18 25 50 57 31 31 56 61 54 67 -2 6 0 8 4 4 9 -9 34
10 34 26 0 15 -248 16 -259 1z"/>
</g>
</svg>
