<?xml version="1.0" standalone="no"?>
<!DOCTYPE svg PUBLIC "-//W3C//DTD SVG 20010904//EN"
 "http://www.w3.org/TR/2001/REC-SVG-20010904/DTD/svg10.dtd">
<svg version="1.0" xmlns="http://www.w3.org/2000/svg"
 width="317.000000pt" height="451.000000pt" viewBox="0 0 317.000000 451.000000"
 preserveAspectRatio="xMidYMid meet">
<metadata>
Created by potrace 1.16, written by Peter Selinger 2001-2019
</metadata>
<g transform="translate(0.000000,451.000000) scale(0.100000,-0.100000)"
fill="#000000" stroke="none">
<path fill="#000000" stroke="none" d="M268 4215 c-22 -47 -39 -87 -37 -90 3
-2 25 -5 51 -7 25 -2 45 -5 42 -7 -7 -8 48 -31 59 -24 6 3 7 1 3 -6 -8 -13 12
-44 23 -37 4 3 7 -4 8 -15 8 -98 -7 -132 -66 -150 -32 -9 -43 -8 -75 9 -38 21
-66 20 -66 -2 1 -36 49 -56 105 -42 11 2 26 5 33 5 7 1 10 5 7 11 -3 6 1 7 9
4 9 -3 16 -1 16 5 0 6 3 10 8 9 14 -5 51 37 67 76 12 28 13 36 3 30 -11 -6
-11 -5 0 8 13 17 6 81 -9 72 -5 -3 -6 1 -3 9 10 28 -97 106 -148 107 -9 0 -20
5 -24 12 -4 6 -3 8 3 5 12 -8 26 20 17 34 -3 5 -2 9 3 8 22 -4 34 2 27 14 -5
7 0 6 11 -3 17 -13 18 -13 10 0 -6 12 -5 13 6 3 7 -7 17 -13 22 -13 4 0 5 6 1
13 -5 7 0 6 11 -3 17 -13 18 -13 10 0 -6 12 -5 13 6 3 7 -7 17 -13 22 -13 4 0
5 6 1 13 -6 8 -3 8 9 -2 15 -12 18 -10 27 14 5 14 10 28 10 31 0 2 -36 4 -80
4 l-81 0 -41 -85z"/>
<path fill="#000000" stroke="none" d="M1020 3913 c-70 -46 -129 -96 -124
-104 3 -5 0 -8 -8 -7 -7 2 -12 -3 -10 -10 1 -8 -2 -11 -7 -8 -10 6 -77 -77
-110 -137 -27 -48 -48 -139 -45 -189 2 -39 42 -120 55 -113 4 3 10 -2 13 -11
4 -9 13 -14 22 -10 8 3 13 2 10 -3 -3 -5 3 -11 14 -14 13 -3 18 -1 13 6 -5 9
-3 9 8 1 45 -36 173 59 143 107 -4 8 -3 9 4 5 15 -9 16 32 2 68 -17 45 0 28
22 -21 17 -38 19 -59 14 -117 -3 -39 -8 -81 -11 -93 -16 -68 -18 -64 31 -62
36 2 43 6 38 18 -6 17 -14 61 -16 99 -1 12 -5 22 -8 22 -3 0 -5 15 -3 33 2 17
5 47 6 65 1 17 5 32 10 32 4 0 6 3 4 8 -2 4 7 18 20 32 l25 25 -17 -27 c-28
-45 -14 -120 32 -166 7 -7 13 -11 13 -7 0 4 7 -1 16 -9 8 -9 20 -14 25 -11 5
4 9 0 9 -7 0 -9 3 -9 10 2 8 12 10 12 10 1 0 -11 3 -11 17 0 14 12 15 12 9 1
-7 -11 -4 -12 13 -3 11 7 21 9 21 5 0 -4 9 1 20 11 11 10 20 15 20 11 0 -4 12
6 26 23 14 17 23 35 19 41 -3 5 -1 10 6 10 7 0 9 3 6 6 -3 4 -2 16 4 27 9 15
8 18 -3 11 -11 -6 -11 -5 0 8 10 13 10 17 0 21 -11 4 -10 6 0 6 7 1 10 6 7 12
-4 5 -8 20 -10 32 -12 80 -58 163 -133 243 -58 63 -175 154 -196 154 -6 0 -23
-7 -36 -17z"/>
<path fill="#000000" stroke="none" d="M2036 3881 c-106 -80 -204 -190 -190
-212 4 -7 3 -9 -3 -6 -13 8 -36 -41 -27 -55 4 -6 2 -8 -3 -5 -14 9 -33 -68
-33 -130 1 -53 29 -120 49 -115 7 1 10 -2 6 -7 -7 -12 29 -36 68 -45 22 -5 27
-4 21 6 -6 10 -5 10 7 1 21 -17 92 19 116 59 21 36 36 81 24 73 -5 -2 -6 7 -3
22 3 18 1 24 -6 19 -8 -5 -10 -1 -5 10 5 15 7 15 15 0 5 -9 13 -14 17 -11 17
10 3 -248 -15 -277 -3 -4 16 -8 41 -8 46 0 47 0 40 28 -4 15 -9 36 -12 47 -3
11 -6 46 -8 78 -1 32 -5 60 -8 63 -3 3 1 17 8 31 8 15 11 31 8 37 -3 6 -3 8 2
4 4 -4 14 0 22 10 11 15 12 13 3 -12 -22 -60 11 -144 53 -137 5 1 6 -3 2 -8
-3 -6 4 -15 15 -21 11 -6 20 -8 20 -4 0 3 8 0 17 -7 15 -12 16 -12 8 1 -6 12
-5 13 6 3 15 -15 33 -17 25 -4 -3 4 6 7 19 5 14 -1 31 3 38 10 6 7 20 15 31
19 11 4 16 13 12 23 -3 8 -2 12 4 9 20 -13 44 82 26 104 -8 12 -8 13 2 7 10
-6 11 -1 7 21 -16 74 -28 113 -37 113 -5 0 -7 4 -4 9 8 12 -79 136 -93 133 -7
-1 -10 1 -7 6 7 12 -38 54 -49 45 -4 -5 -5 -3 -2 3 8 14 -123 114 -150 114 -6
0 -41 -22 -77 -49z"/>
<path fill="#000000" stroke="none" d="M335 3748 c-27 -14 -84 -69 -97 -92
-25 -46 -27 -75 -6 -101 15 -20 27 -25 48 -21 40 6 50 14 51 39 0 21 1 21 8 2
4 -11 5 -34 0 -52 -6 -28 -4 -33 12 -33 10 0 16 5 14 13 -9 24 -12 77 -5 82 4
3 11 -7 14 -21 5 -18 12 -24 22 -20 9 3 12 1 9 -4 -9 -14 29 -12 44 3 11 10
13 9 7 -3 -4 -8 0 -6 8 4 22 27 25 87 5 94 -5 2 -7 7 -5 11 6 10 -30 50 -74
83 -28 22 -39 25 -55 16z"/>
<path fill="#000000" stroke="none" d="M1524 2579 c-79 -55 -137 -111 -188
-184 -58 -81 -78 -136 -82 -222 -3 -61 0 -76 20 -105 13 -18 28 -32 34 -30 7
1 11 -4 10 -10 -2 -7 5 -12 14 -12 10 1 15 -2 12 -7 -5 -9 4 -11 66 -13 38 -2
105 39 93 57 -3 6 -1 7 5 3 25 -15 45 107 22 130 -7 7 -6 11 4 11 8 0 14 -5
13 -11 -1 -6 3 -10 8 -9 14 2 22 -141 10 -197 -17 -80 -17 -90 2 -90 11 0 25
6 32 13 11 10 13 10 7 0 -4 -8 -1 -13 8 -13 17 0 12 55 -7 79 -9 12 -9 13 0 7
10 -5 11 -1 5 16 -5 13 -8 37 -7 55 0 19 -3 29 -10 25 -6 -3 -5 0 1 9 6 8 11
28 10 46 0 17 3 29 8 25 5 -3 6 2 3 12 -4 10 -3 15 3 11 14 -9 12 9 -2 24 -11
11 -9 11 9 0 13 -7 19 -18 14 -24 -4 -5 -7 -19 -6 -30 1 -11 2 -30 3 -43 1
-15 6 -21 14 -16 7 4 8 3 4 -4 -12 -19 23 -59 65 -76 48 -20 83 -21 73 -3 -5
8 -2 8 9 -2 12 -9 17 -10 17 -2 0 7 4 10 9 6 13 -7 83 54 75 66 -3 5 -1 9 5 9
5 0 8 11 7 25 -2 14 1 22 7 18 15 -9 -1 111 -24 171 -24 66 -100 167 -164 221
-51 43 -136 104 -146 105 -3 0 -32 -18 -65 -41z"/>
<path fill="#000000" stroke="none" d="M983 1260 c-160 -112 -254 -254 -267
-405 -7 -70 56 -164 112 -168 15 -1 30 -6 34 -12 5 -6 8 -6 8 2 0 6 9 10 20 8
11 -2 20 0 20 6 0 5 3 8 8 7 15 -4 52 23 46 34 -4 7 -3 8 5 4 29 -18 51 114
26 155 -4 5 -4 9 -1 9 7 0 36 -61 36 -77 0 -8 4 -11 10 -8 5 3 8 0 6 -7 -3 -7
-7 -42 -10 -78 -3 -36 -8 -76 -11 -90 -14 -70 -14 -68 11 -68 13 1 21 5 18 10
-4 6 3 5 15 -1 26 -14 27 -10 16 45 -4 16 -7 44 -7 62 -1 17 -4 32 -8 32 -4 0
-5 12 -3 28 2 15 5 46 6 69 1 23 7 41 12 40 6 -1 9 4 7 11 -1 6 2 12 7 12 5 0
7 -17 4 -38 -6 -45 20 -117 38 -106 7 4 9 3 6 -3 -6 -10 12 -31 42 -48 10 -6
12 -4 6 6 -8 12 -6 12 8 1 9 -8 21 -11 26 -8 5 4 12 2 16 -3 3 -6 12 -8 20 -5
8 4 13 9 11 13 -2 3 7 7 21 8 45 2 91 71 94 138 5 116 -44 221 -155 331 -45
44 -104 94 -133 112 l-51 31 -69 -49z"/>
<path fill="#000000" stroke="none" d="M2089 1291 c-68 -43 -128 -94 -122
-103 3 -6 1 -8 -4 -5 -12 8 -64 -46 -110 -113 -37 -56 -68 -134 -58 -151 5 -8
4 -10 -3 -5 -18 11 -15 -97 3 -141 15 -35 60 -82 80 -84 12 -1 36 -6 50 -10 6
-2 26 3 45 10 19 8 39 13 44 12 5 -1 6 5 2 14 -3 9 -2 14 3 10 21 -12 49 49
47 103 -1 28 0 52 2 52 2 0 10 -16 18 -36 16 -39 18 -151 3 -192 -7 -17 -6
-21 4 -16 9 6 9 5 0 -7 -22 -27 -20 -51 5 -55 17 -3 21 0 16 8 -6 9 -3 9 9 0
20 -17 40 -6 32 18 -14 45 -17 70 -20 152 -1 57 2 85 8 81 6 -4 8 0 4 10 -3
10 -2 17 3 17 5 0 10 8 12 18 3 14 5 13 10 -6 3 -12 2 -20 -3 -16 -11 6 -12
-20 -2 -66 9 -46 73 -109 107 -106 14 2 26 -2 26 -8 0 -7 3 -8 8 -1 4 6 17 10
30 9 28 -2 106 71 98 92 -3 8 -2 13 3 10 14 -9 20 31 7 45 -8 9 -8 10 2 5 6
-4 12 -3 12 1 0 5 -6 15 -12 22 -11 11 -10 12 1 6 10 -5 12 -3 7 11 -3 11 -8
35 -11 54 -3 19 -10 36 -15 38 -5 2 -6 10 -3 18 3 8 0 14 -7 14 -6 0 -9 4 -6
8 3 5 -4 19 -15 30 -11 12 -17 22 -14 22 10 0 -54 78 -100 123 -33 32 -122 99
-160 119 -5 3 -22 -2 -36 -11z"/>
<path fill="#000000" stroke="none" d="M2814 980 c3 -22 1 -40 -4 -40 -5 0 -7
-8 -4 -17 5 -15 4 -15 -4 -3 -6 8 -8 18 -6 22 8 12 -18 33 -44 36 -34 5 -62
-25 -62 -65 0 -23 4 -32 12 -27 7 4 8 3 4 -5 -13 -20 46 -97 65 -85 5 3 8 2 7
-3 -2 -4 0 -8 3 -8 3 0 14 -8 24 -18 14 -15 20 -16 26 -5 5 7 9 9 9 4 0 -5 9
1 20 14 11 13 20 19 20 15 0 -5 8 0 18 11 34 37 54 76 49 95 -3 10 -1 17 4 13
16 -10 10 13 -12 40 -12 15 -30 26 -44 26 -26 0 -69 -46 -58 -63 3 -5 2 -7 -4
-4 -6 4 -7 24 -3 52 7 45 5 55 -13 55 -5 0 -6 -18 -3 -40z"/>
<path fill="#000000" stroke="none" d="M2812 692 c-13 -2 -19 -8 -16 -14 4 -7
2 -8 -5 -4 -17 11 -75 -37 -95 -77 -18 -40 -21 -93 -6 -133 13 -34 67 -87 80
-79 6 3 10 1 10 -5 0 -7 7 -9 16 -6 8 3 12 2 9 -4 -3 -6 2 -10 12 -10 35 0 44
-13 30 -43 -11 -25 -16 -27 -83 -27 -59 0 -73 -3 -78 -17 -3 -10 -9 -23 -12
-30 -4 -9 16 -11 76 -10 78 2 83 4 96 30 8 15 12 33 8 39 -4 7 -3 8 4 4 7 -4
12 -1 12 8 0 9 5 16 10 16 6 0 9 3 8 8 -1 4 5 21 15 38 l16 32 -48 6 c-123 16
-194 144 -120 217 21 20 37 26 72 26 30 0 48 -4 51 -13 7 -18 40 -18 55 0 9
11 8 18 -4 30 -9 9 -22 16 -28 17 -47 4 -65 4 -85 1z"/>
</g>
</svg>
