<?xml version="1.0" standalone="no"?>
<!DOCTYPE svg PUBLIC "-//W3C//DTD SVG 20010904//EN"
 "http://www.w3.org/TR/2001/REC-SVG-20010904/DTD/svg10.dtd">
<svg version="1.0" xmlns="http://www.w3.org/2000/svg"
 width="318.000000pt" height="450.000000pt" viewBox="0 0 318.000000 450.000000"
 preserveAspectRatio="xMidYMid meet">
<metadata>
Created by potrace 1.16, written by Peter Selinger 2001-2019
</metadata>
<g transform="translate(0.000000,450.000000) scale(0.100000,-0.100000)"
fill="#000000" stroke="none">
<path fill="#000000" stroke="none" d="M352 4292 c-13 -2 -20 -8 -16 -14 4 -7
2 -8 -5 -4 -29 18 -139 -98 -126 -132 2 -7 1 -11 -4 -8 -5 3 -11 -7 -13 -24
-3 -19 -1 -27 6 -23 7 5 7 2 0 -8 -10 -12 -10 -38 0 -89 7 -33 27 -71 53 -99
35 -36 101 -73 115 -65 6 4 8 3 5 -3 -8 -13 31 -45 46 -37 7 4 9 4 5 -1 -19
-20 94 -73 172 -81 l45 -4 -47 15 c-32 11 -59 29 -88 62 -23 26 -37 49 -31 51
6 2 9 7 7 10 -2 4 7 8 20 8 28 2 83 54 109 104 23 43 26 210 3 210 -4 0 -7 4
-5 9 1 4 -12 26 -30 48 -35 44 -94 78 -124 70 -10 -3 -17 -2 -14 3 5 7 -37 9
-83 2z"/>
<path fill="#ffffff" stroke="none" d="M450 4268 c8 -1 21 -9 28 -16 8 -7 18
-9 24 -6 7 4 8 2 4 -5 -9 -13 12 -43 24 -36 5 3 6 -5 2 -17 -3 -11 -1 -19 4
-16 8 6 14 -32 18 -122 2 -37 -20 -128 -35 -146 -5 -6 -5 -14 -1 -18 4 -4 0
-6 -8 -4 -9 2 -14 -3 -12 -12 2 -8 1 -12 -3 -8 -4 3 -21 1 -38 -6 -62 -25
-117 -8 -156 49 -31 46 -41 95 -35 184 5 99 6 101 17 101 5 0 6 8 3 17 -4 10
-4 15 -1 11 3 -3 22 9 41 26 35 32 66 38 124 24z"/>
<path fill="#000000" stroke="none" d="M342 3663 c-30 -25 -33 -71 -7 -97 14
-13 12 -14 -19 -9 -40 6 -80 -12 -72 -33 4 -10 2 -12 -6 -8 -8 5 -9 -2 -4 -27
8 -43 17 -51 58 -54 36 -3 68 17 68 44 1 14 2 14 10 0 5 -8 5 -31 1 -51 -7
-28 -5 -38 5 -42 20 -8 28 12 12 31 -7 9 -8 14 -2 10 9 -5 10 3 4 29 -6 27 -5
33 4 25 7 -6 15 -8 18 -5 3 3 5 -3 5 -12 -3 -28 48 -42 80 -24 65 36 37 120
-38 120 -28 0 -38 -4 -33 -12 5 -7 3 -8 -6 -3 -10 6 -9 11 6 22 30 22 29 67
-2 92 -33 26 -55 27 -82 4z"/>
<path fill="#000000" stroke="none" d="M1506 2849 c-56 -15 -111 -88 -104
-139 2 -16 -1 -27 -8 -27 -28 0 -71 -26 -87 -52 -35 -60 -15 -123 50 -156 31
-15 40 -24 33 -34 -10 -18 3 -54 29 -80 55 -55 -26 -199 -140 -250 -21 -10
-36 -21 -31 -26 4 -5 2 -5 -4 -2 -12 7 -108 -26 -100 -34 3 -3 -3 -5 -12 -5
-9 0 -84 -22 -167 -48 -82 -26 -155 -49 -161 -51 -7 -2 0 -36 21 -97 31 -89
34 -93 61 -91 16 1 59 3 96 5 38 2 68 6 68 9 0 3 18 4 41 2 22 -2 47 1 54 7 9
8 15 8 20 0 3 -6 10 -8 14 -6 4 3 44 6 89 8 48 1 78 6 75 12 -4 5 -1 6 7 1 7
-4 38 -7 69 -6 72 2 187 1 278 -2 47 -2 69 1 65 8 -3 5 1 4 10 -3 10 -8 33
-12 58 -9 22 2 43 0 47 -6 3 -5 9 -3 14 4 5 8 9 10 9 4 0 -9 85 -17 208 -19
28 -1 52 -5 52 -11 0 -5 5 -3 10 5 5 8 10 11 10 5 0 -14 58 -17 66 -3 4 6 3 8
-4 4 -6 -3 -4 7 4 24 9 16 12 35 8 41 -5 8 -3 9 6 4 10 -6 12 -4 7 8 -4 10 -2
17 4 17 6 0 8 7 5 16 -3 8 -2 12 4 9 6 -3 10 0 11 7 0 7 2 23 5 35 2 13 1 22
-4 22 -4 -1 -9 0 -12 1 -3 1 -13 3 -24 5 -10 2 -91 28 -180 57 -88 29 -167 52
-173 52 -7 -1 -10 2 -7 7 3 5 1 9 -5 9 -6 0 -35 11 -64 25 -74 35 -143 105
-158 158 -16 59 -17 97 -4 97 24 0 47 38 44 72 -2 22 1 32 9 31 7 -2 12 2 12
8 0 5 5 7 10 4 6 -3 13 1 16 9 3 9 9 14 14 11 9 -5 31 40 37 79 3 18 1 26 -6
22 -7 -5 -8 -1 -5 9 11 27 -60 84 -96 77 -3 0 -6 15 -7 33 -2 91 -96 158 -187
134z"/>
<path fill="#ffffff" stroke="none" d="M1590 2689 c0 3 5 -2 11 -12 6 -9 16
-14 22 -11 7 4 9 3 4 -1 -4 -5 0 -19 9 -33 9 -13 12 -22 8 -19 -5 3 -9 -8 -10
-24 -1 -32 -29 -69 -51 -69 -8 0 -12 -4 -9 -9 4 -5 -8 -6 -27 -1 -51 12 -63
19 -77 44 -14 26 -7 99 9 104 6 2 8 9 5 14 -4 6 -2 8 3 5 6 -4 16 -1 22 7 8
10 21 12 46 6 19 -4 35 -5 35 -1z"/>
<path fill="#ffffff" stroke="none" d="M1581 2423 c10 -11 10 -14 2 -9 -8 4
-13 1 -13 -8 0 -19 -45 -22 -56 -4 -5 7 -3 8 6 3 9 -5 11 -4 6 3 -19 31 32 44
55 15z"/>
<path fill="#000000" stroke="none" d="M2807 1133 c-3 -3 -4 -10 -2 -16 10
-30 12 -77 4 -83 -5 -3 -9 1 -9 9 0 43 -75 62 -110 27 -21 -21 -29 -77 -8 -64
7 5 8 3 4 -5 -11 -17 22 -40 57 -41 16 0 26 4 23 8 -3 5 1 9 9 9 10 0 12 -4 5
-12 -5 -7 -6 -16 -2 -20 4 -5 1 -5 -5 -1 -8 4 -13 1 -14 -8 -1 -9 -2 -22 -3
-28 -7 -41 51 -81 81 -57 15 12 16 12 8 -1 -4 -8 2 -5 14 8 12 12 19 27 15 34
-4 7 -3 8 5 4 8 -5 10 0 7 16 -7 40 -18 58 -29 51 -6 -4 -7 -1 -2 6 5 9 10 10
18 2 16 -16 60 -14 51 2 -5 7 -1 7 12 -3 10 -8 16 -11 12 -6 -4 5 -1 15 7 23
36 36 4 103 -49 103 -34 0 -62 -20 -48 -35 4 -5 2 -5 -5 -1 -6 3 -14 -1 -16
-11 -3 -10 -4 5 -3 34 1 33 -2 54 -10 57 -7 3 -14 2 -17 -1z"/>
<path fill="#000000" stroke="none" d="M2580 779 c0 -5 9 -9 20 -9 12 0 35 -8
53 -17 18 -9 37 -16 42 -14 6 1 7 -1 3 -5 -5 -4 4 -22 18 -41 l25 -33 -24 -9
c-39 -15 -96 -70 -118 -114 -39 -76 -30 -186 22 -261 20 -30 82 -78 85 -66 0
3 8 -1 17 -9 9 -7 24 -11 32 -7 8 3 15 2 15 -2 0 -8 38 -7 75 2 33 7 85 37 85
47 0 6 5 7 12 3 8 -5 9 -2 5 10 -4 9 -3 15 2 12 12 -8 34 21 26 34 -4 6 -1 9
7 8 8 -2 18 18 27 57 27 112 -12 211 -107 270 -27 16 -77 49 -111 72 -78 52
-211 98 -211 72z"/>
<path fill="#ffffff" stroke="none" d="M2868 628 c6 -1 10 -3 8 -6 -8 -7 28
-41 37 -35 6 3 7 1 4 -4 -4 -6 0 -27 8 -46 21 -51 15 -201 -10 -247 -10 -19
-18 -38 -17 -42 1 -5 -4 -7 -11 -5 -6 1 -11 -3 -10 -10 2 -8 -4 -10 -14 -6 -9
4 -14 2 -11 -3 5 -8 -44 -11 -94 -6 -60 7 -113 115 -108 222 1 30 3 67 4 82 0
14 4 24 8 21 5 -2 8 2 8 9 0 19 43 66 71 78 13 5 44 7 69 5 25 -3 51 -6 58 -7z"/>
</g>
</svg>
