<?xml version="1.0" standalone="no"?>
<!DOCTYPE svg PUBLIC "-//W3C//DTD SVG 20010904//EN"
 "http://www.w3.org/TR/2001/REC-SVG-20010904/DTD/svg10.dtd">
<svg version="1.0" xmlns="http://www.w3.org/2000/svg"
 width="318.000000pt" height="450.000000pt" viewBox="0 0 318.000000 450.000000"
 preserveAspectRatio="xMidYMid meet">
<metadata>
Created by potrace 1.16, written by Peter Selinger 2001-2019
</metadata>
<g transform="translate(0.000000,450.000000) scale(0.100000,-0.100000)"
fill="#000000" stroke="none">
<path fill="#000000" stroke="none" d="M251 4290 c-8 -6 -41 -90 -41 -105 0
-5 8 2 17 15 10 14 17 28 16 31 -1 3 42 7 97 8 l98 2 -2 -25 c0 -13 -3 -23 -5
-20 -4 3 -121 -344 -121 -359 0 -5 8 -7 18 -5 9 2 16 10 14 16 -1 7 3 12 10
12 6 0 9 3 6 6 -4 3 0 21 8 40 8 19 11 34 8 34 -4 0 -1 7 6 15 6 8 8 20 4 27
-4 7 -3 10 1 5 10 -9 77 193 70 211 -3 7 -1 11 3 8 4 -2 12 7 19 20 8 18 8 22
0 17 -7 -4 -6 1 2 10 7 9 10 17 5 17 -5 0 -2 5 6 10 13 9 13 10 0 11 -48 4
-233 3 -239 -1z"/>
<path fill="#000000" stroke="none" d="M990 3918 c-81 -41 -114 -133 -80 -224
6 -15 15 -22 22 -18 7 5 8 3 3 -6 -5 -9 3 -22 26 -41 40 -33 22 -39 -34 -10
-32 16 -65 19 -135 12 -7 0 -10 -5 -7 -11 3 -5 0 -7 -7 -5 -25 10 -96 -74 -82
-96 4 -8 3 -9 -4 -5 -20 12 -14 -83 8 -128 11 -23 34 -51 52 -63 43 -29 112
-40 135 -22 9 8 14 9 10 2 -5 -8 -1 -8 18 0 14 7 25 16 25 20 0 5 3 6 8 4 4
-2 15 4 25 15 9 10 14 18 11 18 -3 0 2 7 10 16 24 23 31 64 16 88 -12 20 -12
20 7 3 11 -9 23 -14 28 -10 4 5 5 2 1 -5 -4 -7 -2 -20 6 -29 7 -9 9 -14 3 -11
-6 4 -10 -16 -11 -50 0 -53 -4 -87 -18 -153 -6 -25 -5 -26 43 -26 27 1 48 4
46 7 -5 8 -14 56 -20 105 -8 60 -10 69 -19 84 -6 10 -5 12 2 7 8 -5 12 2 12
21 0 27 20 72 20 46 0 -7 -1 -14 -1 -15 -1 -2 8 -22 20 -46 13 -26 26 -40 33
-36 6 4 8 3 4 -4 -6 -10 33 -43 67 -55 13 -5 16 -3 11 6 -6 9 -4 9 7 1 16 -13
71 -16 64 -4 -3 5 4 6 15 3 12 -3 20 0 20 6 0 7 5 9 11 6 22 -14 96 83 85 111
-3 9 -1 12 5 9 6 -4 9 8 8 34 -2 23 -6 41 -11 41 -4 0 -5 7 -2 15 4 8 1 15 -7
15 -7 0 -10 3 -6 6 9 9 -35 55 -73 74 -21 10 -53 16 -80 15 -67 -3 -72 -4 -65
-15 4 -6 -1 -7 -11 -3 -13 5 -15 3 -9 -8 4 -8 5 -11 0 -7 -4 4 -14 3 -22 -3
-7 -6 -13 -10 -14 -8 -6 31 -6 38 1 34 11 -7 41 30 33 40 -5 4 -3 5 4 1 12 -6
24 7 31 34 9 36 10 120 1 120 -6 0 -8 4 -4 9 8 13 -53 81 -84 93 -46 19 -109
17 -151 -4z"/>
<path fill="#000000" stroke="none" d="M2099 3923 c-64 -27 -100 -78 -104
-147 -3 -44 12 -99 25 -91 4 3 7 -3 6 -13 0 -9 5 -16 12 -14 8 1 11 -2 8 -7
-8 -13 21 -34 35 -26 8 5 8 1 -1 -15 -10 -19 -14 -20 -28 -8 -52 43 -140 46
-200 5 -61 -40 -87 -115 -68 -194 9 -41 68 -100 109 -111 41 -11 106 -5 126
11 12 10 13 9 7 -3 -4 -8 1 -5 12 7 11 12 22 19 26 16 3 -4 6 2 6 12 0 10 3
15 7 12 10 -11 36 47 42 94 1 3 7 6 14 6 10 0 13 -21 11 -86 -1 -47 -5 -95 -8
-106 -2 -11 -8 -34 -11 -52 l-7 -32 48 2 c27 1 48 4 47 7 -1 3 -5 20 -9 37 -4
21 -11 30 -18 26 -7 -4 -6 -1 1 9 7 8 10 17 7 20 -3 3 -7 31 -8 61 -2 30 -7
61 -11 68 -5 8 -4 10 3 5 11 -7 18 21 12 49 -1 6 2 6 9 0 9 -9 17 -38 20 -68
1 -5 5 -6 10 -3 5 3 8 -2 7 -12 0 -9 4 -16 11 -15 8 2 10 -4 6 -14 -5 -13 -2
-15 11 -10 9 4 15 3 12 -2 -6 -9 24 -32 57 -44 12 -4 16 -3 11 4 -3 6 3 5 14
-2 17 -11 24 -10 38 2 11 9 15 9 10 2 -4 -7 -2 -13 3 -13 6 0 11 4 11 9 0 5 8
8 17 7 10 -2 29 8 43 21 13 12 28 23 31 23 4 0 15 17 25 38 22 45 28 96 11 85
-7 -4 -6 1 2 10 8 11 9 17 3 17 -6 0 -9 6 -6 13 6 17 -52 97 -71 97 -8 0 -15
5 -15 11 0 5 -4 8 -9 4 -5 -3 -12 -1 -15 4 -12 18 -113 7 -145 -16 -26 -20
-31 -20 -42 -7 -10 12 -10 15 2 12 8 -2 13 3 12 9 -2 7 1 12 6 10 15 -4 51 44
61 82 37 139 -99 260 -231 204z"/>
<path fill="#000000" stroke="none" d="M293 3656 c-22 -19 -25 -27 -19 -60 4
-20 11 -34 15 -32 4 3 8 -1 8 -8 0 -10 -7 -11 -28 -3 -53 20 -99 -35 -75 -90
9 -22 41 -40 61 -34 6 2 15 4 20 5 21 3 35 18 29 28 -4 6 -2 8 4 4 5 -3 13 0
16 6 3 7 4 -10 1 -38 -4 -41 -2 -51 10 -51 12 0 14 11 11 59 -3 35 -1 56 5 52
5 -3 7 -9 4 -14 -11 -18 34 -50 70 -50 28 0 37 5 49 28 18 35 16 55 -9 82 -20
22 -81 29 -69 8 4 -8 2 -8 -7 1 -11 10 -11 15 -1 18 28 10 6 100 -26 104 -4 0
-15 2 -25 4 -10 2 -30 -7 -44 -19z"/>
<path fill="#000000" stroke="none" d="M1042 2636 c-65 -19 -117 -93 -115
-163 1 -55 4 -64 13 -58 6 3 7 -1 4 -9 -4 -10 7 -29 28 -50 47 -47 47 -71 0
-40 -19 13 -42 24 -51 25 -9 1 -28 2 -43 3 -59 6 -168 -74 -154 -111 3 -8 1
-11 -4 -8 -10 6 -14 -25 -10 -75 2 -34 35 -96 49 -92 6 1 10 -1 9 -5 -2 -5 2
-10 7 -12 6 -3 16 -11 24 -18 7 -8 20 -12 28 -9 8 3 11 2 8 -4 -8 -12 36 -9
54 4 11 8 13 8 7 -1 -4 -8 -1 -13 9 -13 9 0 14 4 11 9 -4 5 3 7 14 4 12 -3 20
0 20 6 0 7 4 10 10 6 5 -3 18 3 29 14 11 11 22 16 26 13 4 -4 5 -2 4 3 -2 6 3
21 11 35 14 26 18 39 22 77 1 12 4 20 7 17 18 -18 21 -153 5 -223 -8 -31 -14
-59 -14 -62 0 -3 23 -7 51 -8 32 -1 48 2 44 9 -3 5 -8 20 -11 32 -10 48 -17
94 -17 108 0 8 -5 21 -11 29 -8 11 -8 13 2 7 6 -4 12 -3 12 1 0 5 -6 15 -12
22 -10 11 -10 13 0 7 8 -5 12 0 13 13 4 55 16 64 24 17 4 -20 11 -33 16 -30 5
3 6 -1 4 -8 -7 -17 32 -61 46 -52 5 3 8 0 7 -8 -2 -7 3 -12 10 -10 6 1 12 -3
12 -9 0 -6 7 -8 16 -5 8 3 13 2 9 -3 -3 -5 20 -8 53 -7 43 2 67 9 97 29 22 15
36 27 32 27 -4 0 2 10 13 22 12 13 19 31 16 40 -2 10 -1 18 4 18 4 0 6 15 5
33 -2 17 -3 40 -4 50 0 10 -5 15 -11 12 -5 -3 -7 0 -5 8 7 17 -47 74 -83 88
-59 23 -135 15 -174 -18 -10 -9 -18 -11 -22 -4 -4 5 -2 12 4 16 6 4 8 11 4 16
-3 5 0 8 8 7 7 -2 12 2 11 9 -2 8 4 10 14 6 11 -4 14 -3 9 5 -4 7 -2 12 4 12
6 0 9 4 6 9 -4 5 -1 11 6 13 6 2 12 28 14 59 5 128 -101 211 -224 175z"/>
<path fill="#000000" stroke="none" d="M2111 2636 c-42 -12 -105 -72 -97 -93
4 -9 2 -11 -6 -7 -7 5 -9 0 -6 -14 4 -12 2 -20 -2 -17 -5 3 -8 -14 -6 -38 3
-52 38 -117 74 -140 15 -9 21 -17 14 -17 -7 0 -10 -5 -7 -10 4 -6 -10 1 -31
15 -20 14 -44 25 -53 26 -9 1 -29 2 -45 4 -15 1 -49 -9 -75 -21 -83 -42 -116
-138 -78 -227 9 -22 21 -36 27 -32 6 4 9 1 8 -6 -5 -20 59 -51 111 -54 53 -3
108 16 117 40 3 8 10 13 15 10 11 -8 31 33 23 47 -4 7 -3 8 4 4 8 -5 14 8 18
36 7 42 8 42 17 15 8 -24 11 -26 25 -15 15 12 16 11 4 -4 -8 -10 -16 -46 -18
-80 -2 -35 -6 -74 -9 -88 -20 -83 -21 -79 37 -78 29 0 47 3 40 5 -6 3 -10 8
-8 12 3 4 0 27 -5 52 -15 66 -18 160 -6 186 10 22 11 21 26 -24 10 -29 22 -47
29 -45 8 1 10 -2 7 -8 -9 -14 35 -52 52 -45 9 3 11 0 7 -7 -5 -7 0 -9 14 -6
12 4 20 2 16 -3 -3 -5 19 -7 50 -5 57 4 122 38 110 58 -4 7 -2 8 4 4 14 -8 46
50 38 70 -3 8 -2 14 2 14 4 0 8 14 7 30 0 17 -4 30 -8 30 -5 0 -5 5 -2 10 6
10 -28 65 -55 88 -50 42 -125 48 -188 16 -55 -28 -52 -27 -52 -13 0 16 26 39
35 31 5 -4 5 1 2 11 -4 10 -3 16 2 13 11 -7 44 42 36 54 -3 6 -2 10 4 10 5 0
9 22 7 49 -5 114 -114 190 -225 157z"/>
<path fill="#000000" stroke="none" d="M1544 1961 c-44 -20 -80 -63 -94 -111
-6 -23 -6 -29 3 -23 9 5 9 3 1 -8 -19 -24 6 -116 28 -103 7 5 8 3 3 -5 -7 -12
28 -55 38 -45 2 3 7 -4 10 -15 5 -22 -9 -20 -51 7 -75 48 -191 11 -236 -75
-17 -33 -23 -128 -7 -119 5 4 7 -3 4 -14 -7 -26 76 -109 110 -112 56 -4 112 2
115 11 2 6 8 9 13 5 5 -3 9 0 9 5 0 6 6 10 13 9 6 -2 11 3 9 10 -1 6 4 11 10
10 7 -2 12 3 10 10 -1 6 2 12 6 12 11 0 32 46 32 70 0 33 19 22 26 -15 8 -44
-1 -139 -21 -217 -5 -19 -3 -28 5 -28 6 0 8 5 4 12 -5 7 -3 8 7 2 19 -12 32
-12 48 0 12 9 13 8 7 -3 -6 -9 -5 -12 5 -9 8 3 12 12 11 19 -22 87 -35 252
-20 243 5 -3 8 3 8 12 0 25 8 14 14 -19 7 -39 40 -93 55 -89 7 1 10 -2 6 -7
-7 -13 40 -37 85 -45 38 -6 110 11 110 26 0 5 4 7 9 4 24 -15 81 91 81 149 -1
63 -86 164 -130 152 -11 -3 -18 -1 -14 4 9 14 -63 10 -102 -6 -20 -8 -33 -19
-30 -24 3 -5 -3 -7 -13 -4 -18 5 -39 34 -23 32 21 -3 32 2 26 13 -4 6 -3 8 3
5 5 -3 17 3 26 14 9 10 13 19 9 19 -4 0 -1 4 7 9 17 11 23 102 9 142 -30 86
-146 131 -234 90z"/>
<path fill="#000000" stroke="none" d="M995 1304 c-43 -22 -76 -56 -70 -72 2
-7 0 -10 -5 -7 -12 8 -28 -52 -23 -90 6 -43 24 -86 34 -79 5 3 6 -3 2 -12 -5
-13 -3 -16 10 -11 11 4 14 2 10 -9 -4 -12 7 -19 29 -15 4 0 5 -6 2 -14 -8 -19
-7 -19 -51 5 -21 11 -57 20 -81 20 -46 0 -126 -35 -117 -51 4 -5 1 -8 -5 -7
-23 6 -51 -64 -49 -120 3 -55 31 -118 49 -107 6 4 9 1 8 -6 -6 -27 123 -72
138 -48 3 5 10 7 15 3 6 -3 17 2 25 12 9 11 13 13 9 7 -4 -9 -1 -11 9 -7 9 3
16 10 16 16 0 5 5 6 12 2 8 -5 9 -2 5 10 -4 9 -3 15 2 12 14 -9 48 48 47 80
-1 42 21 33 30 -10 5 -31 0 -114 -11 -166 -2 -14 -7 -35 -9 -47 -3 -13 -1 -25
5 -28 5 -4 9 -2 9 4 0 7 8 7 24 1 17 -6 26 -5 30 3 3 9 5 8 5 -1 1 -7 6 -10
11 -7 6 4 7 12 3 18 -4 7 -8 17 -8 22 0 6 -5 35 -10 65 -5 30 -9 62 -10 70 0
8 -4 21 -9 29 -6 9 -5 12 2 7 6 -4 10 1 10 11 -1 19 18 73 26 73 2 0 2 -10 -2
-22 -4 -16 -2 -19 9 -13 11 6 11 5 3 -4 -14 -15 13 -76 45 -103 29 -24 94 -51
84 -35 -4 7 0 7 10 -2 14 -11 17 -11 17 0 0 11 2 11 10 -1 5 -8 10 -10 10 -3
0 6 9 9 22 5 16 -4 19 -2 13 8 -5 9 -4 11 3 6 35 -21 109 60 117 129 18 140
-131 242 -253 173 -33 -18 -52 -17 -52 3 0 6 4 8 9 5 11 -7 43 29 34 38 -5 4
-3 6 2 4 6 -2 10 1 10 5 0 4 6 11 13 16 14 8 26 103 17 132 -4 11 -11 17 -16
14 -5 -3 -6 0 -3 8 7 19 -39 65 -82 83 -44 18 -102 18 -139 -2z"/>
<path fill="#000000" stroke="none" d="M2095 1306 c-35 -16 -76 -60 -92 -96
-15 -36 -8 -116 13 -148 23 -36 55 -63 65 -56 5 3 6 -2 3 -10 -8 -20 -7 -20
-54 4 -73 37 -163 20 -216 -43 -14 -16 -23 -36 -20 -44 3 -8 1 -11 -4 -8 -11
6 -14 -17 -11 -74 2 -40 28 -94 41 -86 6 3 8 0 5 -7 -3 -7 11 -23 31 -36 20
-13 33 -18 28 -10 -6 11 -5 11 8 0 17 -14 68 -18 103 -9 11 3 23 6 26 6 4 1
22 16 41 34 37 35 56 71 53 103 -1 11 4 21 11 21 7 0 13 -3 12 -6 -2 -25 4
-41 14 -35 7 5 8 3 3 -6 -4 -7 -9 -38 -11 -69 -1 -31 -5 -67 -9 -81 -18 -81
-19 -78 31 -82 l45 -3 -5 30 c-4 16 -9 41 -12 55 -3 14 -6 32 -6 40 0 8 -6 21
-12 29 -8 11 -8 13 0 8 13 -8 12 41 -1 63 -5 9 -4 11 3 6 11 -6 18 20 13 47
-1 5 3 6 9 2 5 -3 10 -13 10 -21 0 -8 4 -12 10 -9 5 3 7 0 4 -9 -12 -31 69
-130 90 -109 3 3 6 1 6 -6 0 -7 6 -11 14 -8 8 3 17 3 20 -1 12 -11 36 -10 36
1 0 7 5 5 10 -3 6 -9 10 -10 10 -3 0 6 9 10 20 8 11 -2 20 0 20 6 0 5 6 8 13
7 6 -2 11 2 10 9 -2 7 3 10 11 7 19 -7 70 79 63 106 -3 11 -1 17 4 14 13 -7 0
65 -17 98 -40 77 -151 110 -232 69 -49 -25 -48 -25 -56 -5 -3 9 -2 12 4 9 17
-10 68 49 78 91 21 81 -2 151 -65 194 -42 29 -124 37 -168 16z"/>
<path fill="#000000" stroke="none" d="M2800 1102 c0 -4 6 -14 13 -21 6 -8 7
-11 2 -8 -7 3 -10 -8 -8 -31 2 -20 0 -31 -3 -24 -3 6 -10 10 -15 7 -5 -4 -6 1
-3 9 7 19 -40 40 -73 31 -33 -8 -55 -55 -40 -85 13 -26 58 -54 67 -42 3 4 14
8 25 10 14 2 16 0 7 -6 -16 -11 -30 -88 -14 -78 8 4 10 2 6 -7 -6 -16 18 -29
58 -32 31 -2 42 7 57 47 8 22 6 32 -11 53 -11 14 -18 29 -14 32 3 4 6 2 6 -4
0 -15 48 -23 54 -9 3 7 5 6 5 -2 2 -22 41 23 47 52 5 30 -33 76 -63 76 -26 0
-65 -30 -60 -44 3 -7 -1 -13 -8 -13 -9 0 -11 12 -9 40 2 21 7 43 10 48 3 5 -4
9 -15 9 -12 0 -21 -4 -21 -8z"/>
<path fill="#000000" stroke="none" d="M2809 685 c-1 -3 -3 -9 -4 -15 -1 -5
-4 -12 -5 -15 -1 -3 -4 -9 -5 -15 -1 -5 -4 -12 -5 -15 -1 -3 -4 -9 -5 -15 -1
-5 -4 -12 -5 -15 -1 -3 -4 -9 -5 -15 -1 -5 -4 -12 -5 -15 -1 -3 -4 -9 -5 -15
-1 -5 -4 -12 -5 -15 -1 -3 -4 -9 -5 -15 -1 -5 -4 -12 -5 -15 -1 -3 -4 -9 -5
-15 -1 -5 -4 -12 -5 -15 -1 -3 -4 -9 -5 -15 -1 -5 -4 -12 -5 -15 -1 -3 -3 -8
-4 -12 -1 -5 -5 -14 -9 -20 -5 -7 -5 -13 -1 -13 3 0 2 -6 -3 -12 -14 -18 -56
-148 -50 -154 9 -9 147 -10 147 -2 0 5 8 5 18 1 9 -5 24 -8 32 -7 8 1 22 2 31
3 10 1 24 22 37 57 l21 56 -30 -28 c-28 -27 -37 -29 -120 -33 l-90 -3 16 38
c9 22 16 41 16 44 -1 3 4 20 10 37 6 18 7 38 3 44 -4 7 -3 9 4 5 13 -8 46 99
36 116 -4 7 -3 8 4 4 7 -4 15 9 22 35 6 23 16 52 20 65 8 20 6 24 -10 24 -11
0 -21 -2 -21 -5z"/>
</g>
</svg>
