<?xml version="1.0" standalone="no"?>
<!DOCTYPE svg PUBLIC "-//W3C//DTD SVG 20010904//EN"
 "http://www.w3.org/TR/2001/REC-SVG-20010904/DTD/svg10.dtd">
<svg version="1.0" xmlns="http://www.w3.org/2000/svg"
 width="318.000000pt" height="450.000000pt" viewBox="0 0 318.000000 450.000000"
 preserveAspectRatio="xMidYMid meet">
<metadata>
Created by potrace 1.16, written by Peter Selinger 2001-2019
</metadata>
<g transform="translate(0.000000,450.000000) scale(0.100000,-0.100000)"
fill="#000000" stroke="none">
<path fill="#000000" stroke="none" d="M1106 3947 c-19 -14 -23 -58 -12 -122
3 -16 8 -46 11 -65 3 -19 12 -63 20 -98 8 -34 17 -77 21 -95 3 -17 7 -39 9
-47 2 -8 4 -21 4 -28 1 -8 6 -10 14 -6 9 5 9 4 0 -6 -28 -30 27 -66 64 -42 14
9 13 309 -1 331 -6 9 -5 12 2 8 10 -7 9 27 -4 111 -9 61 -81 94 -128 59z"/>
<path fill="#000000" stroke="none" d="M1756 3674 c-25 -24 -34 -46 -41 -94
-3 -25 -8 -56 -10 -70 -2 -14 -7 -58 -10 -97 -3 -40 -8 -82 -10 -93 -2 -12 4
-29 15 -40 24 -24 44 -26 36 -4 -5 14 -4 15 8 5 12 -10 16 -8 21 8 3 12 3 25
0 31 -3 5 -1 10 6 10 7 0 9 10 7 25 -3 13 -2 23 2 20 3 -2 12 19 20 48 7 29
16 57 20 62 4 6 6 18 5 28 -2 9 0 17 5 17 5 0 7 11 6 25 -2 13 1 22 5 19 16
-9 10 71 -7 94 -18 26 -56 29 -78 6z"/>
<path fill="#000000" stroke="none" d="M2457 3662 c7 -4 11 -24 10 -44 -1 -20
-6 -33 -11 -30 -5 3 -7 -5 -4 -16 4 -12 3 -20 -1 -18 -4 3 -13 -15 -19 -40 -9
-33 -17 -44 -32 -44 -13 0 -18 5 -14 15 6 15 -7 21 -19 9 -13 -13 7 -34 33
-34 31 0 56 23 44 41 -4 8 -3 9 4 5 8 -5 12 0 12 13 0 11 5 23 10 26 6 4 8 10
5 15 -3 5 -1 11 4 15 5 3 8 14 6 25 -2 11 1 20 6 20 6 0 7 5 4 10 -3 6 4 10
17 11 19 0 17 3 -12 14 -39 15 -61 19 -43 7z"/>
<path fill="#000000" stroke="none" d="M2424 3407 c-35 -20 -47 -39 -47 -73 0
-79 80 -120 136 -71 69 59 -10 188 -89 144z"/>
<path fill="#ffffff" stroke="none" d="M2486 3385 c4 -8 9 -13 13 -11 3 2 7
-17 9 -44 3 -49 -14 -80 -44 -80 -20 0 -54 37 -54 58 0 10 -6 24 -12 31 -10
11 -10 13 0 7 8 -5 12 -1 12 11 0 11 5 24 12 31 17 17 57 15 64 -3z"/>
<path fill="#000000" stroke="none" d="M417 3180 c-29 -23 -35 -57 -16 -91 5
-11 14 -17 19 -14 6 4 7 -2 3 -12 -3 -10 -3 -15 1 -11 5 4 18 -2 29 -13 12
-11 28 -17 36 -14 9 3 12 3 9 -1 -8 -7 98 -67 120 -67 6 0 12 -5 12 -10 0 -5
7 -6 16 -3 8 3 12 2 9 -4 -3 -6 1 -11 9 -11 29 -3 34 -4 42 -11 11 -12 21 -10
38 8 15 14 15 18 -1 45 -21 35 -153 155 -166 151 -5 -1 -6 1 -3 6 6 11 -30 45
-59 57 -42 17 -72 16 -98 -5z"/>
<path fill="#000000" stroke="none" d="M2398 3152 c10 -7 11 -22 6 -58 -4 -27
-8 -59 -8 -70 -1 -13 -6 -20 -13 -17 -7 3 -13 1 -13 -4 0 -5 11 -10 25 -11 21
-1 25 2 25 27 0 16 8 35 17 42 11 10 14 10 9 2 -4 -7 -2 -13 3 -13 6 0 11 -7
11 -16 0 -8 4 -12 10 -9 7 4 7 -3 0 -19 -7 -19 -6 -26 3 -26 6 0 23 -3 37 -6
14 -3 20 -2 14 3 -5 4 -22 29 -36 54 l-25 47 29 26 c17 14 35 26 41 26 20 0 0
11 -29 16 -18 3 -24 1 -16 -4 10 -7 6 -15 -14 -35 -15 -15 -33 -27 -40 -27
-12 0 -12 5 0 33 7 17 19 31 25 29 7 -1 10 1 7 6 -2 4 -22 9 -43 10 -24 1 -33
-1 -25 -6z"/>
<path fill="#000000" stroke="none" d="M1670 2904 c-46 -19 -81 -71 -82 -122
0 -48 14 -79 54 -113 l31 -26 -36 -68 c-20 -37 -33 -73 -30 -79 3 -6 3 -8 -2
-4 -5 5 -23 -14 -41 -41 -18 -26 -46 -59 -63 -73 -16 -14 -28 -28 -25 -30 2
-3 -15 -4 -39 -3 -33 1 -68 15 -148 60 -125 72 -160 76 -229 29 -45 -30 -46
-30 -70 -12 -87 64 -220 -5 -220 -114 0 -22 4 -37 9 -34 5 4 7 -2 4 -12 -5
-20 52 -86 67 -77 6 4 10 2 10 -3 0 -5 21 -9 48 -7 63 3 64 3 57 15 -3 6 1 7
9 4 9 -4 18 1 22 10 3 9 9 14 14 11 11 -7 44 71 37 89 -8 21 12 33 53 32 81
-2 114 -64 110 -206 -3 -135 -5 -158 -12 -153 -5 2 -8 -1 -8 -6 0 -11 10 -13
57 -14 12 -1 20 -5 17 -9 -3 -4 6 -9 20 -9 26 -1 41 -4 51 -9 3 -1 13 -3 23
-4 9 -1 23 -5 31 -10 11 -7 12 -6 6 5 -8 12 -6 12 8 1 9 -8 21 -11 27 -7 5 3
10 2 10 -4 0 -5 11 -8 25 -6 14 1 25 -2 25 -8 0 -5 8 -3 17 4 11 10 14 10 9 2
-7 -13 3 -16 47 -16 9 0 17 -3 17 -6 0 -4 10 -8 23 -8 27 -2 49 -7 62 -14 6
-4 20 -5 33 -4 12 1 22 -2 22 -6 0 -6 77 -20 115 -21 6 0 19 -5 29 -10 16 -9
18 -7 13 11 -3 12 -1 19 4 15 8 -4 13 24 12 63 -1 7 4 10 10 6 6 -4 8 2 4 16
-3 13 -3 20 0 17 3 -3 20 22 37 57 16 34 36 68 43 75 7 7 13 18 13 23 0 5 6 8
13 6 6 -1 11 3 10 9 -1 8 17 11 52 11 29 -1 52 -5 49 -9 -5 -7 10 -12 28 -9 4
0 4 -9 2 -22 -13 -55 -16 -109 -5 -103 7 4 9 1 5 -8 -7 -20 14 -58 28 -50 6 4
8 3 5 -3 -14 -23 65 -56 92 -39 10 6 12 5 7 -2 -4 -7 -2 -12 3 -12 6 0 11 4
11 10 0 5 7 6 17 3 11 -4 14 -3 9 5 -5 8 -2 10 8 6 22 -8 79 54 73 78 -3 10
-1 16 4 12 15 -9 1 84 -17 111 -9 14 -30 33 -46 41 -30 15 -104 22 -115 10 -3
-3 -21 16 -39 43 -43 64 -72 85 -93 68 -10 -8 -13 -8 -8 0 7 12 -2 12 -168 -2
-44 -3 -86 -8 -93 -10 -8 -3 -10 0 -6 7 5 8 1 9 -12 4 -10 -4 -15 -4 -11 0 3
4 -6 18 -21 32 -15 13 -21 21 -15 18 9 -5 11 -2 7 8 -3 9 -9 14 -13 12 -4 -3
-7 3 -8 12 0 9 -3 27 -6 38 -11 43 -18 100 -22 181 -5 81 -5 83 17 84 13 1 26
1 31 0 4 0 7 4 7 9 0 5 6 9 13 8 6 -2 11 3 9 10 -1 8 2 11 7 8 12 -8 34 20 26
33 -3 6 0 9 7 6 19 -8 27 58 14 113 -16 66 -114 107 -186 76z"/>
<path fill="#000000" stroke="none" d="M2425 2886 c-34 -11 -52 -22 -42 -24 9
-2 17 -8 17 -13 0 -6 4 -8 9 -5 5 4 7 -4 3 -16 -3 -13 -1 -19 5 -15 7 5 9 -1
5 -15 -3 -11 -1 -19 4 -16 11 7 12 -42 1 -59 -10 -16 5 -17 21 -1 7 7 12 9 12
5 0 -3 18 0 39 8 22 7 42 11 45 8 3 -3 3 5 1 17 -5 29 -15 39 -15 16 0 -20
-47 -41 -64 -27 -16 14 -19 61 -3 61 7 0 18 -5 25 -12 9 -9 12 -9 12 0 0 7 -5
12 -11 12 -5 0 -8 4 -5 8 2 4 1 14 -5 22 -7 13 -9 12 -9 -1 0 -26 -27 -31 -34
-6 -3 12 -6 27 -6 34 0 17 39 26 55 13 16 -13 20 -3 7 16 -5 8 -25 5 -67 -10z"/>
<path fill="#000000" stroke="none" d="M2409 2642 c9 -7 11 -21 7 -48 -11 -73
-16 -89 -33 -101 -13 -10 -14 -13 -2 -14 8 0 28 -3 44 -5 26 -5 28 -4 13 8
-12 9 -15 22 -11 41 5 28 17 35 28 17 4 -6 10 -8 14 -6 4 3 5 -10 4 -27 -5
-45 7 -60 38 -47 17 8 19 10 4 7 -16 -3 -20 2 -21 22 0 14 -2 35 -5 46 -2 12
1 19 8 18 18 -4 28 44 13 61 -6 8 -26 18 -43 21 -18 4 -41 9 -52 11 -15 4 -16
3 -6 -4z"/>
<path fill="#ffffff" stroke="none" d="M2494 2605 c3 -8 -3 -24 -13 -36 -17
-21 -18 -21 -35 -3 -12 11 -15 19 -7 22 6 2 11 12 11 22 0 21 35 17 44 -5z"/>
<path fill="#000000" stroke="none" d="M663 1983 c-7 -3 -13 -9 -13 -14 0 -4
8 -5 17 -2 12 5 15 2 11 -8 -8 -20 10 -62 22 -54 8 5 7 12 -2 23 -7 9 -8 13
-2 9 7 -4 10 2 7 18 -5 25 -20 35 -40 28z"/>
<path fill="#000000" stroke="none" d="M733 1958 c13 -10 17 -21 12 -39 -5
-20 -13 -26 -36 -26 -34 0 -48 -10 -54 -41 -5 -28 35 -56 70 -50 13 3 22 1 19
-3 -3 -5 2 -9 11 -9 12 0 14 4 5 19 -7 13 -7 28 0 45 5 14 7 26 5 26 -3 0 2
16 10 37 8 20 14 37 13 38 -2 2 -19 6 -38 10 -31 6 -33 5 -17 -7z"/>
<path fill="#ffffff" stroke="none" d="M732 1851 c2 -17 1 -28 -4 -25 -4 3 -8
0 -8 -5 0 -15 -18 -14 -34 1 -10 10 -11 19 -3 35 15 33 44 29 49 -6z"/>
<path fill="#000000" stroke="none" d="M1172 1868 c-49 -24 -43 -124 9 -131 8
-2 19 -6 25 -9 6 -4 28 -8 48 -10 21 -1 40 -6 42 -10 8 -13 26 -9 18 5 -4 6 3
3 16 -8 14 -12 20 -14 15 -5 -7 12 -6 13 6 4 8 -6 24 -10 36 -9 12 1 20 -2 17
-6 -2 -4 4 -8 13 -7 10 0 27 -2 38 -5 44 -11 161 -37 180 -40 11 -1 26 -7 34
-11 11 -7 12 -6 6 5 -7 11 -6 12 6 3 24 -18 51 -26 43 -11 -6 8 -3 8 9 -1 9
-8 21 -11 27 -7 5 3 10 1 10 -6 0 -8 5 -7 17 2 14 12 15 12 9 0 -11 -17 31 -5
57 17 34 30 8 120 -36 123 -7 0 -19 2 -27 4 -45 12 -89 19 -117 20 -17 0 -29
3 -27 6 5 9 -25 16 -63 15 -17 -1 -29 2 -26 7 2 4 -4 7 -14 8 -10 0 -25 2 -33
4 -15 4 -40 9 -90 20 -14 3 -36 8 -50 11 -14 3 -36 7 -50 10 -14 3 -32 7 -40
9 -39 12 -87 13 -108 3z"/>
<path fill="#000000" stroke="none" d="M2509 1739 c-10 -19 15 -54 32 -44 5 4
9 2 9 -3 0 -6 7 -13 16 -16 10 -4 13 -2 8 7 -4 6 1 5 12 -4 22 -18 112 -46
168 -53 21 -3 41 -7 44 -10 3 -3 12 0 20 7 13 10 14 9 8 -1 -6 -9 -1 -11 18
-8 46 8 66 17 61 26 -3 5 -1 11 5 15 15 9 3 57 -17 69 -21 12 -33 15 -93 22
-88 10 -105 10 -119 0 -11 -8 -13 -8 -8 1 9 15 -32 14 -52 -1 -11 -8 -13 -8
-8 0 4 8 -10 11 -44 10 -37 0 -53 -5 -60 -17z"/>
<path fill="#000000" stroke="none" d="M690 1710 c-45 -14 -55 -22 -57 -41 -3
-24 -3 -24 8 -2 23 44 79 35 79 -13 0 -25 -24 -34 -33 -11 -4 8 -5 7 -6 -3 0
-8 4 -24 9 -35 7 -17 9 -17 9 -2 1 21 41 24 41 3 0 -8 3 -21 6 -29 7 -19 -42
-32 -61 -17 -11 9 -12 7 -8 -9 3 -12 6 -21 7 -21 13 0 103 35 111 43 7 7 7 8
0 5 -11 -6 -28 10 -33 30 -1 7 -8 33 -14 58 -11 38 -10 47 2 54 21 14 3 11
-60 -10z"/>
<path fill="#000000" stroke="none" d="M650 1458 c0 -4 4 -8 8 -8 4 0 18 -21
30 -46 l23 -46 -26 -20 c-14 -11 -23 -24 -20 -29 4 -5 -2 -6 -11 -2 -12 4 -15
3 -10 -5 4 -7 15 -12 26 -12 14 0 17 5 12 22 -3 13 -1 19 5 15 6 -4 13 0 16 7
9 22 44 39 53 24 4 -7 3 -8 -4 -4 -8 5 -12 0 -12 -13 0 -28 -11 -52 -21 -45
-5 3 -9 0 -9 -5 0 -6 10 -11 23 -12 12 0 31 -2 41 -4 17 -3 17 -2 4 11 -12 12
-13 26 -6 70 5 30 6 60 2 65 -3 5 -2 9 3 8 4 -1 14 -1 22 0 24 2 5 12 -31 17
-18 3 -28 1 -23 -3 6 -4 10 -14 9 -20 -1 -7 -2 -19 -3 -27 0 -8 -9 -17 -18
-20 -10 -4 -14 -4 -10 0 3 4 -3 19 -13 35 -15 20 -17 30 -9 35 8 5 9 3 4 -6
-5 -9 -4 -11 4 -6 6 4 9 11 6 16 -7 11 -65 19 -65 8z"/>
<path fill="#000000" stroke="none" d="M659 1171 c-31 -31 -35 -53 -19 -96 6
-16 14 -23 22 -19 7 4 8 3 4 -4 -10 -16 38 -34 69 -26 50 13 76 73 54 127 -22
53 -86 62 -130 18z"/>
<path fill="#ffffff" stroke="none" d="M739 1171 c11 -11 21 -18 23 -15 3 2 4
-20 4 -48 -1 -45 -4 -54 -26 -65 -15 -7 -28 -9 -36 -3 -6 6 -15 6 -19 2 -5 -4
-5 -2 -1 5 3 6 2 14 -3 17 -18 12 -23 77 -6 102 19 29 38 31 64 5z"/>
<path fill="#000000" stroke="none" d="M1966 1125 c-21 -21 3 -83 27 -68 6 3
7 1 3 -6 -10 -15 13 -43 27 -34 6 3 7 1 3 -6 -10 -15 13 -43 28 -34 6 3 8 3 4
-2 -11 -11 31 -67 44 -59 7 4 8 2 4 -5 -9 -14 12 -43 25 -35 5 3 8 1 7 -4 -5
-14 83 -133 93 -126 5 3 9 2 8 -3 -4 -18 15 -44 46 -63 37 -23 70 -27 59 -7
-5 8 -2 8 9 -2 11 -9 17 -10 17 -2 0 6 6 11 14 11 18 0 24 8 31 49 4 24 2 31
-6 25 -8 -4 -9 -3 -5 4 8 14 -32 71 -84 121 -257 246 -314 286 -354 246z"/>
<path fill="#000000" stroke="none" d="M736 965 c-9 -9 -26 -50 -37 -91 -16
-52 -27 -74 -38 -74 -11 -1 -8 -5 9 -15 35 -20 60 -20 34 1 -10 8 -13 12 -6 9
8 -4 12 -2 11 6 -1 8 0 21 4 29 17 47 26 83 21 91 -3 5 0 9 7 9 7 0 9 3 6 7
-9 9 12 33 29 33 8 0 14 -7 14 -15 0 -8 5 -15 11 -15 6 0 9 8 7 18 -4 23 -51
28 -72 7z"/>
<path fill="#000000" stroke="none" d="M1323 968 c-18 -21 -55 -156 -47 -169
4 -7 3 -9 -3 -6 -8 5 -30 -57 -39 -110 -4 -21 29 -52 59 -57 47 -8 76 29 76
97 -1 31 2 61 6 67 4 6 1 18 -7 27 -10 13 -10 15 0 9 10 -6 12 9 10 71 -3 70
-5 78 -24 81 -11 2 -26 -3 -31 -10z"/>
</g>
</svg>
