<?xml version="1.0" standalone="no"?>
<!DOCTYPE svg PUBLIC "-//W3C//DTD SVG 20010904//EN"
 "http://www.w3.org/TR/2001/REC-SVG-20010904/DTD/svg10.dtd">
<svg version="1.0" xmlns="http://www.w3.org/2000/svg"
 width="318.000000pt" height="450.000000pt" viewBox="0 0 318.000000 450.000000"
 preserveAspectRatio="xMidYMid meet">
<metadata>
Created by potrace 1.16, written by Peter Selinger 2001-2019
</metadata>
<g transform="translate(0.000000,450.000000) scale(0.100000,-0.100000)"
fill="#000000" stroke="none">
<path fill="#000000" stroke="none" d="M298 4282 c-24 -14 -58 -61 -58 -79 0
-4 13 6 28 22 34 37 79 40 116 7 49 -42 18 -131 -51 -148 -41 -11 -28 -21 35
-26 6 -1 12 -6 12 -11 0 -5 7 -7 15 -3 8 3 14 2 13 -2 -1 -4 5 -20 14 -37 19
-36 16 -89 -6 -114 -16 -18 -101 -47 -91 -31 7 12 -74 35 -86 23 -11 -11 -1
-45 12 -37 5 3 9 1 9 -4 0 -13 82 -11 99 2 11 8 13 8 7 -1 -5 -9 -2 -11 8 -7
9 3 13 10 10 15 -3 5 2 6 10 3 10 -4 16 -1 16 7 0 7 3 10 6 6 9 -9 54 43 60
69 3 13 3 28 -2 35 -4 8 -3 9 4 5 7 -4 10 3 7 23 -5 39 -19 65 -50 89 -14 11
-25 26 -25 33 0 7 3 9 7 6 11 -12 43 47 43 80 0 50 -38 86 -92 89 -26 1 -55
-5 -70 -14z"/>
<path fill="#000000" stroke="none" d="M1565 4000 c-61 -13 -131 -70 -120 -98
3 -8 0 -10 -7 -6 -7 5 -9 0 -6 -14 4 -14 2 -20 -4 -16 -13 8 -5 -69 10 -108
14 -34 52 -69 66 -61 6 3 8 3 4 -2 -4 -4 -4 -13 2 -19 6 -8 3 -12 -11 -13 -10
-1 -19 3 -19 9 0 5 -7 7 -16 4 -8 -3 -13 -2 -9 3 7 12 -49 26 -93 23 -90 -5
-167 -98 -155 -191 6 -43 35 -97 52 -93 6 1 10 -4 9 -10 -5 -23 119 -68 137
-50 7 7 12 8 39 11 42 4 117 118 102 156 -11 30 6 14 19 -18 8 -20 12 -55 10
-89 -4 -55 -6 -68 -20 -134 l-7 -32 46 1 46 1 -6 35 c-4 20 -12 42 -18 50 -9
12 -8 13 3 6 10 -6 12 -4 6 5 -14 23 -14 144 0 164 12 15 14 13 20 -23 8 -50
55 -102 111 -124 23 -9 43 -14 45 -12 2 2 19 5 37 8 18 3 40 11 49 19 14 11
16 11 8 -2 -8 -13 -6 -13 8 -1 9 7 14 17 11 22 -3 5 -2 8 3 7 12 -4 53 34 47
44 -3 4 -1 8 3 8 8 0 13 19 15 65 2 43 -2 66 -12 60 -5 -3 -7 0 -4 8 13 35
-102 118 -153 111 -7 -1 -25 -2 -39 -3 -16 -1 -23 -5 -18 -13 4 -7 3 -8 -4 -4
-6 4 -23 -1 -37 -10 -14 -9 -28 -14 -31 -12 -8 8 7 38 17 33 12 -8 61 74 55
91 -3 8 -1 12 4 9 6 -3 8 15 6 46 -2 29 -10 55 -18 60 -7 5 -13 12 -13 16 0 4
-3 7 -7 6 -4 -2 -5 3 -2 10 3 8 -12 25 -36 41 -22 14 -40 24 -40 22 0 -3 -12
-1 -27 3 -16 4 -41 5 -58 1z"/>
<path fill="#000000" stroke="none" d="M304 3655 c-17 -17 -23 -32 -20 -50 6
-31 15 -47 25 -41 4 3 8 -2 8 -10 0 -10 -4 -11 -11 -4 -16 16 -71 12 -89 -8
-29 -32 -13 -110 19 -98 9 3 12 1 9 -4 -3 -6 5 -10 19 -10 14 0 26 5 26 12 0
6 3 9 6 5 11 -10 36 23 30 39 -4 9 -2 12 5 8 6 -4 9 -26 7 -55 -4 -43 -2 -49
14 -49 11 0 17 4 13 10 -9 15 -13 100 -3 94 4 -3 8 -12 8 -20 0 -9 5 -12 12
-8 6 4 8 3 4 -4 -14 -23 47 -40 72 -20 13 11 15 10 8 -2 -4 -8 2 -4 13 10 55
66 -13 139 -92 99 -22 -11 -22 -11 1 10 12 12 22 25 23 29 0 4 2 15 4 24 5 26
-29 63 -59 66 -18 1 -36 -7 -52 -23z"/>
<path fill="#000000" stroke="none" d="M1514 2646 c-67 -37 -113 -134 -85
-179 9 -13 9 -17 1 -12 -6 4 -2 -12 10 -34 11 -23 25 -39 31 -36 5 4 8 2 7 -4
-2 -5 6 -16 17 -24 32 -24 10 -31 -32 -11 -21 10 -53 20 -72 22 -48 5 -117
-24 -147 -63 -28 -38 -50 -100 -31 -88 9 5 9 3 2 -8 -6 -8 -10 -21 -9 -29 1
-8 2 -21 3 -28 0 -7 5 -11 10 -8 5 4 7 -2 5 -11 -5 -19 49 -87 60 -76 3 3 6 1
6 -6 0 -8 6 -11 16 -7 8 3 13 2 10 -3 -9 -14 31 -20 45 -7 9 8 10 8 6 0 -10
-18 61 -10 83 9 10 8 20 13 23 11 8 -8 68 67 62 77 -4 5 -1 9 4 9 6 0 10 3 10
8 -1 4 -1 18 0 32 2 24 2 24 13 5 14 -23 17 -186 4 -178 -5 3 -7 -8 -4 -25 2
-17 1 -29 -4 -26 -4 3 -8 -5 -8 -18 0 -17 6 -24 20 -25 13 -1 18 2 13 10 -4 7
0 6 10 -2 14 -11 17 -11 17 0 0 9 3 10 8 4 9 -13 35 -18 27 -5 -6 9 -9 23 -21
79 -3 13 -6 50 -8 82 -2 31 -7 62 -11 69 -5 9 -4 11 3 6 8 -5 12 0 12 13 0 12
5 21 10 21 6 0 10 -9 10 -21 0 -11 4 -18 9 -15 5 4 7 -3 4 -14 -7 -26 69 -105
92 -96 9 3 14 2 11 -3 -9 -14 31 -20 45 -7 9 8 10 8 4 -3 -7 -11 -2 -13 25 -8
18 4 37 7 42 7 5 0 7 4 4 9 -3 5 2 8 12 7 9 0 16 4 15 11 -2 8 4 10 14 6 12
-5 15 -2 10 10 -4 12 -2 14 10 10 13 -5 15 -2 10 11 -4 10 -3 15 3 11 11 -7
27 28 35 76 4 23 2 29 -7 23 -9 -6 -9 -3 1 9 8 11 9 17 3 17 -7 0 -9 7 -5 17
5 12 3 14 -7 8 -9 -5 -11 -4 -6 4 12 18 -34 72 -78 92 -53 24 -102 24 -151 -1
-22 -11 -47 -18 -55 -14 -12 5 -10 8 8 15 14 5 20 13 16 20 -4 7 -3 9 3 6 14
-9 37 19 27 34 -4 7 -3 9 3 6 13 -8 27 39 17 55 -4 7 -3 8 4 4 31 -19 0 97
-36 137 -49 54 -144 69 -208 33z"/>
<path fill="#000000" stroke="none" d="M1551 1318 c-74 -20 -122 -79 -126
-156 -3 -49 17 -109 35 -104 6 1 8 -2 5 -9 -7 -10 33 -46 46 -42 3 1 6 -4 6
-11 0 -6 -11 -12 -23 -12 -12 0 -21 3 -18 7 7 12 -78 36 -115 32 -86 -8 -155
-85 -154 -175 1 -51 31 -115 52 -110 7 1 10 -2 7 -7 -7 -11 18 -33 27 -24 4 3
7 2 7 -4 0 -6 7 -14 16 -17 10 -4 13 -2 8 7 -5 8 -2 7 9 -2 24 -19 110 -8 144
19 35 27 66 79 59 97 -4 9 -2 11 6 7 7 -5 9 0 6 14 -4 12 0 23 8 26 9 3 11 0
7 -11 -4 -10 -2 -14 4 -10 7 5 9 -1 5 -15 -4 -16 -2 -19 8 -13 9 6 11 4 5 -5
-5 -8 -10 -37 -11 -64 -2 -28 -7 -71 -13 -96 -17 -71 -16 -71 38 -69 47 2 49
3 40 26 -14 37 -20 73 -24 135 -1 31 -6 62 -11 69 -5 8 -3 10 6 4 10 -6 12 -2
8 17 -3 16 0 25 9 25 7 0 13 -7 13 -16 0 -9 9 -34 19 -57 20 -43 82 -91 102
-78 8 5 9 3 4 -6 -6 -10 -3 -12 13 -8 12 4 22 2 22 -2 0 -5 14 -5 30 0 17 5
30 7 30 4 0 -10 57 32 87 64 20 22 30 42 28 58 -1 13 2 24 8 24 5 0 3 8 -4 17
-12 14 -12 15 0 9 15 -10 10 14 -15 75 -34 79 -152 116 -235 73 -18 -9 -27
-20 -23 -27 5 -9 3 -9 -6 0 -15 14 -23 46 -11 38 9 -5 40 27 67 70 14 22 15
27 4 20 -12 -7 -13 -6 -4 6 13 15 16 68 6 84 -4 6 -7 12 -8 15 -15 77 -117
130 -203 108z"/>
<path fill="#000000" stroke="none" d="M2817 1114 c-3 -3 -1 -19 3 -37 4 -18
3 -41 -1 -52 -6 -16 -8 -17 -8 -3 -1 22 -39 48 -68 48 -31 0 -63 -34 -63 -66
0 -16 4 -23 12 -18 7 4 8 3 4 -5 -14 -22 15 -42 55 -40 21 2 42 -1 46 -6 4 -4
3 -5 -4 -1 -14 8 -30 -19 -29 -50 1 -30 34 -64 63 -64 13 0 21 4 18 10 -4 6 1
7 11 3 13 -5 16 -3 11 10 -4 12 -2 14 10 10 13 -5 15 -2 10 11 -4 10 -3 15 3
11 18 -11 4 37 -17 59 -19 20 -20 22 -3 22 10 0 16 -4 14 -8 -8 -13 51 -9 70
5 27 20 30 73 6 97 -39 39 -122 10 -106 -37 6 -17 5 -17 -8 0 -9 12 -11 29 -6
57 5 28 3 40 -5 44 -7 2 -15 2 -18 0z"/>
<path fill="#000000" stroke="none" d="M2823 689 c-23 -4 -53 -15 -67 -24 -32
-21 -59 -62 -50 -77 5 -7 3 -8 -6 -3 -10 6 -12 -4 -8 -49 5 -59 38 -112 65
-102 12 5 14 -13 3 -24 -3 -3 -16 -18 -28 -34 -22 -28 -31 -93 -12 -81 5 3 7
0 4 -8 -6 -16 43 -60 57 -51 5 3 9 1 9 -5 0 -6 6 -8 13 -6 6 2 25 7 40 9 35 6
59 25 50 39 -3 6 -1 7 5 3 6 -3 16 2 21 13 19 35 12 40 -18 12 -35 -33 -80
-38 -108 -12 -11 11 -23 17 -26 14 -3 -3 -3 5 0 18 5 17 3 20 -8 14 -12 -8
-12 -6 -1 8 8 9 12 22 10 29 -3 7 1 19 9 26 7 8 10 18 7 24 -4 6 -2 8 4 4 6
-3 18 2 28 11 10 10 19 17 21 16 2 -2 11 -3 21 -2 9 0 -2 6 -26 14 -24 7 -52
21 -62 30 -31 28 -42 103 -19 131 5 6 5 15 1 19 -4 5 -1 5 6 1 7 -4 15 -1 18
7 3 9 13 13 26 9 16 -4 19 -2 13 9 -8 12 -6 12 8 0 9 -7 17 -11 17 -7 0 4 10
0 23 -9 13 -8 27 -12 30 -8 4 3 7 1 7 -5 0 -7 5 -12 11 -12 5 0 7 4 4 10 -3 5
0 7 9 4 11 -4 14 0 13 15 -1 14 -10 24 -27 27 -14 3 -29 7 -35 8 -5 1 -29 -1
-52 -5z"/>
</g>
</svg>
