<?xml version="1.0" standalone="no"?>
<!DOCTYPE svg PUBLIC "-//W3C//DTD SVG 20010904//EN"
 "http://www.w3.org/TR/2001/REC-SVG-20010904/DTD/svg10.dtd">
<svg version="1.0" xmlns="http://www.w3.org/2000/svg"
 width="318.000000pt" height="450.000000pt" viewBox="0 0 318.000000 450.000000"
 preserveAspectRatio="xMidYMid meet">
<metadata>
Created by potrace 1.16, written by Peter Selinger 2001-2019
</metadata>
<g transform="translate(0.000000,450.000000) scale(0.100000,-0.100000)"
fill="#000000" stroke="none">
<path fill="#000000" stroke="none" d="M155 4246 c17 -7 32 -12 35 -11 10 6
-1 -389 -12 -402 -6 -7 -19 -13 -29 -13 -11 0 -19 -3 -19 -7 0 -5 11 -8 25 -8
14 0 25 4 25 8 0 5 5 5 12 1 15 -10 128 -11 128 -1 0 4 -9 7 -19 7 -11 0 -23
5 -26 10 -4 6 -10 8 -14 6 -4 -3 -7 5 -6 17 1 12 -3 28 -9 36 -8 11 -8 13 2 7
14 -8 12 19 -2 43 -6 10 -5 12 2 7 16 -10 15 7 0 23 -10 11 -10 13 0 7 16 -9
16 6 0 23 -11 11 -10 12 1 6 11 -6 13 -4 8 8 -12 32 8 17 76 -54 40 -42 72
-67 79 -63 6 4 8 3 4 -4 -3 -6 0 -16 7 -24 20 -19 18 -32 -6 -45 -26 -14 -28
-14 106 -16 96 -2 122 5 70 18 -40 10 -77 39 -175 138 -58 59 -92 86 -100 81
-10 -6 -10 -4 0 9 8 9 11 21 8 26 -4 5 -1 13 5 17 8 4 9 3 5 -4 -17 -28 10 -7
84 67 44 43 95 83 113 89 27 8 18 10 -58 10 -53 0 -82 -3 -70 -7 21 -8 30 -61
10 -58 -5 1 -9 -4 -8 -10 2 -7 -3 -12 -10 -10 -6 1 -11 -4 -10 -10 2 -7 -3
-12 -10 -10 -6 1 -11 -4 -10 -10 2 -7 -3 -12 -10 -10 -6 1 -11 -5 -9 -13 2 -8
0 -12 -4 -7 -4 4 -27 -11 -50 -34 -31 -30 -42 -37 -40 -23 2 10 -2 25 -8 33
-8 11 -8 13 2 7 14 -8 12 19 -2 43 -6 9 -5 12 1 8 7 -4 11 5 11 26 -1 60 1 66
35 76 25 7 11 9 -68 10 -91 0 -97 -1 -70 -13z"/>
<path fill="#000000" stroke="none" d="M272 3683 c-12 -10 -22 -25 -23 -33 -3
-31 1 -51 11 -45 6 3 7 -1 4 -9 -4 -10 -1 -16 7 -16 7 0 10 -2 7 -5 -3 -3 -16
-1 -29 4 -58 21 -109 -48 -71 -98 33 -44 121 -27 108 22 -3 13 -2 17 5 10 14
-14 17 -43 8 -75 -5 -19 -3 -28 7 -32 20 -8 22 3 15 60 -5 37 -4 51 5 51 7 0
10 -7 6 -15 -3 -10 -1 -13 6 -8 8 4 10 2 6 -8 -6 -17 24 -36 56 -36 13 0 19 4
14 12 -4 7 -3 8 5 4 14 -9 35 12 43 42 4 15 -1 31 -15 48 -23 26 -49 32 -82
18 -17 -7 -18 -6 -8 8 7 8 9 19 5 23 -4 5 -2 5 4 2 7 -4 11 5 12 23 0 17 -4
30 -10 30 -6 0 -8 3 -5 7 10 9 -25 32 -49 33 -12 0 -31 -8 -42 -17z"/>
<path fill="#000000" stroke="none" d="M1335 2920 c-72 -15 -125 -73 -127
-137 -2 -62 1 -85 11 -79 5 3 8 -2 7 -12 0 -9 4 -16 11 -15 7 2 10 -3 7 -11
-5 -13 36 -46 62 -50 7 -1 17 -6 21 -11 4 -4 3 -5 -3 -2 -13 8 -29 -68 -18
-85 4 -6 3 -9 -2 -5 -5 3 -22 -53 -38 -124 -16 -71 -32 -129 -37 -129 -4 0
-16 10 -26 23 -56 72 -128 145 -137 140 -5 -4 0 8 13 26 13 17 20 38 17 46 -3
8 -2 15 3 15 11 0 11 28 0 73 -6 23 -14 35 -21 31 -7 -4 -8 -3 -4 5 8 13 -22
44 -64 66 -34 17 -110 12 -147 -10 -61 -36 -91 -127 -65 -195 20 -52 84 -99
129 -95 12 1 20 -1 18 -5 -7 -12 31 -101 40 -93 4 5 5 3 1 -4 -10 -17 4 -64
17 -56 5 3 7 2 4 -4 -8 -13 14 -84 24 -77 5 3 7 -1 4 -8 -6 -16 49 -171 57
-162 4 3 4 -4 1 -17 -5 -17 -3 -20 7 -14 8 5 11 4 6 -3 -4 -6 0 -26 7 -44 11
-27 20 -33 45 -34 20 -1 29 2 25 9 -4 6 -1 7 8 2 21 -13 129 -14 122 -1 -4 6
2 4 12 -4 17 -13 18 -13 10 0 -6 12 -5 13 6 3 7 -7 17 -13 22 -13 4 0 5 6 1
13 -5 7 0 6 11 -3 17 -13 18 -13 10 0 -6 12 -5 13 6 3 16 -16 33 -17 23 -1 -5
7 -3 8 7 2 19 -12 109 -12 102 0 -4 5 -1 6 7 1 17 -11 141 -14 134 -4 -2 4 0
11 6 14 6 4 9 1 8 -6 -2 -6 3 -14 11 -17 10 -3 11 0 5 9 -6 11 -3 10 11 -1 17
-13 18 -13 10 0 -6 12 -5 13 6 3 15 -15 33 -18 25 -5 -3 5 1 9 9 9 8 0 12 -4
9 -9 -3 -4 2 -8 11 -8 10 0 13 5 9 13 -5 7 0 6 11 -3 17 -13 18 -13 10 0 -6
12 -5 13 6 3 16 -16 33 -17 23 -1 -5 7 -3 8 7 2 23 -14 51 -16 43 -2 -5 7 -3
8 6 3 17 -10 91 -15 85 -5 -2 4 2 7 10 7 8 0 12 -4 9 -9 -3 -4 2 -8 11 -8 10
0 13 5 9 13 -5 8 -2 8 9 -2 12 -9 17 -10 17 -2 0 7 4 10 9 7 5 -3 12 6 16 22
12 43 13 45 30 90 8 24 12 48 9 54 -4 6 -2 8 4 5 12 -8 65 140 55 156 -4 6 -1
7 7 2 10 -6 12 -3 8 13 -4 14 -2 20 5 15 6 -4 8 0 4 10 -3 10 -3 17 1 17 4 0
16 27 26 59 17 54 22 60 53 66 21 4 31 10 27 17 -4 7 -2 8 5 4 14 -9 43 12 35
25 -3 5 0 8 7 7 16 -4 38 40 44 84 5 38 -11 95 -34 122 -53 60 -157 69 -219
18 -20 -16 -36 -37 -36 -46 1 -9 -2 -13 -7 -10 -5 3 -9 4 -10 2 -10 -64 -9
-96 6 -135 l17 -45 -29 -31 c-71 -77 -108 -120 -106 -126 1 -4 -6 -7 -16 -8
-10 -1 -18 4 -18 10 -1 14 -6 40 -23 112 -6 28 -14 61 -17 75 -3 14 -6 30 -7
35 -2 6 -6 27 -11 48 -4 20 -11 40 -17 43 -11 7 9 34 26 34 28 0 94 98 81 120
-3 5 -1 11 5 15 6 4 8 11 4 16 -3 5 -8 22 -10 36 -3 15 -11 31 -17 35 -7 4 -8
8 -3 8 15 0 -45 51 -73 62 -37 14 -95 12 -128 -5 -103 -54 -119 -190 -33 -267
17 -14 16 -20 -11 -88 -16 -41 -26 -79 -23 -85 4 -7 3 -9 -1 -4 -11 9 -77
-161 -68 -176 3 -6 1 -7 -5 -3 -7 4 -12 1 -13 -6 0 -12 -14 14 -19 37 -1 6 -7
19 -13 30 -6 11 -12 25 -13 30 -1 6 -8 24 -15 40 -7 17 -13 32 -14 35 -8 32
-30 78 -36 74 -4 -2 -5 5 -2 16 3 11 0 20 -6 20 -5 0 -8 7 -5 15 4 8 2 15 -3
15 -5 0 -9 13 -9 29 0 22 3 28 15 23 9 -3 13 -2 9 2 -3 4 2 16 13 27 11 11 17
24 14 29 -4 6 -1 10 4 10 16 0 13 85 -3 124 -24 58 -107 100 -171 86z"/>
<path fill="#000000" stroke="none" d="M1125 1657 c0 -101 2 -113 18 -114 10
-1 15 3 11 9 -5 7 -2 8 7 3 21 -14 100 -14 92 -1 -3 6 0 5 8 -1 16 -16 33 -17
23 -1 -5 7 -3 8 7 2 19 -12 82 -12 91 1 5 6 8 5 8 -2 0 -7 5 -13 11 -13 5 0 7
6 3 13 -6 10 -4 10 7 0 16 -16 33 -17 23 -1 -5 7 -3 8 7 2 19 -12 33 -12 41 1
5 6 8 6 8 -2 0 -7 5 -13 11 -13 5 0 7 6 3 13 -6 10 -4 10 7 0 7 -7 17 -13 22
-13 4 0 5 6 1 13 -5 7 0 6 11 -3 15 -12 17 -12 10 -1 -6 11 -5 12 6 5 19 -12
32 -12 48 0 9 7 12 7 9 1 -4 -6 15 -10 47 -11 35 0 52 4 47 10 -3 6 1 5 9 -1
12 -10 18 -10 29 0 7 6 10 7 7 2 -3 -7 8 -11 28 -11 18 0 31 5 28 10 -4 5 -1
6 8 0 23 -14 51 -16 43 -2 -5 7 -3 8 7 2 18 -11 101 -13 116 -2 6 5 14 5 18
-2 3 -5 11 -10 16 -10 6 0 7 6 3 13 -5 8 -2 8 9 -2 18 -15 19 -14 19 89 0 22
-1 60 -1 85 l-1 45 -463 0 -462 0 0 -113z"/>
<path fill="#000000" stroke="none" d="M2783 1089 c3 -27 1 -49 -4 -47 -5 2
-10 8 -11 13 -2 17 -32 34 -60 35 -51 0 -79 -56 -52 -104 13 -22 74 -32 86
-14 5 9 8 8 8 -4 0 -10 -4 -18 -9 -18 -16 0 -18 -43 -4 -72 16 -32 48 -45 70
-26 14 11 16 11 9 -2 -5 -8 2 -4 16 10 25 25 29 57 14 92 -5 10 -13 15 -19 11
-6 -3 -7 -1 -3 6 6 9 11 9 21 1 14 -11 77 -11 69 1 -2 4 3 9 11 13 22 8 19 69
-3 89 -10 10 -33 17 -50 17 -25 0 -37 -7 -53 -32 l-21 -33 5 52 c3 38 0 53
-10 57 -11 5 -13 -4 -10 -45z"/>
<path fill="#000000" stroke="none" d="M2540 661 c0 -6 9 -8 20 -6 11 2 20 0
20 -6 0 -5 6 -9 13 -9 8 0 58 -44 113 -98 99 -97 148 -151 128 -139 -13 8
-107 -86 -97 -97 5 -4 1 -6 -7 -4 -9 2 -14 -3 -12 -12 2 -8 0 -12 -4 -8 -4 4
-20 -4 -36 -17 -16 -14 -40 -28 -54 -31 -13 -3 -24 -9 -24 -13 0 -10 62 -7 79
3 10 6 12 5 7 -2 -4 -7 -1 -12 9 -12 10 0 13 5 9 12 -5 7 -3 8 7 2 18 -11 60
-13 53 -2 -3 4 -11 8 -19 8 -24 0 -27 20 -9 48 10 15 17 30 16 34 -1 5 4 7 11
5 6 -1 11 4 10 10 -2 7 3 12 10 10 6 -1 11 4 10 11 -2 6 3 11 10 10 6 -2 11 2
10 9 -2 7 3 10 11 7 16 -6 40 21 31 35 -3 7 0 8 9 5 9 -3 16 -1 16 5 0 6 5 11
11 11 7 0 9 -31 7 -92 l-3 -93 -35 -12 c-19 -7 -33 -12 -30 -13 36 -10 50 -9
44 2 -6 10 -4 10 7 2 16 -12 29 -12 46 -1 6 4 14 3 18 -3 3 -5 11 -10 16 -10
6 0 7 5 3 12 -5 7 -3 8 7 2 19 -11 59 -13 59 -2 0 4 -11 8 -24 8 -14 0 -28 5
-31 10 -4 6 -11 7 -17 4 -7 -5 -8 -2 -3 6 11 18 12 189 1 183 -5 -4 -6 0 -1 7
10 16 10 93 1 109 -4 6 -1 11 6 11 9 0 9 3 -2 10 -8 5 -10 10 -4 10 5 0 9 14
8 30 -2 31 7 42 40 47 50 8 20 13 -75 12 -57 0 -97 -3 -89 -6 58 -19 58 -19
58 -124 l0 -98 -89 90 c-53 53 -89 98 -89 110 0 11 4 18 9 14 5 -3 12 -1 16 5
4 6 -30 10 -99 10 -60 0 -106 -4 -106 -9z"/>
</g>
</svg>
