<?xml version="1.0" standalone="no"?>
<!DOCTYPE svg PUBLIC "-//W3C//DTD SVG 20010904//EN"
 "http://www.w3.org/TR/2001/REC-SVG-20010904/DTD/svg10.dtd">
<svg version="1.0" xmlns="http://www.w3.org/2000/svg"
 width="317.000000pt" height="450.000000pt" viewBox="0 0 317.000000 450.000000"
 preserveAspectRatio="xMidYMid meet">
<metadata>
Created by potrace 1.16, written by Peter Selinger 2001-2019
</metadata>
<g transform="translate(0.000000,450.000000) scale(0.100000,-0.100000)"
fill="#000000" stroke="none">
<path fill="#000000" stroke="none" d="M434 4295 c-37 -15 -87 -73 -80 -92 4
-9 1 -11 -6 -7 -7 5 -9 0 -6 -14 4 -12 2 -20 -3 -16 -9 5 -11 -7 -13 -101 -2
-62 13 -127 27 -118 6 3 7 1 3 -5 -17 -28 58 -113 85 -96 8 5 9 3 4 -5 -5 -10
2 -11 29 -7 46 7 89 35 82 52 -3 8 0 11 10 7 8 -3 14 -2 12 3 -1 5 3 19 10 31
6 12 13 30 15 40 1 10 5 23 8 28 4 6 5 45 4 87 -2 60 -8 89 -28 130 -37 75
-96 107 -153 83z"/>
<path fill="#ffffff" stroke="none" d="M506 4269 c6 -5 14 -6 18 -2 4 4 4 -1
0 -11 -4 -12 -4 -17 2 -13 13 7 14 -5 19 -149 5 -138 -7 -197 -45 -225 -29
-22 -66 -16 -75 12 -4 11 -11 16 -17 13 -6 -4 -8 -3 -5 2 3 6 1 30 -5 55 -19
76 -8 246 18 287 8 12 12 28 8 34 -4 6 -3 8 4 4 6 -3 13 -2 16 3 6 10 44 4 62
-10z"/>
<path fill="#000000" stroke="none" d="M177 4274 c-27 -14 -47 -28 -44 -30 3
-3 14 -1 24 4 35 19 42 -14 42 -202 0 -177 -2 -187 -37 -192 -41 -7 -13 -12
63 -12 55 -1 83 3 79 9 -3 6 -8 8 -11 5 -3 -3 -14 -1 -24 4 -16 9 -18 27 -16
225 2 243 7 232 -76 189z"/>
<path fill="#000000" stroke="none" d="M878 3939 c-20 -10 -46 -35 -59 -55
-27 -45 -37 -118 -18 -141 12 -14 12 -16 1 -9 -12 7 -12 4 -2 -15 19 -36 42
-59 52 -53 4 3 7 0 6 -8 -2 -7 3 -12 10 -10 8 1 12 -3 10 -10 -3 -7 -14 -14
-26 -14 -12 -1 -19 2 -17 7 8 12 -61 31 -102 28 -21 -1 -50 -9 -65 -16 -37
-18 -79 -65 -73 -81 3 -8 0 -10 -7 -6 -7 5 -9 0 -6 -14 4 -12 2 -20 -3 -16 -5
3 -9 -11 -9 -31 0 -26 4 -34 13 -29 9 5 9 4 0 -6 -27 -30 53 -124 117 -137 40
-8 92 -6 100 5 3 4 11 8 18 10 46 9 101 83 88 117 -3 9 -2 13 4 10 6 -3 10 1
10 9 0 8 3 17 8 19 13 9 18 -119 7 -180 -4 -21 -8 -50 -9 -65 0 -14 -4 -24 -8
-21 -5 2 -8 0 -8 -5 0 -12 48 -20 76 -12 15 3 20 11 17 25 -14 72 -17 97 -17
155 -1 36 3 74 8 84 7 15 6 17 -4 11 -9 -5 -11 -4 -6 4 12 19 26 2 26 -30 0
-20 4 -28 12 -23 7 4 8 3 4 -5 -18 -28 50 -95 109 -108 6 -1 20 -4 33 -7 12
-3 22 -1 22 3 0 5 11 7 25 6 14 -2 27 1 31 6 3 5 10 6 16 3 8 -5 9 -1 5 10 -4
10 -3 15 4 11 5 -4 17 -1 25 6 24 20 56 89 51 110 -3 10 0 20 7 23 7 3 7 5 -2
5 -7 1 -10 6 -7 12 8 12 -12 67 -34 93 -47 54 -148 71 -214 36 -21 -11 -43
-18 -49 -14 -6 4 0 13 16 21 19 10 26 20 21 31 -3 9 -3 13 1 9 9 -9 35 13 28
24 -3 5 -1 9 5 9 5 0 8 11 6 25 -1 14 2 25 8 25 5 0 3 8 -4 17 -12 14 -12 15
0 9 10 -7 12 -3 6 15 -28 94 -88 147 -170 147 -30 0 -66 -8 -87 -19z"/>
<path fill="#000000" stroke="none" d="M2125 3946 c-66 -30 -112 -111 -101
-181 8 -48 23 -74 60 -107 38 -33 28 -47 -16 -21 -40 23 -106 29 -153 13 -40
-13 -99 -76 -91 -97 3 -8 1 -11 -4 -8 -11 7 -14 -18 -11 -75 6 -99 113 -176
206 -148 17 5 35 10 42 12 31 6 86 82 90 125 1 13 7 29 13 35 8 8 9 6 4 -8 -4
-11 -3 -17 2 -14 5 4 9 -15 9 -40 0 -26 4 -53 10 -61 7 -11 7 -13 -2 -8 -7 5
-11 1 -11 -10 1 -17 -3 -43 -17 -114 -5 -26 -3 -27 41 -31 25 -2 47 -2 49 0 1
2 -3 23 -10 47 -8 24 -11 46 -8 49 4 3 2 6 -3 6 -5 0 -9 16 -9 35 1 19 -3 35
-9 35 -7 0 -7 3 -1 8 6 4 11 23 13 42 5 63 6 69 13 64 4 -2 10 -21 14 -41 8
-47 32 -86 47 -77 6 4 8 3 5 -3 -7 -12 10 -30 33 -35 8 -2 17 -6 20 -9 8 -10
71 -19 65 -10 -3 5 4 7 15 4 11 -3 28 1 37 8 14 12 16 12 8 0 -5 -8 6 -5 23 8
18 12 32 27 32 32 0 6 4 8 9 5 10 -7 40 59 45 99 2 17 -1 44 -5 60 -12 41 -68
108 -86 101 -9 -4 -11 -2 -7 6 5 7 0 9 -14 6 -12 -4 -20 -2 -16 3 9 16 -85 10
-119 -7 -18 -9 -34 -20 -37 -24 -3 -4 -11 -2 -18 6 -7 8 -8 14 -3 14 15 0 62
46 54 53 -3 4 -1 7 6 7 8 0 11 6 7 16 -3 8 -2 13 3 9 12 -7 23 62 16 98 -20
103 -143 166 -240 123z"/>
<path fill="#000000" stroke="none" d="M271 3675 c-23 -30 -20 -73 7 -94 15
-12 14 -12 -8 -5 -39 12 -63 7 -82 -17 -24 -28 -23 -64 3 -87 22 -21 73 -28
62 -8 -4 6 2 4 13 -4 10 -8 16 -11 12 -6 -4 4 -2 13 3 20 5 6 16 20 23 31 12
17 13 15 9 -20 -2 -22 -5 -50 -8 -61 -2 -16 1 -21 13 -19 16 2 19 13 12 40 -1
6 -2 26 -1 45 l1 35 18 -35 c13 -27 24 -36 47 -38 39 -4 67 17 71 53 5 54 -36
92 -83 74 -14 -5 -25 -4 -29 3 -4 6 -3 8 3 5 12 -7 24 15 28 47 3 27 -38 66
-69 66 -14 0 -33 -10 -45 -25z"/>
<path fill="#000000" stroke="none" d="M1504 3475 c-40 -17 -68 -44 -89 -84
-20 -40 -22 -105 -3 -129 11 -13 11 -14 0 -8 -8 5 -3 -8 10 -28 13 -20 29 -34
36 -31 7 3 11 1 8 -4 -6 -8 17 -33 25 -28 2 1 1 -2 -3 -7 -5 -6 -23 -3 -45 8
-81 39 -145 32 -204 -21 -23 -21 -38 -42 -35 -50 3 -8 2 -12 -3 -9 -11 7 -21
-28 -21 -72 0 -24 3 -31 13 -26 8 5 8 2 -2 -9 -12 -15 -9 -21 11 -18 4 0 5 -6
1 -14 -6 -18 25 -57 39 -49 4 3 7 0 6 -8 -2 -7 5 -12 14 -12 10 1 16 -2 13 -6
-9 -14 41 -29 55 -17 10 9 11 9 6 -1 -5 -9 1 -12 23 -10 17 1 31 5 31 8 0 3 9
6 19 7 48 4 108 76 113 136 1 13 7 24 14 24 12 0 12 -180 0 -224 -13 -49 -14
-63 -5 -63 5 0 9 6 9 13 0 9 3 8 9 -2 6 -9 11 -10 15 -2 4 6 13 8 19 4 35 -22
41 -7 21 55 -4 13 -9 54 -18 140 -2 17 1 32 7 32 5 0 3 8 -4 17 -10 11 -10 14
-1 9 8 -5 12 -1 12 10 0 21 9 13 14 -12 9 -43 26 -75 38 -68 7 4 8 3 4 -5 -9
-15 20 -44 35 -35 8 4 9 3 5 -4 -17 -29 98 -49 152 -27 47 20 105 82 99 106
-3 11 -1 16 4 13 6 -3 9 15 8 45 -2 28 -6 51 -11 51 -4 0 -7 3 -6 8 8 28 -24
64 -88 98 -41 22 -185 0 -170 -25 4 -5 -2 -7 -12 -4 -10 2 -19 11 -19 18 0 8
4 12 7 10 20 -12 90 96 82 126 0 4 -2 23 -4 43 -1 20 -6 36 -11 36 -4 0 -6 4
-3 8 7 12 -45 67 -80 84 -36 18 -101 20 -140 3z"/>
<path fill="#000000" stroke="none" d="M885 3070 c-55 -28 -87 -78 -93 -147
-3 -37 -1 -54 6 -49 6 3 8 -1 5 -12 -5 -22 34 -75 49 -66 7 4 8 2 4 -4 -3 -6
1 -15 10 -20 10 -5 14 -14 9 -21 -5 -9 -12 -8 -25 4 -11 10 -24 14 -31 9 -8
-5 -10 -3 -4 6 6 10 1 12 -18 8 -16 -3 -24 -1 -20 5 9 15 -95 1 -122 -17 -74
-49 -101 -143 -64 -225 12 -27 23 -40 30 -35 7 4 9 3 6 -3 -8 -13 9 -28 57
-48 28 -12 36 -13 30 -3 -5 10 -4 11 7 1 15 -15 53 -18 45 -4 -4 5 2 7 12 4
45 -11 141 83 129 127 -3 13 -1 18 6 13 7 -4 8 0 4 13 -7 18 -6 18 6 2 8 -10
16 -16 18 -14 2 3 4 -31 4 -74 0 -43 -4 -76 -9 -73 -5 3 -7 0 -4 -8 3 -8 -1
-33 -8 -56 -7 -24 -12 -43 -11 -44 9 -4 97 -4 97 1 0 3 -5 22 -11 42 -15 55
-27 208 -15 201 6 -4 6 1 2 13 -4 10 -4 15 0 11 4 -4 13 1 21 11 13 16 13 15
4 -4 -7 -15 -5 -31 9 -62 18 -41 50 -82 50 -66 0 4 6 0 13 -11 9 -11 19 -15
27 -10 9 5 11 4 6 -3 -8 -13 10 -16 79 -14 22 1 41 6 43 12 2 5 7 8 12 5 5 -3
15 2 24 10 8 9 18 16 21 15 3 0 6 3 7 8 0 4 8 12 16 18 9 7 12 16 7 24 -6 9
-4 11 5 5 10 -6 12 -3 8 13 -4 12 -2 20 3 16 13 -7 11 67 -2 104 -6 18 -16 29
-22 25 -6 -3 -7 -1 -3 6 8 13 -22 44 -64 66 -49 25 -158 8 -181 -28 -4 -5 -12
0 -19 13 -7 12 -8 20 -2 16 5 -3 21 3 33 14 13 11 20 19 15 20 -6 0 -2 6 7 13
10 6 20 23 23 37 10 45 11 90 3 90 -5 0 -5 7 -2 17 4 11 3 14 -5 9 -7 -4 -10
-2 -7 7 9 21 -34 67 -79 88 -53 24 -101 24 -151 -1z"/>
<path fill="#000000" stroke="none" d="M2125 3076 c-86 -38 -127 -155 -84
-239 18 -35 41 -57 52 -50 6 4 7 1 2 -7 -6 -10 -4 -12 8 -7 11 4 14 2 10 -9
-7 -18 -18 -18 -48 2 -14 9 -32 14 -40 10 -9 -3 -13 -2 -10 4 10 16 -74 12
-112 -6 -19 -9 -45 -31 -59 -49 -29 -38 -50 -100 -31 -89 9 5 9 4 1 -5 -12
-13 -6 -74 6 -66 5 3 6 -3 3 -13 -5 -20 62 -96 77 -87 5 3 10 1 12 -4 5 -15
78 -23 78 -8 0 8 4 7 10 -3 5 -8 10 -10 10 -4 0 6 10 11 23 10 13 -1 21 4 19
12 -1 8 1 11 5 9 5 -3 19 1 33 9 14 7 21 13 16 14 -6 0 -2 6 8 13 10 7 19 25
19 39 1 14 6 24 11 20 5 -3 7 4 4 16 -4 15 -1 20 11 19 14 -1 16 -14 16 -93 0
-51 -3 -90 -7 -88 -4 3 -7 -4 -7 -13 0 -10 -3 -34 -7 -53 -7 -33 -6 -34 11
-20 11 9 16 10 11 3 -4 -7 -2 -13 3 -13 6 0 11 6 11 13 0 7 3 8 8 2 4 -5 17
-11 29 -11 22 -1 22 15 -1 45 -8 11 -8 13 0 8 12 -7 -1 63 -18 97 -5 10 -6 16
0 12 5 -3 8 10 7 29 -3 43 5 85 15 85 4 0 11 -16 14 -35 8 -41 58 -102 95
-117 42 -16 83 -19 74 -5 -4 7 0 7 10 -2 9 -7 17 -9 17 -4 0 6 10 10 23 9 12
0 21 4 20 11 -2 7 4 10 12 7 18 -7 68 43 61 61 -3 8 0 14 7 12 7 -1 12 10 12
30 0 17 3 29 8 26 12 -8 -2 59 -22 97 -21 41 -78 83 -103 76 -10 -2 -15 0 -12
6 11 17 -79 6 -114 -14 -40 -22 -52 -23 -52 -3 0 8 6 14 13 13 6 -2 11 3 9 10
-1 8 2 11 7 8 12 -8 44 42 35 56 -5 7 -3 8 6 3 10 -6 12 -3 8 13 -4 12 -2 20
3 16 14 -8 4 78 -13 111 -43 82 -140 118 -223 81z"/>
<path fill="#000000" stroke="none" d="M885 2190 c-52 -26 -87 -78 -93 -138
-5 -54 20 -128 39 -116 7 4 9 3 6 -3 -7 -12 26 -46 36 -37 3 3 4 -2 2 -13 -2
-10 -4 -20 -4 -22 -1 -2 -9 2 -18 10 -37 30 -62 37 -114 36 -62 -2 -95 -20
-134 -72 -67 -87 -17 -238 85 -261 43 -9 85 -11 95 -3 6 4 15 9 20 11 6 1 9 6
8 9 -1 3 8 5 19 5 27 -1 78 68 81 110 2 31 22 43 24 15 7 -75 6 -158 -1 -154
-5 3 -7 0 -4 -8 3 -8 -1 -33 -8 -56 -7 -24 -10 -43 -6 -44 41 -6 62 -4 62 5 0
6 4 5 9 -3 17 -26 20 6 6 64 -17 76 -16 212 2 212 7 0 11 -2 9 -4 -8 -8 17
-78 36 -102 10 -14 32 -33 48 -42 30 -19 114 -34 105 -19 -3 4 4 6 15 3 11 -3
27 0 35 7 8 7 15 9 15 4 0 -4 7 1 16 12 8 10 12 13 8 5 -5 -9 -3 -12 4 -7 7 4
12 13 12 19 0 7 9 18 21 25 12 8 18 19 15 28 -3 8 -2 14 3 14 20 0 14 88 -10
137 -25 52 -76 85 -139 91 -52 4 -126 -20 -115 -39 6 -8 2 -8 -13 0 -24 13
-39 33 -19 25 20 -7 87 70 88 104 3 74 -3 102 -31 142 -45 64 -144 86 -215 50z"/>
<path fill="#000000" stroke="none" d="M2130 2199 c-83 -33 -129 -144 -94
-229 18 -43 44 -71 57 -63 6 3 7 1 3 -5 -4 -7 -3 -12 2 -12 6 0 12 -7 15 -14
7 -17 -9 -13 -58 15 -39 22 -111 21 -157 -3 -44 -22 -87 -81 -89 -123 -4 -60
1 -86 13 -79 7 4 8 3 4 -4 -8 -14 10 -51 38 -76 48 -42 125 -52 186 -25 22 10
40 23 40 29 0 6 4 9 9 6 9 -6 26 22 23 37 -1 4 2 7 7 7 5 0 12 16 15 35 7 36
19 44 32 23 4 -7 3 -8 -4 -4 -9 5 -9 1 -3 -16 5 -13 8 -34 7 -48 -1 -14 3 -31
8 -39 8 -11 8 -13 -1 -7 -12 7 -16 -14 -17 -91 0 -12 -4 -19 -8 -17 -4 3 -8
-5 -8 -18 0 -17 6 -24 20 -25 13 -1 18 2 14 9 -5 7 -2 8 7 2 8 -4 24 -9 35
-10 20 -1 21 2 12 30 -5 17 -10 36 -11 41 -2 6 -7 16 -11 24 -6 9 -5 12 2 7 7
-4 8 3 2 24 -5 16 -6 30 -2 30 4 0 0 5 -8 10 -8 5 -10 10 -5 10 6 0 9 15 9 32
-1 18 5 45 13 61 16 32 23 35 16 7 -3 -11 1 -28 8 -37 12 -14 12 -16 -1 -8 -9
6 -6 -4 8 -26 12 -18 27 -33 33 -31 6 1 8 -2 5 -6 -8 -13 25 -41 52 -45 12 -2
25 -6 28 -10 12 -12 26 -8 18 6 -6 10 -4 10 7 0 7 -7 17 -13 22 -13 4 0 5 6 1
13 -5 9 -4 9 6 0 15 -14 43 -6 33 10 -3 6 -1 7 5 3 6 -4 22 -2 34 5 25 13 63
49 52 49 -4 0 0 8 9 18 18 20 25 62 13 81 -7 10 -6 12 4 6 10 -6 12 -4 7 9 -4
10 -7 24 -7 32 0 9 -4 12 -10 9 -5 -3 -7 0 -4 8 8 22 -42 74 -91 92 -51 20
-131 13 -157 -13 -12 -12 -38 -17 -38 -6 0 3 13 17 29 32 39 37 62 87 47 103
-8 9 -8 10 2 5 8 -5 12 1 11 21 -1 42 -14 78 -27 76 -6 -2 -9 3 -6 11 8 21
-64 79 -92 73 -13 -2 -21 0 -18 4 7 12 -65 10 -96 -2z"/>
<path fill="#000000" stroke="none" d="M1537 1772 c-15 -2 -25 -8 -22 -13 3
-5 0 -6 -8 -3 -22 8 -84 -52 -98 -94 -7 -20 -12 -51 -11 -69 2 -46 29 -106 43
-97 8 4 9 3 5 -4 -4 -6 5 -19 19 -28 39 -25 15 -39 -26 -15 -45 26 -158 34
-143 9 4 -7 3 -8 -4 -4 -15 9 -64 -23 -55 -37 3 -6 1 -7 -5 -3 -17 11 -49 -63
-49 -114 0 -25 6 -58 14 -75 17 -33 70 -84 91 -86 14 -2 31 -6 35 -9 9 -7 38
-7 43 1 3 5 10 7 15 3 5 -3 21 2 36 11 17 12 23 13 18 4 -4 -8 9 2 29 22 38
36 70 105 58 124 -4 6 0 3 9 -7 9 -9 20 -14 24 -10 5 4 6 2 2 -3 -3 -6 -7 -42
-8 -80 -1 -39 -8 -92 -16 -120 -16 -62 -16 -60 4 -44 11 9 14 10 9 2 -5 -10 3
-12 32 -11 39 1 39 1 32 34 -4 18 -5 35 -2 38 3 4 1 6 -5 6 -6 0 -9 11 -8 25
2 14 0 27 -4 29 -9 6 -6 80 4 96 5 8 4 11 -3 7 -6 -5 -6 1 1 17 12 26 27 17
27 -17 0 -10 4 -15 10 -12 5 3 7 0 5 -8 -7 -17 33 -69 46 -61 5 3 8 2 7 -3 -2
-4 1 -8 5 -8 4 0 11 -5 15 -12 14 -23 114 -32 137 -13 7 5 15 7 18 3 4 -3 7
-1 7 5 0 7 6 12 13 12 15 0 60 57 60 77 0 7 3 13 7 13 3 0 7 18 9 41 2 50 -30
121 -67 147 -37 26 -95 46 -85 29 5 -9 3 -9 -8 -1 -15 11 -19 11 -67 0 -19 -4
-29 -12 -26 -18 4 -6 2 -8 -4 -4 -6 3 -13 2 -17 -4 -10 -16 -22 -12 -28 10 -3
10 -2 19 2 18 20 -2 31 3 25 14 -4 6 -3 8 3 5 14 -9 46 41 39 59 -3 8 -2 13 3
10 5 -3 11 5 13 19 4 16 1 22 -6 18 -6 -4 -5 1 3 10 7 9 9 17 3 17 -5 0 -8 10
-4 22 4 16 2 19 -8 13 -9 -5 -11 -4 -6 4 9 13 -35 75 -63 91 -27 14 -92 26
-124 22z"/>
<path fill="#000000" stroke="none" d="M906 1335 c-126 -44 -157 -215 -53
-296 11 -9 22 -24 23 -33 2 -14 -1 -14 -24 3 -28 19 -85 37 -112 35 -8 -1 -25
-2 -38 -3 -15 -1 -21 -5 -16 -13 4 -7 3 -8 -4 -4 -34 21 -103 -71 -107 -142
-3 -50 23 -119 43 -115 6 2 9 -4 6 -11 -6 -15 48 -50 60 -39 3 4 6 2 6 -3 0
-6 27 -10 59 -9 47 0 65 5 85 23 14 12 26 19 26 14 0 -4 12 11 25 33 14 22 23
46 20 53 -3 8 0 10 7 6 7 -5 9 -2 5 9 -3 8 0 20 6 26 14 11 15 4 17 -89 1 -30
-2 -71 -6 -90 -4 -19 -7 -47 -8 -62 0 -14 -4 -24 -8 -21 -5 2 -8 0 -8 -6 0 -5
22 -9 50 -8 45 1 49 2 44 22 -3 12 -7 30 -9 41 -2 10 -4 19 -5 19 -6 0 -12
127 -8 166 1 9 11 22 22 29 16 9 18 9 9 0 -14 -15 7 -82 35 -113 24 -27 70
-49 84 -41 6 4 8 3 5 -3 -11 -17 83 -14 120 4 41 19 88 77 79 98 -3 9 -2 13 4
10 15 -9 12 78 -2 94 -10 11 -10 12 -1 7 9 -5 11 -2 7 8 -3 9 -10 16 -16 16
-5 0 -7 4 -4 8 6 10 -38 54 -71 71 -49 25 -135 18 -173 -15 -10 -8 -21 -10
-30 -4 -12 8 -12 10 3 16 9 3 14 11 10 17 -3 5 -2 7 4 4 5 -3 17 2 25 12 12
14 13 22 5 31 -9 8 -8 10 5 5 12 -5 18 1 23 24 3 17 3 36 -1 42 -4 7 -3 9 4 5
7 -4 10 1 9 14 -1 11 -5 20 -10 20 -4 0 -5 4 -2 10 12 19 -33 85 -74 108 -50
28 -96 34 -145 17z"/>
<path fill="#000000" stroke="none" d="M2145 1337 c-79 -26 -126 -95 -120
-177 3 -52 21 -94 35 -85 6 3 7 -1 4 -9 -4 -10 3 -20 19 -27 14 -6 28 -18 31
-26 3 -8 1 -11 -4 -8 -6 3 -10 1 -10 -6 0 -7 -6 -5 -13 6 -9 11 -19 15 -27 10
-9 -5 -11 -4 -6 4 13 20 -71 32 -129 18 -64 -16 -124 -101 -120 -170 3 -44 32
-110 45 -102 6 4 9 1 8 -5 -6 -24 50 -54 104 -55 62 -2 90 4 82 16 -3 5 2 6
10 3 10 -4 16 -1 16 7 0 7 3 10 6 6 16 -16 74 73 74 115 0 17 3 19 12 10 6 -6
11 -41 12 -79 0 -64 -3 -82 -19 -159 l-7 -31 47 -1 c47 -2 47 -2 41 25 -12 55
-16 79 -20 135 -2 31 -8 62 -12 69 -5 8 -3 9 6 4 10 -6 12 -3 8 13 -4 12 -2
20 3 16 5 -3 9 3 10 13 0 10 6 -4 13 -32 7 -31 17 -49 25 -47 7 1 9 -2 6 -9
-9 -14 32 -52 47 -43 7 4 8 3 4 -4 -10 -17 36 -32 86 -28 24 2 49 4 56 5 7 1
10 5 7 11 -3 5 0 7 9 4 36 -14 112 102 90 137 -4 8 -3 9 5 5 8 -5 10 1 6 24
-22 126 -143 190 -253 134 -25 -13 -47 -22 -49 -20 -7 6 9 36 17 31 8 -5 25
24 22 37 -1 5 3 7 10 5 6 -1 17 18 25 43 12 39 11 63 0 117 -6 24 -50 72 -81
87 -42 20 -94 25 -131 13z"/>
<path fill="#000000" stroke="none" d="M2787 1133 c-3 -3 -4 -10 -1 -17 11
-29 10 -83 -3 -83 -6 0 -10 4 -7 9 10 16 -28 48 -58 48 -15 0 -37 -9 -48 -20
-21 -21 -29 -77 -8 -64 7 4 8 3 4 -5 -12 -19 13 -41 46 -41 16 0 27 4 24 8 -2
4 4 8 14 8 17 0 17 -2 5 -16 -21 -23 -25 -65 -8 -89 8 -12 19 -19 24 -16 5 4
9 1 9 -4 0 -6 7 -11 16 -11 9 0 12 5 8 13 -5 9 -4 9 6 0 10 -9 17 -8 31 5 25
24 30 66 12 92 -8 12 -12 24 -9 27 3 4 6 1 6 -5 0 -18 71 -8 86 13 32 44 1
105 -54 105 -30 0 -62 -26 -62 -51 0 -11 -2 -11 -9 -1 -4 7 -5 31 -1 52 5 28
3 40 -5 44 -7 2 -15 2 -18 -1z"/>
<path fill="#000000" stroke="none" d="M2615 672 c-37 -23 -69 -68 -59 -84 5
-7 3 -8 -6 -3 -10 6 -12 3 -8 -13 4 -12 2 -20 -3 -16 -5 3 -10 -6 -10 -20 -5
-95 -4 -113 5 -125 8 -11 8 -13 0 -8 -9 5 -10 -3 -3 -31 5 -20 9 -41 9 -45 0
-5 4 -5 10 -2 5 3 7 0 5 -8 -7 -17 33 -69 47 -61 7 4 8 2 4 -4 -15 -24 62 -42
104 -24 42 18 96 92 85 119 -3 9 0 11 6 7 8 -5 10 4 7 29 -2 20 0 33 4 31 4
-3 8 13 8 36 0 30 -3 39 -12 34 -10 -5 -10 -4 -2 5 22 24 -23 141 -69 180 -28
22 -89 24 -122 3z"/>
<path fill="#ffffff" stroke="none" d="M2683 666 c-4 -5 3 -7 15 -4 16 4 19 2
15 -10 -4 -10 -2 -13 6 -8 6 4 11 4 10 -1 -5 -20 14 -82 24 -76 6 3 7 1 3 -6
-4 -6 -8 -54 -8 -105 0 -147 -26 -216 -83 -216 -48 0 -75 75 -75 206 0 100 14
171 42 204 19 24 64 38 51 16z"/>
<path fill="#000000" stroke="none" d="M2855 666 c17 -7 34 -11 39 -8 5 3 6 0
2 -7 -8 -12 -8 -422 -1 -430 9 -8 54 22 48 32 -3 6 -1 7 5 3 6 -4 24 0 39 8
l28 16 -36 -4 -37 -4 2 164 c0 101 -3 166 -9 168 -5 3 -5 5 2 5 7 1 10 8 7 16
-7 16 13 48 25 41 4 -3 13 -1 21 5 10 5 -17 9 -75 8 -83 0 -88 -1 -60 -13z"/>
</g>
</svg>
