<?xml version="1.0" standalone="no"?>
<!DOCTYPE svg PUBLIC "-//W3C//DTD SVG 20010904//EN"
 "http://www.w3.org/TR/2001/REC-SVG-20010904/DTD/svg10.dtd">
<svg version="1.0" xmlns="http://www.w3.org/2000/svg"
 width="318.000000pt" height="450.000000pt" viewBox="0 0 318.000000 450.000000"
 preserveAspectRatio="xMidYMid meet">
<metadata>
Created by potrace 1.16, written by Peter Selinger 2001-2019
</metadata>
<g transform="translate(0.000000,450.000000) scale(0.100000,-0.100000)"
fill="#000000" stroke="none">
<path fill="#000000" stroke="none" d="M352 4270 c-10 -25 -50 -117 -87 -205
-76 -177 -91 -205 -111 -205 -7 0 -15 -4 -18 -9 -3 -5 29 -8 72 -9 59 0 71 2
51 9 -14 6 -31 21 -38 35 -6 14 -7 23 -2 20 9 -6 31 39 33 70 2 17 10 19 91
18 71 0 92 -4 102 -17 7 -9 14 -14 17 -11 4 3 6 -1 5 -8 -1 -32 4 -49 12 -43
6 3 6 -7 0 -27 -5 -18 -9 -34 -9 -36 0 -2 -4 -1 -8 2 -4 2 -14 1 -22 -4 -10
-6 18 -9 78 -9 54 0 92 4 92 10 0 6 -3 8 -8 5 -14 -8 -41 20 -60 62 -10 23
-21 39 -24 36 -3 -3 -6 1 -5 8 1 34 -4 49 -15 42 -6 -4 -8 -3 -5 3 8 13 -27
96 -36 87 -3 -3 -3 4 0 17 5 17 3 20 -7 14 -8 -5 -11 -4 -7 2 8 13 -27 96 -36
87 -3 -3 -3 4 0 17 5 17 3 20 -7 14 -9 -5 -11 -4 -6 3 4 6 0 24 -8 39 l-14 28
-20 -45z"/>
<path fill="#ffffff" stroke="none" d="M388 4122 c47 -110 49 -105 -35 -106
l-73 -1 2 27 c1 15 6 24 10 22 8 -5 25 53 20 69 -1 5 3 5 9 1 9 -5 10 -2 6 10
-4 9 -3 15 2 12 5 -3 12 6 15 20 4 15 8 25 10 23 2 -2 18 -37 34 -77z"/>
<path fill="#000000" stroke="none" d="M342 3719 c-33 -12 -46 -49 -28 -78 7
-11 6 -12 -5 -6 -8 5 -5 -1 5 -13 11 -12 16 -25 13 -29 -4 -3 -7 -2 -7 3 0 15
-53 15 -74 -1 -10 -8 -15 -19 -10 -26 4 -8 3 -10 -4 -5 -21 13 -14 -50 8 -69
22 -20 72 -24 78 -6 2 6 8 9 13 5 8 -5 13 12 12 43 -1 7 4 10 9 7 6 -4 8 -30
6 -58 -4 -45 -2 -52 14 -53 13 -1 17 3 14 15 -12 38 -14 70 -5 83 7 11 9 11 9
-3 0 -25 49 -60 74 -52 45 15 69 73 43 108 -16 21 -94 36 -82 15 6 -11 5 -11
-5 -2 -10 9 -10 15 3 27 16 17 14 60 -4 82 -13 16 -51 22 -77 13z"/>
<path fill="#000000" stroke="none" d="M1492 3254 c-86 -22 -209 -95 -196
-115 3 -5 1 -8 -4 -7 -14 5 -64 -60 -56 -73 4 -7 3 -9 -3 -6 -13 8 -56 -89
-49 -109 3 -9 1 -12 -4 -9 -6 4 -11 -8 -11 -27 -2 -52 1 -131 5 -153 3 -11 5
-26 5 -33 1 -7 5 -10 11 -7 5 3 7 0 4 -9 -7 -18 34 -99 46 -91 5 3 8 0 5 -7
-3 -7 13 -33 35 -57 22 -25 40 -41 40 -38 0 4 8 -1 19 -12 10 -10 27 -24 37
-29 18 -11 18 -12 -3 -33 l-21 -22 -34 26 c-31 24 -109 64 -148 75 -23 8 -202
6 -230 -1 -95 -26 -203 -113 -252 -204 -38 -69 -59 -153 -44 -172 8 -11 8 -13
-1 -8 -8 5 -10 -6 -8 -36 4 -76 16 -127 27 -120 7 3 8 1 4 -5 -10 -17 21 -85
35 -76 8 4 9 3 5 -4 -9 -15 23 -64 37 -55 5 3 7 2 4 -4 -9 -15 49 -67 64 -58
7 5 10 4 5 -3 -7 -12 33 -44 46 -36 4 3 8 1 8 -5 0 -10 45 -27 94 -35 16 -3
31 -8 34 -10 3 -3 12 0 20 7 13 10 14 9 8 -2 -7 -11 2 -13 50 -8 32 4 65 6 72
7 8 0 10 5 6 13 -5 9 -4 9 6 0 7 -7 19 -8 29 -3 9 4 27 13 41 19 66 31 132 80
124 93 -4 6 -2 8 3 5 14 -9 37 19 28 33 -4 6 -1 9 7 8 7 -2 12 5 12 14 -1 10
2 15 7 13 10 -7 41 50 32 59 -4 3 -2 6 4 6 6 0 16 21 21 48 18 79 20 102 9 95
-6 -3 -7 -1 -3 5 14 23 25 12 46 -45 37 -98 31 -276 -16 -485 -9 -37 -12 -73
-8 -79 4 -8 3 -9 -4 -5 -7 4 -12 0 -13 -11 0 -10 -2 -26 -4 -35 -2 -9 3 -19
11 -22 8 -3 14 0 14 7 0 7 3 8 8 2 8 -12 102 -14 102 -2 0 4 8 4 18 -1 9 -4
23 -7 30 -6 6 1 21 2 32 3 20 1 29 31 9 31 -5 0 -8 4 -5 8 3 5 -3 43 -13 85
-10 42 -16 79 -13 82 3 3 1 5 -4 5 -5 0 -10 12 -10 28 -1 15 -5 54 -9 87 -4
33 -8 83 -9 110 -1 28 -5 56 -10 64 -6 9 -5 12 1 8 7 -5 10 10 9 42 -1 27 2
47 6 45 5 -3 8 -1 8 5 0 5 3 17 7 27 5 13 3 15 -8 10 -8 -4 -6 -1 4 7 9 8 17
19 17 26 0 6 5 11 11 11 5 0 8 4 4 9 -3 5 -2 12 3 15 4 2 8 -5 8 -17 2 -93 59
-257 85 -241 8 5 9 3 5 -5 -15 -24 134 -143 195 -155 8 -2 22 -6 31 -10 20 -9
152 -14 185 -8 13 2 21 8 18 12 -2 4 7 5 20 2 14 -2 25 0 25 5 0 5 10 9 22 10
11 1 25 8 29 15 5 7 11 12 14 11 14 -7 28 2 88 60 66 64 113 138 103 163 -3 9
-1 12 4 9 8 -5 15 28 8 38 -1 1 4 13 11 26 11 19 11 22 -1 15 -10 -6 -11 -5
-1 7 10 12 10 18 0 29 -9 10 -9 11 0 6 16 -9 7 92 -10 113 -9 11 -9 13 0 8 8
-5 9 0 0 22 -6 17 -15 27 -21 24 -5 -3 -6 -1 -2 5 11 18 -20 75 -67 125 -50
52 -123 100 -139 91 -6 -4 -8 -3 -5 3 8 13 -39 27 -55 17 -6 -4 -8 -3 -5 3 10
15 -22 21 -114 21 -98 0 -181 -25 -246 -75 l-46 -35 -26 26 c-21 21 -22 26 -8
26 9 0 17 5 17 11 0 5 5 7 10 4 6 -3 10 -3 10 2 0 4 18 21 40 38 24 17 38 35
35 43 -2 7 0 10 5 7 13 -8 63 73 54 87 -4 6 -3 8 3 5 6 -4 16 6 22 23 5 17 7
30 4 30 -3 0 -1 6 5 13 5 6 9 29 8 50 0 20 3 37 8 37 5 0 2 8 -5 17 -8 10 -9
14 -2 10 9 -6 10 3 7 30 -10 66 -34 144 -44 138 -5 -3 -7 0 -4 8 3 8 -2 21
-10 30 -8 8 -13 17 -10 19 10 10 -108 118 -153 142 -97 49 -208 63 -301 40z"/>
<path fill="#000000" stroke="none" d="M2776 1083 c3 -40 1 -52 -5 -38 -11 25
-37 48 -58 51 -47 7 -92 -52 -70 -92 21 -38 53 -50 83 -31 7 4 15 0 18 -9 3
-8 2 -12 -4 -9 -5 3 -12 -6 -16 -20 -8 -32 14 -78 33 -70 8 2 11 0 8 -5 -4 -6
6 -10 23 -10 32 0 68 32 56 51 -5 8 -3 10 6 4 17 -10 3 33 -18 58 -8 9 -12 20
-9 24 4 3 7 1 7 -5 0 -6 9 -9 20 -7 11 2 18 0 15 -6 -4 -5 1 -9 10 -9 10 0 13
5 9 12 -4 7 -3 8 5 4 16 -10 43 13 37 31 -3 8 -1 11 4 8 18 -11 11 32 -10 57
-14 19 -28 25 -50 23 -34 -3 -60 -21 -60 -41 0 -8 -4 -14 -8 -14 -12 0 -9 83
3 92 6 4 0 8 -12 8 -20 0 -21 -4 -17 -57z"/>
<path fill="#000000" stroke="none" d="M2560 667 c14 -6 29 -17 33 -24 5 -8
13 -10 19 -7 6 4 8 3 5 -3 -9 -14 27 -95 38 -85 5 4 5 2 1 -5 -8 -15 27 -106
39 -96 4 4 5 3 2 -4 -9 -15 47 -146 58 -136 4 5 5 3 1 -4 -8 -14 19 -83 32
-83 4 0 19 26 31 58 23 58 47 113 63 145 5 10 6 23 2 29 -4 6 -3 8 4 4 13 -8
26 29 16 45 -4 8 -3 9 4 5 7 -4 14 4 18 21 4 15 11 33 16 40 5 7 6 18 2 24 -4
7 -3 9 3 6 5 -3 15 9 21 27 7 20 22 36 39 43 24 9 17 11 -51 12 -70 1 -98 -6
-51 -13 24 -4 35 -26 24 -54 -5 -13 -6 -28 -3 -34 4 -6 2 -8 -3 -5 -6 4 -14
-4 -17 -18 -6 -24 -9 -25 -97 -25 l-90 0 -20 45 c-24 53 -22 87 4 91 53 7 19
14 -69 13 -83 0 -95 -2 -74 -12z"/>
<path fill="#ffffff" stroke="none" d="M2753 500 c4 0 5 6 1 13 -6 10 -4 10 7
0 7 -7 17 -13 22 -13 4 0 5 6 1 13 -5 8 -2 8 9 -2 14 -11 17 -11 18 0 0 11 2
11 6 1 4 -9 8 -10 18 -2 9 8 15 8 20 0 3 -5 11 -10 16 -10 6 0 7 5 3 12 -4 7
-3 8 4 4 9 -5 8 -15 -3 -37 -9 -16 -13 -35 -9 -41 4 -6 3 -8 -2 -5 -6 3 -21
-22 -34 -56 -14 -35 -26 -54 -28 -44 -2 9 -8 17 -14 17 -6 0 -9 2 -6 6 3 3
-10 42 -29 87 -19 45 -29 76 -22 70 7 -7 17 -13 22 -13z"/>
</g>
</svg>
