<?xml version="1.0" standalone="no"?>
<!DOCTYPE svg PUBLIC "-//W3C//DTD SVG 20010904//EN"
 "http://www.w3.org/TR/2001/REC-SVG-20010904/DTD/svg10.dtd">
<svg version="1.0" xmlns="http://www.w3.org/2000/svg"
 width="318.000000pt" height="450.000000pt" viewBox="0 0 318.000000 450.000000"
 preserveAspectRatio="xMidYMid meet">
<metadata>
Created by potrace 1.16, written by Peter Selinger 2001-2019
</metadata>
<g transform="translate(0.000000,450.000000) scale(0.100000,-0.100000)"
fill="#000000" stroke="none">
<path fill="#000000" stroke="none" d="M407 4293 c-99 -29 -186 -147 -191
-261 -3 -63 18 -137 37 -125 6 3 7 1 3 -6 -9 -14 41 -64 55 -56 5 4 9 2 9 -3
0 -14 69 -10 74 4 4 10 -2 12 -23 8 -16 -4 -32 -1 -35 5 -4 6 -12 9 -17 5 -5
-3 -8 0 -7 8 2 7 -3 12 -10 10 -8 -1 -11 2 -7 8 3 5 3 16 -2 23 -4 6 -9 21
-11 32 -1 11 -4 27 -5 35 -1 8 -7 21 -11 29 -7 10 -6 12 4 6 10 -6 12 -1 8 22
-2 17 2 35 9 42 7 6 13 9 13 5 0 -3 6 -1 13 5 8 6 17 8 20 4 4 -3 7 0 7 8 0
11 2 11 10 -1 7 -11 10 -12 10 -2 0 10 4 9 16 -2 8 -9 20 -14 25 -10 5 3 9 2
8 -3 -3 -12 26 -74 32 -69 4 4 -3 -67 -13 -131 -1 -7 -6 -11 -11 -10 -5 1 -11
-6 -12 -15 -2 -10 1 -18 6 -18 5 0 9 5 9 11 0 5 4 8 9 5 13 -8 34 21 25 35 -4
8 -3 9 4 5 14 -8 36 40 26 56 -5 7 -2 8 5 3 10 -6 12 4 8 43 -6 60 -18 84 -54
110 -31 21 -106 23 -126 3 -30 -30 -31 3 -2 59 9 18 31 46 48 63 18 17 31 35
30 39 -2 4 4 5 12 2 8 -4 15 -1 15 5 0 6 3 10 8 10 22 -4 62 2 62 9 0 11 -34
9 -83 -5z"/>
<path fill="#000000" stroke="none" d="M1007 3932 c-9 -2 -15 -8 -12 -13 3 -5
0 -6 -7 -4 -25 10 -96 -74 -82 -96 4 -8 3 -9 -4 -5 -18 11 -15 -77 3 -120 8
-20 19 -33 25 -29 5 3 7 0 4 -8 -3 -8 6 -21 21 -31 37 -24 21 -39 -18 -16 -69
41 -147 34 -208 -17 -69 -59 -77 -172 -16 -240 11 -12 24 -20 30 -16 6 3 7 1
3 -5 -8 -14 40 -36 61 -28 8 3 11 1 8 -4 -4 -6 9 -10 30 -10 20 0 34 4 31 9
-3 4 6 7 19 5 14 -1 25 2 25 7 0 5 6 9 13 9 20 0 50 37 41 51 -4 7 -3 10 4 5
13 -8 36 30 27 44 -3 6 -2 10 4 10 6 0 8 7 5 15 -4 8 -1 15 4 15 6 0 14 -9 17
-21 9 -27 8 -116 -1 -131 -5 -7 -3 -8 7 -3 11 7 12 6 3 -6 -6 -8 -14 -31 -18
-52 -4 -21 -10 -45 -13 -53 -4 -11 6 -14 45 -14 55 0 54 -3 36 70 -11 46 -14
189 -3 195 5 4 6 11 3 17 -4 7 -2 8 5 4 7 -4 10 -13 8 -19 -14 -43 72 -142
133 -152 67 -11 172 28 153 58 -3 5 -1 7 4 4 14 -9 37 19 27 34 -4 7 -3 9 4 6
11 -8 23 52 18 93 -2 14 -4 31 -5 38 0 7 -5 10 -11 7 -5 -3 -7 0 -4 8 8 22
-73 90 -102 84 -13 -2 -21 0 -17 6 8 13 -75 3 -109 -13 -16 -7 -28 -17 -28
-21 0 -5 -6 -6 -14 -3 -8 3 -12 12 -9 20 3 8 10 11 16 7 6 -4 8 0 4 10 -4 11
-2 14 9 10 9 -3 14 1 14 12 0 9 4 14 9 11 7 -5 20 31 34 102 3 12 1 22 -5 22
-5 0 -6 4 -3 10 8 13 -24 72 -35 65 -6 -3 -7 0 -4 8 11 29 -98 76 -125 54 -11
-9 -13 -9 -8 0 7 12 -6 13 -46 5z"/>
<path fill="#000000" stroke="none" d="M2090 3918 c-100 -50 -125 -188 -49
-267 16 -18 34 -29 38 -26 5 3 7 -4 4 -14 -5 -19 -6 -19 -49 4 -117 62 -254
-19 -254 -151 0 -84 73 -165 151 -166 72 -2 84 1 109 25 14 12 25 20 25 17 1
-3 9 2 18 11 9 9 13 19 10 23 -4 3 -1 6 5 6 7 0 15 19 18 42 7 38 8 40 21 22
10 -14 13 -43 11 -105 -2 -48 -6 -85 -10 -82 -5 2 -8 -4 -8 -14 0 -10 -3 -28
-6 -40 -6 -21 -3 -22 45 -21 46 2 50 4 44 23 -3 11 -6 26 -6 33 0 6 -3 12 -6
12 -3 0 -7 26 -9 57 -2 32 -9 64 -15 72 -9 12 -9 13 1 7 11 -7 16 18 15 71 -1
23 23 2 25 -23 3 -36 31 -86 44 -78 6 4 8 3 4 -4 -8 -13 50 -56 64 -47 5 3 10
1 10 -4 0 -6 5 -11 11 -11 5 0 7 6 3 13 -6 9 -5 9 7 0 27 -22 101 -2 148 41
64 58 62 188 -5 247 -57 50 -142 60 -205 23 -34 -21 -36 -21 -47 -3 -10 15 -9
17 3 13 8 -4 15 -1 15 6 0 6 5 8 10 5 6 -3 10 1 10 10 0 9 4 14 9 10 9 -5 27
32 23 48 -1 4 2 7 7 7 13 0 10 102 -4 130 -22 42 -72 83 -104 84 -16 1 -27 4
-25 7 8 14 -72 4 -106 -13z"/>
<path fill="#000000" stroke="none" d="M313 3667 c-20 -9 -35 -33 -38 -62 -1
-5 8 -23 18 -39 l20 -28 -21 11 c-32 17 -56 13 -81 -13 -18 -19 -22 -31 -16
-55 8 -37 34 -53 78 -49 23 2 32 8 31 20 -1 10 2 15 7 12 5 -3 9 0 9 6 0 6 4
9 9 6 8 -5 6 -52 -3 -81 -2 -6 4 -12 14 -12 19 -2 21 12 6 36 -6 9 -5 12 1 8
7 -5 8 4 3 26 -5 25 -4 34 6 34 7 0 11 -3 9 -7 -6 -10 25 -51 35 -45 4 3 10 1
12 -3 1 -5 18 -5 37 0 18 5 31 12 27 15 -3 3 0 11 8 17 10 8 11 19 4 44 -11
42 -47 60 -89 45 l-29 -11 20 25 c25 32 25 54 3 82 -21 26 -50 32 -80 18z"/>
<path fill="#000000" stroke="none" d="M972 2636 c-65 -19 -117 -93 -115 -163
1 -55 4 -64 13 -58 5 3 7 0 4 -9 -3 -9 11 -32 36 -60 42 -46 38 -52 -17 -23
-47 25 -105 28 -150 7 -45 -20 -97 -76 -89 -97 3 -8 1 -11 -4 -8 -6 3 -10 -6
-11 -22 -5 -120 50 -190 155 -199 41 -3 56 -1 56 8 0 9 3 8 10 -2 6 -10 10
-11 10 -2 0 6 6 12 14 12 25 0 89 69 83 90 -3 11 -1 18 4 14 5 -3 9 7 9 23 1
26 1 27 15 9 10 -14 13 -40 11 -97 -2 -42 -6 -81 -9 -86 -3 -4 -8 -25 -11 -46
l-6 -38 47 3 c37 2 47 7 45 18 -5 21 -11 50 -18 90 -4 19 -12 41 -18 49 -8 11
-8 13 2 7 6 -4 12 -3 12 1 0 5 -6 15 -12 22 -11 11 -10 12 0 7 9 -6 11 -1 8
17 -2 14 -1 28 2 32 4 4 8 11 8 16 4 24 7 20 23 -26 9 -27 22 -49 28 -48 6 1
10 -5 9 -14 -3 -39 137 -79 173 -50 12 9 13 9 7 -1 -18 -30 68 35 90 68 73
110 10 241 -127 265 -23 4 -29 2 -23 -7 6 -10 5 -10 -7 -2 -11 9 -23 8 -51 -3
-21 -8 -36 -19 -33 -23 3 -5 -3 -7 -12 -5 -10 2 -20 4 -22 4 -2 1 11 15 28 32
74 70 79 176 12 253 -37 42 -116 61 -179 42z"/>
<path fill="#000000" stroke="none" d="M2135 2634 c-20 -6 -45 -20 -57 -31
-27 -25 -50 -71 -42 -85 4 -7 3 -8 -4 -4 -15 9 -16 -45 -2 -94 11 -38 55 -94
68 -86 4 2 8 -6 8 -18 0 -20 -3 -22 -18 -12 -10 6 -18 14 -18 19 0 4 -4 5 -10
2 -5 -3 -10 -1 -10 5 0 6 -4 9 -8 6 -4 -2 -14 -1 -22 4 -9 5 -20 4 -29 -3 -12
-9 -13 -9 -7 1 6 10 0 11 -25 7 -116 -21 -180 -124 -144 -229 25 -73 73 -106
158 -112 41 -3 48 -1 43 13 -5 13 -4 14 8 4 12 -10 22 -8 50 11 20 13 34 29
31 36 -3 7 -1 10 5 7 5 -3 14 4 20 15 6 11 8 20 4 20 -3 0 -1 7 6 15 7 8 10
25 7 37 -6 19 -5 20 10 5 25 -24 22 -151 -6 -244 l-9 -33 49 2 c27 0 49 3 49
7 0 3 -5 24 -11 46 -12 49 -20 227 -9 220 5 -3 11 1 13 7 3 7 6 0 6 -15 2 -56
67 -144 98 -132 8 2 12 1 9 -4 -14 -22 91 -30 113 -8 11 10 12 9 6 -1 -4 -8
12 -1 35 14 107 71 109 232 2 291 -58 33 -113 36 -167 8 -41 -20 -46 -21 -57
-6 -7 9 -8 13 -4 9 11 -10 38 11 30 23 -3 5 3 6 13 2 10 -3 15 -3 11 2 -4 4
-2 13 5 19 19 16 41 70 25 60 -10 -6 -10 -5 0 8 7 8 10 26 8 39 -3 13 -5 32
-5 42 -1 10 -5 15 -11 12 -5 -3 -7 0 -4 8 7 20 -60 84 -98 92 -54 12 -76 12
-113 -1z"/>
<path fill="#000000" stroke="none" d="M978 1300 c-45 -24 -75 -65 -85 -116
-10 -45 -6 -87 8 -79 5 3 6 -1 3 -9 -7 -20 14 -58 28 -50 6 4 8 3 4 -4 -3 -6
4 -19 16 -29 41 -33 29 -43 -19 -18 -135 72 -286 -33 -259 -180 4 -20 11 -33
16 -30 6 3 7 -1 4 -10 -7 -17 61 -89 76 -80 5 3 10 1 12 -4 3 -10 48 -15 96
-12 15 0 21 5 16 13 -4 7 -3 8 5 4 17 -11 83 33 77 51 -3 8 -2 11 4 8 12 -8
33 33 26 51 -3 9 -1 12 4 9 13 -8 13 8 0 21 -7 7 -6 11 5 11 8 0 15 -7 15 -14
0 -8 3 -12 8 -10 11 8 2 -135 -13 -203 -14 -59 -16 -55 34 -54 39 2 46 5 43
20 -1 11 -3 27 -4 36 -1 10 -5 18 -8 18 -3 0 -6 24 -8 53 -2 28 -4 69 -5 89
-1 20 2 34 7 31 5 -4 7 3 4 14 -3 11 0 20 6 20 7 0 13 -11 14 -24 4 -50 63
-129 89 -119 8 3 12 2 9 -3 -7 -10 22 -23 34 -16 5 3 11 1 14 -4 4 -5 19 -7
34 -4 15 3 34 6 42 8 8 1 14 8 13 13 -2 6 4 9 11 6 21 -8 71 45 85 89 26 79
-9 171 -80 207 -50 26 -124 26 -167 0 -39 -24 -38 -24 -46 -4 -3 8 -2 12 4 9
6 -3 10 -1 10 5 0 6 5 8 10 5 6 -3 10 -2 10 4 0 5 6 16 13 23 21 23 40 66 33
77 -4 6 -3 11 2 11 15 0 -5 88 -28 120 -46 65 -150 89 -222 50z"/>
<path fill="#000000" stroke="none" d="M2095 1304 c-16 -8 -40 -25 -52 -36
-22 -20 -51 -91 -47 -115 1 -7 2 -25 3 -39 1 -16 5 -23 13 -18 7 4 8 3 4 -4
-8 -13 23 -71 39 -73 5 -1 15 0 20 1 6 1 7 -2 3 -5 -4 -4 -3 -16 3 -27 9 -17
5 -16 -38 6 -91 49 -189 25 -238 -57 -27 -48 -34 -114 -12 -136 9 -11 9 -12 0
-7 -9 5 -11 2 -7 -8 3 -9 11 -13 17 -9 6 3 7 1 3 -6 -10 -15 13 -43 27 -34 5
3 7 1 3 -5 -7 -12 33 -44 46 -36 4 3 8 1 8 -5 0 -5 11 -8 25 -7 13 2 22 -1 19
-5 -3 -5 2 -9 11 -9 9 0 13 5 9 11 -5 8 -2 9 11 1 19 -10 51 1 67 23 4 6 11
10 15 10 4 0 7 3 5 8 -1 4 3 6 10 5 16 -4 60 63 54 84 -2 10 0 18 6 18 5 0 6
6 2 13 -5 9 -3 9 7 -1 9 -8 14 -35 14 -76 0 -40 4 -62 10 -58 6 3 5 -1 -1 -9
-6 -8 -14 -30 -18 -49 -3 -19 -8 -45 -10 -57 -3 -12 1 -24 10 -27 8 -3 14 0
14 7 0 8 4 6 10 -3 7 -11 10 -11 10 -2 0 10 5 10 20 2 15 -8 20 -8 21 2 2 19
-1 41 -8 58 -15 40 -22 209 -8 207 6 -1 9 3 8 9 -1 6 5 11 13 11 10 0 11 -4 4
-11 -14 -14 -13 -29 3 -20 9 5 9 4 0 -6 -20 -22 32 -100 86 -128 53 -28 181
-8 173 27 -1 7 2 9 8 6 13 -8 52 33 44 46 -3 5 0 9 6 9 6 0 8 5 5 10 -3 6 -2
10 4 10 14 0 6 113 -8 118 -6 2 -9 7 -6 12 7 12 -46 61 -82 76 -47 20 -112 17
-151 -6 -48 -29 -59 -14 -18 23 19 18 39 45 45 60 14 36 14 114 1 122 -6 4 -8
10 -6 14 8 12 -51 71 -88 86 -46 19 -103 19 -141 -1z"/>
<path fill="#000000" stroke="none" d="M2805 1100 c14 -22 13 -87 0 -87 -7 0
-11 6 -8 13 7 19 -43 47 -72 40 -55 -14 -69 -92 -21 -118 31 -18 45 -18 61 -1
19 18 19 3 1 -32 -15 -29 -12 -49 12 -77 16 -19 72 -25 72 -8 0 5 6 9 13 7 6
-1 11 4 10 11 -2 6 1 12 7 12 13 0 5 63 -9 68 -6 2 -11 8 -11 13 0 5 11 4 25
-1 17 -6 25 -6 25 1 0 6 5 7 11 4 18 -12 49 26 49 60 0 37 -22 59 -64 64 -20
2 -26 -1 -21 -10 6 -8 4 -10 -4 -5 -15 10 -42 -23 -36 -42 3 -7 0 -10 -6 -7
-6 4 -9 19 -8 33 2 15 -1 33 -5 41 -6 10 -5 12 2 7 7 -4 12 -1 12 8 0 9 -9 16
-21 16 -11 0 -17 -4 -14 -10z"/>
<path fill="#000000" stroke="none" d="M2727 665 c-17 -11 -38 -36 -48 -55
-21 -39 -27 -136 -7 -124 7 4 8 3 4 -4 -10 -16 12 -54 26 -46 7 4 8 3 4 -4
-14 -23 70 -50 86 -27 5 6 8 5 8 -4 0 -10 5 -10 25 3 14 9 25 13 25 9 0 -5 5
-1 11 7 8 11 9 9 3 -10 -10 -38 -41 -95 -58 -109 -9 -7 -13 -17 -10 -22 3 -5
2 -9 -3 -8 -4 1 -28 -7 -53 -19 -25 -12 -51 -22 -57 -22 -22 0 -14 -16 7 -16
11 0 20 3 20 7 0 4 6 7 13 6 32 -1 48 4 42 13 -3 6 1 7 9 4 9 -3 16 -1 16 6 0
6 4 9 9 6 4 -3 18 6 31 19 13 13 27 22 33 18 6 -3 7 -1 4 4 -4 6 0 17 9 24 17
14 68 109 59 109 -3 0 -1 9 5 20 8 15 8 20 -2 20 -9 0 -9 3 -2 8 20 14 4 101
-28 148 -43 63 -121 80 -181 39z"/>
<path fill="#ffffff" stroke="none" d="M2843 642 c5 -7 12 -10 16 -7 5 2 9 -1
8 -8 -1 -34 4 -48 15 -41 6 4 8 3 5 -3 -3 -5 -7 -39 -8 -76 -1 -36 -6 -64 -10
-61 -4 2 -10 0 -14 -6 -3 -5 -15 -10 -26 -10 -14 0 -18 -4 -13 -12 6 -10 5
-10 -7 -1 -8 6 -17 11 -21 10 -4 -1 -16 6 -27 15 -11 9 -22 13 -26 10 -3 -4
-3 2 1 12 4 12 4 17 -2 13 -5 -3 -10 2 -11 11 -6 87 -7 130 -3 127 3 -2 12 10
19 26 7 16 16 27 19 25 4 -2 16 0 27 4 20 8 42 -3 58 -28z"/>
</g>
</svg>
