<?xml version="1.0" standalone="no"?>
<!DOCTYPE svg PUBLIC "-//W3C//DTD SVG 20010904//EN"
 "http://www.w3.org/TR/2001/REC-SVG-20010904/DTD/svg10.dtd">
<svg version="1.0" xmlns="http://www.w3.org/2000/svg"
 width="318.000000pt" height="450.000000pt" viewBox="0 0 318.000000 450.000000"
 preserveAspectRatio="xMidYMid meet">
<metadata>
Created by potrace 1.16, written by Peter Selinger 2001-2019
</metadata>
<g transform="translate(0.000000,450.000000) scale(0.100000,-0.100000)"
fill="#000000" stroke="none">
<path fill="#000000" stroke="none" d="M294 4295 c-33 -13 -59 -48 -70 -89 -4
-17 -2 -26 6 -26 6 0 9 4 6 8 -8 13 43 62 65 62 11 0 18 4 15 8 -2 4 4 8 14 8
10 0 16 -4 14 -8 -3 -4 1 -8 9 -8 7 0 23 -9 34 -19 12 -11 23 -18 26 -15 3 3
4 -22 3 -55 -3 -73 -38 -131 -139 -233 -37 -36 -67 -70 -67 -75 0 -4 57 -8
127 -8 123 0 129 1 141 23 7 12 10 26 7 31 -3 5 1 11 7 14 7 2 9 8 5 13 -5 5
-14 3 -20 -6 -7 -8 -19 -17 -27 -19 -17 -4 -162 -2 -167 2 -1 2 27 32 62 68
36 35 63 70 60 77 -3 7 -1 10 4 7 12 -7 42 35 35 47 -3 4 -2 8 3 8 14 0 33 50
20 50 -8 0 -8 3 -2 8 15 10 13 44 -5 76 -27 52 -107 76 -166 51z"/>
<path fill="#000000" stroke="none" d="M310 3660 c-24 -24 -26 -62 -3 -98 10
-17 11 -22 3 -14 -15 13 -59 16 -76 4 -14 -9 -31 -44 -28 -59 1 -7 2 -18 3
-24 0 -5 5 -7 11 -4 6 4 7 -1 3 -11 -5 -14 -3 -16 11 -11 10 4 15 3 11 -3 -4
-6 8 -8 31 -5 38 5 57 21 50 41 -2 6 2 11 9 11 10 0 12 -15 10 -56 -2 -31 -1
-50 2 -42 5 11 7 11 15 0 5 -9 6 9 2 46 -6 59 -5 60 12 35 9 -14 18 -26 20
-28 1 -2 17 -6 34 -8 21 -4 30 -2 26 5 -4 7 -1 8 8 5 9 -3 16 -1 16 6 0 6 5 8
12 4 8 -5 9 -2 5 9 -4 10 -2 17 5 17 6 0 5 6 -3 17 -9 11 -10 14 -2 9 18 -10
4 26 -15 42 -20 16 -86 17 -76 0 4 -7 3 -8 -5 -4 -8 5 -7 13 4 29 32 45 3 107
-50 107 -14 0 -34 -9 -45 -20z"/>
<path fill="#000000" stroke="none" d="M1542 3632 c-12 -2 -20 -8 -17 -13 3
-5 0 -6 -8 -3 -30 11 -106 -89 -93 -123 3 -8 1 -11 -4 -8 -12 7 -9 -23 4 -44
6 -9 5 -12 -2 -7 -8 5 -8 -2 -1 -24 6 -17 16 -27 22 -23 6 4 7 1 3 -6 -10 -15
23 -53 37 -44 5 3 7 1 3 -5 -3 -5 -1 -12 6 -14 6 -2 8 -10 4 -17 -6 -10 -11
-9 -24 2 -51 44 -156 41 -213 -5 -27 -22 -51 -67 -43 -79 4 -8 3 -9 -4 -5 -11
6 -18 -35 -13 -67 1 -4 3 -15 4 -25 11 -67 110 -148 146 -119 11 9 13 9 8 0
-5 -8 2 -10 25 -8 18 2 34 4 36 5 1 2 5 3 10 4 52 13 100 64 109 120 3 18 11
33 18 33 9 0 12 -23 10 -91 -2 -50 -5 -100 -8 -111 -3 -11 -8 -32 -12 -48 -7
-27 -7 -27 38 -24 25 1 49 6 53 10 4 4 3 7 -2 7 -5 0 -10 8 -11 18 -2 47 -8
82 -13 82 -4 0 -4 14 -2 31 4 24 2 30 -8 24 -9 -6 -11 -4 -4 6 7 12 12 36 16
87 2 14 17 16 19 2 1 -5 3 -14 4 -20 1 -5 3 -15 4 -21 0 -5 5 -8 10 -5 5 4 7
-2 4 -13 -6 -23 74 -94 99 -87 10 2 16 0 12 -5 -3 -5 16 -9 41 -9 32 0 44 3
39 12 -4 6 -3 8 4 5 15 -10 43 3 35 16 -3 6 -1 7 5 3 7 -4 25 6 43 22 34 32
53 93 44 145 -8 41 -39 93 -54 89 -7 -1 -10 2 -7 7 3 5 -5 16 -19 25 -14 9
-25 14 -25 10 0 -4 -6 -2 -12 3 -20 15 -99 9 -141 -11 -21 -10 -41 -15 -45
-11 -4 4 -1 10 6 12 6 3 10 9 6 14 -3 5 -2 9 3 8 22 -4 32 4 47 36 10 19 14
40 10 47 -4 7 -3 8 4 4 15 -9 13 64 -2 83 -9 12 -8 13 3 6 23 -14 -21 54 -53
82 -16 13 -35 22 -43 19 -8 -3 -11 -1 -8 4 3 6 0 11 -7 11 -44 4 -76 4 -96 1z"/>
<path fill="#000000" stroke="none" d="M1533 1606 c-64 -23 -123 -94 -109
-132 3 -9 1 -12 -4 -9 -12 7 -9 -23 4 -44 6 -9 5 -12 -2 -8 -6 5 -8 0 -5 -13
3 -11 9 -17 14 -14 5 3 6 -1 3 -9 -7 -19 45 -80 63 -73 11 4 11 1 2 -15 -9
-18 -13 -19 -27 -6 -42 36 -124 42 -179 13 -39 -20 -86 -75 -79 -93 3 -8 2
-12 -3 -9 -13 8 -18 -43 -8 -91 11 -58 71 -120 110 -114 4 0 7 -3 7 -9 0 -14
73 -12 89 3 11 10 12 9 6 -2 -14 -24 76 32 96 60 10 15 20 41 22 58 5 44 15
49 28 15 11 -31 6 -128 -11 -199 -5 -22 -10 -42 -10 -45 0 -3 16 -7 36 -8 27
-2 34 1 28 10 -5 10 -4 11 7 1 21 -20 29 -15 19 11 -5 13 -6 27 -3 30 4 3 2 6
-4 6 -6 0 -9 11 -8 25 2 14 0 27 -5 30 -4 3 -6 14 -3 25 3 11 -1 28 -8 37 -10
12 -10 14 -1 9 6 -4 12 -3 12 1 0 5 -6 15 -12 22 -10 11 -10 13 0 7 8 -5 12 0
12 16 0 23 19 62 21 43 2 -25 8 -45 24 -79 16 -33 26 -41 48 -37 4 0 6 -2 5
-6 -2 -5 2 -10 7 -11 6 -2 13 -9 17 -15 3 -5 29 -12 57 -13 39 -3 50 0 44 9
-4 8 -1 7 10 -2 11 -9 17 -10 17 -2 0 6 3 10 8 10 21 -4 34 5 66 44 39 48 57
126 36 152 -7 8 -10 15 -6 15 17 0 -29 63 -63 85 -53 36 -119 40 -176 11 -41
-21 -55 -23 -55 -6 0 3 14 14 30 24 17 9 28 22 25 27 -4 5 -1 9 5 9 7 0 9 7 6
16 -3 8 -2 13 3 10 13 -8 19 13 16 64 -4 78 -4 82 -17 74 -7 -4 -8 -3 -4 5 11
17 -60 85 -80 77 -9 -3 -12 -1 -9 4 3 6 -2 10 -12 11 -10 1 -29 2 -43 3 -14 2
-39 -2 -57 -8z"/>
<path fill="#000000" stroke="none" d="M2826 1113 c-11 -11 -7 -35 6 -27 7 5
8 3 2 -7 -4 -8 -7 -27 -6 -44 2 -27 1 -28 -9 -10 -30 52 -85 61 -118 20 -36
-47 -3 -107 56 -103 26 2 32 6 28 18 -5 12 -4 12 6 3 10 -10 9 -16 -4 -31 -18
-19 -22 -59 -9 -78 9 -14 44 -31 60 -28 6 1 19 2 28 3 10 1 14 7 11 15 -4 11
-1 13 10 9 10 -4 14 -2 9 5 -3 6 -2 14 4 17 8 5 6 15 -5 32 -10 14 -12 22 -6
19 6 -4 11 -5 11 -1 0 3 -10 10 -22 15 -22 8 -21 9 5 7 15 -1 27 -6 27 -12 0
-6 3 -7 8 0 4 6 14 10 22 10 8 0 14 6 13 13 -2 6 2 11 9 10 16 -4 26 43 14 70
-5 13 -15 21 -23 18 -8 -3 -11 -1 -8 4 8 13 -41 13 -66 0 -10 -6 -19 -17 -19
-25 0 -8 -4 -15 -9 -15 -5 0 -8 20 -5 44 4 42 -5 64 -20 49z"/>
<path fill="#000000" stroke="none" d="M2706 634 c-3 -9 -3 -21 1 -26 3 -7 1
-8 -5 -4 -7 4 -12 3 -12 -3 0 -5 -3 -18 -6 -28 -5 -15 -4 -15 5 -3 6 8 11 11
11 7 0 -5 7 -1 16 7 12 12 37 16 102 16 l86 0 -35 -37 c-83 -88 -101 -110
-125 -150 -14 -23 -22 -48 -18 -54 4 -8 3 -9 -4 -5 -8 5 -12 -5 -12 -33 0 -79
38 -120 116 -126 25 -2 42 0 39 5 -3 4 3 6 14 3 24 -6 81 62 81 97 l0 25 -19
-28 c-27 -41 -51 -55 -93 -52 -105 6 -111 140 -11 251 15 18 41 48 58 67 16
19 33 33 37 31 5 -3 8 2 8 11 0 9 4 14 8 11 4 -2 13 4 20 15 12 18 8 19 -122
19 -113 0 -135 -2 -140 -16z"/>
</g>
</svg>
