<?xml version="1.0" standalone="no"?>
<!DOCTYPE svg PUBLIC "-//W3C//DTD SVG 20010904//EN"
 "http://www.w3.org/TR/2001/REC-SVG-20010904/DTD/svg10.dtd">
<svg version="1.0" xmlns="http://www.w3.org/2000/svg"
 width="318.000000pt" height="451.000000pt" viewBox="0 0 318.000000 451.000000"
 preserveAspectRatio="xMidYMid meet">
<metadata>
Created by potrace 1.16, written by Peter Selinger 2001-2019
</metadata>
<g transform="translate(0.000000,451.000000) scale(0.100000,-0.100000)"
fill="#000000" stroke="none">
<path fill="#000000" stroke="none" d="M244 4257 c-12 -28 -20 -54 -18 -56 5
-5 40 41 37 49 -1 3 41 5 93 6 62 0 94 -3 94 -11 0 -6 -29 -97 -64 -203 -36
-106 -63 -193 -60 -193 22 -7 32 4 51 60 13 35 20 69 16 75 -3 6 -2 7 2 3 11
-9 37 72 28 87 -3 6 -2 7 2 3 11 -9 37 72 28 86 -3 6 -1 7 4 4 16 -10 24 18
10 33 -7 7 -7 10 -1 7 9 -5 20 17 39 81 6 22 6 22 -117 22 l-123 0 -21 -53z"/>
<path fill="#000000" stroke="none" d="M992 3890 c-124 -83 -266 -272 -258
-344 2 -14 -1 -23 -5 -20 -13 8 -4 -108 11 -136 21 -42 65 -76 93 -71 4 0 7
-5 7 -11 0 -9 4 -8 10 2 8 12 10 12 10 1 0 -11 3 -11 17 0 9 8 14 9 10 2 -10
-16 32 -4 66 19 15 11 24 24 21 30 -4 7 -2 8 4 4 13 -8 36 40 26 55 -3 5 -1 9
5 9 8 0 8 20 1 40 -1 3 -2 9 -1 14 1 4 -4 16 -11 25 -9 11 -6 10 10 -3 12 -11
22 -25 22 -33 0 -8 3 -12 8 -10 8 6 7 -145 -2 -183 -19 -78 -19 -77 25 -78 40
-2 41 -2 35 31 -3 17 -7 41 -10 52 -2 11 -5 35 -5 53 -1 24 -5 31 -13 26 -10
-6 -10 -5 -1 7 10 12 10 18 0 29 -9 10 -9 11 1 6 8 -5 12 3 13 26 1 18 1 36 0
41 0 4 4 7 10 7 5 0 7 6 3 13 -4 6 -4 9 1 5 4 -4 14 0 22 10 12 14 12 12 0
-13 -8 -16 -12 -43 -10 -59 6 -42 32 -88 45 -80 7 4 8 3 4 -4 -4 -6 4 -18 16
-26 26 -17 108 -28 108 -14 0 5 4 7 9 4 5 -3 27 8 50 24 40 30 60 68 45 91 -4
8 -3 9 4 5 17 -10 16 86 0 103 -10 10 -10 12 -1 7 12 -7 2 26 -32 99 -30 66
-149 200 -168 188 -5 -3 -7 -1 -4 4 6 10 -102 93 -121 93 -5 0 -37 -18 -70
-40z"/>
<path fill="#000000" stroke="none" d="M2056 3890 c-31 -22 -75 -57 -97 -77
-58 -53 -131 -154 -125 -170 3 -8 2 -12 -3 -8 -13 7 -41 -83 -45 -144 -3 -40
2 -64 21 -102 28 -56 66 -81 124 -82 40 -1 92 20 83 34 -3 5 3 6 12 2 14 -5
16 -3 11 11 -4 10 -3 15 3 11 24 -15 47 80 31 126 -15 44 -3 35 19 -13 18 -42
21 -141 6 -208 -17 -72 -18 -69 27 -66 43 2 48 11 30 56 -8 22 -12 67 -12 130
1 81 2 89 13 83 5 -4 7 1 3 11 -5 11 -3 15 5 10 8 -5 9 -2 5 10 -4 9 -3 15 2
12 4 -3 6 -27 3 -54 -5 -57 13 -101 55 -130 38 -26 66 -36 57 -19 -6 9 -4 9 8
-1 13 -10 17 -10 21 0 4 9 6 9 6 1 2 -20 61 3 93 36 16 16 33 45 39 63 11 39
10 139 -2 132 -5 -3 -6 2 -3 10 8 21 -39 120 -83 175 -68 84 -208 201 -241
201 -5 0 -34 -18 -66 -40z"/>
<path fill="#000000" stroke="none" d="M319 3754 c-19 -14 -33 -30 -31 -35 1
-6 -2 -8 -7 -5 -15 10 -54 -64 -54 -101 0 -20 7 -41 18 -51 13 -13 16 -13 10
-2 -6 12 -5 13 6 3 22 -22 48 -14 70 20 l21 32 -5 -52 c-4 -39 -2 -53 7 -53 9
0 12 16 11 55 -2 30 1 52 6 49 5 -3 7 -9 4 -14 -8 -13 32 -50 53 -50 30 1 55
28 59 65 2 23 0 34 -7 30 -6 -3 -7 0 -4 9 3 9 1 16 -6 16 -6 0 -9 4 -6 9 6 9
-58 72 -92 90 -15 8 -26 5 -53 -15z"/>
<path fill="#000000" stroke="none" d="M1030 2603 c-76 -50 -129 -97 -123
-107 3 -6 2 -8 -2 -3 -11 9 -46 -23 -39 -35 3 -4 1 -7 -4 -6 -23 7 -119 -142
-106 -164 4 -6 3 -8 -3 -5 -12 8 -25 -44 -28 -112 -3 -52 4 -83 16 -75 5 3 6
-2 3 -11 -7 -18 62 -89 77 -80 5 4 9 1 9 -6 0 -8 5 -7 17 2 13 11 15 11 9 1
-8 -13 10 -12 70 1 15 4 69 47 58 47 -5 0 -3 4 4 9 8 5 15 20 15 34 1 14 5 23
10 20 12 -7 8 12 -5 26 -10 11 -10 13 0 7 17 -10 15 5 -3 32 -13 18 -14 21 -1
16 42 -16 52 -150 21 -277 -6 -23 -4 -24 39 -24 40 0 44 2 36 17 -5 10 -6 20
-3 24 3 3 2 6 -3 6 -5 0 -10 23 -12 52 -2 29 -8 59 -15 67 -9 12 -9 13 1 7 6
-4 12 -3 12 1 0 5 -6 15 -12 22 -10 11 -10 13 0 7 11 -7 16 11 16 66 0 9 4 14
9 11 6 -4 8 0 5 9 -4 8 -1 15 7 15 9 0 11 -7 6 -21 -15 -41 9 -133 31 -120 6
4 8 3 5 -3 -9 -14 29 -47 44 -37 8 4 10 3 5 -4 -8 -13 -7 -14 44 -18 19 -1 40
2 47 8 7 6 13 7 13 4 0 -4 9 -2 20 4 11 6 18 15 15 20 -4 6 1 7 11 3 11 -4 15
-2 11 4 -4 6 0 14 9 17 9 4 14 13 10 22 -3 8 -2 13 3 10 13 -8 21 51 16 111
-5 62 -33 135 -48 126 -6 -3 -7 -1 -3 6 4 6 -3 28 -15 49 -32 52 -120 142
-132 135 -6 -3 -7 -1 -4 4 9 14 -110 96 -125 87 -7 -4 -8 -3 -4 4 10 17 -6 15
-34 -5z"/>
<path fill="#000000" stroke="none" d="M2058 2580 c-207 -144 -309 -340 -258
-495 15 -46 87 -100 109 -82 10 8 13 8 8 0 -7 -11 -1 -11 66 -4 5 1 5 5 2 11
-4 6 1 7 11 3 14 -5 16 -3 10 13 -6 15 -5 16 5 7 10 -10 17 -6 36 15 13 15 22
35 19 45 -2 9 0 15 4 12 10 -6 7 66 -3 82 -3 5 0 10 8 10 8 0 12 -4 10 -8 -8
-12 21 -70 30 -62 4 5 5 2 1 -5 -5 -7 -9 -41 -11 -75 -2 -34 -6 -73 -9 -87
-17 -73 -18 -70 23 -70 47 0 52 5 40 38 -13 40 -26 212 -15 205 5 -4 7 3 4 15
-4 12 -2 20 3 16 5 -3 9 1 9 9 0 8 8 18 18 22 14 5 15 4 5 -6 -27 -27 0 -161
28 -143 8 4 9 3 5 -4 -20 -32 118 -66 148 -37 7 8 16 11 20 8 3 -4 6 -1 6 6 0
7 4 10 9 7 14 -9 50 56 60 108 5 25 5 46 1 46 -5 0 -6 8 -3 18 7 28 -33 131
-74 190 -46 68 -123 143 -136 135 -6 -3 -7 -1 -3 5 8 13 -28 35 -39 24 -5 -4
-5 -2 -1 5 4 7 -10 22 -37 37 -24 14 -46 26 -48 25 -2 0 -30 -18 -61 -39z"/>
<path fill="#000000" stroke="none" d="M1500 1862 c-201 -149 -301 -359 -236
-495 17 -35 51 -64 69 -59 4 1 7 -3 7 -9 0 -6 7 -9 15 -5 8 3 15 1 15 -3 0 -5
17 -5 38 0 20 4 37 8 37 7 0 -1 14 6 30 15 17 9 27 16 23 17 -5 0 1 9 13 21
14 14 19 29 16 45 -2 13 0 21 5 18 10 -6 6 35 -7 71 -4 11 2 7 14 -10 11 -16
21 -38 21 -47 0 -9 5 -20 10 -23 6 -4 7 -11 4 -17 -4 -6 -8 -32 -10 -57 -2
-26 -8 -67 -13 -91 -6 -25 -11 -48 -11 -51 0 -3 20 -6 45 -6 25 0 43 3 40 7
-3 4 -7 25 -11 46 -3 22 -11 45 -17 53 -10 12 -9 13 2 6 9 -5 12 -4 8 3 -7 11
-10 106 -4 132 5 22 28 62 33 57 2 -2 0 -15 -4 -28 -23 -60 46 -169 101 -160
4 0 7 -5 7 -11 0 -9 4 -8 10 2 8 12 10 12 10 1 0 -11 3 -11 17 0 9 8 14 9 10
2 -5 -7 0 -9 13 -6 11 3 17 10 13 16 -4 6 -1 7 6 3 7 -5 19 0 27 10 9 11 12
12 8 4 -5 -10 0 -8 15 4 12 11 19 26 17 33 -3 7 0 15 6 19 7 5 8 2 3 -7 -6
-11 -5 -12 6 -1 15 14 23 162 8 162 -5 0 -6 6 -3 14 3 8 0 17 -5 21 -6 3 -9
10 -6 14 7 12 -72 136 -85 133 -6 -1 -8 3 -5 9 14 21 -189 189 -227 189 -7 0
-42 -22 -78 -48z"/>
<path fill="#000000" stroke="none" d="M1002 1269 c-105 -69 -243 -223 -226
-251 4 -6 3 -8 -4 -4 -29 17 -62 -180 -39 -233 12 -29 47 -78 47 -67 0 4 7 0
16 -9 9 -9 23 -14 31 -11 8 3 11 1 8 -4 -3 -6 15 -8 46 -6 28 1 54 8 57 13 4
6 12 13 17 15 6 1 9 7 7 11 -1 5 2 6 7 2 13 -8 44 53 37 71 -3 8 -2 12 4 9 13
-8 4 53 -12 73 -11 15 -11 15 3 5 9 -7 20 -9 25 -5 5 4 6 3 1 -2 -4 -5 0 -20
9 -34 9 -13 11 -21 5 -18 -12 8 -4 -21 11 -41 5 -7 5 -14 -2 -18 -6 -3 -8 -10
-6 -14 2 -3 -2 -42 -10 -86 -16 -95 -17 -105 -4 -85 5 8 10 10 10 3 0 -13 18
-12 39 1 10 6 12 5 7 -2 -4 -7 -2 -12 4 -12 7 0 9 13 5 37 -4 21 -9 56 -11 77
-2 22 -10 46 -17 55 -9 12 -9 13 1 7 8 -5 11 -1 8 16 -2 13 1 31 6 42 8 14 7
17 -4 10 -11 -7 -11 -5 0 9 8 9 10 22 6 28 -4 8 -3 9 4 5 7 -4 12 -1 12 8 0 9
4 16 10 16 5 0 6 -9 2 -21 -10 -26 -3 -91 9 -83 5 3 6 -1 3 -9 -6 -16 54 -79
68 -71 4 3 8 1 8 -4 0 -15 111 -7 121 9 5 8 9 10 9 5 0 -5 11 3 25 18 72 78
50 243 -49 371 -46 60 -123 132 -187 176 l-57 39 -60 -41z"/>
<path fill="#000000" stroke="none" d="M2059 1266 c-214 -144 -331 -390 -246
-520 10 -15 23 -24 29 -20 7 4 8 3 4 -4 -8 -14 30 -36 46 -26 7 4 8 3 4 -4 -5
-8 5 -12 34 -12 23 0 39 4 36 9 -4 5 4 7 16 3 14 -3 19 -1 14 6 -4 7 -2 10 6
7 8 -3 24 6 36 20 12 14 19 25 14 25 -4 0 -1 4 6 9 16 9 21 84 9 121 -6 19 -3
16 14 -10 17 -26 23 -52 24 -105 1 -38 -1 -80 -6 -93 -7 -17 -6 -21 4 -16 9 6
9 5 0 -7 -6 -8 -13 -27 -15 -43 -3 -25 1 -29 25 -32 19 -2 25 1 20 9 -4 7 2 5
12 -3 17 -14 18 -13 12 30 -4 25 -10 59 -13 75 -6 27 -6 75 -1 147 1 14 6 24
11 20 5 -3 6 3 2 14 -4 10 -4 15 0 11 4 -4 13 1 21 11 13 15 13 15 4 -5 -15
-30 -14 -86 2 -102 10 -11 9 -12 -1 -6 -11 6 -12 3 -4 -11 17 -32 66 -73 92
-78 14 -2 27 -5 30 -6 3 -2 10 -1 15 0 6 1 21 4 35 7 13 2 28 10 32 16 4 7 11
12 15 12 4 0 7 4 5 8 -1 5 2 6 7 2 13 -7 44 52 35 67 -4 7 -3 8 4 4 19 -12 18
85 -2 149 -2 6 -6 22 -11 38 -4 15 -12 27 -18 27 -6 0 -8 3 -4 6 13 14 -90
147 -106 137 -6 -3 -7 -2 -4 4 7 10 -18 35 -88 88 -91 70 -84 69 -156 21z"/>
<path fill="#000000" stroke="none" d="M2816 941 c2 -31 0 -46 -2 -34 -3 13
-15 30 -27 38 -24 17 -62 20 -52 5 3 -5 0 -7 -9 -4 -13 5 -27 -18 -31 -51 -5
-40 86 -155 122 -155 20 0 28 4 25 13 -1 5 2 6 7 3 5 -4 16 0 24 8 8 8 17 12
21 9 3 -4 6 -2 6 3 0 5 13 24 29 41 23 26 29 40 27 75 -1 35 -6 45 -28 57 -35
20 -78 2 -78 -31 0 -18 -2 -20 -10 -8 -5 8 -7 31 -4 50 4 27 2 37 -9 37 -10 0
-13 -14 -11 -56z"/>
<path fill="#000000" stroke="none" d="M2824 656 c-2 -6 -37 -110 -78 -232
l-73 -220 125 -1 c108 -1 125 1 129 15 2 10 3 20 1 23 -2 3 5 13 15 23 9 10
17 25 17 34 0 13 -6 10 -25 -11 -14 -15 -33 -27 -41 -27 -9 0 -12 -5 -8 -12 6
-10 4 -10 -7 -2 -8 6 -44 10 -81 9 -38 0 -68 2 -68 5 0 3 27 86 60 185 71 211
73 222 53 222 -8 0 -17 -5 -19 -11z"/>
</g>
</svg>
