<?xml version="1.0" standalone="no"?>
<!DOCTYPE svg PUBLIC "-//W3C//DTD SVG 20010904//EN"
 "http://www.w3.org/TR/2001/REC-SVG-20010904/DTD/svg10.dtd">
<svg version="1.0" xmlns="http://www.w3.org/2000/svg"
 width="318.000000pt" height="451.000000pt" viewBox="0 0 318.000000 451.000000"
 preserveAspectRatio="xMidYMid meet">
<metadata>
Created by potrace 1.16, written by Peter Selinger 2001-2019
</metadata>
<g transform="translate(0.000000,451.000000) scale(0.100000,-0.100000)"
fill="#000000" stroke="none">
<path fill="#000000" stroke="none" d="M298 4282 c-29 -15 -52 -33 -50 -39 1
-7 -3 -12 -9 -10 -7 1 -23 -20 -37 -46 -20 -37 -26 -64 -26 -110 1 -82 18
-130 65 -178 35 -35 49 -44 72 -40 4 0 7 -4 7 -10 0 -6 7 -8 16 -5 8 3 13 2
10 -3 -8 -12 31 -44 44 -36 6 3 9 1 8 -6 -4 -17 118 -78 172 -85 31 -5 41 -3
35 6 -4 6 -9 9 -12 6 -7 -7 -76 29 -92 48 -7 9 -17 13 -22 10 -5 -3 -6 2 -3
10 3 9 1 16 -5 16 -16 0 -13 30 4 36 8 4 12 10 9 15 -3 5 1 7 8 4 38 -14 140
132 114 164 -9 12 -8 13 3 6 22 -13 8 102 -18 153 -21 41 -87 103 -119 110
-64 15 -124 9 -174 -16z"/>
<path fill="#ffffff" stroke="none" d="M420 4284 c42 -8 100 -63 100 -94 0 -6
3 -9 8 -7 4 3 8 -5 8 -16 4 -57 4 -164 0 -184 -7 -34 -34 -81 -56 -96 -11 -7
-17 -16 -14 -19 3 -3 0 -9 -7 -14 -8 -5 -10 -3 -4 6 6 10 4 12 -11 6 -67 -28
-153 13 -170 79 -3 14 -9 23 -13 20 -9 -5 -8 182 1 212 4 12 11 30 17 41 6 11
7 23 3 27 -4 3 0 5 8 3 8 -1 14 2 13 9 -2 8 4 10 14 6 12 -5 14 -3 8 7 -5 8
-4 11 3 6 6 -3 13 -2 17 3 3 6 12 8 19 5 8 -3 17 0 21 5 3 6 12 8 18 4 7 -4
14 -8 17 -9z"/>
<path fill="#000000" stroke="none" d="M313 3751 c-22 -16 -50 -43 -62 -60
-25 -34 -42 -109 -23 -97 8 4 10 2 6 -7 -13 -34 60 -44 88 -13 10 10 15 23 12
27 -3 5 0 9 6 9 9 0 10 -15 6 -50 -5 -40 -3 -50 8 -50 11 0 13 11 9 49 -3 28
-1 51 5 55 6 4 8 -2 4 -16 -4 -16 -2 -19 8 -13 8 5 11 4 6 -3 -8 -14 11 -26
46 -28 35 -3 58 27 52 69 -4 37 -51 110 -65 102 -5 -4 -8 -2 -7 4 2 6 -11 20
-28 31 l-31 20 -40 -29z"/>
<path fill="#000000" stroke="none" d="M1506 2824 c-38 -26 -65 -75 -62 -114
2 -24 -3 -29 -27 -34 -39 -8 -82 -56 -85 -95 -3 -37 24 -95 40 -85 7 4 8 3 4
-5 -7 -11 32 -33 47 -24 8 5 10 -9 7 -51 -1 -18 2 -26 9 -22 7 4 9 1 5 -8 -6
-16 28 -40 41 -28 5 4 4 0 0 -8 -5 -8 -10 -30 -11 -50 -1 -19 -6 -47 -12 -62
-15 -36 -83 -102 -132 -126 -22 -10 -38 -21 -35 -23 2 -3 -4 -5 -13 -6 -9 -1
-114 -35 -232 -75 l-215 -73 20 -58 c12 -32 25 -54 30 -50 4 4 5 3 2 -3 -4 -7
-2 -25 4 -41 10 -29 12 -30 67 -27 31 1 57 3 57 4 0 3 138 12 197 13 31 0 54
5 51 10 -3 5 4 4 14 -2 11 -6 23 -8 26 -5 3 3 35 6 72 5 46 0 64 3 59 11 -5 7
-3 8 7 2 20 -12 71 -12 88 0 9 7 12 7 9 1 -4 -6 18 -10 57 -10 35 0 61 3 59 6
-1 3 3 6 11 6 8 0 12 -3 10 -7 -2 -3 33 -6 78 -5 45 0 86 -1 91 -4 21 -10 112
-8 125 3 11 8 13 8 7 -1 -5 -9 2 -13 26 -14 18 -1 60 -2 93 -3 33 -1 66 -5 73
-9 7 -5 12 -3 12 5 0 8 3 9 8 3 4 -5 26 -11 50 -12 34 -1 42 2 38 13 -3 8 -2
13 3 10 11 -7 23 22 15 35 -3 5 0 9 5 9 6 0 11 9 11 19 0 11 5 23 10 26 6 4 9
12 8 18 -1 7 3 21 9 33 12 20 8 22 -63 43 -41 12 -80 19 -86 15 -7 -4 -8 -3
-4 4 4 8 0 12 -12 12 -10 0 -22 3 -26 7 -7 7 -27 12 -63 16 -11 1 -19 6 -15
11 3 5 -5 7 -17 3 -13 -3 -20 -3 -17 1 7 6 -108 53 -136 55 -9 1 -15 3 -13 5
2 2 -17 15 -42 28 -87 47 -128 103 -139 188 -5 47 -4 57 6 51 10 -6 12 -4 7 8
-4 11 -2 14 8 11 9 -4 16 5 20 28 4 19 5 40 3 47 -2 8 7 15 21 17 30 5 74 52
67 71 -3 8 -2 12 3 9 14 -9 10 46 -5 76 -14 27 -60 58 -86 58 -9 0 -13 11 -12
28 3 51 -42 113 -95 133 -38 15 -99 7 -135 -17z"/>
<path fill="#ffffff" stroke="none" d="M1619 2685 c5 2 19 -7 32 -21 16 -17
23 -35 22 -62 -2 -57 -5 -71 -17 -69 -6 1 -10 -3 -9 -9 1 -6 -22 -11 -58 -11
-33 0 -58 2 -55 5 3 3 -2 12 -12 21 -32 29 -26 99 12 137 6 6 24 10 39 10 15
-1 27 3 28 9 0 5 3 4 6 -3 2 -6 8 -10 12 -7z"/>
<path fill="#ffffff" stroke="none" d="M1610 2428 c0 -5 5 -6 12 -2 11 7 5 -8
-15 -33 -13 -18 -47 2 -47 28 0 11 5 17 10 14 6 -3 10 -2 10 4 0 6 7 8 15 5 8
-4 15 -10 15 -16z"/>
<path fill="#000000" stroke="none" d="M2815 943 c1 -29 -1 -50 -6 -47 -5 3
-7 9 -4 14 8 14 -32 50 -55 50 -25 0 -60 -34 -60 -58 0 -29 44 -107 58 -104 8
1 11 -2 7 -7 -3 -6 11 -21 32 -35 35 -24 38 -25 63 -9 61 39 110 109 110 158
0 19 -39 55 -60 55 -26 0 -63 -37 -56 -56 3 -9 2 -12 -5 -9 -6 4 -8 26 -4 54
5 37 3 48 -8 48 -11 0 -14 -13 -12 -54z"/>
<path fill="#000000" stroke="none" d="M2605 779 c28 -11 55 -21 62 -22 7 0
11 -5 10 -11 -1 -6 4 -10 11 -8 8 1 11 -2 8 -7 -3 -5 3 -20 13 -33 l19 -24
-44 -23 c-48 -26 -99 -85 -88 -103 4 -6 3 -8 -3 -5 -15 9 -31 -54 -28 -114 3
-76 4 -81 15 -74 6 3 7 -1 4 -10 -8 -19 43 -88 58 -79 7 4 8 2 4 -4 -7 -11 31
-42 56 -46 7 -1 18 -4 23 -8 16 -10 115 -6 115 4 0 5 5 6 10 3 20 -12 114 61
106 82 -3 7 0 12 7 10 7 -1 11 6 11 15 -1 10 2 16 6 13 4 -3 13 9 19 25 7 22
7 29 -1 24 -7 -5 -8 -3 -2 7 12 20 12 51 0 68 -9 12 -8 13 3 7 10 -6 12 -4 8
10 -4 11 -9 31 -13 46 -3 16 -11 25 -17 21 -6 -3 -7 -1 -3 5 11 19 -42 79 -90
102 -24 12 -46 25 -49 30 -9 15 -110 76 -151 93 -22 8 -61 18 -85 21 l-44 6
50 -21z"/>
<path fill="#ffffff" stroke="none" d="M2830 648 c8 -2 25 -14 38 -28 14 -14
29 -24 34 -22 5 1 7 -2 4 -7 -9 -14 5 -42 18 -34 8 4 8 2 -1 -7 -14 -15 -6
-43 10 -33 6 4 7 1 2 -6 -4 -7 -7 -44 -7 -82 0 -40 -7 -87 -16 -110 -17 -45
-64 -89 -93 -89 -13 0 -18 -4 -13 -12 5 -7 3 -8 -7 -2 -8 5 -25 10 -39 12 -35
4 -71 32 -92 74 -25 48 -29 71 -27 148 2 101 3 108 13 102 5 -3 7 5 4 16 -4
12 -2 20 2 17 8 -5 36 34 33 45 -1 3 8 7 20 7 12 1 23 6 24 10 3 8 61 8 93 1z"/>
</g>
</svg>
