<?xml version="1.0" standalone="no"?>
<!DOCTYPE svg PUBLIC "-//W3C//DTD SVG 20010904//EN"
 "http://www.w3.org/TR/2001/REC-SVG-20010904/DTD/svg10.dtd">
<svg version="1.0" xmlns="http://www.w3.org/2000/svg"
 width="317.000000pt" height="450.000000pt" viewBox="0 0 317.000000 450.000000"
 preserveAspectRatio="xMidYMid meet">
<metadata>
Created by potrace 1.16, written by Peter Selinger 2001-2019
</metadata>
<g transform="translate(0.000000,450.000000) scale(0.100000,-0.100000)"
fill="#000000" stroke="none">
<path fill="#000000" stroke="none" d="M311 4290 c-9 -7 -81 -158 -81 -172 0
-6 7 -5 17 3 15 12 16 12 8 -1 -8 -13 -7 -13 10 0 11 9 16 10 11 3 -6 -12 18
-19 47 -14 4 0 7 -3 7 -9 0 -5 7 -10 15 -10 8 0 24 -13 36 -30 12 -16 25 -27
28 -25 7 3 9 -13 11 -67 2 -55 -40 -96 -103 -101 -20 -2 -34 0 -32 4 8 12 -55
33 -67 21 -12 -12 -1 -55 13 -47 5 4 9 0 9 -7 0 -9 3 -9 10 2 6 10 10 11 10 3
0 -7 12 -13 26 -13 17 0 23 4 18 13 -5 9 -4 9 5 1 14 -13 71 3 71 19 0 4 5 5
10 2 6 -3 10 1 10 9 0 9 3 15 8 14 4 -2 7 0 7 4 0 4 8 13 18 21 11 7 20 25 20
40 1 15 5 27 9 27 8 0 5 21 -6 39 -6 10 -5 12 3 7 8 -5 7 5 -4 30 -19 47 -67
90 -114 104 -20 7 -42 13 -50 16 -11 3 -10 9 3 29 9 14 15 29 12 33 -2 4 29 6
69 4 76 -4 77 -3 89 48 1 6 -144 6 -153 0z"/>
<path fill="#000000" stroke="none" d="M965 3921 c-101 -52 -124 -185 -47
-273 8 -10 19 -15 25 -11 6 4 7 1 2 -7 -6 -10 -4 -12 10 -6 14 5 16 4 7 -7 -7
-8 -8 -17 -4 -22 4 -4 -3 -3 -14 3 -12 6 -25 8 -29 4 -5 -4 -5 -2 -2 5 9 14
-43 33 -90 33 -120 0 -201 -127 -154 -243 7 -17 15 -25 23 -21 7 4 8 3 4 -5
-13 -20 33 -54 103 -76 18 -6 22 -4 15 6 -6 11 -5 12 7 2 16 -13 62 -6 54 7
-3 5 4 6 15 3 12 -3 20 0 20 8 0 7 3 10 6 7 7 -8 48 31 63 60 7 13 10 30 7 38
-4 10 -2 12 6 8 8 -5 9 0 5 15 -4 17 -3 20 7 12 7 -6 15 -9 17 -7 2 3 3 -12 3
-32 -1 -20 4 -43 10 -51 8 -10 8 -13 0 -8 -7 4 -11 -4 -12 -21 -1 -33 -9 -76
-21 -119 -10 -36 -11 -36 47 -35 42 1 49 7 31 29 -11 13 -11 15 -1 9 11 -7 12
-4 4 10 -6 11 -10 22 -11 27 -1 4 -1 8 -2 10 0 1 -2 34 -5 72 -2 39 -6 76 -9
83 -3 7 0 10 5 7 6 -3 10 1 10 9 0 9 5 16 10 16 6 0 10 -9 10 -20 0 -12 6 -33
14 -48 15 -28 85 -98 72 -72 -4 8 0 6 8 -4 9 -11 16 -17 16 -13 0 4 10 3 21
-4 17 -9 20 -8 13 3 -6 10 -5 11 7 2 19 -14 90 1 116 26 12 10 23 17 26 14 2
-3 15 15 27 40 25 53 25 124 0 171 -41 75 -149 106 -229 65 -48 -24 -47 -24
-55 -5 -3 8 -2 14 2 13 40 -8 107 112 79 142 -9 10 -9 11 1 6 18 -10 6 38 -20
81 -45 75 -146 103 -223 64z"/>
<path fill="#000000" stroke="none" d="M2074 3915 c-42 -25 -80 -78 -68 -97 4
-7 3 -8 -4 -4 -9 5 -12 -8 -12 -44 0 -31 4 -49 10 -45 5 3 7 0 4 -9 -7 -20 14
-58 28 -50 6 4 8 3 5 -3 -8 -13 17 -36 28 -25 5 4 4 1 0 -7 -6 -11 -4 -13 10
-7 14 5 16 4 7 -7 -7 -8 -8 -17 -4 -22 4 -4 -3 -3 -14 3 -12 6 -25 8 -29 4 -5
-4 -5 -2 -2 5 8 14 -43 33 -89 33 -44 0 -83 -16 -118 -48 -46 -44 -70 -128
-44 -159 11 -14 11 -15 0 -9 -18 11 21 -66 42 -83 8 -7 20 -10 26 -6 6 4 9 1
8 -7 -2 -7 5 -12 14 -12 10 1 15 -2 12 -7 -3 -5 6 -10 20 -10 14 -1 32 -2 39
-3 6 -1 15 3 19 9 5 6 8 5 8 -4 0 -10 5 -10 25 3 14 9 25 13 25 10 0 -4 8 0
18 9 10 10 22 14 27 10 4 -5 5 -2 1 5 -4 6 -3 12 2 12 14 0 44 68 36 82 -5 7
-3 8 6 3 10 -6 12 -4 7 8 -3 10 -2 17 3 17 29 0 29 -139 1 -237 l-10 -33 40 0
c60 0 57 -3 45 55 -4 17 -9 66 -12 110 -4 63 -1 85 11 100 8 11 14 16 13 10
-5 -21 12 -76 22 -70 5 3 7 0 5 -7 -7 -18 33 -61 47 -52 7 4 8 2 4 -5 -7 -11
32 -33 47 -24 4 2 7 -2 7 -9 0 -9 3 -9 10 2 8 12 10 12 10 1 0 -10 3 -11 13
-2 10 8 17 7 25 -1 9 -9 12 -9 12 0 0 6 7 9 17 5 11 -4 14 -3 9 5 -5 8 -2 10
8 6 9 -3 16 -1 16 6 0 6 4 9 9 6 11 -7 43 29 34 38 -5 4 -1 6 7 4 8 -1 14 3
12 10 -1 6 3 12 9 12 5 0 7 5 4 10 -3 6 -2 10 4 10 6 0 9 26 8 63 -2 51 -7 69
-30 99 -31 40 -89 68 -140 68 -46 0 -78 -11 -70 -23 3 -6 1 -7 -6 -3 -6 4 -18
2 -26 -4 -8 -7 -20 -10 -26 -8 -13 4 -8 10 36 44 11 9 13 13 5 9 -8 -4 -5 2 7
12 22 19 40 72 37 111 -1 12 -2 29 -3 38 0 9 -6 12 -13 8 -7 -4 -8 -3 -4 5 9
14 -25 63 -61 86 -44 29 -131 29 -179 0z"/>
<path fill="#000000" stroke="none" d="M297 3660 c-27 -21 -41 -80 -15 -64 7
5 8 3 4 -5 -5 -7 -1 -20 8 -30 14 -15 14 -18 1 -18 -8 0 -12 4 -9 9 11 17 -63
8 -79 -10 -25 -28 -22 -78 6 -97 24 -16 77 -17 77 -2 0 4 5 5 12 1 6 -4 8 -3
5 3 -4 6 0 16 8 23 8 7 12 17 8 24 -9 15 28 -14 47 -38 20 -23 71 -30 95 -12
23 17 27 63 8 93 -14 21 -23 24 -59 21 -40 -3 -42 -2 -27 14 33 37 8 99 -43
106 -11 1 -33 -7 -47 -18z"/>
<path fill="#000000" stroke="none" d="M329 3453 c0 -15 -2 -35 -4 -45 -2 -9
5 -18 15 -21 15 -4 17 0 10 22 -4 14 -6 34 -4 43 1 10 -2 20 -7 24 -5 3 -9 -7
-10 -23z"/>
<path fill="#000000" stroke="none" d="M1525 2631 c-49 -23 -90 -65 -80 -82 5
-7 4 -10 -2 -6 -22 14 -32 -90 -10 -112 9 -11 9 -12 0 -7 -9 5 -11 2 -7 -8 3
-9 10 -14 14 -11 4 3 7 -3 6 -13 0 -9 5 -16 12 -14 8 1 11 -2 8 -7 -4 -5 4
-18 16 -28 29 -24 33 -43 8 -36 -11 3 -20 9 -20 13 0 9 -30 19 -79 27 -40 6
-110 -19 -139 -50 -49 -52 -62 -140 -29 -202 18 -35 60 -74 85 -79 9 -1 25 -6
35 -11 10 -4 24 -2 34 6 12 10 15 10 9 2 -4 -8 -1 -13 9 -13 9 0 14 3 12 8 -3
4 6 8 20 9 14 0 29 7 34 15 5 7 9 9 9 3 0 -14 70 63 71 78 2 43 19 89 19 53 0
-9 4 -15 8 -12 7 4 6 -32 -1 -181 -1 -17 -5 -29 -9 -26 -5 2 -8 -5 -8 -16 0
-12 -1 -24 -2 -28 -2 -3 3 -8 11 -11 9 -3 11 0 5 9 -6 11 -5 12 7 3 8 -5 25
-10 39 -10 26 1 29 12 15 66 -3 14 -8 54 -11 90 -3 36 -7 73 -9 83 -2 11 -1
16 2 13 3 -3 14 5 25 17 11 12 16 16 13 9 -13 -24 6 -81 35 -111 32 -32 96
-68 83 -48 -5 8 -2 8 9 -1 8 -7 26 -10 39 -8 13 3 33 5 45 5 11 1 31 11 44 24
14 12 25 20 26 17 1 -3 12 8 24 23 12 15 19 34 16 43 -3 8 -2 12 4 9 11 -7 12
76 2 113 -4 12 -20 36 -36 52 -32 34 -94 71 -80 48 6 -11 5 -11 -9 0 -27 23
-127 2 -148 -31 -4 -5 -12 0 -18 12 -7 12 -8 20 -4 19 17 -5 54 24 49 38 -3 9
-1 12 4 9 13 -8 33 43 27 67 -3 10 -1 16 4 12 13 -8 11 10 -3 25 -10 11 -10
13 0 7 6 -4 12 -2 12 3 0 6 -4 11 -10 11 -5 0 -6 7 -3 17 4 11 3 14 -5 9 -7
-4 -10 -2 -7 7 6 15 -28 56 -66 81 -42 26 -107 29 -154 7z"/>
<path fill="#000000" stroke="none" d="M995 1316 c-50 -18 -76 -36 -69 -48 4
-7 3 -8 -4 -4 -14 8 -46 -50 -36 -66 4 -7 3 -8 -4 -4 -9 5 -12 -7 -12 -39 0
-28 4 -44 10 -40 5 3 7 0 4 -9 -7 -19 12 -55 44 -83 14 -12 27 -29 28 -37 2
-14 -2 -13 -24 3 -26 18 -85 38 -107 36 -52 -5 -88 -20 -120 -52 -20 -20 -34
-42 -31 -50 3 -8 1 -11 -4 -8 -6 3 -11 -3 -11 -14 -5 -72 -5 -87 -1 -98 2 -7
8 -10 13 -7 5 3 6 -1 4 -9 -7 -17 33 -69 46 -61 5 3 8 2 7 -3 -2 -4 1 -8 5 -8
4 0 11 -5 15 -12 4 -6 20 -14 35 -17 14 -2 31 -7 36 -10 5 -4 12 -2 16 4 4 6
11 8 16 5 12 -8 80 25 73 36 -3 5 1 7 8 4 17 -7 58 55 61 92 2 34 22 41 25 9
4 -37 7 -51 16 -65 6 -9 5 -12 -1 -8 -6 4 -10 -9 -11 -31 -1 -20 -8 -62 -15
-92 l-13 -56 49 -2 c46 -1 49 0 43 21 -3 12 -6 28 -6 35 0 8 -5 10 -12 6 -9
-5 -9 -2 1 9 7 9 10 17 5 17 -11 0 -16 91 -9 146 7 49 30 55 31 8 1 -41 42
-96 87 -118 39 -18 127 -22 127 -5 0 5 4 8 8 5 15 -9 84 45 78 60 -3 9 -1 12
4 9 14 -9 30 38 30 86 0 132 -132 212 -255 153 -21 -10 -32 -21 -28 -28 4 -6
-1 -5 -10 3 -16 13 -15 16 14 40 35 28 64 85 53 103 -4 7 -3 8 4 4 18 -11 6
67 -16 111 -34 65 -129 103 -197 79z"/>
<path fill="#000000" stroke="none" d="M2105 1314 c-126 -43 -156 -207 -53
-295 28 -24 29 -26 12 -40 -10 -7 -15 -9 -11 -3 10 17 -57 46 -107 47 -91 1
-167 -69 -171 -159 -3 -52 4 -86 15 -79 4 3 7 -3 6 -13 0 -9 4 -16 11 -15 8 2
10 -4 6 -14 -5 -12 -2 -15 10 -10 12 4 14 2 10 -10 -5 -13 -2 -15 11 -10 10 4
15 3 11 -3 -6 -9 8 -14 28 -11 4 0 7 -4 7 -10 0 -7 10 -9 25 -7 14 3 25 1 25
-4 0 -5 6 -6 13 -1 6 4 23 8 35 9 13 0 28 7 33 15 4 8 12 14 16 14 4 0 7 4 5
8 -1 5 2 6 7 3 13 -8 53 44 46 61 -2 8 0 11 5 8 9 -5 15 22 11 50 -1 6 6 1 14
-9 8 -11 15 -27 16 -35 1 -9 2 -25 3 -36 0 -11 -2 -35 -5 -52 -5 -23 -4 -31 5
-26 6 4 5 -1 -2 -10 -8 -9 -15 -34 -15 -56 -1 -21 -5 -37 -9 -34 -5 2 -8 0 -8
-5 0 -6 23 -10 50 -10 49 -1 50 0 44 26 -3 15 -6 33 -6 40 -1 6 -4 12 -7 12
-6 0 -10 42 -11 116 -1 32 17 90 25 82 2 -2 5 -18 7 -36 1 -18 6 -32 10 -32 4
0 8 -6 8 -13 0 -18 35 -49 44 -40 4 5 6 1 4 -7 -2 -9 4 -14 14 -14 10 1 15 -2
12 -7 -3 -5 3 -10 13 -11 33 -2 38 -3 51 -11 6 -5 12 -4 12 2 0 6 7 8 15 5 8
-4 23 0 32 7 14 12 16 12 8 0 -4 -8 12 0 38 17 32 23 50 44 62 77 59 153 -86
288 -234 219 -28 -13 -51 -22 -52 -21 -6 17 -5 36 2 31 14 -8 40 16 32 29 -3
6 -1 7 5 3 12 -7 35 27 25 38 -3 3 -1 6 5 6 7 0 11 3 11 8 -1 4 0 9 1 12 7 17
5 70 -2 70 -5 0 -6 5 -3 10 17 28 -64 118 -115 127 -49 9 -72 9 -105 -3z"/>
<path fill="#000000" stroke="none" d="M2806 1113 c-9 -9 -7 -25 2 -19 11 6 2
-77 -10 -89 -6 -6 -7 -4 -3 7 9 23 -29 58 -63 58 -55 0 -80 -60 -46 -109 14
-19 22 -22 56 -17 36 5 39 4 27 -10 -16 -20 -24 -68 -10 -59 6 3 8 0 5 -8 -7
-20 33 -47 60 -40 11 2 26 5 33 5 7 1 10 5 7 10 -3 4 -1 8 4 8 16 0 21 40 10
66 -6 13 -15 24 -20 24 -4 0 -8 5 -8 11 0 8 4 8 14 0 17 -14 72 -8 69 7 -2 6
3 9 11 6 12 -5 25 22 26 52 0 21 -41 54 -69 54 -29 0 -61 -26 -61 -50 0 -7 -3
-11 -6 -8 -10 10 -11 42 -3 70 7 25 -10 46 -25 31z"/>
<path fill="#000000" stroke="none" d="M2785 675 c-62 -27 -108 -92 -107 -154
1 -45 19 -94 32 -86 6 4 7 -1 3 -11 -5 -13 -3 -16 10 -11 12 4 14 2 10 -11 -3
-9 -3 -14 1 -10 5 4 17 -2 28 -12 11 -10 38 -22 59 -25 44 -8 44 -7 25 -43
-14 -26 -18 -28 -81 -27 -63 1 -68 -1 -81 -26 l-14 -28 84 -3 c46 -2 82 0 80
4 -2 4 1 10 7 13 5 4 8 14 4 23 -3 9 -3 13 1 9 7 -6 64 102 64 121 0 4 -10 8
-22 9 -90 4 -168 70 -168 140 0 46 22 82 57 95 18 6 29 16 26 21 -5 8 5 4 56
-22 54 -29 93 -15 65 24 -17 24 -95 30 -139 10z"/>
</g>
</svg>
