<?xml version="1.0" standalone="no"?>
<!DOCTYPE svg PUBLIC "-//W3C//DTD SVG 20010904//EN"
 "http://www.w3.org/TR/2001/REC-SVG-20010904/DTD/svg10.dtd">
<svg version="1.0" xmlns="http://www.w3.org/2000/svg"
 width="318.000000pt" height="450.000000pt" viewBox="0 0 318.000000 450.000000"
 preserveAspectRatio="xMidYMid meet">
<metadata>
Created by potrace 1.16, written by Peter Selinger 2001-2019
</metadata>
<g transform="translate(0.000000,450.000000) scale(0.100000,-0.100000)"
fill="#000000" stroke="none">
<path fill="#000000" stroke="none" d="M315 4302 c-60 -13 -98 -71 -85 -129 9
-40 38 -76 53 -66 5 3 7 1 4 -4 -8 -13 17 -36 28 -25 4 4 -14 -15 -41 -43 -52
-52 -62 -83 -44 -130 6 -15 14 -23 20 -20 6 4 7 -1 3 -12 -3 -10 -3 -15 2 -11
4 4 13 1 20 -8 15 -21 101 -26 136 -8 59 30 89 108 57 143 -11 11 -10 12 2 6
13 -8 13 -7 0 10 -20 26 -73 75 -81 75 -3 0 -6 7 -6 15 0 8 3 12 6 10 4 -2 21
9 39 23 60 49 51 137 -15 163 -32 12 -71 16 -98 11z"/>
<path fill="#ffffff" stroke="none" d="M392 4276 c33 -15 44 -89 18 -120 -5
-7 -8 -16 -5 -19 3 -4 2 -5 -1 -2 -4 2 -13 -2 -21 -10 -20 -21 -26 -19 -63 18
-30 31 -70 105 -50 92 5 -3 11 4 15 15 3 11 11 20 16 20 6 0 8 3 5 8 -6 9 63
8 86 -2z"/>
<path fill="#ffffff" stroke="none" d="M378 4012 c21 -20 43 -46 49 -57 15
-28 7 -67 -18 -87 -26 -22 -82 -23 -99 -3 -7 8 -16 12 -21 9 -5 -3 -6 3 -2 12
4 11 2 15 -4 11 -10 -6 -11 69 -2 102 6 20 32 49 46 50 6 1 29 -16 51 -37z"/>
<path fill="#000000" stroke="none" d="M943 3920 c-47 -21 -88 -64 -78 -81 5
-7 4 -10 -2 -6 -13 8 -23 -25 -23 -73 1 -45 42 -125 63 -124 9 1 15 -2 12 -6
-3 -5 -1 -11 5 -15 6 -4 8 -10 5 -15 -3 -5 -21 0 -41 12 -46 27 -111 31 -160
8 -46 -21 -68 -44 -87 -90 -12 -31 -13 -52 -8 -116 0 -9 6 -12 13 -8 7 4 8 3
4 -5 -10 -16 22 -64 36 -55 6 4 8 3 5 -3 -4 -6 5 -19 19 -28 18 -11 24 -12 18
-4 -6 11 -5 11 9 0 25 -20 97 -27 97 -9 0 10 3 9 10 -2 7 -11 10 -11 10 -2 0
7 4 11 9 8 4 -3 30 15 57 40 27 25 44 43 37 40 -7 -4 -6 5 4 25 13 26 14 36 4
53 -10 17 -9 17 9 -3 19 -22 25 -40 21 -70 -2 -8 2 -10 10 -5 8 5 9 3 3 -7 -4
-8 -9 -18 -10 -24 -12 -79 -16 -114 -17 -137 -1 -14 -5 -24 -9 -21 -5 2 -8 0
-8 -5 0 -6 24 -9 54 -9 45 1 53 4 47 17 -10 20 -22 73 -27 130 -2 25 -6 51 -9
58 -2 6 -1 12 3 12 4 0 9 9 10 20 4 43 6 49 14 44 4 -3 8 -16 8 -30 0 -17 4
-23 12 -18 7 4 8 3 4 -5 -13 -21 55 -107 75 -95 5 3 9 0 9 -6 0 -7 7 -10 15
-6 8 3 15 2 15 -2 0 -12 78 -14 85 -2 3 6 11 8 16 5 5 -4 9 -1 9 5 0 6 5 8 10
5 6 -3 13 1 16 9 3 9 10 14 15 11 12 -8 42 42 33 56 -4 7 -3 9 3 6 13 -8 23
25 23 75 0 43 -9 70 -21 62 -5 -3 -6 1 -3 9 6 18 -56 79 -74 72 -7 -2 -10 -1
-7 4 3 6 -15 13 -39 16 -48 8 -106 -7 -131 -31 -12 -13 -16 -12 -26 7 -7 14
-7 19 0 15 31 -20 104 116 77 145 -8 9 -8 10 3 4 11 -6 13 -4 7 11 -4 10 -10
28 -12 39 -6 33 -38 68 -84 92 -35 19 -46 21 -58 10 -10 -7 -13 -7 -9 -1 10
18 -36 14 -80 -6z"/>
<path fill="#000000" stroke="none" d="M2113 3920 c-47 -21 -88 -64 -78 -81 5
-7 4 -10 -2 -6 -22 14 -32 -90 -10 -112 9 -11 9 -12 0 -7 -9 5 -11 2 -7 -8 3
-9 10 -14 14 -11 4 3 7 -3 6 -13 0 -10 5 -16 14 -14 8 2 12 0 7 -4 -4 -4 7
-22 24 -40 29 -30 25 -38 -11 -24 -3 1 -9 2 -13 1 -5 -1 -6 3 -3 8 15 23 -105
34 -154 14 -71 -29 -111 -94 -104 -169 4 -52 30 -108 46 -98 7 4 8 3 4 -4 -8
-13 52 -54 66 -46 4 3 8 0 8 -5 0 -6 5 -11 11 -11 5 0 7 6 3 13 -6 9 -4 9 8
-1 8 -7 26 -10 39 -8 13 3 30 5 37 5 7 1 10 5 7 11 -3 6 1 7 9 4 23 -9 83 58
96 107 16 60 30 38 32 -51 0 -25 -2 -61 -5 -80 -14 -73 -18 -94 -23 -101 -2
-4 18 -7 46 -6 40 2 50 5 50 20 0 9 -4 17 -9 17 -4 0 -7 11 -6 25 2 14 0 25
-3 25 -9 0 -14 94 -9 163 3 31 27 31 27 0 0 -16 4 -22 12 -17 7 4 8 3 4 -4
-14 -22 55 -109 76 -96 4 3 8 1 8 -4 0 -6 7 -13 16 -16 10 -4 13 -2 8 7 -5 9
-4 9 7 0 7 -7 24 -13 37 -13 16 0 21 4 16 13 -5 9 -4 9 6 0 10 -9 20 -8 44 4
17 9 34 21 38 27 4 6 11 9 15 6 11 -8 45 57 53 101 4 22 3 42 -1 45 -5 3 -7
10 -4 15 11 16 -38 89 -73 110 -63 37 -156 34 -197 -7 -12 -13 -16 -12 -26 7
-6 12 -7 19 -1 15 11 -7 42 19 65 54 19 29 25 90 13 137 -15 62 -113 136 -145
110 -10 -8 -13 -9 -8 -1 10 18 -36 14 -80 -6z"/>
<path fill="#000000" stroke="none" d="M302 3669 c-28 -11 -44 -49 -28 -68 8
-11 8 -13 -1 -7 -9 5 -11 2 -7 -8 3 -9 10 -13 15 -10 5 3 8 0 7 -8 -2 -7 3
-12 10 -10 8 1 11 -2 7 -8 -4 -7 -12 -7 -25 0 -26 14 -63 13 -54 -2 5 -7 3 -8
-5 -4 -7 5 -18 0 -26 -10 -32 -42 -7 -98 45 -102 35 -3 64 14 53 31 -3 6 -1 7
5 3 8 -4 12 0 12 11 0 13 2 15 9 5 4 -7 5 -31 1 -53 -7 -39 1 -56 21 -44 6 4
7 14 4 24 -12 28 -11 78 1 78 7 0 10 -7 6 -15 -4 -11 -1 -13 8 -7 8 5 11 4 6
-3 -12 -20 33 -41 66 -31 40 11 41 12 43 56 2 27 -3 43 -18 55 -23 20 -58 23
-74 7 -8 -8 -13 -7 -18 2 -6 8 -4 10 5 4 10 -6 12 -4 7 9 -4 10 -3 15 3 11 18
-11 23 44 6 70 -9 14 -20 25 -24 26 -4 0 -14 2 -22 3 -8 2 -25 0 -38 -5z"/>
<path fill="#000000" stroke="none" d="M1535 3286 c-41 -18 -89 -71 -80 -87 5
-8 4 -10 -3 -5 -13 8 -14 4 -17 -59 -2 -48 13 -97 28 -88 6 3 7 1 3 -6 -10
-15 13 -43 27 -34 6 3 7 1 3 -5 -6 -11 5 -16 26 -13 4 0 5 -6 2 -14 -8 -19 -9
-19 -61 6 -110 53 -236 -18 -247 -138 -3 -44 17 -109 33 -106 5 2 8 -3 5 -10
-6 -15 38 -49 85 -65 42 -15 44 -15 35 1 -6 10 -4 10 7 0 7 -7 17 -13 22 -13
4 0 5 6 1 13 -6 9 -4 9 8 -1 13 -10 18 -10 30 0 7 7 20 14 28 16 22 5 41 23
34 33 -3 5 0 8 7 7 16 -4 41 42 35 65 -2 9 0 15 5 11 5 -3 9 1 9 9 0 7 6 14
14 14 8 0 11 -8 8 -19 -2 -10 1 -24 7 -31 6 -8 8 -17 4 -20 -3 -4 -7 -24 -9
-44 -1 -21 -5 -51 -9 -68 -18 -90 -18 -91 4 -92 14 -1 19 2 15 10 -5 8 -3 8 7
0 7 -7 17 -13 22 -13 4 0 5 6 1 13 -5 7 -1 6 10 -3 17 -13 17 -12 11 25 -4 22
-9 51 -11 65 -3 14 -7 49 -9 78 -3 29 -8 58 -11 64 -5 7 -2 8 6 3 10 -6 12 -4
7 8 -4 10 -2 17 4 17 6 0 8 7 5 16 -3 8 -2 13 3 10 5 -3 11 -23 14 -43 8 -45
34 -86 49 -77 6 4 8 2 5 -3 -9 -14 19 -37 34 -27 7 4 9 3 6 -3 -4 -6 6 -16 23
-22 24 -8 29 -7 24 2 -5 9 -3 9 7 0 7 -7 17 -13 22 -13 4 0 5 6 1 13 -5 9 -4
9 6 0 9 -8 19 -9 32 -2 10 5 18 6 18 2 0 -4 7 1 16 12 8 11 16 18 17 15 1 -2
13 3 27 13 13 9 20 17 15 17 -5 0 -1 6 9 13 10 7 18 28 19 49 1 20 6 34 10 31
7 -4 6 5 -7 65 -14 62 -82 116 -155 121 -44 3 -125 -25 -116 -39 3 -5 -4 -6
-15 -3 -20 5 -19 7 8 32 63 58 83 133 55 201 -18 44 -63 92 -81 85 -7 -2 -11
-1 -8 4 14 21 -95 27 -139 7z"/>
<path fill="#000000" stroke="none" d="M965 2636 c-77 -28 -115 -76 -119 -153
-3 -52 16 -110 34 -105 6 1 9 -2 6 -6 -7 -12 28 -44 39 -35 4 5 5 2 1 -4 -4
-8 -2 -13 6 -13 10 0 10 -2 -1 -9 -9 -6 -25 -2 -45 10 -111 65 -258 -17 -258
-144 -1 -48 17 -101 31 -93 5 3 8 -2 7 -11 -1 -20 62 -66 81 -58 8 2 11 0 8
-5 -4 -6 12 -10 39 -10 25 0 46 4 46 10 0 5 7 7 15 4 8 -4 15 -1 15 6 0 6 4 9
8 6 19 -11 100 91 89 112 -3 4 -2 15 2 25 5 14 9 11 22 -17 9 -20 14 -34 10
-32 -3 2 -6 -12 -5 -32 1 -19 -5 -67 -12 -106 -8 -39 -14 -73 -14 -76 0 -3 24
-6 53 -7 28 -1 47 1 40 4 -7 2 -9 11 -7 18 3 8 2 20 -2 27 -7 12 -14 47 -16
88 0 8 -6 21 -12 29 -8 11 -8 13 2 7 6 -4 12 -3 12 3 0 5 -6 12 -12 14 -10 4
-9 6 1 6 11 1 11 4 0 18 -12 14 -12 16 0 8 10 -6 13 -4 9 6 -3 8 0 23 7 32 11
15 13 14 19 -15 8 -42 48 -99 64 -93 7 3 10 1 7 -5 -7 -11 29 -32 39 -23 3 3
6 1 6 -6 0 -9 15 -12 48 -10 56 3 94 18 85 33 -4 6 2 4 13 -4 10 -8 16 -11 12
-6 -4 4 6 21 22 36 35 35 55 97 37 119 -10 12 -9 13 2 6 11 -6 13 -4 8 9 -4
10 -7 24 -7 32 0 9 -5 12 -12 8 -7 -4 -8 -3 -4 5 11 17 -28 66 -67 84 -47 23
-101 31 -91 15 6 -10 5 -11 -8 -1 -12 11 -23 9 -62 -11 -25 -13 -49 -20 -52
-15 -8 13 6 30 18 23 7 -5 9 -1 5 9 -4 11 -2 14 8 11 22 -9 48 54 49 117 1 44
-4 63 -26 96 -41 62 -127 93 -193 69z"/>
<path fill="#000000" stroke="none" d="M2125 2634 c-45 -15 -79 -46 -99 -89
-18 -37 -22 -120 -6 -110 6 3 7 -1 4 -9 -12 -30 50 -104 80 -97 5 1 4 -5 -3
-13 -11 -13 -18 -12 -59 9 -37 19 -50 21 -61 12 -12 -9 -13 -9 -7 1 5 9 1 11
-16 8 -13 -3 -31 -5 -41 -5 -11 -1 -15 -6 -11 -13 4 -7 3 -8 -4 -4 -27 17
-111 -77 -98 -110 3 -8 2 -13 -3 -9 -5 3 -8 -12 -6 -32 2 -21 3 -44 4 -51 1
-7 6 -10 13 -6 7 4 8 3 4 -5 -10 -16 22 -64 36 -55 6 4 8 3 5 -3 -22 -35 128
-65 183 -38 48 25 100 101 95 138 -2 9 1 17 6 17 5 0 9 -5 9 -11 0 -5 3 -8 8
-6 4 3 7 -32 7 -78 0 -46 -2 -82 -5 -80 -3 2 -10 -21 -16 -51 l-10 -54 39 0
c28 0 36 3 31 13 -5 8 -2 8 9 -2 20 -16 20 -13 3 62 -8 31 -12 57 -9 57 3 0
-1 8 -8 17 -8 9 -9 14 -4 11 6 -4 10 17 10 57 -1 51 2 62 15 60 9 -1 14 -10
12 -25 -2 -14 0 -20 7 -16 7 4 9 1 5 -8 -7 -18 25 -68 39 -59 6 3 7 1 3 -5 -8
-14 30 -36 46 -26 7 4 8 3 4 -4 -4 -7 -6 -12 -4 -12 79 -11 120 -11 113 0 -5
9 -4 11 3 6 28 -17 105 54 117 108 33 143 -92 256 -234 211 -12 -3 -19 -11
-15 -16 3 -5 2 -8 -3 -7 -4 1 -18 -4 -31 -11 -22 -12 -23 -11 -13 7 6 11 7 23
3 27 -4 5 -2 5 4 2 12 -7 56 38 47 47 -4 3 -1 6 6 6 8 0 11 6 7 16 -4 10 -2
13 6 8 7 -5 9 1 6 19 -3 15 -1 24 3 21 13 -8 11 10 -3 25 -11 11 -10 12 1 6
10 -6 12 -2 6 16 -34 112 -130 168 -230 133z"/>
<path fill="#000000" stroke="none" d="M1540 1994 c-71 -31 -101 -76 -105
-154 -3 -48 28 -125 46 -115 5 4 8 1 7 -7 -2 -7 3 -12 10 -10 8 1 11 -2 6 -9
-5 -9 -2 -10 9 -6 11 4 14 2 10 -9 -7 -18 -13 -18 -53 2 -142 71 -297 -59
-245 -206 7 -19 18 -34 25 -32 6 1 8 -2 5 -9 -8 -12 29 -51 39 -42 3 4 6 1 6
-6 0 -8 6 -11 16 -7 8 3 13 2 10 -3 -9 -14 31 -20 45 -7 9 8 10 8 5 -2 -5 -9
1 -12 23 -10 17 1 31 6 31 11 0 4 4 6 9 3 11 -7 87 48 101 74 6 11 8 26 4 32
-5 7 -3 8 6 3 10 -6 12 -2 8 18 -3 15 0 28 7 31 6 2 12 -1 13 -7 1 -7 3 -33 5
-58 2 -25 7 -52 12 -59 5 -9 4 -11 -3 -6 -8 5 -12 -3 -12 -23 0 -17 1 -32 2
-33 1 -2 -4 -14 -11 -27 -11 -19 -11 -22 1 -15 10 6 11 5 2 -7 -18 -24 -24
-49 -11 -46 7 1 15 7 19 12 5 6 8 5 8 -2 0 -7 5 -13 11 -13 5 0 7 5 3 12 -5 7
-3 8 7 2 27 -16 39 -13 37 12 -1 13 -5 24 -8 24 -3 0 -6 17 -7 38 -4 59 -7 77
-18 84 -7 5 -7 8 0 8 6 0 10 22 10 49 -1 60 15 62 32 4 7 -23 26 -54 42 -69
33 -30 96 -62 85 -41 -5 9 -3 9 7 0 17 -17 73 -18 63 -1 -4 7 -3 8 4 4 32 -20
131 66 117 102 -3 7 -1 11 4 8 14 -9 20 31 7 45 -8 9 -8 10 3 4 10 -6 11 -2 6
15 -4 12 -8 28 -10 34 -13 62 -76 115 -146 123 -43 5 -133 -22 -124 -37 3 -4
-5 -6 -16 -3 -20 6 -20 7 11 35 56 48 85 132 58 166 -10 12 -10 14 0 8 18 -11
-6 42 -32 72 -46 53 -135 74 -196 46z"/>
<path fill="#000000" stroke="none" d="M929 1299 c-49 -29 -81 -80 -87 -141
-3 -36 -2 -49 6 -44 8 4 10 2 6 -8 -8 -20 24 -78 38 -70 6 4 8 3 4 -4 -3 -6 2
-17 11 -24 38 -28 21 -36 -24 -12 -153 81 -314 -68 -241 -223 43 -92 164 -125
248 -69 42 27 75 79 64 98 -4 7 -3 8 4 4 8 -5 12 1 12 18 0 40 15 38 19 -2 8
-86 -4 -209 -24 -242 -6 -10 28 -15 70 -10 27 3 29 6 20 27 -5 10 -7 22 -6 27
1 5 -1 16 -5 25 -12 26 -14 181 -3 181 6 0 7 5 3 12 -4 7 -3 8 4 4 7 -4 12
-15 12 -25 0 -9 6 -23 13 -30 10 -11 9 -12 -2 -6 -9 5 -7 -3 6 -21 26 -36 63
-70 63 -58 0 5 4 3 8 -4 15 -23 126 -35 141 -15 3 4 13 9 21 11 8 2 17 8 18
13 2 5 8 7 13 3 5 -3 9 2 9 10 0 9 4 16 10 16 5 0 17 16 25 36 17 42 20 134 4
134 -5 0 -7 5 -4 10 3 6 1 10 -6 10 -7 0 -10 3 -6 6 9 9 -26 44 -65 65 -48 25
-113 24 -161 -1 -44 -24 -47 -24 -47 -5 0 8 7 15 15 15 9 0 20 11 27 25 6 13
16 22 22 18 6 -3 8 -3 4 1 -3 4 0 22 7 40 11 26 11 36 2 46 -9 10 -9 11 1 6 9
-6 11 0 7 24 -9 49 -31 86 -72 117 -48 37 -131 42 -184 12z"/>
<path fill="#000000" stroke="none" d="M2105 1303 c-48 -26 -92 -83 -79 -104
4 -8 3 -9 -4 -5 -9 5 -12 -7 -12 -39 0 -28 4 -44 10 -40 5 3 7 0 4 -9 -7 -18
24 -79 37 -71 5 4 8 1 7 -7 -2 -7 3 -12 10 -10 8 1 11 -2 8 -7 -4 -5 0 -11 6
-14 7 -2 10 -8 6 -12 -4 -4 -27 3 -52 15 -75 36 -152 23 -207 -37 -40 -42 -58
-114 -37 -141 9 -11 9 -14 1 -9 -9 6 -10 1 -2 -22 13 -37 62 -89 97 -102 34
-14 116 -13 120 1 2 5 8 7 13 4 12 -7 41 15 34 26 -3 4 3 7 12 6 16 -1 54 53
46 67 -2 4 1 7 6 7 6 0 10 3 10 8 -1 4 -1 18 0 32 l2 25 11 -25 c17 -41 12
-158 -11 -237 -8 -29 -7 -31 17 -35 51 -6 72 1 67 25 -3 12 -8 36 -11 52 -12
53 -14 185 -3 185 6 0 7 6 3 13 -5 8 -4 9 4 2 7 -6 13 -24 14 -39 3 -30 62
-104 88 -108 8 -2 17 -6 20 -10 3 -4 18 -9 33 -12 19 -3 25 -1 20 7 -4 7 0 6
10 -2 12 -9 17 -10 17 -2 0 7 4 10 10 6 12 -7 101 35 95 45 -3 4 2 11 11 14 9
4 14 13 10 22 -3 8 -2 12 4 9 6 -3 11 -3 11 2 1 4 3 17 4 28 2 11 4 25 6 30 2
6 0 29 -4 51 -9 51 -78 129 -108 121 -10 -3 -17 -1 -13 4 6 10 -69 12 -103 3
-13 -4 -20 -11 -16 -17 3 -6 1 -7 -6 -3 -6 4 -19 2 -27 -5 -11 -9 -18 -9 -26
-1 -9 9 -9 12 1 12 7 0 9 5 5 12 -4 7 -3 8 4 4 15 -9 55 32 48 50 -3 8 -1 12
4 9 21 -13 32 98 12 126 -11 17 -12 20 -2 14 27 -17 -31 55 -63 77 -40 29
-127 34 -172 11z"/>
<path fill="#000000" stroke="none" d="M2799 1083 c4 -16 6 -34 5 -40 -1 -7
-2 -19 -3 -25 0 -7 -9 1 -19 17 -24 39 -66 44 -99 13 -23 -22 -34 -76 -11 -62
7 4 8 3 4 -5 -9 -14 12 -43 25 -35 5 3 9 0 9 -5 0 -6 5 -11 11 -11 5 0 8 4 5
8 -2 4 4 8 14 8 11 0 22 -6 25 -14 2 -7 0 -10 -5 -7 -6 3 -10 0 -11 -7 0 -7
-2 -21 -4 -30 -2 -10 6 -29 17 -43 15 -19 27 -25 47 -21 40 6 62 17 55 27 -3
5 -1 9 3 9 17 0 12 47 -8 68 -22 24 -21 26 13 13 27 -10 72 4 63 19 -4 6 -1 9
7 8 21 -5 22 55 1 77 -35 39 -87 30 -109 -18 l-15 -32 4 58 c3 49 1 57 -14 57
-14 0 -16 -5 -10 -27z"/>
<path fill="#000000" stroke="none" d="M2735 676 c-33 -14 -62 -51 -65 -82 -4
-37 0 -65 9 -60 5 3 8 -2 7 -12 0 -9 5 -16 12 -14 8 1 11 -2 7 -8 -3 -5 10
-24 29 -41 l36 -31 -33 -22 c-17 -12 -40 -37 -49 -55 -15 -29 -15 -38 -4 -65
7 -17 19 -30 25 -28 7 1 10 -2 7 -7 -8 -13 4 -19 50 -27 54 -9 76 -7 85 8 5 7
12 13 16 13 4 0 7 3 6 6 -1 4 5 6 15 5 22 -1 44 79 29 109 -16 33 -59 75 -70
68 -6 -3 -7 -1 -3 5 7 12 -33 44 -46 36 -5 -3 -7 -1 -6 5 2 5 -17 29 -42 52
-25 23 -39 38 -32 34 11 -6 12 -3 2 14 -9 17 -8 29 2 51 7 17 15 31 18 31 54
14 110 11 107 -5 -1 -6 5 -10 13 -8 8 2 12 0 7 -4 -4 -4 0 -18 9 -32 9 -13 12
-22 7 -19 -5 3 -8 -8 -7 -24 1 -17 -8 -43 -21 -64 -35 -51 -10 -55 34 -6 26
29 38 52 39 74 1 38 -25 83 -59 101 -34 17 -99 18 -134 2z"/>
<path fill="#ffffff" stroke="none" d="M2807 410 c-1 -3 13 -21 31 -39 17 -18
32 -39 32 -47 0 -10 5 -12 13 -8 9 6 9 5 0 -8 -7 -8 -11 -17 -8 -20 3 -2 -6
-15 -19 -27 -54 -51 -138 -14 -129 57 2 20 5 44 6 53 0 9 7 15 13 12 7 -2 17
4 23 15 9 17 43 28 38 12z"/>
</g>
</svg>
