<?xml version="1.0" standalone="no"?>
<!DOCTYPE svg PUBLIC "-//W3C//DTD SVG 20010904//EN"
 "http://www.w3.org/TR/2001/REC-SVG-20010904/DTD/svg10.dtd">
<svg version="1.0" xmlns="http://www.w3.org/2000/svg"
 width="318.000000pt" height="450.000000pt" viewBox="0 0 318.000000 450.000000"
 preserveAspectRatio="xMidYMid meet">
<metadata>
Created by potrace 1.16, written by Peter Selinger 2001-2019
</metadata>
<g transform="translate(0.000000,450.000000) scale(0.100000,-0.100000)"
fill="#000000" stroke="none">
<path fill="#000000" stroke="none" d="M315 4302 c-50 -11 -112 -84 -102 -122
3 -11 1 -18 -4 -15 -4 3 -6 -14 -4 -37 5 -44 35 -95 54 -90 6 1 10 -3 8 -9 -3
-16 70 -31 88 -18 6 4 23 12 37 18 l27 10 -16 -36 c-8 -20 -21 -46 -29 -58 -8
-12 -11 -25 -7 -29 5 -4 3 -6 -2 -4 -6 2 -22 -8 -35 -20 -25 -24 -58 -40 -94
-48 -10 -2 -21 -6 -25 -10 -5 -5 25 -3 97 8 6 1 12 5 12 10 0 4 7 8 15 8 8 0
15 5 15 12 0 6 2 9 5 6 12 -11 84 69 105 117 13 28 25 76 27 108 9 122 -75
219 -172 199z"/>
<path fill="#ffffff" stroke="none" d="M378 4272 c2 -7 8 -10 13 -6 5 3 8 2 7
-3 -3 -13 13 -54 20 -49 4 2 7 -30 7 -71 0 -62 -4 -77 -20 -89 -10 -8 -26 -14
-34 -15 -9 0 -26 -2 -38 -3 -13 -2 -21 -1 -19 2 7 6 -38 47 -48 44 -5 -2 -4 4
4 12 7 9 8 16 3 16 -5 0 -8 17 -8 38 0 20 -4 45 -8 56 -6 12 -5 16 1 12 5 -3
15 8 22 24 7 17 17 30 22 30 5 0 7 3 4 8 -2 4 12 7 32 7 20 -1 38 -7 40 -13z"/>
<path fill="#000000" stroke="none" d="M881 3918 c-48 -24 -84 -69 -85 -108
-1 -15 -4 -26 -9 -23 -8 5 1 -60 13 -93 13 -33 42 -64 53 -57 6 3 7 1 3 -5 -7
-11 6 -17 28 -13 5 1 4 -5 -4 -13 -11 -14 -16 -14 -47 5 -38 24 -111 32 -152
18 -65 -23 -111 -91 -111 -164 0 -49 25 -110 40 -100 6 3 7 0 4 -8 -3 -8 6
-21 20 -31 15 -9 26 -13 26 -9 0 5 4 2 9 -6 15 -24 121 -19 169 7 22 13 73 84
71 99 -1 5 -1 17 0 28 2 20 2 20 16 1 11 -14 13 -39 10 -95 -4 -73 -6 -86 -20
-141 -6 -25 -5 -26 43 -26 45 -1 49 1 44 20 -3 12 -10 27 -16 35 -9 12 -8 13
3 6 10 -6 12 -4 6 5 -7 11 -14 49 -17 90 0 8 -6 21 -12 29 -8 11 -8 13 1 8 8
-5 11 4 9 33 -2 21 1 37 6 34 4 -3 8 3 8 12 0 24 8 14 14 -18 7 -41 36 -89 48
-82 6 4 8 3 5 -3 -9 -14 19 -37 34 -27 7 4 9 3 6 -3 -10 -15 40 -30 88 -27 57
3 57 3 50 14 -3 5 0 7 8 4 15 -5 64 37 86 76 16 28 24 120 10 120 -5 0 -6 7
-3 15 4 8 1 15 -7 15 -7 0 -10 3 -6 6 9 10 -36 55 -73 73 -52 25 -104 26 -151
2 -22 -12 -44 -21 -49 -21 -17 0 -11 18 8 24 32 10 67 85 68 144 0 28 -3 52
-8 52 -5 0 -7 4 -3 9 8 14 -53 81 -84 93 -48 19 -108 17 -150 -4z"/>
<path fill="#000000" stroke="none" d="M2122 3919 c-42 -21 -88 -81 -76 -100
4 -8 3 -9 -4 -5 -18 11 -15 -77 3 -120 8 -20 19 -33 25 -29 5 3 7 0 4 -8 -6
-16 21 -41 35 -33 5 3 8 -2 7 -11 -3 -19 -6 -19 -49 3 -112 59 -247 -16 -253
-140 -2 -40 3 -62 20 -92 13 -21 28 -38 35 -36 7 1 10 -2 7 -7 -7 -10 8 -22
47 -39 23 -10 27 -10 21 0 -6 10 -5 10 8 0 8 -7 26 -10 39 -8 13 3 32 5 41 5
9 1 24 8 32 17 9 8 16 13 16 10 0 -3 11 4 25 16 13 11 22 25 19 30 -3 4 -1 8
5 8 10 0 18 20 26 61 2 12 7 24 9 27 6 5 21 -73 20 -98 -3 -45 -18 -135 -29
-170 -5 -16 1 -18 45 -18 49 -1 50 0 44 26 -3 15 -6 33 -6 40 -1 6 -4 12 -8
12 -7 0 -10 167 -3 186 5 15 24 20 22 7 -4 -22 2 -43 10 -39 5 4 7 -2 5 -12
-3 -10 8 -31 25 -51 17 -19 31 -31 31 -27 0 4 7 0 16 -8 8 -9 23 -16 32 -17
77 -5 95 -4 122 7 16 7 30 18 30 24 0 6 4 9 8 6 15 -9 54 64 60 109 12 109
-66 195 -174 190 -71 -3 -76 -4 -69 -15 4 -6 -1 -7 -11 -3 -10 4 -15 2 -11 -3
3 -5 -5 -11 -17 -12 -14 -1 -23 4 -23 13 0 8 3 12 6 10 9 -5 34 17 59 52 25
35 30 113 10 160 -15 36 -69 85 -86 78 -7 -3 -10 0 -7 5 3 6 -2 11 -12 11 -10
1 -35 3 -56 4 -21 1 -53 -6 -75 -16z"/>
<path fill="#000000" stroke="none" d="M285 3659 c-29 -24 -34 -69 -9 -94 15
-14 13 -15 -23 -9 -51 8 -79 -21 -74 -76 2 -28 18 -42 55 -47 35 -5 66 12 66
36 0 5 4 13 10 16 6 4 8 -15 5 -49 -3 -46 -1 -54 13 -51 9 1 15 9 13 16 -9 30
-9 99 0 93 5 -3 7 -9 4 -13 -8 -14 30 -50 58 -55 19 -3 31 1 40 15 8 10 17 16
20 12 4 -3 7 0 8 8 0 8 2 22 4 33 2 10 -8 30 -21 43 -21 21 -32 24 -61 20 -33
-6 -34 -5 -19 12 23 26 21 78 -5 91 -36 20 -57 19 -84 -1z"/>
<path fill="#000000" stroke="none" d="M902 3057 c-46 -14 -100 -71 -109 -115
-10 -53 -10 -53 3 -100 14 -49 41 -85 57 -75 6 3 7 1 3 -5 -4 -7 -2 -12 3 -12
6 0 11 -7 11 -15 0 -12 -4 -13 -19 -6 -10 6 -22 7 -26 3 -5 -4 -5 -2 -2 4 4 7
-4 15 -21 19 -51 14 -90 13 -129 -5 -45 -20 -97 -76 -89 -97 3 -8 1 -11 -4 -8
-16 10 -12 -81 5 -122 19 -44 51 -77 67 -67 7 4 8 3 4 -4 -6 -11 6 -16 27 -13
4 0 7 -3 7 -9 0 -13 106 -6 123 8 8 7 18 8 22 4 5 -4 5 1 2 10 -4 11 -2 15 7
12 22 -9 61 57 70 121 4 24 12 25 15 2 6 -36 5 -170 -1 -197 -3 -14 -9 -37
-13 -51 -6 -25 -5 -25 39 -25 24 1 48 4 52 9 4 4 3 7 -3 7 -6 0 -9 9 -5 22 3
13 1 19 -5 15 -6 -4 -8 4 -5 20 4 20 2 24 -9 18 -12 -8 -12 -6 0 8 7 9 9 17 4
17 -5 0 -8 14 -5 30 2 17 -2 38 -9 47 -11 13 -11 15 -1 9 10 -6 13 -3 11 10
-1 11 1 32 6 47 7 28 8 27 25 -22 18 -54 47 -94 62 -85 4 3 7 0 6 -8 -2 -7 5
-12 14 -12 10 1 16 -2 13 -6 -5 -8 43 -20 81 -20 13 0 24 5 24 11 0 5 4 8 9 5
14 -9 42 5 34 17 -3 6 -1 7 6 3 7 -5 24 5 41 24 28 30 34 43 31 63 0 4 4 7 10
7 8 0 7 6 -2 17 -10 11 -10 14 -1 9 20 -12 15 42 -9 92 -41 84 -142 120 -229
81 -54 -24 -78 -26 -56 -4 8 8 17 15 21 15 28 0 66 88 62 142 -5 56 -24 101
-39 92 -6 -4 -8 -3 -5 3 7 11 -15 34 -52 53 -31 16 -88 19 -129 7z"/>
<path fill="#000000" stroke="none" d="M2134 3050 c-92 -41 -128 -134 -89
-227 16 -38 49 -76 58 -67 2 3 7 -2 10 -10 8 -19 -13 -33 -23 -16 -4 7 -13 9
-20 5 -8 -5 -11 -4 -6 3 7 12 -20 23 -75 27 -25 2 -54 -4 -81 -18 -45 -23 -92
-82 -83 -104 2 -8 0 -11 -5 -8 -6 4 -10 -10 -10 -35 0 -30 3 -39 13 -34 9 6 9
4 1 -7 -9 -11 -7 -21 6 -44 10 -16 22 -29 28 -28 7 2 9 -4 5 -14 -4 -10 -2
-14 4 -10 6 4 14 0 17 -9 3 -8 10 -13 15 -10 5 4 11 1 13 -5 2 -6 27 -13 56
-14 39 -3 51 -1 45 8 -4 7 0 6 10 -2 12 -9 17 -10 17 -2 0 7 4 10 9 6 6 -3 14
3 20 12 6 10 11 15 11 10 0 -4 13 5 29 19 19 17 34 44 42 77 l13 52 11 -50 c6
-27 8 -69 5 -92 -4 -23 -6 -53 -6 -66 1 -14 -2 -23 -6 -21 -4 3 -8 -4 -8 -15
0 -10 -2 -25 -5 -33 -4 -9 8 -14 45 -16 55 -3 54 -5 33 71 -9 35 -19 167 -12
167 4 0 6 11 5 24 -2 15 1 23 8 20 7 -3 13 -12 14 -22 6 -52 28 -96 44 -86 6
4 8 3 4 -4 -8 -13 50 -56 64 -47 5 3 10 1 10 -4 0 -17 78 -13 116 5 19 9 34
21 34 26 0 5 4 7 10 3 13 -8 43 41 34 56 -4 7 -3 9 4 5 13 -8 20 15 21 77 1
27 -3 47 -10 47 -5 0 -8 4 -5 9 9 14 -57 80 -94 95 -30 11 -61 13 -118 7 -7 0
-10 -5 -7 -11 4 -6 -1 -7 -11 -3 -12 4 -15 3 -10 -5 5 -8 1 -10 -10 -5 -13 5
-16 3 -11 -10 5 -14 4 -15 -13 -4 -19 11 -19 13 16 42 23 19 36 40 37 57 1 14
5 24 8 22 17 -10 14 81 -4 120 -38 87 -138 125 -223 86z"/>
<path fill="#000000" stroke="none" d="M1502 2594 c-55 -28 -85 -77 -90 -146
-3 -43 -1 -59 7 -54 7 4 9 2 5 -8 -7 -20 14 -58 28 -50 6 4 8 3 5 -3 -8 -13
17 -36 28 -25 5 4 5 1 1 -5 -4 -7 -2 -13 4 -13 6 0 9 -4 5 -9 -3 -6 -14 -9
-25 -8 -10 1 -17 4 -14 8 5 9 -45 29 -81 30 -53 3 -76 -1 -70 -11 3 -5 0 -7
-8 -4 -21 8 -82 -57 -97 -101 -13 -40 -5 -129 11 -120 5 3 6 0 3 -8 -7 -19 65
-90 83 -82 8 2 11 0 8 -5 -6 -10 17 -14 70 -10 56 4 70 10 97 39 14 16 28 27
31 25 3 -3 9 8 15 25 6 16 8 32 5 35 -4 3 -1 6 5 6 7 0 11 3 11 8 -1 4 -1 14
0 22 1 12 4 11 12 -3 12 -21 13 -102 2 -162 -4 -22 -7 -52 -7 -67 -1 -14 -4
-24 -8 -21 -5 2 -8 0 -8 -5 0 -6 23 -12 50 -14 53 -3 58 0 38 21 -7 8 -8 11
-2 8 7 -4 6 15 -3 56 -8 34 -14 84 -14 110 1 54 18 98 31 77 5 -7 6 -19 3 -26
-7 -20 39 -96 55 -89 7 2 10 1 7 -5 -3 -5 4 -14 15 -20 11 -6 20 -7 20 -3 0 4
4 3 8 -3 8 -13 77 -25 87 -16 3 3 15 7 26 9 29 4 90 56 84 71 -3 7 -1 11 4 8
5 -3 14 8 20 26 34 98 -19 198 -119 225 -45 13 -87 7 -129 -18 -31 -19 -35
-19 -50 -4 -15 15 -15 16 1 10 12 -5 20 -1 24 9 3 9 10 13 15 10 5 -3 9 2 9
10 0 9 5 16 11 16 5 0 7 5 4 10 -3 6 -3 10 2 10 16 0 30 47 20 65 -7 13 -6 16
2 11 9 -6 10 0 5 21 -23 98 -74 145 -162 150 -39 3 -67 -2 -90 -13z"/>
<path fill="#000000" stroke="none" d="M912 2182 c-12 -2 -20 -8 -17 -13 3 -5
0 -6 -8 -3 -22 8 -85 -62 -94 -104 -10 -52 -10 -53 0 -92 12 -45 45 -92 59
-84 7 4 8 2 4 -4 -4 -7 -2 -12 3 -12 6 0 11 -7 11 -15 0 -12 -4 -13 -19 -6
-10 6 -22 7 -26 3 -5 -4 -5 -2 -2 4 4 7 -4 15 -21 19 -51 14 -90 13 -129 -5
-45 -20 -97 -76 -89 -97 3 -8 1 -11 -4 -8 -6 4 -10 -12 -10 -40 0 -72 43 -156
71 -139 8 4 9 3 5 -4 -4 -6 6 -18 23 -27 36 -18 45 -19 35 -3 -5 8 -3 8 7 2
17 -11 79 -13 79 -2 0 4 3 7 8 7 44 -7 111 73 112 134 1 21 1 21 15 3 14 -18
15 -139 2 -191 -3 -11 -8 -31 -12 -45 -6 -24 -4 -25 43 -27 l49 -1 -9 41 c-5
23 -14 50 -19 61 -6 10 -6 16 -1 12 5 -3 6 10 2 33 -6 36 -6 58 3 103 4 25 17
35 17 14 0 -9 4 -15 9 -12 5 4 7 -2 5 -11 -6 -24 33 -86 48 -77 6 4 8 3 5 -3
-9 -14 19 -37 34 -27 7 4 9 3 5 -4 -14 -23 116 -28 133 -5 3 4 13 9 21 11 24
4 82 72 76 88 -3 8 0 14 6 14 6 0 5 6 -3 17 -12 14 -12 16 0 8 21 -12 8 71
-16 97 -12 14 -13 19 -3 13 13 -8 13 -6 1 8 -7 9 -17 14 -22 11 -5 -3 -8 0 -7
7 4 18 -57 50 -104 54 -28 2 -60 -4 -91 -17 -51 -22 -69 -19 -43 7 9 9 16 13
16 9 0 -4 11 8 25 27 14 19 24 42 21 52 -2 10 0 14 6 11 7 -5 9 12 5 51 -3 32
-11 62 -19 66 -7 5 -9 9 -4 9 15 0 -36 50 -68 67 -29 15 -83 22 -124 15z"/>
<path fill="#000000" stroke="none" d="M2133 2170 c-45 -20 -97 -76 -89 -97 3
-8 1 -11 -4 -8 -15 9 -12 -88 3 -104 10 -11 9 -12 -2 -6 -19 11 17 -45 47 -72
14 -13 30 -20 36 -16 6 4 5 -1 -2 -10 -12 -15 -17 -14 -55 6 -49 25 -90 30
-134 16 -74 -24 -122 -92 -119 -169 2 -50 26 -106 44 -103 7 2 9 -4 5 -15 -3
-9 -3 -14 1 -10 5 4 17 -2 29 -12 11 -11 24 -17 29 -14 4 3 8 1 8 -4 0 -15
106 -8 124 7 9 8 16 11 16 7 0 -3 12 4 26 17 34 28 66 97 54 113 -7 7 -5 11 5
11 26 0 29 -24 22 -179 -1 -20 -5 -34 -9 -31 -5 2 -8 -5 -8 -16 0 -10 -2 -25
-5 -33 -4 -10 8 -14 46 -15 51 -2 51 -2 44 25 -4 15 -8 33 -8 40 0 8 -7 10
-16 7 -12 -5 -13 -3 -5 5 8 8 10 33 7 70 -7 73 2 127 22 127 9 0 11 -4 6 -11
-12 -15 30 -102 47 -98 8 1 11 -2 8 -7 -3 -5 2 -15 11 -22 14 -12 16 -12 9 1
-4 8 -1 7 8 -4 8 -10 19 -15 25 -11 6 3 11 1 11 -6 0 -8 5 -7 17 2 9 8 14 9
10 3 -5 -8 4 -12 28 -12 22 0 33 4 28 11 -3 6 -1 7 5 3 6 -4 22 -1 34 6 13 7
26 11 31 10 4 -1 13 9 19 23 6 14 14 25 18 25 13 0 29 67 26 112 -5 85 -84
156 -171 153 -44 -1 -105 -22 -105 -36 0 -5 -7 -6 -15 -3 -11 5 -13 10 -5 19
5 6 6 16 2 20 -4 5 -1 5 6 1 15 -9 49 25 63 63 25 63 4 153 -45 194 -51 43
-124 54 -183 27z"/>
<path fill="#000000" stroke="none" d="M885 1306 c-67 -29 -122 -136 -91 -175
8 -11 8 -13 -1 -8 -7 5 -9 0 -6 -13 3 -11 10 -17 16 -13 6 3 7 1 3 -6 -4 -6 2
-27 14 -46 19 -31 30 -39 50 -37 3 0 6 -8 6 -18 0 -17 -4 -16 -46 6 -55 30
-122 32 -170 5 -19 -11 -34 -24 -32 -30 1 -6 -3 -10 -9 -9 -18 5 -49 -64 -49
-110 0 -53 25 -116 41 -106 7 4 9 3 5 -4 -8 -14 50 -55 65 -46 8 4 9 3 5 -4
-4 -8 1 -12 13 -13 12 -1 27 -2 34 -3 6 -1 15 3 19 9 5 6 8 6 8 -2 0 -8 7 -8
29 0 17 6 27 15 24 21 -3 5 -1 6 6 2 6 -4 23 2 37 13 15 12 24 21 20 21 -3 0
3 9 15 21 17 17 18 23 7 37 -11 13 -11 14 1 7 11 -6 13 -2 9 18 -4 18 -1 24 9
20 7 -3 13 -12 13 -20 0 -8 4 -11 10 -8 5 3 8 0 6 -7 -5 -14 -18 -144 -20
-190 -1 -14 -5 -24 -9 -21 -5 3 -7 -3 -5 -13 3 -19 8 -20 79 -15 11 0 18 5 15
9 -7 12 -17 60 -22 117 -3 27 -11 56 -17 64 -9 12 -9 13 0 8 9 -6 11 2 9 27
-1 19 1 33 6 30 4 -3 8 2 8 10 0 8 4 17 8 20 5 3 8 -5 7 -17 -5 -48 46 -126
91 -141 10 -3 21 -5 24 -4 3 1 16 -4 29 -11 19 -11 22 -11 16 1 -6 10 -5 10 5
1 12 -11 20 -11 58 4 9 3 22 7 27 8 6 0 8 7 7 15 -2 8 0 12 3 8 11 -11 45 10
45 27 0 8 3 15 8 15 4 0 12 11 18 24 9 20 8 28 -5 42 -15 17 -15 17 3 3 19
-13 19 -12 13 35 -4 28 -13 53 -20 58 -6 4 -9 8 -4 8 20 0 -30 52 -69 71 -35
17 -58 20 -101 17 -32 -3 -59 -11 -64 -19 -5 -8 -9 -9 -9 -4 0 6 -5 3 -10 -5
-7 -11 -12 -12 -21 -3 -8 8 -5 15 14 28 78 51 88 183 19 252 -50 50 -133 67
-197 39z"/>
<path fill="#000000" stroke="none" d="M2118 1300 c-55 -30 -81 -73 -86 -143
-3 -43 -1 -58 7 -53 7 4 9 2 5 -8 -8 -20 14 -58 29 -50 7 4 9 3 4 -1 -9 -10
22 -47 34 -40 4 3 11 0 15 -6 5 -8 3 -9 -6 -4 -10 6 -12 4 -7 -8 5 -12 -4 -11
-40 9 -120 63 -255 -9 -259 -140 -3 -84 53 -163 121 -170 14 -1 28 -6 32 -9
11 -12 24 -7 17 6 -6 9 -5 9 7 0 11 -9 22 -7 51 7 20 10 39 15 42 12 6 -5 10
14 7 30 0 4 7 4 16 1 12 -5 15 -2 10 10 -3 9 -1 19 5 23 7 5 8 2 4 -7 -4 -8 0
-5 8 5 14 18 22 54 16 81 -1 6 4 5 10 -2 17 -16 27 -81 20 -125 -5 -25 -3 -35
4 -31 7 5 7 2 0 -8 -11 -13 -17 -33 -28 -94 -3 -18 1 -20 43 -19 44 2 46 3 43
30 -2 16 -9 35 -15 43 -9 11 -9 13 0 8 9 -6 9 1 2 25 -12 42 -7 175 6 175 6 0
12 -11 13 -24 3 -39 42 -105 58 -99 7 3 13 0 11 -7 -1 -7 6 -11 15 -11 10 1
15 -2 12 -7 -7 -13 43 -22 104 -20 22 1 31 5 26 13 -4 7 -3 8 4 4 15 -9 54 12
47 25 -4 5 -1 8 7 7 7 -2 12 3 10 10 -1 8 2 11 8 7 12 -8 33 42 24 57 -4 7 -2
8 5 4 21 -13 7 97 -18 138 -44 71 -146 97 -225 56 -22 -10 -43 -17 -47 -14
-10 6 23 42 34 37 4 -2 7 3 7 11 0 9 5 16 10 16 28 0 45 145 18 161 -7 5 -9 9
-5 9 16 0 -33 58 -65 77 -46 27 -123 28 -170 3z"/>
<path fill="#000000" stroke="none" d="M2790 1094 c0 -9 5 -12 12 -8 7 5 8 3
2 -7 -4 -8 -7 -27 -6 -44 2 -28 1 -29 -9 -8 -27 51 -109 52 -128 1 -13 -34 9
-80 42 -89 16 -4 27 -3 27 2 0 6 5 7 11 4 6 -4 17 1 25 11 14 18 14 18 4 -3
-5 -12 -15 -25 -20 -28 -17 -10 -11 -60 9 -83 55 -64 149 19 97 85 -20 26 -20
27 -1 19 11 -4 22 -8 25 -8 43 -4 82 33 75 71 -6 33 -41 62 -71 58 -32 -4 -64
-35 -57 -55 4 -10 3 -14 -2 -10 -12 11 -15 58 -5 84 8 20 6 24 -10 24 -11 0
-20 -7 -20 -16z"/>
<path fill="#000000" stroke="none" d="M2825 671 c-74 -35 -134 -106 -158
-187 -12 -40 -12 -55 -4 -64 9 -10 9 -11 0 -6 -7 4 -13 3 -13 -1 0 -5 6 -15
13 -22 7 -9 7 -11 1 -8 -9 5 -10 -2 -4 -26 11 -47 21 -68 30 -62 4 3 7 -3 6
-13 0 -9 5 -16 12 -14 8 1 11 -2 8 -7 -8 -13 20 -33 53 -37 16 -2 33 -4 38 -5
32 -6 85 31 116 81 19 31 19 115 0 152 -28 56 -89 77 -152 52 -43 -18 -42 -18
-31 10 5 13 6 27 3 30 -4 3 -1 6 5 6 7 0 12 5 12 10 0 6 8 19 18 29 36 41 47
56 44 64 -1 5 2 6 8 2 6 -4 18 -1 27 7 9 7 18 12 20 11 1 -2 4 -3 6 -2 1 0 13
3 26 5 40 7 37 14 -5 14 -21 0 -57 -9 -79 -19z"/>
<path fill="#ffffff" stroke="none" d="M2833 490 c20 12 21 12 8 -3 -13 -16
-8 -22 14 -17 6 1 7 -2 3 -6 -4 -4 -2 -14 5 -22 7 -9 12 -45 12 -89 0 -66 -3
-77 -24 -94 -28 -23 -64 -25 -84 -4 -8 8 -16 13 -18 12 -2 -1 -3 -1 -2 1 1 2
-5 20 -13 39 -16 38 -22 158 -9 171 5 4 5 1 1 -5 -4 -7 -2 -13 3 -13 6 0 11 5
11 11 0 5 5 7 10 4 6 -3 10 -2 10 4 0 6 7 7 17 4 12 -5 14 -3 8 8 -8 12 -6 12
9 0 15 -13 21 -13 39 -1z"/>
</g>
</svg>
