<?xml version="1.0" standalone="no"?>
<!DOCTYPE svg PUBLIC "-//W3C//DTD SVG 20010904//EN"
 "http://www.w3.org/TR/2001/REC-SVG-20010904/DTD/svg10.dtd">
<svg version="1.0" xmlns="http://www.w3.org/2000/svg"
 width="318.000000pt" height="450.000000pt" viewBox="0 0 318.000000 450.000000"
 preserveAspectRatio="xMidYMid meet">
<metadata>
Created by potrace 1.16, written by Peter Selinger 2001-2019
</metadata>
<g transform="translate(0.000000,450.000000) scale(0.100000,-0.100000)"
fill="#000000" stroke="none">
<path fill="#000000" stroke="none" d="M347 4235 c-10 -24 -15 -50 -11 -56 4
-7 3 -9 -3 -6 -13 8 -97 -188 -87 -204 4 -7 3 -9 -3 -6 -14 9 -37 -48 -27 -64
4 -7 3 -10 -4 -5 -6 3 -14 -3 -17 -15 -4 -11 -21 -29 -38 -40 -18 -10 -27 -19
-22 -20 6 0 20 -2 33 -3 13 -2 25 1 28 6 3 5 11 5 17 0 7 -4 26 -5 42 -1 23 5
25 7 8 8 -12 0 -25 6 -28 11 -4 6 -11 7 -17 4 -6 -4 -5 3 2 16 7 12 10 33 7
46 -4 21 -2 23 12 12 9 -7 13 -9 9 -4 -4 5 -1 21 7 36 10 19 11 30 4 37 -8 8
-7 13 2 18 7 5 10 4 5 -3 -11 -19 17 -27 94 -27 l75 0 22 -40 c31 -58 30 -93
-4 -101 -24 -7 -25 -8 -8 -14 11 -4 25 -4 31 1 6 5 15 4 22 -3 7 -7 12 -8 12
-2 0 6 -3 14 -7 18 -11 10 -12 37 -2 30 5 -3 7 -9 4 -14 -9 -15 24 -31 69 -33
25 -1 46 -1 46 0 0 1 -9 7 -21 13 -15 9 -24 8 -37 -1 -14 -11 -15 -11 -5 0 9
11 7 24 -14 60 -14 25 -25 48 -24 51 1 3 -7 25 -18 50 -11 25 -20 50 -22 55
-1 6 -9 16 -18 23 -9 8 -10 10 -3 7 12 -6 12 -3 1 16 -7 13 -12 28 -11 33 2 5
-4 6 -12 3 -9 -4 -18 -2 -21 4 -4 5 -3 8 2 7 4 -2 9 -1 11 2 6 9 -10 60 -19
60 -5 0 -8 3 -7 8 4 12 -20 72 -29 72 -4 0 -16 -20 -26 -45z"/>
<path fill="#ffffff" stroke="none" d="M387 4215 c0 -8 -4 -12 -9 -9 -5 3 -6
10 -3 15 9 13 12 11 12 -6z"/>
<path fill="#ffffff" stroke="none" d="M355 4211 c-3 -5 -1 -12 5 -16 6 -4 8
-11 4 -16 -3 -6 3 -29 14 -52 11 -23 25 -59 32 -79 8 -20 17 -35 22 -32 5 3 5
10 2 16 -5 7 -2 8 5 3 9 -5 10 -10 2 -18 -8 -8 -6 -17 7 -31 16 -20 16 -20 -2
-6 -21 16 -43 19 -67 8 -8 -3 -21 -3 -29 2 -8 5 -21 5 -30 0 -9 -5 -21 -6 -26
-2 -13 9 -27 45 -15 38 5 -3 12 1 15 10 9 24 7 36 -6 28 -7 -4 -8 -3 -4 5 4 6
11 9 15 7 4 -3 15 11 24 30 21 44 21 50 0 33 -10 -7 -5 0 10 15 20 20 25 31
18 40 -6 7 -8 16 -4 19 9 10 15 8 8 -2z"/>
<path fill="#ffffff" stroke="none" d="M405 4182 c-3 -3 0 -11 6 -19 17 -20 5
-16 -14 5 -15 16 -15 19 -2 19 8 0 13 -3 10 -5z"/>
<path fill="#ffffff" stroke="none" d="M391 4153 c13 -16 12 -17 -3 -4 -10 7
-18 15 -18 17 0 8 8 3 21 -13z"/>
<path fill="#ffffff" stroke="none" d="M414 4111 c14 -15 15 -21 4 -27 -7 -4
-10 -3 -5 1 4 5 0 17 -10 27 -9 10 -14 18 -11 18 3 0 13 -9 22 -19z"/>
<path fill="#ffffff" stroke="none" d="M500 3974 c0 -8 -19 -13 -24 -6 -3 5 1
9 9 9 8 0 15 -2 15 -3z"/>
<path fill="#ffffff" stroke="none" d="M521 3903 c13 -16 12 -17 -3 -4 -10 7
-18 15 -18 17 0 8 8 3 21 -13z"/>
<path fill="#ffffff" stroke="none" d="M515 3880 c10 -11 16 -20 13 -20 -3 0
-13 9 -23 20 -10 11 -16 20 -13 20 3 0 13 -9 23 -20z"/>
<path fill="#ffffff" stroke="none" d="M550 3844 c0 -8 -19 -13 -24 -6 -3 5 1
9 9 9 8 0 15 -2 15 -3z"/>
<path fill="#000000" stroke="none" d="M326 3628 c-10 -18 -37 -55 -59 -81
l-39 -48 22 -24 c13 -14 27 -22 33 -18 6 3 7 1 3 -6 -4 -6 9 -33 30 -62 l37
-50 21 34 c47 76 63 97 71 89 5 -4 5 -2 1 5 -3 6 1 16 10 21 16 9 15 12 -8 35
-14 14 -23 29 -19 33 3 4 -2 4 -12 1 -11 -4 -16 -3 -12 3 10 16 -15 52 -32 46
-13 -5 -14 -4 -3 9 14 17 0 21 -17 4 -8 -8 -13 -8 -18 0 -4 7 -1 10 7 9 7 -2
12 3 10 10 -1 8 2 11 9 6 8 -4 9 -3 5 4 -11 19 -20 14 -40 -20z"/>
<path fill="#ffffff" stroke="none" d="M346 3576 c3 -20 -22 -41 -31 -26 -4 6
-1 9 6 8 16 -4 19 22 5 42 -8 12 -8 13 4 3 8 -7 15 -19 16 -27z"/>
<path fill="#ffffff" stroke="none" d="M375 3581 c3 -5 2 -12 -3 -15 -5 -3 -9
1 -9 9 0 17 3 19 12 6z"/>
<path fill="#ffffff" stroke="none" d="M387 3545 c0 -8 -4 -12 -9 -9 -5 3 -6
10 -3 15 9 13 12 11 12 -6z"/>
<path fill="#ffffff" stroke="none" d="M297 3539 c-1 -3 4 -13 12 -22 7 -10
10 -17 6 -17 -4 0 -1 -8 6 -17 13 -16 12 -17 -3 -5 -10 8 -17 17 -16 20 0 4
-1 9 -2 12 -4 11 -8 42 -5 38 2 -1 3 -6 2 -9z"/>
<path fill="#ffffff" stroke="none" d="M416 3515 c3 -19 -22 -40 -31 -25 -4 6
-1 9 7 8 8 -2 13 6 12 20 -2 24 8 22 12 -3z"/>
<path fill="#ffffff" stroke="none" d="M277 3523 c-4 -3 -1 -13 6 -22 11 -14
10 -14 -5 -2 -16 12 -16 31 -1 31 4 0 3 -3 0 -7z"/>
<path fill="#ffffff" stroke="none" d="M365 3513 c-1 -10 3 -25 9 -33 9 -13 9
-13 -6 -2 -13 10 -16 26 -9 50 4 11 9 -2 6 -15z"/>
<path fill="#ffffff" stroke="none" d="M444 3511 c3 -4 -4 -17 -17 -27 -22
-19 -22 -19 -4 2 9 11 14 24 10 27 -3 4 -4 7 0 7 3 0 8 -4 11 -9z"/>
<path fill="#ffffff" stroke="none" d="M265 3490 c10 -11 16 -20 13 -20 -3 0
-13 9 -23 20 -10 11 -16 20 -13 20 3 0 13 -9 23 -20z"/>
<path fill="#ffffff" stroke="none" d="M309 3466 c9 -10 7 -17 -6 -27 -16 -12
-17 -12 -6 2 10 12 10 18 1 27 -7 7 -9 12 -6 12 3 0 11 -6 17 -14z"/>
<path fill="#ffffff" stroke="none" d="M361 3463 c13 -16 12 -17 -3 -4 -10 7
-18 15 -18 17 0 8 8 3 21 -13z"/>
<path fill="#ffffff" stroke="none" d="M397 3463 c-4 -3 -1 -13 6 -22 11 -14
10 -14 -5 -2 -16 12 -16 31 -1 31 4 0 3 -3 0 -7z"/>
<path fill="#ffffff" stroke="none" d="M351 3443 c13 -16 12 -17 -3 -4 -10 7
-18 15 -18 17 0 8 8 3 21 -13z"/>
<path fill="#ffffff" stroke="none" d="M341 3423 c13 -16 12 -17 -3 -4 -17 13
-22 21 -14 21 2 0 10 -8 17 -17z"/>
<path fill="#ffffff" stroke="none" d="M331 3403 c13 -16 12 -17 -3 -4 -10 7
-18 15 -18 17 0 8 8 3 21 -13z"/>
<path fill="#000000" stroke="none" d="M1276 2815 l-316 -484 29 -43 c15 -24
63 -97 106 -163 43 -66 106 -163 140 -215 120 -184 291 -446 325 -497 18 -29
36 -53 40 -53 12 0 33 48 26 59 -5 7 -1 8 11 4 15 -5 16 -4 7 8 -12 14 -11 45
1 57 3 4 4 -6 1 -21 -3 -19 -1 -27 7 -24 7 2 11 7 10 10 -2 4 4 15 13 25 19
22 84 120 84 127 0 3 9 15 20 27 10 12 16 26 12 32 -10 17 -11 35 -2 41 5 3 7
-4 5 -15 -2 -11 -1 -20 3 -20 8 0 62 74 62 85 0 3 11 21 25 39 14 18 25 37 25
43 0 5 11 20 25 33 13 12 22 26 20 30 -3 4 2 13 10 20 8 7 15 19 15 27 0 8 5
11 12 7 6 -4 8 -3 5 3 -4 6 4 23 18 39 13 15 22 31 19 36 -3 4 -1 8 4 8 5 0
17 12 27 26 9 15 11 23 4 19 -7 -5 -10 -4 -5 3 3 6 2 14 -4 17 -8 5 -8 11 -1
19 6 7 7 17 3 21 -4 5 -1 5 6 1 10 -6 10 -11 2 -21 -15 -19 6 -31 26 -14 13
11 11 16 -16 44 -24 25 -29 35 -18 40 7 5 10 4 5 0 -8 -9 30 -55 46 -55 6 0 1
10 -11 23 -12 13 -22 27 -22 31 0 5 9 -2 20 -15 l20 -24 20 25 c11 14 27 39
35 57 9 18 20 35 25 38 6 4 8 10 5 15 -3 4 2 10 10 14 23 9 18 40 -12 71 -16
16 -22 25 -15 21 14 -8 -46 84 -63 96 -5 4 -6 8 -1 8 5 0 0 10 -11 23 -11 12
-23 30 -27 41 -3 10 -12 16 -19 13 -8 -3 -14 1 -14 9 0 7 5 10 10 7 5 -3 -1 8
-13 25 -13 17 -27 29 -31 26 -5 -3 -7 1 -4 8 2 7 -2 22 -10 32 -11 15 -18 16
-28 8 -10 -9 -14 -8 -14 3 0 7 3 14 6 13 20 -2 21 4 4 20 -10 9 -12 13 -4 7
10 -7 8 -1 -4 17 -24 33 -35 36 -30 7 3 -12 1 -19 -2 -15 -12 12 -11 56 1 49
6 -4 5 1 -3 10 -7 9 -18 14 -24 10 -6 -3 -7 -1 -3 5 9 15 -23 64 -37 55 -6 -3
-7 -1 -3 5 3 6 -10 37 -31 69 -21 32 -42 67 -48 78 -6 11 -16 20 -22 20 -6 0
-15 4 -20 9 -5 5 -2 6 6 1 9 -5 12 -3 9 6 -3 8 -10 13 -16 12 -5 -1 -16 5 -24
15 -12 15 -11 16 5 3 24 -19 22 0 -3 27 -12 12 -19 22 -16 22 3 0 -14 28 -38
63 -23 34 -45 70 -49 80 -3 9 -10 17 -15 17 -5 0 -152 -218 -326 -485z"/>
<path fill="#ffffff" stroke="none" d="M1606 3265 c-2 -30 -20 -52 -31 -36 -3
7 -1 10 6 9 7 -2 14 7 15 20 2 27 3 32 7 32 2 0 3 -11 3 -25z"/>
<path fill="#ffffff" stroke="none" d="M1636 3228 c4 -7 4 -10 -1 -6 -4 4 -14
3 -22 -4 -11 -9 -10 -15 9 -37 l23 -26 -27 24 c-26 23 -27 26 -11 43 19 21 20
22 29 6z"/>
<path fill="#ffffff" stroke="none" d="M1571 3213 c13 -16 12 -17 -3 -4 -17
13 -22 21 -14 21 2 0 10 -8 17 -17z"/>
<path fill="#ffffff" stroke="none" d="M1550 3165 c-13 -13 -17 -25 -12 -29 6
-3 9 -14 7 -24 -1 -9 1 -22 6 -28 5 -6 4 -11 -5 -11 -8 0 -12 11 -11 26 1 14
-2 31 -7 37 -5 7 0 18 12 29 16 15 18 21 7 34 -11 14 -10 14 6 2 17 -13 17
-15 -3 -36z"/>
<path fill="#ffffff" stroke="none" d="M1647 3193 c0 -9 -4 -10 -14 -2 -7 6
-13 12 -13 14 0 1 6 2 13 2 8 0 14 -6 14 -14z"/>
<path fill="#ffffff" stroke="none" d="M1540 3186 c0 -2 -8 -10 -17 -17 -16
-13 -17 -12 -4 4 13 16 21 21 21 13z"/>
<path fill="#ffffff" stroke="none" d="M1610 3165 c13 -14 21 -25 18 -25 -2 0
-15 11 -28 25 -13 14 -21 25 -18 25 2 0 15 -11 28 -25z"/>
<path fill="#ffffff" stroke="none" d="M1594 3151 c14 -15 15 -21 4 -27 -7 -4
-10 -4 -6 1 4 4 3 14 -3 22 -10 11 -15 11 -28 1 -14 -12 -14 -11 -2 5 17 21
14 21 35 -2z"/>
<path fill="#ffffff" stroke="none" d="M1680 3164 c0 -8 -19 -13 -24 -6 -3 5
1 9 9 9 8 0 15 -2 15 -3z"/>
<path fill="#ffffff" stroke="none" d="M1507 3143 c-4 -3 -1 -13 6 -22 11 -14
10 -14 -5 -2 -16 12 -16 31 -1 31 4 0 3 -3 0 -7z"/>
<path fill="#ffffff" stroke="none" d="M1655 3122 c-1 -9 2 -23 7 -29 13 -16
31 -6 21 10 -11 18 -12 36 -3 42 5 3 7 -3 5 -12 -1 -10 2 -23 6 -29 6 -7 3
-16 -6 -24 -12 -10 -13 -16 -3 -29 12 -14 11 -14 -5 -2 -9 8 -15 16 -12 19 3
3 -1 12 -7 20 -13 16 -20 64 -7 57 4 -3 6 -13 4 -23z"/>
<path fill="#ffffff" stroke="none" d="M1575 3123 c-1 -10 2 -24 8 -30 5 -7 6
-13 2 -13 -5 0 -1 -8 9 -18 15 -18 15 -20 -6 -38 l-23 -19 18 21 c16 19 16 23
2 34 -8 7 -13 16 -10 20 3 5 1 11 -4 14 -7 5 -8 23 -2 44 4 11 9 -2 6 -15z"/>
<path fill="#ffffff" stroke="none" d="M1627 3115 c0 -8 -4 -12 -9 -9 -5 3 -6
10 -3 15 9 13 12 11 12 -6z"/>
<path fill="#ffffff" stroke="none" d="M1495 3111 c3 -5 2 -12 -3 -15 -5 -3
-9 1 -9 9 0 17 3 19 12 6z"/>
<path fill="#ffffff" stroke="none" d="M1616 3074 c1 -9 -1 -13 -4 -9 -4 4 -7
10 -7 13 0 4 -4 14 -9 22 -7 12 -6 13 4 3 8 -7 15 -20 16 -29z"/>
<path fill="#ffffff" stroke="none" d="M1517 3085 c0 -8 -4 -12 -9 -9 -5 3 -6
10 -3 15 9 13 12 11 12 -6z"/>
<path fill="#ffffff" stroke="none" d="M1637 3078 c-1 -3 8 -17 21 -31 21 -23
22 -25 5 -38 -15 -11 -16 -11 -6 1 10 11 9 17 -4 32 -14 15 -31 59 -18 46 2
-1 3 -6 2 -10z"/>
<path fill="#ffffff" stroke="none" d="M1523 3057 c4 3 7 4 7 1 0 -2 -12 -15
-27 -29 -20 -17 -23 -18 -11 -3 17 19 17 21 0 39 -17 19 -16 19 4 2 11 -9 24
-14 27 -10z"/>
<path fill="#ffffff" stroke="none" d="M1721 3063 c12 -16 12 -17 -2 -6 -9 7
-20 9 -24 5 -5 -4 -5 -1 -1 6 9 16 11 15 27 -5z"/>
<path fill="#ffffff" stroke="none" d="M1475 3030 c-10 -11 -12 -19 -4 -27 8
-8 7 -13 -3 -18 -7 -5 -10 -5 -6 0 4 4 3 14 -2 20 -7 9 -6 16 5 25 12 10 13
16 3 29 -12 14 -11 14 5 2 16 -12 16 -16 2 -31z"/>
<path fill="#ffffff" stroke="none" d="M1455 3051 c3 -5 2 -12 -3 -15 -5 -3
-9 1 -9 9 0 17 3 19 12 6z"/>
<path fill="#ffffff" stroke="none" d="M1520 3017 l-34 -32 30 36 c16 20 31
34 33 32 3 -2 -10 -18 -29 -36z"/>
<path fill="#ffffff" stroke="none" d="M1563 3028 c-10 -11 -18 -21 -18 -23 0
-2 8 -12 18 -23 14 -15 15 -22 6 -28 -7 -4 -10 -3 -6 3 4 6 1 16 -7 22 -16 14
-15 33 2 53 6 8 8 19 4 23 -4 5 -1 5 6 1 11 -6 10 -12 -5 -28z"/>
<path fill="#ffffff" stroke="none" d="M1640 3015 c-5 -6 -6 -16 -2 -20 4 -5
1 -5 -6 -1 -9 6 -10 12 -3 20 7 9 7 17 -2 26 -10 12 -9 12 6 1 12 -10 14 -17
7 -26z"/>
<path fill="#ffffff" stroke="none" d="M1734 3038 c4 4 7 3 6 -3 -1 -5 -1 -12
0 -15 6 -16 7 -41 2 -35 -4 4 -5 8 -2 10 3 2 -6 16 -20 31 -14 16 -18 23 -9
16 9 -6 19 -8 23 -4z"/>
<path fill="#ffffff" stroke="none" d="M1435 3021 c3 -5 2 -12 -3 -15 -5 -3
-9 1 -9 9 0 17 3 19 12 6z"/>
<path fill="#ffffff" stroke="none" d="M1612 3018 c-9 -9 -9 -15 1 -27 11 -14
10 -14 -6 -2 -13 10 -15 17 -6 27 6 8 14 14 17 14 3 0 1 -5 -6 -12z"/>
<path fill="#ffffff" stroke="none" d="M1715 3002 c-3 -3 1 -12 8 -21 11 -14
10 -14 -6 -2 -9 8 -15 16 -12 19 3 3 -1 12 -8 21 -11 14 -10 14 6 2 9 -8 15
-16 12 -19z"/>
<path fill="#ffffff" stroke="none" d="M1776 3014 c-1 -8 -4 -15 -7 -16 -2 -2
-3 -1 -2 1 2 2 -2 9 -7 16 -7 8 -5 12 4 12 8 0 13 -6 12 -13z"/>
<path fill="#ffffff" stroke="none" d="M1687 3003 c-4 -3 1 -16 10 -27 18 -21
18 -21 -4 -2 -20 16 -23 36 -6 36 4 0 3 -3 0 -7z"/>
<path fill="#ffffff" stroke="none" d="M1449 2993 c-1 -5 0 -10 1 -13 7 -19 7
-41 0 -45 -5 -3 -7 3 -5 15 2 11 -1 22 -6 25 -5 4 -7 11 -4 16 7 11 15 12 14
2z"/>
<path fill="#ffffff" stroke="none" d="M1523 2988 c-8 -12 -10 -30 -3 -43 1
-3 3 -13 4 -22 1 -10 5 -23 9 -30 4 -6 3 -15 -3 -18 -6 -4 -10 -3 -9 2 1 4 0
11 -1 16 -1 4 -4 16 -5 27 -1 11 -4 22 -5 25 -10 19 2 55 17 55 3 0 1 -6 -4
-12z"/>
<path fill="#ffffff" stroke="none" d="M1595 2980 c10 -11 16 -20 13 -20 -3 0
-13 9 -23 20 -10 11 -16 20 -13 20 3 0 13 -9 23 -20z"/>
<path fill="#ffffff" stroke="none" d="M1679 2943 c-6 -7 -14 -13 -17 -13 -3
0 -1 5 6 12 9 9 8 16 -6 32 -17 21 -17 21 5 2 18 -15 20 -22 12 -33z"/>
<path fill="#ffffff" stroke="none" d="M1801 2973 c13 -16 12 -17 -3 -4 -17
13 -22 21 -14 21 2 0 10 -8 17 -17z"/>
<path fill="#ffffff" stroke="none" d="M1423 2966 c3 3 4 -2 3 -13 -2 -10 2
-25 8 -33 10 -13 9 -13 -7 -1 -9 8 -15 16 -12 19 3 3 -3 15 -12 26 -14 15 -14
18 -2 8 9 -6 18 -9 22 -6z"/>
<path fill="#ffffff" stroke="none" d="M1485 2963 c-1 -10 0 -22 4 -28 11 -19
9 -34 -7 -47 -13 -11 -14 -11 -7 2 12 18 13 32 5 45 -8 12 -5 45 4 45 2 0 3
-8 1 -17z"/>
<path fill="#ffffff" stroke="none" d="M1537 2969 c-1 -3 4 -13 11 -22 9 -10
10 -17 2 -22 -6 -4 -10 -3 -9 2 1 4 0 10 -1 13 -4 11 -8 42 -5 38 2 -1 3 -6 2
-9z"/>
<path fill="#ffffff" stroke="none" d="M1650 2945 c-6 -8 -6 -15 2 -23 7 -7
10 -12 7 -12 -3 0 -14 9 -25 21 -10 11 -14 19 -9 17 6 -2 10 2 10 7 0 6 -4 9
-8 7 -5 -1 -6 2 -2 8 5 8 11 7 21 -1 10 -8 11 -15 4 -24z"/>
<path fill="#ffffff" stroke="none" d="M1812 2945 c2 3 5 -2 5 -10 0 -11 -8
-8 -29 12 -15 15 -28 29 -28 32 0 2 10 -5 23 -17 13 -12 26 -20 29 -17z"/>
<path fill="#ffffff" stroke="none" d="M1776 2938 l29 -33 -32 29 c-31 28 -38
36 -30 36 2 0 16 -15 33 -32z"/>
<path fill="#ffffff" stroke="none" d="M1394 2944 c3 -8 2 -12 -4 -9 -6 3 -10
10 -10 16 0 14 7 11 14 -7z"/>
<path fill="#ffffff" stroke="none" d="M1756 2928 l29 -33 -32 29 c-18 17 -33
31 -33 33 0 8 8 1 36 -29z"/>
<path fill="#ffffff" stroke="none" d="M1587 2943 c-4 -4 5 -20 20 -37 l28
-31 -32 29 c-28 25 -35 46 -16 46 4 0 3 -3 0 -7z"/>
<path fill="#ffffff" stroke="none" d="M1625 2920 l20 -25 -22 19 c-13 11 -23
24 -23 29 0 6 1 8 3 6 1 -2 11 -15 22 -29z"/>
<path fill="#ffffff" stroke="none" d="M1750 2885 c-6 -7 -6 -15 1 -22 8 -8 7
-13 -3 -18 -7 -5 -10 -4 -5 0 4 5 -1 17 -10 28 -10 11 -13 17 -6 14 23 -14 22
10 -1 32 -18 17 -25 19 -33 9 -8 -11 -10 -49 -3 -63 1 -3 4 -9 5 -15 1 -5 3
-11 5 -12 9 -13 5 -40 -8 -50 -15 -11 -15 -11 -6 2 9 13 11 31 4 45 -1 3 -4
10 -5 15 -1 6 -4 12 -5 15 -9 17 -4 53 9 68 14 16 16 16 43 -9 19 -19 25 -31
18 -39z"/>
<path fill="#ffffff" stroke="none" d="M1386 2904 c1 -9 -1 -13 -4 -9 -4 4 -7
10 -7 13 0 4 -4 14 -9 22 -7 12 -6 13 4 3 8 -7 15 -20 16 -29z"/>
<path fill="#ffffff" stroke="none" d="M1465 2913 c-2 -10 -4 -19 -4 -20 -1
-2 -1 -6 -2 -10 0 -5 -11 -19 -23 -33 -13 -14 -22 -33 -21 -43 2 -11 1 -16 -3
-13 -14 14 -9 36 14 57 19 17 21 25 12 36 -9 11 -8 13 2 11 8 -2 15 3 16 10 2
19 4 22 8 22 2 0 3 -8 1 -17z"/>
<path fill="#ffffff" stroke="none" d="M1357 2913 c-10 -10 24 -43 37 -36 6 4
3 -2 -6 -13 -14 -16 -15 -23 -6 -32 7 -7 10 -12 7 -12 -3 0 -14 10 -25 22 -10
12 -14 18 -7 15 21 -13 23 10 3 28 -17 16 -19 35 -3 35 4 0 3 -3 0 -7z"/>
<path fill="#ffffff" stroke="none" d="M1416 2902 c-3 -3 -1 -11 4 -17 7 -8 3
-18 -13 -31 -22 -19 -22 -19 -4 2 9 11 14 24 10 28 -11 11 -12 37 -1 30 5 -3
7 -9 4 -12z"/>
<path fill="#ffffff" stroke="none" d="M1589 2873 c-6 -7 -14 -13 -17 -13 -3
0 -1 5 6 12 9 9 8 16 -6 32 -17 21 -17 21 5 2 18 -15 20 -22 12 -33z"/>
<path fill="#ffffff" stroke="none" d="M1715 2911 c3 -5 2 -12 -3 -15 -5 -3
-9 1 -9 9 0 17 3 19 12 6z"/>
<path fill="#ffffff" stroke="none" d="M1560 2875 c-5 -6 -8 -14 -5 -17 3 -2
-7 -15 -23 -29 l-27 -24 24 28 c14 15 21 27 17 27 -5 0 -4 6 3 13 8 10 7 17
-2 27 -10 12 -9 12 6 1 12 -10 14 -17 7 -26z"/>
<path fill="#ffffff" stroke="none" d="M1835 2902 c-3 -3 0 -11 6 -19 17 -20
5 -16 -14 5 -15 16 -15 19 -2 19 8 0 13 -3 10 -5z"/>
<path fill="#ffffff" stroke="none" d="M1655 2883 c-1 -10 1 -23 6 -29 6 -7
-2 -20 -19 -35 l-27 -24 23 26 c14 16 19 29 14 33 -8 5 -9 22 -3 44 4 11 9 -2
6 -15z"/>
<path fill="#ffffff" stroke="none" d="M1820 2875 c13 -14 21 -25 18 -25 -2 0
-15 11 -28 25 -13 14 -21 25 -18 25 2 0 15 -11 28 -25z"/>
<path fill="#ffffff" stroke="none" d="M1345 2881 c3 -5 2 -12 -3 -15 -5 -3
-9 1 -9 9 0 17 3 19 12 6z"/>
<path fill="#ffffff" stroke="none" d="M1507 2875 c0 -8 -10 -23 -21 -32 -21
-18 -21 -18 -2 5 11 12 16 22 12 22 -4 0 -4 5 -1 10 9 14 12 13 12 -5z"/>
<path fill="#ffffff" stroke="none" d="M1804 2861 c20 -21 24 -31 15 -36 -7
-5 -10 -4 -6 2 8 13 -37 56 -48 46 -4 -5 -5 -2 -1 5 9 16 8 16 40 -17z"/>
<path fill="#ffffff" stroke="none" d="M1725 2852 c-3 -3 1 -12 8 -21 11 -14
10 -14 -6 -2 -9 8 -15 16 -12 19 3 3 -1 12 -8 21 -11 14 -10 14 6 2 9 -8 15
-16 12 -19z"/>
<path fill="#ffffff" stroke="none" d="M1467 2852 c-13 -15 -14 -21 -4 -32 10
-12 9 -12 -6 -1 -16 13 -16 15 -1 32 10 11 19 19 22 19 3 0 -2 -8 -11 -18z"/>
<path fill="#ffffff" stroke="none" d="M1606 2856 c-1 -8 -8 -21 -15 -30 -7
-9 -10 -16 -6 -16 4 0 3 -6 -4 -13 -8 -10 -7 -17 1 -25 7 -7 10 -12 7 -12 -3
0 -14 9 -25 21 -10 11 -14 19 -9 17 6 -2 11 2 13 7 2 6 11 18 19 28 9 9 13 17
9 17 -4 0 -4 5 -1 10 9 14 14 12 11 -4z"/>
<path fill="#ffffff" stroke="none" d="M1633 2856 c3 -8 -4 -22 -16 -33 -22
-18 -22 -18 -6 2 9 11 14 26 12 33 -6 17 4 15 10 -2z"/>
<path fill="#ffffff" stroke="none" d="M1512 2837 c-12 -13 -20 -26 -17 -28 3
-3 -10 -19 -27 -35 -18 -16 -25 -20 -15 -8 9 11 14 24 10 28 -5 4 -3 6 2 4 6
-1 10 0 10 4 0 8 46 58 53 58 3 0 -4 -10 -16 -23z"/>
<path fill="#ffffff" stroke="none" d="M1795 2832 c-3 -3 1 -12 8 -21 11 -14
10 -14 -6 -2 -9 8 -15 16 -12 19 3 3 -1 12 -8 21 -11 14 -10 14 6 2 9 -8 15
-16 12 -19z"/>
<path fill="#ffffff" stroke="none" d="M1857 2846 c-3 -7 -1 -18 5 -24 6 -6 6
-12 -3 -17 -7 -5 -10 -4 -5 3 3 6 2 13 -3 17 -10 5 -4 35 6 35 3 0 3 -6 0 -14z"/>
<path fill="#ffffff" stroke="none" d="M1354 2832 c15 -18 15 -20 -6 -38 -23
-19 -23 -19 -6 2 17 19 17 21 1 37 -10 9 -15 17 -12 17 3 0 13 -8 23 -18z"/>
<path fill="#ffffff" stroke="none" d="M1580 2847 c0 -2 -12 -14 -27 -28 l-28
-24 24 28 c23 25 31 32 31 24z"/>
<path fill="#ffffff" stroke="none" d="M1325 2800 c-10 -11 -12 -19 -4 -27 8
-8 7 -13 -3 -18 -7 -5 -10 -5 -6 0 4 4 3 14 -2 20 -7 9 -6 16 5 25 12 10 13
16 3 29 -12 14 -11 14 5 2 16 -12 16 -16 2 -31z"/>
<path fill="#ffffff" stroke="none" d="M1767 2833 c-4 -3 3 -18 15 -32 l23
-26 -27 24 c-24 21 -29 41 -11 41 4 0 3 -3 0 -7z"/>
<path fill="#ffffff" stroke="none" d="M1900 2834 c0 -8 -19 -13 -24 -6 -3 5
1 9 9 9 8 0 15 -2 15 -3z"/>
<path fill="#ffffff" stroke="none" d="M1305 2821 c3 -5 2 -12 -3 -15 -5 -3
-9 1 -9 9 0 17 3 19 12 6z"/>
<path fill="#ffffff" stroke="none" d="M1676 2818 c-1 -7 -5 -18 -9 -25 -4 -6
-2 -15 3 -18 8 -5 6 -13 -4 -24 -9 -10 -14 -20 -11 -23 3 -3 -3 -11 -12 -19
-16 -12 -17 -12 -6 2 7 9 11 18 8 21 -3 3 1 11 10 18 14 12 14 15 -2 32 -13
15 -14 19 -3 16 8 -2 15 3 16 10 2 19 4 22 8 22 2 0 3 -6 2 -12z"/>
<path fill="#ffffff" stroke="none" d="M1446 2797 c-1 -6 -6 -19 -11 -27 -5
-8 -10 -18 -10 -22 0 -20 -11 -13 -11 7 0 13 5 23 11 22 5 -1 9 8 9 20 -1 13
2 20 6 18 5 -3 7 -11 6 -18z"/>
<path fill="#ffffff" stroke="none" d="M1837 2813 c-4 -3 -1 -13 6 -22 11 -14
10 -14 -5 -2 -16 12 -16 31 -1 31 4 0 3 -3 0 -7z"/>
<path fill="#ffffff" stroke="none" d="M1390 2807 c0 -2 -12 -14 -27 -28 l-28
-24 24 28 c23 25 31 32 31 24z"/>
<path fill="#ffffff" stroke="none" d="M1772 2781 l23 -26 -26 23 c-14 12 -28
20 -31 16 -3 -3 -8 -1 -12 4 -12 20 26 7 46 -17z"/>
<path fill="#ffffff" stroke="none" d="M1881 2796 c-9 -11 -9 -16 -1 -21 8 -5
3 -16 -14 -34 -15 -15 -23 -31 -19 -36 5 -4 2 -5 -5 -1 -11 6 -7 15 13 36 18
19 23 30 15 35 -8 5 -8 10 1 21 6 8 14 14 16 14 3 0 0 -6 -6 -14z"/>
<path fill="#ffffff" stroke="none" d="M1285 2791 c3 -5 2 -12 -3 -15 -5 -3
-9 1 -9 9 0 17 3 19 12 6z"/>
<path fill="#ffffff" stroke="none" d="M1520 2797 c0 -2 -15 -16 -32 -33 l-33
-29 29 33 c28 30 36 37 36 29z"/>
<path fill="#ffffff" stroke="none" d="M1605 2791 c-3 -5 -1 -13 5 -16 8 -5 8
-11 1 -19 -6 -7 -9 -15 -6 -18 3 -3 -1 -11 -9 -17 -10 -8 -16 -9 -21 -1 -4 6
-1 9 6 8 7 -2 13 2 14 7 0 6 4 15 8 22 4 6 3 14 -3 18 -10 6 -5 25 6 25 3 0 3
-4 -1 -9z"/>
<path fill="#ffffff" stroke="none" d="M1907 2785 c0 -8 -4 -12 -9 -9 -5 3 -6
10 -3 15 9 13 12 11 12 -6z"/>
<path fill="#ffffff" stroke="none" d="M1395 2756 c0 -18 -6 -40 -13 -48 -7
-10 -8 -18 -2 -26 7 -9 7 -9 -2 -2 -7 6 -14 15 -14 20 -1 6 -2 11 -4 13 -6 8
-7 38 0 42 4 2 7 -3 6 -13 0 -9 4 -18 9 -19 6 -2 11 11 11 27 2 34 3 40 7 40
2 0 3 -15 2 -34z"/>
<path fill="#ffffff" stroke="none" d="M1561 2763 l24 -28 -27 24 c-16 14 -29
21 -29 18 -5 -29 -4 -54 4 -64 5 -7 6 -13 2 -13 -4 0 -2 -6 4 -14 8 -10 9 -16
1 -21 -6 -4 -10 -3 -9 2 1 4 0 11 -1 16 -1 4 -4 12 -5 17 -1 6 -4 12 -5 15 -7
14 -5 51 3 63 12 15 10 16 38 -15z"/>
<path fill="#ffffff" stroke="none" d="M1639 2776 c9 -10 7 -17 -6 -27 -16
-12 -17 -12 -6 2 10 12 10 18 1 27 -7 7 -9 12 -6 12 3 0 11 -6 17 -14z"/>
<path fill="#ffffff" stroke="none" d="M1726 2778 c4 -7 4 -10 -1 -6 -4 4 -15
2 -24 -5 -14 -11 -14 -10 -2 6 16 20 18 21 27 5z"/>
<path fill="#ffffff" stroke="none" d="M1856 2767 c5 4 -7 -9 -25 -30 -19 -20
-31 -37 -26 -37 5 0 4 -5 -3 -12 -9 -9 -7 -18 11 -37 17 -21 15 -20 -11 3 -35
33 -38 37 -19 34 6 -2 11 2 10 8 -1 6 9 22 22 34 24 23 24 24 7 44 -17 21 -17
21 4 3 11 -9 25 -14 30 -10z"/>
<path fill="#ffffff" stroke="none" d="M1766 2746 c1 -8 -6 -22 -15 -30 -15
-14 -18 -14 -18 -2 0 8 5 14 11 13 13 -3 15 24 2 43 -8 12 -8 13 4 3 8 -7 15
-19 16 -27z"/>
<path fill="#ffffff" stroke="none" d="M1266 2752 c-3 -3 0 -12 6 -21 10 -13
10 -14 -2 -4 -16 15 -23 46 -8 37 5 -3 7 -9 4 -12z"/>
<path fill="#ffffff" stroke="none" d="M1299 2763 c-1 -5 0 -10 1 -13 7 -19 7
-39 -1 -34 -5 3 -7 9 -4 14 3 5 1 11 -5 15 -6 4 -8 11 -5 16 7 11 15 12 14 2z"/>
<path fill="#ffffff" stroke="none" d="M1814 2762 c3 -5 -11 -24 -32 -43 -20
-19 -27 -22 -14 -8 12 14 19 29 15 33 -5 4 -1 6 7 4 8 -1 14 3 13 10 -3 14 3
16 11 4z"/>
<path fill="#ffffff" stroke="none" d="M1715 2726 c0 -19 -3 -37 -6 -40 -4 -5
-4 62 0 72 4 10 7 -4 6 -32z"/>
<path fill="#ffffff" stroke="none" d="M1896 2741 c-14 -15 -14 -20 -3 -29 8
-7 16 -10 19 -7 2 3 5 -2 5 -10 0 -12 -6 -10 -24 7 -21 20 -22 23 -6 40 9 10
18 18 21 18 3 0 -2 -8 -12 -19z"/>
<path fill="#ffffff" stroke="none" d="M1335 2733 c-1 -10 2 -25 8 -33 6 -8 7
-12 3 -8 -15 13 -38 -13 -26 -27 8 -9 8 -15 0 -20 -6 -4 -10 -3 -9 2 1 4 0 10
-1 13 -8 20 -6 39 3 37 6 -1 12 8 13 21 2 28 3 32 8 32 2 0 3 -8 1 -17z"/>
<path fill="#ffffff" stroke="none" d="M1497 2735 c0 -8 -4 -12 -9 -9 -5 3 -6
10 -3 15 9 13 12 11 12 -6z"/>
<path fill="#ffffff" stroke="none" d="M1547 2739 c-1 -3 4 -13 12 -22 7 -10
10 -17 6 -17 -5 0 0 -9 9 -19 12 -13 14 -21 6 -26 -8 -5 -8 -11 1 -21 18 -22
4 -16 -17 7 -10 11 -14 20 -9 19 24 -5 27 1 10 20 -10 11 -15 20 -11 20 4 0 4
6 -1 13 -7 12 -14 42 -8 35 2 -1 3 -6 2 -9z"/>
<path fill="#ffffff" stroke="none" d="M1687 2735 c0 -8 -4 -12 -9 -9 -5 3 -6
10 -3 15 9 13 12 11 12 -6z"/>
<path fill="#ffffff" stroke="none" d="M1255 2720 c10 -11 16 -20 13 -20 -3 0
-13 9 -23 20 -10 11 -16 20 -13 20 3 0 13 -9 23 -20z"/>
<path fill="#ffffff" stroke="none" d="M1447 2733 c-4 -3 2 -16 13 -28 19 -20
19 -23 5 -35 -14 -12 -14 -15 2 -34 l18 -21 -23 19 c-20 17 -21 21 -7 36 14
15 13 19 -5 35 -17 16 -19 35 -3 35 4 0 3 -3 0 -7z"/>
<path fill="#ffffff" stroke="none" d="M1924 2732 c3 -5 -1 -9 -9 -9 -8 0 -12
4 -9 9 3 4 7 8 9 8 2 0 6 -4 9 -8z"/>
<path fill="#ffffff" stroke="none" d="M1505 2707 c4 5 5 3 1 -4 -3 -6 -2 -14
3 -17 5 -4 8 -14 6 -24 -1 -9 9 -30 24 -47 l26 -30 -31 28 c-18 16 -31 36 -29
45 1 10 -9 30 -24 47 -16 18 -18 23 -5 12 11 -9 24 -14 29 -10z"/>
<path fill="#ffffff" stroke="none" d="M1622 2718 c-9 -9 -9 -15 1 -27 11 -14
10 -14 -6 -2 -13 10 -15 17 -6 27 6 8 14 14 17 14 3 0 1 -5 -6 -12z"/>
<path fill="#ffffff" stroke="none" d="M1946 2708 c-2 -13 2 -30 8 -38 9 -13
9 -13 -6 -2 -9 7 -15 21 -13 30 2 9 4 20 4 25 1 4 3 7 6 7 3 0 3 -10 1 -22z"/>
<path fill="#ffffff" stroke="none" d="M1245 2700 c10 -11 16 -20 13 -20 -3 0
-13 9 -23 20 -10 11 -16 20 -13 20 3 0 13 -9 23 -20z"/>
<path fill="#ffffff" stroke="none" d="M1434 2701 c14 -15 15 -21 4 -27 -7 -4
-10 -4 -6 1 4 4 3 14 -3 22 -10 11 -15 11 -28 1 -14 -12 -14 -11 -2 5 17 21
14 21 35 -2z"/>
<path fill="#ffffff" stroke="none" d="M1287 2691 c0 -11 -5 -18 -9 -15 -4 3
-5 11 -1 19 7 21 12 19 10 -4z"/>
<path fill="#ffffff" stroke="none" d="M1662 2698 c-9 -9 -7 -17 8 -33 20 -21
20 -23 3 -36 -16 -12 -17 -12 -6 2 11 13 9 19 -7 34 -15 14 -17 21 -9 32 6 7
14 13 17 13 3 0 1 -5 -6 -12z"/>
<path fill="#ffffff" stroke="none" d="M1687 2696 c-3 -7 0 -20 6 -27 10 -11
9 -11 -5 0 -15 11 -15 41 -1 41 3 0 3 -6 0 -14z"/>
<path fill="#ffffff" stroke="none" d="M1859 2684 c-14 -13 -17 -13 -30 3 -13
16 -12 17 3 4 15 -11 19 -11 24 3 4 9 9 14 12 11 3 -3 -1 -12 -9 -21z"/>
<path fill="#ffffff" stroke="none" d="M1234 2681 c14 -15 15 -21 4 -27 -7 -4
-10 -4 -6 1 4 4 3 14 -3 22 -10 11 -15 11 -28 1 -14 -12 -14 -11 -2 5 17 21
14 21 35 -2z"/>
<path fill="#ffffff" stroke="none" d="M1609 2653 c-6 -7 -14 -13 -17 -13 -3
0 -1 5 6 12 9 9 8 16 -6 32 -17 21 -17 21 5 2 18 -15 20 -22 12 -33z"/>
<path fill="#ffffff" stroke="none" d="M1417 2683 c-4 -3 -1 -13 6 -22 11 -14
10 -14 -5 -2 -16 12 -16 31 -1 31 4 0 3 -3 0 -7z"/>
<path fill="#ffffff" stroke="none" d="M1732 2678 c-9 -9 -9 -15 1 -27 11 -14
10 -14 -6 -2 -13 10 -15 17 -6 27 6 8 14 14 17 14 3 0 1 -5 -6 -12z"/>
<path fill="#ffffff" stroke="none" d="M1901 2673 c11 -15 11 -16 -1 -6 -10 9
-17 10 -27 1 -11 -9 -11 -14 2 -28 14 -16 14 -18 -2 -31 -16 -12 -17 -12 -5 2
10 13 9 19 -3 29 -14 12 -14 15 1 31 21 23 19 23 35 2z"/>
<path fill="#ffffff" stroke="none" d="M1357 2666 c-3 -7 0 -19 6 -25 6 -6 7
-11 2 -11 -4 0 0 -10 11 -22 l19 -23 -22 19 c-13 10 -20 22 -18 27 3 4 1 10
-4 14 -10 5 -4 35 6 35 3 0 3 -6 0 -14z"/>
<path fill="#ffffff" stroke="none" d="M1786 2648 l29 -33 -31 28 c-17 15 -34
24 -39 20 -4 -5 -5 -2 -1 5 9 16 8 17 42 -20z"/>
<path fill="#ffffff" stroke="none" d="M1831 2663 c13 -16 12 -17 -3 -4 -17
13 -22 21 -14 21 2 0 10 -8 17 -17z"/>
<path fill="#ffffff" stroke="none" d="M1987 2673 c-4 -3 -1 -13 6 -22 11 -14
10 -14 -5 -2 -16 12 -16 31 -1 31 4 0 3 -3 0 -7z"/>
<path fill="#ffffff" stroke="none" d="M1215 2653 c-1 -10 6 -28 17 -39 15
-16 16 -24 7 -29 -7 -5 -10 -4 -6 2 4 6 -2 18 -12 27 -16 14 -19 30 -12 54 4
11 9 -2 6 -15z"/>
<path fill="#ffffff" stroke="none" d="M1291 2653 c2 1 3 0 2 -2 -2 -2 2 -10
8 -18 21 -25 3 -13 -22 14 -13 15 -17 22 -8 15 9 -6 18 -11 20 -9z"/>
<path fill="#ffffff" stroke="none" d="M1487 2655 c0 -8 -4 -12 -9 -9 -5 3 -6
10 -3 15 9 13 12 11 12 -6z"/>
<path fill="#ffffff" stroke="none" d="M1650 2635 c-5 -6 -6 -16 -2 -20 4 -5
1 -5 -6 -1 -9 6 -10 12 -3 20 7 9 7 17 -2 26 -10 12 -9 12 6 1 12 -10 14 -17
7 -26z"/>
<path fill="#ffffff" stroke="none" d="M1962 2645 c3 3 11 -3 19 -12 12 -16
12 -17 -2 -6 -9 7 -18 11 -21 8 -3 -3 -13 5 -24 17 -19 23 -19 23 2 5 11 -9
23 -15 26 -12z"/>
<path fill="#ffffff" stroke="none" d="M1411 2643 c7 -7 5 -14 -5 -22 -10 -8
-16 -9 -21 -1 -4 6 -3 9 2 8 4 -2 9 2 11 7 1 6 -2 10 -7 10 -5 0 -12 3 -16 7
-4 3 0 5 9 4 9 -1 21 -7 27 -13z"/>
<path fill="#ffffff" stroke="none" d="M1280 2625 c13 -14 21 -25 18 -25 -2 0
-15 11 -28 25 -13 14 -21 25 -18 25 2 0 15 -11 28 -25z"/>
<path fill="#ffffff" stroke="none" d="M1560 2625 c13 -14 21 -25 18 -25 -2 0
-15 11 -28 25 -13 14 -21 25 -18 25 2 0 15 -11 28 -25z"/>
<path fill="#ffffff" stroke="none" d="M1622 2638 c-9 -9 -8 -16 3 -28 14 -15
14 -19 -2 -31 -16 -12 -17 -12 -5 2 10 13 9 19 -3 29 -12 10 -13 16 -4 26 6 8
14 14 17 14 3 0 1 -5 -6 -12z"/>
<path fill="#ffffff" stroke="none" d="M1726 2614 c1 -9 -1 -13 -4 -9 -4 4 -7
10 -7 13 0 4 -4 14 -9 22 -7 12 -6 13 4 3 8 -7 15 -20 16 -29z"/>
<path fill="#ffffff" stroke="none" d="M1785 2612 c-3 -3 4 -15 15 -27 20 -21
20 -23 3 -36 -15 -11 -16 -11 -6 1 10 11 9 18 -9 37 -12 13 -18 23 -13 23 4 0
0 10 -11 23 l-19 22 23 -19 c12 -11 20 -22 17 -24z"/>
<path fill="#ffffff" stroke="none" d="M1917 2635 c-4 -8 -2 -17 4 -21 7 -4 6
-10 0 -18 -6 -7 -7 -17 -3 -21 4 -5 1 -5 -6 -1 -10 6 -10 11 -2 21 7 9 8 15 1
19 -10 6 -4 36 6 36 3 0 3 -7 0 -15z"/>
<path fill="#ffffff" stroke="none" d="M1181 2626 c-7 -9 -8 -17 -2 -20 10 -7
9 -31 -2 -42 -3 -4 -5 3 -2 14 2 12 -1 24 -6 28 -9 5 6 34 18 34 3 0 0 -6 -6
-14z"/>
<path fill="#ffffff" stroke="none" d="M1265 2580 c-12 -13 -12 -19 -2 -30 10
-12 9 -12 -6 0 -16 12 -16 15 -3 29 14 13 13 18 -7 41 l-22 25 27 -24 c25 -22
26 -26 13 -41z"/>
<path fill="#ffffff" stroke="none" d="M1337 2633 c-4 -3 -1 -13 5 -21 15 -17
20 -44 7 -36 -5 3 -7 9 -4 14 3 4 -2 13 -10 20 -14 11 -12 30 2 30 4 0 3 -3 0
-7z"/>
<path fill="#ffffff" stroke="none" d="M1455 2620 c10 -11 16 -20 13 -20 -3 0
-13 9 -23 20 -10 11 -16 20 -13 20 3 0 13 -9 23 -20z"/>
<path fill="#ffffff" stroke="none" d="M1851 2617 c-7 -7 -7 -14 0 -24 18 -21
4 -15 -17 8 -14 15 -15 20 -4 17 8 -2 14 3 12 10 -1 8 2 11 9 7 7 -5 8 -10 0
-18z"/>
<path fill="#ffffff" stroke="none" d="M1520 2605 c13 -14 21 -25 18 -25 -2 0
-15 11 -28 25 -13 14 -21 25 -18 25 2 0 15 -11 28 -25z"/>
<path fill="#ffffff" stroke="none" d="M1697 2623 c-4 -3 1 -16 10 -27 18 -21
18 -21 -4 -2 -20 16 -23 36 -6 36 4 0 3 -3 0 -7z"/>
<path fill="#ffffff" stroke="none" d="M1747 2618 c-1 -3 9 -19 23 -35 l25
-28 -26 23 c-14 12 -26 29 -26 37 0 8 1 14 3 13 1 -2 2 -6 1 -10z"/>
<path fill="#ffffff" stroke="none" d="M1963 2617 c4 3 7 4 7 1 0 -3 -10 -13
-22 -24 -13 -11 -18 -13 -11 -3 10 12 10 18 0 29 -10 12 -9 12 4 2 9 -6 19 -9
22 -5z"/>
<path fill="#ffffff" stroke="none" d="M2014 2614 c3 -8 2 -12 -4 -9 -6 3 -10
10 -10 16 0 14 7 11 14 -7z"/>
<path fill="#ffffff" stroke="none" d="M1215 2590 c-3 -5 -1 -12 5 -15 8 -5 8
-11 0 -20 -7 -9 -6 -16 5 -25 9 -8 12 -17 6 -24 -4 -6 -7 -19 -6 -28 2 -10 0
-20 -4 -23 -10 -5 -8 42 2 51 4 4 -3 18 -15 32 -13 13 -18 23 -13 22 22 -5 27
1 15 15 -7 8 -9 15 -5 15 4 0 1 8 -6 18 -13 15 -12 16 3 3 10 -7 16 -17 13
-21z"/>
<path fill="#ffffff" stroke="none" d="M1456 2575 c-1 -8 -5 -18 -9 -21 -4 -4
-2 -13 4 -20 7 -8 7 -14 -1 -19 -8 -5 -7 -12 2 -23 12 -15 11 -16 -5 -3 -12
10 -15 17 -8 24 7 7 5 17 -6 30 -13 14 -14 18 -3 15 16 -3 21 21 7 39 -5 7
-13 10 -19 7 -5 -3 -4 -13 4 -22 12 -15 11 -16 -5 -3 -13 11 -15 17 -6 28 10
11 15 11 29 -2 10 -9 17 -23 16 -30z"/>
<path fill="#ffffff" stroke="none" d="M1320 2595 c1 -5 9 -19 18 -30 17 -20
17 -20 -4 -2 -11 9 -21 24 -21 32 0 16 4 16 7 0z"/>
<path fill="#ffffff" stroke="none" d="M1515 2572 c-3 -3 9 -22 27 -41 l33
-36 -37 34 c-21 19 -36 37 -33 40 3 2 -3 14 -12 25 -18 21 -18 21 5 2 12 -11
20 -22 17 -24z"/>
<path fill="#ffffff" stroke="none" d="M1601 2587 c-7 -7 -7 -14 0 -24 18 -21
4 -15 -17 8 -14 15 -15 20 -4 17 8 -2 14 3 12 10 -1 8 2 11 9 7 7 -5 8 -10 0
-18z"/>
<path fill="#ffffff" stroke="none" d="M1691 2583 l24 -28 -26 23 c-14 12 -29
19 -34 15 -4 -5 -5 -2 -1 5 9 16 9 16 37 -15z"/>
<path fill="#ffffff" stroke="none" d="M1861 2562 c2 2 1 -1 -3 -6 -4 -5 -2
-17 5 -25 11 -14 10 -14 -6 -2 -9 8 -15 16 -12 19 3 3 -7 19 -22 36 l-28 31
31 -28 c17 -15 32 -26 35 -25z"/>
<path fill="#ffffff" stroke="none" d="M1892 2598 c-8 -8 -8 -15 -2 -23 7 -9
5 -17 -7 -26 -16 -13 -17 -12 -5 3 9 11 10 18 2 23 -8 5 -8 11 1 21 6 8 14 14
17 14 3 0 1 -5 -6 -12z"/>
<path fill="#ffffff" stroke="none" d="M2001 2593 c11 -15 11 -16 -1 -6 -10 9
-17 10 -27 1 -11 -9 -10 -14 4 -32 l18 -21 -23 19 c-21 18 -21 20 -6 38 21 22
19 22 35 1z"/>
<path fill="#ffffff" stroke="none" d="M2037 2591 c0 -11 -5 -18 -9 -15 -4 3
-5 11 -1 19 7 21 12 19 10 -4z"/>
<path fill="#ffffff" stroke="none" d="M1156 2575 c-2 -30 -20 -52 -31 -36 -3
7 -1 10 6 9 7 -2 14 7 15 20 2 27 3 32 7 32 2 0 3 -11 3 -25z"/>
<path fill="#ffffff" stroke="none" d="M1300 2586 c0 -2 -8 -10 -17 -17 -16
-13 -17 -12 -4 4 13 16 21 21 21 13z"/>
<path fill="#ffffff" stroke="none" d="M1480 2575 c0 -5 13 -23 28 -38 15 -16
27 -31 27 -35 0 -4 3 -6 7 -5 3 1 5 -5 3 -15 -1 -9 0 -21 4 -27 18 -31 -7 -67
-28 -41 -8 10 -9 16 -1 21 6 4 9 3 8 -2 -2 -4 2 -9 7 -10 13 -4 14 18 2 35 -5
6 -6 12 -2 12 5 0 0 9 -10 20 -10 11 -14 20 -10 20 5 0 -2 11 -15 25 -13 14
-25 32 -26 41 -1 9 -1 14 1 12 2 -1 4 -7 5 -13z"/>
<path fill="#ffffff" stroke="none" d="M1759 2566 c17 -19 20 -26 9 -32 -7 -4
-10 -3 -5 1 4 5 -3 19 -15 32 -12 13 -19 23 -16 23 2 0 15 -11 27 -24z"/>
<path fill="#ffffff" stroke="none" d="M1377 2568 c-2 -7 2 -20 10 -30 11 -12
11 -18 2 -24 -7 -4 -10 -3 -6 3 4 6 0 16 -8 23 -7 6 -11 18 -8 26 6 17 16 19
10 2z"/>
<path fill="#ffffff" stroke="none" d="M1400 2565 c1 -5 8 -17 16 -26 13 -14
13 -18 -1 -29 -8 -7 -12 -17 -8 -23 4 -6 1 -7 -6 -3 -9 6 -9 12 3 25 12 13 13
20 4 29 -7 7 -13 19 -14 28 -1 9 -1 14 1 12 2 -1 4 -7 5 -13z"/>
<path fill="#ffffff" stroke="none" d="M1580 2555 c13 -14 21 -25 18 -25 -2 0
-15 11 -28 25 -13 14 -21 25 -18 25 2 0 15 -11 28 -25z"/>
<path fill="#ffffff" stroke="none" d="M1641 2566 c-8 -10 -8 -16 3 -25 14
-12 16 -35 3 -47 -3 -4 -5 3 -2 14 2 11 -3 26 -11 33 -11 9 -12 15 -3 25 6 8
14 14 16 14 3 0 0 -6 -6 -14z"/>
<path fill="#ffffff" stroke="none" d="M1685 2560 c10 -11 16 -20 13 -20 -3 0
-13 9 -23 20 -10 11 -16 20 -13 20 3 0 13 -9 23 -20z"/>
<path fill="#ffffff" stroke="none" d="M1336 2525 c-1 -7 -7 -19 -14 -27 -8
-10 -8 -18 -2 -26 7 -9 7 -9 -2 -2 -16 13 -19 40 -5 37 14 -3 16 24 4 40 -5 7
-13 10 -19 7 -5 -3 -4 -13 4 -22 12 -15 11 -16 -5 -3 -13 11 -15 17 -6 28 10
11 15 11 29 -2 10 -9 17 -22 16 -30z"/>
<path fill="#ffffff" stroke="none" d="M1560 2545 c13 -14 21 -25 18 -25 -2 0
-15 11 -28 25 -13 14 -21 25 -18 25 2 0 15 -11 28 -25z"/>
<path fill="#ffffff" stroke="none" d="M1745 2542 c-3 -3 0 -11 5 -17 7 -9 5
-17 -7 -26 -16 -12 -17 -12 -6 2 10 12 10 18 1 27 -7 7 -8 12 -4 12 5 0 2 8
-5 18 -13 15 -12 16 4 3 9 -8 15 -16 12 -19z"/>
<path fill="#ffffff" stroke="none" d="M1955 2550 c10 -11 16 -20 13 -20 -3 0
-13 9 -23 20 -10 11 -16 20 -13 20 3 0 13 -9 23 -20z"/>
<path fill="#ffffff" stroke="none" d="M2042 2555 c2 3 5 -2 5 -10 0 -19 0
-19 -23 7 -12 14 -13 18 -3 10 9 -6 18 -10 21 -7z"/>
<path fill="#ffffff" stroke="none" d="M2075 2550 c-2 -11 1 -22 6 -26 6 -4 6
-11 -2 -20 -6 -8 -8 -14 -4 -14 5 0 1 -8 -8 -18 -10 -10 -14 -22 -10 -27 5 -4
2 -5 -5 -1 -11 6 -10 12 4 27 9 10 14 19 9 19 -4 0 -2 6 4 14 7 9 8 17 2 20
-5 3 -8 14 -6 24 5 22 4 22 9 22 3 0 3 -9 1 -20z"/>
<path fill="#ffffff" stroke="none" d="M1674 2541 c14 -15 15 -21 4 -27 -7 -4
-10 -3 -5 1 4 5 0 17 -10 27 -9 10 -14 18 -11 18 3 0 13 -9 22 -19z"/>
<path fill="#ffffff" stroke="none" d="M1936 2538 l19 -23 -21 18 c-19 16 -23
16 -34 2 -7 -8 -9 -15 -4 -15 4 0 -2 -10 -14 -23 -18 -19 -19 -26 -9 -37 10
-12 9 -12 -6 -1 -12 10 -14 17 -7 26 5 6 6 15 2 19 -4 4 -2 6 3 4 6 -1 10 0
10 3 0 6 35 49 40 49 1 0 10 -10 21 -22z"/>
<path fill="#ffffff" stroke="none" d="M1196 2528 c19 -23 19 -23 -2 -6 -15
14 -23 15 -32 6 -8 -8 -8 -15 -2 -23 7 -9 5 -17 -7 -26 -16 -13 -17 -12 -5 3
9 12 10 18 2 23 -8 5 -6 13 6 26 21 23 17 23 40 -3z"/>
<path fill="#ffffff" stroke="none" d="M1251 2533 c13 -16 12 -17 -3 -4 -10 7
-18 15 -18 17 0 8 8 3 21 -13z"/>
<path fill="#ffffff" stroke="none" d="M1479 2536 c9 -10 7 -17 -6 -27 -16
-12 -17 -12 -6 2 10 12 10 18 1 27 -7 7 -9 12 -6 12 3 0 11 -6 17 -14z"/>
<path fill="#ffffff" stroke="none" d="M1711 2527 c-10 -9 -11 -8 -5 6 3 10 9
15 12 12 3 -3 0 -11 -7 -18z"/>
<path fill="#ffffff" stroke="none" d="M1823 2538 c-16 -27 -9 -73 16 -103
l26 -30 -31 28 c-23 20 -30 35 -29 60 1 31 10 57 21 57 3 0 2 -6 -3 -12z"/>
<path fill="#ffffff" stroke="none" d="M2055 2517 c5 5 4 1 -3 -8 -6 -9 -10
-18 -7 -21 3 -3 -1 -11 -9 -17 -10 -8 -16 -9 -21 -1 -4 6 -1 9 6 8 15 -4 19
22 6 39 -5 7 -13 10 -19 7 -5 -3 -4 -12 3 -20 18 -22 4 -16 -17 7 -14 15 -15
20 -4 17 9 -2 14 3 12 12 -3 10 4 8 20 -8 14 -12 29 -19 33 -15z"/>
<path fill="#ffffff" stroke="none" d="M1121 2523 c13 -16 12 -17 -3 -4 -10 7
-18 15 -18 17 0 8 8 3 21 -13z"/>
<path fill="#ffffff" stroke="none" d="M1357 2529 c-1 -3 4 -13 11 -22 9 -10
10 -17 2 -22 -6 -4 -10 -3 -9 2 1 4 0 10 -1 13 -4 11 -8 42 -5 38 2 -1 3 -6 2
-9z"/>
<path fill="#ffffff" stroke="none" d="M1626 2509 c1 -10 2 -20 4 -21 5 -8 7
-39 2 -33 -4 4 -8 11 -8 16 -1 5 -3 10 -4 12 -5 5 -6 57 -1 51 3 -3 7 -14 7
-25z"/>
<path fill="#ffffff" stroke="none" d="M1285 2502 c-1 -9 5 -26 13 -37 16 -19
16 -19 -3 -3 -18 17 -31 73 -14 63 4 -3 6 -13 4 -23z"/>
<path fill="#ffffff" stroke="none" d="M1787 2515 c0 -8 -4 -12 -9 -9 -5 3 -6
10 -3 15 9 13 12 11 12 -6z"/>
<path fill="#ffffff" stroke="none" d="M1846 2505 c1 -8 -1 -17 -5 -19 -4 -3
-7 6 -7 19 0 25 8 25 12 0z"/>
<path fill="#ffffff" stroke="none" d="M1924 2521 c3 -4 -7 -19 -22 -32 l-27
-24 23 26 c12 14 19 29 15 32 -3 4 -4 7 0 7 3 0 8 -4 11 -9z"/>
<path fill="#ffffff" stroke="none" d="M1131 2492 c2 2 1 -1 -3 -6 -4 -5 -2
-17 5 -25 11 -14 10 -14 -6 -2 -9 8 -15 16 -12 19 3 3 -3 15 -12 26 -18 21
-18 21 3 3 11 -9 23 -16 25 -15z"/>
<path fill="#ffffff" stroke="none" d="M1191 2503 c13 -16 12 -17 -3 -4 -10 7
-18 15 -18 17 0 8 8 3 21 -13z"/>
<path fill="#ffffff" stroke="none" d="M1596 2505 c-1 -8 -7 -20 -14 -27 -8
-8 -8 -15 -1 -24 7 -8 7 -14 -1 -19 -6 -4 -10 -3 -9 2 1 4 0 10 -1 13 -8 20
-6 39 3 37 6 -1 12 4 13 11 2 19 4 22 8 22 2 0 3 -7 2 -15z"/>
<path fill="#ffffff" stroke="none" d="M1722 2508 c-8 -8 -9 -15 -1 -25 19
-22 3 -14 -17 9 -10 12 -14 18 -7 15 6 -4 14 -3 18 3 3 5 9 10 13 10 3 0 1 -5
-6 -12z"/>
<path fill="#ffffff" stroke="none" d="M1995 2482 c-3 -3 0 -11 6 -18 7 -8 7
-14 -1 -19 -8 -5 -8 -11 1 -21 18 -22 4 -16 -17 7 -10 11 -14 20 -9 19 22 -5
27 1 15 15 -7 8 -9 15 -5 15 5 0 0 10 -11 23 l-19 22 23 -19 c12 -11 20 -21
17 -24z"/>
<path fill="#ffffff" stroke="none" d="M1257 2495 c0 -8 -4 -12 -9 -9 -5 3 -6
10 -3 15 9 13 12 11 12 -6z"/>
<path fill="#ffffff" stroke="none" d="M1493 2498 c-11 -19 -11 -51 1 -68 9
-13 8 -13 -5 -3 -21 17 -16 83 7 83 3 0 2 -6 -3 -12z"/>
<path fill="#ffffff" stroke="none" d="M1966 2475 c-4 -25 -14 -27 -12 -3 1
14 -4 22 -12 20 -8 -1 -11 2 -7 8 9 15 34 -6 31 -25z"/>
<path fill="#ffffff" stroke="none" d="M1094 2484 c3 -8 2 -12 -4 -9 -6 3 -10
10 -10 16 0 14 7 11 14 -7z"/>
<path fill="#ffffff" stroke="none" d="M1345 2491 c-3 -5 -1 -12 4 -15 5 -4 8
-14 6 -24 -1 -9 8 -29 22 -43 17 -18 21 -29 13 -34 -8 -5 -7 -11 2 -23 12 -15
11 -16 -5 -3 -12 9 -14 17 -7 26 7 8 3 18 -14 34 -14 13 -23 31 -21 42 2 10
-1 21 -6 24 -9 6 -3 25 7 25 3 0 3 -4 -1 -9z"/>
<path fill="#ffffff" stroke="none" d="M1696 2478 c19 -23 19 -23 -2 -6 -16
14 -23 15 -34 5 -12 -10 -12 -9 -1 6 17 21 14 21 37 -5z"/>
<path fill="#ffffff" stroke="none" d="M1763 2488 c-6 -7 -9 -25 -8 -41 1 -15
-4 -32 -12 -38 -9 -8 -10 -15 -3 -24 8 -9 8 -15 0 -20 -6 -4 -10 -3 -9 2 1 4
0 10 -1 13 -8 20 -6 39 3 37 6 -1 11 12 12 28 0 29 11 55 22 55 3 0 1 -6 -4
-12z"/>
<path fill="#ffffff" stroke="none" d="M2104 2491 c3 -4 -4 -17 -17 -27 -22
-19 -22 -19 -4 2 9 11 14 24 10 27 -3 4 -4 7 0 7 3 0 8 -4 11 -9z"/>
<path fill="#ffffff" stroke="none" d="M1431 2467 c-8 -8 -6 -16 6 -29 25 -28
9 -21 -18 8 -15 16 -19 24 -9 22 8 -2 14 3 12 10 -1 8 2 11 9 7 8 -5 8 -10 0
-18z"/>
<path fill="#ffffff" stroke="none" d="M1516 2465 c1 -8 -1 -17 -5 -19 -4 -3
-7 6 -7 19 0 25 8 25 12 0z"/>
<path fill="#ffffff" stroke="none" d="M1786 2465 c-1 -13 -4 -27 -7 -30 -5
-4 -4 41 0 53 4 10 8 -2 7 -23z"/>
<path fill="#ffffff" stroke="none" d="M1086 2444 c1 -9 -1 -13 -4 -9 -4 4 -7
10 -7 13 0 4 -4 14 -9 22 -7 12 -6 13 4 3 8 -7 15 -20 16 -29z"/>
<path fill="#ffffff" stroke="none" d="M1170 2465 c-7 -8 -9 -15 -5 -15 5 0 1
-8 -8 -18 -10 -10 -15 -22 -12 -25 3 -4 2 -5 -2 -2 -12 9 -12 35 0 32 6 -1 11
3 12 8 0 13 14 35 22 35 3 0 0 -7 -7 -15z"/>
<path fill="#ffffff" stroke="none" d="M1197 2460 c-1 -12 -10 -29 -22 -38
l-20 -17 20 24 c11 13 19 25 18 27 -5 7 -3 24 1 24 3 0 4 -9 3 -20z"/>
<path fill="#ffffff" stroke="none" d="M1386 2473 c-3 -4 8 -23 26 -42 l33
-36 -37 34 c-32 30 -41 51 -21 51 4 0 3 -3 -1 -7z"/>
<path fill="#ffffff" stroke="none" d="M1606 2471 c-3 -5 1 -14 9 -21 11 -9
12 -16 5 -25 -7 -9 -6 -16 5 -25 9 -7 12 -17 7 -24 -7 -9 -8 -40 -3 -61 0 -3
0 -7 -1 -9 -2 -2 6 -14 17 -27 l20 -24 -22 19 c-12 10 -22 21 -21 25 0 3 -1 8
-2 11 -7 16 -6 62 2 66 5 4 -1 18 -14 32 -13 14 -18 22 -11 18 18 -10 25 10 8
24 -13 11 -12 30 1 30 3 0 3 -4 0 -9z"/>
<path fill="#ffffff" stroke="none" d="M1912 2468 c-9 -9 -8 -16 6 -32 17 -21
17 -21 -5 -2 -18 15 -20 22 -12 33 6 7 14 13 17 13 3 0 1 -5 -6 -12z"/>
<path fill="#ffffff" stroke="none" d="M1937 2461 c0 -11 -5 -18 -9 -15 -4 3
-5 11 -1 19 7 21 12 19 10 -4z"/>
<path fill="#ffffff" stroke="none" d="M2130 2477 c0 -2 -10 -12 -22 -23 l-23
-19 19 23 c18 21 26 27 26 19z"/>
<path fill="#ffffff" stroke="none" d="M1283 2452 c15 -13 17 -35 4 -48 -4 -4
-1 -14 6 -23 11 -14 10 -14 -6 -2 -10 8 -14 18 -9 25 14 19 0 62 -18 51 -5 -3
-11 -1 -14 4 -8 13 19 8 37 -7z"/>
<path fill="#ffffff" stroke="none" d="M1457 2455 c0 -8 -4 -12 -9 -9 -5 3 -6
10 -3 15 9 13 12 11 12 -6z"/>
<path fill="#ffffff" stroke="none" d="M1691 2453 c13 -16 12 -17 -3 -4 -10 7
-18 15 -18 17 0 8 8 3 21 -13z"/>
<path fill="#ffffff" stroke="none" d="M1855 2450 c10 -11 16 -20 13 -20 -3 0
-13 9 -23 20 -10 11 -16 20 -13 20 3 0 13 -9 23 -20z"/>
<path fill="#ffffff" stroke="none" d="M1057 2453 c-4 -3 -2 -12 4 -19 7 -8 6
-14 -2 -20 -7 -4 -9 -3 -5 4 3 6 2 13 -4 17 -10 6 -5 25 7 25 4 0 3 -3 0 -7z"/>
<path fill="#ffffff" stroke="none" d="M1115 2432 c-1 -9 4 -24 12 -34 12 -13
12 -17 1 -24 -7 -4 -10 -4 -6 1 4 4 2 15 -4 23 -13 16 -20 64 -7 57 4 -3 6
-13 4 -23z"/>
<path fill="#ffffff" stroke="none" d="M1675 2440 c10 -11 16 -20 13 -20 -3 0
-13 9 -23 20 -10 11 -16 20 -13 20 3 0 13 -9 23 -20z"/>
<path fill="#ffffff" stroke="none" d="M1727 2445 c0 -8 -4 -12 -9 -9 -5 3 -6
10 -3 15 9 13 12 11 12 -6z"/>
<path fill="#ffffff" stroke="none" d="M2132 2448 c-9 -9 -8 -16 6 -32 17 -21
17 -21 -5 -2 -18 15 -20 22 -12 33 6 7 14 13 17 13 3 0 1 -5 -6 -12z"/>
<path fill="#ffffff" stroke="none" d="M1263 2436 c3 3 4 -1 3 -10 -1 -8 -6
-19 -12 -23 -5 -4 -6 -4 -1 1 4 5 -1 19 -10 30 -14 15 -14 18 -2 8 9 -6 18 -9
22 -6z"/>
<path fill="#ffffff" stroke="none" d="M1327 2443 c-4 -4 5 -20 20 -37 l28
-31 -32 29 c-28 25 -35 46 -16 46 4 0 3 -3 0 -7z"/>
<path fill="#ffffff" stroke="none" d="M2041 2433 c12 -16 12 -17 -2 -6 -9 7
-20 9 -24 5 -5 -4 -5 -1 -1 6 9 16 11 15 27 -5z"/>
<path fill="#ffffff" stroke="none" d="M1235 2402 c-1 -9 4 -24 11 -33 12 -14
11 -18 -8 -35 -12 -10 -18 -14 -15 -7 4 6 3 14 -3 18 -5 3 -10 12 -10 18 0 7
5 4 11 -6 6 -9 15 -15 20 -11 6 3 5 12 -3 21 -7 9 -13 26 -13 37 -1 12 -7 20
-14 18 -7 -1 -10 2 -6 8 10 16 34 -7 30 -28z"/>
<path fill="#ffffff" stroke="none" d="M1400 2415 c13 -14 21 -25 18 -25 -2 0
-15 11 -28 25 -13 14 -21 25 -18 25 2 0 15 -11 28 -25z"/>
<path fill="#ffffff" stroke="none" d="M1665 2420 c10 -11 16 -20 13 -20 -3 0
-13 9 -23 20 -10 11 -16 20 -13 20 3 0 13 -9 23 -20z"/>
<path fill="#ffffff" stroke="none" d="M1831 2413 l24 -28 -26 23 c-14 12 -29
19 -34 15 -4 -5 -5 -2 -1 5 9 16 9 16 37 -15z"/>
<path fill="#ffffff" stroke="none" d="M1905 2420 c10 -11 16 -20 13 -20 -3 0
-13 9 -23 20 -10 11 -16 20 -13 20 3 0 13 -9 23 -20z"/>
<path fill="#ffffff" stroke="none" d="M1981 2413 l24 -28 -26 23 c-14 12 -29
19 -34 15 -4 -5 -5 -2 -1 5 9 16 9 16 37 -15z"/>
<path fill="#ffffff" stroke="none" d="M2076 2432 c-3 -5 7 -21 23 -36 19 -18
27 -36 26 -54 -1 -15 4 -34 12 -44 10 -11 11 -18 3 -23 -5 -3 -7 -12 -3 -18
10 -16 12 -57 3 -62 -4 -3 -6 9 -5 25 1 17 -2 33 -7 36 -5 3 -5 11 2 19 7 9 6
16 -4 24 -7 6 -12 25 -11 41 2 21 -5 36 -26 56 -24 23 -30 44 -13 44 3 0 3 -4
0 -8z"/>
<path fill="#ffffff" stroke="none" d="M1037 2423 c-4 -3 -1 -13 6 -22 11 -14
10 -14 -5 -2 -16 12 -16 31 -1 31 4 0 3 -3 0 -7z"/>
<path fill="#ffffff" stroke="none" d="M1502 2405 c3 3 11 -3 19 -12 12 -16
12 -17 -2 -6 -9 7 -18 11 -21 8 -3 -3 -13 5 -24 17 -19 23 -19 23 2 5 11 -9
23 -15 26 -12z"/>
<path fill="#ffffff" stroke="none" d="M1707 2411 c0 -11 -5 -18 -9 -15 -4 3
-5 11 -1 19 7 21 12 19 10 -4z"/>
<path fill="#ffffff" stroke="none" d="M2120 2405 c13 -14 21 -25 18 -25 -2 0
-15 11 -28 25 -13 14 -21 25 -18 25 2 0 15 -11 28 -25z"/>
<path fill="#ffffff" stroke="none" d="M1083 2408 c-12 -20 -11 -31 6 -53 16
-20 16 -20 -6 -2 -11 10 -20 24 -19 30 2 15 15 37 22 37 3 0 2 -6 -3 -12z"/>
<path fill="#ffffff" stroke="none" d="M1596 2398 c19 -23 19 -23 -2 -6 -15
14 -23 15 -32 6 -9 -9 -8 -17 6 -32 17 -21 17 -21 -6 -2 -21 18 -21 20 -6 38
21 22 17 22 40 -4z"/>
<path fill="#ffffff" stroke="none" d="M1659 2373 c-6 -7 -14 -13 -17 -13 -3
0 -1 5 6 12 9 9 8 16 -6 32 -17 21 -17 21 5 2 18 -15 20 -22 12 -33z"/>
<path fill="#ffffff" stroke="none" d="M1786 2408 c4 -7 4 -10 -1 -6 -4 4 -15
2 -24 -5 -14 -11 -14 -10 -2 6 16 20 18 21 27 5z"/>
<path fill="#ffffff" stroke="none" d="M1896 2390 c1 -6 2 -11 4 -12 9 -12 6
-39 -6 -49 -8 -6 -12 -15 -9 -19 2 -4 -5 -16 -18 -26 -22 -19 -22 -19 -6 1 9
11 15 28 14 37 -2 10 2 16 8 15 14 -3 16 24 4 41 -5 6 -6 12 -2 12 4 0 1 8 -6
18 -11 15 -11 15 1 4 8 -7 16 -17 16 -22z"/>
<path fill="#ffffff" stroke="none" d="M2052 2405 c3 3 13 -3 22 -14 14 -15
15 -21 4 -27 -7 -4 -10 -4 -6 1 9 10 -11 37 -22 30 -4 -3 -14 3 -21 13 -12 15
-12 16 2 5 9 -7 18 -11 21 -8z"/>
<path fill="#ffffff" stroke="none" d="M1207 2393 c0 -9 -4 -10 -14 -2 -7 6
-13 12 -13 14 0 1 6 2 13 2 8 0 14 -6 14 -14z"/>
<path fill="#ffffff" stroke="none" d="M1341 2383 l24 -28 -26 23 c-14 12 -29
19 -34 15 -4 -5 -5 -2 -1 5 9 16 9 16 37 -15z"/>
<path fill="#ffffff" stroke="none" d="M1476 2388 c10 -13 12 -17 4 -11 -9 9
-17 9 -26 2 -8 -7 -14 -7 -19 1 -4 6 -1 9 7 8 7 -2 12 3 11 10 -4 17 1 15 23
-10z"/>
<path fill="#ffffff" stroke="none" d="M1825 2390 c10 -11 16 -20 13 -20 -3 0
-13 9 -23 20 -10 11 -16 20 -13 20 3 0 13 -9 23 -20z"/>
<path fill="#ffffff" stroke="none" d="M1953 2383 c14 -16 15 -23 6 -29 -7 -4
-10 -3 -6 3 4 6 0 16 -8 23 -8 7 -15 17 -15 23 0 6 1 8 3 6 1 -2 10 -14 20
-26z"/>
<path fill="#ffffff" stroke="none" d="M1975 2390 c10 -11 16 -20 13 -20 -3 0
-13 9 -23 20 -10 11 -16 20 -13 20 3 0 13 -9 23 -20z"/>
<path fill="#ffffff" stroke="none" d="M2167 2396 c-6 -16 16 -40 26 -29 4 3
7 4 7 1 0 -3 -8 -12 -17 -19 -9 -8 -14 -9 -10 -3 4 7 0 17 -8 24 -12 10 -11
40 2 40 3 0 3 -6 0 -14z"/>
<path fill="#ffffff" stroke="none" d="M1025 2391 c3 -5 2 -12 -3 -15 -5 -3
-9 1 -9 9 0 17 3 19 12 6z"/>
<path fill="#ffffff" stroke="none" d="M1106 2382 c-3 -3 0 -12 6 -21 10 -13
10 -14 -2 -4 -16 15 -23 46 -8 37 5 -3 7 -9 4 -12z"/>
<path fill="#ffffff" stroke="none" d="M1186 2378 c19 -23 19 -23 -2 -5 -11 9
-24 14 -29 10 -4 -5 -5 -2 -1 5 9 16 10 16 32 -10z"/>
<path fill="#ffffff" stroke="none" d="M1867 2386 c-3 -7 0 -20 6 -27 10 -11
9 -11 -5 0 -15 11 -15 41 -1 41 3 0 3 -6 0 -14z"/>
<path fill="#ffffff" stroke="none" d="M2053 2375 c4 3 5 2 2 -2 -3 -3 1 -13
7 -22 7 -9 -2 -3 -20 13 -18 17 -32 32 -32 34 0 3 8 -2 18 -11 10 -10 22 -15
25 -12z"/>
<path fill="#ffffff" stroke="none" d="M1265 2330 c-19 -20 -22 -29 -13 -38 7
-7 8 -12 3 -12 -4 0 0 -10 11 -22 l19 -23 -23 19 c-12 11 -20 21 -17 24 3 3 0
10 -5 17 -7 8 -2 19 15 35 24 23 24 24 7 44 l-17 21 23 -19 22 -19 -25 -27z"/>
<path fill="#ffffff" stroke="none" d="M1591 2373 c13 -16 12 -17 -3 -4 -10 7
-18 15 -18 17 0 8 8 3 21 -13z"/>
<path fill="#ffffff" stroke="none" d="M1711 2373 c2 1 3 0 2 -2 -2 -2 2 -10
8 -18 21 -25 3 -13 -22 14 -13 15 -17 22 -8 15 9 -6 18 -11 20 -9z"/>
<path fill="#ffffff" stroke="none" d="M1777 2375 c0 -8 -4 -12 -9 -9 -5 3 -6
10 -3 15 9 13 12 11 12 -6z"/>
<path fill="#ffffff" stroke="none" d="M1826 2335 c0 -14 -2 -23 -5 -19 -3 3
-6 15 -6 27 -1 12 -6 21 -11 20 -6 -1 -11 5 -11 13 0 27 31 -13 33 -41z"/>
<path fill="#ffffff" stroke="none" d="M1936 2356 c1 -8 -8 -23 -19 -33 -22
-18 -22 -18 -6 2 17 22 18 33 5 55 -7 12 -6 13 4 3 8 -7 15 -19 16 -27z"/>
<path fill="#ffffff" stroke="none" d="M1041 2366 c-9 -10 -8 -16 4 -26 12
-10 13 -16 4 -26 -9 -11 -15 -11 -25 -3 -8 6 -14 16 -14 22 0 6 6 3 13 -8 9
-11 16 -14 20 -8 4 6 0 16 -8 23 -12 10 -13 16 -4 26 6 8 14 14 16 14 3 0 0
-6 -6 -14z"/>
<path fill="#ffffff" stroke="none" d="M1335 2360 c10 -11 16 -20 13 -20 -3 0
-13 9 -23 20 -10 11 -16 20 -13 20 3 0 13 -9 23 -20z"/>
<path fill="#ffffff" stroke="none" d="M1431 2363 c12 -16 12 -17 -2 -6 -9 7
-20 9 -24 5 -5 -4 -5 -1 -1 6 9 16 11 15 27 -5z"/>
<path fill="#ffffff" stroke="none" d="M1511 2356 c-7 -8 -7 -16 -1 -22 7 -7
1 -19 -17 -35 l-28 -24 22 25 c22 25 22 27 5 44 -13 14 -14 17 -2 14 8 -2 14
3 12 10 -1 8 2 11 8 7 8 -5 8 -11 1 -19z"/>
<path fill="#ffffff" stroke="none" d="M2025 2330 c-10 -11 -11 -20 -4 -27 7
-7 4 -14 -8 -24 -16 -12 -17 -12 -6 2 7 9 10 19 6 23 -9 9 -13 36 -5 33 4 -1
7 3 7 8 0 6 -3 9 -6 8 -3 -1 -6 5 -6 13 0 11 4 11 19 -3 16 -14 17 -18 3 -33z"/>
<path fill="#ffffff" stroke="none" d="M1145 2343 c-1 -16 2 -33 6 -39 5 -6 3
-11 -4 -11 -9 0 -13 12 -11 36 2 39 2 41 7 41 2 0 3 -12 2 -27z"/>
<path fill="#ffffff" stroke="none" d="M1175 2342 c-1 -9 2 -23 8 -29 5 -7 6
-13 2 -13 -4 0 -1 -8 6 -17 11 -16 11 -16 -1 -5 -8 7 -16 17 -16 23 -1 5 -3
10 -4 12 -6 7 -6 56 1 52 4 -3 6 -13 4 -23z"/>
<path fill="#ffffff" stroke="none" d="M1467 2363 c-4 -3 0 -14 8 -23 14 -15
13 -19 -5 -35 -16 -15 -18 -21 -7 -34 11 -14 10 -14 -6 -2 -17 13 -17 15 3 36
18 19 19 23 5 35 -13 11 -12 30 2 30 4 0 3 -3 0 -7z"/>
<path fill="#ffffff" stroke="none" d="M1555 2350 c10 -11 16 -20 13 -20 -3 0
-13 9 -23 20 -10 11 -16 20 -13 20 3 0 13 -9 23 -20z"/>
<path fill="#ffffff" stroke="none" d="M1699 2346 c17 -18 19 -26 10 -31 -7
-5 -10 -4 -6 2 8 13 -27 46 -38 36 -4 -5 -5 -2 -1 5 9 16 9 16 35 -12z"/>
<path fill="#ffffff" stroke="none" d="M2156 2352 c-3 -3 0 -12 6 -21 10 -13
10 -14 -2 -4 -16 15 -23 46 -8 37 5 -3 7 -9 4 -12z"/>
<path fill="#ffffff" stroke="none" d="M1070 2305 c-13 -14 -17 -24 -10 -31 7
-7 3 -17 -12 -30 -13 -10 -20 -15 -15 -10 4 5 0 18 -10 28 -9 10 -12 18 -8 18
5 0 -3 13 -18 28 -20 21 -23 29 -12 29 8 0 13 -3 10 -5 -3 -3 5 -16 17 -29 12
-13 18 -23 14 -23 -5 0 -3 -7 4 -15 7 -8 16 -12 22 -9 5 3 5 11 -1 18 -8 10
-5 18 9 31 19 17 19 19 3 39 l-18 21 23 -19 22 -19 -20 -22z"/>
<path fill="#ffffff" stroke="none" d="M1326 2326 c-1 -8 -7 -20 -14 -28 -9
-11 -9 -18 1 -28 10 -12 9 -12 -6 -1 -15 12 -15 16 -4 30 15 18 16 30 2 51 -7
13 -6 13 7 2 9 -7 15 -19 14 -26z"/>
<path fill="#ffffff" stroke="none" d="M1757 2353 c-4 -3 3 -18 15 -32 l23
-26 -27 24 c-24 21 -29 41 -11 41 4 0 3 -3 0 -7z"/>
<path fill="#ffffff" stroke="none" d="M1856 2324 c0 -13 -5 -29 -13 -35 -10
-9 -11 -15 -1 -28 10 -13 10 -14 -2 -4 -17 16 -22 43 -7 40 7 -1 12 11 11 30
-1 38 10 35 12 -3z"/>
<path fill="#ffffff" stroke="none" d="M1986 2335 c-1 -14 -8 -30 -15 -37 -11
-11 -12 -10 -5 2 5 8 9 23 10 33 3 37 12 39 10 2z"/>
<path fill="#ffffff" stroke="none" d="M2096 2336 c0 -14 -3 -23 -7 -20 -6 3
-6 22 0 42 3 10 7 -2 7 -22z"/>
<path fill="#ffffff" stroke="none" d="M1197 2339 c-1 -3 4 -13 11 -22 9 -10
10 -17 2 -22 -6 -4 -10 -3 -9 2 1 4 0 10 -1 13 -4 11 -8 42 -5 38 2 -1 3 -6 2
-9z"/>
<path fill="#ffffff" stroke="none" d="M1354 2309 c-30 -32 -48 -41 -21 -11
10 10 14 22 10 26 -5 4 -1 6 7 4 8 -2 14 3 12 10 -1 8 2 11 9 7 7 -5 1 -17
-17 -36z"/>
<path fill="#ffffff" stroke="none" d="M1425 2329 c0 -5 5 -8 10 -6 6 1 9 6 7
10 -1 5 2 6 8 2 8 -5 7 -11 -1 -21 -14 -17 -31 -5 -35 22 -1 9 1 13 4 9 4 -4
7 -11 7 -16z"/>
<path fill="#ffffff" stroke="none" d="M1541 2316 c-12 -15 -12 -28 2 -46 10
-13 10 -13 -5 -2 -16 13 -18 35 -5 48 4 4 1 14 -6 23 -11 14 -10 14 6 2 11 -9
14 -18 8 -25z"/>
<path fill="#ffffff" stroke="none" d="M1595 2333 c-1 -10 1 -23 6 -29 5 -6 4
-11 -5 -11 -10 0 -15 35 -7 55 4 10 9 -1 6 -15z"/>
<path fill="#ffffff" stroke="none" d="M1656 2324 c1 -9 0 -13 -4 -10 -3 4 -7
14 -8 22 -1 9 0 13 4 10 3 -4 7 -14 8 -22z"/>
<path fill="#ffffff" stroke="none" d="M1797 2333 c0 -9 -4 -10 -14 -2 -7 6
-13 12 -13 14 0 1 6 2 13 2 8 0 14 -6 14 -14z"/>
<path fill="#ffffff" stroke="none" d="M2215 2340 c4 -6 1 -9 -7 -8 -7 2 -12
-3 -10 -10 1 -8 -2 -11 -8 -7 -8 5 -7 11 1 21 14 17 16 17 24 4z"/>
<path fill="#ffffff" stroke="none" d="M1117 2325 c0 -8 -4 -12 -9 -9 -5 3 -6
10 -3 15 9 13 12 11 12 -6z"/>
<path fill="#ffffff" stroke="none" d="M1296 2325 c-3 -23 -22 -39 -31 -26 -3
7 -1 10 6 9 7 -2 14 3 15 10 2 19 4 22 8 22 2 0 3 -7 2 -15z"/>
<path fill="#ffffff" stroke="none" d="M1686 2315 c3 -19 -22 -40 -31 -25 -4
6 -1 9 7 8 8 -2 13 6 12 20 -2 24 8 22 12 -3z"/>
<path fill="#ffffff" stroke="none" d="M1956 2325 c-1 -8 -5 -18 -9 -21 -4 -4
-2 -13 4 -20 7 -9 6 -14 -3 -20 -7 -4 -10 -3 -5 1 4 5 -1 17 -10 27 -13 15
-14 19 -3 16 8 -2 15 3 16 10 2 19 4 22 8 22 2 0 3 -7 2 -15z"/>
<path fill="#ffffff" stroke="none" d="M1372 2297 c-31 -31 -31 -34 -14 -52
17 -19 17 -19 -6 0 l-22 19 32 33 c17 18 34 33 37 33 3 0 -9 -15 -27 -33z"/>
<path fill="#ffffff" stroke="none" d="M1760 2305 c13 -14 21 -25 18 -25 -2 0
-15 11 -28 25 -13 14 -21 25 -18 25 2 0 15 -11 28 -25z"/>
<path fill="#ffffff" stroke="none" d="M2047 2323 c-4 -3 0 -15 10 -25 9 -10
12 -18 8 -18 -5 0 2 -12 16 -27 l24 -28 -27 24 c-15 13 -25 27 -23 31 3 4 -2
13 -10 20 -14 11 -12 30 2 30 4 0 3 -3 0 -7z"/>
<path fill="#ffffff" stroke="none" d="M2080 2305 c14 -19 14 -19 -2 -6 -10 7
-18 18 -18 24 0 6 1 8 3 6 1 -2 9 -13 17 -24z"/>
<path fill="#ffffff" stroke="none" d="M1566 2305 c-1 -8 -5 -17 -8 -21 -5 -4
-4 16 1 34 3 9 9 -1 7 -13z"/>
<path fill="#ffffff" stroke="none" d="M2172 2305 c3 3 11 -1 17 -9 8 -10 9
-16 1 -21 -6 -4 -9 -1 -8 6 2 7 -2 13 -9 14 -7 0 -18 7 -25 15 -11 12 -11 12
3 2 9 -6 18 -10 21 -7z"/>
<path fill="#ffffff" stroke="none" d="M1100 2306 c0 -2 -8 -10 -17 -17 -16
-13 -17 -12 -4 4 13 16 21 21 21 13z"/>
<path fill="#ffffff" stroke="none" d="M1421 2293 c13 -16 12 -17 -3 -4 -10 7
-19 11 -19 7 -1 -3 -2 -10 -3 -15 -2 -19 -23 -34 -31 -22 -3 7 -1 10 6 9 7 -2
13 2 14 7 0 11 14 35 19 35 2 0 10 -8 17 -17z"/>
<path fill="#ffffff" stroke="none" d="M1750 2285 c13 -14 21 -25 18 -25 -2 0
-15 11 -28 25 -13 14 -21 25 -18 25 2 0 15 -11 28 -25z"/>
<path fill="#ffffff" stroke="none" d="M1807 2291 c0 -11 -5 -18 -9 -15 -4 3
-5 11 -1 19 7 21 12 19 10 -4z"/>
<path fill="#ffffff" stroke="none" d="M1107 2282 c-11 -12 -13 -22 -7 -28 7
-7 3 -17 -12 -30 l-23 -19 18 22 c13 14 15 23 7 28 -8 5 -6 13 6 26 9 10 19
19 22 19 3 0 -2 -8 -11 -18z"/>
<path fill="#ffffff" stroke="none" d="M1731 2273 l24 -28 -26 22 c-19 18 -28
20 -37 11 -9 -9 -8 -17 6 -32 17 -21 17 -21 -6 -2 -21 18 -21 20 -6 38 10 10
18 18 19 18 1 0 12 -12 26 -27z"/>
<path fill="#ffffff" stroke="none" d="M1926 2264 c1 -9 -1 -13 -4 -9 -4 4 -7
12 -7 18 -1 7 -7 11 -14 9 -7 -1 -9 2 -6 9 9 13 28 -3 31 -27z"/>
<path fill="#ffffff" stroke="none" d="M1992 2288 c-9 -9 -9 -15 1 -27 11 -14
10 -14 -6 -2 -13 10 -15 17 -6 27 6 8 14 14 17 14 3 0 1 -5 -6 -12z"/>
<path fill="#ffffff" stroke="none" d="M2111 2277 c-7 -7 -7 -14 0 -24 18 -21
4 -15 -17 8 -14 15 -15 20 -4 17 8 -2 14 3 12 10 -1 8 2 11 9 7 7 -5 8 -10 0
-18z"/>
<path fill="#ffffff" stroke="none" d="M1227 2283 c-4 -4 5 -20 20 -37 l28
-31 -32 29 c-28 25 -35 46 -16 46 4 0 3 -3 0 -7z"/>
<path fill="#ffffff" stroke="none" d="M1502 2278 c-9 -9 -7 -18 11 -37 l22
-26 -27 24 c-21 19 -25 27 -17 38 6 7 14 13 17 13 3 0 1 -5 -6 -12z"/>
<path fill="#ffffff" stroke="none" d="M1127 2273 c-4 -3 0 -15 10 -25 9 -10
13 -18 8 -18 -4 0 -1 -8 6 -17 13 -16 12 -17 -3 -4 -10 7 -16 17 -13 21 3 4
-2 13 -10 20 -14 11 -12 30 2 30 4 0 3 -3 0 -7z"/>
<path fill="#ffffff" stroke="none" d="M1163 2253 c14 -16 15 -23 6 -29 -7 -4
-10 -3 -6 3 4 6 0 16 -8 23 -8 7 -15 17 -15 23 0 6 1 8 3 6 1 -2 10 -14 20
-26z"/>
<path fill="#ffffff" stroke="none" d="M1181 2263 c13 -16 12 -17 -3 -4 -10 7
-18 15 -18 17 0 8 8 3 21 -13z"/>
<path fill="#ffffff" stroke="none" d="M1300 2235 c-5 -6 -8 -14 -5 -17 3 -3
-1 -11 -9 -17 -10 -8 -16 -9 -21 -1 -4 6 -1 9 6 8 7 -2 13 2 14 9 0 6 3 15 8
19 4 4 -1 17 -10 28 -18 21 -18 21 4 2 16 -13 20 -23 13 -31z"/>
<path fill="#ffffff" stroke="none" d="M1577 2265 c0 -8 -4 -12 -9 -9 -5 3 -6
10 -3 15 9 13 12 11 12 -6z"/>
<path fill="#ffffff" stroke="none" d="M1635 2260 c13 -15 13 -19 2 -29 -11
-9 -17 -8 -28 5 -30 36 -5 59 26 24z"/>
<path fill="#ffffff" stroke="none" d="M2032 2268 c-9 -9 -7 -17 9 -34 15 -16
17 -24 8 -29 -7 -5 -10 -4 -6 2 4 6 -2 18 -13 28 -15 14 -17 21 -9 32 6 7 14
13 17 13 3 0 1 -5 -6 -12z"/>
<path fill="#ffffff" stroke="none" d="M2167 2265 c0 -8 -4 -12 -9 -9 -5 3 -6
10 -3 15 9 13 12 11 12 -6z"/>
<path fill="#ffffff" stroke="none" d="M1407 2253 c-16 -16 -16 -18 1 -37 17
-21 17 -21 -6 -2 -21 18 -21 20 -6 38 10 10 20 18 23 18 3 0 -2 -8 -12 -17z"/>
<path fill="#ffffff" stroke="none" d="M1432 2248 c-9 -9 -9 -15 1 -27 10 -14
10 -14 -5 -3 -14 11 -15 17 -5 32 6 11 13 17 16 14 3 -2 -1 -10 -7 -16z"/>
<path fill="#ffffff" stroke="none" d="M1531 2253 c13 -16 12 -17 -3 -4 -10 7
-18 15 -18 17 0 8 8 3 21 -13z"/>
<path fill="#ffffff" stroke="none" d="M1721 2253 c13 -16 12 -17 -3 -4 -10 7
-18 15 -18 17 0 8 8 3 21 -13z"/>
<path fill="#ffffff" stroke="none" d="M1791 2247 c-8 -8 -5 -17 11 -34 12
-13 19 -23 17 -23 -3 0 -18 14 -35 31 -16 17 -23 29 -14 27 8 -2 14 3 12 10
-1 8 2 11 9 7 8 -5 8 -10 0 -18z"/>
<path fill="#ffffff" stroke="none" d="M1877 2263 c-4 -3 3 -18 15 -32 l23
-26 -27 24 c-24 21 -29 41 -11 41 4 0 3 -3 0 -7z"/>
<path fill="#ffffff" stroke="none" d="M1910 2245 c14 -19 14 -19 -2 -6 -10 7
-18 18 -18 24 0 6 1 8 3 6 1 -2 9 -13 17 -24z"/>
<path fill="#ffffff" stroke="none" d="M1207 2246 c-3 -7 0 -19 6 -25 6 -6 7
-11 2 -11 -4 0 0 -10 11 -22 l19 -23 -22 19 c-13 10 -20 22 -18 27 3 4 1 10
-4 14 -10 5 -4 35 6 35 3 0 3 -6 0 -14z"/>
<path fill="#ffffff" stroke="none" d="M1831 2243 c13 -16 12 -17 -3 -4 -10 7
-18 15 -18 17 0 8 8 3 21 -13z"/>
<path fill="#ffffff" stroke="none" d="M1981 2243 c13 -16 12 -17 -3 -4 -10 7
-18 15 -18 17 0 8 8 3 21 -13z"/>
<path fill="#ffffff" stroke="none" d="M2070 2235 c13 -14 21 -25 18 -25 -2 0
-15 11 -28 25 -13 14 -21 25 -18 25 2 0 15 -11 28 -25z"/>
<path fill="#ffffff" stroke="none" d="M1080 2246 c0 -2 -8 -10 -17 -17 -16
-13 -17 -12 -4 4 13 16 21 21 21 13z"/>
<path fill="#ffffff" stroke="none" d="M1352 2206 c-10 -16 -10 -29 1 -43 5
-7 6 -13 2 -13 -5 0 0 -9 9 -19 14 -15 15 -21 4 -27 -7 -4 -10 -3 -5 1 4 5 0
17 -10 27 -9 10 -13 18 -9 18 4 0 4 6 -1 13 -12 19 -12 36 -1 43 5 3 2 15 -9
27 l-18 22 22 -19 c13 -10 19 -24 15 -30z"/>
<path fill="#ffffff" stroke="none" d="M1502 2221 l23 -26 -25 21 c-14 12 -33
20 -43 19 -9 -2 -15 0 -12 4 9 15 35 7 57 -18z"/>
<path fill="#ffffff" stroke="none" d="M1582 2235 c3 3 13 -5 24 -17 19 -23
19 -23 -2 -6 -16 14 -23 15 -34 5 -8 -6 -11 -8 -7 -3 4 5 1 16 -6 25 -10 14
-10 14 4 4 9 -7 18 -11 21 -8z"/>
<path fill="#ffffff" stroke="none" d="M1685 2230 c10 -11 16 -20 13 -20 -3 0
-13 9 -23 20 -10 11 -16 20 -13 20 3 0 13 -9 23 -20z"/>
<path fill="#ffffff" stroke="none" d="M1966 2228 c19 -23 19 -23 -2 -5 -11 9
-24 14 -29 10 -4 -5 -5 -2 -1 5 9 16 10 16 32 -10z"/>
<path fill="#ffffff" stroke="none" d="M1245 2212 c-3 -3 2 -13 11 -23 12 -14
13 -18 2 -25 -7 -4 -10 -3 -5 1 4 5 0 17 -10 27 -9 10 -13 18 -8 18 4 0 1 8
-6 18 -13 15 -12 16 4 3 9 -8 15 -16 12 -19z"/>
<path fill="#ffffff" stroke="none" d="M1774 2212 c25 -27 26 -30 9 -42 -15
-12 -16 -12 -6 0 11 11 8 19 -14 42 -15 15 -24 28 -22 28 3 0 18 -13 33 -28z"/>
<path fill="#ffffff" stroke="none" d="M1821 2223 c13 -16 12 -17 -3 -4 -10 7
-18 15 -18 17 0 8 8 3 21 -13z"/>
<path fill="#ffffff" stroke="none" d="M1857 2226 c-3 -8 1 -20 9 -27 8 -6 12
-14 9 -17 -3 -3 0 -11 5 -17 7 -8 3 -18 -13 -31 l-22 -19 18 22 c12 14 15 23
7 28 -5 3 -8 10 -5 15 3 4 -2 13 -10 20 -12 10 -11 40 2 40 3 0 3 -6 0 -14z"/>
<path fill="#ffffff" stroke="none" d="M2025 2212 c-3 -3 1 -12 8 -21 11 -14
10 -14 -6 -2 -9 8 -15 16 -12 19 3 3 -1 12 -8 21 -11 14 -10 14 6 2 9 -8 15
-16 12 -19z"/>
<path fill="#ffffff" stroke="none" d="M1112 2218 c-8 -8 -8 -16 -2 -23 7 -8
3 -18 -13 -31 l-22 -19 18 22 c13 14 15 23 7 28 -8 5 -8 11 1 21 6 8 14 14 17
14 3 0 1 -5 -6 -12z"/>
<path fill="#ffffff" stroke="none" d="M1324 2221 c3 -4 -7 -19 -22 -32 l-27
-24 23 26 c12 14 19 29 15 32 -3 4 -4 7 0 7 3 0 8 -4 11 -9z"/>
<path fill="#ffffff" stroke="none" d="M1546 2201 c0 -16 -4 -27 -7 -25 -4 2
-6 12 -4 22 2 9 4 20 4 25 1 4 3 7 5 7 2 0 3 -13 2 -29z"/>
<path fill="#ffffff" stroke="none" d="M1686 2187 c-1 -7 -5 -17 -9 -23 -4 -7
0 -17 8 -24 9 -7 12 -17 7 -24 -7 -9 -9 -51 -2 -58 5 -8 7 -39 2 -33 -4 4 -8
11 -8 16 -1 5 -3 10 -4 12 -7 8 -5 59 2 63 5 4 -1 17 -14 31 -14 15 -18 23 -8
21 8 -2 15 4 15 12 2 20 -15 41 -27 34 -5 -3 -4 -13 4 -22 12 -15 11 -16 -5
-3 -13 11 -15 17 -6 28 10 11 15 11 29 -2 10 -9 17 -22 16 -28z"/>
<path fill="#ffffff" stroke="none" d="M1751 2203 l24 -28 -26 23 c-14 12 -29
19 -34 15 -4 -5 -5 -2 -1 5 9 16 9 16 37 -15z"/>
<path fill="#ffffff" stroke="none" d="M2115 2213 c-1 -10 3 -25 9 -33 9 -13
9 -13 -6 -2 -13 10 -16 26 -9 50 4 11 9 -2 6 -15z"/>
<path fill="#ffffff" stroke="none" d="M1187 2213 c-4 -3 2 -17 14 -29 15 -16
17 -24 8 -29 -7 -5 -10 -4 -6 2 4 6 -2 18 -13 28 -17 16 -19 35 -3 35 4 0 3
-3 0 -7z"/>
<path fill="#ffffff" stroke="none" d="M1394 2201 c14 -15 15 -21 4 -27 -7 -4
-10 -3 -5 1 4 5 0 17 -10 27 -9 10 -14 18 -11 18 3 0 13 -9 22 -19z"/>
<path fill="#ffffff" stroke="none" d="M1464 2198 c1 -7 5 -20 10 -28 7 -12 6
-13 -4 -3 -8 7 -15 23 -17 35 -2 12 -1 19 3 16 3 -3 6 -12 8 -20z"/>
<path fill="#ffffff" stroke="none" d="M1489 2206 c9 -11 9 -16 -1 -22 -7 -4
-10 -4 -6 1 4 4 3 14 -3 22 -6 7 -9 13 -6 13 2 0 10 -6 16 -14z"/>
<path fill="#ffffff" stroke="none" d="M1891 2203 c13 -16 12 -17 -3 -4 -10 7
-18 15 -18 17 0 8 8 3 21 -13z"/>
<path fill="#ffffff" stroke="none" d="M1926 2198 c-3 -13 -5 -25 -6 -28 -2
-3 -2 -8 -2 -11 1 -3 -13 -19 -31 -35 l-32 -29 27 31 c22 24 25 33 15 43 -10
10 -9 12 3 9 8 -2 15 3 16 10 1 6 2 17 3 22 0 6 3 10 6 10 3 0 3 -10 1 -22z"/>
<path fill="#ffffff" stroke="none" d="M1956 2195 c1 -8 -5 -20 -14 -27 -15
-11 -15 -11 -6 2 6 8 10 23 8 33 -1 11 0 16 4 13 3 -4 7 -13 8 -21z"/>
<path fill="#ffffff" stroke="none" d="M1139 2197 c8 -11 4 -19 -17 -38 l-27
-24 22 26 c18 19 20 28 11 37 -7 7 -9 12 -6 12 3 0 11 -6 17 -13z"/>
<path fill="#ffffff" stroke="none" d="M1606 2174 c1 -9 -1 -13 -4 -9 -4 4 -7
10 -7 13 0 4 -4 14 -9 22 -7 12 -6 13 4 3 8 -7 15 -20 16 -29z"/>
<path fill="#ffffff" stroke="none" d="M1085 2191 c3 -5 2 -12 -3 -15 -5 -3
-9 1 -9 9 0 17 3 19 12 6z"/>
<path fill="#ffffff" stroke="none" d="M1376 2174 c1 -9 0 -13 -4 -10 -3 4 -7
14 -8 22 -1 9 0 13 4 10 3 -4 7 -14 8 -22z"/>
<path fill="#ffffff" stroke="none" d="M1437 2193 c-4 -3 1 -16 10 -27 18 -21
18 -21 -4 -2 -20 16 -23 36 -6 36 4 0 3 -3 0 -7z"/>
<path fill="#ffffff" stroke="none" d="M1570 2185 c1 -5 8 -17 16 -27 12 -13
13 -17 2 -24 -7 -4 -10 -4 -6 1 4 4 2 15 -4 23 -10 12 -22 50 -13 40 2 -1 4
-7 5 -13z"/>
<path fill="#ffffff" stroke="none" d="M1744 2181 c15 -13 15 -16 -4 -36 -16
-17 -17 -24 -7 -35 10 -12 9 -12 -6 -1 -17 13 -17 15 3 36 17 18 18 24 7 33
-9 8 -17 8 -24 1 -6 -6 -10 -5 -10 5 0 17 19 15 41 -3z"/>
<path fill="#ffffff" stroke="none" d="M1843 2186 c3 -8 -4 -22 -16 -33 -22
-18 -22 -18 -6 2 9 11 14 26 12 33 -6 17 4 15 10 -2z"/>
<path fill="#ffffff" stroke="none" d="M1984 2191 c3 -4 -4 -17 -17 -27 -22
-19 -22 -19 -4 2 9 11 14 24 10 27 -3 4 -4 7 0 7 3 0 8 -4 11 -9z"/>
<path fill="#ffffff" stroke="none" d="M1186 2146 c-1 -14 -4 -28 -7 -31 -3
-3 -5 7 -4 22 1 16 -3 35 -9 43 -9 13 -9 13 5 3 9 -7 15 -24 15 -37z"/>
<path fill="#ffffff" stroke="none" d="M1513 2178 c-11 -19 -11 -51 1 -68 9
-13 8 -13 -5 -3 -21 17 -16 83 7 83 3 0 2 -6 -3 -12z"/>
<path fill="#ffffff" stroke="none" d="M1627 2178 c-1 -3 9 -19 23 -35 l25
-28 -26 23 c-14 12 -26 29 -26 37 0 8 1 14 3 13 1 -2 2 -6 1 -10z"/>
<path fill="#ffffff" stroke="none" d="M2021 2173 c13 -16 12 -17 -3 -4 -10 7
-18 15 -18 17 0 8 8 3 21 -13z"/>
<path fill="#ffffff" stroke="none" d="M1307 2162 c-11 -12 -13 -22 -7 -28 7
-7 1 -18 -17 -35 l-28 -24 22 25 c22 25 22 27 5 44 -9 11 -12 16 -6 13 7 -4
17 0 24 8 7 8 15 15 18 15 3 0 -2 -8 -11 -18z"/>
<path fill="#ffffff" stroke="none" d="M1807 2162 c-12 -13 -13 -22 -6 -29 7
-7 4 -14 -8 -24 -16 -13 -17 -12 -5 3 9 12 10 18 2 23 -8 5 -6 13 6 26 9 10
19 19 22 19 3 0 -2 -8 -11 -18z"/>
<path fill="#ffffff" stroke="none" d="M1155 2123 c-1 -28 4 -55 12 -65 11
-12 12 -18 2 -24 -7 -4 -10 -3 -6 3 4 6 1 16 -6 21 -13 11 -16 112 -4 112 2 0
2 -21 2 -47z"/>
<path fill="#ffffff" stroke="none" d="M1435 2150 c10 -11 16 -20 13 -20 -3 0
-13 9 -23 20 -10 11 -16 20 -13 20 3 0 13 -9 23 -20z"/>
<path fill="#ffffff" stroke="none" d="M1536 2145 c1 -8 -1 -17 -5 -19 -4 -3
-7 6 -7 19 0 25 8 25 12 0z"/>
<path fill="#ffffff" stroke="none" d="M1730 2166 c0 -2 -6 -9 -14 -15 -11 -9
-16 -9 -22 0 -4 7 -3 9 4 5 6 -3 13 -2 17 4 6 10 15 14 15 6z"/>
<path fill="#ffffff" stroke="none" d="M2011 2153 c11 -15 11 -16 -1 -6 -11
10 -17 10 -29 0 -14 -11 -14 -10 -2 6 7 9 15 17 16 17 1 0 9 -8 16 -17z"/>
<path fill="#ffffff" stroke="none" d="M2047 2150 c-2 -11 -6 -23 -10 -26 -4
-4 -2 -13 4 -21 18 -21 4 -15 -17 8 -13 14 -14 20 -4 17 8 -2 15 3 16 10 1 6
2 17 3 22 0 6 3 10 6 10 3 0 4 -9 2 -20z"/>
<path fill="#ffffff" stroke="none" d="M1237 2153 c-4 -3 -2 -12 3 -18 7 -9 5
-17 -7 -26 -16 -13 -17 -12 -5 3 9 11 10 18 2 23 -10 6 -5 25 7 25 4 0 3 -3 0
-7z"/>
<path fill="#ffffff" stroke="none" d="M1326 2151 c-3 -5 0 -14 8 -20 8 -7 13
-20 11 -29 -1 -9 5 -26 14 -37 16 -20 16 -20 -6 -2 -12 10 -20 27 -18 37 2 10
-3 24 -11 30 -12 11 -11 30 2 30 3 0 3 -4 0 -9z"/>
<path fill="#ffffff" stroke="none" d="M1420 2095 c-11 -12 -17 -25 -13 -30 5
-4 2 -5 -5 -1 -11 6 -9 13 7 30 l21 22 -23 24 -22 24 28 -24 27 -24 -20 -21z"/>
<path fill="#ffffff" stroke="none" d="M1566 2139 c1 -5 2 -10 4 -11 5 -8 7
-39 2 -33 -4 4 -8 11 -8 16 -1 5 -2 10 -4 12 -5 7 -7 38 -2 32 4 -4 8 -11 8
-16z"/>
<path fill="#ffffff" stroke="none" d="M1847 2142 c-12 -13 -14 -21 -6 -29 8
-8 7 -13 -2 -18 -7 -5 -10 -4 -5 3 3 6 1 14 -4 17 -8 5 -6 13 6 26 9 10 19 19
22 19 3 0 -2 -8 -11 -18z"/>
<path fill="#ffffff" stroke="none" d="M1260 2105 c-11 -12 -17 -25 -13 -30 5
-4 2 -5 -5 -1 -11 6 -9 13 7 30 17 18 18 25 8 36 -10 12 -9 12 6 1 17 -13 17
-15 -3 -36z"/>
<path fill="#ffffff" stroke="none" d="M1399 2103 c-6 -7 -14 -13 -17 -13 -3
0 -1 5 6 12 9 9 8 16 -6 32 -17 21 -17 21 5 2 18 -15 20 -22 12 -33z"/>
<path fill="#ffffff" stroke="none" d="M1477 2135 c0 -8 -4 -12 -9 -9 -5 3 -6
10 -3 15 9 13 12 11 12 -6z"/>
<path fill="#ffffff" stroke="none" d="M1640 2125 c13 -14 21 -25 18 -25 -2 0
-15 11 -28 25 -13 14 -21 25 -18 25 2 0 15 -11 28 -25z"/>
<path fill="#ffffff" stroke="none" d="M1770 2146 c0 -2 -8 -10 -17 -17 -16
-13 -17 -12 -4 4 13 16 21 21 21 13z"/>
<path fill="#ffffff" stroke="none" d="M1928 2133 c-15 -19 -18 -69 -5 -90 4
-6 2 -15 -4 -19 -7 -4 -9 -3 -5 4 3 6 3 13 -2 16 -21 13 2 106 26 106 3 0 -2
-8 -10 -17z"/>
<path fill="#ffffff" stroke="none" d="M1127 2125 c0 -8 -4 -12 -9 -9 -5 3 -6
10 -3 15 9 13 12 11 12 -6z"/>
<path fill="#ffffff" stroke="none" d="M1211 2117 c-7 -7 -7 -14 0 -23 7 -8 6
-14 -2 -20 -7 -4 -9 -3 -5 4 3 6 2 14 -4 17 -8 5 -8 11 -1 19 6 7 7 17 3 21
-4 5 -1 5 6 0 10 -5 11 -10 3 -18z"/>
<path fill="#ffffff" stroke="none" d="M1966 2128 c4 -7 4 -10 -1 -6 -4 4 -15
2 -24 -5 -14 -11 -14 -10 -2 6 16 20 18 21 27 5z"/>
<path fill="#ffffff" stroke="none" d="M1996 2131 c-3 -4 3 -16 14 -26 12 -11
17 -22 12 -29 -5 -6 -8 -24 -7 -39 1 -15 -1 -30 -5 -32 -8 -5 -6 57 3 71 3 6
-2 19 -13 29 -17 15 -19 35 -4 35 3 0 3 -4 0 -9z"/>
<path fill="#ffffff" stroke="none" d="M1620 2095 c-6 -7 -6 -15 1 -22 8 -8 7
-13 -3 -18 -7 -5 -10 -4 -5 0 4 5 -1 17 -10 27 -10 11 -13 18 -8 16 6 -2 10 2
10 7 0 6 -4 9 -8 7 -5 -1 -6 2 -2 8 5 8 11 7 21 -1 10 -8 11 -15 4 -24z"/>
<path fill="#ffffff" stroke="none" d="M1773 2118 c-13 -21 -10 -52 6 -73 16
-20 15 -20 -5 -2 -11 9 -20 27 -20 40 2 22 13 47 22 47 3 0 2 -6 -3 -12z"/>
<path fill="#ffffff" stroke="none" d="M1482 2105 c3 3 11 -3 19 -12 12 -16
12 -17 -2 -6 -12 10 -18 10 -30 0 -7 -6 -10 -8 -6 -3 4 5 1 16 -6 25 -10 14
-10 14 4 4 9 -7 18 -11 21 -8z"/>
<path fill="#ffffff" stroke="none" d="M1546 2111 c-3 -5 0 -14 8 -20 14 -12
16 -35 3 -47 -3 -4 -5 3 -2 14 2 11 -3 26 -11 32 -12 11 -11 30 2 30 3 0 3 -4
0 -9z"/>
<path fill="#ffffff" stroke="none" d="M1316 2095 c-1 -8 -5 -18 -9 -21 -4 -4
0 -16 10 -26 25 -28 10 -21 -18 8 -14 15 -18 24 -9 22 8 -2 15 3 16 10 2 19 4
22 8 22 2 0 3 -7 2 -15z"/>
<path fill="#ffffff" stroke="none" d="M1715 2101 c3 -5 2 -12 -3 -15 -5 -3
-9 1 -9 9 0 17 3 19 12 6z"/>
<path fill="#ffffff" stroke="none" d="M1817 2103 c-4 -3 -2 -12 4 -19 7 -8 6
-14 -2 -20 -7 -4 -9 -3 -5 4 3 6 2 13 -4 17 -10 6 -5 25 7 25 4 0 3 -3 0 -7z"/>
<path fill="#ffffff" stroke="none" d="M1988 2096 c11 -6 8 -14 -12 -35 -21
-22 -24 -30 -13 -41 10 -12 9 -12 -6 -1 -16 13 -16 16 -2 31 8 9 12 20 8 24
-5 4 -3 6 2 4 6 -1 11 2 13 7 1 6 -2 10 -7 10 -5 0 -12 3 -16 7 -9 9 17 5 33
-6z"/>
<path fill="#ffffff" stroke="none" d="M1186 2082 c-3 -3 0 -12 6 -21 10 -13
10 -14 -2 -4 -16 15 -23 46 -8 37 5 -3 7 -9 4 -12z"/>
<path fill="#ffffff" stroke="none" d="M1447 2093 c-4 -3 -2 -12 4 -20 10 -11
15 -11 28 -1 14 11 14 11 4 -3 -11 -13 -10 -19 5 -33 10 -9 22 -14 25 -11 4 3
5 2 2 -2 -3 -3 3 -16 12 -27 10 -12 -8 3 -39 33 -49 47 -63 71 -41 71 4 0 3
-3 0 -7z"/>
<path fill="#ffffff" stroke="none" d="M1886 2076 c-1 -13 -7 -30 -14 -38 -6
-8 -9 -17 -6 -20 3 -3 1 -8 -3 -11 -5 -3 -9 5 -9 18 0 13 5 23 10 22 6 -1 11
8 12 21 2 27 3 32 7 32 2 0 3 -11 3 -24z"/>
<path fill="#ffffff" stroke="none" d="M1946 2075 c1 -8 -1 -17 -5 -19 -4 -3
-7 6 -7 19 0 25 8 25 12 0z"/>
<path fill="#ffffff" stroke="none" d="M1536 2059 c1 -10 2 -20 4 -21 5 -8 7
-39 2 -33 -4 4 -8 11 -8 16 -1 5 -3 10 -4 12 -5 5 -6 57 -1 51 3 -3 7 -14 7
-25z"/>
<path fill="#ffffff" stroke="none" d="M1656 2073 c-1 -7 -8 -19 -14 -25 -9
-9 -7 -18 11 -37 l22 -26 -27 24 c-25 22 -26 26 -13 41 10 11 11 20 5 26 -7 7
-6 11 4 11 7 0 13 -6 12 -14z"/>
<path fill="#ffffff" stroke="none" d="M1737 2075 c0 -8 -4 -12 -9 -9 -5 3 -6
10 -3 15 9 13 12 11 12 -6z"/>
<path fill="#ffffff" stroke="none" d="M1796 2072 c-3 -3 0 -12 6 -21 10 -13
10 -14 -2 -4 -16 15 -23 46 -8 37 5 -3 7 -9 4 -12z"/>
<path fill="#ffffff" stroke="none" d="M1857 2075 c0 -8 -4 -12 -9 -9 -5 3 -6
10 -3 15 9 13 12 11 12 -6z"/>
<path fill="#ffffff" stroke="none" d="M1596 2059 c1 -5 2 -10 4 -11 7 -9 7
-39 0 -43 -5 -3 -7 3 -5 12 1 10 0 23 -4 28 -8 15 -11 38 -3 30 4 -4 8 -11 8
-16z"/>
<path fill="#ffffff" stroke="none" d="M2047 2065 c0 -8 -4 -12 -9 -9 -5 3 -6
10 -3 15 9 13 12 11 12 -6z"/>
<path fill="#ffffff" stroke="none" d="M1225 2043 c-1 -16 4 -35 12 -44 12
-14 11 -18 -4 -30 -16 -12 -17 -12 -5 2 10 13 10 18 -1 28 -11 8 -15 50 -8 69
4 10 8 -3 6 -25z"/>
<path fill="#ffffff" stroke="none" d="M1288 2047 l22 -23 -27 -25 -28 -24 22
25 23 26 -22 22 c-13 12 -20 22 -17 22 3 0 15 -10 27 -23z"/>
<path fill="#ffffff" stroke="none" d="M1356 2025 c-1 -8 -5 -17 -8 -21 -4 -3
-5 2 -3 13 1 10 -5 27 -14 38 -16 20 -16 20 6 2 11 -10 20 -25 19 -32z"/>
<path fill="#ffffff" stroke="none" d="M1424 2048 c-5 -7 -9 -16 -9 -20 0 -3
-3 -9 -7 -12 -5 -3 -6 -3 -3 1 3 3 -3 16 -12 27 -17 19 -17 20 -1 7 15 -11 19
-11 24 3 4 9 9 15 11 12 3 -3 1 -11 -3 -18z"/>
<path fill="#ffffff" stroke="none" d="M1507 2055 c0 -8 -4 -12 -9 -9 -5 3 -6
10 -3 15 9 13 12 11 12 -6z"/>
<path fill="#ffffff" stroke="none" d="M1719 2056 c9 -11 9 -16 -1 -22 -7 -4
-10 -4 -6 1 4 4 3 14 -3 22 -6 7 -9 13 -6 13 2 0 10 -6 16 -14z"/>
<path fill="#ffffff" stroke="none" d="M1269 2013 c-14 -16 -16 -16 -24 -3 -4
6 -3 9 2 8 4 -2 8 2 8 7 0 6 -3 9 -6 8 -3 -1 -6 5 -6 13 0 11 4 11 19 -2 14
-13 15 -20 7 -31z"/>
<path fill="#ffffff" stroke="none" d="M1835 2026 c0 -18 -6 -40 -13 -48 -7
-10 -8 -18 -2 -26 7 -9 7 -9 -2 -2 -16 13 -19 40 -5 37 6 -1 12 13 13 31 2 36
3 42 7 42 2 0 3 -15 2 -34z"/>
<path fill="#ffffff" stroke="none" d="M1466 2014 c1 -9 -1 -13 -4 -9 -4 4 -7
12 -7 18 -1 7 -7 11 -14 9 -7 -1 -9 2 -6 9 9 13 28 -3 31 -27z"/>
<path fill="#ffffff" stroke="none" d="M1667 2043 c-4 -3 -1 -13 6 -22 11 -14
10 -14 -5 -2 -16 12 -16 31 -1 31 4 0 3 -3 0 -7z"/>
<path fill="#ffffff" stroke="none" d="M1765 2030 c10 -11 16 -20 13 -20 -3 0
-13 9 -23 20 -10 11 -16 20 -13 20 3 0 13 -9 23 -20z"/>
<path fill="#ffffff" stroke="none" d="M1987 2035 c0 -8 -4 -12 -9 -9 -5 3 -6
10 -3 15 9 13 12 11 12 -6z"/>
<path fill="#ffffff" stroke="none" d="M1196 2025 c-1 -8 -5 -17 -8 -21 -5 -4
-4 16 1 34 3 9 9 -1 7 -13z"/>
<path fill="#ffffff" stroke="none" d="M1386 2022 c-3 -3 0 -12 6 -21 10 -13
10 -14 -2 -4 -16 15 -23 46 -8 37 5 -3 7 -9 4 -12z"/>
<path fill="#ffffff" stroke="none" d="M1575 2023 c-1 -10 3 -25 9 -33 9 -13
9 -13 -6 -2 -13 10 -16 26 -9 50 4 11 9 -2 6 -15z"/>
<path fill="#ffffff" stroke="none" d="M1895 2023 c-2 -10 -4 -19 -4 -20 -1
-2 0 -5 2 -7 1 -3 -8 -15 -20 -28 -19 -20 -21 -27 -10 -38 10 -12 9 -12 -6 -1
-17 13 -17 15 4 38 13 12 19 23 15 23 -4 0 -4 6 1 13 4 6 8 15 9 20 3 14 4 17
8 17 2 0 3 -8 1 -17z"/>
<path fill="#ffffff" stroke="none" d="M1755 2010 c10 -11 16 -20 13 -20 -3 0
-13 9 -23 20 -10 11 -16 20 -13 20 3 0 13 -9 23 -20z"/>
<path fill="#ffffff" stroke="none" d="M1807 2015 c0 -8 -4 -12 -9 -9 -5 3 -6
10 -3 15 9 13 12 11 12 -6z"/>
<path fill="#ffffff" stroke="none" d="M1325 2003 c-1 -10 4 -26 13 -35 8 -10
12 -18 7 -18 -4 0 -1 -8 6 -17 13 -16 12 -17 -3 -4 -10 7 -16 17 -13 21 3 4
-1 13 -9 19 -11 10 -14 26 -7 49 4 11 9 -2 6 -15z"/>
<path fill="#ffffff" stroke="none" d="M1431 2007 c-8 -11 -7 -18 7 -31 10 -9
21 -14 24 -11 2 3 15 -6 27 -19 17 -18 19 -26 10 -31 -7 -5 -10 -4 -6 2 4 6
-2 18 -13 28 -11 10 -20 14 -20 10 0 -5 -11 2 -25 15 -19 18 -22 26 -14 37 6
7 14 13 16 13 3 0 0 -6 -6 -13z"/>
<path fill="#ffffff" stroke="none" d="M1740 1995 c13 -14 21 -25 18 -25 -2 0
-15 11 -28 25 -13 14 -21 25 -18 25 2 0 15 -11 28 -25z"/>
<path fill="#ffffff" stroke="none" d="M1951 2003 c13 -16 12 -17 -3 -4 -10 7
-18 15 -18 17 0 8 8 3 21 -13z"/>
<path fill="#ffffff" stroke="none" d="M1487 1998 c-2 -7 7 -26 22 -43 l26
-30 -32 29 c-17 16 -29 34 -26 42 3 8 7 14 10 14 3 0 3 -6 0 -12z"/>
<path fill="#ffffff" stroke="none" d="M1657 1965 c0 -8 -4 -12 -9 -9 -5 3 -6
9 -3 14 3 4 -2 13 -9 19 -9 8 -16 8 -20 2 -4 -5 -2 -12 3 -16 5 -3 9 -14 8
-25 -1 -10 -5 -17 -9 -14 -4 3 -5 11 -2 18 3 8 0 17 -6 21 -8 5 -8 11 1 21 10
13 14 12 29 -1 9 -8 17 -22 17 -30z"/>
<path fill="#ffffff" stroke="none" d="M1726 1978 l29 -33 -31 28 c-17 15 -34
24 -39 20 -4 -5 -5 -2 -1 5 9 16 8 17 42 -20z"/>
<path fill="#ffffff" stroke="none" d="M1935 1982 c-3 -3 0 -11 5 -17 7 -8 3
-18 -13 -31 -22 -19 -22 -19 -4 2 9 11 14 24 10 28 -5 4 -8 13 -8 19 -1 7 -7
11 -14 9 -7 -1 -10 2 -6 8 5 8 11 7 21 -1 8 -6 12 -14 9 -17z"/>
<path fill="#ffffff" stroke="none" d="M1986 1995 c-3 -23 -22 -39 -31 -26 -3
7 -1 10 6 9 7 -2 14 3 15 10 2 19 4 22 8 22 2 0 3 -7 2 -15z"/>
<path fill="#ffffff" stroke="none" d="M1215 1991 c3 -5 2 -12 -3 -15 -5 -3
-9 1 -9 9 0 17 3 19 12 6z"/>
<path fill="#ffffff" stroke="none" d="M1381 1983 c13 -16 12 -17 -3 -4 -10 7
-18 15 -18 17 0 8 8 3 21 -13z"/>
<path fill="#ffffff" stroke="none" d="M1787 1981 c0 -11 -5 -18 -9 -15 -4 3
-5 11 -1 19 7 21 12 19 10 -4z"/>
<path fill="#ffffff" stroke="none" d="M1293 1978 c-11 -15 -11 -28 0 -45 4
-6 2 -15 -4 -19 -7 -4 -9 -3 -5 4 3 6 2 13 -3 16 -14 9 -1 56 16 56 3 0 1 -6
-4 -12z"/>
<path fill="#ffffff" stroke="none" d="M1364 1971 c14 -15 15 -21 4 -27 -7 -4
-10 -3 -5 1 4 5 0 17 -10 27 -9 10 -14 18 -11 18 3 0 13 -9 22 -19z"/>
<path fill="#ffffff" stroke="none" d="M1542 1965 c3 3 11 -3 19 -12 12 -16
12 -17 -2 -6 -9 7 -18 11 -21 8 -3 -3 -13 5 -24 17 -19 23 -19 23 2 5 11 -9
23 -15 26 -12z"/>
<path fill="#ffffff" stroke="none" d="M1571 1973 c13 -16 12 -17 -3 -4 -10 7
-18 15 -18 17 0 8 8 3 21 -13z"/>
<path fill="#ffffff" stroke="none" d="M1860 1986 c0 -2 -8 -10 -17 -17 -16
-13 -17 -12 -4 4 13 16 21 21 21 13z"/>
<path fill="#ffffff" stroke="none" d="M1407 1966 c-3 -8 -3 -17 1 -20 13 -14
9 -35 -9 -52 -10 -9 -16 -21 -12 -27 4 -6 1 -7 -6 -3 -9 6 -8 13 5 27 20 23
26 46 14 54 -9 6 -3 35 7 35 3 0 3 -6 0 -14z"/>
<path fill="#ffffff" stroke="none" d="M1713 1962 c12 -11 16 -38 7 -49 -2 -2
-3 -7 -4 -12 0 -5 -3 -11 -6 -13 -3 -1 -4 -1 -3 1 2 2 -2 10 -9 18 -9 11 -8
13 2 11 16 -3 20 21 7 39 -5 7 -13 10 -19 7 -5 -3 -4 -13 4 -22 10 -14 10 -15
-2 -5 -33 30 -11 53 23 25z"/>
<path fill="#ffffff" stroke="none" d="M1910 1977 c0 -2 -10 -12 -22 -23 l-23
-19 19 23 c18 21 26 27 26 19z"/>
<path fill="#ffffff" stroke="none" d="M1256 1955 c-1 -8 -8 -21 -16 -28 -10
-10 -11 -9 -4 3 5 8 9 18 10 23 3 14 4 17 8 17 2 0 3 -7 2 -15z"/>
<path fill="#ffffff" stroke="none" d="M1310 1955 c1 -5 9 -18 17 -27 9 -10
12 -18 8 -18 -4 0 0 -10 11 -22 l19 -23 -23 19 c-12 11 -20 21 -17 24 3 3 -1
12 -7 20 -10 12 -22 50 -13 40 2 -1 4 -7 5 -13z"/>
<path fill="#ffffff" stroke="none" d="M1597 1956 c-3 -8 1 -20 9 -27 8 -6 12
-14 9 -17 -3 -3 1 -12 8 -21 11 -14 10 -14 -5 -2 -10 7 -16 17 -13 21 3 4 -2
13 -10 20 -12 10 -11 40 2 40 3 0 3 -6 0 -14z"/>
<path fill="#ffffff" stroke="none" d="M1446 1926 c-1 -8 -7 -20 -14 -28 -9
-11 -9 -18 1 -28 10 -12 9 -12 -6 -1 -15 12 -15 16 -4 30 15 18 16 30 2 51 -7
13 -6 13 7 2 9 -7 15 -19 14 -26z"/>
<path fill="#ffffff" stroke="none" d="M1774 1951 c3 -4 -7 -19 -22 -32 -14
-13 -21 -17 -14 -8 6 9 8 19 4 23 -4 4 0 6 8 4 8 -1 14 3 13 10 -3 14 3 16 11
3z"/>
<path fill="#ffffff" stroke="none" d="M1907 1942 c-13 -15 -14 -21 -4 -32 10
-12 9 -12 -6 -1 -16 13 -16 15 -1 32 10 11 19 19 22 19 3 0 -2 -8 -11 -18z"/>
<path fill="#ffffff" stroke="none" d="M1811 1933 c13 -16 12 -17 -3 -4 -10 7
-18 15 -18 17 0 8 8 3 21 -13z"/>
<path fill="#ffffff" stroke="none" d="M1952 1927 c-12 -13 -20 -26 -17 -29 3
-2 -3 -12 -13 -21 -15 -14 -19 -14 -19 -3 0 8 3 14 6 13 3 -1 6 1 6 5 0 8 46
58 53 58 3 0 -4 -10 -16 -23z"/>
<path fill="#ffffff" stroke="none" d="M1386 1925 c-3 -23 -22 -39 -31 -26 -3
7 -1 10 6 9 7 -2 14 3 15 10 2 19 4 22 8 22 2 0 3 -7 2 -15z"/>
<path fill="#ffffff" stroke="none" d="M1467 1929 c-1 -3 4 -13 11 -21 10 -13
9 -18 -3 -28 -14 -12 -13 -16 7 -39 l23 -26 -27 24 c-25 22 -26 26 -13 41 8 9
12 20 8 24 -4 3 -8 14 -9 22 -1 9 -1 14 1 12 2 -1 3 -6 2 -9z"/>
<path fill="#ffffff" stroke="none" d="M1556 1914 c1 -9 0 -13 -4 -10 -3 4 -7
14 -8 22 -1 9 0 13 4 10 3 -4 7 -14 8 -22z"/>
<path fill="#ffffff" stroke="none" d="M1647 1926 c-3 -7 0 -19 6 -25 6 -6 7
-11 2 -11 -5 0 2 -12 16 -27 l24 -28 -27 24 c-15 13 -25 27 -23 32 3 4 1 10
-4 14 -10 5 -4 35 6 35 3 0 3 -6 0 -14z"/>
<path fill="#ffffff" stroke="none" d="M1667 1929 c-1 -3 4 -13 12 -22 7 -10
10 -17 6 -17 -4 0 -1 -8 6 -17 13 -16 12 -17 -3 -5 -10 8 -17 17 -16 20 0 4
-1 9 -2 12 -4 11 -8 42 -5 38 2 -1 3 -6 2 -9z"/>
<path fill="#ffffff" stroke="none" d="M1267 1923 c-4 -3 -2 -12 4 -20 9 -11
15 -11 28 -1 13 10 13 9 -1 -8 -14 -16 -15 -23 -5 -34 10 -12 9 -12 -5 -1 -10
7 -16 17 -13 21 3 4 -2 13 -10 20 -14 11 -12 30 2 30 4 0 3 -3 0 -7z"/>
<path fill="#ffffff" stroke="none" d="M1577 1918 c-1 -3 9 -19 23 -35 l25
-28 -26 23 c-14 12 -26 29 -26 37 0 8 1 14 3 13 1 -2 2 -6 1 -10z"/>
<path fill="#ffffff" stroke="none" d="M1801 1913 c12 -16 12 -17 -2 -5 -13
10 -19 9 -29 -3 -7 -8 -9 -15 -5 -15 4 0 2 -6 -4 -13 -6 -8 -7 -18 -3 -22 4
-5 1 -5 -6 -1 -10 6 -10 11 -1 22 6 8 8 14 4 14 -5 0 0 9 10 20 22 24 19 24
36 3z"/>
<path fill="#ffffff" stroke="none" d="M1856 1894 c1 -9 -1 -13 -4 -9 -4 4 -7
10 -7 13 0 4 -4 14 -9 22 -7 12 -6 13 4 3 8 -7 15 -20 16 -29z"/>
<path fill="#ffffff" stroke="none" d="M1521 1907 c-6 -8 -8 -17 -4 -21 11
-10 12 -37 2 -30 -5 3 -7 9 -4 14 3 5 1 12 -5 15 -10 6 4 35 17 35 3 0 0 -6
-6 -13z"/>
<path fill="#ffffff" stroke="none" d="M1827 1895 c-4 -8 -2 -17 3 -20 9 -6 8
-31 -3 -41 -3 -4 -5 3 -2 14 2 12 0 24 -5 27 -9 6 -3 35 7 35 3 0 3 -7 0 -15z"/>
<path fill="#ffffff" stroke="none" d="M1885 1882 c-1 -9 2 -24 8 -32 9 -12 9
-13 -3 -2 -15 13 -23 65 -9 57 4 -3 6 -13 4 -23z"/>
<path fill="#ffffff" stroke="none" d="M1562 1885 c2 3 15 -7 29 -23 l24 -27
-26 22 c-20 19 -28 21 -39 10 -8 -6 -11 -8 -7 -3 4 5 1 16 -6 25 -10 14 -10
14 4 4 9 -7 18 -11 21 -8z"/>
<path fill="#ffffff" stroke="none" d="M1794 1891 c3 -5 -2 -15 -12 -22 -15
-12 -16 -12 -5 2 7 9 10 19 6 22 -3 4 -4 7 0 7 3 0 8 -4 11 -9z"/>
<path fill="#ffffff" stroke="none" d="M1336 1868 c19 -23 19 -23 -2 -5 -11 9
-24 14 -29 10 -4 -5 -5 -2 -1 5 9 16 10 16 32 -10z"/>
<path fill="#ffffff" stroke="none" d="M1732 1878 c-9 -9 -8 -16 6 -32 17 -21
17 -21 -5 -2 -18 15 -20 22 -12 33 6 7 14 13 17 13 3 0 1 -5 -6 -12z"/>
<path fill="#ffffff" stroke="none" d="M1497 1873 c-4 -3 -1 -13 6 -22 11 -14
10 -14 -5 -2 -16 12 -16 31 -1 31 4 0 3 -3 0 -7z"/>
<path fill="#ffffff" stroke="none" d="M1399 1844 c-14 -13 -17 -13 -30 3 -13
16 -12 17 3 4 15 -11 19 -11 24 3 4 9 9 14 12 11 3 -3 -1 -12 -9 -21z"/>
<path fill="#ffffff" stroke="none" d="M1660 1845 c13 -14 21 -25 18 -25 -2 0
-15 11 -28 25 -13 14 -21 25 -18 25 2 0 15 -11 28 -25z"/>
<path fill="#ffffff" stroke="none" d="M1805 1853 c-1 -10 3 -25 9 -33 9 -13
9 -13 -6 -2 -13 10 -16 26 -9 50 4 11 9 -2 6 -15z"/>
<path fill="#ffffff" stroke="none" d="M1876 1812 c0 -12 -2 -25 -6 -27 -4 -3
-6 9 -5 25 1 17 -1 33 -6 36 -5 3 -9 11 -9 17 1 20 24 -27 26 -51z"/>
<path fill="#ffffff" stroke="none" d="M1350 1835 c0 4 6 2 14 -4 8 -7 13 -20
11 -29 -1 -9 4 -24 11 -33 12 -14 11 -18 -8 -35 -23 -19 -23 -19 -6 2 14 16
15 23 5 33 -6 6 -12 22 -12 34 -1 12 -6 21 -12 20 -6 -1 -19 8 -29 20 l-19 22
23 -19 c12 -11 22 -16 22 -11z"/>
<path fill="#ffffff" stroke="none" d="M1585 1840 c10 -11 16 -20 13 -20 -3 0
-13 9 -23 20 -10 11 -16 20 -13 20 3 0 13 -9 23 -20z"/>
<path fill="#ffffff" stroke="none" d="M1417 1833 c-16 -16 -15 -19 6 -43 l22
-25 -27 24 c-26 23 -27 26 -11 43 9 10 19 18 22 18 3 0 -2 -8 -12 -17z"/>
<path fill="#ffffff" stroke="none" d="M1442 1828 c-9 -9 -9 -15 1 -27 10 -14
10 -14 -5 -3 -14 11 -15 17 -5 32 6 11 13 17 16 14 3 -2 -1 -10 -7 -16z"/>
<path fill="#ffffff" stroke="none" d="M1570 1825 c13 -14 21 -25 18 -25 -2 0
-15 11 -28 25 -13 14 -21 25 -18 25 2 0 15 -11 28 -25z"/>
<path fill="#ffffff" stroke="none" d="M1650 1825 c13 -14 21 -25 18 -25 -2 0
-15 11 -28 25 -13 14 -21 25 -18 25 2 0 15 -11 28 -25z"/>
<path fill="#ffffff" stroke="none" d="M1725 1830 c10 -11 16 -20 13 -20 -3 0
-13 9 -23 20 -10 11 -16 20 -13 20 3 0 13 -9 23 -20z"/>
<path fill="#ffffff" stroke="none" d="M1777 1843 c-4 -3 0 -14 9 -24 10 -11
12 -19 4 -24 -5 -3 -8 -10 -5 -14 2 -5 -5 -17 -18 -27 l-22 -19 19 23 c11 12
16 22 11 22 -4 0 -2 6 4 14 9 10 8 16 -4 26 -14 11 -12 30 2 30 4 0 3 -3 0 -7z"/>
<path fill="#ffffff" stroke="none" d="M1319 1826 c9 -11 9 -16 -1 -22 -7 -4
-10 -4 -6 1 4 4 3 14 -3 22 -6 7 -9 13 -6 13 2 0 10 -6 16 -14z"/>
<path fill="#ffffff" stroke="none" d="M1548 1817 l22 -23 -27 -25 -28 -24 23
26 c22 25 22 26 4 42 -10 10 -22 14 -27 10 -4 -5 -5 -2 -1 5 9 16 9 16 34 -11z"/>
<path fill="#ffffff" stroke="none" d="M1481 1813 c12 -16 12 -17 -2 -6 -9 7
-20 9 -24 5 -5 -4 -5 -1 -1 6 9 16 11 15 27 -5z"/>
<path fill="#ffffff" stroke="none" d="M1640 1805 c13 -14 21 -25 18 -25 -2 0
-15 11 -28 25 -13 14 -21 25 -18 25 2 0 15 -11 28 -25z"/>
<path fill="#ffffff" stroke="none" d="M1715 1802 c-3 -3 0 -11 5 -17 7 -9 6
-16 -3 -24 -20 -16 -51 18 -36 39 9 13 10 12 6 -2 -3 -9 0 -21 7 -27 17 -14
29 -2 15 16 -6 7 -8 13 -4 13 4 0 1 8 -6 18 -13 15 -12 16 4 3 9 -8 15 -16 12
-19z"/>
<path fill="#ffffff" stroke="none" d="M1845 1786 c0 -25 -3 -47 -6 -50 -4 -4
-4 82 0 92 5 10 7 -5 6 -42z"/>
<path fill="#ffffff" stroke="none" d="M1759 1794 c-6 -8 -8 -14 -4 -14 5 0 1
-8 -8 -18 -10 -10 -14 -22 -10 -27 5 -4 2 -5 -5 -1 -11 7 -10 11 2 25 13 14
13 20 3 30 -9 10 -9 12 3 9 8 -2 14 3 12 10 -1 8 2 11 8 7 8 -5 7 -11 -1 -21z"/>
<path fill="#ffffff" stroke="none" d="M1346 1795 c-1 -8 -5 -17 -8 -21 -5 -4
-4 16 1 34 3 9 9 -1 7 -13z"/>
<path fill="#ffffff" stroke="none" d="M1499 1784 c-14 -13 -17 -13 -30 3 -13
16 -12 17 3 4 15 -11 19 -11 24 3 4 9 9 14 12 11 3 -3 -1 -12 -9 -21z"/>
<path fill="#ffffff" stroke="none" d="M1521 1776 c-17 -18 -18 -25 -8 -36 10
-12 9 -12 -6 -1 -17 13 -17 15 3 36 11 12 17 25 13 30 -5 4 -2 5 5 1 11 -6 9
-13 -7 -30z"/>
<path fill="#ffffff" stroke="none" d="M1631 1783 c17 -20 18 -23 3 -10 -11 9
-23 15 -26 12 -2 -3 -5 2 -5 10 0 19 -1 20 28 -12z"/>
<path fill="#ffffff" stroke="none" d="M1817 1785 c0 -8 -4 -12 -9 -9 -5 3 -6
10 -3 15 9 13 12 11 12 -6z"/>
<path fill="#ffffff" stroke="none" d="M1419 1743 c-6 -7 -8 -13 -4 -13 4 0 2
-6 -4 -13 -6 -8 -8 -16 -5 -19 3 -3 -1 -9 -8 -14 -7 -4 -10 -4 -6 1 4 4 3 14
-4 22 -9 11 -8 13 2 11 8 -2 14 2 15 9 0 6 3 15 8 19 4 4 -1 17 -10 28 -18 21
-18 21 4 2 18 -15 20 -22 12 -33z"/>
<path fill="#ffffff" stroke="none" d="M1583 1778 c-11 -19 -11 -51 1 -67 6
-7 11 -24 12 -37 1 -28 -20 -51 -31 -34 -4 6 -1 9 6 8 17 -4 19 42 4 62 -17
23 -9 80 11 80 3 0 2 -6 -3 -12z"/>
<path fill="#ffffff" stroke="none" d="M1471 1763 c13 -16 12 -17 -3 -4 -10 7
-18 15 -18 17 0 8 8 3 21 -13z"/>
<path fill="#ffffff" stroke="none" d="M1365 1761 c3 -5 2 -12 -3 -15 -5 -3
-9 1 -9 9 0 17 3 19 12 6z"/>
<path fill="#ffffff" stroke="none" d="M1633 1750 c10 -12 9 -12 -4 -2 -10 8
-19 8 -26 1 -6 -6 -10 -5 -10 5 0 17 23 15 40 -4z"/>
<path fill="#ffffff" stroke="none" d="M1685 1742 c-3 -3 0 -11 6 -19 6 -7 8
-13 3 -13 -4 0 3 -11 16 -25 12 -13 26 -22 31 -20 4 3 11 0 15 -7 4 -7 3 -10
-1 -5 -5 4 -16 0 -26 -9 -11 -10 -19 -12 -24 -4 -3 6 -3 10 2 9 24 -4 24 4 -2
31 -16 17 -25 30 -21 30 5 0 3 7 -4 15 -7 8 -9 15 -5 15 4 0 1 8 -6 18 -13 15
-12 16 4 3 9 -8 15 -16 12 -19z"/>
<path fill="#ffffff" stroke="none" d="M1482 1735 c3 3 11 -3 19 -12 12 -16
12 -17 -2 -6 -13 11 -19 9 -34 -7 -10 -11 -14 -20 -10 -20 4 0 1 -8 -8 -18
-10 -10 -14 -22 -10 -27 5 -4 2 -5 -5 -1 -11 7 -10 11 2 25 9 10 14 20 11 23
-3 3 1 11 10 18 14 12 14 15 -2 34 -18 21 -18 21 3 3 11 -9 23 -15 26 -12z"/>
<path fill="#ffffff" stroke="none" d="M1791 1747 c-6 -8 -8 -16 -5 -19 3 -3
1 -9 -4 -12 -6 -3 -9 0 -8 6 2 16 15 38 23 38 3 0 0 -6 -6 -13z"/>
<path fill="#ffffff" stroke="none" d="M1817 1746 c-3 -7 -1 -18 5 -24 6 -6 6
-12 -3 -17 -7 -5 -10 -4 -5 3 3 6 2 13 -3 17 -10 5 -4 35 6 35 3 0 3 -6 0 -14z"/>
<path fill="#ffffff" stroke="none" d="M1547 1735 c0 -8 -4 -12 -9 -9 -5 3 -6
10 -3 15 9 13 12 11 12 -6z"/>
<path fill="#ffffff" stroke="none" d="M1657 1735 c-4 -8 -2 -17 4 -21 7 -4 6
-10 -1 -19 -8 -10 -8 -15 0 -20 8 -5 9 -10 1 -18 -7 -7 -7 -14 0 -24 19 -22 3
-14 -17 9 -10 12 -14 18 -7 15 15 -9 27 9 13 18 -8 5 -8 11 0 20 7 9 8 15 1
19 -10 6 -4 36 6 36 3 0 3 -7 0 -15z"/>
<path fill="#ffffff" stroke="none" d="M1444 1731 c3 -5 -2 -15 -12 -22 -15
-12 -16 -12 -5 2 7 9 10 19 6 22 -3 4 -4 7 0 7 3 0 8 -4 11 -9z"/>
<path fill="#ffffff" stroke="none" d="M1725 1712 c-3 -3 1 -12 8 -21 11 -14
10 -14 -6 -2 -9 8 -15 16 -12 19 3 3 -1 12 -8 21 -11 14 -10 14 6 2 9 -8 15
-16 12 -19z"/>
<path fill="#ffffff" stroke="none" d="M1635 1707 c5 5 4 1 -3 -8 -6 -9 -9
-18 -6 -21 3 -3 1 -9 -4 -12 -6 -3 -9 2 -7 11 1 10 -5 27 -14 38 -16 20 -16
20 5 2 11 -9 25 -14 29 -10z"/>
<path fill="#ffffff" stroke="none" d="M1759 1723 c-1 -5 0 -10 1 -13 7 -19 7
-39 -1 -34 -5 3 -7 9 -4 14 3 5 1 11 -5 15 -6 4 -8 11 -5 16 7 11 15 12 14 2z"/>
<path fill="#ffffff" stroke="none" d="M1535 1692 c-1 -9 2 -23 8 -29 5 -7 6
-13 2 -13 -5 0 0 -9 9 -19 14 -15 15 -21 4 -27 -7 -4 -10 -3 -5 1 4 5 0 17
-10 27 -9 10 -13 18 -9 18 4 0 4 6 -1 13 -10 16 -12 58 -2 52 4 -3 6 -13 4
-23z"/>
<path fill="#ffffff" stroke="none" d="M1565 1680 c2 -12 1 -20 -2 -16 -4 4
-8 16 -10 28 -4 28 6 18 12 -12z"/>
<path fill="#ffffff" stroke="none" d="M1506 1686 c-1 -8 -8 -21 -14 -29 -9
-11 -10 -17 -2 -22 8 -5 7 -12 -4 -23 -8 -10 -15 -21 -16 -27 -1 -5 -3 -12 -5
-13 -10 -10 3 28 13 41 9 11 10 17 2 22 -8 5 -6 13 6 26 9 10 14 19 10 19 -4
0 -4 5 -1 10 9 14 14 12 11 -4z"/>
<path fill="#ffffff" stroke="none" d="M1430 1686 c0 -2 -8 -10 -17 -17 -16
-13 -17 -12 -4 4 13 16 21 21 21 13z"/>
<path fill="#ffffff" stroke="none" d="M1690 1655 c-5 -6 -7 -15 -3 -19 10
-10 12 -35 3 -41 -5 -3 -7 3 -5 12 1 10 -2 23 -7 30 -6 7 -5 14 2 18 8 5 7 12
-2 23 -12 15 -11 16 5 3 12 -9 14 -17 7 -26z"/>
<path fill="#ffffff" stroke="none" d="M1480 1676 c0 -2 -8 -10 -17 -17 -16
-13 -17 -12 -4 4 13 16 21 21 21 13z"/>
<path fill="#ffffff" stroke="none" d="M1516 1651 c-3 -5 0 -14 8 -20 7 -6 12
-23 11 -38 -1 -16 6 -37 17 -49 15 -16 16 -24 7 -29 -7 -5 -10 -4 -6 2 4 6 -2
18 -12 27 -12 11 -18 28 -16 46 1 16 -4 35 -11 41 -12 10 -11 29 2 29 3 0 3
-4 0 -9z"/>
<path fill="#ffffff" stroke="none" d="M1771 1637 c-10 -9 -11 -8 -5 6 3 10 9
15 12 12 3 -3 0 -11 -7 -18z"/>
<path fill="#ffffff" stroke="none" d="M1630 1595 c-19 -20 -19 -22 -2 -40 17
-19 17 -19 -6 0 l-22 18 20 22 c15 16 17 24 8 33 -9 9 -17 8 -32 -6 -21 -17
-21 -17 -2 6 18 21 20 21 38 5 18 -16 18 -17 -2 -38z"/>
<path fill="#ffffff" stroke="none" d="M1464 1631 c3 -5 -2 -15 -12 -22 -15
-12 -16 -12 -5 2 7 9 10 19 6 22 -3 4 -4 7 0 7 3 0 8 -4 11 -9z"/>
<path fill="#ffffff" stroke="none" d="M1747 1625 c0 -8 -4 -12 -9 -9 -5 3 -6
10 -3 15 9 13 12 11 12 -6z"/>
<path fill="#ffffff" stroke="none" d="M1620 1617 c0 -2 -9 -12 -19 -21 -14
-13 -21 -14 -27 -5 -4 7 -3 10 3 6 6 -4 16 0 23 8 12 14 20 19 20 12z"/>
<path fill="#ffffff" stroke="none" d="M1721 1597 c-7 -7 -7 -15 2 -26 11 -14
10 -14 -6 -2 -12 9 -14 17 -7 26 5 6 6 16 2 20 -4 5 -1 5 6 0 10 -5 11 -10 3
-18z"/>
<path fill="#ffffff" stroke="none" d="M1507 1595 c0 -8 -4 -12 -9 -9 -5 3 -6
10 -3 15 9 13 12 11 12 -6z"/>
<path fill="#ffffff" stroke="none" d="M1666 1595 c-3 -23 -22 -39 -31 -26 -3
7 -1 10 6 9 7 -2 14 3 15 10 2 19 4 22 8 22 2 0 3 -7 2 -15z"/>
<path fill="#ffffff" stroke="none" d="M1560 1575 c0 -5 12 -22 26 -36 18 -18
22 -29 14 -34 -8 -5 -6 -13 6 -26 26 -29 11 -23 -17 7 -13 14 -19 25 -14 24
25 -5 27 2 5 25 -13 14 -25 32 -26 41 -1 9 -1 14 1 12 2 -1 4 -7 5 -13z"/>
<path fill="#ffffff" stroke="none" d="M1701 1563 c12 -16 12 -17 -2 -5 -13
10 -18 10 -26 0 -11 -16 -11 -48 2 -68 7 -12 6 -13 -7 -3 -18 15 -18 54 1 77
17 20 16 20 32 -1z"/>
<path fill="#ffffff" stroke="none" d="M1510 1565 c0 -2 -6 -8 -13 -14 -10 -8
-14 -7 -14 2 0 8 6 14 14 14 7 0 13 -1 13 -2z"/>
<path fill="#ffffff" stroke="none" d="M1605 1550 c10 -11 16 -20 13 -20 -3 0
-13 9 -23 20 -10 11 -16 20 -13 20 3 0 13 -9 23 -20z"/>
<path fill="#ffffff" stroke="none" d="M1535 1512 c-1 -9 7 -27 18 -39 11 -13
17 -23 13 -23 -5 0 -2 -8 5 -17 13 -16 12 -17 -4 -4 -9 8 -15 16 -12 19 3 3
-3 14 -12 25 -10 10 -18 29 -18 41 -1 12 -7 20 -14 18 -7 -1 -10 2 -6 8 10 16
34 -7 30 -28z"/>
<path fill="#ffffff" stroke="none" d="M1695 1541 c3 -5 2 -12 -3 -15 -5 -3
-9 1 -9 9 0 17 3 19 12 6z"/>
<path fill="#ffffff" stroke="none" d="M1637 1515 c0 -8 -4 -12 -9 -9 -5 3 -6
10 -3 15 9 13 12 11 12 -6z"/>
<path fill="#ffffff" stroke="none" d="M1579 1476 c17 -19 20 -26 9 -32 -7 -4
-10 -3 -5 1 4 5 -3 19 -15 32 -12 13 -19 23 -16 23 2 0 15 -11 27 -24z"/>
<path fill="#ffffff" stroke="none" d="M1612 1438 c-9 -9 -9 -15 1 -27 11 -14
10 -14 -6 -2 -13 10 -15 17 -6 27 6 8 14 14 17 14 3 0 1 -5 -6 -12z"/>
<path fill="#ffffff" stroke="none" d="M1599 1396 c9 -11 9 -16 -1 -22 -7 -4
-10 -4 -6 1 4 4 3 14 -3 22 -6 7 -9 13 -6 13 2 0 10 -6 16 -14z"/>
<path fill="#000000" stroke="none" d="M1606 2262 c-3 -6 1 -15 8 -21 8 -7 17
-8 20 -3 3 6 -1 15 -8 21 -8 7 -17 8 -20 3z"/>
<path fill="#000000" stroke="none" d="M2810 1101 c0 -4 -22 -39 -50 -77 -27
-38 -50 -71 -50 -75 0 -3 9 -17 21 -30 11 -13 30 -35 42 -49 12 -14 21 -27 20
-30 -1 -3 6 -14 15 -25 10 -11 16 -19 16 -17 -1 2 9 15 22 29 13 14 24 30 24
35 0 5 11 19 25 32 17 16 21 26 14 33 -8 8 -6 11 7 10 10 -1 19 5 19 13 1 21
-66 100 -79 93 -6 -3 -8 -3 -4 2 9 9 -19 65 -32 65 -6 0 -10 -4 -10 -9z"/>
<path fill="#ffffff" stroke="none" d="M2831 1053 c13 -16 12 -17 -3 -4 -17
13 -22 21 -14 21 2 0 10 -8 17 -17z"/>
<path fill="#ffffff" stroke="none" d="M2809 1046 c8 -10 8 -16 -3 -25 -10 -8
-16 -9 -21 -1 -4 6 -3 10 2 9 20 -3 25 2 13 16 -7 8 -10 15 -7 15 2 0 10 -6
16 -14z"/>
<path fill="#ffffff" stroke="none" d="M2831 1017 c-6 -8 -8 -16 -5 -19 3 -3
1 -9 -4 -12 -6 -3 -9 0 -8 6 2 16 15 38 23 38 3 0 0 -6 -6 -13z"/>
<path fill="#ffffff" stroke="none" d="M2880 1024 c0 -8 -19 -13 -24 -6 -3 5
1 9 9 9 8 0 15 -2 15 -3z"/>
<path fill="#ffffff" stroke="none" d="M2785 1000 c10 -11 16 -20 13 -20 -3 0
-13 9 -23 20 -10 11 -16 20 -13 20 3 0 13 -9 23 -20z"/>
<path fill="#ffffff" stroke="none" d="M2886 995 c-1 -8 -5 -17 -8 -21 -5 -4
-4 16 1 34 3 9 9 -1 7 -13z"/>
<path fill="#ffffff" stroke="none" d="M2769 986 c9 -11 9 -16 -1 -22 -7 -4
-10 -4 -6 1 4 4 3 14 -3 22 -6 7 -9 13 -6 13 2 0 10 -6 16 -14z"/>
<path fill="#ffffff" stroke="none" d="M2921 973 c13 -16 12 -17 -3 -4 -10 7
-18 15 -18 17 0 8 8 3 21 -13z"/>
<path fill="#ffffff" stroke="none" d="M2746 955 c1 -8 -1 -17 -5 -19 -4 -3
-7 6 -7 19 0 25 8 25 12 0z"/>
<path fill="#ffffff" stroke="none" d="M2857 963 c0 -9 -4 -10 -14 -2 -7 6
-13 12 -13 14 0 1 6 2 13 2 8 0 14 -6 14 -14z"/>
<path fill="#ffffff" stroke="none" d="M2829 956 c9 -11 9 -16 -1 -22 -7 -4
-10 -4 -6 1 4 4 3 14 -3 22 -6 7 -9 13 -6 13 2 0 10 -6 16 -14z"/>
<path fill="#ffffff" stroke="none" d="M2877 949 c-1 -3 4 -13 11 -21 10 -13
9 -18 -5 -29 -16 -12 -17 -12 -6 2 7 9 10 19 6 23 -4 3 -8 14 -9 22 -1 9 -1
14 1 12 2 -1 3 -6 2 -9z"/>
<path fill="#ffffff" stroke="none" d="M2807 943 c-4 -3 -1 -13 6 -22 11 -14
10 -14 -5 -2 -16 12 -16 31 -1 31 4 0 3 -3 0 -7z"/>
<path fill="#ffffff" stroke="none" d="M2860 936 c0 -2 -8 -10 -17 -17 -16
-13 -17 -12 -4 4 13 16 21 21 21 13z"/>
<path fill="#ffffff" stroke="none" d="M2765 921 c3 -5 2 -12 -3 -15 -5 -3 -9
1 -9 9 0 17 3 19 12 6z"/>
<path fill="#ffffff" stroke="none" d="M2801 903 c13 -16 12 -17 -3 -4 -17 13
-22 21 -14 21 2 0 10 -8 17 -17z"/>
<path fill="#ffffff" stroke="none" d="M2870 917 c0 -2 -9 -12 -19 -21 -14
-13 -21 -14 -27 -5 -4 7 -3 10 3 6 6 -4 16 0 23 8 12 14 20 19 20 12z"/>
<path fill="#ffffff" stroke="none" d="M2791 883 c13 -16 12 -17 -3 -4 -17 13
-22 21 -14 21 2 0 10 -8 17 -17z"/>
<path fill="#ffffff" stroke="none" d="M2857 865 c0 -8 -8 -22 -17 -30 -14
-13 -17 -13 -17 -1 0 8 5 14 11 13 5 -1 11 4 12 11 4 27 11 32 11 7z"/>
<path fill="#ffffff" stroke="none" d="M2807 845 c0 -8 -4 -12 -9 -9 -5 3 -6
10 -3 15 9 13 12 11 12 -6z"/>
<path fill="#000000" stroke="none" d="M2546 651 c3 -3 9 -6 12 -6 28 0 57
-51 127 -217 43 -103 81 -185 85 -183 3 2 6 -5 6 -17 -2 -38 21 -30 39 14 9
24 17 45 17 48 0 3 4 13 10 24 8 14 7 17 -4 11 -7 -4 -3 2 10 12 18 15 20 21
10 32 -7 8 -8 11 -2 8 10 -6 62 89 70 127 2 10 10 29 18 41 11 17 12 25 3 35
-9 10 -9 11 1 6 7 -5 12 -1 12 9 0 9 4 14 9 11 5 -4 8 4 7 17 -2 14 2 24 10
24 7 0 10 -5 7 -11 -4 -6 2 -4 13 4 10 8 21 16 23 17 2 2 -28 3 -68 3 -42 0
-70 -4 -66 -9 3 -6 15 -8 27 -6 11 3 18 2 15 -2 -4 -3 -2 -15 4 -26 8 -14 8
-18 0 -13 -10 7 -15 -13 -14 -51 1 -7 -3 -10 -8 -7 -5 3 -9 1 -9 -5 0 -26 -29
-37 -101 -36 -62 1 -121 15 -111 27 6 7 -11 68 -19 68 -4 0 -6 -9 -4 -20 2
-11 0 -22 -4 -24 -10 -7 -8 35 3 52 4 7 5 19 2 27 -3 9 1 12 14 10 11 -2 22
-1 24 3 6 9 -42 14 -55 6 -6 -4 -6 -11 1 -19 7 -9 6 -16 -3 -24 -11 -8 -18 -6
-31 8 -13 14 -14 21 -5 27 7 4 10 3 6 -3 -4 -6 0 -16 7 -22 9 -8 16 -8 20 -2
4 5 2 12 -4 16 -6 4 -8 10 -5 15 3 5 -19 8 -49 8 -31 -1 -53 -4 -50 -7z"/>
<path fill="#ffffff" stroke="none" d="M2964 634 c3 -8 2 -12 -4 -9 -6 3 -10
10 -10 16 0 14 7 11 14 -7z"/>
<path fill="#ffffff" stroke="none" d="M2641 583 c13 -16 12 -17 -3 -4 -17 13
-22 21 -14 21 2 0 10 -8 17 -17z"/>
<path fill="#ffffff" stroke="none" d="M2687 535 c0 -8 -4 -12 -9 -9 -5 3 -6
10 -3 15 9 13 12 11 12 -6z"/>
<path fill="#ffffff" stroke="none" d="M2720 505 c0 -2 -6 -8 -13 -14 -10 -8
-14 -7 -14 2 0 8 6 14 14 14 7 0 13 -1 13 -2z"/>
<path fill="#ffffff" stroke="none" d="M2783 483 c12 -2 16 1 11 9 -6 10 -4
10 7 2 8 -6 27 -10 42 -9 16 1 31 -4 34 -11 3 -8 9 -11 15 -8 5 3 4 13 -4 22
-12 15 -11 16 5 3 13 -11 15 -17 6 -28 -7 -7 -14 -11 -17 -8 -6 6 -64 -122
-65 -142 0 -7 -10 -22 -23 -34 -16 -15 -24 -17 -29 -8 -5 7 -4 10 2 6 6 -4 18
2 28 13 20 22 8 28 -15 8 -8 -7 -6 -3 4 10 19 22 10 32 -10 12 -7 -7 -11 -6
-11 4 0 8 4 13 8 10 4 -2 10 0 14 6 3 5 1 10 -4 10 -6 0 -10 6 -8 13 1 6 -4
11 -12 9 -11 -2 -12 0 -3 11 10 11 7 20 -10 43 -13 15 -17 24 -10 20 11 -7 11
-4 1 12 -7 12 -17 18 -23 15 -5 -3 -6 -1 -2 5 4 6 14 8 23 5 12 -5 14 -3 8 7
-6 10 -4 11 6 4 8 -4 22 -10 32 -11z"/>
<path fill="#ffffff" stroke="none" d="M2716 445 c-1 -8 -5 -17 -8 -21 -5 -4
-4 16 1 34 3 9 9 -1 7 -13z"/>
<path fill="#ffffff" stroke="none" d="M2750 414 c0 -8 -19 -13 -24 -6 -3 5 1
9 9 9 8 0 15 -2 15 -3z"/>
<path fill="#ffffff" stroke="none" d="M2737 375 c0 -8 -4 -12 -9 -9 -5 3 -6
10 -3 15 9 13 12 11 12 -6z"/>
<path fill="#ffffff" stroke="none" d="M2806 255 c-1 -8 -5 -17 -8 -21 -5 -4
-4 16 1 34 3 9 9 -1 7 -13z"/>
</g>
</svg>
