<?xml version="1.0" standalone="no"?>
<!DOCTYPE svg PUBLIC "-//W3C//DTD SVG 20010904//EN"
 "http://www.w3.org/TR/2001/REC-SVG-20010904/DTD/svg10.dtd">
<svg version="1.0" xmlns="http://www.w3.org/2000/svg"
 width="318.000000pt" height="450.000000pt" viewBox="0 0 318.000000 450.000000"
 preserveAspectRatio="xMidYMid meet">
<metadata>
Created by potrace 1.16, written by Peter Selinger 2001-2019
</metadata>
<g transform="translate(0.000000,450.000000) scale(0.100000,-0.100000)"
fill="#000000" stroke="none">
<path fill="#000000" stroke="none" d="M1098 3971 c-25 -21 -27 -75 -4 -176 1
-5 8 -42 16 -82 7 -40 16 -71 19 -69 3 2 6 -8 7 -22 0 -25 4 -51 19 -121 8
-40 30 -56 58 -44 23 11 24 14 24 150 1 90 -3 143 -10 152 -9 11 -9 13 0 8 9
-6 11 6 7 45 -9 107 -14 133 -32 150 -26 26 -77 30 -104 9z"/>
<path fill="#000000" stroke="none" d="M1740 3690 c-15 -16 -27 -34 -28 -42 0
-7 -3 -24 -6 -38 -6 -32 -14 -98 -21 -180 -3 -36 -7 -74 -9 -85 -2 -11 0 -27
5 -36 10 -19 54 -22 67 -5 13 17 31 87 22 81 -5 -3 -2 9 7 26 9 18 16 44 17
60 1 15 5 25 10 22 5 -3 7 6 4 20 -3 16 -1 24 5 20 6 -4 8 2 5 15 -4 14 -2 20
4 16 7 -5 9 2 6 19 -3 15 -1 24 4 21 5 -3 7 11 5 33 -5 42 -16 73 -26 74 -3 0
-15 2 -25 4 -12 2 -30 -8 -46 -25z"/>
<path fill="#000000" stroke="none" d="M2450 3681 c13 -9 11 -22 -15 -98 -21
-61 -35 -89 -47 -91 -13 -3 -16 1 -12 12 4 10 1 16 -8 16 -21 0 -18 -29 4 -36
28 -9 57 5 72 34 19 39 38 121 30 134 -4 7 -3 8 4 4 7 -4 12 -2 12 4 0 6 5 8
10 5 6 -3 10 -1 10 4 0 6 -6 11 -12 11 -7 0 -24 3 -38 6 -19 4 -22 3 -10 -5z"/>
<path fill="#000000" stroke="none" d="M2396 3418 c-25 -21 -31 -43 -27 -91 0
-11 6 -15 13 -11 7 4 8 3 4 -5 -9 -14 12 -43 25 -35 5 3 9 1 9 -4 0 -5 14 -8
31 -7 35 3 76 40 79 70 4 40 0 56 -12 49 -7 -5 -8 -3 -3 5 10 18 -24 46 -61
49 -22 2 -40 -4 -58 -20z"/>
<path fill="#ffffff" stroke="none" d="M2470 3415 c7 -8 15 -13 19 -11 4 3 7
-21 7 -52 -1 -50 -4 -58 -26 -69 -20 -10 -27 -9 -41 2 -8 8 -18 12 -21 9 -3
-3 -6 1 -5 8 1 36 -4 49 -15 42 -10 -6 -10 -5 -1 7 10 12 10 18 0 29 -9 10 -9
11 1 6 7 -4 12 -1 12 8 0 15 26 35 46 36 6 0 17 -7 24 -15z"/>
<path fill="#000000" stroke="none" d="M400 3200 c-28 -28 -23 -74 12 -112 15
-18 28 -28 28 -24 0 4 7 0 16 -8 8 -9 20 -14 25 -11 5 4 9 1 9 -5 0 -7 7 -9
16 -6 10 4 13 2 8 -6 -5 -7 0 -9 14 -6 12 4 20 3 17 -1 -6 -10 70 -53 79 -44
3 3 6 1 6 -5 0 -13 58 -33 84 -28 35 5 38 32 9 68 -16 18 -37 40 -48 49 -11 9
-49 45 -85 79 -36 34 -75 66 -88 71 -39 15 -81 10 -102 -11z"/>
<path fill="#000000" stroke="none" d="M2386 3179 c15 -18 25 -61 13 -53 -5 3
-9 -7 -9 -23 0 -45 -11 -73 -28 -73 -26 0 -9 -7 33 -13 22 -4 34 -4 28 -1 -18
8 -17 71 1 71 19 0 38 -44 31 -68 -4 -11 -2 -19 5 -19 6 0 8 5 4 13 -6 9 -4 9
7 1 8 -6 22 -14 32 -17 17 -6 16 -4 -2 19 -12 15 -21 33 -21 40 0 8 -5 14 -12
14 -6 0 -8 3 -5 7 4 3 -1 12 -11 20 -9 8 -12 12 -6 9 6 -3 24 8 39 24 15 16
33 27 38 23 6 -3 7 -1 3 5 -4 7 -19 12 -34 12 -18 0 -23 -3 -14 -8 13 -9 9
-14 -42 -52 -18 -14 -19 -13 -13 20 4 18 13 38 20 42 8 5 5 8 -10 8 -12 0 -30
3 -40 7 -14 5 -16 4 -7 -8z"/>
<path fill="#000000" stroke="none" d="M1643 2920 c-33 -20 -59 -59 -63 -95
-4 -37 0 -66 8 -61 5 3 8 -5 8 -17 -1 -12 4 -21 11 -20 8 2 10 -4 6 -14 -5
-12 -2 -15 10 -10 10 4 16 2 14 -5 -1 -7 4 -13 11 -14 6 -1 14 -2 16 -3 3 0
-8 -26 -25 -57 -16 -31 -26 -61 -22 -67 3 -5 1 -7 -4 -4 -6 4 -14 0 -17 -9
-16 -40 -83 -129 -118 -154 -55 -40 -63 -38 -242 64 -82 47 -98 48 -166 14
-37 -18 -58 -34 -53 -41 4 -6 -8 0 -27 13 -46 32 -124 38 -166 12 -36 -23 -64
-76 -64 -122 0 -39 27 -93 42 -84 6 4 8 3 5 -3 -7 -12 14 -33 35 -37 7 -1 18
-5 25 -9 14 -9 83 1 99 14 6 5 15 5 20 1 4 -4 3 0 -4 9 -11 14 -10 17 5 15 24
-1 55 60 51 100 -2 19 1 31 9 31 7 0 9 -5 6 -10 -3 -6 -1 -7 5 -3 17 10 72 14
66 5 -5 -8 17 -14 39 -10 4 0 6 -2 5 -6 -3 -14 13 -53 20 -49 18 11 17 -185
-1 -299 -1 -5 6 -9 16 -9 9 1 17 -3 17 -8 0 -6 8 -4 17 3 11 10 14 10 9 2 -4
-8 -2 -13 6 -14 14 -1 21 -2 83 -16 22 -6 50 -9 62 -8 12 1 20 -1 18 -5 -6
-10 122 -33 136 -24 7 4 10 3 6 -3 -4 -6 4 -13 18 -15 16 -4 22 -1 18 6 -4 7
-1 7 8 -1 8 -6 26 -13 39 -15 14 -2 31 -7 39 -12 11 -7 12 -6 6 5 -7 12 -6 12
7 1 9 -7 35 -14 56 -15 22 -1 38 -6 35 -11 -3 -5 8 -7 25 -4 17 2 29 1 26 -4
-3 -4 4 -8 15 -8 19 0 26 15 22 43 0 4 4 7 11 7 6 0 9 3 5 6 -3 3 3 29 14 56
10 27 16 55 13 61 -4 7 -4 9 1 5 9 -9 47 61 39 74 -3 5 0 7 8 6 7 -2 12 3 10
10 -1 8 2 11 7 8 11 -7 33 18 24 28 -4 4 1 4 11 0 12 -4 17 -4 13 2 -9 15 44
9 87 -9 31 -14 37 -20 30 -34 -21 -45 -8 -153 16 -138 6 3 7 0 4 -8 -12 -34
128 -75 148 -44 6 9 8 9 8 0 0 -13 24 3 61 41 40 42 33 140 -13 183 -32 30
-67 41 -114 38 -38 -3 -42 0 -73 45 -46 67 -62 74 -168 66 -48 -4 -96 -7 -106
-7 -10 0 -15 -5 -11 -11 5 -7 2 -8 -7 -2 -8 4 -29 9 -48 11 -19 1 -43 11 -54
20 -19 18 -42 61 -39 76 1 4 -1 7 -5 7 -5 0 -9 18 -10 41 -1 22 -8 48 -15 57
-8 10 -9 13 -1 9 9 -6 10 0 3 22 -4 16 -6 32 -3 35 3 3 0 12 -6 20 -7 8 -8 17
-3 20 6 3 7 20 2 41 -6 27 -5 35 6 36 8 1 19 3 24 4 6 1 15 3 21 4 5 0 8 5 5
10 -3 5 2 8 12 7 9 0 16 4 15 10 -1 7 5 11 15 10 23 -2 54 64 39 83 -10 12 -9
13 2 6 11 -7 13 -2 7 25 -20 100 -129 151 -213 100z"/>
<path fill="#000000" stroke="none" d="M2410 2911 c-46 -14 -52 -18 -35 -26
11 -4 22 -8 25 -7 3 0 5 -9 6 -21 2 -44 12 -72 25 -69 10 3 10 0 -1 -12 -7 -9
-9 -16 -5 -16 4 0 2 -6 -4 -14 -10 -12 -8 -13 8 -9 12 3 18 9 15 14 -3 5 1 6
9 3 8 -3 31 1 50 10 30 12 35 18 29 38 -6 22 -7 22 -10 2 -3 -23 -43 -47 -58
-36 -5 4 -15 19 -21 35 -12 25 -11 27 11 27 14 0 27 -6 30 -12 3 -7 3 -2 0 12
-4 14 -11 30 -17 35 -7 7 -8 5 -4 -6 4 -12 -1 -16 -16 -15 -12 1 -20 3 -18 6
2 3 -1 15 -7 27 -9 17 -9 22 4 27 26 10 52 7 58 -6 3 -7 5 -4 3 6 -3 26 -13
27 -77 7z"/>
<path fill="#000000" stroke="none" d="M2399 2662 c12 -8 12 -20 2 -73 -7 -35
-20 -69 -29 -75 -15 -11 -13 -12 11 -10 15 2 30 -1 33 -5 3 -5 10 -9 16 -9 6
0 1 12 -13 27 -13 14 -19 23 -13 20 7 -4 15 0 18 9 4 10 2 13 -6 8 -7 -5 -8
-3 -4 5 5 7 15 10 23 7 8 -3 26 0 41 8 33 17 41 61 14 75 -25 13 -111 25 -93
13z"/>
<path fill="#ffffff" stroke="none" d="M2480 2631 c12 -20 -6 -51 -29 -51 -12
0 -20 9 -23 25 -3 15 -1 22 5 18 6 -4 8 0 5 9 -8 20 29 19 42 -1z"/>
<path fill="#000000" stroke="none" d="M2460 2536 c0 -49 27 -75 46 -44 4 7 3
8 -4 4 -8 -5 -12 0 -12 13 0 26 -10 51 -21 51 -5 0 -9 -11 -9 -24z"/>
<path fill="#000000" stroke="none" d="M644 1998 c-4 -6 -3 -8 3 -5 6 4 17 -1
24 -10 8 -9 9 -14 3 -10 -7 4 -10 -2 -6 -18 2 -14 9 -25 16 -25 6 0 0 -9 -13
-19 -47 -36 -29 -72 47 -89 31 -7 40 -7 35 2 -11 16 -10 95 1 88 5 -3 7 5 4
16 -4 14 -2 20 5 15 6 -4 8 0 4 10 -5 13 -1 17 15 17 28 0 20 7 -15 14 -14 2
-31 7 -37 11 -5 3 -10 1 -10 -4 0 -6 5 -11 10 -11 18 0 5 -55 -13 -58 -10 -2
-18 0 -18 5 -1 4 -3 18 -4 30 -5 49 -33 71 -51 41z"/>
<path fill="#ffffff" stroke="none" d="M724 1887 c-9 -49 -15 -57 -33 -47 -10
5 -21 19 -24 30 -3 11 -2 18 3 15 4 -3 10 2 13 9 9 23 46 16 41 -7z"/>
<path fill="#000000" stroke="none" d="M1151 1881 c-22 -22 -25 -32 -21 -66 3
-27 31 -57 47 -50 9 3 11 0 7 -7 -5 -7 0 -9 14 -6 12 3 22 2 24 -2 2 -5 19 -9
38 -11 19 -2 40 -5 45 -8 12 -7 31 -10 67 -14 16 -1 28 -4 28 -7 0 -5 31 -11
73 -13 9 -1 17 -6 17 -12 0 -5 5 -3 10 5 8 12 10 12 10 1 0 -8 3 -11 7 -8 3 4
11 3 17 -2 6 -5 27 -10 46 -12 19 -2 41 -8 49 -13 12 -9 13 -8 6 4 -8 13 -7
13 8 1 9 -7 26 -11 37 -8 11 3 18 2 15 -3 -5 -8 52 -20 98 -20 15 0 27 5 27
12 0 6 3 8 7 5 13 -13 33 16 33 48 0 37 -25 73 -55 80 -11 2 -31 7 -45 10 -14
3 -36 7 -50 10 -14 3 -34 7 -45 9 -42 10 -71 16 -95 21 -14 3 -36 7 -50 10
-67 16 -87 19 -117 20 -17 0 -29 3 -27 6 5 9 -25 16 -63 15 -17 -1 -29 2 -26
7 2 4 3 7 1 7 -105 13 -116 12 -137 -9z"/>
<path fill="#000000" stroke="none" d="M2502 1767 c-17 -20 11 -54 51 -63 17
-4 35 -7 40 -6 4 1 7 -3 7 -9 0 -7 10 -9 25 -7 15 3 22 1 18 -5 -4 -6 2 -8 15
-5 12 4 20 2 16 -3 -3 -5 3 -10 13 -10 10 -1 27 -3 38 -5 118 -21 161 -16 176
23 18 49 -4 76 -72 88 -18 3 -35 8 -38 10 -2 2 -13 0 -24 -6 -12 -7 -17 -7
-13 -1 10 17 -238 16 -252 -1z"/>
<path fill="#000000" stroke="none" d="M716 1738 c4 -7 3 -8 -4 -4 -20 12 -92
-15 -92 -35 0 -10 5 -21 12 -25 6 -4 9 -3 5 2 -7 12 13 38 36 47 14 5 21 -1
32 -26 15 -35 2 -55 -23 -35 -11 9 -12 6 -6 -18 8 -34 14 -43 14 -22 0 16 28
33 38 23 3 -3 2 -5 -2 -5 -4 0 -2 -9 5 -21 7 -14 7 -25 1 -31 -14 -14 -46 -17
-54 -4 -10 16 -18 3 -8 -14 7 -11 18 -11 70 5 51 15 58 20 41 27 -12 4 -21 12
-21 18 0 6 -3 9 -7 7 -5 -3 -9 11 -10 30 -1 20 -6 40 -12 46 -7 7 -7 16 0 29
8 14 6 18 -6 18 -10 0 -13 -5 -9 -12z"/>
<path fill="#000000" stroke="none" d="M640 1481 c8 -6 18 -7 24 -4 5 3 6 1 3
-5 -10 -15 3 -43 16 -35 6 3 7 1 3 -6 -4 -6 -2 -19 5 -27 10 -12 8 -19 -12
-40 -13 -15 -33 -30 -44 -34 -16 -6 -14 -8 12 -12 18 -2 29 0 26 5 -5 9 44 67
57 67 13 0 -2 -55 -18 -67 -13 -11 -7 -17 11 -12 1 0 16 -4 32 -10 l30 -11
-25 21 c-14 11 -20 18 -14 15 7 -3 11 8 12 31 1 19 3 43 6 52 2 9 7 26 10 37
5 17 2 23 -19 26 -23 5 -36 -6 -16 -14 10 -3 3 -58 -8 -58 -4 0 -15 14 -25 31
-14 23 -15 33 -6 39 7 4 -1 10 -20 14 -45 8 -58 7 -40 -3z"/>
<path fill="#000000" stroke="none" d="M673 1215 c-57 -24 -66 -104 -17 -152
18 -19 78 -16 104 5 23 19 43 112 21 98 -6 -4 -9 -2 -6 7 7 16 -21 42 -51 49
-12 3 -35 0 -51 -7z"/>
<path fill="#ffffff" stroke="none" d="M733 1195 c8 -8 18 -11 22 -7 5 4 5 2
1 -5 -3 -6 -2 -30 3 -52 5 -24 5 -39 0 -35 -5 3 -9 -2 -9 -10 0 -9 -10 -18
-22 -20 -29 -6 -57 -4 -56 3 2 20 -3 31 -12 26 -5 -3 -7 0 -4 8 2 7 0 26 -6
41 -7 20 -7 25 2 20 8 -5 9 0 6 14 -4 12 -2 20 2 17 5 -3 11 -1 15 5 9 15 41
12 58 -5z"/>
<path fill="#000000" stroke="none" d="M1959 1149 l-20 -20 20 -32 c12 -18 26
-31 32 -29 6 1 8 -2 4 -8 -8 -13 14 -42 26 -34 5 3 8 2 7 -3 -5 -16 23 -54 35
-47 7 4 9 4 5 -1 -11 -11 31 -67 44 -59 7 5 8 2 4 -5 -10 -15 23 -53 37 -44 6
3 7 1 3 -5 -9 -15 34 -73 47 -65 6 3 7 1 4 -4 -8 -12 31 -59 45 -55 5 1 7 -2
3 -7 -3 -6 6 -17 19 -26 29 -19 74 -26 82 -13 3 4 11 5 17 2 7 -4 9 -4 5 0 -4
5 2 17 13 29 24 26 24 44 -2 87 -40 67 -335 340 -360 333 -5 -2 -8 2 -6 8 4
21 -42 20 -64 -2z"/>
<path fill="#000000" stroke="none" d="M731 992 c-10 -9 -29 -48 -41 -87 -12
-38 -28 -75 -36 -81 -11 -9 -6 -13 21 -21 30 -10 34 -9 26 4 -5 9 -2 31 6 56
8 22 12 46 9 54 -4 9 -1 11 6 7 7 -5 9 1 6 19 -3 15 -1 24 3 21 5 -3 9 2 9 10
0 9 9 16 20 16 11 0 20 -7 20 -15 0 -8 5 -15 11 -15 19 0 5 32 -18 41 -15 6
-28 3 -42 -9z"/>
<path fill="#000000" stroke="none" d="M1315 994 c-9 -9 -14 -23 -11 -31 4 -9
2 -11 -6 -7 -8 5 -9 0 -5 -15 3 -13 3 -20 0 -17 -7 7 -72 -200 -69 -218 4 -26
23 -45 49 -50 34 -6 81 10 72 24 -3 5 -2 10 3 10 5 0 9 6 9 13 0 6 4 74 7 149
6 129 5 138 -13 148 -15 7 -23 6 -36 -6z"/>
</g>
</svg>
