<?xml version="1.0" standalone="no"?>
<!DOCTYPE svg PUBLIC "-//W3C//DTD SVG 20010904//EN"
 "http://www.w3.org/TR/2001/REC-SVG-20010904/DTD/svg10.dtd">
<svg version="1.0" xmlns="http://www.w3.org/2000/svg"
 width="318.000000pt" height="450.000000pt" viewBox="0 0 318.000000 450.000000"
 preserveAspectRatio="xMidYMid meet">
<metadata>
Created by potrace 1.16, written by Peter Selinger 2001-2019
</metadata>
<g transform="translate(0.000000,450.000000) scale(0.100000,-0.100000)"
fill="#000000" stroke="none">
<path fill="#000000" stroke="none" d="M270 4271 c8 -6 17 -8 21 -5 4 2 13 -3
20 -12 15 -19 21 -367 7 -396 -12 -24 -35 -23 -43 1 -10 32 -31 44 -55 31 -18
-10 -19 -14 -8 -28 9 -11 9 -14 1 -8 -9 4 -11 2 -7 -7 11 -29 63 -42 93 -23
10 7 12 5 6 -3 -6 -10 -3 -11 14 -2 28 16 55 57 45 72 -5 8 -3 9 6 4 10 -6 12
-1 8 18 -3 15 -2 24 2 22 4 -3 8 65 7 150 0 111 3 158 13 169 7 9 15 14 19 12
4 -3 13 -1 21 5 10 5 -20 9 -85 9 -65 0 -95 -4 -85 -9z"/>
<path fill="#000000" stroke="none" d="M266 3685 c-10 -8 -15 -19 -10 -26 4
-8 3 -10 -4 -5 -8 5 -12 -2 -12 -19 0 -17 4 -24 12 -19 7 4 8 3 4 -5 -4 -6 -2
-19 6 -28 11 -15 11 -16 -7 -9 -70 29 -129 -49 -80 -104 30 -33 119 -11 98 24
-3 5 -1 6 5 2 5 -3 13 0 16 6 3 7 4 -11 3 -41 -2 -45 1 -54 16 -57 9 -1 15 2
12 6 -12 19 -13 100 -2 107 7 3 9 3 5 -2 -10 -11 11 -47 23 -40 5 4 8 1 7 -7
-2 -8 8 -14 26 -16 18 -2 26 0 22 7 -4 7 -1 8 8 5 9 -3 16 -1 16 6 0 6 5 8 12
4 8 -5 9 0 6 14 -4 12 -2 19 3 16 10 -6 7 20 -5 48 -10 23 -58 38 -80 26 -12
-7 -22 -6 -29 2 -9 8 -8 10 6 5 9 -4 17 -6 17 -4 0 2 4 19 10 37 8 29 6 37
-15 58 -27 27 -61 30 -89 9z"/>
<path fill="#000000" stroke="none" d="M894 2623 c-16 -16 -13 -45 10 -128 2
-5 9 -38 16 -72 8 -34 17 -60 20 -58 4 3 5 -7 2 -22 -4 -19 -2 -24 8 -18 9 5
11 4 6 -4 -4 -7 -3 -33 3 -59 6 -26 13 -56 16 -67 2 -11 7 -30 10 -42 3 -13 7
-31 9 -41 2 -9 9 -35 15 -57 11 -43 19 -82 20 -103 1 -8 6 -10 14 -6 9 6 9 5
0 -7 -9 -11 -7 -26 10 -69 17 -42 32 -61 67 -85 l45 -30 397 -1 c314 -1 403 1
423 12 16 8 23 9 19 2 -4 -7 9 1 30 17 37 28 93 96 65 80 -12 -8 -12 -6 -1 8
8 9 11 21 7 27 -3 5 -1 10 6 10 8 0 7 5 -2 17 -8 9 -9 14 -3 11 13 -8 39 105
29 123 -5 8 -4 10 3 5 7 -4 12 -4 13 1 0 4 3 22 6 38 3 17 6 42 7 57 0 14 5
24 10 20 5 -3 7 5 4 16 -4 12 -3 22 1 22 4 0 8 8 9 18 2 21 10 57 12 57 1 0 4
11 6 25 3 14 10 43 16 65 6 22 12 49 14 60 1 11 3 21 4 23 2 1 3 5 4 10 1 4 8
30 15 58 6 28 11 57 9 64 -5 23 -22 38 -38 35 -8 -2 -18 -4 -21 -4 -3 -1 -86
-64 -185 -141 -98 -77 -181 -140 -184 -140 -3 0 -27 27 -54 60 -27 32 -54 56
-59 53 -6 -3 -7 -1 -3 6 5 7 -3 23 -19 39 -15 15 -34 37 -42 49 -9 13 -20 20
-26 16 -5 -3 -7 -2 -4 3 13 22 -33 59 -70 55 -6 0 -63 -64 -127 -140 -101
-121 -152 -171 -143 -142 3 13 -85 81 -97 74 -5 -3 -6 -1 -2 5 8 13 -28 35
-39 24 -5 -4 -6 -2 -2 3 6 12 -202 177 -228 181 -8 1 -22 -5 -31 -13z"/>
<path fill="#ffffff" stroke="none" d="M1617 2250 c-1 -3 4 -14 10 -25 14 -27
8 -57 -17 -77 -26 -21 -60 -15 -81 14 -18 24 -19 33 -1 64 6 12 10 23 7 25 -2
2 16 4 40 4 24 0 43 -2 42 -5z"/>
<path fill="#000000" stroke="none" d="M2777 1134 c-2 -2 -2 -28 0 -57 3 -43
2 -49 -8 -32 -41 70 -129 55 -129 -22 0 -37 18 -54 66 -60 27 -4 34 -2 29 8
-6 8 -4 10 4 5 9 -6 9 -12 -3 -25 -23 -25 -20 -58 9 -86 26 -27 50 -32 58 -12
4 9 6 9 6 -1 1 -20 42 22 43 44 1 11 -2 29 -6 42 -5 15 -3 22 6 23 38 2 64 11
76 26 16 22 8 74 -14 90 -38 28 -104 6 -104 -34 0 -9 -3 -13 -7 -9 -10 10 -10
80 0 87 5 3 2 9 -6 12 -8 3 -17 4 -20 1z"/>
<path fill="#ffffff" stroke="none" d="M2835 970 c3 -5 1 -10 -4 -10 -6 0 -11
5 -11 10 0 6 2 10 4 10 3 0 8 -4 11 -10z"/>
<path fill="#000000" stroke="none" d="M2766 691 c-49 -29 -59 -70 -62 -251
-2 -91 -4 -170 -5 -176 -1 -6 -13 -10 -26 -8 -12 1 -25 -1 -28 -5 -2 -4 41 -8
97 -8 56 -1 95 3 87 7 -7 5 -16 7 -20 4 -4 -2 -10 0 -14 6 -4 6 -10 8 -14 6
-10 -7 -10 -2 -13 216 -2 102 0 184 5 181 4 -2 7 2 7 10 0 7 7 14 15 14 8 0
12 -4 9 -9 -3 -4 -1 -8 3 -8 5 0 13 -10 18 -22 15 -34 65 -27 65 8 0 42 -77
64 -124 35z"/>
</g>
</svg>
