<?xml version="1.0" standalone="no"?>
<!DOCTYPE svg PUBLIC "-//W3C//DTD SVG 20010904//EN"
 "http://www.w3.org/TR/2001/REC-SVG-20010904/DTD/svg10.dtd">
<svg version="1.0" xmlns="http://www.w3.org/2000/svg"
 width="318.000000pt" height="451.000000pt" viewBox="0 0 318.000000 451.000000"
 preserveAspectRatio="xMidYMid meet">
<metadata>
Created by potrace 1.16, written by Peter Selinger 2001-2019
</metadata>
<g transform="translate(0.000000,451.000000) scale(0.100000,-0.100000)"
fill="#000000" stroke="none">
<path fill="#000000" stroke="none" d="M294 4301 c-30 -13 -76 -71 -70 -88 3
-8 1 -11 -4 -8 -6 3 -11 -6 -11 -22 -1 -15 -2 -35 -3 -43 -2 -27 16 -70 27
-63 6 3 7 1 3 -6 -8 -12 18 -44 28 -34 3 4 6 1 6 -6 0 -8 6 -11 16 -7 9 3 12
2 8 -5 -8 -13 45 -9 64 4 6 5 12 6 12 3 0 -4 9 -2 19 3 15 9 20 7 24 -10 3
-12 3 -18 0 -15 -9 9 -34 -45 -26 -58 3 -6 3 -8 -2 -4 -10 9 -41 -32 -37 -47
2 -5 0 -7 -4 -3 -3 4 -18 -1 -31 -12 -14 -11 -40 -22 -59 -26 -19 -3 -34 -10
-34 -14 0 -4 17 -4 38 1 20 4 37 8 37 9 0 0 10 3 23 6 12 4 22 11 22 16 0 5 4
7 9 4 5 -3 26 10 47 29 21 19 35 35 31 35 -4 0 1 8 12 19 23 23 55 116 47 136
-3 8 -1 15 3 15 5 0 5 16 1 35 -4 19 -6 35 -4 35 8 0 -28 65 -40 72 -6 4 -7 8
-2 8 5 0 -3 10 -18 21 -30 24 -99 34 -132 20z"/>
<path fill="#ffffff" stroke="none" d="M379 4276 c11 -10 23 -27 26 -37 4 -11
10 -17 13 -15 6 4 9 -117 4 -150 -2 -13 -24 -24 -65 -31 -22 -3 -34 3 -57 27
-17 18 -28 36 -25 40 3 5 1 11 -5 15 -6 4 -8 11 -4 16 3 5 0 17 -8 26 -7 9 -8
14 -2 10 8 -4 12 3 13 21 2 55 6 71 16 69 5 -1 9 3 8 10 -2 7 4 10 12 7 8 -4
15 -2 15 3 0 16 38 8 59 -11z"/>
<path fill="#000000" stroke="none" d="M931 3869 c-45 -33 -79 -65 -75 -70 3
-5 1 -8 -5 -7 -30 8 -143 -173 -157 -252 -14 -85 9 -192 38 -174 6 4 8 3 4 -4
-3 -6 6 -19 21 -30 34 -23 76 -35 67 -19 -5 9 -3 9 6 0 8 -8 20 -9 36 -3 13 5
24 6 24 2 0 -4 7 2 15 12 8 11 15 16 15 12 0 -10 22 13 43 44 12 18 15 42 13
85 -2 33 -1 53 2 45 3 -8 14 -30 24 -48 10 -19 15 -31 11 -29 -5 3 -7 -23 -7
-58 1 -34 -4 -87 -11 -118 l-13 -55 44 1 c39 0 43 2 38 22 -3 12 -7 30 -9 41
-2 10 -4 19 -5 19 -1 0 -4 29 -6 65 -3 36 -7 71 -9 78 -3 8 0 10 7 6 8 -5 9
-2 5 9 -3 9 -2 19 4 22 5 4 8 9 6 13 -2 4 4 15 15 25 10 9 18 13 18 8 0 -6 -4
-13 -10 -16 -5 -3 -10 -22 -10 -41 0 -26 3 -33 13 -28 9 6 9 5 -1 -8 -10 -13
-5 -23 29 -62 23 -26 44 -45 47 -42 2 3 14 1 25 -5 15 -9 18 -8 12 3 -6 9 -5
10 4 2 13 -12 73 -6 65 7 -3 5 2 6 10 3 9 -3 16 -1 16 6 0 6 5 8 12 4 8 -5 9
-2 5 9 -4 10 -2 16 6 14 7 -1 11 4 9 11 -1 6 3 11 9 10 16 -4 36 70 32 117 -4
58 -34 146 -46 138 -6 -3 -7 -1 -3 6 10 15 -82 144 -96 135 -6 -4 -8 -2 -4 4
10 16 -159 152 -191 152 -6 0 -48 -27 -92 -61z"/>
<path fill="#000000" stroke="none" d="M2082 3890 c-124 -83 -266 -272 -258
-344 2 -14 -1 -23 -5 -20 -13 8 -4 -108 11 -136 21 -42 65 -76 93 -71 4 0 7
-5 7 -11 0 -9 4 -8 10 2 8 12 10 12 10 1 0 -11 3 -11 17 0 9 8 14 9 10 2 -10
-16 32 -4 66 19 15 11 24 24 21 30 -4 7 -2 8 4 4 13 -8 36 40 26 55 -3 5 -1 9
5 9 8 0 8 20 1 40 -1 3 -2 9 -1 14 1 4 -4 16 -11 25 -9 11 -6 10 10 -3 12 -11
22 -25 22 -33 0 -8 3 -12 8 -10 4 3 7 -15 6 -39 0 -25 3 -47 8 -50 5 -3 5 -11
0 -17 -5 -7 -12 -32 -16 -57 -3 -25 -8 -57 -11 -72 -5 -24 -2 -28 18 -28 13 0
29 6 36 13 11 10 13 10 7 0 -4 -7 -2 -13 5 -13 8 0 9 11 4 38 -4 20 -9 48 -12
62 -2 14 -5 39 -7 55 -1 17 -5 36 -10 44 -6 10 -5 12 2 7 10 -6 18 34 13 67 0
4 4 7 10 7 5 0 7 6 3 13 -4 6 -4 9 1 5 4 -4 14 0 22 10 12 14 12 12 0 -13 -8
-16 -12 -43 -10 -59 6 -42 32 -88 45 -80 6 4 8 3 5 -3 -9 -15 20 -36 38 -29 9
3 13 2 10 -4 -6 -9 8 -12 50 -12 37 0 46 3 39 14 -4 7 -3 8 4 4 15 -9 54 12
47 25 -4 5 -1 8 6 7 18 -4 42 48 47 102 3 36 -8 101 -24 140 -1 3 -5 15 -9 28
-4 12 -11 22 -16 22 -5 0 -8 4 -6 9 4 15 -64 102 -75 95 -7 -4 -8 -2 -4 4 9
14 -64 83 -78 75 -5 -3 -6 -1 -3 4 6 10 -102 93 -121 93 -5 0 -37 -18 -70 -40z"/>
<path fill="#000000" stroke="none" d="M324 3760 c-45 -27 -87 -77 -79 -91 5
-8 4 -10 -3 -5 -7 4 -12 6 -12 4 -1 -2 -3 -20 -6 -41 -7 -44 15 -77 50 -77 27
0 51 16 51 32 0 7 5 13 10 13 6 0 9 -19 8 -42 -1 -30 2 -43 11 -43 13 0 14 35
2 91 -2 9 2 16 9 16 7 0 10 -8 7 -20 -4 -15 -2 -18 8 -12 8 5 11 4 6 -3 -17
-29 52 -37 85 -10 13 11 17 16 9 12 -12 -6 -13 -5 -4 7 5 8 9 20 8 27 -1 6 -2
19 -3 28 0 9 -6 12 -13 8 -7 -4 -8 -3 -4 5 10 16 -35 74 -77 99 -34 19 -36 19
-63 2z"/>
<path fill="#000000" stroke="none" d="M954 3011 c-110 -77 -236 -223 -218
-252 4 -7 3 -9 -4 -5 -13 8 -26 -29 -16 -45 4 -7 3 -9 -4 -5 -7 4 -14 -13 -19
-46 -9 -57 -5 -121 6 -113 4 2 7 -6 7 -18 -1 -13 4 -21 12 -19 8 1 11 -2 7 -9
-8 -12 29 -51 39 -42 3 4 6 2 6 -4 0 -6 7 -14 16 -17 10 -4 13 -2 8 7 -6 9 -4
9 7 1 12 -10 45 -11 92 -5 5 0 24 17 42 36 37 37 50 84 41 137 l-6 33 18 -38
c10 -20 22 -34 27 -30 4 5 5 2 1 -4 -4 -7 -9 -48 -11 -90 -3 -74 -11 -128 -20
-144 -5 -7 56 -17 73 -11 6 2 5 25 -3 64 -12 55 -13 144 -2 207 2 13 11 28 21
33 16 9 16 8 6 -12 -25 -47 3 -132 55 -166 33 -22 107 -25 145 -6 39 19 79 76
75 108 -1 13 1 21 5 19 4 -3 8 6 8 20 0 14 -4 23 -8 20 -4 -2 -5 7 -2 20 2 14
-2 33 -9 42 -8 9 -9 14 -2 10 7 -5 9 0 6 13 -3 11 -10 17 -16 13 -6 -3 -7 -1
-3 5 9 15 -22 75 -77 145 -44 56 -143 143 -205 179 l-29 18 -69 -49z"/>
<path fill="#000000" stroke="none" d="M2088 3019 c-114 -78 -212 -192 -249
-290 -27 -69 -34 -145 -18 -166 9 -11 10 -14 2 -10 -9 6 -8 -2 2 -25 8 -18 19
-32 25 -30 6 1 9 -2 6 -6 -8 -14 31 -45 45 -36 8 4 10 3 5 -4 -9 -15 33 -25
77 -19 43 6 59 15 51 29 -4 7 -2 8 5 4 16 -10 63 44 57 67 -2 9 0 17 4 17 7 0
7 22 0 40 -1 3 -2 9 -1 14 1 4 -4 16 -10 25 -6 9 0 3 15 -12 14 -15 26 -39 26
-52 0 -13 5 -27 10 -30 7 -4 7 -12 3 -18 -5 -7 -9 -33 -8 -59 0 -25 -3 -44 -6
-42 -4 2 -7 -6 -8 -19 -1 -12 -2 -33 -4 -47 -2 -21 2 -25 26 -24 53 3 50 -6
31 97 -11 61 -11 122 2 154 7 17 10 34 6 37 -3 3 0 6 7 6 7 0 10 4 7 8 -3 5 1
9 9 9 9 0 11 -4 6 -11 -12 -15 -13 -108 -1 -101 5 3 7 0 4 -8 -5 -13 46 -71
64 -73 4 0 14 -3 22 -7 12 -5 51 -4 93 2 5 0 5 5 2 11 -3 6 1 7 9 4 9 -3 16
-1 16 6 0 6 5 8 10 5 6 -3 10 1 10 10 0 9 4 14 9 11 28 -18 50 150 26 198 -8
15 -10 24 -5 21 6 -3 7 1 4 9 -3 9 -11 13 -17 9 -6 -3 -7 -1 -3 6 25 40 -168
258 -279 314 -29 14 -32 14 -87 -24z"/>
<path fill="#000000" stroke="none" d="M1513 2559 c-112 -78 -248 -246 -227
-281 4 -7 3 -8 -4 -4 -7 4 -12 0 -13 -11 0 -10 -2 -25 -4 -33 -11 -55 -8 -123
5 -115 5 3 7 0 4 -9 -7 -19 16 -53 53 -77 28 -19 103 -26 117 -11 4 4 11 7 15
7 15 0 53 44 46 54 -4 7 -1 10 7 9 10 -2 13 12 13 54 0 34 3 51 8 42 5 -8 11
-12 15 -10 4 2 7 -31 7 -74 0 -49 4 -76 10 -72 6 3 5 -1 -2 -9 -6 -8 -14 -31
-17 -53 -4 -21 -8 -42 -11 -45 -2 -4 16 -8 40 -8 31 -1 43 3 38 10 -4 7 -8 18
-9 27 -18 119 -22 200 -10 192 5 -3 7 1 4 9 -3 8 3 23 13 33 18 18 18 18 10
-10 -9 -34 10 -110 27 -106 7 1 11 -4 10 -10 -2 -7 3 -12 10 -10 8 1 11 -2 8
-7 -8 -13 4 -20 50 -27 61 -9 78 -8 69 6 -3 5 0 7 8 4 8 -3 25 8 40 25 13 16
29 27 33 23 5 -4 6 -3 2 1 -3 5 -1 25 6 45 14 43 11 98 -6 120 -10 12 -10 14
-1 8 8 -4 5 10 -6 37 -36 84 -103 175 -125 169 -6 -2 -8 0 -3 4 10 10 -23 45
-36 37 -6 -3 -7 -1 -3 5 8 13 -28 35 -39 24 -5 -4 -5 -2 -2 5 4 7 -12 23 -42
42 l-49 30 -59 -40z"/>
<path fill="#000000" stroke="none" d="M946 2131 c-199 -151 -293 -332 -247
-474 10 -30 71 -102 71 -83 0 4 7 1 15 -7 16 -16 89 -14 110 3 7 5 16 6 20 2
5 -4 5 1 2 10 -4 12 -2 15 8 12 17 -7 49 41 41 61 -3 9 -2 14 3 11 4 -3 8 12
8 34 0 24 -4 37 -10 33 -6 -3 -7 -1 -3 5 4 7 11 12 15 12 14 0 33 -86 30 -133
-3 -28 0 -43 6 -39 6 3 4 -1 -3 -10 -7 -9 -13 -36 -15 -61 -1 -25 -5 -43 -9
-40 -5 2 -8 0 -8 -6 0 -5 20 -9 45 -9 40 0 45 2 40 18 -15 46 -18 71 -20 162
-1 54 1 95 5 93 5 -3 13 7 18 22 7 23 9 17 8 -33 -1 -71 12 -100 60 -133 40
-28 120 -33 135 -10 5 8 12 14 16 14 4 0 7 3 6 7 -2 4 3 5 11 2 8 -3 17 0 22
7 5 8 3 10 -7 5 -8 -5 -8 -2 2 6 23 19 41 57 35 74 -3 8 -2 14 3 14 5 0 7 17
5 38 -4 38 -11 77 -14 77 -1 0 -4 11 -6 25 -2 13 -10 28 -17 32 -6 4 -8 8 -4
8 10 0 -54 100 -89 140 -15 16 -31 27 -37 23 -6 -3 -7 -1 -4 4 10 16 -141 133
-170 133 -6 0 -41 -22 -77 -49z"/>
<path fill="#000000" stroke="none" d="M2094 2148 c-70 -46 -217 -195 -210
-214 3 -8 2 -13 -3 -10 -16 10 -62 -112 -66 -175 -3 -63 10 -123 26 -113 5 3
6 -1 3 -9 -3 -9 8 -25 28 -40 37 -28 66 -36 87 -23 9 6 12 5 7 -2 -9 -16 45
-4 65 14 8 8 19 11 22 7 4 -3 7 1 7 11 0 9 4 15 9 12 5 -3 12 4 16 17 5 12 11
31 15 42 4 11 2 26 -4 34 -8 11 -8 13 2 7 13 -8 17 6 5 18 -4 3 -8 14 -9 24
-2 15 -1 14 12 -2 8 -11 14 -24 14 -29 0 -4 3 -6 8 -3 8 5 7 -134 -2 -179 -18
-91 -20 -84 25 -82 l40 2 -6 35 c-13 66 -15 85 -18 152 -1 36 1 64 5 61 5 -2
8 4 8 15 0 10 9 27 20 37 21 19 21 19 7 -8 -8 -14 -13 -37 -11 -49 1 -13 3
-29 3 -36 1 -7 5 -11 9 -8 5 3 8 -5 8 -17 -1 -13 4 -21 12 -19 8 1 11 -2 8 -7
-4 -5 6 -18 22 -29 32 -23 96 -37 86 -19 -5 9 -3 8 6 0 10 -9 18 -9 34 0 12 6
23 11 26 12 3 0 15 9 26 20 92 88 53 288 -84 430 -61 63 -180 155 -201 155 -4
0 -30 -14 -57 -32z"/>
<path fill="#000000" stroke="none" d="M964 1269 c-123 -85 -272 -271 -248
-310 4 -8 3 -9 -4 -5 -10 6 -28 -72 -25 -111 0 -7 1 -22 2 -34 0 -11 5 -18 9
-15 5 3 8 -5 8 -17 -1 -12 4 -21 10 -20 7 1 11 -5 10 -13 -3 -41 115 -82 151
-53 14 11 15 12 9 0 -6 -8 0 -7 18 4 14 9 23 21 20 26 -3 5 0 8 8 7 7 -2 12 3
10 10 -1 8 2 11 7 8 15 -9 22 9 27 66 3 35 0 54 -8 60 -10 6 -10 8 0 8 35 0
51 -147 27 -254 -11 -51 -9 -68 5 -46 6 10 10 11 10 3 0 -7 5 -13 11 -13 5 0
7 5 3 12 -5 7 -3 8 7 2 22 -13 39 -13 39 0 0 7 -3 16 -7 20 -4 3 -8 14 -9 24
-6 66 -17 138 -20 144 -3 4 0 10 6 13 8 5 7 12 -2 23 -11 13 -11 14 1 7 11 -6
13 -4 8 8 -3 10 -2 17 4 17 6 0 7 5 4 10 -3 6 -1 10 5 10 7 0 10 6 7 13 -3 8
1 14 8 14 10 0 11 -5 4 -18 -12 -24 -12 -82 1 -74 5 3 7 0 4 -9 -7 -20 14 -58
28 -50 6 4 8 3 5 -3 -4 -6 3 -19 15 -29 14 -12 18 -14 13 -4 -6 10 -1 9 13 -4
16 -14 31 -17 64 -13 24 4 47 6 51 6 5 1 5 6 1 13 -4 6 -3 8 4 4 10 -6 42 19
72 58 13 18 13 19 0 11 -13 -8 -13 -6 -2 8 8 9 11 21 7 27 -3 5 -2 10 3 10 6
0 8 17 6 38 -7 72 -16 112 -25 107 -5 -4 -7 0 -4 7 8 20 -49 110 -111 178 -48
51 -138 123 -190 153 -6 4 -38 -12 -70 -34z"/>
<path fill="#000000" stroke="none" d="M2092 1269 c-105 -69 -243 -223 -226
-251 4 -6 3 -8 -4 -4 -13 8 -46 -88 -38 -110 3 -8 2 -12 -4 -9 -12 8 -6 -93 8
-128 7 -16 17 -25 22 -22 6 4 9 1 8 -5 -5 -20 48 -52 92 -57 67 -8 122 28 145
94 10 29 10 41 2 52 -10 12 -9 13 2 6 11 -6 13 -4 8 8 -18 44 -17 49 3 20 23
-35 32 -113 20 -170 -6 -24 -5 -31 4 -26 8 5 8 3 -1 -8 -6 -8 -14 -30 -18 -49
-6 -34 -5 -35 24 -36 20 -1 28 2 24 10 -4 6 2 4 12 -4 17 -14 18 -13 12 20 -3
19 -8 44 -11 56 -2 11 -5 38 -7 60 -1 21 -8 45 -13 53 -8 11 -8 13 2 7 8 -5
12 2 13 26 1 18 1 36 0 41 0 4 4 7 10 7 5 0 8 3 6 8 -3 4 5 16 16 27 l20 20
-12 -23 c-7 -13 -10 -29 -8 -37 3 -7 2 -16 -3 -21 -11 -12 13 -80 28 -77 6 2
9 -3 6 -11 -6 -15 32 -43 68 -50 12 -2 28 -5 33 -7 20 -5 65 13 58 24 -3 6 -1
7 5 3 20 -12 52 13 72 57 20 42 22 107 6 181 -21 94 -141 241 -265 325 l-59
41 -60 -41z"/>
<path fill="#000000" stroke="none" d="M2816 949 c4 -29 2 -49 -5 -53 -6 -4
-9 -1 -6 6 7 18 -31 58 -55 58 -28 0 -60 -35 -60 -66 0 -14 4 -22 10 -19 5 3
7 0 4 -9 -8 -20 14 -58 29 -50 7 4 9 4 5 -1 -11 -11 12 -36 25 -28 5 3 7 1 4
-4 -10 -15 54 -54 69 -42 6 5 15 5 19 1 5 -4 5 -1 1 6 -4 7 -2 12 7 12 25 0
94 90 80 104 -3 3 -1 6 5 6 14 0 7 57 -10 73 -30 28 -81 14 -99 -26 -7 -17 -8
-9 -5 29 3 39 1 51 -10 51 -11 0 -12 -11 -8 -48z"/>
<path fill="#000000" stroke="none" d="M2854 645 c-49 -14 -106 -54 -97 -68 3
-6 1 -7 -5 -3 -13 8 -65 -65 -82 -117 -16 -52 -14 -127 5 -173 18 -44 64 -96
77 -88 4 3 8 1 8 -4 0 -17 91 -5 119 15 69 52 84 182 27 239 -36 35 -92 44
-138 20 -24 -13 -27 -12 -31 5 -3 10 -2 19 1 19 11 0 32 52 26 62 -3 5 -2 7 3
6 5 -2 26 14 47 35 22 20 43 38 48 38 4 1 13 3 18 4 6 1 20 3 32 4 12 0 18 4
14 8 -11 11 -29 11 -72 -2z"/>
<path fill="#ffffff" stroke="none" d="M2830 448 c0 4 5 -1 11 -11 6 -9 15
-14 21 -11 6 4 8 3 5 -3 -3 -5 0 -27 7 -48 8 -21 12 -46 11 -54 -2 -9 -4 -28
-4 -42 -1 -14 -10 -35 -20 -46 -11 -12 -17 -24 -13 -27 3 -4 -2 -4 -12 0 -15
6 -17 4 -11 -7 7 -11 6 -12 -6 -3 -8 6 -22 10 -32 9 -9 -2 -15 0 -12 5 3 4 -2
11 -10 14 -17 6 -39 53 -36 74 1 6 -2 20 -7 29 -6 9 -6 29 -1 45 4 16 4 26 -1
23 -4 -3 -3 6 3 19 7 13 15 22 19 20 3 -2 9 0 13 6 4 6 11 8 16 5 5 -4 9 -2 9
4 0 7 8 7 25 1 14 -5 25 -6 25 -2z"/>
</g>
</svg>
