<?xml version="1.0" standalone="no"?>
<!DOCTYPE svg PUBLIC "-//W3C//DTD SVG 20010904//EN"
 "http://www.w3.org/TR/2001/REC-SVG-20010904/DTD/svg10.dtd">
<svg version="1.0" xmlns="http://www.w3.org/2000/svg"
 width="318.000000pt" height="451.000000pt" viewBox="0 0 318.000000 451.000000"
 preserveAspectRatio="xMidYMid meet">
<metadata>
Created by potrace 1.16, written by Peter Selinger 2001-2019
</metadata>
<g transform="translate(0.000000,451.000000) scale(0.100000,-0.100000)"
fill="#000000" stroke="none">
<path fill="#000000" stroke="none" d="M355 4278 c-7 -18 -45 -107 -84 -197
-39 -90 -68 -168 -64 -174 3 -6 1 -7 -5 -3 -6 3 -13 -3 -17 -14 -3 -11 -17
-23 -31 -26 -13 -3 -22 -10 -19 -14 6 -10 25 -8 44 4 9 6 12 5 8 0 -7 -12 78
-12 89 -1 4 4 -2 7 -14 7 -11 0 -24 5 -27 11 -11 16 -13 59 -3 53 7 -5 25 51
21 67 -1 3 30 7 70 8 40 1 84 3 99 5 15 2 27 0 26 -3 -2 -18 3 -32 10 -27 4 2
8 -3 9 -12 1 -9 4 -34 8 -55 7 -34 5 -39 -14 -44 -29 -7 -27 -19 3 -19 14 0
22 4 19 10 -4 5 -1 6 8 1 19 -12 49 -14 55 -3 3 5 11 5 17 1 11 -8 22 -8 52
-4 6 1 -4 8 -21 15 -27 12 -39 31 -91 155 -33 78 -62 138 -66 135 -3 -3 -3 4
0 17 5 17 3 20 -7 14 -8 -5 -11 -4 -7 2 4 6 -3 33 -15 59 -12 27 -21 52 -20
57 1 4 -3 7 -9 7 -5 0 -16 -15 -24 -32z"/>
<path fill="#ffffff" stroke="none" d="M374 4185 c-5 -12 30 -98 37 -90 3 2 5
-4 6 -13 1 -9 4 -26 8 -38 6 -20 3 -21 -69 -23 -75 -2 -76 -2 -74 23 1 13 6
22 10 20 8 -5 25 53 20 69 -1 5 3 5 9 1 9 -5 10 -2 6 10 -4 9 -3 15 2 12 5 -3
11 5 15 17 3 13 12 24 20 24 8 0 12 -5 10 -12z"/>
<path fill="#000000" stroke="none" d="M313 3751 c-50 -36 -85 -80 -78 -98 2
-8 0 -11 -5 -8 -6 4 -10 -8 -10 -28 0 -37 25 -67 56 -67 22 1 54 23 54 38 0 5
7 13 16 16 22 8 24 8 24 -7 0 -8 8 -21 18 -30 21 -19 67 -24 56 -5 -5 7 -3 8
5 4 19 -12 41 25 35 59 -8 48 -41 92 -100 133 l-32 22 -39 -29z"/>
<path fill="#000000" stroke="none" d="M349 3598 c0 -2 -3 -23 -5 -47 -4 -31
-2 -42 7 -39 7 2 15 10 17 18 3 7 0 10 -5 7 -5 -3 -7 9 -5 29 2 19 1 34 -2 34
-3 0 -6 -1 -7 -2z"/>
<path fill="#000000" stroke="none" d="M1520 3057 c-122 -75 -307 -221 -302
-239 1 -5 -1 -7 -6 -4 -9 6 -143 -129 -203 -204 -62 -78 -130 -190 -123 -202
4 -6 3 -8 -3 -5 -13 8 -26 -20 -16 -35 3 -6 2 -8 -4 -5 -12 8 -66 -124 -67
-164 -1 -15 -4 -25 -7 -23 -10 6 -21 -84 -13 -98 4 -6 3 -8 -4 -4 -7 4 -11
-22 -10 -87 0 -103 6 -149 18 -142 5 3 6 -5 2 -17 -3 -13 -1 -19 5 -15 7 5 9
-1 5 -15 -4 -16 -2 -19 8 -13 9 5 11 4 6 -3 -9 -15 12 -54 24 -47 6 3 8 0 5
-7 -6 -18 52 -81 67 -72 6 4 8 3 4 -4 -7 -12 48 -55 58 -45 3 3 6 2 6 -4 0
-10 11 -14 70 -30 8 -2 25 -5 37 -6 12 -2 25 -6 29 -9 3 -4 16 -3 28 1 11 4
28 7 36 6 8 -1 21 4 29 9 11 8 13 8 7 -1 -5 -9 -2 -11 8 -7 9 3 16 10 16 15 0
4 6 6 14 3 7 -3 21 2 30 11 9 9 16 13 16 9 0 -4 9 1 20 11 11 10 20 15 20 12
0 -4 16 10 35 30 19 20 35 41 35 46 0 4 4 6 8 3 12 -7 44 63 36 76 -5 7 -2 8
6 3 10 -6 12 -4 7 8 -3 10 -3 17 1 17 10 0 15 31 16 116 0 64 -3 77 -32 124
l-32 52 29 -24 c23 -18 84 -115 87 -138 3 -28 19 -78 28 -89 6 -8 7 -12 1 -9
-6 4 -11 -36 -11 -110 -2 -141 -7 -221 -14 -217 -3 2 -14 -44 -25 -101 l-20
-104 30 -1 c173 -7 177 -6 171 25 -4 22 -19 96 -22 109 -1 4 -2 8 -3 10 -2 1
-4 16 -6 32 -2 17 -6 44 -9 60 -14 80 -19 113 -19 152 -1 26 -5 39 -12 35 -7
-4 -6 -1 1 9 12 16 12 29 0 48 -6 10 -5 12 3 7 8 -5 11 2 11 21 0 62 5 111 11
107 9 -5 20 26 13 37 -3 5 0 9 7 9 6 0 9 8 6 20 -3 11 0 23 5 27 7 4 8 1 3 -7
-5 -9 -4 -11 3 -6 7 4 12 13 12 20 0 8 7 19 15 26 8 7 12 17 8 24 -3 6 -3 8 2
4 4 -4 17 -2 29 4 l21 11 -21 -24 c-30 -34 -44 -83 -44 -157 0 -60 1 -63 18
-51 16 12 16 12 0 -5 -14 -16 -14 -22 -2 -52 8 -19 12 -34 9 -34 -3 0 2 -11
11 -25 9 -14 21 -22 27 -18 6 3 7 1 3 -6 -9 -14 12 -43 25 -35 5 3 8 0 7 -8
-2 -7 3 -12 10 -10 8 1 11 -2 8 -6 -7 -11 17 -34 67 -61 44 -24 51 -26 42 -8
-4 6 0 4 8 -6 8 -10 30 -19 49 -21 19 -2 39 -5 44 -8 5 -2 20 -3 34 -1 14 2
33 4 43 4 9 0 15 4 12 8 -2 5 6 7 20 6 26 -3 105 32 105 46 0 5 6 8 13 6 6 -1
11 4 10 10 -2 7 0 12 5 10 10 -3 47 32 77 73 19 26 22 37 13 47 -9 11 -7 12 7
6 15 -5 17 -3 12 11 -4 10 -3 15 3 11 6 -3 10 -3 10 2 1 4 7 31 14 58 10 37
11 54 2 64 -8 12 -8 13 2 7 11 -7 12 9 8 83 -4 49 -10 101 -15 113 -4 13 -6
29 -3 37 2 8 0 11 -5 8 -6 -4 -9 4 -7 18 1 14 -2 25 -7 25 -4 0 -5 7 -2 17 4
11 3 14 -5 9 -8 -5 -10 -2 -6 9 4 8 1 22 -6 30 -7 8 -10 15 -7 15 3 0 -14 41
-39 91 -28 58 -48 88 -56 83 -7 -4 -8 -3 -4 4 9 14 -52 105 -65 97 -5 -3 -6 0
-3 8 3 9 -11 32 -34 56 -21 23 -37 41 -35 41 2 0 -11 15 -28 33 -17 17 -36 31
-41 29 -5 -1 -7 2 -4 6 13 22 -277 256 -414 334 l-45 25 -65 -40z"/>
<path fill="#000000" stroke="none" d="M2816 949 c6 -46 -7 -72 -22 -48 -4 8
-3 9 4 5 18 -11 14 8 -5 31 -22 25 -70 24 -89 -2 -15 -21 -19 -69 -5 -61 5 4
7 -3 4 -13 -6 -22 48 -86 95 -114 27 -15 32 -15 45 -3 8 8 18 12 22 8 5 -4 5
1 2 11 -4 11 -3 16 4 11 13 -8 81 67 74 84 -2 6 0 12 5 12 13 0 3 58 -12 73
-30 28 -81 14 -99 -26 -7 -17 -8 -9 -5 29 3 39 1 51 -10 51 -11 0 -12 -11 -8
-48z"/>
<path fill="#000000" stroke="none" d="M2550 678 c0 -4 8 -8 18 -8 10 0 25
-11 32 -25 7 -13 16 -22 20 -20 4 3 7 -1 6 -8 -2 -23 77 -206 87 -200 6 3 7 1
3 -5 -3 -6 10 -52 30 -103 34 -83 38 -90 51 -73 7 10 11 24 8 32 -2 7 -1 11 4
8 11 -7 42 74 34 87 -3 6 -1 7 5 3 13 -8 26 29 16 45 -4 7 -3 9 4 5 6 -3 14 4
18 16 9 29 59 143 79 181 8 16 12 34 8 39 -3 7 -1 8 5 4 7 -4 12 -2 12 3 0 6
9 11 21 11 11 0 18 4 15 9 -7 10 -136 11 -136 0 0 -4 11 -6 24 -5 18 2 23 -1
18 -12 -3 -10 -1 -13 6 -8 7 4 5 -9 -5 -31 -8 -21 -20 -49 -26 -63 -6 -14 -9
-29 -8 -34 1 -5 -4 -5 -11 0 -7 6 -48 10 -90 9 l-77 -1 -21 49 c-25 61 -25 73
-3 86 10 5 15 13 11 17 -4 4 -15 1 -25 -7 -9 -8 -14 -9 -10 -2 9 15 -32 14
-52 -1 -11 -8 -13 -8 -8 0 5 8 -5 11 -28 11 -19 -1 -35 -5 -35 -9z"/>
<path fill="#ffffff" stroke="none" d="M2875 508 c4 -3 -7 -38 -24 -78 -17
-40 -28 -77 -24 -83 3 -6 1 -7 -5 -3 -7 4 -12 2 -12 -5 0 -12 -15 -3 -15 9 -2
22 -18 51 -26 47 -5 -3 -6 0 -3 8 3 8 -5 37 -18 63 l-24 49 73 0 c39 0 75 -3
78 -7z"/>
</g>
</svg>
